<?xml version="1.0" encoding="UTF-8" standalone="no"?>
<!-- Created with Inkscape (http://www.inkscape.org/) -->

<svg
   width="64"
   height="64"
   viewBox="0 0 64 64"
   version="1.1"
   id="svg6215"
   inkscape:version="1.2.2 (b0a8486541, 2022-12-01)"
   sodipodi:docname="icon_dark.svg"
   inkscape:export-filename="../../../media/tmpfs/icon.svg"
   inkscape:export-xdpi="96"
   inkscape:export-ydpi="96"
   xmlns:inkscape="http://www.inkscape.org/namespaces/inkscape"
   xmlns:sodipodi="http://sodipodi.sourceforge.net/DTD/sodipodi-0.dtd"
   xmlns="http://www.w3.org/2000/svg"
   xmlns:svg="http://www.w3.org/2000/svg">
  <sodipodi:namedview
     id="namedview6217"
     pagecolor="#ffffff"
     bordercolor="#000000"
     borderopacity="0.25"
     inkscape:showpageshadow="2"
     inkscape:pageopacity="0.0"
     inkscape:pagecheckerboard="false"
     inkscape:deskcolor="#d1d1d1"
     inkscape:document-units="px"
     showgrid="true"
     inkscape:zoom="12.414927"
     inkscape:cx="27.547484"
     inkscape:cy="31.413797"
     inkscape:window-width="1920"
     inkscape:window-height="1007"
     inkscape:window-x="0"
     inkscape:window-y="0"
     inkscape:window-maximized="1"
     inkscape:current-layer="layer1">
    <inkscape:grid
       type="axonomgrid"
       id="grid6699"
       originx="32"
       originy="32"
       empspacing="5"
       units="px"
       spacingy="2" />
  </sodipodi:namedview>
  <defs
     id="defs6212">
    <inkscape:path-effect
       effect="fillet_chamfer"
       id="path-effect30034"
       is_visible="true"
       lpeversion="1"
       nodesatellites_param="F,0,0,1,0,1,0,1 @ F,0,0,1,0,1,0,1 @ F,0,0,1,0,1,0,1 @ F,0,0,1,0,1,0,1"
       unit="px"
       method="auto"
       mode="F"
       radius="1"
       chamfer_steps="1"
       flexible="false"
       use_knot_distance="true"
       apply_no_radius="true"
       apply_with_radius="true"
       only_selected="false"
       hide_knots="false" />
    <inkscape:path-effect
       effect="fillet_chamfer"
       id="path-effect30032"
       is_visible="true"
       lpeversion="1"
       nodesatellites_param="F,0,0,1,0,1,0,1 @ F,0,0,1,0,1,0,1 @ F,0,0,1,0,1,0,1 @ F,0,0,1,0,1,0,1"
       unit="px"
       method="auto"
       mode="F"
       radius="1"
       chamfer_steps="1"
       flexible="false"
       use_knot_distance="true"
       apply_no_radius="true"
       apply_with_radius="true"
       only_selected="false"
       hide_knots="false" />
    <inkscape:path-effect
       effect="fillet_chamfer"
       id="path-effect30030"
       is_visible="true"
       lpeversion="1"
       nodesatellites_param="F,0,0,1,0,1,0,1 @ F,0,0,1,0,1,0,1 @ F,0,0,1,0,1,0,1 @ F,0,0,1,0,1,0,1"
       unit="px"
       method="auto"
       mode="F"
       radius="1"
       chamfer_steps="1"
       flexible="false"
       use_knot_distance="true"
       apply_no_radius="true"
       apply_with_radius="true"
       only_selected="false"
       hide_knots="false" />
    <inkscape:path-effect
       effect="fillet_chamfer"
       id="path-effect30028"
       is_visible="true"
       lpeversion="1"
       nodesatellites_param="F,0,0,1,0,1,0,1 @ F,0,0,1,0,1,0,1 @ F,0,0,1,0,1,0,1 @ F,0,0,1,0,1,0,1"
       unit="px"
       method="auto"
       mode="F"
       radius="1"
       chamfer_steps="1"
       flexible="false"
       use_knot_distance="true"
       apply_no_radius="true"
       apply_with_radius="true"
       only_selected="false"
       hide_knots="false" />
    <inkscape:path-effect
       effect="fillet_chamfer"
       id="path-effect30026"
       is_visible="true"
       lpeversion="1"
       nodesatellites_param="F,0,0,1,0,1,0,1 @ F,0,0,1,0,1,0,1 @ F,0,0,1,0,1,0,1 @ F,0,0,1,0,1,0,1"
       unit="px"
       method="auto"
       mode="F"
       radius="1"
       chamfer_steps="1"
       flexible="false"
       use_knot_distance="true"
       apply_no_radius="true"
       apply_with_radius="true"
       only_selected="false"
       hide_knots="false" />
    <inkscape:path-effect
       effect="fillet_chamfer"
       id="path-effect30024"
       is_visible="true"
       lpeversion="1"
       nodesatellites_param="F,0,0,1,0,1,0,1 @ F,0,0,1,0,1,0,1 @ F,0,0,1,0,1,0,1 @ F,0,0,1,0,1,0,1"
       unit="px"
       method="auto"
       mode="F"
       radius="1"
       chamfer_steps="1"
       flexible="false"
       use_knot_distance="true"
       apply_no_radius="true"
       apply_with_radius="true"
       only_selected="false"
       hide_knots="false" />
    <inkscape:path-effect
       effect="fillet_chamfer"
       id="path-effect30022"
       is_visible="true"
       lpeversion="1"
       nodesatellites_param="F,0,0,1,0,1,0,1 @ F,0,0,1,0,1,0,1 @ F,0,0,1,0,1,0,1 @ F,0,0,1,0,1,0,1"
       unit="px"
       method="auto"
       mode="F"
       radius="1"
       chamfer_steps="1"
       flexible="false"
       use_knot_distance="true"
       apply_no_radius="true"
       apply_with_radius="true"
       only_selected="false"
       hide_knots="false" />
    <inkscape:path-effect
       effect="fillet_chamfer"
       id="path-effect29986"
       is_visible="true"
       lpeversion="1"
       nodesatellites_param="F,0,0,1,0,1,0,1 @ F,0,0,1,0,1,0,1 @ F,0,0,1,0,1,0,1 @ F,0,0,1,0,1,0,1"
       unit="px"
       method="auto"
       mode="F"
       radius="1"
       chamfer_steps="1"
       flexible="false"
       use_knot_distance="true"
       apply_no_radius="true"
       apply_with_radius="true"
       only_selected="false"
       hide_knots="false" />
    <inkscape:path-effect
       effect="fillet_chamfer"
       id="path-effect29984"
       is_visible="true"
       lpeversion="1"
       nodesatellites_param="F,0,0,1,0,1,0,1 @ F,0,0,1,0,1,0,1 @ F,0,0,1,0,1,0,1 @ F,0,0,1,0,1,0,1"
       unit="px"
       method="auto"
       mode="F"
       radius="1"
       chamfer_steps="1"
       flexible="false"
       use_knot_distance="true"
       apply_no_radius="true"
       apply_with_radius="true"
       only_selected="false"
       hide_knots="false" />
    <inkscape:path-effect
       effect="fillet_chamfer"
       id="path-effect9730"
       is_visible="true"
       lpeversion="1"
       nodesatellites_param="F,0,0,1,0,3,0,1 @ F,0,0,1,0,3,0,1 @ F,0,0,1,0,3,0,1 @ F,0,0,1,0,3,0,1 @ F,0,0,1,0,3,0,1 @ F,0,0,1,0,3,0,1"
       unit="px"
       method="auto"
       mode="F"
       radius="3"
       chamfer_steps="1"
       flexible="false"
       use_knot_distance="true"
       apply_no_radius="true"
       apply_with_radius="true"
       only_selected="false"
       hide_knots="false" />
    <inkscape:path-effect
       effect="fillet_chamfer"
       id="path-effect9728"
       is_visible="true"
       lpeversion="1"
       nodesatellites_param="F,0,0,1,0,3,0,1 @ F,0,0,1,0,3,0,1 @ F,0,0,1,0,3,0,1 @ F,0,0,1,0,3,0,1"
       unit="px"
       method="auto"
       mode="F"
       radius="3"
       chamfer_steps="1"
       flexible="false"
       use_knot_distance="true"
       apply_no_radius="true"
       apply_with_radius="true"
       only_selected="false"
       hide_knots="false" />
  </defs>
  <g
     inkscape:label="Logo"
     inkscape:groupmode="layer"
     id="layer1">
    <path
       sodipodi:type="star"
       style="display:inline;fill:none;fill-opacity:1;stroke:#fafafa;stroke-width:1;stroke-linecap:butt;stroke-dasharray:none;stroke-opacity:1"
       id="path8946"
       inkscape:flatsided="true"
       sodipodi:sides="6"
       sodipodi:cx="32"
       sodipodi:cy="32"
       sodipodi:r1="30"
       sodipodi:r2="25.980762"
       sodipodi:arg1="1.5707963"
       sodipodi:arg2="2.0943951"
       inkscape:rounded="-3.469447e-18"
       inkscape:randomized="0"
       d="M 29.401925,60.5 8.6173145,48.500001 a 5.1961524,5.1961524 59.999998 0 1 -2.5980763,-4.5 l -6e-7,-24 a 5.1961524,5.1961524 120 0 1 2.5980761,-4.5 L 29.401923,3.5000001 a 5.1961524,5.1961524 180 0 1 5.196152,-2e-7 l 20.78461,11.9999991 a 5.1961524,5.1961524 59.999998 0 1 2.598077,4.5 l 0,24 a 5.1961524,5.1961524 120 0 1 -2.598076,4.5 L 34.598077,60.5 a 5.1961524,5.1961524 180 0 1 -5.196152,0 z"
       inkscape:path-effect="#path-effect9730"
       inkscape:label="frame" />
    <g
       id="g32419"
       inkscape:label="screen">
      <path
         style="display:inline;fill:#fafafa;fill-opacity:1;stroke:none;stroke-width:1;stroke-linecap:butt;stroke-dasharray:none;stroke-opacity:1"
         d="m 7.7512887,23 0,20 a 5.1961524,5.1961524 60 0 0 2.5980763,4.5 l 17.320508,10 A 1.7320508,1.7320508 150 0 0 30.267949,56 V 36 A 5.1961524,5.1961524 60 0 0 27.669873,31.5 L 10.349365,21.5 A 1.7320508,1.7320508 150 0 0 7.7512887,23 Z"
         id="path9726"
         sodipodi:nodetypes="ccccc"
         inkscape:label="screen"
         inkscape:original-d="M 7.7512887,20 V 46 L 30.267949,59 V 33 Z"
         inkscape:path-effect="#path-effect9728" />
      <text
         xml:space="preserve"
         style="font-style:normal;font-variant:normal;font-weight:bold;font-stretch:normal;font-size:12px;font-family:Quicksand;-inkscape-font-specification:'Quicksand Bold';text-align:start;text-anchor:start;display:inline;fill:#6cc04a;fill-opacity:1;stroke:none;stroke-width:1;stroke-linecap:butt;stroke-dasharray:none"
         x="8.6173143"
         y="39.524792"
         id="text9786"
         transform="skewY(30)"
         inkscape:label="text"><tspan
           sodipodi:role="line"
           id="tspan9784"
           x="8.6173143"
           y="39.524792">Pi</tspan></text>
    </g>
    <g
       id="g18302"
       inkscape:label="solar_panel">
      <path
         style="fill:#01579b;fill-opacity:1;stroke:none;stroke-width:1;stroke-dasharray:none;stroke-opacity:1"
         d="m 32.866025,29.5 5.196153,-3 a 0.57735029,0.57735029 90 0 0 0,-1 l -5.196153,-3 a 1.7320507,1.7320507 0 0 0 -1.73205,0 l -5.196153,3 a 0.57735029,0.57735029 90 0 0 0,1 l 5.196153,3 a 1.7320507,1.7320507 0 0 0 1.73205,0 z"
         id="path14647"
         inkscape:label="panel_9"
         inkscape:path-effect="#path-effect30028"
         inkscape:original-d="M 32,30 38.928203,26 32,22 25.071797,26 Z" />
      <path
         style="fill:#0288d1;fill-opacity:1;stroke:none;stroke-width:1;stroke-dasharray:none;stroke-opacity:1"
         d="m 25.071796,25 5.196154,-3 a 0.57735021,0.57735021 90 0 0 0,-1 l -5.196154,-3 a 1.7320509,1.7320509 180 0 0 -1.73205,0 l -5.196153,3 a 0.57735029,0.57735029 90 0 0 0,1 l 5.196153,3 a 1.7320509,1.7320509 1.7904931e-6 0 0 1.73205,0 z"
         id="path14649"
         sodipodi:nodetypes="ccccc"
         inkscape:label="panel_8"
         inkscape:path-effect="#path-effect30030"
         inkscape:original-d="m 24.205771,25.5 6.928204,-4 -6.928204,-4 -6.928203,4 z" />
      <path
         style="fill:#0288d1;fill-opacity:1;stroke:none;stroke-width:1;stroke-dasharray:none;stroke-opacity:1"
         d="m 10.349365,16.5 5.196153,-3 a 1.7320508,1.7320508 8.9524655e-7 0 1 1.73205,0 l 5.196153,3 a 0.57735029,0.57735029 90 0 1 0,1 l -5.196153,3 a 1.7320508,1.7320508 180 0 1 -1.73205,0 l -5.196153,-3 a 0.57735025,0.57735025 90 0 1 0,-1 z"
         id="path10127"
         sodipodi:nodetypes="ccccc"
         inkscape:label="panel_7"
         inkscape:path-effect="#path-effect30034"
         inkscape:original-d="m 9.4833395,17 6.9282035,-4 6.928203,4 -6.928203,4 z" />
      <path
         style="fill:#01579b;fill-opacity:1;stroke:none;stroke-width:1;stroke-dasharray:none;stroke-opacity:1"
         d="m 45.856407,21 -5.196153,-3 a 1.7320509,1.7320509 1.790493e-6 0 0 -1.73205,0 l -5.196154,3 a 0.57735021,0.57735021 90 0 0 0,1 l 5.196154,3 a 1.7320509,1.7320509 180 0 0 1.73205,0 l 5.196153,-3 a 0.57735029,0.57735029 90 0 0 0,-1 z"
         id="path14645"
         sodipodi:nodetypes="ccccc"
         inkscape:label="panel_6"
         inkscape:path-effect="#path-effect30026"
         inkscape:original-d="m 46.722432,21.5 -6.928203,-4 -6.928204,4 6.928204,4 z" />
      <path
         style="fill:#0288d1;fill-opacity:1;stroke:none;stroke-width:1;stroke-dasharray:none;stroke-opacity:1"
         d="m 25.937822,16.5 5.196153,-3 a 1.7320507,1.7320507 0 0 1 1.73205,0 l 5.196153,3 a 0.57735029,0.57735029 90 0 1 0,1 l -5.196153,3 a 1.7320507,1.7320507 0 0 1 -1.73205,0 l -5.196153,-3 a 0.57735029,0.57735029 90 0 1 0,-1 z"
         id="path14651"
         sodipodi:nodetypes="ccccc"
         inkscape:label="panel_5"
         inkscape:path-effect="#path-effect30032"
         inkscape:original-d="M 25.071797,17 32,13 38.928203,17 32,21 Z" />
      <path
         style="fill:#03a9f4;fill-opacity:1;stroke:none;stroke-width:1;stroke-dasharray:none;stroke-opacity:1"
         d="m 18.143593,13 5.196153,3 a 1.7320509,1.7320509 1.7904931e-6 0 0 1.73205,0 l 5.196154,-3 a 0.57735021,0.57735021 90 0 0 0,-1 L 25.071796,9 a 1.7320509,1.7320509 180 0 0 -1.73205,0 l -5.196153,3 a 0.57735029,0.57735029 90 0 0 0,1 z"
         id="path13909"
         sodipodi:nodetypes="ccccc"
         inkscape:label="panel_4"
         inkscape:path-effect="#path-effect29986"
         inkscape:original-d="m 17.277568,12.5 6.928203,4 6.928204,-4 -6.928204,-4 z" />
      <path
         style="fill:#01579b;fill-opacity:1;stroke:none;stroke-width:1;stroke-dasharray:none;stroke-opacity:1"
         d="m 53.650635,17.5 -5.196153,3 a 1.7320507,1.7320507 0 0 1 -1.73205,0 l -5.196153,-3 a 0.57735029,0.57735029 90 0 1 0,-1 l 5.196153,-3 a 1.7320507,1.7320507 0 0 1 1.73205,0 l 5.196153,3 a 0.57735029,0.57735029 90 0 1 0,1 z"
         id="path14643"
         inkscape:label="panel_3"
         inkscape:path-effect="#path-effect30024"
         inkscape:original-d="m 54.51666,17 -6.928203,4 -6.928203,-4 6.928203,-4 z" />
      <path
         style="fill:#0288d1;fill-opacity:1;stroke:none;stroke-width:1;stroke-dasharray:none;stroke-opacity:1"
         d="m 38.928204,9 -5.196154,3 a 0.57735021,0.57735021 90 0 0 0,1 l 5.196154,3 a 1.7320509,1.7320509 180 0 0 1.73205,0 l 5.196153,-3 a 0.57735029,0.57735029 90 0 0 0,-1 L 40.660254,9 a 1.7320509,1.7320509 1.790493e-6 0 0 -1.73205,0 z"
         id="path14641"
         sodipodi:nodetypes="ccccc"
         inkscape:label="panel_2"
         inkscape:path-effect="#path-effect30022"
         inkscape:original-d="m 39.794229,8.5 -6.928204,4 6.928204,4 6.928203,-4 z" />
      <path
         style="fill:#03a9f4;fill-opacity:1;stroke:none;stroke-width:1;stroke-dasharray:none;stroke-opacity:1"
         d="m 25.937822,8.5 5.196153,3 a 1.7320507,1.7320507 0 0 0 1.73205,0 l 5.196153,-3 a 0.57735029,0.57735029 90 0 0 0,-1 l -5.196153,-3 a 1.7320507,1.7320507 0 0 0 -1.73205,0 l -5.196153,3 a 0.57735029,0.57735029 90 0 0 0,1 z"
         id="path14639"
         sodipodi:nodetypes="ccccc"
         inkscape:label="panel_1"
         inkscape:path-effect="#path-effect29984"
         inkscape:original-d="M 25.071797,8 32,12 38.928203,8 32,4 Z" />
    </g>
  </g>
</svg>
