%TF.GenerationSoftware,KiCad,Pcbnew,7.0.7*%
%TF.CreationDate,2023-09-16T21:48:38+03:00*%
%TF.ProjectId,picoups,7069636f-7570-4732-9e6b-696361645f70,1.1.0*%
%TF.SameCoordinates,Original*%
%TF.FileFunction,Copper,L1,Top*%
%TF.FilePolarity,Positive*%
%FSLAX46Y46*%
G04 Gerber Fmt 4.6, Leading zero omitted, Abs format (unit mm)*
G04 Created by KiCad (PCBNEW 7.0.7) date 2023-09-16 21:48:38*
%MOMM*%
%LPD*%
G01*
G04 APERTURE LIST*
G04 Aperture macros list*
%AMRoundRect*
0 Rectangle with rounded corners*
0 $1 Rounding radius*
0 $2 $3 $4 $5 $6 $7 $8 $9 X,Y pos of 4 corners*
0 Add a 4 corners polygon primitive as box body*
4,1,4,$2,$3,$4,$5,$6,$7,$8,$9,$2,$3,0*
0 Add four circle primitives for the rounded corners*
1,1,$1+$1,$2,$3*
1,1,$1+$1,$4,$5*
1,1,$1+$1,$6,$7*
1,1,$1+$1,$8,$9*
0 Add four rect primitives between the rounded corners*
20,1,$1+$1,$2,$3,$4,$5,0*
20,1,$1+$1,$4,$5,$6,$7,0*
20,1,$1+$1,$6,$7,$8,$9,0*
20,1,$1+$1,$8,$9,$2,$3,0*%
%AMOutline5P*
0 Free polygon, 5 corners , with rotation*
0 The origin of the aperture is its center*
0 number of corners: always 5*
0 $1 to $10 corner X, Y*
0 $11 Rotation angle, in degrees counterclockwise*
0 create outline with 5 corners*
4,1,5,$1,$2,$3,$4,$5,$6,$7,$8,$9,$10,$1,$2,$11*%
%AMOutline6P*
0 Free polygon, 6 corners , with rotation*
0 The origin of the aperture is its center*
0 number of corners: always 6*
0 $1 to $12 corner X, Y*
0 $13 Rotation angle, in degrees counterclockwise*
0 create outline with 6 corners*
4,1,6,$1,$2,$3,$4,$5,$6,$7,$8,$9,$10,$11,$12,$1,$2,$13*%
%AMOutline7P*
0 Free polygon, 7 corners , with rotation*
0 The origin of the aperture is its center*
0 number of corners: always 7*
0 $1 to $14 corner X, Y*
0 $15 Rotation angle, in degrees counterclockwise*
0 create outline with 7 corners*
4,1,7,$1,$2,$3,$4,$5,$6,$7,$8,$9,$10,$11,$12,$13,$14,$1,$2,$15*%
%AMOutline8P*
0 Free polygon, 8 corners , with rotation*
0 The origin of the aperture is its center*
0 number of corners: always 8*
0 $1 to $16 corner X, Y*
0 $17 Rotation angle, in degrees counterclockwise*
0 create outline with 8 corners*
4,1,8,$1,$2,$3,$4,$5,$6,$7,$8,$9,$10,$11,$12,$13,$14,$15,$16,$1,$2,$17*%
%AMFreePoly0*
4,1,19,0.500000,-0.750000,0.000000,-0.750000,0.000000,-0.744911,-0.071157,-0.744911,-0.207708,-0.704816,-0.327430,-0.627875,-0.420627,-0.520320,-0.479746,-0.390866,-0.500000,-0.250000,-0.500000,0.250000,-0.479746,0.390866,-0.420627,0.520320,-0.327430,0.627875,-0.207708,0.704816,-0.071157,0.744911,0.000000,0.744911,0.000000,0.750000,0.500000,0.750000,0.500000,-0.750000,0.500000,-0.750000,
$1*%
%AMFreePoly1*
4,1,19,0.000000,0.744911,0.071157,0.744911,0.207708,0.704816,0.327430,0.627875,0.420627,0.520320,0.479746,0.390866,0.500000,0.250000,0.500000,-0.250000,0.479746,-0.390866,0.420627,-0.520320,0.327430,-0.627875,0.207708,-0.704816,0.071157,-0.744911,0.000000,-0.744911,0.000000,-0.750000,-0.500000,-0.750000,-0.500000,0.750000,0.000000,0.750000,0.000000,0.744911,0.000000,0.744911,
$1*%
G04 Aperture macros list end*
%TA.AperFunction,SMDPad,CuDef*%
%ADD10FreePoly0,180.000000*%
%TD*%
%TA.AperFunction,SMDPad,CuDef*%
%ADD11FreePoly1,180.000000*%
%TD*%
%TA.AperFunction,SMDPad,CuDef*%
%ADD12FreePoly0,270.000000*%
%TD*%
%TA.AperFunction,SMDPad,CuDef*%
%ADD13FreePoly1,270.000000*%
%TD*%
%TA.AperFunction,ComponentPad*%
%ADD14Outline5P,-0.850000X0.425000X-0.425000X0.850000X0.850000X0.850000X0.850000X-0.850000X-0.850000X-0.850000X90.000000*%
%TD*%
%TA.AperFunction,ComponentPad*%
%ADD15C,1.700000*%
%TD*%
%TA.AperFunction,ComponentPad*%
%ADD16O,1.700000X1.700000*%
%TD*%
%TA.AperFunction,SMDPad,CuDef*%
%ADD17C,2.000000*%
%TD*%
%TA.AperFunction,SMDPad,CuDef*%
%ADD18FreePoly0,0.000000*%
%TD*%
%TA.AperFunction,SMDPad,CuDef*%
%ADD19FreePoly1,0.000000*%
%TD*%
%TA.AperFunction,ComponentPad*%
%ADD20C,0.500000*%
%TD*%
%TA.AperFunction,SMDPad,CuDef*%
%ADD21R,1.500000X2.500000*%
%TD*%
%TA.AperFunction,SMDPad,CuDef*%
%ADD22R,2.100000X2.100000*%
%TD*%
%TA.AperFunction,SMDPad,CuDef*%
%ADD23R,1.500000X0.500000*%
%TD*%
%TA.AperFunction,ComponentPad*%
%ADD24RoundRect,0.250000X0.350000X0.625000X-0.350000X0.625000X-0.350000X-0.625000X0.350000X-0.625000X0*%
%TD*%
%TA.AperFunction,ComponentPad*%
%ADD25O,1.200000X1.750000*%
%TD*%
%TA.AperFunction,ComponentPad*%
%ADD26O,1.800000X1.000000*%
%TD*%
%TA.AperFunction,ComponentPad*%
%ADD27O,2.100000X1.000000*%
%TD*%
%TA.AperFunction,ViaPad*%
%ADD28C,0.800000*%
%TD*%
%TA.AperFunction,ViaPad*%
%ADD29C,0.600000*%
%TD*%
%TA.AperFunction,Conductor*%
%ADD30C,0.400000*%
%TD*%
%TA.AperFunction,Conductor*%
%ADD31C,0.200000*%
%TD*%
%TA.AperFunction,Conductor*%
%ADD32C,0.350000*%
%TD*%
%TA.AperFunction,Conductor*%
%ADD33C,0.250000*%
%TD*%
G04 APERTURE END LIST*
D10*
%TO.P,JP1,1,A*%
%TO.N,SCL*%
X95150000Y-114000000D03*
D11*
%TO.P,JP1,2,B*%
%TO.N,Net-(J4-Pin_37)*%
X93850000Y-114000000D03*
%TD*%
D12*
%TO.P,JP3,1,A*%
%TO.N,/Solar Panel Supply/CHRG*%
X140000000Y-119350000D03*
D13*
%TO.P,JP3,2,B*%
%TO.N,Net-(D5-K)*%
X140000000Y-120650000D03*
%TD*%
D14*
%TO.P,J4,1,Pin_1*%
%TO.N,3v3*%
X99400000Y-96750000D03*
D15*
%TO.P,J4,2,Pin_2*%
%TO.N,5V*%
X99400000Y-94210000D03*
D16*
%TO.P,J4,3,Pin_3*%
%TO.N,SDA*%
X101940000Y-96750000D03*
%TO.P,J4,4,Pin_4*%
%TO.N,5V*%
X101940000Y-94210000D03*
%TO.P,J4,5,Pin_5*%
%TO.N,SCL*%
X104480000Y-96750000D03*
%TO.P,J4,6,Pin_6*%
%TO.N,GND*%
X104480000Y-94210000D03*
%TO.P,J4,7,Pin_7*%
%TO.N,unconnected-(J4-Pin_7-Pad7)*%
X107020000Y-96750000D03*
%TO.P,J4,8,Pin_8*%
%TO.N,unconnected-(J4-Pin_8-Pad8)*%
X107020000Y-94210000D03*
%TO.P,J4,9,Pin_9*%
%TO.N,GND*%
X109560000Y-96750000D03*
%TO.P,J4,10,Pin_10*%
%TO.N,unconnected-(J4-Pin_10-Pad10)*%
X109560000Y-94210000D03*
%TO.P,J4,11,Pin_11*%
%TO.N,unconnected-(J4-Pin_11-Pad11)*%
X112100000Y-96750000D03*
%TO.P,J4,12,Pin_12*%
%TO.N,unconnected-(J4-Pin_12-Pad12)*%
X112100000Y-94210000D03*
%TO.P,J4,13,Pin_13*%
%TO.N,unconnected-(J4-Pin_13-Pad13)*%
X114640000Y-96750000D03*
%TO.P,J4,14,Pin_14*%
%TO.N,GND*%
X114640000Y-94210000D03*
%TO.P,J4,15,Pin_15*%
%TO.N,unconnected-(J4-Pin_15-Pad15)*%
X117180000Y-96750000D03*
%TO.P,J4,16,Pin_16*%
%TO.N,unconnected-(J4-Pin_16-Pad16)*%
X117180000Y-94210000D03*
%TO.P,J4,17,Pin_17*%
%TO.N,unconnected-(J4-Pin_17-Pad17)*%
X119720000Y-96750000D03*
%TO.P,J4,18,Pin_18*%
%TO.N,unconnected-(J4-Pin_18-Pad18)*%
X119720000Y-94210000D03*
%TO.P,J4,19,Pin_19*%
%TO.N,unconnected-(J4-Pin_19-Pad19)*%
X122260000Y-96750000D03*
%TO.P,J4,20,Pin_20*%
%TO.N,GND*%
X122260000Y-94210000D03*
%TO.P,J4,21,Pin_21*%
%TO.N,unconnected-(J4-Pin_21-Pad21)*%
X124800000Y-96750000D03*
%TO.P,J4,22,Pin_22*%
%TO.N,unconnected-(J4-Pin_22-Pad22)*%
X124800000Y-94210000D03*
%TO.P,J4,23,Pin_23*%
%TO.N,unconnected-(J4-Pin_23-Pad23)*%
X127340000Y-96750000D03*
%TO.P,J4,24,Pin_24*%
%TO.N,unconnected-(J4-Pin_24-Pad24)*%
X127340000Y-94210000D03*
%TO.P,J4,25,Pin_25*%
%TO.N,GND*%
X129880000Y-96750000D03*
%TO.P,J4,26,Pin_26*%
%TO.N,unconnected-(J4-Pin_26-Pad26)*%
X129880000Y-94210000D03*
%TO.P,J4,27,Pin_27*%
%TO.N,unconnected-(J4-Pin_27-Pad27)*%
X132420000Y-96750000D03*
%TO.P,J4,28,Pin_28*%
%TO.N,unconnected-(J4-Pin_28-Pad28)*%
X132420000Y-94210000D03*
%TO.P,J4,29,Pin_29*%
%TO.N,unconnected-(J4-Pin_29-Pad29)*%
X134960000Y-96750000D03*
%TO.P,J4,30,Pin_30*%
%TO.N,GND*%
X134960000Y-94210000D03*
%TO.P,J4,31,Pin_31*%
%TO.N,unconnected-(J4-Pin_31-Pad31)*%
X137500000Y-96750000D03*
%TO.P,J4,32,Pin_32*%
%TO.N,unconnected-(J4-Pin_32-Pad32)*%
X137500000Y-94210000D03*
%TO.P,J4,33,Pin_33*%
%TO.N,unconnected-(J4-Pin_33-Pad33)*%
X140040000Y-96750000D03*
%TO.P,J4,34,Pin_34*%
%TO.N,GND*%
X140040000Y-94210000D03*
%TO.P,J4,35,Pin_35*%
%TO.N,unconnected-(J4-Pin_35-Pad35)*%
X142580000Y-96750000D03*
%TO.P,J4,36,Pin_36*%
%TO.N,unconnected-(J4-Pin_36-Pad36)*%
X142580000Y-94210000D03*
%TO.P,J4,37,Pin_37*%
%TO.N,Net-(J4-Pin_37)*%
X145120000Y-96750000D03*
%TO.P,J4,38,Pin_38*%
%TO.N,unconnected-(J4-Pin_38-Pad38)*%
X145120000Y-94210000D03*
%TO.P,J4,39,Pin_39*%
%TO.N,GND*%
X147660000Y-96750000D03*
%TO.P,J4,40,Pin_40*%
%TO.N,unconnected-(J4-Pin_40-Pad40)*%
X147660000Y-94210000D03*
%TD*%
D12*
%TO.P,JP2,1,A*%
%TO.N,/Solar Panel Supply/FAULT*%
X137400000Y-119350000D03*
D13*
%TO.P,JP2,2,B*%
%TO.N,Net-(D4-K)*%
X137400000Y-120650000D03*
%TD*%
D17*
%TO.P,TP2,1,1*%
%TO.N,GND*%
X146250000Y-108750000D03*
%TD*%
%TO.P,TP1,1,1*%
%TO.N,VIN_REG*%
X146250000Y-105250000D03*
%TD*%
D18*
%TO.P,JP4,1,A*%
%TO.N,/Status LEDs/USB_CHRG*%
X151100000Y-113750000D03*
D19*
%TO.P,JP4,2,B*%
%TO.N,Net-(D6-K)*%
X152400000Y-113750000D03*
%TD*%
D18*
%TO.P,JP5,1,A*%
%TO.N,/Status LEDs/USB_PWRGD*%
X151100000Y-100250000D03*
D19*
%TO.P,JP5,2,B*%
%TO.N,Net-(D7-K)*%
X152400000Y-100250000D03*
%TD*%
D20*
%TO.P,U1,13,GND*%
%TO.N,GND*%
X138000000Y-105500000D03*
X138000000Y-104500000D03*
X138000000Y-103500000D03*
D21*
X137500000Y-104500000D03*
D20*
X137000000Y-105500000D03*
X137000000Y-104500000D03*
X137000000Y-103500000D03*
%TD*%
%TO.P,U5,17,EP*%
%TO.N,GND*%
X112450000Y-101200000D03*
X112450000Y-102000000D03*
X112450000Y-102800000D03*
X113250000Y-101200000D03*
X113250000Y-102000000D03*
D22*
X113250000Y-102000000D03*
D20*
X113250000Y-102800000D03*
X114050000Y-101200000D03*
X114050000Y-102000000D03*
X114050000Y-102800000D03*
%TD*%
%TO.P,U4,3,VSS*%
%TO.N,GND*%
X121250000Y-104750000D03*
D23*
X120750000Y-104750000D03*
D20*
X120250000Y-104750000D03*
%TD*%
D24*
%TO.P,J1,1,Pin_1*%
%TO.N,Net-(J1-Pin_1)*%
X146000000Y-115300000D03*
D25*
%TO.P,J1,2,Pin_2*%
%TO.N,GND*%
X144000000Y-115300000D03*
%TD*%
D26*
%TO.P,J3,S1,SHIELD*%
%TO.N,unconnected-(J3-SHIELD-PadS1)*%
X153325000Y-102680000D03*
D27*
X149145000Y-102680000D03*
D26*
X153325000Y-111320000D03*
D27*
X149145000Y-111320000D03*
%TD*%
D24*
%TO.P,J2,1,Pin_1*%
%TO.N,VBAT-*%
X133400000Y-115300000D03*
D25*
%TO.P,J2,2,Pin_2*%
%TO.N,GND*%
X131400000Y-115300000D03*
%TD*%
D28*
%TO.N,GND*%
X119800000Y-116200000D03*
X111250000Y-116900000D03*
X122150000Y-99149500D03*
D29*
X126874500Y-109000000D03*
D28*
X150000000Y-107000000D03*
X149000000Y-115500000D03*
X128750000Y-116000000D03*
X155000000Y-107000000D03*
X120500000Y-114750000D03*
X92000000Y-98500000D03*
X151500000Y-107000000D03*
X131400000Y-120500000D03*
X147000000Y-99500000D03*
X109000000Y-100000000D03*
X120250000Y-110500000D03*
X141000000Y-109000000D03*
X151500000Y-109000000D03*
X116500000Y-100000000D03*
X155000000Y-105500000D03*
X144000000Y-121000000D03*
X97250000Y-92750000D03*
X107550000Y-110500000D03*
X137444916Y-101750000D03*
X96500000Y-108800000D03*
X147500000Y-103250000D03*
X149750000Y-98250000D03*
X105500000Y-117000000D03*
X120250000Y-99149500D03*
X113200000Y-118100000D03*
X155000000Y-110000000D03*
X128750000Y-112750000D03*
X139344916Y-99250000D03*
X128750000Y-113500000D03*
X98000000Y-116000000D03*
X136750000Y-112550000D03*
X155000000Y-104000000D03*
X94000000Y-103000000D03*
X116250000Y-117500000D03*
X147500000Y-110750000D03*
X132000000Y-102000000D03*
X151500000Y-105000000D03*
X128750000Y-115250000D03*
X128750000Y-116750000D03*
X145900000Y-101750000D03*
X106500000Y-102950000D03*
X146000000Y-120500000D03*
X97500000Y-121000000D03*
X149750000Y-92750000D03*
X143750000Y-105750000D03*
X143750000Y-108750000D03*
X133400000Y-121000000D03*
X149000000Y-121000000D03*
X111250000Y-104000000D03*
X111250000Y-100000000D03*
X116750000Y-105550000D03*
X155000000Y-108500000D03*
X119000000Y-118250000D03*
X116750000Y-103950000D03*
D29*
X98250000Y-98750000D03*
D28*
X128500000Y-102000000D03*
X128750000Y-112000000D03*
D29*
%TO.N,VBAT_SOL+*%
X115112500Y-104750000D03*
D28*
X125712500Y-109500000D03*
%TO.N,/Solar Panel Supply/BOOST*%
X134025000Y-103525000D03*
X126500000Y-103250000D03*
D29*
%TO.N,VBAT+*%
X104480000Y-104730000D03*
X112925000Y-105250000D03*
X124537500Y-119500000D03*
X99000000Y-106250000D03*
D28*
%TO.N,5V+*%
X109000000Y-107750000D03*
X110267217Y-100493335D03*
X109000000Y-104500000D03*
D29*
%TO.N,Net-(D4-K)*%
X137400000Y-120650000D03*
%TO.N,Net-(D5-K)*%
X140000000Y-120650000D03*
D28*
%TO.N,Net-(D6-K)*%
X154750000Y-113312500D03*
%TO.N,Net-(D7-K)*%
X154750000Y-100687500D03*
D29*
%TO.N,VBAT-*%
X113575000Y-104750000D03*
X127462500Y-119500000D03*
%TO.N,SDA*%
X105400000Y-98250000D03*
X105400000Y-100250000D03*
%TO.N,SCL*%
X95150000Y-114000000D03*
D28*
X103365000Y-100115000D03*
X99750000Y-103750000D03*
D29*
%TO.N,/Solar Panel Supply/FAULT*%
X141000000Y-107849500D03*
%TO.N,/Solar Panel Supply/CHRG*%
X141110393Y-109892702D03*
%TO.N,/Status LEDs/USB_CHRG*%
X121043606Y-106584583D03*
%TO.N,/Status LEDs/USB_PWRGD*%
X122725000Y-104275000D03*
D28*
%TO.N,Net-(SW1-C)*%
X98250000Y-104000000D03*
D29*
X115925000Y-120497372D03*
%TO.N,VBAT_SOL-*%
X116000000Y-104750000D03*
D28*
X122787500Y-109500000D03*
%TO.N,VIN_REG*%
X141250000Y-103500000D03*
X143250000Y-100250000D03*
%TD*%
D30*
%TO.N,GND*%
X146250000Y-108750000D02*
X143750000Y-108750000D01*
D31*
%TO.N,VBAT_SOL+*%
X115112500Y-104750000D02*
X115112500Y-106981128D01*
X124750000Y-109500000D02*
X125712500Y-109500000D01*
X119973529Y-111842157D02*
X123407843Y-111842157D01*
X115112500Y-106981128D02*
X119973529Y-111842157D01*
X123407843Y-111842157D02*
X124500000Y-110750000D01*
X124500000Y-110750000D02*
X124500000Y-109750000D01*
X124500000Y-109750000D02*
X124750000Y-109500000D01*
D30*
%TO.N,/Solar Panel Supply/BOOST*%
X130000000Y-103250000D02*
X130275000Y-103525000D01*
X130275000Y-103525000D02*
X134025000Y-103525000D01*
X126500000Y-103250000D02*
X130000000Y-103250000D01*
D31*
%TO.N,VBAT+*%
X99000000Y-106250000D02*
X101500000Y-108750000D01*
X125750000Y-119250000D02*
X125500000Y-119500000D01*
X101500000Y-108750000D02*
X108500000Y-108750000D01*
X125500000Y-119500000D02*
X124537500Y-119500000D01*
X108500000Y-108750000D02*
X111250000Y-108750000D01*
X112925000Y-105925000D02*
X125750000Y-118750000D01*
X125750000Y-118750000D02*
X125750000Y-119250000D01*
X111250000Y-108750000D02*
X112925000Y-107075000D01*
X104480000Y-104730000D02*
X108500000Y-108750000D01*
X112925000Y-107075000D02*
X112925000Y-105250000D01*
X112925000Y-105250000D02*
X112925000Y-105925000D01*
D32*
%TO.N,5V+*%
X109000000Y-104500000D02*
X109000000Y-107750000D01*
D30*
X109000000Y-101760552D02*
X109000000Y-104500000D01*
X110267217Y-100493335D02*
X109000000Y-101760552D01*
%TO.N,Net-(D6-K)*%
X154750000Y-113312500D02*
X154312500Y-113750000D01*
X154312500Y-113750000D02*
X152400000Y-113750000D01*
%TO.N,Net-(D7-K)*%
X154312500Y-100250000D02*
X152400000Y-100250000D01*
X154750000Y-100687500D02*
X154312500Y-100250000D01*
D31*
%TO.N,VBAT-*%
X126250000Y-119250000D02*
X126500000Y-119500000D01*
X126500000Y-119500000D02*
X127462500Y-119500000D01*
X113575000Y-104750000D02*
X113575000Y-106009314D01*
X126250000Y-118684314D02*
X126250000Y-119250000D01*
X113575000Y-106009314D02*
X126250000Y-118684314D01*
D30*
%TO.N,SDA*%
X105500000Y-98250000D02*
X103440000Y-98250000D01*
X105400000Y-100210000D02*
X103440000Y-98250000D01*
X105400000Y-100250000D02*
X105400000Y-100210000D01*
X103440000Y-98250000D02*
X101940000Y-96750000D01*
%TO.N,SCL*%
X99750000Y-103750000D02*
X99750000Y-103730000D01*
X99750000Y-103730000D02*
X103365000Y-100115000D01*
D31*
%TO.N,Net-(J4-Pin_37)*%
X143830000Y-93366117D02*
X143830000Y-95460000D01*
X93850000Y-113984314D02*
X93000000Y-113134314D01*
X97750000Y-94092233D02*
X99342233Y-92500000D01*
X97750000Y-98000000D02*
X97750000Y-94092233D01*
X93000000Y-113134314D02*
X93000000Y-100750000D01*
X99342233Y-92500000D02*
X142963883Y-92500000D01*
X94500000Y-99250000D02*
X96500000Y-99250000D01*
X96500000Y-99250000D02*
X97750000Y-98000000D01*
X143830000Y-95460000D02*
X145120000Y-96750000D01*
X93000000Y-100750000D02*
X94500000Y-99250000D01*
X142963883Y-92500000D02*
X143830000Y-93366117D01*
%TO.N,/Solar Panel Supply/FAULT*%
X141000000Y-107849500D02*
X138400000Y-110449500D01*
X138400000Y-118350000D02*
X137400000Y-119350000D01*
X138400000Y-110449500D02*
X138400000Y-118350000D01*
%TO.N,/Solar Panel Supply/CHRG*%
X141110393Y-109892702D02*
X139000000Y-112003095D01*
X139000000Y-112003095D02*
X139000000Y-118350000D01*
X139000000Y-118350000D02*
X140000000Y-119350000D01*
%TO.N,/Status LEDs/USB_CHRG*%
X121709023Y-107250000D02*
X148500000Y-107250000D01*
X151100000Y-109850000D02*
X151100000Y-113750000D01*
X121043606Y-106584583D02*
X121709023Y-107250000D01*
X148500000Y-107250000D02*
X151100000Y-109850000D01*
%TO.N,/Status LEDs/USB_PWRGD*%
X151100000Y-104152512D02*
X151100000Y-100250000D01*
X125202512Y-106752512D02*
X148500000Y-106752512D01*
X122725000Y-104275000D02*
X125202512Y-106752512D01*
X148500000Y-106752512D02*
X151100000Y-104152512D01*
D33*
%TO.N,Net-(SW1-C)*%
X98250000Y-104000000D02*
X98250000Y-106383884D01*
X112363488Y-120497372D02*
X115925000Y-120497372D01*
X98250000Y-106383884D02*
X112363488Y-120497372D01*
D31*
%TO.N,VBAT_SOL-*%
X124000000Y-109750000D02*
X123750000Y-109500000D01*
X123750000Y-109500000D02*
X122787500Y-109500000D01*
X116000000Y-107302942D02*
X120139215Y-111442157D01*
X124000000Y-110684314D02*
X124000000Y-109750000D01*
X123242157Y-111442157D02*
X124000000Y-110684314D01*
X120139215Y-111442157D02*
X123242157Y-111442157D01*
X116000000Y-104750000D02*
X116000000Y-107302942D01*
D30*
%TO.N,VIN_REG*%
X146250000Y-105250000D02*
X144500000Y-103500000D01*
X144500000Y-103500000D02*
X141250000Y-103500000D01*
X143250000Y-100250000D02*
X142500000Y-101000000D01*
X142500000Y-102250000D02*
X141250000Y-103500000D01*
X142500000Y-101000000D02*
X142500000Y-102250000D01*
%TD*%
%TA.AperFunction,Conductor*%
%TO.N,GND*%
G36*
X151426533Y-92269685D02*
G01*
X151472288Y-92322489D01*
X151482232Y-92391647D01*
X151453207Y-92455203D01*
X151406948Y-92488560D01*
X151292703Y-92535881D01*
X151109168Y-92611905D01*
X150794545Y-92785790D01*
X150501377Y-92993805D01*
X150233339Y-93233339D01*
X149993805Y-93501377D01*
X149785790Y-93794545D01*
X149611905Y-94109168D01*
X149474339Y-94441281D01*
X149374828Y-94786694D01*
X149374826Y-94786703D01*
X149314614Y-95141085D01*
X149314612Y-95141097D01*
X149294457Y-95500000D01*
X149314612Y-95858902D01*
X149314614Y-95858914D01*
X149374826Y-96213296D01*
X149374828Y-96213305D01*
X149474339Y-96558718D01*
X149474341Y-96558724D01*
X149550500Y-96742586D01*
X149611905Y-96890831D01*
X149785790Y-97205454D01*
X149993805Y-97498622D01*
X149993806Y-97498623D01*
X150233339Y-97766661D01*
X150468293Y-97976628D01*
X150501377Y-98006194D01*
X150761271Y-98190600D01*
X150794548Y-98214211D01*
X151109167Y-98388094D01*
X151441276Y-98525659D01*
X151786700Y-98625173D01*
X152141093Y-98685387D01*
X152410202Y-98700500D01*
X152410210Y-98700500D01*
X152589790Y-98700500D01*
X152589798Y-98700500D01*
X152858907Y-98685387D01*
X153213300Y-98625173D01*
X153558724Y-98525659D01*
X153890833Y-98388094D01*
X154205452Y-98214211D01*
X154498623Y-98006194D01*
X154766661Y-97766661D01*
X155006194Y-97498623D01*
X155214211Y-97205452D01*
X155388094Y-96890833D01*
X155511439Y-96593052D01*
X155555280Y-96538650D01*
X155621574Y-96516585D01*
X155689274Y-96533864D01*
X155736884Y-96585002D01*
X155750000Y-96640506D01*
X155750000Y-117359493D01*
X155730315Y-117426532D01*
X155677511Y-117472287D01*
X155608353Y-117482231D01*
X155544797Y-117453206D01*
X155511439Y-117406946D01*
X155388094Y-117109168D01*
X155388094Y-117109167D01*
X155214211Y-116794548D01*
X155006194Y-116501377D01*
X154766661Y-116233339D01*
X154498623Y-115993806D01*
X154498622Y-115993805D01*
X154205454Y-115785790D01*
X153890831Y-115611905D01*
X153804086Y-115575974D01*
X153558724Y-115474341D01*
X153558720Y-115474339D01*
X153558718Y-115474339D01*
X153213305Y-115374828D01*
X153213296Y-115374826D01*
X152858914Y-115314614D01*
X152858902Y-115314612D01*
X152693262Y-115305310D01*
X152589798Y-115299500D01*
X152410202Y-115299500D01*
X152311482Y-115305044D01*
X152141097Y-115314612D01*
X152141085Y-115314614D01*
X151786703Y-115374826D01*
X151786694Y-115374828D01*
X151441281Y-115474339D01*
X151109168Y-115611905D01*
X150794545Y-115785790D01*
X150501377Y-115993805D01*
X150233339Y-116233339D01*
X149993805Y-116501377D01*
X149785790Y-116794545D01*
X149611905Y-117109168D01*
X149474339Y-117441281D01*
X149374828Y-117786694D01*
X149374826Y-117786703D01*
X149314614Y-118141085D01*
X149314612Y-118141097D01*
X149294457Y-118500000D01*
X149314612Y-118858902D01*
X149314614Y-118858914D01*
X149374826Y-119213296D01*
X149374828Y-119213305D01*
X149474339Y-119558718D01*
X149474341Y-119558724D01*
X149557677Y-119759914D01*
X149611905Y-119890831D01*
X149785790Y-120205454D01*
X149992918Y-120497372D01*
X149993806Y-120498623D01*
X150233339Y-120766661D01*
X150501377Y-121006194D01*
X150794548Y-121214211D01*
X151109167Y-121388094D01*
X151406947Y-121511439D01*
X151461350Y-121555280D01*
X151483415Y-121621574D01*
X151466136Y-121689274D01*
X151414998Y-121736884D01*
X151359494Y-121750000D01*
X95640506Y-121750000D01*
X95573467Y-121730315D01*
X95527712Y-121677511D01*
X95517768Y-121608353D01*
X95546793Y-121544797D01*
X95593051Y-121511439D01*
X95890833Y-121388094D01*
X96205452Y-121214211D01*
X96498623Y-121006194D01*
X96766661Y-120766661D01*
X97006194Y-120498623D01*
X97214211Y-120205452D01*
X97388094Y-119890833D01*
X97525659Y-119558724D01*
X97625173Y-119213300D01*
X97685387Y-118858907D01*
X97705543Y-118500000D01*
X97685387Y-118141093D01*
X97625173Y-117786700D01*
X97525659Y-117441276D01*
X97388094Y-117109167D01*
X97214211Y-116794548D01*
X97006194Y-116501377D01*
X96766661Y-116233339D01*
X96498623Y-115993806D01*
X96498622Y-115993805D01*
X96205454Y-115785790D01*
X95890831Y-115611905D01*
X95804086Y-115575974D01*
X95558724Y-115474341D01*
X95558720Y-115474339D01*
X95558718Y-115474339D01*
X95213305Y-115374828D01*
X95213296Y-115374826D01*
X94858914Y-115314614D01*
X94858902Y-115314612D01*
X94693262Y-115305310D01*
X94589798Y-115299500D01*
X94410202Y-115299500D01*
X94311482Y-115305044D01*
X94141097Y-115314612D01*
X94141085Y-115314614D01*
X93786703Y-115374826D01*
X93786694Y-115374828D01*
X93441281Y-115474339D01*
X93109168Y-115611905D01*
X92794545Y-115785790D01*
X92501377Y-115993805D01*
X92233339Y-116233339D01*
X91993805Y-116501377D01*
X91785790Y-116794545D01*
X91611905Y-117109168D01*
X91488561Y-117406946D01*
X91444720Y-117461349D01*
X91378426Y-117483414D01*
X91310726Y-117466135D01*
X91263116Y-117414997D01*
X91250000Y-117359493D01*
X91250000Y-114865762D01*
X91252381Y-114841581D01*
X91264219Y-114782067D01*
X91282728Y-114737379D01*
X91315020Y-114689051D01*
X91330426Y-114670279D01*
X92488802Y-113511903D01*
X92500381Y-113500384D01*
X92500381Y-113500383D01*
X92500383Y-113500383D01*
X92500500Y-113500099D01*
X92500500Y-113500098D01*
X92500541Y-113500000D01*
X92500539Y-113499997D01*
X92500584Y-113475664D01*
X92500500Y-113475240D01*
X92500500Y-113334835D01*
X92520185Y-113267796D01*
X92572989Y-113222041D01*
X92642147Y-113212097D01*
X92705703Y-113241122D01*
X92737932Y-113284745D01*
X92747794Y-113307079D01*
X92747795Y-113307080D01*
X92747796Y-113307082D01*
X92752689Y-113311975D01*
X92770435Y-113334379D01*
X92774077Y-113340262D01*
X92774080Y-113340265D01*
X92798826Y-113358953D01*
X92805311Y-113364596D01*
X93106192Y-113665477D01*
X93139677Y-113726800D01*
X93142511Y-113753158D01*
X93142511Y-113779093D01*
X93144310Y-113791605D01*
X93145572Y-113809251D01*
X93145572Y-114190748D01*
X93144310Y-114208393D01*
X93142511Y-114220904D01*
X93142511Y-114279092D01*
X93162972Y-114421406D01*
X93179366Y-114477240D01*
X93239093Y-114608021D01*
X93239099Y-114608032D01*
X93270546Y-114656964D01*
X93270547Y-114656965D01*
X93270551Y-114656971D01*
X93364705Y-114765632D01*
X93408680Y-114803737D01*
X93529634Y-114881469D01*
X93582562Y-114905640D01*
X93582569Y-114905642D01*
X93582571Y-114905643D01*
X93680166Y-114934299D01*
X93720517Y-114946147D01*
X93778111Y-114954428D01*
X93778112Y-114954428D01*
X94350001Y-114954428D01*
X94350002Y-114954427D01*
X94369824Y-114950484D01*
X94428229Y-114938868D01*
X94428231Y-114938867D01*
X94431108Y-114936945D01*
X94438335Y-114934681D01*
X94439513Y-114934194D01*
X94439556Y-114934299D01*
X94497785Y-114916066D01*
X94565165Y-114934550D01*
X94568892Y-114936945D01*
X94571768Y-114938867D01*
X94571770Y-114938868D01*
X94649995Y-114954427D01*
X94649999Y-114954428D01*
X94650000Y-114954428D01*
X95221888Y-114954428D01*
X95221889Y-114954428D01*
X95279483Y-114946147D01*
X95417438Y-114905640D01*
X95470366Y-114881469D01*
X95591320Y-114803737D01*
X95635295Y-114765632D01*
X95729449Y-114656971D01*
X95760906Y-114608023D01*
X95820634Y-114477238D01*
X95837027Y-114421408D01*
X95857489Y-114279093D01*
X95857489Y-114220907D01*
X95855690Y-114208393D01*
X95854428Y-114190748D01*
X95854428Y-113809251D01*
X95855690Y-113791605D01*
X95857489Y-113779093D01*
X95857489Y-113720907D01*
X95837027Y-113578592D01*
X95820634Y-113522762D01*
X95810432Y-113500424D01*
X95760906Y-113391978D01*
X95760906Y-113391977D01*
X95743309Y-113364596D01*
X95729453Y-113343035D01*
X95729452Y-113343034D01*
X95729449Y-113343029D01*
X95635295Y-113234368D01*
X95591320Y-113196263D01*
X95470366Y-113118531D01*
X95470360Y-113118528D01*
X95444803Y-113106857D01*
X95417438Y-113094360D01*
X95417433Y-113094358D01*
X95417430Y-113094357D01*
X95417428Y-113094356D01*
X95279492Y-113053855D01*
X95279478Y-113053852D01*
X95225992Y-113046162D01*
X95221889Y-113045572D01*
X94650000Y-113045572D01*
X94649995Y-113045572D01*
X94571770Y-113061131D01*
X94571768Y-113061132D01*
X94568887Y-113063058D01*
X94561655Y-113065322D01*
X94560487Y-113065806D01*
X94560443Y-113065701D01*
X94502209Y-113083933D01*
X94434829Y-113065446D01*
X94431113Y-113063058D01*
X94428231Y-113061132D01*
X94428229Y-113061131D01*
X94350004Y-113045572D01*
X94350000Y-113045572D01*
X93778111Y-113045572D01*
X93720521Y-113053852D01*
X93720507Y-113053855D01*
X93582571Y-113094356D01*
X93582569Y-113094357D01*
X93582563Y-113094359D01*
X93582562Y-113094360D01*
X93529741Y-113118482D01*
X93525605Y-113120371D01*
X93524742Y-113118482D01*
X93464655Y-113131416D01*
X93399244Y-113106857D01*
X93386090Y-113095433D01*
X93336819Y-113046162D01*
X93303334Y-112984839D01*
X93300500Y-112958481D01*
X93300500Y-111943754D01*
X93320185Y-111876715D01*
X93372989Y-111830960D01*
X93442147Y-111821016D01*
X93505703Y-111850041D01*
X93517316Y-111861528D01*
X93532071Y-111878183D01*
X93583940Y-111913986D01*
X93672068Y-111974817D01*
X93672069Y-111974817D01*
X93672070Y-111974818D01*
X93831128Y-112035140D01*
X93898595Y-112043332D01*
X93957626Y-112050500D01*
X93957628Y-112050500D01*
X94042374Y-112050500D01*
X94101405Y-112043332D01*
X94168872Y-112035140D01*
X94327930Y-111974818D01*
X94467929Y-111878183D01*
X94580734Y-111750852D01*
X94596480Y-111720852D01*
X94659789Y-111600226D01*
X94659790Y-111600225D01*
X94700500Y-111435056D01*
X94700500Y-111264944D01*
X94659790Y-111099775D01*
X94605926Y-110997146D01*
X94580736Y-110949150D01*
X94554156Y-110919148D01*
X94467929Y-110821817D01*
X94414391Y-110784862D01*
X94327931Y-110725182D01*
X94168874Y-110664860D01*
X94168868Y-110664859D01*
X94042374Y-110649500D01*
X94042372Y-110649500D01*
X93957628Y-110649500D01*
X93957626Y-110649500D01*
X93831131Y-110664859D01*
X93831125Y-110664860D01*
X93672068Y-110725182D01*
X93532071Y-110821816D01*
X93517315Y-110838473D01*
X93458125Y-110875599D01*
X93388259Y-110874831D01*
X93329900Y-110836413D01*
X93301576Y-110772542D01*
X93300500Y-110756245D01*
X93300500Y-110243754D01*
X93320185Y-110176715D01*
X93372989Y-110130960D01*
X93442147Y-110121016D01*
X93505703Y-110150041D01*
X93517316Y-110161528D01*
X93521342Y-110166073D01*
X93532071Y-110178183D01*
X93567087Y-110202353D01*
X93672068Y-110274817D01*
X93672069Y-110274817D01*
X93672070Y-110274818D01*
X93760728Y-110308441D01*
X93807077Y-110326019D01*
X93831128Y-110335140D01*
X93907028Y-110344356D01*
X93957626Y-110350500D01*
X93957628Y-110350500D01*
X94042374Y-110350500D01*
X94084538Y-110345380D01*
X94168872Y-110335140D01*
X94327930Y-110274818D01*
X94467929Y-110178183D01*
X94580734Y-110050852D01*
X94588971Y-110035159D01*
X94645065Y-109928280D01*
X94659790Y-109900225D01*
X94700500Y-109735056D01*
X94700500Y-109564944D01*
X94659790Y-109399775D01*
X94630873Y-109344679D01*
X94580736Y-109249150D01*
X94555215Y-109220343D01*
X94467929Y-109121817D01*
X94400441Y-109075233D01*
X94327931Y-109025182D01*
X94168874Y-108964860D01*
X94168868Y-108964859D01*
X94042374Y-108949500D01*
X94042372Y-108949500D01*
X93957628Y-108949500D01*
X93957626Y-108949500D01*
X93831131Y-108964859D01*
X93831125Y-108964860D01*
X93672068Y-109025182D01*
X93532071Y-109121816D01*
X93517315Y-109138473D01*
X93458125Y-109175599D01*
X93388259Y-109174831D01*
X93329900Y-109136413D01*
X93301576Y-109072542D01*
X93300500Y-109056245D01*
X93300500Y-104853743D01*
X93320185Y-104786704D01*
X93372989Y-104740949D01*
X93442147Y-104731005D01*
X93505703Y-104760030D01*
X93534296Y-104796117D01*
X93571948Y-104867857D01*
X93589266Y-104900852D01*
X93702071Y-105028183D01*
X93766340Y-105072545D01*
X93842068Y-105124817D01*
X93842069Y-105124817D01*
X93842070Y-105124818D01*
X94001128Y-105185140D01*
X94077028Y-105194356D01*
X94127626Y-105200500D01*
X94127628Y-105200500D01*
X94212374Y-105200500D01*
X94254538Y-105195380D01*
X94338872Y-105185140D01*
X94497930Y-105124818D01*
X94637929Y-105028183D01*
X94750734Y-104900852D01*
X94768052Y-104867857D01*
X94796079Y-104814455D01*
X94829790Y-104750225D01*
X94870500Y-104585056D01*
X94870500Y-104414944D01*
X94829790Y-104249775D01*
X94808223Y-104208683D01*
X94750736Y-104099150D01*
X94716458Y-104060458D01*
X94662898Y-104000001D01*
X97644318Y-104000001D01*
X97664955Y-104156760D01*
X97664956Y-104156762D01*
X97720164Y-104290047D01*
X97725464Y-104302841D01*
X97821718Y-104428282D01*
X97875987Y-104469924D01*
X97917189Y-104526349D01*
X97924500Y-104568298D01*
X97924500Y-106366962D01*
X97924264Y-106372369D01*
X97920735Y-106412692D01*
X97931212Y-106451794D01*
X97932383Y-106457074D01*
X97939411Y-106496927D01*
X97941235Y-106501939D01*
X97948197Y-106518745D01*
X97950445Y-106523565D01*
X97950446Y-106523568D01*
X97964452Y-106543571D01*
X97973655Y-106556715D01*
X97976561Y-106561276D01*
X97996806Y-106596339D01*
X98027815Y-106622359D01*
X98031805Y-106626015D01*
X112121351Y-120715561D01*
X112125006Y-120719550D01*
X112151029Y-120750562D01*
X112151031Y-120750563D01*
X112151033Y-120750566D01*
X112151035Y-120750567D01*
X112151036Y-120750568D01*
X112186087Y-120770805D01*
X112190650Y-120773711D01*
X112223804Y-120796926D01*
X112223807Y-120796926D01*
X112228664Y-120799192D01*
X112245421Y-120806132D01*
X112250441Y-120807959D01*
X112250443Y-120807960D01*
X112290318Y-120814990D01*
X112295575Y-120816156D01*
X112334681Y-120826635D01*
X112374998Y-120823107D01*
X112380400Y-120822872D01*
X115488162Y-120822872D01*
X115555201Y-120842557D01*
X115581872Y-120865667D01*
X115593872Y-120879515D01*
X115714947Y-120957325D01*
X115714950Y-120957326D01*
X115714949Y-120957326D01*
X115853036Y-120997871D01*
X115853038Y-120997872D01*
X115853039Y-120997872D01*
X115996962Y-120997872D01*
X115996962Y-120997871D01*
X116135053Y-120957325D01*
X116256128Y-120879515D01*
X116350377Y-120770745D01*
X116410165Y-120639829D01*
X116430647Y-120497372D01*
X116410165Y-120354915D01*
X116350377Y-120223999D01*
X116256128Y-120115229D01*
X116135053Y-120037419D01*
X116135051Y-120037418D01*
X116135049Y-120037417D01*
X116135050Y-120037417D01*
X115996963Y-119996872D01*
X115996961Y-119996872D01*
X115853039Y-119996872D01*
X115853036Y-119996872D01*
X115714949Y-120037417D01*
X115593873Y-120115228D01*
X115593872Y-120115228D01*
X115593872Y-120115229D01*
X115581873Y-120129075D01*
X115523097Y-120166849D01*
X115488162Y-120171872D01*
X112549676Y-120171872D01*
X112482637Y-120152187D01*
X112461995Y-120135553D01*
X101588623Y-109262181D01*
X101555138Y-109200858D01*
X101560122Y-109131166D01*
X101601994Y-109075233D01*
X101667458Y-109050816D01*
X101676304Y-109050500D01*
X108443827Y-109050500D01*
X108450753Y-109050500D01*
X108479141Y-109053793D01*
X108485882Y-109055379D01*
X108516594Y-109051094D01*
X108525168Y-109050500D01*
X111187159Y-109050500D01*
X111195733Y-109051095D01*
X111207761Y-109052772D01*
X111207761Y-109052771D01*
X111207765Y-109052773D01*
X111250920Y-109050778D01*
X111255510Y-109050566D01*
X111258373Y-109050500D01*
X111277843Y-109050500D01*
X111277844Y-109050500D01*
X111280468Y-109050009D01*
X111289021Y-109049016D01*
X111290245Y-109048959D01*
X111319992Y-109047585D01*
X111326322Y-109044789D01*
X111353629Y-109036332D01*
X111360433Y-109035061D01*
X111386797Y-109018736D01*
X111394392Y-109014733D01*
X111422765Y-109002206D01*
X111427661Y-108997309D01*
X111450069Y-108979561D01*
X111455952Y-108975919D01*
X111474649Y-108951158D01*
X111480266Y-108944703D01*
X113093059Y-107331910D01*
X113099532Y-107326279D01*
X113109224Y-107318959D01*
X113109228Y-107318958D01*
X113141459Y-107283600D01*
X113143367Y-107281602D01*
X113157174Y-107267797D01*
X113158684Y-107265592D01*
X113164023Y-107258851D01*
X113165489Y-107257242D01*
X113184916Y-107235933D01*
X113187416Y-107229478D01*
X113200750Y-107204183D01*
X113204656Y-107198481D01*
X113204655Y-107198481D01*
X113204657Y-107198480D01*
X113211757Y-107168291D01*
X113214291Y-107160106D01*
X113225500Y-107131173D01*
X113225500Y-107124248D01*
X113228794Y-107095856D01*
X113230379Y-107089119D01*
X113226095Y-107058414D01*
X113225499Y-107049836D01*
X113225499Y-106949832D01*
X113245184Y-106882793D01*
X113297988Y-106837038D01*
X113367146Y-106827094D01*
X113430702Y-106856119D01*
X113437180Y-106862151D01*
X125413180Y-118838151D01*
X125446665Y-118899474D01*
X125449499Y-118925832D01*
X125449499Y-119074165D01*
X125429814Y-119141204D01*
X125413246Y-119161780D01*
X125411913Y-119163115D01*
X125350615Y-119196646D01*
X125324166Y-119199500D01*
X124996001Y-119199500D01*
X124928962Y-119179815D01*
X124902288Y-119156703D01*
X124888858Y-119141204D01*
X124868628Y-119117857D01*
X124747553Y-119040047D01*
X124747551Y-119040046D01*
X124747549Y-119040045D01*
X124747550Y-119040045D01*
X124609463Y-118999500D01*
X124609461Y-118999500D01*
X124465539Y-118999500D01*
X124465536Y-118999500D01*
X124327449Y-119040045D01*
X124206373Y-119117856D01*
X124112123Y-119226626D01*
X124112122Y-119226628D01*
X124052334Y-119357543D01*
X124031853Y-119500000D01*
X124052334Y-119642456D01*
X124100223Y-119747316D01*
X124112123Y-119773373D01*
X124206372Y-119882143D01*
X124327447Y-119959953D01*
X124327450Y-119959954D01*
X124327449Y-119959954D01*
X124434607Y-119991417D01*
X124463836Y-120000000D01*
X124465536Y-120000499D01*
X124465538Y-120000500D01*
X124465539Y-120000500D01*
X124609462Y-120000500D01*
X124609462Y-120000499D01*
X124747553Y-119959953D01*
X124868628Y-119882143D01*
X124902288Y-119843296D01*
X124961067Y-119805523D01*
X124996001Y-119800500D01*
X125437159Y-119800500D01*
X125445733Y-119801095D01*
X125457761Y-119802772D01*
X125457761Y-119802771D01*
X125457765Y-119802773D01*
X125500920Y-119800778D01*
X125505510Y-119800566D01*
X125508373Y-119800500D01*
X125527843Y-119800500D01*
X125527844Y-119800500D01*
X125530468Y-119800009D01*
X125539021Y-119799016D01*
X125540245Y-119798959D01*
X125569992Y-119797585D01*
X125576322Y-119794789D01*
X125603629Y-119786332D01*
X125610433Y-119785061D01*
X125636797Y-119768736D01*
X125644392Y-119764733D01*
X125672765Y-119752206D01*
X125677661Y-119747309D01*
X125700069Y-119729561D01*
X125705952Y-119725919D01*
X125724649Y-119701158D01*
X125730266Y-119694703D01*
X125912320Y-119512649D01*
X125973641Y-119479166D01*
X126043333Y-119484150D01*
X126087680Y-119512651D01*
X126243078Y-119668049D01*
X126248721Y-119674533D01*
X126256041Y-119684226D01*
X126256042Y-119684228D01*
X126270861Y-119697737D01*
X126291375Y-119716439D01*
X126293423Y-119718394D01*
X126307203Y-119732174D01*
X126309413Y-119733688D01*
X126316143Y-119739018D01*
X126325245Y-119747316D01*
X126339064Y-119759914D01*
X126339065Y-119759914D01*
X126339067Y-119759916D01*
X126345530Y-119762419D01*
X126370807Y-119775743D01*
X126376519Y-119779656D01*
X126406702Y-119786754D01*
X126414903Y-119789294D01*
X126443827Y-119800500D01*
X126450751Y-119800500D01*
X126479141Y-119803793D01*
X126485881Y-119805379D01*
X126516590Y-119801095D01*
X126525166Y-119800500D01*
X127003999Y-119800500D01*
X127071038Y-119820185D01*
X127097711Y-119843296D01*
X127131372Y-119882143D01*
X127252447Y-119959953D01*
X127252450Y-119959954D01*
X127252449Y-119959954D01*
X127359607Y-119991417D01*
X127388836Y-120000000D01*
X127390536Y-120000499D01*
X127390538Y-120000500D01*
X127390539Y-120000500D01*
X127534462Y-120000500D01*
X127534462Y-120000499D01*
X127672553Y-119959953D01*
X127793628Y-119882143D01*
X127887877Y-119773373D01*
X127947665Y-119642457D01*
X127968147Y-119500000D01*
X127947665Y-119357543D01*
X127887877Y-119226627D01*
X127793628Y-119117857D01*
X127672553Y-119040047D01*
X127672551Y-119040046D01*
X127672549Y-119040045D01*
X127672550Y-119040045D01*
X127534463Y-118999500D01*
X127534461Y-118999500D01*
X127390539Y-118999500D01*
X127390536Y-118999500D01*
X127252449Y-119040045D01*
X127131373Y-119117856D01*
X127097712Y-119156703D01*
X127038933Y-119194477D01*
X127003999Y-119199500D01*
X126675834Y-119199500D01*
X126608795Y-119179815D01*
X126588153Y-119163181D01*
X126586819Y-119161847D01*
X126553334Y-119100524D01*
X126550500Y-119074166D01*
X126550500Y-118925832D01*
X126550500Y-118747136D01*
X126551095Y-118738572D01*
X126552771Y-118726555D01*
X126552773Y-118726550D01*
X126550566Y-118678805D01*
X126550500Y-118675942D01*
X126550500Y-118656473D01*
X126550499Y-118656467D01*
X126550009Y-118653847D01*
X126549016Y-118645294D01*
X126548887Y-118642511D01*
X126547585Y-118614323D01*
X126544788Y-118607990D01*
X126536332Y-118580684D01*
X126535061Y-118573881D01*
X126518738Y-118547519D01*
X126514731Y-118539916D01*
X126502207Y-118511551D01*
X126502206Y-118511550D01*
X126502206Y-118511549D01*
X126497309Y-118506652D01*
X126479563Y-118484248D01*
X126475918Y-118478361D01*
X126451172Y-118459674D01*
X126444694Y-118454037D01*
X123969926Y-115979269D01*
X132599500Y-115979269D01*
X132602353Y-116009699D01*
X132602353Y-116009701D01*
X132647206Y-116137880D01*
X132647207Y-116137882D01*
X132727850Y-116247150D01*
X132837118Y-116327793D01*
X132879845Y-116342744D01*
X132965299Y-116372646D01*
X132995730Y-116375500D01*
X132995734Y-116375500D01*
X133804270Y-116375500D01*
X133834699Y-116372646D01*
X133834701Y-116372646D01*
X133898790Y-116350219D01*
X133962882Y-116327793D01*
X134072150Y-116247150D01*
X134152793Y-116137882D01*
X134175219Y-116073790D01*
X134197646Y-116009701D01*
X134197646Y-116009699D01*
X134199136Y-115993806D01*
X134200500Y-115979266D01*
X134200500Y-114620734D01*
X134197646Y-114590301D01*
X134197646Y-114590300D01*
X134197646Y-114590298D01*
X134152793Y-114462119D01*
X134152792Y-114462117D01*
X134072150Y-114352850D01*
X133962882Y-114272207D01*
X133962880Y-114272206D01*
X133834700Y-114227353D01*
X133804270Y-114224500D01*
X133804266Y-114224500D01*
X132995734Y-114224500D01*
X132995730Y-114224500D01*
X132965300Y-114227353D01*
X132965298Y-114227353D01*
X132837119Y-114272206D01*
X132837117Y-114272207D01*
X132727850Y-114352850D01*
X132647207Y-114462117D01*
X132647206Y-114462119D01*
X132602353Y-114590298D01*
X132602353Y-114590300D01*
X132599500Y-114620730D01*
X132599500Y-115979269D01*
X123969926Y-115979269D01*
X120640657Y-112650000D01*
X129647384Y-112650000D01*
X129668200Y-112848060D01*
X129668201Y-112848062D01*
X129668201Y-112848063D01*
X129729739Y-113037457D01*
X129729744Y-113037469D01*
X129829313Y-113209929D01*
X129829315Y-113209932D01*
X129962569Y-113357927D01*
X129962576Y-113357933D01*
X130123687Y-113474987D01*
X130123688Y-113474987D01*
X130123692Y-113474990D01*
X130245209Y-113529093D01*
X130305620Y-113555990D01*
X130305625Y-113555992D01*
X130500413Y-113597396D01*
X130500416Y-113597396D01*
X130500424Y-113597398D01*
X130600000Y-113600000D01*
X134200000Y-113600000D01*
X134299576Y-113597398D01*
X134299584Y-113597396D01*
X134299586Y-113597396D01*
X134388051Y-113578592D01*
X134494375Y-113555992D01*
X134676308Y-113474990D01*
X134837425Y-113357932D01*
X134845018Y-113349500D01*
X134903320Y-113284748D01*
X134970683Y-113209934D01*
X134996249Y-113165653D01*
X135070255Y-113037469D01*
X135070254Y-113037469D01*
X135070258Y-113037464D01*
X135131800Y-112848060D01*
X135152617Y-112650000D01*
X135131800Y-112451940D01*
X135070258Y-112262536D01*
X135002359Y-112144930D01*
X134970686Y-112090070D01*
X134970684Y-112090067D01*
X134837430Y-111942072D01*
X134837423Y-111942066D01*
X134676312Y-111825012D01*
X134676309Y-111825010D01*
X134676308Y-111825010D01*
X134610066Y-111795517D01*
X134494379Y-111744009D01*
X134494374Y-111744007D01*
X134299586Y-111702603D01*
X134299578Y-111702602D01*
X134200000Y-111700000D01*
X130600000Y-111700000D01*
X130500421Y-111702602D01*
X130500413Y-111702603D01*
X130305625Y-111744007D01*
X130305620Y-111744009D01*
X130123692Y-111825010D01*
X130123687Y-111825012D01*
X129962576Y-111942066D01*
X129962569Y-111942072D01*
X129829315Y-112090067D01*
X129829313Y-112090070D01*
X129729744Y-112262530D01*
X129729739Y-112262542D01*
X129699913Y-112354338D01*
X129668200Y-112451940D01*
X129647384Y-112650000D01*
X120640657Y-112650000D01*
X120344995Y-112354338D01*
X120311510Y-112293015D01*
X120316494Y-112223323D01*
X120358366Y-112167390D01*
X120423830Y-112142973D01*
X120432676Y-112142657D01*
X123345002Y-112142657D01*
X123353576Y-112143252D01*
X123365604Y-112144929D01*
X123365604Y-112144928D01*
X123365608Y-112144930D01*
X123408763Y-112142935D01*
X123413353Y-112142723D01*
X123416216Y-112142657D01*
X123435686Y-112142657D01*
X123435687Y-112142657D01*
X123438311Y-112142166D01*
X123446864Y-112141173D01*
X123448088Y-112141116D01*
X123477835Y-112139742D01*
X123484165Y-112136946D01*
X123511472Y-112128489D01*
X123518276Y-112127218D01*
X123544640Y-112110893D01*
X123552235Y-112106890D01*
X123580608Y-112094363D01*
X123585504Y-112089466D01*
X123607912Y-112071718D01*
X123613795Y-112068076D01*
X123632492Y-112043315D01*
X123638109Y-112036860D01*
X124668059Y-111006910D01*
X124674532Y-111001279D01*
X124684224Y-110993959D01*
X124684228Y-110993958D01*
X124716459Y-110958600D01*
X124718367Y-110956602D01*
X124732174Y-110942797D01*
X124733684Y-110940592D01*
X124739023Y-110933851D01*
X124741763Y-110930844D01*
X124759916Y-110910933D01*
X124762416Y-110904478D01*
X124775749Y-110879182D01*
X124779656Y-110873481D01*
X124786757Y-110843285D01*
X124789292Y-110835101D01*
X124800500Y-110806173D01*
X124800500Y-110799248D01*
X124803795Y-110770855D01*
X124805378Y-110764123D01*
X124805379Y-110764119D01*
X124801095Y-110733408D01*
X124800500Y-110724833D01*
X124800500Y-109925833D01*
X124820185Y-109858794D01*
X124836819Y-109838152D01*
X124838152Y-109836819D01*
X124899475Y-109803334D01*
X124925833Y-109800500D01*
X125125018Y-109800500D01*
X125192057Y-109820185D01*
X125223392Y-109849013D01*
X125247637Y-109880608D01*
X125282338Y-109925833D01*
X125284218Y-109928282D01*
X125409659Y-110024536D01*
X125555738Y-110085044D01*
X125634119Y-110095363D01*
X125712499Y-110105682D01*
X125712500Y-110105682D01*
X125712501Y-110105682D01*
X125764754Y-110098802D01*
X125869262Y-110085044D01*
X126015341Y-110024536D01*
X126140782Y-109928282D01*
X126237036Y-109802841D01*
X126297544Y-109656762D01*
X126315185Y-109522768D01*
X126318182Y-109500001D01*
X126318182Y-109499998D01*
X126297544Y-109343239D01*
X126297544Y-109343238D01*
X126237036Y-109197159D01*
X126140782Y-109071718D01*
X126015341Y-108975464D01*
X125989738Y-108964859D01*
X125869262Y-108914956D01*
X125869260Y-108914955D01*
X125712501Y-108894318D01*
X125712499Y-108894318D01*
X125555739Y-108914955D01*
X125555737Y-108914956D01*
X125409660Y-108975463D01*
X125284216Y-109071719D01*
X125223394Y-109150986D01*
X125166966Y-109192189D01*
X125125018Y-109199500D01*
X124812841Y-109199500D01*
X124804267Y-109198905D01*
X124792238Y-109197227D01*
X124792235Y-109197227D01*
X124767219Y-109198383D01*
X124744490Y-109199434D01*
X124741627Y-109199500D01*
X124722156Y-109199500D01*
X124722151Y-109199500D01*
X124722149Y-109199501D01*
X124719515Y-109199993D01*
X124710985Y-109200982D01*
X124680006Y-109202415D01*
X124680004Y-109202415D01*
X124673658Y-109205217D01*
X124646385Y-109213663D01*
X124639570Y-109214937D01*
X124639566Y-109214939D01*
X124613204Y-109231261D01*
X124605603Y-109235267D01*
X124577234Y-109247793D01*
X124572329Y-109252698D01*
X124549939Y-109270433D01*
X124544049Y-109274080D01*
X124544044Y-109274084D01*
X124525358Y-109298827D01*
X124519717Y-109305310D01*
X124337680Y-109487347D01*
X124276357Y-109520832D01*
X124206666Y-109515848D01*
X124162322Y-109487350D01*
X124006921Y-109331950D01*
X124001280Y-109325467D01*
X123993958Y-109315772D01*
X123958624Y-109283560D01*
X123956573Y-109281602D01*
X123942797Y-109267826D01*
X123940586Y-109266311D01*
X123933853Y-109260978D01*
X123910933Y-109240084D01*
X123904470Y-109237580D01*
X123879192Y-109224256D01*
X123873481Y-109220344D01*
X123873478Y-109220343D01*
X123873479Y-109220343D01*
X123843302Y-109213244D01*
X123835094Y-109210703D01*
X123806173Y-109199500D01*
X123799249Y-109199500D01*
X123770858Y-109196206D01*
X123764119Y-109194621D01*
X123733409Y-109198905D01*
X123724834Y-109199500D01*
X123374982Y-109199500D01*
X123307943Y-109179815D01*
X123276606Y-109150986D01*
X123270045Y-109142436D01*
X123218479Y-109075233D01*
X123215783Y-109071719D01*
X123195617Y-109056245D01*
X123090341Y-108975464D01*
X123064738Y-108964859D01*
X122944262Y-108914956D01*
X122944260Y-108914955D01*
X122787501Y-108894318D01*
X122787499Y-108894318D01*
X122630739Y-108914955D01*
X122630737Y-108914956D01*
X122484660Y-108975463D01*
X122359218Y-109071718D01*
X122262963Y-109197160D01*
X122202456Y-109343237D01*
X122202455Y-109343239D01*
X122181818Y-109499998D01*
X122181818Y-109500001D01*
X122202455Y-109656760D01*
X122202456Y-109656762D01*
X122253504Y-109780004D01*
X122262964Y-109802841D01*
X122359218Y-109928282D01*
X122484659Y-110024536D01*
X122630738Y-110085044D01*
X122709119Y-110095363D01*
X122787499Y-110105682D01*
X122787500Y-110105682D01*
X122787501Y-110105682D01*
X122839753Y-110098802D01*
X122944262Y-110085044D01*
X123090341Y-110024536D01*
X123215782Y-109928282D01*
X123276606Y-109849013D01*
X123333034Y-109807811D01*
X123374982Y-109800500D01*
X123574167Y-109800500D01*
X123641206Y-109820185D01*
X123661848Y-109836819D01*
X123663181Y-109838152D01*
X123696666Y-109899475D01*
X123699500Y-109925833D01*
X123699500Y-110508481D01*
X123679815Y-110575520D01*
X123663181Y-110596162D01*
X123154005Y-111105338D01*
X123092682Y-111138823D01*
X123066324Y-111141657D01*
X120315048Y-111141657D01*
X120248009Y-111121972D01*
X120227367Y-111105338D01*
X116336819Y-107214790D01*
X116303334Y-107153467D01*
X116300500Y-107127109D01*
X116300500Y-106584583D01*
X120537959Y-106584583D01*
X120558440Y-106727039D01*
X120606216Y-106831652D01*
X120618229Y-106857956D01*
X120712478Y-106966726D01*
X120833553Y-107044536D01*
X120833556Y-107044537D01*
X120833555Y-107044537D01*
X120905877Y-107065772D01*
X120968886Y-107084273D01*
X120971642Y-107085082D01*
X120971644Y-107085083D01*
X121067773Y-107085083D01*
X121134812Y-107104768D01*
X121155454Y-107121402D01*
X121452101Y-107418049D01*
X121457744Y-107424533D01*
X121465064Y-107434226D01*
X121465065Y-107434228D01*
X121479250Y-107447159D01*
X121500398Y-107466439D01*
X121502446Y-107468394D01*
X121516226Y-107482174D01*
X121518436Y-107483688D01*
X121525166Y-107489018D01*
X121548090Y-107509916D01*
X121553891Y-107512163D01*
X121554551Y-107512419D01*
X121579832Y-107525745D01*
X121585543Y-107529657D01*
X121615726Y-107536756D01*
X121623934Y-107539298D01*
X121652848Y-107550500D01*
X121652850Y-107550500D01*
X121659775Y-107550500D01*
X121688163Y-107553793D01*
X121694904Y-107555379D01*
X121725614Y-107551094D01*
X121734189Y-107550500D01*
X140395156Y-107550500D01*
X140462195Y-107570185D01*
X140507950Y-107622989D01*
X140517894Y-107692147D01*
X140515189Y-107704573D01*
X140494353Y-107849500D01*
X140494353Y-107849501D01*
X140495661Y-107858603D01*
X140485713Y-107927761D01*
X140460603Y-107963924D01*
X138231948Y-110192580D01*
X138225464Y-110198222D01*
X138215768Y-110205544D01*
X138183559Y-110240874D01*
X138181585Y-110242942D01*
X138167827Y-110256700D01*
X138167822Y-110256706D01*
X138166306Y-110258920D01*
X138160976Y-110265648D01*
X138140083Y-110288566D01*
X138140083Y-110288567D01*
X138137578Y-110295033D01*
X138124259Y-110320302D01*
X138120345Y-110326015D01*
X138120343Y-110326021D01*
X138113244Y-110356199D01*
X138110702Y-110364407D01*
X138099500Y-110393326D01*
X138099500Y-110400251D01*
X138096206Y-110428641D01*
X138094621Y-110435377D01*
X138094621Y-110435381D01*
X138098905Y-110466090D01*
X138099500Y-110474666D01*
X138099500Y-118174166D01*
X138079815Y-118241205D01*
X138063181Y-118261847D01*
X137718836Y-118606192D01*
X137657513Y-118639677D01*
X137631155Y-118642511D01*
X137620903Y-118642511D01*
X137608393Y-118644310D01*
X137590748Y-118645572D01*
X137209252Y-118645572D01*
X137191607Y-118644310D01*
X137179096Y-118642511D01*
X137179093Y-118642511D01*
X137120907Y-118642511D01*
X136978593Y-118662972D01*
X136922759Y-118679366D01*
X136791978Y-118739093D01*
X136791967Y-118739099D01*
X136743035Y-118770546D01*
X136743031Y-118770549D01*
X136743029Y-118770551D01*
X136641051Y-118858914D01*
X136634367Y-118864706D01*
X136596264Y-118908678D01*
X136518531Y-119029633D01*
X136518528Y-119029639D01*
X136494357Y-119082569D01*
X136494356Y-119082571D01*
X136453855Y-119220507D01*
X136453852Y-119220521D01*
X136445572Y-119278111D01*
X136445572Y-119850004D01*
X136461131Y-119928229D01*
X136461132Y-119928231D01*
X136463058Y-119931113D01*
X136465322Y-119938344D01*
X136465806Y-119939513D01*
X136465701Y-119939556D01*
X136483933Y-119997791D01*
X136465446Y-120065171D01*
X136463058Y-120068887D01*
X136461132Y-120071768D01*
X136461131Y-120071770D01*
X136445572Y-120149995D01*
X136445572Y-120721888D01*
X136453852Y-120779478D01*
X136453855Y-120779492D01*
X136494356Y-120917428D01*
X136494357Y-120917430D01*
X136494358Y-120917433D01*
X136494360Y-120917438D01*
X136518531Y-120970366D01*
X136596263Y-121091320D01*
X136634368Y-121135295D01*
X136743029Y-121229449D01*
X136743034Y-121229452D01*
X136743035Y-121229453D01*
X136791967Y-121260900D01*
X136791971Y-121260902D01*
X136791977Y-121260906D01*
X136839160Y-121282454D01*
X136922759Y-121320633D01*
X136922761Y-121320633D01*
X136922762Y-121320634D01*
X136978592Y-121337027D01*
X137120907Y-121357489D01*
X137120908Y-121357489D01*
X137179090Y-121357489D01*
X137179093Y-121357489D01*
X137188138Y-121356188D01*
X137191607Y-121355690D01*
X137209252Y-121354428D01*
X137590748Y-121354428D01*
X137608393Y-121355690D01*
X137612636Y-121356299D01*
X137620907Y-121357489D01*
X137620910Y-121357489D01*
X137679092Y-121357489D01*
X137679093Y-121357489D01*
X137821408Y-121337027D01*
X137877238Y-121320634D01*
X138008023Y-121260906D01*
X138056971Y-121229449D01*
X138165632Y-121135295D01*
X138203737Y-121091320D01*
X138281469Y-120970366D01*
X138305640Y-120917438D01*
X138346147Y-120779483D01*
X138354428Y-120721889D01*
X138354428Y-120150000D01*
X138347512Y-120115229D01*
X138338868Y-120071770D01*
X138338867Y-120071768D01*
X138336945Y-120068892D01*
X138334681Y-120061664D01*
X138334194Y-120060487D01*
X138334299Y-120060443D01*
X138316066Y-120002215D01*
X138334550Y-119934835D01*
X138336945Y-119931108D01*
X138338867Y-119928231D01*
X138338868Y-119928229D01*
X138354427Y-119850004D01*
X138354428Y-119850001D01*
X138354428Y-119278112D01*
X138354428Y-119278111D01*
X138346147Y-119220517D01*
X138318256Y-119125528D01*
X138305643Y-119082571D01*
X138305642Y-119082569D01*
X138305640Y-119082562D01*
X138281469Y-119029634D01*
X138281464Y-119029626D01*
X138279347Y-119025749D01*
X138280553Y-119025090D01*
X138262548Y-118963804D01*
X138282222Y-118896761D01*
X138298862Y-118876108D01*
X138568063Y-118606907D01*
X138574536Y-118601276D01*
X138584220Y-118593961D01*
X138584228Y-118593958D01*
X138606001Y-118570073D01*
X138665710Y-118533791D01*
X138735558Y-118535550D01*
X138772367Y-118554657D01*
X138774080Y-118555950D01*
X138774081Y-118555952D01*
X138792782Y-118570074D01*
X138798827Y-118574639D01*
X138805311Y-118580282D01*
X139101131Y-118876103D01*
X139134616Y-118937426D01*
X139129632Y-119007118D01*
X139120383Y-119025601D01*
X139120653Y-119025749D01*
X139118528Y-119029639D01*
X139094357Y-119082569D01*
X139094356Y-119082571D01*
X139053855Y-119220507D01*
X139053852Y-119220521D01*
X139045572Y-119278111D01*
X139045572Y-119850004D01*
X139061131Y-119928229D01*
X139061132Y-119928231D01*
X139063058Y-119931113D01*
X139065322Y-119938344D01*
X139065806Y-119939513D01*
X139065701Y-119939556D01*
X139083933Y-119997791D01*
X139065446Y-120065171D01*
X139063058Y-120068887D01*
X139061132Y-120071768D01*
X139061131Y-120071770D01*
X139045572Y-120149995D01*
X139045572Y-120721888D01*
X139053852Y-120779478D01*
X139053855Y-120779492D01*
X139094356Y-120917428D01*
X139094357Y-120917430D01*
X139094358Y-120917433D01*
X139094360Y-120917438D01*
X139118531Y-120970366D01*
X139196263Y-121091320D01*
X139234368Y-121135295D01*
X139343029Y-121229449D01*
X139343034Y-121229452D01*
X139343035Y-121229453D01*
X139391967Y-121260900D01*
X139391971Y-121260902D01*
X139391977Y-121260906D01*
X139439160Y-121282454D01*
X139522759Y-121320633D01*
X139522761Y-121320633D01*
X139522762Y-121320634D01*
X139578592Y-121337027D01*
X139720907Y-121357489D01*
X139720908Y-121357489D01*
X139779090Y-121357489D01*
X139779093Y-121357489D01*
X139788138Y-121356188D01*
X139791607Y-121355690D01*
X139809252Y-121354428D01*
X140190748Y-121354428D01*
X140208393Y-121355690D01*
X140212636Y-121356299D01*
X140220907Y-121357489D01*
X140220910Y-121357489D01*
X140279092Y-121357489D01*
X140279093Y-121357489D01*
X140421408Y-121337027D01*
X140477238Y-121320634D01*
X140608023Y-121260906D01*
X140656971Y-121229449D01*
X140765632Y-121135295D01*
X140803737Y-121091320D01*
X140881469Y-120970366D01*
X140905640Y-120917438D01*
X140946147Y-120779483D01*
X140954428Y-120721889D01*
X140954428Y-120150000D01*
X140947512Y-120115229D01*
X140938868Y-120071770D01*
X140938867Y-120071768D01*
X140936945Y-120068892D01*
X140934681Y-120061664D01*
X140934194Y-120060487D01*
X140934299Y-120060443D01*
X140916066Y-120002215D01*
X140934550Y-119934835D01*
X140936945Y-119931108D01*
X140938867Y-119928231D01*
X140938868Y-119928229D01*
X140954427Y-119850004D01*
X140954428Y-119850001D01*
X140954428Y-119278112D01*
X140954428Y-119278111D01*
X140946147Y-119220517D01*
X140918256Y-119125528D01*
X140905643Y-119082571D01*
X140905642Y-119082569D01*
X140905640Y-119082562D01*
X140881469Y-119029634D01*
X140803737Y-118908680D01*
X140765632Y-118864705D01*
X140656971Y-118770551D01*
X140656965Y-118770547D01*
X140656964Y-118770546D01*
X140608032Y-118739099D01*
X140608021Y-118739093D01*
X140477240Y-118679366D01*
X140421406Y-118662972D01*
X140302989Y-118645946D01*
X140279093Y-118642511D01*
X140220907Y-118642511D01*
X140220903Y-118642511D01*
X140208393Y-118644310D01*
X140190748Y-118645572D01*
X139809252Y-118645572D01*
X139791607Y-118644310D01*
X139779096Y-118642511D01*
X139779093Y-118642511D01*
X139768844Y-118642511D01*
X139701805Y-118622826D01*
X139681163Y-118606192D01*
X139336819Y-118261848D01*
X139303334Y-118200525D01*
X139300500Y-118174167D01*
X139300500Y-115979269D01*
X145199500Y-115979269D01*
X145202353Y-116009699D01*
X145202353Y-116009701D01*
X145247206Y-116137880D01*
X145247207Y-116137882D01*
X145327850Y-116247150D01*
X145437118Y-116327793D01*
X145479845Y-116342744D01*
X145565299Y-116372646D01*
X145595730Y-116375500D01*
X145595734Y-116375500D01*
X146404270Y-116375500D01*
X146434699Y-116372646D01*
X146434701Y-116372646D01*
X146498790Y-116350219D01*
X146562882Y-116327793D01*
X146672150Y-116247150D01*
X146752793Y-116137882D01*
X146775219Y-116073790D01*
X146797646Y-116009701D01*
X146797646Y-116009699D01*
X146800500Y-115979269D01*
X146800500Y-114620730D01*
X146797646Y-114590300D01*
X146797646Y-114590298D01*
X146752793Y-114462119D01*
X146752792Y-114462117D01*
X146672150Y-114352850D01*
X146562882Y-114272207D01*
X146562880Y-114272206D01*
X146434700Y-114227353D01*
X146404270Y-114224500D01*
X146404266Y-114224500D01*
X145595734Y-114224500D01*
X145595730Y-114224500D01*
X145565300Y-114227353D01*
X145565298Y-114227353D01*
X145437119Y-114272206D01*
X145437117Y-114272207D01*
X145327850Y-114352850D01*
X145247207Y-114462117D01*
X145247206Y-114462119D01*
X145202353Y-114590298D01*
X145202353Y-114590300D01*
X145199500Y-114620730D01*
X145199500Y-115979269D01*
X139300500Y-115979269D01*
X139300500Y-112178927D01*
X139320185Y-112111888D01*
X139336814Y-112091251D01*
X140998544Y-110429520D01*
X141059867Y-110396036D01*
X141086225Y-110393202D01*
X141182355Y-110393202D01*
X141182355Y-110393201D01*
X141320446Y-110352655D01*
X141441521Y-110274845D01*
X141535770Y-110166075D01*
X141595558Y-110035159D01*
X141616040Y-109892702D01*
X141595558Y-109750245D01*
X141535770Y-109619329D01*
X141441521Y-109510559D01*
X141320446Y-109432749D01*
X141320444Y-109432748D01*
X141320442Y-109432747D01*
X141320443Y-109432747D01*
X141182356Y-109392202D01*
X141182354Y-109392202D01*
X141038432Y-109392202D01*
X141038429Y-109392202D01*
X140900342Y-109432747D01*
X140779266Y-109510558D01*
X140779265Y-109510558D01*
X140779265Y-109510559D01*
X140768686Y-109522768D01*
X140685016Y-109619328D01*
X140685015Y-109619330D01*
X140625227Y-109750245D01*
X140604746Y-109892702D01*
X140604746Y-109892703D01*
X140606054Y-109901805D01*
X140596106Y-109970963D01*
X140570996Y-110007126D01*
X138912181Y-111665941D01*
X138850858Y-111699426D01*
X138781166Y-111694442D01*
X138725233Y-111652570D01*
X138700816Y-111587106D01*
X138700500Y-111578260D01*
X138700500Y-110625332D01*
X138720185Y-110558293D01*
X138736819Y-110537651D01*
X140888151Y-108386319D01*
X140949474Y-108352834D01*
X140975832Y-108350000D01*
X141071962Y-108350000D01*
X141071962Y-108349999D01*
X141210053Y-108309453D01*
X141331128Y-108231643D01*
X141425377Y-108122873D01*
X141485165Y-107991957D01*
X141505647Y-107849500D01*
X141485165Y-107707043D01*
X141483903Y-107698265D01*
X141485869Y-107697982D01*
X141485864Y-107639576D01*
X141523633Y-107580794D01*
X141587186Y-107551764D01*
X141604844Y-107550500D01*
X148324167Y-107550500D01*
X148391206Y-107570185D01*
X148411848Y-107586819D01*
X149967465Y-109142436D01*
X150000950Y-109203759D01*
X149995966Y-109273451D01*
X149954094Y-109329384D01*
X149888630Y-109353801D01*
X149832333Y-109344679D01*
X149821463Y-109340176D01*
X149795236Y-109329313D01*
X149781171Y-109327461D01*
X149682727Y-109314500D01*
X149682720Y-109314500D01*
X149607280Y-109314500D01*
X149607272Y-109314500D01*
X149494764Y-109329313D01*
X149494763Y-109329313D01*
X149354770Y-109387300D01*
X149354767Y-109387301D01*
X149354767Y-109387302D01*
X149234549Y-109479549D01*
X149164592Y-109570719D01*
X149142300Y-109599770D01*
X149084313Y-109739763D01*
X149084312Y-109739765D01*
X149064534Y-109889999D01*
X149064534Y-109890000D01*
X149084312Y-110040234D01*
X149084313Y-110040236D01*
X149140844Y-110176715D01*
X149142302Y-110180233D01*
X149234549Y-110300451D01*
X149354767Y-110392698D01*
X149354769Y-110392698D01*
X149360536Y-110397124D01*
X149401738Y-110453552D01*
X149405893Y-110523299D01*
X149371680Y-110584219D01*
X149309963Y-110616971D01*
X149285049Y-110619500D01*
X148552626Y-110619500D01*
X148426131Y-110634859D01*
X148426125Y-110634860D01*
X148267068Y-110695182D01*
X148127072Y-110791816D01*
X148014263Y-110919150D01*
X147935210Y-111069773D01*
X147894500Y-111234944D01*
X147894500Y-111405055D01*
X147935210Y-111570226D01*
X148014263Y-111720849D01*
X148014266Y-111720852D01*
X148127071Y-111848183D01*
X148217318Y-111910476D01*
X148267068Y-111944817D01*
X148267069Y-111944817D01*
X148267070Y-111944818D01*
X148426128Y-112005140D01*
X148502028Y-112014356D01*
X148552626Y-112020500D01*
X148552628Y-112020500D01*
X149737374Y-112020500D01*
X149779538Y-112015380D01*
X149863872Y-112005140D01*
X150022930Y-111944818D01*
X150162929Y-111848183D01*
X150275734Y-111720852D01*
X150285313Y-111702602D01*
X150339044Y-111600226D01*
X150354790Y-111570225D01*
X150395500Y-111405056D01*
X150395500Y-111234944D01*
X150354790Y-111069775D01*
X150321803Y-111006924D01*
X150275736Y-110919150D01*
X150256560Y-110897505D01*
X150162929Y-110791817D01*
X150072131Y-110729143D01*
X150022931Y-110695182D01*
X149888248Y-110644104D01*
X149832545Y-110601926D01*
X149808488Y-110536328D01*
X149823715Y-110468138D01*
X149873391Y-110419005D01*
X149884752Y-110413607D01*
X149935233Y-110392698D01*
X150055451Y-110300451D01*
X150147698Y-110180233D01*
X150205687Y-110040236D01*
X150225466Y-109890000D01*
X150219474Y-109844490D01*
X150205687Y-109739765D01*
X150205687Y-109739764D01*
X150190320Y-109702667D01*
X150182852Y-109633198D01*
X150214127Y-109570719D01*
X150274216Y-109535067D01*
X150344041Y-109537561D01*
X150392563Y-109567534D01*
X150763181Y-109938152D01*
X150796666Y-109999475D01*
X150799500Y-110025833D01*
X150799500Y-112788054D01*
X150779815Y-112855093D01*
X150742540Y-112892369D01*
X150658680Y-112946262D01*
X150658680Y-112946263D01*
X150614705Y-112984368D01*
X150520551Y-113093029D01*
X150520549Y-113093031D01*
X150520549Y-113093032D01*
X150520546Y-113093035D01*
X150489099Y-113141967D01*
X150489093Y-113141978D01*
X150429366Y-113272759D01*
X150412972Y-113328593D01*
X150392511Y-113470907D01*
X150392511Y-113529093D01*
X150394310Y-113541605D01*
X150395572Y-113559251D01*
X150395572Y-113940748D01*
X150394310Y-113958393D01*
X150392511Y-113970904D01*
X150392511Y-114029092D01*
X150412972Y-114171406D01*
X150429366Y-114227240D01*
X150489093Y-114358021D01*
X150489099Y-114358032D01*
X150520546Y-114406964D01*
X150520547Y-114406965D01*
X150520551Y-114406971D01*
X150614705Y-114515632D01*
X150658680Y-114553737D01*
X150779634Y-114631469D01*
X150832562Y-114655640D01*
X150832569Y-114655642D01*
X150832571Y-114655643D01*
X150930166Y-114684299D01*
X150970517Y-114696147D01*
X151028111Y-114704428D01*
X151028112Y-114704428D01*
X151600001Y-114704428D01*
X151600002Y-114704427D01*
X151619824Y-114700484D01*
X151678229Y-114688868D01*
X151678231Y-114688867D01*
X151681108Y-114686945D01*
X151688335Y-114684681D01*
X151689513Y-114684194D01*
X151689556Y-114684299D01*
X151747785Y-114666066D01*
X151815165Y-114684550D01*
X151818892Y-114686945D01*
X151821768Y-114688867D01*
X151821770Y-114688868D01*
X151899995Y-114704427D01*
X151899999Y-114704428D01*
X151900000Y-114704428D01*
X152471888Y-114704428D01*
X152471889Y-114704428D01*
X152529483Y-114696147D01*
X152667438Y-114655640D01*
X152720366Y-114631469D01*
X152841320Y-114553737D01*
X152885295Y-114515632D01*
X152979449Y-114406971D01*
X153010906Y-114358023D01*
X153070634Y-114227238D01*
X153070634Y-114227237D01*
X153072474Y-114223209D01*
X153074491Y-114224130D01*
X153110871Y-114175360D01*
X153176293Y-114150831D01*
X153185350Y-114150500D01*
X154375931Y-114150500D01*
X154375933Y-114150500D01*
X154397001Y-114143654D01*
X154415917Y-114139112D01*
X154437804Y-114135646D01*
X154457544Y-114125586D01*
X154475511Y-114118144D01*
X154496590Y-114111296D01*
X154514526Y-114098263D01*
X154531088Y-114088114D01*
X154550842Y-114078050D01*
X154566336Y-114062555D01*
X154566340Y-114062552D01*
X154573406Y-114055485D01*
X154573409Y-114055484D01*
X154674991Y-113953900D01*
X154736312Y-113920417D01*
X154746486Y-113918644D01*
X154749997Y-113918181D01*
X154750000Y-113918182D01*
X154906762Y-113897544D01*
X155052841Y-113837036D01*
X155178282Y-113740782D01*
X155274536Y-113615341D01*
X155335044Y-113469262D01*
X155352802Y-113334379D01*
X155355682Y-113312501D01*
X155355682Y-113312498D01*
X155340379Y-113196263D01*
X155335044Y-113155738D01*
X155274536Y-113009659D01*
X155178282Y-112884218D01*
X155052841Y-112787964D01*
X154906762Y-112727456D01*
X154906760Y-112727455D01*
X154750001Y-112706818D01*
X154749999Y-112706818D01*
X154593239Y-112727455D01*
X154593237Y-112727456D01*
X154447160Y-112787963D01*
X154321718Y-112884218D01*
X154225463Y-113009660D01*
X154164956Y-113155737D01*
X154164955Y-113155739D01*
X154153641Y-113241685D01*
X154125375Y-113305582D01*
X154067050Y-113344053D01*
X154030702Y-113349500D01*
X153185350Y-113349500D01*
X153118311Y-113329815D01*
X153072556Y-113277011D01*
X153072380Y-113276585D01*
X153053099Y-113234367D01*
X153010906Y-113141977D01*
X153010437Y-113141248D01*
X152979453Y-113093035D01*
X152979452Y-113093034D01*
X152979449Y-113093029D01*
X152885295Y-112984368D01*
X152841320Y-112946263D01*
X152720366Y-112868531D01*
X152720360Y-112868528D01*
X152705296Y-112861649D01*
X152667438Y-112844360D01*
X152667433Y-112844358D01*
X152667430Y-112844357D01*
X152667428Y-112844356D01*
X152529492Y-112803855D01*
X152529478Y-112803852D01*
X152491377Y-112798374D01*
X152471889Y-112795572D01*
X151900000Y-112795572D01*
X151899995Y-112795572D01*
X151821770Y-112811131D01*
X151821763Y-112811134D01*
X151818882Y-112813060D01*
X151811653Y-112815322D01*
X151810487Y-112815806D01*
X151810443Y-112815701D01*
X151752203Y-112833933D01*
X151684824Y-112815444D01*
X151681108Y-112813055D01*
X151678230Y-112811132D01*
X151678229Y-112811131D01*
X151600004Y-112795572D01*
X151600000Y-112795572D01*
X151524500Y-112795572D01*
X151457461Y-112775887D01*
X151411706Y-112723083D01*
X151400500Y-112671572D01*
X151400500Y-111405055D01*
X152224500Y-111405055D01*
X152265210Y-111570226D01*
X152344263Y-111720849D01*
X152344266Y-111720852D01*
X152457071Y-111848183D01*
X152547318Y-111910476D01*
X152597068Y-111944817D01*
X152597069Y-111944817D01*
X152597070Y-111944818D01*
X152756128Y-112005140D01*
X152832028Y-112014356D01*
X152882626Y-112020500D01*
X152882628Y-112020500D01*
X153767374Y-112020500D01*
X153809538Y-112015380D01*
X153893872Y-112005140D01*
X154052930Y-111944818D01*
X154192929Y-111848183D01*
X154305734Y-111720852D01*
X154315313Y-111702602D01*
X154369044Y-111600226D01*
X154384790Y-111570225D01*
X154425500Y-111405056D01*
X154425500Y-111234944D01*
X154384790Y-111069775D01*
X154351803Y-111006924D01*
X154305736Y-110919150D01*
X154286560Y-110897505D01*
X154192929Y-110791817D01*
X154102131Y-110729143D01*
X154052931Y-110695182D01*
X153893874Y-110634860D01*
X153893868Y-110634859D01*
X153767374Y-110619500D01*
X153767372Y-110619500D01*
X152882628Y-110619500D01*
X152882626Y-110619500D01*
X152756131Y-110634859D01*
X152756125Y-110634860D01*
X152597068Y-110695182D01*
X152457072Y-110791816D01*
X152344263Y-110919150D01*
X152265210Y-111069773D01*
X152224500Y-111234944D01*
X152224500Y-111405055D01*
X151400500Y-111405055D01*
X151400500Y-109912838D01*
X151401095Y-109904262D01*
X151402771Y-109892239D01*
X151402773Y-109892235D01*
X151400566Y-109844490D01*
X151400500Y-109841627D01*
X151400500Y-109822159D01*
X151400499Y-109822153D01*
X151400009Y-109819533D01*
X151399016Y-109810980D01*
X151397585Y-109780008D01*
X151394788Y-109773675D01*
X151386332Y-109746368D01*
X151385061Y-109739567D01*
X151368736Y-109713202D01*
X151364735Y-109705612D01*
X151352206Y-109677235D01*
X151347309Y-109672338D01*
X151329563Y-109649934D01*
X151325918Y-109644047D01*
X151301172Y-109625360D01*
X151294694Y-109619723D01*
X148763907Y-107088936D01*
X148730422Y-107027613D01*
X148735406Y-106957921D01*
X148763905Y-106913576D01*
X151268059Y-104409422D01*
X151274532Y-104403791D01*
X151284224Y-104396471D01*
X151284228Y-104396470D01*
X151316459Y-104361112D01*
X151318367Y-104359114D01*
X151332174Y-104345309D01*
X151333684Y-104343104D01*
X151339023Y-104336363D01*
X151346555Y-104328101D01*
X151359916Y-104313445D01*
X151362416Y-104306990D01*
X151375749Y-104281694D01*
X151379656Y-104275993D01*
X151386757Y-104245797D01*
X151389292Y-104237613D01*
X151400500Y-104208685D01*
X151400500Y-104201760D01*
X151403795Y-104173367D01*
X151405378Y-104166635D01*
X151405379Y-104166631D01*
X151401095Y-104135920D01*
X151400500Y-104127345D01*
X151400500Y-102765056D01*
X152224500Y-102765056D01*
X152244855Y-102847640D01*
X152265210Y-102930226D01*
X152344263Y-103080849D01*
X152365495Y-103104815D01*
X152457071Y-103208183D01*
X152547318Y-103270476D01*
X152597068Y-103304817D01*
X152597069Y-103304817D01*
X152597070Y-103304818D01*
X152698358Y-103343230D01*
X152745087Y-103360953D01*
X152756128Y-103365140D01*
X152832028Y-103374356D01*
X152882626Y-103380500D01*
X152882628Y-103380500D01*
X153767374Y-103380500D01*
X153809538Y-103375380D01*
X153893872Y-103365140D01*
X154052930Y-103304818D01*
X154192929Y-103208183D01*
X154305734Y-103080852D01*
X154306279Y-103079815D01*
X154361047Y-102975463D01*
X154384790Y-102930225D01*
X154425500Y-102765056D01*
X154425500Y-102594944D01*
X154384790Y-102429775D01*
X154344717Y-102353423D01*
X154305736Y-102279150D01*
X154236058Y-102200500D01*
X154192929Y-102151817D01*
X154143177Y-102117475D01*
X154052931Y-102055182D01*
X153893874Y-101994860D01*
X153893868Y-101994859D01*
X153767374Y-101979500D01*
X153767372Y-101979500D01*
X152882628Y-101979500D01*
X152882626Y-101979500D01*
X152756131Y-101994859D01*
X152756125Y-101994860D01*
X152597068Y-102055182D01*
X152457072Y-102151816D01*
X152344263Y-102279150D01*
X152265210Y-102429773D01*
X152224500Y-102594944D01*
X152224500Y-102765056D01*
X151400500Y-102765056D01*
X151400500Y-101328428D01*
X151420185Y-101261389D01*
X151472989Y-101215634D01*
X151524500Y-101204428D01*
X151600001Y-101204428D01*
X151600002Y-101204427D01*
X151619824Y-101200484D01*
X151678229Y-101188868D01*
X151678231Y-101188867D01*
X151681108Y-101186945D01*
X151688335Y-101184681D01*
X151689513Y-101184194D01*
X151689556Y-101184299D01*
X151747785Y-101166066D01*
X151815165Y-101184550D01*
X151818892Y-101186945D01*
X151821768Y-101188867D01*
X151821770Y-101188868D01*
X151899995Y-101204427D01*
X151899999Y-101204428D01*
X151900000Y-101204428D01*
X152471888Y-101204428D01*
X152471889Y-101204428D01*
X152529483Y-101196147D01*
X152667438Y-101155640D01*
X152720366Y-101131469D01*
X152841320Y-101053737D01*
X152885295Y-101015632D01*
X152979449Y-100906971D01*
X153010906Y-100858023D01*
X153070634Y-100727238D01*
X153070634Y-100727237D01*
X153072474Y-100723209D01*
X153074491Y-100724130D01*
X153110871Y-100675360D01*
X153176293Y-100650831D01*
X153185350Y-100650500D01*
X154030702Y-100650500D01*
X154097741Y-100670185D01*
X154143496Y-100722989D01*
X154153641Y-100758315D01*
X154164955Y-100844260D01*
X154164956Y-100844262D01*
X154196997Y-100921617D01*
X154225464Y-100990341D01*
X154321718Y-101115782D01*
X154447159Y-101212036D01*
X154593238Y-101272544D01*
X154671619Y-101282862D01*
X154749999Y-101293182D01*
X154750000Y-101293182D01*
X154750001Y-101293182D01*
X154802253Y-101286302D01*
X154906762Y-101272544D01*
X155052841Y-101212036D01*
X155178282Y-101115782D01*
X155274536Y-100990341D01*
X155335044Y-100844262D01*
X155355682Y-100687500D01*
X155354468Y-100678282D01*
X155338820Y-100559420D01*
X155335044Y-100530738D01*
X155274536Y-100384659D01*
X155178282Y-100259218D01*
X155052841Y-100162964D01*
X154906762Y-100102456D01*
X154836744Y-100093238D01*
X154746485Y-100081355D01*
X154682589Y-100053088D01*
X154675001Y-100046108D01*
X154573409Y-99944516D01*
X154573408Y-99944515D01*
X154571771Y-99942878D01*
X154571756Y-99942864D01*
X154550842Y-99921950D01*
X154550841Y-99921949D01*
X154531100Y-99911890D01*
X154514514Y-99901726D01*
X154496590Y-99888704D01*
X154496591Y-99888704D01*
X154475518Y-99881857D01*
X154457545Y-99874412D01*
X154437807Y-99864355D01*
X154437804Y-99864354D01*
X154415918Y-99860887D01*
X154397007Y-99856346D01*
X154375939Y-99849501D01*
X154375934Y-99849500D01*
X154375933Y-99849500D01*
X154375929Y-99849500D01*
X153185350Y-99849500D01*
X153118311Y-99829815D01*
X153072556Y-99777011D01*
X153072380Y-99776585D01*
X153056231Y-99741224D01*
X153010906Y-99641977D01*
X152979449Y-99593029D01*
X152885295Y-99484368D01*
X152841320Y-99446263D01*
X152720366Y-99368531D01*
X152720360Y-99368528D01*
X152705296Y-99361649D01*
X152667438Y-99344360D01*
X152667433Y-99344358D01*
X152667430Y-99344357D01*
X152667428Y-99344356D01*
X152529492Y-99303855D01*
X152529478Y-99303852D01*
X152491377Y-99298374D01*
X152471889Y-99295572D01*
X151900000Y-99295572D01*
X151899995Y-99295572D01*
X151821770Y-99311131D01*
X151821768Y-99311132D01*
X151818887Y-99313058D01*
X151811655Y-99315322D01*
X151810487Y-99315806D01*
X151810443Y-99315701D01*
X151752209Y-99333933D01*
X151684829Y-99315446D01*
X151681113Y-99313058D01*
X151678231Y-99311132D01*
X151678229Y-99311131D01*
X151600004Y-99295572D01*
X151600000Y-99295572D01*
X151028111Y-99295572D01*
X150970521Y-99303852D01*
X150970507Y-99303855D01*
X150832571Y-99344356D01*
X150832569Y-99344357D01*
X150779639Y-99368528D01*
X150779633Y-99368531D01*
X150658678Y-99446264D01*
X150620255Y-99479559D01*
X150614705Y-99484368D01*
X150520551Y-99593029D01*
X150520549Y-99593031D01*
X150520549Y-99593032D01*
X150520546Y-99593035D01*
X150489099Y-99641967D01*
X150489093Y-99641978D01*
X150429366Y-99772759D01*
X150412972Y-99828593D01*
X150392511Y-99970907D01*
X150392511Y-100029093D01*
X150394310Y-100041605D01*
X150395572Y-100059251D01*
X150395572Y-100440748D01*
X150394310Y-100458393D01*
X150392511Y-100470907D01*
X150392511Y-100529093D01*
X150394551Y-100543281D01*
X150412972Y-100671406D01*
X150429366Y-100727240D01*
X150489093Y-100858021D01*
X150489099Y-100858032D01*
X150520546Y-100906964D01*
X150520547Y-100906965D01*
X150520551Y-100906971D01*
X150614705Y-101015632D01*
X150658680Y-101053737D01*
X150742540Y-101107630D01*
X150788294Y-101160433D01*
X150799500Y-101211945D01*
X150799500Y-103976678D01*
X150779815Y-104043717D01*
X150763181Y-104064359D01*
X150390787Y-104436752D01*
X150329464Y-104470237D01*
X150259772Y-104465253D01*
X150203839Y-104423381D01*
X150179422Y-104357917D01*
X150188546Y-104301617D01*
X150205687Y-104260236D01*
X150225466Y-104110000D01*
X150225184Y-104107861D01*
X150211476Y-104003736D01*
X150205687Y-103959764D01*
X150147698Y-103819767D01*
X150055451Y-103699549D01*
X149935233Y-103607302D01*
X149935230Y-103607301D01*
X149935228Y-103607299D01*
X149884767Y-103586398D01*
X149830363Y-103542558D01*
X149808298Y-103476264D01*
X149825577Y-103408564D01*
X149876714Y-103360953D01*
X149888249Y-103355895D01*
X150022930Y-103304818D01*
X150162929Y-103208183D01*
X150275734Y-103080852D01*
X150276279Y-103079815D01*
X150331047Y-102975463D01*
X150354790Y-102930225D01*
X150395500Y-102765056D01*
X150395500Y-102594944D01*
X150354790Y-102429775D01*
X150314717Y-102353423D01*
X150275736Y-102279150D01*
X150206058Y-102200500D01*
X150162929Y-102151817D01*
X150113177Y-102117475D01*
X150022931Y-102055182D01*
X149863874Y-101994860D01*
X149863868Y-101994859D01*
X149737374Y-101979500D01*
X149737372Y-101979500D01*
X148552628Y-101979500D01*
X148552626Y-101979500D01*
X148426131Y-101994859D01*
X148426125Y-101994860D01*
X148267068Y-102055182D01*
X148127072Y-102151816D01*
X148014263Y-102279150D01*
X147935210Y-102429773D01*
X147894500Y-102594943D01*
X147894500Y-102594944D01*
X147894500Y-102765056D01*
X147914854Y-102847640D01*
X147935210Y-102930226D01*
X148014263Y-103080849D01*
X148035495Y-103104815D01*
X148127071Y-103208183D01*
X148217318Y-103270476D01*
X148267068Y-103304817D01*
X148267069Y-103304817D01*
X148267070Y-103304818D01*
X148368358Y-103343230D01*
X148415087Y-103360953D01*
X148426128Y-103365140D01*
X148502028Y-103374356D01*
X148552626Y-103380500D01*
X149285049Y-103380500D01*
X149352088Y-103400185D01*
X149397843Y-103452989D01*
X149407787Y-103522147D01*
X149378762Y-103585703D01*
X149360536Y-103602876D01*
X149354768Y-103607301D01*
X149354767Y-103607302D01*
X149234549Y-103699549D01*
X149145926Y-103815045D01*
X149142300Y-103819770D01*
X149084313Y-103959763D01*
X149084312Y-103959765D01*
X149064534Y-104109999D01*
X149064534Y-104110000D01*
X149084312Y-104260234D01*
X149084313Y-104260236D01*
X149142063Y-104399658D01*
X149142302Y-104400233D01*
X149234549Y-104520451D01*
X149354767Y-104612698D01*
X149494764Y-104670687D01*
X149607280Y-104685500D01*
X149607287Y-104685500D01*
X149682713Y-104685500D01*
X149682720Y-104685500D01*
X149795236Y-104670687D01*
X149836618Y-104653545D01*
X149906086Y-104646076D01*
X149968566Y-104677350D01*
X150004219Y-104737439D01*
X150001726Y-104807264D01*
X149971752Y-104855787D01*
X148411848Y-106415693D01*
X148350525Y-106449178D01*
X148324167Y-106452012D01*
X147024945Y-106452012D01*
X146957906Y-106432327D01*
X146912151Y-106379523D01*
X146902207Y-106310365D01*
X146931232Y-106246809D01*
X146959667Y-106222586D01*
X146976557Y-106212127D01*
X146976556Y-106212127D01*
X146976562Y-106212124D01*
X147140981Y-106062236D01*
X147275058Y-105884689D01*
X147374229Y-105685528D01*
X147435115Y-105471536D01*
X147455643Y-105250000D01*
X147435115Y-105028464D01*
X147374229Y-104814472D01*
X147374221Y-104814455D01*
X147275061Y-104615316D01*
X147275056Y-104615308D01*
X147140979Y-104437761D01*
X146976562Y-104287876D01*
X146976560Y-104287874D01*
X146787404Y-104170754D01*
X146787398Y-104170752D01*
X146776771Y-104166635D01*
X146579940Y-104090382D01*
X146361243Y-104049500D01*
X146138757Y-104049500D01*
X145973731Y-104080348D01*
X145920054Y-104090383D01*
X145805632Y-104134710D01*
X145736008Y-104140571D01*
X145674269Y-104107861D01*
X145673158Y-104106764D01*
X144759287Y-103192893D01*
X144759256Y-103192864D01*
X144738342Y-103171950D01*
X144738341Y-103171949D01*
X144718600Y-103161890D01*
X144702014Y-103151726D01*
X144684090Y-103138704D01*
X144684091Y-103138704D01*
X144663018Y-103131857D01*
X144645045Y-103124412D01*
X144625307Y-103114355D01*
X144625304Y-103114354D01*
X144603418Y-103110887D01*
X144584507Y-103106346D01*
X144563439Y-103099501D01*
X144563434Y-103099500D01*
X144563433Y-103099500D01*
X144563429Y-103099500D01*
X142516255Y-103099500D01*
X142449216Y-103079815D01*
X142403461Y-103027011D01*
X142393517Y-102957853D01*
X142422542Y-102894297D01*
X142428574Y-102887819D01*
X142812552Y-102503841D01*
X142812557Y-102503834D01*
X142828050Y-102488342D01*
X142838114Y-102468588D01*
X142848263Y-102452026D01*
X142861296Y-102434090D01*
X142868144Y-102413011D01*
X142875586Y-102395044D01*
X142885646Y-102375304D01*
X142889112Y-102353417D01*
X142893655Y-102334498D01*
X142900500Y-102313433D01*
X142900500Y-102186567D01*
X142900500Y-101217254D01*
X142920185Y-101150215D01*
X142936819Y-101129573D01*
X143050760Y-101015632D01*
X143174991Y-100891400D01*
X143236312Y-100857917D01*
X143246485Y-100856144D01*
X143249997Y-100855681D01*
X143250000Y-100855682D01*
X143406762Y-100835044D01*
X143552841Y-100774536D01*
X143678282Y-100678282D01*
X143774536Y-100552841D01*
X143835044Y-100406762D01*
X143852817Y-100271760D01*
X143855682Y-100250001D01*
X143855682Y-100249998D01*
X143836927Y-100107543D01*
X143835044Y-100093238D01*
X143774536Y-99947159D01*
X143678282Y-99821718D01*
X143552841Y-99725464D01*
X143406762Y-99664956D01*
X143406760Y-99664955D01*
X143250001Y-99644318D01*
X143249999Y-99644318D01*
X143093239Y-99664955D01*
X143093237Y-99664956D01*
X142947160Y-99725463D01*
X142821718Y-99821718D01*
X142725463Y-99947160D01*
X142664956Y-100093237D01*
X142664956Y-100093238D01*
X142643855Y-100253513D01*
X142615588Y-100317409D01*
X142608597Y-100325008D01*
X142194516Y-100739091D01*
X142194513Y-100739094D01*
X142171949Y-100761659D01*
X142171948Y-100761660D01*
X142161891Y-100781397D01*
X142151731Y-100797977D01*
X142138706Y-100815905D01*
X142138703Y-100815910D01*
X142131854Y-100836988D01*
X142124413Y-100854952D01*
X142114354Y-100874695D01*
X142110887Y-100896582D01*
X142106347Y-100915491D01*
X142099500Y-100936567D01*
X142099500Y-102032744D01*
X142079815Y-102099783D01*
X142063181Y-102120425D01*
X141325008Y-102858597D01*
X141263685Y-102892082D01*
X141253513Y-102893855D01*
X141093238Y-102914956D01*
X141093237Y-102914956D01*
X140947160Y-102975463D01*
X140821718Y-103071718D01*
X140725463Y-103197160D01*
X140664956Y-103343237D01*
X140664955Y-103343239D01*
X140644318Y-103499998D01*
X140644318Y-103500001D01*
X140664955Y-103656760D01*
X140664956Y-103656762D01*
X140703576Y-103750000D01*
X140725464Y-103802841D01*
X140821718Y-103928282D01*
X140947159Y-104024536D01*
X141093238Y-104085044D01*
X141133792Y-104090383D01*
X141249999Y-104105682D01*
X141250000Y-104105682D01*
X141250001Y-104105682D01*
X141302253Y-104098802D01*
X141406762Y-104085044D01*
X141552841Y-104024536D01*
X141678282Y-103928282D01*
X141678283Y-103928279D01*
X141681093Y-103926124D01*
X141746263Y-103900930D01*
X141756580Y-103900500D01*
X144282745Y-103900500D01*
X144349784Y-103920185D01*
X144370426Y-103936819D01*
X145103340Y-104669733D01*
X145136825Y-104731056D01*
X145131841Y-104800748D01*
X145126667Y-104812669D01*
X145125777Y-104814455D01*
X145125766Y-104814483D01*
X145064885Y-105028461D01*
X145064884Y-105028464D01*
X145044357Y-105249999D01*
X145044357Y-105250000D01*
X145064884Y-105471535D01*
X145064885Y-105471537D01*
X145125769Y-105685523D01*
X145125775Y-105685538D01*
X145224938Y-105884683D01*
X145224943Y-105884691D01*
X145359020Y-106062238D01*
X145523437Y-106212123D01*
X145523442Y-106212127D01*
X145540333Y-106222586D01*
X145586968Y-106274614D01*
X145598072Y-106343595D01*
X145570118Y-106407630D01*
X145511983Y-106446386D01*
X145475055Y-106452012D01*
X125378345Y-106452012D01*
X125311306Y-106432327D01*
X125290664Y-106415693D01*
X123264395Y-104389424D01*
X123230910Y-104328101D01*
X123229339Y-104284094D01*
X123230647Y-104275000D01*
X123210165Y-104132543D01*
X123150377Y-104001627D01*
X123056128Y-103892857D01*
X122935053Y-103815047D01*
X122935051Y-103815046D01*
X122935049Y-103815045D01*
X122935050Y-103815045D01*
X122796963Y-103774500D01*
X122796961Y-103774500D01*
X122653039Y-103774500D01*
X122653036Y-103774500D01*
X122514949Y-103815045D01*
X122393873Y-103892856D01*
X122299623Y-104001626D01*
X122299622Y-104001628D01*
X122239834Y-104132543D01*
X122219353Y-104274999D01*
X122239834Y-104417456D01*
X122280796Y-104507149D01*
X122299623Y-104548373D01*
X122393872Y-104657143D01*
X122514947Y-104734953D01*
X122514950Y-104734954D01*
X122514949Y-104734954D01*
X122600352Y-104760030D01*
X122650280Y-104774690D01*
X122653036Y-104775499D01*
X122653038Y-104775500D01*
X122749167Y-104775500D01*
X122816206Y-104795185D01*
X122836848Y-104811819D01*
X124762848Y-106737819D01*
X124796333Y-106799142D01*
X124791349Y-106868834D01*
X124749477Y-106924767D01*
X124684013Y-106949184D01*
X124675167Y-106949500D01*
X121884856Y-106949500D01*
X121817817Y-106929815D01*
X121797175Y-106913181D01*
X121583001Y-106699007D01*
X121549516Y-106637684D01*
X121547945Y-106593677D01*
X121549253Y-106584583D01*
X121528771Y-106442126D01*
X121468983Y-106311210D01*
X121374734Y-106202440D01*
X121253659Y-106124630D01*
X121253657Y-106124629D01*
X121253655Y-106124628D01*
X121253656Y-106124628D01*
X121115569Y-106084083D01*
X121115567Y-106084083D01*
X120971645Y-106084083D01*
X120971642Y-106084083D01*
X120833555Y-106124628D01*
X120712479Y-106202439D01*
X120618229Y-106311209D01*
X120618228Y-106311211D01*
X120558440Y-106442126D01*
X120537959Y-106584583D01*
X116300500Y-106584583D01*
X116300500Y-105213738D01*
X116320185Y-105146699D01*
X116330787Y-105132535D01*
X116331124Y-105132144D01*
X116331128Y-105132143D01*
X116425377Y-105023373D01*
X116485165Y-104892457D01*
X116505647Y-104750000D01*
X116485165Y-104607543D01*
X116425377Y-104476627D01*
X116331128Y-104367857D01*
X116210053Y-104290047D01*
X116210051Y-104290046D01*
X116210049Y-104290045D01*
X116210050Y-104290045D01*
X116071963Y-104249500D01*
X116071961Y-104249500D01*
X115928039Y-104249500D01*
X115928036Y-104249500D01*
X115789949Y-104290045D01*
X115668873Y-104367856D01*
X115668872Y-104367856D01*
X115668872Y-104367857D01*
X115649961Y-104389680D01*
X115591185Y-104427454D01*
X115521315Y-104427454D01*
X115462538Y-104389680D01*
X115443628Y-104367857D01*
X115322553Y-104290047D01*
X115322551Y-104290046D01*
X115322549Y-104290045D01*
X115322550Y-104290045D01*
X115184463Y-104249500D01*
X115184461Y-104249500D01*
X115040539Y-104249500D01*
X115040536Y-104249500D01*
X114902449Y-104290045D01*
X114781373Y-104367856D01*
X114687123Y-104476626D01*
X114687122Y-104476628D01*
X114627334Y-104607543D01*
X114609323Y-104732821D01*
X114606853Y-104750000D01*
X114608295Y-104760030D01*
X114627334Y-104892456D01*
X114665775Y-104976628D01*
X114687123Y-105023373D01*
X114781372Y-105132143D01*
X114781375Y-105132144D01*
X114781713Y-105132535D01*
X114810738Y-105196091D01*
X114812000Y-105213738D01*
X114812000Y-106521980D01*
X114792315Y-106589019D01*
X114739511Y-106634774D01*
X114670353Y-106644718D01*
X114606797Y-106615693D01*
X114600319Y-106609661D01*
X113911819Y-105921162D01*
X113878334Y-105859839D01*
X113875500Y-105833481D01*
X113875500Y-105213738D01*
X113895185Y-105146699D01*
X113905787Y-105132535D01*
X113906124Y-105132144D01*
X113906128Y-105132143D01*
X114000377Y-105023373D01*
X114060165Y-104892457D01*
X114080647Y-104750000D01*
X114060165Y-104607543D01*
X114000377Y-104476627D01*
X113906128Y-104367857D01*
X113785053Y-104290047D01*
X113785051Y-104290046D01*
X113785049Y-104290045D01*
X113785050Y-104290045D01*
X113646963Y-104249500D01*
X113646961Y-104249500D01*
X113503039Y-104249500D01*
X113503036Y-104249500D01*
X113364949Y-104290045D01*
X113243873Y-104367856D01*
X113149623Y-104476626D01*
X113149622Y-104476628D01*
X113089834Y-104607543D01*
X113084716Y-104643147D01*
X113055691Y-104706702D01*
X112996913Y-104744477D01*
X112961978Y-104749500D01*
X112853036Y-104749500D01*
X112714949Y-104790045D01*
X112593873Y-104867856D01*
X112499623Y-104976626D01*
X112499622Y-104976628D01*
X112439834Y-105107543D01*
X112419353Y-105250000D01*
X112439834Y-105392456D01*
X112475950Y-105471537D01*
X112499623Y-105523373D01*
X112593872Y-105632143D01*
X112593875Y-105632144D01*
X112594213Y-105632535D01*
X112623238Y-105696091D01*
X112624500Y-105713738D01*
X112624500Y-105862158D01*
X112623905Y-105870732D01*
X112622227Y-105882763D01*
X112624434Y-105930509D01*
X112624500Y-105933372D01*
X112624500Y-106899166D01*
X112604815Y-106966205D01*
X112588181Y-106986847D01*
X111161848Y-108413181D01*
X111100525Y-108446666D01*
X111074167Y-108449500D01*
X109440116Y-108449500D01*
X109373077Y-108429815D01*
X109327322Y-108377011D01*
X109317378Y-108307853D01*
X109346403Y-108244297D01*
X109364625Y-108227126D01*
X109428282Y-108178282D01*
X109524536Y-108052841D01*
X109585044Y-107906762D01*
X109605682Y-107750000D01*
X109599701Y-107704573D01*
X109585044Y-107593239D01*
X109585044Y-107593238D01*
X109524536Y-107447159D01*
X109428282Y-107321718D01*
X109427774Y-107321328D01*
X109424012Y-107318441D01*
X109382810Y-107262013D01*
X109375500Y-107220067D01*
X109375500Y-105029932D01*
X109395185Y-104962893D01*
X109424015Y-104931555D01*
X109428282Y-104928282D01*
X109524536Y-104802841D01*
X109585044Y-104656762D01*
X109605682Y-104500000D01*
X109601107Y-104465253D01*
X109587128Y-104359069D01*
X109585044Y-104343238D01*
X109524536Y-104197159D01*
X109524535Y-104197158D01*
X109524535Y-104197157D01*
X109426124Y-104068905D01*
X109400930Y-104003736D01*
X109400500Y-103993419D01*
X109400500Y-103250001D01*
X125894318Y-103250001D01*
X125914955Y-103406760D01*
X125914956Y-103406762D01*
X125974002Y-103549313D01*
X125975464Y-103552841D01*
X126071718Y-103678282D01*
X126197159Y-103774536D01*
X126343238Y-103835044D01*
X126405478Y-103843238D01*
X126499999Y-103855682D01*
X126500000Y-103855682D01*
X126500001Y-103855682D01*
X126594514Y-103843239D01*
X126656762Y-103835044D01*
X126802841Y-103774536D01*
X126928282Y-103678282D01*
X126928283Y-103678279D01*
X126931093Y-103676124D01*
X126996263Y-103650930D01*
X127006580Y-103650500D01*
X129782745Y-103650500D01*
X129849784Y-103670185D01*
X129870421Y-103686814D01*
X129958107Y-103774500D01*
X130015996Y-103832389D01*
X130016006Y-103832398D01*
X130036658Y-103853050D01*
X130056398Y-103863108D01*
X130072987Y-103873274D01*
X130090909Y-103886295D01*
X130090910Y-103886295D01*
X130090911Y-103886296D01*
X130111980Y-103893142D01*
X130129949Y-103900584D01*
X130149696Y-103910646D01*
X130171582Y-103914112D01*
X130190497Y-103918653D01*
X130211567Y-103925500D01*
X130243481Y-103925500D01*
X133518420Y-103925500D01*
X133585459Y-103945185D01*
X133593907Y-103951124D01*
X133596716Y-103953279D01*
X133596718Y-103953282D01*
X133722159Y-104049536D01*
X133868238Y-104110044D01*
X133946619Y-104120363D01*
X134024999Y-104130682D01*
X134025000Y-104130682D01*
X134025001Y-104130682D01*
X134077253Y-104123802D01*
X134181762Y-104110044D01*
X134327841Y-104049536D01*
X134453282Y-103953282D01*
X134549536Y-103827841D01*
X134610044Y-103681762D01*
X134623802Y-103577254D01*
X134630682Y-103525001D01*
X134630682Y-103524998D01*
X134616923Y-103420491D01*
X134610044Y-103368238D01*
X134549536Y-103222159D01*
X134453282Y-103096718D01*
X134327841Y-103000464D01*
X134267483Y-102975463D01*
X134181762Y-102939956D01*
X134181760Y-102939955D01*
X134025001Y-102919318D01*
X134024999Y-102919318D01*
X133868239Y-102939955D01*
X133868237Y-102939956D01*
X133722160Y-103000463D01*
X133722158Y-103000464D01*
X133722159Y-103000464D01*
X133596718Y-103096718D01*
X133596716Y-103096720D01*
X133593907Y-103098876D01*
X133528737Y-103124070D01*
X133518420Y-103124500D01*
X130492255Y-103124500D01*
X130425216Y-103104815D01*
X130404578Y-103088185D01*
X130260909Y-102944516D01*
X130260908Y-102944515D01*
X130259271Y-102942878D01*
X130259256Y-102942864D01*
X130238342Y-102921950D01*
X130238341Y-102921949D01*
X130218600Y-102911890D01*
X130202014Y-102901726D01*
X130184090Y-102888704D01*
X130184091Y-102888704D01*
X130163018Y-102881857D01*
X130145045Y-102874412D01*
X130125307Y-102864355D01*
X130125304Y-102864354D01*
X130103418Y-102860887D01*
X130084507Y-102856346D01*
X130063439Y-102849501D01*
X130063434Y-102849500D01*
X130063433Y-102849500D01*
X130063429Y-102849500D01*
X127006580Y-102849500D01*
X126939541Y-102829815D01*
X126931093Y-102823876D01*
X126928283Y-102821720D01*
X126928282Y-102821718D01*
X126802841Y-102725464D01*
X126656762Y-102664956D01*
X126656760Y-102664955D01*
X126500001Y-102644318D01*
X126499999Y-102644318D01*
X126343239Y-102664955D01*
X126343237Y-102664956D01*
X126197160Y-102725463D01*
X126071718Y-102821718D01*
X125975463Y-102947160D01*
X125914956Y-103093237D01*
X125914955Y-103093239D01*
X125894318Y-103249998D01*
X125894318Y-103250001D01*
X109400500Y-103250001D01*
X109400500Y-101977806D01*
X109420185Y-101910767D01*
X109436819Y-101890125D01*
X109804734Y-101522210D01*
X110192208Y-101134735D01*
X110253529Y-101101252D01*
X110263702Y-101099479D01*
X110267214Y-101099016D01*
X110267217Y-101099017D01*
X110423979Y-101078379D01*
X110570058Y-101017871D01*
X110695499Y-100921617D01*
X110791753Y-100796176D01*
X110852261Y-100650097D01*
X110872072Y-100499617D01*
X110872899Y-100493336D01*
X110872899Y-100493333D01*
X110852261Y-100336574D01*
X110852261Y-100336573D01*
X110791753Y-100190494D01*
X110695499Y-100065053D01*
X110570058Y-99968799D01*
X110507479Y-99942878D01*
X110423979Y-99908291D01*
X110423977Y-99908290D01*
X110267218Y-99887653D01*
X110267216Y-99887653D01*
X110110456Y-99908290D01*
X110110454Y-99908291D01*
X109964377Y-99968798D01*
X109838935Y-100065053D01*
X109742680Y-100190495D01*
X109682173Y-100336572D01*
X109682173Y-100336573D01*
X109661072Y-100496848D01*
X109632805Y-100560744D01*
X109625814Y-100568343D01*
X108694516Y-101499643D01*
X108694513Y-101499646D01*
X108671949Y-101522211D01*
X108671948Y-101522212D01*
X108661891Y-101541949D01*
X108651731Y-101558529D01*
X108638706Y-101576457D01*
X108638703Y-101576462D01*
X108631854Y-101597540D01*
X108624413Y-101615504D01*
X108614354Y-101635248D01*
X108614352Y-101635251D01*
X108610886Y-101657134D01*
X108606347Y-101676042D01*
X108599499Y-101697118D01*
X108599499Y-101697119D01*
X108599498Y-101753689D01*
X108599499Y-101753698D01*
X108599499Y-103993419D01*
X108579814Y-104060458D01*
X108573875Y-104068905D01*
X108475464Y-104197157D01*
X108414956Y-104343237D01*
X108414955Y-104343239D01*
X108394318Y-104499998D01*
X108394318Y-104500001D01*
X108414955Y-104656760D01*
X108414956Y-104656762D01*
X108475464Y-104802842D01*
X108571715Y-104928279D01*
X108571716Y-104928280D01*
X108571718Y-104928282D01*
X108575982Y-104931554D01*
X108617187Y-104987978D01*
X108624500Y-105029932D01*
X108624500Y-107220067D01*
X108604815Y-107287106D01*
X108575988Y-107318441D01*
X108571721Y-107321715D01*
X108571719Y-107321716D01*
X108571718Y-107321718D01*
X108563887Y-107331924D01*
X108475463Y-107447160D01*
X108414956Y-107593237D01*
X108414955Y-107593239D01*
X108394318Y-107749998D01*
X108394318Y-107750001D01*
X108414955Y-107906760D01*
X108417060Y-107914613D01*
X108413742Y-107915501D01*
X108419463Y-107969280D01*
X108388117Y-108031724D01*
X108327988Y-108067308D01*
X108258166Y-108064735D01*
X108209777Y-108034806D01*
X105019395Y-104844424D01*
X104985910Y-104783101D01*
X104984339Y-104739094D01*
X104985647Y-104730000D01*
X104965165Y-104587543D01*
X104905377Y-104456627D01*
X104811128Y-104347857D01*
X104690053Y-104270047D01*
X104690051Y-104270046D01*
X104690049Y-104270045D01*
X104690050Y-104270045D01*
X104551963Y-104229500D01*
X104551961Y-104229500D01*
X104408039Y-104229500D01*
X104408036Y-104229500D01*
X104269949Y-104270045D01*
X104148873Y-104347856D01*
X104054623Y-104456626D01*
X104054622Y-104456628D01*
X103994834Y-104587543D01*
X103974353Y-104730000D01*
X103994834Y-104872456D01*
X104042408Y-104976626D01*
X104054623Y-105003373D01*
X104148872Y-105112143D01*
X104269947Y-105189953D01*
X104269950Y-105189954D01*
X104269949Y-105189954D01*
X104350952Y-105213738D01*
X104405280Y-105229690D01*
X104408036Y-105230499D01*
X104408038Y-105230500D01*
X104504167Y-105230500D01*
X104571206Y-105250185D01*
X104591848Y-105266819D01*
X107562847Y-108237819D01*
X107596332Y-108299142D01*
X107591348Y-108368834D01*
X107549476Y-108424767D01*
X107484012Y-108449184D01*
X107475166Y-108449500D01*
X101675833Y-108449500D01*
X101608794Y-108429815D01*
X101588152Y-108413181D01*
X99539395Y-106364424D01*
X99505910Y-106303101D01*
X99504339Y-106259094D01*
X99505647Y-106250000D01*
X99485165Y-106107543D01*
X99425377Y-105976627D01*
X99331128Y-105867857D01*
X99210053Y-105790047D01*
X99210051Y-105790046D01*
X99210049Y-105790045D01*
X99210050Y-105790045D01*
X99071963Y-105749500D01*
X99071961Y-105749500D01*
X98928039Y-105749500D01*
X98928036Y-105749500D01*
X98789949Y-105790045D01*
X98789945Y-105790047D01*
X98766538Y-105805090D01*
X98699498Y-105824774D01*
X98632459Y-105805088D01*
X98586705Y-105752284D01*
X98575500Y-105700774D01*
X98575500Y-104568298D01*
X98595185Y-104501259D01*
X98624010Y-104469925D01*
X98678282Y-104428282D01*
X98774536Y-104302841D01*
X98835044Y-104156762D01*
X98849047Y-104050400D01*
X98855682Y-104000001D01*
X98855682Y-103999998D01*
X98836336Y-103853050D01*
X98835044Y-103843238D01*
X98796424Y-103750001D01*
X99144318Y-103750001D01*
X99164955Y-103906760D01*
X99164956Y-103906762D01*
X99203576Y-104000000D01*
X99225464Y-104052841D01*
X99321718Y-104178282D01*
X99447159Y-104274536D01*
X99593238Y-104335044D01*
X99655478Y-104343238D01*
X99749999Y-104355682D01*
X99750000Y-104355682D01*
X99750001Y-104355682D01*
X99827082Y-104345534D01*
X99906762Y-104335044D01*
X100052841Y-104274536D01*
X100178282Y-104178282D01*
X100274536Y-104052841D01*
X100335044Y-103906762D01*
X100355682Y-103750000D01*
X100355682Y-103749998D01*
X100355682Y-103742072D01*
X100375367Y-103675033D01*
X100392001Y-103654391D01*
X101767244Y-102279148D01*
X103289991Y-100756400D01*
X103351312Y-100722917D01*
X103361485Y-100721144D01*
X103364997Y-100720681D01*
X103365000Y-100720682D01*
X103521762Y-100700044D01*
X103667841Y-100639536D01*
X103793282Y-100543282D01*
X103889536Y-100417841D01*
X103950044Y-100271762D01*
X103970682Y-100115000D01*
X103969700Y-100107543D01*
X103950044Y-99958239D01*
X103950044Y-99958238D01*
X103889536Y-99812159D01*
X103793282Y-99686718D01*
X103667841Y-99590464D01*
X103659041Y-99586819D01*
X103521762Y-99529956D01*
X103521760Y-99529955D01*
X103365001Y-99509318D01*
X103364999Y-99509318D01*
X103208239Y-99529955D01*
X103208237Y-99529956D01*
X103062160Y-99590463D01*
X102936718Y-99686718D01*
X102840463Y-99812160D01*
X102779956Y-99958237D01*
X102779956Y-99958238D01*
X102758855Y-100118513D01*
X102730588Y-100182409D01*
X102723597Y-100190008D01*
X99801976Y-103111629D01*
X99740653Y-103145114D01*
X99730481Y-103146887D01*
X99616527Y-103161890D01*
X99593238Y-103164956D01*
X99593237Y-103164956D01*
X99447160Y-103225463D01*
X99321718Y-103321718D01*
X99225463Y-103447160D01*
X99164956Y-103593237D01*
X99164955Y-103593239D01*
X99144318Y-103749998D01*
X99144318Y-103750001D01*
X98796424Y-103750001D01*
X98774536Y-103697159D01*
X98678282Y-103571718D01*
X98552841Y-103475464D01*
X98406762Y-103414956D01*
X98406760Y-103414955D01*
X98250001Y-103394318D01*
X98249999Y-103394318D01*
X98093239Y-103414955D01*
X98093237Y-103414956D01*
X97947160Y-103475463D01*
X97821718Y-103571718D01*
X97725463Y-103697160D01*
X97664956Y-103843237D01*
X97664955Y-103843239D01*
X97644318Y-103999998D01*
X97644318Y-104000001D01*
X94662898Y-104000001D01*
X94637929Y-103971817D01*
X94560910Y-103918654D01*
X94497931Y-103875182D01*
X94338874Y-103814860D01*
X94338868Y-103814859D01*
X94212374Y-103799500D01*
X94212372Y-103799500D01*
X94127628Y-103799500D01*
X94127626Y-103799500D01*
X94001131Y-103814859D01*
X94001125Y-103814860D01*
X93842068Y-103875182D01*
X93702072Y-103971816D01*
X93589263Y-104099150D01*
X93534296Y-104203882D01*
X93485711Y-104254095D01*
X93417692Y-104270069D01*
X93351835Y-104246734D01*
X93309048Y-104191497D01*
X93300500Y-104146256D01*
X93300500Y-101853743D01*
X93320185Y-101786704D01*
X93372989Y-101740949D01*
X93442147Y-101731005D01*
X93505703Y-101760030D01*
X93534296Y-101796117D01*
X93589266Y-101900852D01*
X93702071Y-102028183D01*
X93741186Y-102055182D01*
X93842068Y-102124817D01*
X93842069Y-102124817D01*
X93842070Y-102124818D01*
X94001128Y-102185140D01*
X94077028Y-102194356D01*
X94127626Y-102200500D01*
X94127628Y-102200500D01*
X94212374Y-102200500D01*
X94254538Y-102195380D01*
X94338872Y-102185140D01*
X94497930Y-102124818D01*
X94637929Y-102028183D01*
X94750734Y-101900852D01*
X94829790Y-101750225D01*
X94870500Y-101585056D01*
X94870500Y-101414944D01*
X94829790Y-101249775D01*
X94828194Y-101246734D01*
X94750736Y-101099150D01*
X94731560Y-101077505D01*
X94637929Y-100971817D01*
X94571310Y-100925833D01*
X94497931Y-100875182D01*
X94338874Y-100814860D01*
X94338868Y-100814859D01*
X94212374Y-100799500D01*
X94212372Y-100799500D01*
X94127628Y-100799500D01*
X94127626Y-100799500D01*
X94001131Y-100814859D01*
X94001125Y-100814860D01*
X93842068Y-100875182D01*
X93702072Y-100971816D01*
X93589263Y-101099150D01*
X93534296Y-101203882D01*
X93485711Y-101254095D01*
X93417692Y-101270069D01*
X93351835Y-101246734D01*
X93309048Y-101191497D01*
X93300500Y-101146256D01*
X93300500Y-100925833D01*
X93320185Y-100858794D01*
X93336819Y-100838152D01*
X94588152Y-99586819D01*
X94649475Y-99553334D01*
X94675833Y-99550500D01*
X96437159Y-99550500D01*
X96445733Y-99551095D01*
X96457761Y-99552772D01*
X96457761Y-99552771D01*
X96457765Y-99552773D01*
X96500920Y-99550778D01*
X96505510Y-99550566D01*
X96508373Y-99550500D01*
X96527843Y-99550500D01*
X96527844Y-99550500D01*
X96530468Y-99550009D01*
X96539021Y-99549016D01*
X96540245Y-99548959D01*
X96569992Y-99547585D01*
X96576322Y-99544789D01*
X96603629Y-99536332D01*
X96610433Y-99535061D01*
X96636797Y-99518736D01*
X96644392Y-99514733D01*
X96672765Y-99502206D01*
X96677661Y-99497309D01*
X96700069Y-99479561D01*
X96705952Y-99475919D01*
X96724649Y-99451158D01*
X96730266Y-99444703D01*
X97918059Y-98256910D01*
X97924532Y-98251279D01*
X97934224Y-98243959D01*
X97934228Y-98243958D01*
X97966459Y-98208600D01*
X97968367Y-98206602D01*
X97982174Y-98192797D01*
X97983684Y-98190592D01*
X97989023Y-98183851D01*
X97991368Y-98181278D01*
X98009916Y-98160933D01*
X98012417Y-98154476D01*
X98025750Y-98129184D01*
X98029657Y-98123481D01*
X98036757Y-98093294D01*
X98039296Y-98085092D01*
X98050500Y-98056173D01*
X98050500Y-98049248D01*
X98053794Y-98020856D01*
X98055379Y-98014119D01*
X98051092Y-97983391D01*
X98050499Y-97974848D01*
X98050499Y-97194752D01*
X98349500Y-97194752D01*
X98357254Y-97233738D01*
X98361132Y-97253233D01*
X98394254Y-97302803D01*
X98394260Y-97302811D01*
X98847184Y-97755735D01*
X98847191Y-97755741D01*
X98896768Y-97788867D01*
X98955247Y-97800499D01*
X98955250Y-97800500D01*
X98955252Y-97800500D01*
X100269750Y-97800500D01*
X100269751Y-97800499D01*
X100284568Y-97797552D01*
X100328229Y-97788868D01*
X100328229Y-97788867D01*
X100328231Y-97788867D01*
X100394552Y-97744552D01*
X100438867Y-97678231D01*
X100438867Y-97678229D01*
X100438868Y-97678229D01*
X100450499Y-97619752D01*
X100450500Y-97619750D01*
X100450500Y-96750000D01*
X100884417Y-96750000D01*
X100904699Y-96955932D01*
X100904700Y-96955934D01*
X100964768Y-97153954D01*
X101062315Y-97336450D01*
X101062317Y-97336452D01*
X101193589Y-97496410D01*
X101259510Y-97550509D01*
X101353550Y-97627685D01*
X101536046Y-97725232D01*
X101734066Y-97785300D01*
X101734065Y-97785300D01*
X101752529Y-97787118D01*
X101940000Y-97805583D01*
X102145934Y-97785300D01*
X102276581Y-97745668D01*
X102346447Y-97745046D01*
X102400256Y-97776649D01*
X102764668Y-98141060D01*
X103111950Y-98488342D01*
X103132864Y-98509256D01*
X103132893Y-98509287D01*
X104868652Y-100245045D01*
X104902137Y-100306368D01*
X104903709Y-100315078D01*
X104914834Y-100392453D01*
X104914835Y-100392458D01*
X104964043Y-100500207D01*
X104974623Y-100523373D01*
X105068872Y-100632143D01*
X105189947Y-100709953D01*
X105189950Y-100709954D01*
X105189949Y-100709954D01*
X105328036Y-100750499D01*
X105328038Y-100750500D01*
X105328039Y-100750500D01*
X105471962Y-100750500D01*
X105471962Y-100750499D01*
X105610053Y-100709953D01*
X105731128Y-100632143D01*
X105825377Y-100523373D01*
X105885165Y-100392457D01*
X105905647Y-100250000D01*
X105885165Y-100107543D01*
X105825377Y-99976627D01*
X105731128Y-99867857D01*
X105610053Y-99790047D01*
X105550362Y-99772520D01*
X105497617Y-99741224D01*
X104618574Y-98862181D01*
X104585089Y-98800858D01*
X104590073Y-98731166D01*
X104631945Y-98675233D01*
X104697409Y-98650816D01*
X104706255Y-98650500D01*
X105061026Y-98650500D01*
X105128064Y-98670184D01*
X105135921Y-98675233D01*
X105184418Y-98706400D01*
X105189949Y-98709954D01*
X105328036Y-98750499D01*
X105328038Y-98750500D01*
X105328039Y-98750500D01*
X105471962Y-98750500D01*
X105471962Y-98750499D01*
X105610053Y-98709953D01*
X105731128Y-98632143D01*
X105825377Y-98523373D01*
X105885165Y-98392457D01*
X105905647Y-98250000D01*
X105885165Y-98107543D01*
X105825377Y-97976627D01*
X105731128Y-97867857D01*
X105610053Y-97790047D01*
X105610051Y-97790046D01*
X105610049Y-97790045D01*
X105610050Y-97790045D01*
X105471963Y-97749500D01*
X105471961Y-97749500D01*
X105328039Y-97749500D01*
X105274086Y-97765341D01*
X105204216Y-97765340D01*
X105145439Y-97727564D01*
X105116415Y-97664008D01*
X105126360Y-97594850D01*
X105160487Y-97550510D01*
X105226410Y-97496410D01*
X105357685Y-97336450D01*
X105455232Y-97153954D01*
X105515300Y-96955934D01*
X105535583Y-96750000D01*
X105964417Y-96750000D01*
X105984699Y-96955932D01*
X105984700Y-96955934D01*
X106044768Y-97153954D01*
X106142315Y-97336450D01*
X106142317Y-97336452D01*
X106273589Y-97496410D01*
X106339510Y-97550509D01*
X106433550Y-97627685D01*
X106616046Y-97725232D01*
X106814066Y-97785300D01*
X106814065Y-97785300D01*
X106832529Y-97787118D01*
X107020000Y-97805583D01*
X107225934Y-97785300D01*
X107423954Y-97725232D01*
X107606450Y-97627685D01*
X107766410Y-97496410D01*
X107897685Y-97336450D01*
X107995232Y-97153954D01*
X108055300Y-96955934D01*
X108075583Y-96750000D01*
X108075583Y-96749999D01*
X111044417Y-96749999D01*
X111064699Y-96955932D01*
X111064700Y-96955934D01*
X111124768Y-97153954D01*
X111222315Y-97336450D01*
X111222317Y-97336452D01*
X111353589Y-97496410D01*
X111419510Y-97550509D01*
X111513550Y-97627685D01*
X111696046Y-97725232D01*
X111894066Y-97785300D01*
X111894065Y-97785300D01*
X111912529Y-97787118D01*
X112100000Y-97805583D01*
X112305934Y-97785300D01*
X112503954Y-97725232D01*
X112686450Y-97627685D01*
X112846410Y-97496410D01*
X112977685Y-97336450D01*
X113075232Y-97153954D01*
X113135300Y-96955934D01*
X113155583Y-96750000D01*
X113155583Y-96749999D01*
X113584417Y-96749999D01*
X113604699Y-96955932D01*
X113604700Y-96955934D01*
X113664768Y-97153954D01*
X113762315Y-97336450D01*
X113762317Y-97336452D01*
X113893589Y-97496410D01*
X113959510Y-97550509D01*
X114053550Y-97627685D01*
X114236046Y-97725232D01*
X114434066Y-97785300D01*
X114434065Y-97785300D01*
X114452529Y-97787118D01*
X114640000Y-97805583D01*
X114845934Y-97785300D01*
X115043954Y-97725232D01*
X115226450Y-97627685D01*
X115386410Y-97496410D01*
X115517685Y-97336450D01*
X115615232Y-97153954D01*
X115675300Y-96955934D01*
X115695583Y-96750000D01*
X115695583Y-96749999D01*
X116124417Y-96749999D01*
X116144699Y-96955932D01*
X116144700Y-96955934D01*
X116204768Y-97153954D01*
X116302315Y-97336450D01*
X116302317Y-97336452D01*
X116433589Y-97496410D01*
X116499510Y-97550509D01*
X116593550Y-97627685D01*
X116776046Y-97725232D01*
X116974066Y-97785300D01*
X116974065Y-97785300D01*
X116994347Y-97787297D01*
X117180000Y-97805583D01*
X117385934Y-97785300D01*
X117583954Y-97725232D01*
X117766450Y-97627685D01*
X117926410Y-97496410D01*
X118057685Y-97336450D01*
X118155232Y-97153954D01*
X118215300Y-96955934D01*
X118235583Y-96750000D01*
X118664417Y-96750000D01*
X118684699Y-96955932D01*
X118684700Y-96955934D01*
X118744768Y-97153954D01*
X118842315Y-97336450D01*
X118842317Y-97336452D01*
X118973589Y-97496410D01*
X119039510Y-97550509D01*
X119133550Y-97627685D01*
X119316046Y-97725232D01*
X119514066Y-97785300D01*
X119514065Y-97785300D01*
X119532529Y-97787118D01*
X119720000Y-97805583D01*
X119925934Y-97785300D01*
X120123954Y-97725232D01*
X120306450Y-97627685D01*
X120466410Y-97496410D01*
X120597685Y-97336450D01*
X120695232Y-97153954D01*
X120755300Y-96955934D01*
X120775583Y-96750000D01*
X120775583Y-96749999D01*
X121204417Y-96749999D01*
X121224699Y-96955932D01*
X121224700Y-96955934D01*
X121284768Y-97153954D01*
X121382315Y-97336450D01*
X121382317Y-97336452D01*
X121513589Y-97496410D01*
X121579510Y-97550509D01*
X121673550Y-97627685D01*
X121856046Y-97725232D01*
X122054066Y-97785300D01*
X122054065Y-97785300D01*
X122072529Y-97787118D01*
X122260000Y-97805583D01*
X122465934Y-97785300D01*
X122663954Y-97725232D01*
X122846450Y-97627685D01*
X123006410Y-97496410D01*
X123137685Y-97336450D01*
X123235232Y-97153954D01*
X123295300Y-96955934D01*
X123315583Y-96750000D01*
X123315583Y-96749999D01*
X123744417Y-96749999D01*
X123764699Y-96955932D01*
X123764700Y-96955934D01*
X123824768Y-97153954D01*
X123922315Y-97336450D01*
X123922317Y-97336452D01*
X124053589Y-97496410D01*
X124119510Y-97550509D01*
X124213550Y-97627685D01*
X124396046Y-97725232D01*
X124594066Y-97785300D01*
X124594065Y-97785300D01*
X124612529Y-97787118D01*
X124800000Y-97805583D01*
X125005934Y-97785300D01*
X125203954Y-97725232D01*
X125386450Y-97627685D01*
X125546410Y-97496410D01*
X125677685Y-97336450D01*
X125775232Y-97153954D01*
X125835300Y-96955934D01*
X125855583Y-96750000D01*
X126284417Y-96750000D01*
X126304699Y-96955932D01*
X126304700Y-96955934D01*
X126364768Y-97153954D01*
X126462315Y-97336450D01*
X126462317Y-97336452D01*
X126593589Y-97496410D01*
X126659510Y-97550509D01*
X126753550Y-97627685D01*
X126936046Y-97725232D01*
X127134066Y-97785300D01*
X127134065Y-97785300D01*
X127154348Y-97787297D01*
X127340000Y-97805583D01*
X127545934Y-97785300D01*
X127743954Y-97725232D01*
X127926450Y-97627685D01*
X128086410Y-97496410D01*
X128217685Y-97336450D01*
X128315232Y-97153954D01*
X128375300Y-96955934D01*
X128395583Y-96750000D01*
X128395583Y-96749999D01*
X131364417Y-96749999D01*
X131384699Y-96955932D01*
X131384700Y-96955934D01*
X131444768Y-97153954D01*
X131542315Y-97336450D01*
X131542317Y-97336452D01*
X131673589Y-97496410D01*
X131739510Y-97550509D01*
X131833550Y-97627685D01*
X132016046Y-97725232D01*
X132214066Y-97785300D01*
X132214065Y-97785300D01*
X132234348Y-97787297D01*
X132420000Y-97805583D01*
X132625934Y-97785300D01*
X132823954Y-97725232D01*
X133006450Y-97627685D01*
X133166410Y-97496410D01*
X133297685Y-97336450D01*
X133395232Y-97153954D01*
X133455300Y-96955934D01*
X133475583Y-96750000D01*
X133475583Y-96749999D01*
X133904417Y-96749999D01*
X133924699Y-96955932D01*
X133924700Y-96955934D01*
X133984768Y-97153954D01*
X134082315Y-97336450D01*
X134082317Y-97336452D01*
X134213589Y-97496410D01*
X134279510Y-97550509D01*
X134373550Y-97627685D01*
X134556046Y-97725232D01*
X134754066Y-97785300D01*
X134754065Y-97785300D01*
X134772529Y-97787118D01*
X134960000Y-97805583D01*
X135165934Y-97785300D01*
X135363954Y-97725232D01*
X135546450Y-97627685D01*
X135706410Y-97496410D01*
X135837685Y-97336450D01*
X135935232Y-97153954D01*
X135995300Y-96955934D01*
X136015583Y-96750000D01*
X136444417Y-96750000D01*
X136464699Y-96955932D01*
X136464700Y-96955934D01*
X136524768Y-97153954D01*
X136622315Y-97336450D01*
X136622317Y-97336452D01*
X136753589Y-97496410D01*
X136819510Y-97550509D01*
X136913550Y-97627685D01*
X137096046Y-97725232D01*
X137294066Y-97785300D01*
X137294065Y-97785300D01*
X137312529Y-97787118D01*
X137500000Y-97805583D01*
X137705934Y-97785300D01*
X137903954Y-97725232D01*
X138086450Y-97627685D01*
X138246410Y-97496410D01*
X138377685Y-97336450D01*
X138475232Y-97153954D01*
X138535300Y-96955934D01*
X138555583Y-96750000D01*
X138555583Y-96749999D01*
X138984417Y-96749999D01*
X139004699Y-96955932D01*
X139004700Y-96955934D01*
X139064768Y-97153954D01*
X139162315Y-97336450D01*
X139162317Y-97336452D01*
X139293589Y-97496410D01*
X139359510Y-97550509D01*
X139453550Y-97627685D01*
X139636046Y-97725232D01*
X139834066Y-97785300D01*
X139834065Y-97785300D01*
X139854348Y-97787297D01*
X140040000Y-97805583D01*
X140245934Y-97785300D01*
X140443954Y-97725232D01*
X140626450Y-97627685D01*
X140786410Y-97496410D01*
X140917685Y-97336450D01*
X141015232Y-97153954D01*
X141075300Y-96955934D01*
X141095583Y-96750000D01*
X141095583Y-96749999D01*
X141524417Y-96749999D01*
X141544699Y-96955932D01*
X141544700Y-96955934D01*
X141604768Y-97153954D01*
X141702315Y-97336450D01*
X141702317Y-97336452D01*
X141833589Y-97496410D01*
X141899510Y-97550509D01*
X141993550Y-97627685D01*
X142176046Y-97725232D01*
X142374066Y-97785300D01*
X142374065Y-97785300D01*
X142392529Y-97787118D01*
X142580000Y-97805583D01*
X142785934Y-97785300D01*
X142983954Y-97725232D01*
X143166450Y-97627685D01*
X143326410Y-97496410D01*
X143457685Y-97336450D01*
X143555232Y-97153954D01*
X143615300Y-96955934D01*
X143635583Y-96750000D01*
X143615300Y-96544066D01*
X143555232Y-96346046D01*
X143457685Y-96163550D01*
X143405702Y-96100209D01*
X143326410Y-96003589D01*
X143176121Y-95880252D01*
X143166450Y-95872315D01*
X142983954Y-95774768D01*
X142785934Y-95714700D01*
X142785932Y-95714699D01*
X142785934Y-95714699D01*
X142580000Y-95694417D01*
X142374067Y-95714699D01*
X142176043Y-95774769D01*
X142065897Y-95833643D01*
X141993550Y-95872315D01*
X141993548Y-95872316D01*
X141993547Y-95872317D01*
X141833589Y-96003589D01*
X141702317Y-96163547D01*
X141702315Y-96163550D01*
X141675725Y-96213296D01*
X141604769Y-96346043D01*
X141544699Y-96544067D01*
X141524417Y-96749999D01*
X141095583Y-96749999D01*
X141075300Y-96544066D01*
X141015232Y-96346046D01*
X140917685Y-96163550D01*
X140865702Y-96100209D01*
X140786410Y-96003589D01*
X140636121Y-95880252D01*
X140626450Y-95872315D01*
X140443954Y-95774768D01*
X140245934Y-95714700D01*
X140245932Y-95714699D01*
X140245934Y-95714699D01*
X140040000Y-95694417D01*
X139834067Y-95714699D01*
X139636043Y-95774769D01*
X139525897Y-95833643D01*
X139453550Y-95872315D01*
X139453548Y-95872316D01*
X139453547Y-95872317D01*
X139293589Y-96003589D01*
X139162317Y-96163547D01*
X139162315Y-96163550D01*
X139135725Y-96213296D01*
X139064769Y-96346043D01*
X139004699Y-96544067D01*
X138984417Y-96749999D01*
X138555583Y-96749999D01*
X138535300Y-96544066D01*
X138475232Y-96346046D01*
X138377685Y-96163550D01*
X138325702Y-96100209D01*
X138246410Y-96003589D01*
X138096121Y-95880252D01*
X138086450Y-95872315D01*
X137903954Y-95774768D01*
X137705934Y-95714700D01*
X137705932Y-95714699D01*
X137705934Y-95714699D01*
X137518463Y-95696235D01*
X137500000Y-95694417D01*
X137499999Y-95694417D01*
X137294067Y-95714699D01*
X137096043Y-95774769D01*
X136985897Y-95833643D01*
X136913550Y-95872315D01*
X136913548Y-95872316D01*
X136913547Y-95872317D01*
X136753589Y-96003589D01*
X136622317Y-96163547D01*
X136622315Y-96163550D01*
X136595725Y-96213296D01*
X136524769Y-96346043D01*
X136464699Y-96544067D01*
X136444417Y-96750000D01*
X136015583Y-96750000D01*
X135995300Y-96544066D01*
X135935232Y-96346046D01*
X135837685Y-96163550D01*
X135785702Y-96100209D01*
X135706410Y-96003589D01*
X135556121Y-95880252D01*
X135546450Y-95872315D01*
X135363954Y-95774768D01*
X135165934Y-95714700D01*
X135165932Y-95714699D01*
X135165934Y-95714699D01*
X134960000Y-95694417D01*
X134754067Y-95714699D01*
X134556043Y-95774769D01*
X134445897Y-95833643D01*
X134373550Y-95872315D01*
X134373548Y-95872316D01*
X134373547Y-95872317D01*
X134213589Y-96003589D01*
X134082317Y-96163547D01*
X134082315Y-96163550D01*
X134055725Y-96213296D01*
X133984769Y-96346043D01*
X133924699Y-96544067D01*
X133904417Y-96749999D01*
X133475583Y-96749999D01*
X133455300Y-96544066D01*
X133395232Y-96346046D01*
X133297685Y-96163550D01*
X133245702Y-96100209D01*
X133166410Y-96003589D01*
X133016121Y-95880252D01*
X133006450Y-95872315D01*
X132823954Y-95774768D01*
X132625934Y-95714700D01*
X132625932Y-95714699D01*
X132625934Y-95714699D01*
X132420000Y-95694417D01*
X132214067Y-95714699D01*
X132016043Y-95774769D01*
X131905897Y-95833643D01*
X131833550Y-95872315D01*
X131833548Y-95872316D01*
X131833547Y-95872317D01*
X131673589Y-96003589D01*
X131542317Y-96163547D01*
X131542315Y-96163550D01*
X131515725Y-96213296D01*
X131444769Y-96346043D01*
X131384699Y-96544067D01*
X131364417Y-96749999D01*
X128395583Y-96749999D01*
X128375300Y-96544066D01*
X128315232Y-96346046D01*
X128217685Y-96163550D01*
X128165702Y-96100209D01*
X128086410Y-96003589D01*
X127936121Y-95880252D01*
X127926450Y-95872315D01*
X127743954Y-95774768D01*
X127545934Y-95714700D01*
X127545932Y-95714699D01*
X127545934Y-95714699D01*
X127340000Y-95694417D01*
X127134067Y-95714699D01*
X126936043Y-95774769D01*
X126825897Y-95833643D01*
X126753550Y-95872315D01*
X126753548Y-95872316D01*
X126753547Y-95872317D01*
X126593589Y-96003589D01*
X126462317Y-96163547D01*
X126462315Y-96163550D01*
X126435725Y-96213296D01*
X126364769Y-96346043D01*
X126304699Y-96544067D01*
X126284417Y-96750000D01*
X125855583Y-96750000D01*
X125835300Y-96544066D01*
X125775232Y-96346046D01*
X125677685Y-96163550D01*
X125625702Y-96100209D01*
X125546410Y-96003589D01*
X125396121Y-95880252D01*
X125386450Y-95872315D01*
X125203954Y-95774768D01*
X125005934Y-95714700D01*
X125005932Y-95714699D01*
X125005934Y-95714699D01*
X124818463Y-95696235D01*
X124800000Y-95694417D01*
X124799999Y-95694417D01*
X124594067Y-95714699D01*
X124396043Y-95774769D01*
X124285897Y-95833643D01*
X124213550Y-95872315D01*
X124213548Y-95872316D01*
X124213547Y-95872317D01*
X124053589Y-96003589D01*
X123922317Y-96163547D01*
X123922315Y-96163550D01*
X123895725Y-96213296D01*
X123824769Y-96346043D01*
X123764699Y-96544067D01*
X123744417Y-96749999D01*
X123315583Y-96749999D01*
X123295300Y-96544066D01*
X123235232Y-96346046D01*
X123137685Y-96163550D01*
X123085702Y-96100209D01*
X123006410Y-96003589D01*
X122856121Y-95880252D01*
X122846450Y-95872315D01*
X122663954Y-95774768D01*
X122465934Y-95714700D01*
X122465932Y-95714699D01*
X122465934Y-95714699D01*
X122260000Y-95694417D01*
X122054067Y-95714699D01*
X121856043Y-95774769D01*
X121745897Y-95833643D01*
X121673550Y-95872315D01*
X121673548Y-95872316D01*
X121673547Y-95872317D01*
X121513589Y-96003589D01*
X121382317Y-96163547D01*
X121382315Y-96163550D01*
X121355725Y-96213296D01*
X121284769Y-96346043D01*
X121224699Y-96544067D01*
X121204417Y-96749999D01*
X120775583Y-96749999D01*
X120755300Y-96544066D01*
X120695232Y-96346046D01*
X120597685Y-96163550D01*
X120545702Y-96100209D01*
X120466410Y-96003589D01*
X120316121Y-95880252D01*
X120306450Y-95872315D01*
X120123954Y-95774768D01*
X119925934Y-95714700D01*
X119925932Y-95714699D01*
X119925934Y-95714699D01*
X119720000Y-95694417D01*
X119514067Y-95714699D01*
X119316043Y-95774769D01*
X119205897Y-95833643D01*
X119133550Y-95872315D01*
X119133548Y-95872316D01*
X119133547Y-95872317D01*
X118973589Y-96003589D01*
X118842317Y-96163547D01*
X118842315Y-96163550D01*
X118815725Y-96213296D01*
X118744769Y-96346043D01*
X118684699Y-96544067D01*
X118664417Y-96750000D01*
X118235583Y-96750000D01*
X118215300Y-96544066D01*
X118155232Y-96346046D01*
X118057685Y-96163550D01*
X118005702Y-96100209D01*
X117926410Y-96003589D01*
X117776121Y-95880252D01*
X117766450Y-95872315D01*
X117583954Y-95774768D01*
X117385934Y-95714700D01*
X117385932Y-95714699D01*
X117385934Y-95714699D01*
X117198463Y-95696235D01*
X117180000Y-95694417D01*
X117179999Y-95694417D01*
X116974067Y-95714699D01*
X116776043Y-95774769D01*
X116665897Y-95833643D01*
X116593550Y-95872315D01*
X116593548Y-95872316D01*
X116593547Y-95872317D01*
X116433589Y-96003589D01*
X116302317Y-96163547D01*
X116302315Y-96163550D01*
X116275725Y-96213296D01*
X116204769Y-96346043D01*
X116144699Y-96544067D01*
X116124417Y-96749999D01*
X115695583Y-96749999D01*
X115675300Y-96544066D01*
X115615232Y-96346046D01*
X115517685Y-96163550D01*
X115465702Y-96100209D01*
X115386410Y-96003589D01*
X115236121Y-95880252D01*
X115226450Y-95872315D01*
X115043954Y-95774768D01*
X114845934Y-95714700D01*
X114845932Y-95714699D01*
X114845934Y-95714699D01*
X114658463Y-95696235D01*
X114640000Y-95694417D01*
X114639999Y-95694417D01*
X114434067Y-95714699D01*
X114236043Y-95774769D01*
X114125897Y-95833643D01*
X114053550Y-95872315D01*
X114053548Y-95872316D01*
X114053547Y-95872317D01*
X113893589Y-96003589D01*
X113762317Y-96163547D01*
X113762315Y-96163550D01*
X113735725Y-96213296D01*
X113664769Y-96346043D01*
X113604699Y-96544067D01*
X113584417Y-96749999D01*
X113155583Y-96749999D01*
X113135300Y-96544066D01*
X113075232Y-96346046D01*
X112977685Y-96163550D01*
X112925702Y-96100209D01*
X112846410Y-96003589D01*
X112696121Y-95880252D01*
X112686450Y-95872315D01*
X112503954Y-95774768D01*
X112305934Y-95714700D01*
X112305932Y-95714699D01*
X112305934Y-95714699D01*
X112100000Y-95694417D01*
X111894067Y-95714699D01*
X111696043Y-95774769D01*
X111585897Y-95833643D01*
X111513550Y-95872315D01*
X111513548Y-95872316D01*
X111513547Y-95872317D01*
X111353589Y-96003589D01*
X111222317Y-96163547D01*
X111222315Y-96163550D01*
X111195725Y-96213296D01*
X111124769Y-96346043D01*
X111064699Y-96544067D01*
X111044417Y-96749999D01*
X108075583Y-96749999D01*
X108055300Y-96544066D01*
X107995232Y-96346046D01*
X107897685Y-96163550D01*
X107845702Y-96100209D01*
X107766410Y-96003589D01*
X107616121Y-95880252D01*
X107606450Y-95872315D01*
X107423954Y-95774768D01*
X107225934Y-95714700D01*
X107225932Y-95714699D01*
X107225934Y-95714699D01*
X107020000Y-95694417D01*
X106814067Y-95714699D01*
X106616043Y-95774769D01*
X106505897Y-95833643D01*
X106433550Y-95872315D01*
X106433548Y-95872316D01*
X106433547Y-95872317D01*
X106273589Y-96003589D01*
X106142317Y-96163547D01*
X106142315Y-96163550D01*
X106115725Y-96213296D01*
X106044769Y-96346043D01*
X105984699Y-96544067D01*
X105964417Y-96750000D01*
X105535583Y-96750000D01*
X105515300Y-96544066D01*
X105455232Y-96346046D01*
X105357685Y-96163550D01*
X105305702Y-96100209D01*
X105226410Y-96003589D01*
X105076121Y-95880252D01*
X105066450Y-95872315D01*
X104883954Y-95774768D01*
X104685934Y-95714700D01*
X104685932Y-95714699D01*
X104685934Y-95714699D01*
X104480000Y-95694417D01*
X104274067Y-95714699D01*
X104076043Y-95774769D01*
X103965897Y-95833643D01*
X103893550Y-95872315D01*
X103893548Y-95872316D01*
X103893547Y-95872317D01*
X103733589Y-96003589D01*
X103602317Y-96163547D01*
X103602315Y-96163550D01*
X103575725Y-96213296D01*
X103504769Y-96346043D01*
X103444699Y-96544067D01*
X103424417Y-96749999D01*
X103444699Y-96955932D01*
X103444700Y-96955934D01*
X103504768Y-97153954D01*
X103602315Y-97336450D01*
X103602317Y-97336452D01*
X103733587Y-97496407D01*
X103733588Y-97496408D01*
X103733590Y-97496410D01*
X103893550Y-97627685D01*
X103893551Y-97627685D01*
X103895940Y-97629646D01*
X103935274Y-97687392D01*
X103937145Y-97757237D01*
X103900958Y-97817005D01*
X103838202Y-97847721D01*
X103817275Y-97849500D01*
X103657254Y-97849500D01*
X103590215Y-97829815D01*
X103569573Y-97813181D01*
X102966649Y-97210256D01*
X102933164Y-97148933D01*
X102935669Y-97086580D01*
X102975300Y-96955934D01*
X102995583Y-96750000D01*
X102975300Y-96544066D01*
X102915232Y-96346046D01*
X102817685Y-96163550D01*
X102765702Y-96100209D01*
X102686410Y-96003589D01*
X102536121Y-95880252D01*
X102526450Y-95872315D01*
X102343954Y-95774768D01*
X102145934Y-95714700D01*
X102145932Y-95714699D01*
X102145934Y-95714699D01*
X101958463Y-95696235D01*
X101940000Y-95694417D01*
X101939999Y-95694417D01*
X101734067Y-95714699D01*
X101536043Y-95774769D01*
X101425897Y-95833643D01*
X101353550Y-95872315D01*
X101353548Y-95872316D01*
X101353547Y-95872317D01*
X101193589Y-96003589D01*
X101062317Y-96163547D01*
X101062315Y-96163550D01*
X101035725Y-96213296D01*
X100964769Y-96346043D01*
X100904699Y-96544067D01*
X100884417Y-96750000D01*
X100450500Y-96750000D01*
X100450500Y-95880249D01*
X100450499Y-95880247D01*
X100438868Y-95821770D01*
X100438867Y-95821769D01*
X100394552Y-95755447D01*
X100328230Y-95711132D01*
X100328229Y-95711131D01*
X100269752Y-95699500D01*
X100269748Y-95699500D01*
X98530252Y-95699500D01*
X98530247Y-95699500D01*
X98471770Y-95711131D01*
X98471769Y-95711132D01*
X98405447Y-95755447D01*
X98361132Y-95821769D01*
X98361131Y-95821770D01*
X98349500Y-95880247D01*
X98349500Y-95880251D01*
X98349500Y-95880252D01*
X98349500Y-97194752D01*
X98050499Y-97194752D01*
X98050499Y-94268064D01*
X98070184Y-94201026D01*
X98086813Y-94180389D01*
X98133280Y-94133922D01*
X98194601Y-94100439D01*
X98264293Y-94105423D01*
X98320226Y-94147295D01*
X98344362Y-94209450D01*
X98364699Y-94415932D01*
X98394733Y-94514944D01*
X98424768Y-94613954D01*
X98522315Y-94796450D01*
X98522317Y-94796452D01*
X98653589Y-94956410D01*
X98707314Y-95000500D01*
X98813550Y-95087685D01*
X98996046Y-95185232D01*
X99194066Y-95245300D01*
X99194065Y-95245300D01*
X99214348Y-95247297D01*
X99400000Y-95265583D01*
X99605934Y-95245300D01*
X99803954Y-95185232D01*
X99986450Y-95087685D01*
X100146410Y-94956410D01*
X100277685Y-94796450D01*
X100375232Y-94613954D01*
X100435300Y-94415934D01*
X100455583Y-94210000D01*
X100884417Y-94210000D01*
X100904699Y-94415932D01*
X100934733Y-94514944D01*
X100964768Y-94613954D01*
X101062315Y-94796450D01*
X101062317Y-94796452D01*
X101193589Y-94956410D01*
X101247314Y-95000500D01*
X101353550Y-95087685D01*
X101536046Y-95185232D01*
X101734066Y-95245300D01*
X101734065Y-95245300D01*
X101752529Y-95247118D01*
X101940000Y-95265583D01*
X102145934Y-95245300D01*
X102343954Y-95185232D01*
X102526450Y-95087685D01*
X102686410Y-94956410D01*
X102817685Y-94796450D01*
X102915232Y-94613954D01*
X102975300Y-94415934D01*
X102995583Y-94210000D01*
X102995583Y-94209999D01*
X105964417Y-94209999D01*
X105984699Y-94415932D01*
X106014733Y-94514944D01*
X106044768Y-94613954D01*
X106142315Y-94796450D01*
X106142317Y-94796452D01*
X106273589Y-94956410D01*
X106327314Y-95000500D01*
X106433550Y-95087685D01*
X106616046Y-95185232D01*
X106814066Y-95245300D01*
X106814065Y-95245300D01*
X106834348Y-95247297D01*
X107020000Y-95265583D01*
X107225934Y-95245300D01*
X107423954Y-95185232D01*
X107606450Y-95087685D01*
X107766410Y-94956410D01*
X107897685Y-94796450D01*
X107995232Y-94613954D01*
X108055300Y-94415934D01*
X108075583Y-94210000D01*
X108504417Y-94210000D01*
X108524699Y-94415932D01*
X108554733Y-94514944D01*
X108584768Y-94613954D01*
X108682315Y-94796450D01*
X108682317Y-94796452D01*
X108813589Y-94956410D01*
X108867314Y-95000500D01*
X108973550Y-95087685D01*
X109156046Y-95185232D01*
X109354066Y-95245300D01*
X109354065Y-95245300D01*
X109374347Y-95247297D01*
X109560000Y-95265583D01*
X109765934Y-95245300D01*
X109963954Y-95185232D01*
X110146450Y-95087685D01*
X110306410Y-94956410D01*
X110437685Y-94796450D01*
X110535232Y-94613954D01*
X110595300Y-94415934D01*
X110615583Y-94210000D01*
X111044417Y-94210000D01*
X111064699Y-94415932D01*
X111094733Y-94514944D01*
X111124768Y-94613954D01*
X111222315Y-94796450D01*
X111222317Y-94796452D01*
X111353589Y-94956410D01*
X111407314Y-95000500D01*
X111513550Y-95087685D01*
X111696046Y-95185232D01*
X111894066Y-95245300D01*
X111894065Y-95245300D01*
X111914347Y-95247297D01*
X112100000Y-95265583D01*
X112305934Y-95245300D01*
X112503954Y-95185232D01*
X112686450Y-95087685D01*
X112846410Y-94956410D01*
X112977685Y-94796450D01*
X113075232Y-94613954D01*
X113135300Y-94415934D01*
X113155583Y-94210000D01*
X116124417Y-94210000D01*
X116144699Y-94415932D01*
X116174733Y-94514944D01*
X116204768Y-94613954D01*
X116302315Y-94796450D01*
X116302317Y-94796452D01*
X116433589Y-94956410D01*
X116487314Y-95000500D01*
X116593550Y-95087685D01*
X116776046Y-95185232D01*
X116974066Y-95245300D01*
X116974065Y-95245300D01*
X116992529Y-95247118D01*
X117180000Y-95265583D01*
X117385934Y-95245300D01*
X117583954Y-95185232D01*
X117766450Y-95087685D01*
X117926410Y-94956410D01*
X118057685Y-94796450D01*
X118155232Y-94613954D01*
X118215300Y-94415934D01*
X118235583Y-94210000D01*
X118664417Y-94210000D01*
X118684699Y-94415932D01*
X118714733Y-94514944D01*
X118744768Y-94613954D01*
X118842315Y-94796450D01*
X118842317Y-94796452D01*
X118973589Y-94956410D01*
X119027314Y-95000500D01*
X119133550Y-95087685D01*
X119316046Y-95185232D01*
X119514066Y-95245300D01*
X119514065Y-95245300D01*
X119534348Y-95247297D01*
X119720000Y-95265583D01*
X119925934Y-95245300D01*
X120123954Y-95185232D01*
X120306450Y-95087685D01*
X120466410Y-94956410D01*
X120597685Y-94796450D01*
X120695232Y-94613954D01*
X120755300Y-94415934D01*
X120775583Y-94210000D01*
X123744417Y-94210000D01*
X123764699Y-94415932D01*
X123794733Y-94514944D01*
X123824768Y-94613954D01*
X123922315Y-94796450D01*
X123922317Y-94796452D01*
X124053589Y-94956410D01*
X124107314Y-95000500D01*
X124213550Y-95087685D01*
X124396046Y-95185232D01*
X124594066Y-95245300D01*
X124594065Y-95245300D01*
X124612529Y-95247118D01*
X124800000Y-95265583D01*
X125005934Y-95245300D01*
X125203954Y-95185232D01*
X125386450Y-95087685D01*
X125546410Y-94956410D01*
X125677685Y-94796450D01*
X125775232Y-94613954D01*
X125835300Y-94415934D01*
X125855583Y-94210000D01*
X126284417Y-94210000D01*
X126304699Y-94415932D01*
X126334733Y-94514944D01*
X126364768Y-94613954D01*
X126462315Y-94796450D01*
X126462317Y-94796452D01*
X126593589Y-94956410D01*
X126647314Y-95000500D01*
X126753550Y-95087685D01*
X126936046Y-95185232D01*
X127134066Y-95245300D01*
X127134065Y-95245300D01*
X127152529Y-95247118D01*
X127340000Y-95265583D01*
X127545934Y-95245300D01*
X127743954Y-95185232D01*
X127926450Y-95087685D01*
X128086410Y-94956410D01*
X128217685Y-94796450D01*
X128315232Y-94613954D01*
X128375300Y-94415934D01*
X128395583Y-94210000D01*
X128824417Y-94210000D01*
X128844699Y-94415932D01*
X128874733Y-94514944D01*
X128904768Y-94613954D01*
X129002315Y-94796450D01*
X129002317Y-94796452D01*
X129133589Y-94956410D01*
X129187314Y-95000500D01*
X129293550Y-95087685D01*
X129476046Y-95185232D01*
X129674066Y-95245300D01*
X129674065Y-95245300D01*
X129692529Y-95247118D01*
X129880000Y-95265583D01*
X130085934Y-95245300D01*
X130283954Y-95185232D01*
X130466450Y-95087685D01*
X130626410Y-94956410D01*
X130757685Y-94796450D01*
X130855232Y-94613954D01*
X130915300Y-94415934D01*
X130935583Y-94210000D01*
X130935583Y-94209999D01*
X131364417Y-94209999D01*
X131384699Y-94415932D01*
X131414733Y-94514944D01*
X131444768Y-94613954D01*
X131542315Y-94796450D01*
X131542317Y-94796452D01*
X131673589Y-94956410D01*
X131727314Y-95000500D01*
X131833550Y-95087685D01*
X132016046Y-95185232D01*
X132214066Y-95245300D01*
X132214065Y-95245300D01*
X132234347Y-95247297D01*
X132420000Y-95265583D01*
X132625934Y-95245300D01*
X132823954Y-95185232D01*
X133006450Y-95087685D01*
X133166410Y-94956410D01*
X133297685Y-94796450D01*
X133395232Y-94613954D01*
X133455300Y-94415934D01*
X133475583Y-94210000D01*
X136444417Y-94210000D01*
X136464699Y-94415932D01*
X136494733Y-94514944D01*
X136524768Y-94613954D01*
X136622315Y-94796450D01*
X136622317Y-94796452D01*
X136753589Y-94956410D01*
X136807314Y-95000500D01*
X136913550Y-95087685D01*
X137096046Y-95185232D01*
X137294066Y-95245300D01*
X137294065Y-95245300D01*
X137312529Y-95247118D01*
X137500000Y-95265583D01*
X137705934Y-95245300D01*
X137903954Y-95185232D01*
X138086450Y-95087685D01*
X138246410Y-94956410D01*
X138377685Y-94796450D01*
X138475232Y-94613954D01*
X138535300Y-94415934D01*
X138555583Y-94210000D01*
X138535300Y-94004066D01*
X138475232Y-93806046D01*
X138377685Y-93623550D01*
X138267157Y-93488870D01*
X138246410Y-93463589D01*
X138117434Y-93357743D01*
X138086450Y-93332315D01*
X137903954Y-93234768D01*
X137705934Y-93174700D01*
X137705932Y-93174699D01*
X137705934Y-93174699D01*
X137500000Y-93154417D01*
X137294067Y-93174699D01*
X137096043Y-93234769D01*
X137017734Y-93276627D01*
X136913550Y-93332315D01*
X136913548Y-93332316D01*
X136913547Y-93332317D01*
X136753589Y-93463589D01*
X136622317Y-93623547D01*
X136524769Y-93806043D01*
X136464699Y-94004067D01*
X136444417Y-94210000D01*
X133475583Y-94210000D01*
X133455300Y-94004066D01*
X133395232Y-93806046D01*
X133297685Y-93623550D01*
X133187157Y-93488870D01*
X133166410Y-93463589D01*
X133037434Y-93357743D01*
X133006450Y-93332315D01*
X132823954Y-93234768D01*
X132625934Y-93174700D01*
X132625932Y-93174699D01*
X132625934Y-93174699D01*
X132438463Y-93156235D01*
X132420000Y-93154417D01*
X132419999Y-93154417D01*
X132214067Y-93174699D01*
X132016043Y-93234769D01*
X131937734Y-93276627D01*
X131833550Y-93332315D01*
X131833548Y-93332316D01*
X131833547Y-93332317D01*
X131673589Y-93463589D01*
X131542317Y-93623547D01*
X131444769Y-93806043D01*
X131384699Y-94004067D01*
X131364417Y-94209999D01*
X130935583Y-94209999D01*
X130915300Y-94004066D01*
X130855232Y-93806046D01*
X130757685Y-93623550D01*
X130647157Y-93488870D01*
X130626410Y-93463589D01*
X130497434Y-93357743D01*
X130466450Y-93332315D01*
X130283954Y-93234768D01*
X130085934Y-93174700D01*
X130085932Y-93174699D01*
X130085934Y-93174699D01*
X129898463Y-93156235D01*
X129880000Y-93154417D01*
X129879999Y-93154417D01*
X129674067Y-93174699D01*
X129476043Y-93234769D01*
X129397734Y-93276627D01*
X129293550Y-93332315D01*
X129293548Y-93332316D01*
X129293547Y-93332317D01*
X129133589Y-93463589D01*
X129002317Y-93623547D01*
X128904769Y-93806043D01*
X128844699Y-94004067D01*
X128824417Y-94210000D01*
X128395583Y-94210000D01*
X128375300Y-94004066D01*
X128315232Y-93806046D01*
X128217685Y-93623550D01*
X128107157Y-93488870D01*
X128086410Y-93463589D01*
X127957434Y-93357743D01*
X127926450Y-93332315D01*
X127743954Y-93234768D01*
X127545934Y-93174700D01*
X127545932Y-93174699D01*
X127545934Y-93174699D01*
X127358463Y-93156235D01*
X127340000Y-93154417D01*
X127339999Y-93154417D01*
X127134067Y-93174699D01*
X126936043Y-93234769D01*
X126857734Y-93276627D01*
X126753550Y-93332315D01*
X126753548Y-93332316D01*
X126753547Y-93332317D01*
X126593589Y-93463589D01*
X126462317Y-93623547D01*
X126364769Y-93806043D01*
X126304699Y-94004067D01*
X126284417Y-94210000D01*
X125855583Y-94210000D01*
X125835300Y-94004066D01*
X125775232Y-93806046D01*
X125677685Y-93623550D01*
X125567157Y-93488870D01*
X125546410Y-93463589D01*
X125417434Y-93357743D01*
X125386450Y-93332315D01*
X125203954Y-93234768D01*
X125005934Y-93174700D01*
X125005932Y-93174699D01*
X125005934Y-93174699D01*
X124800000Y-93154417D01*
X124594067Y-93174699D01*
X124396043Y-93234769D01*
X124317734Y-93276627D01*
X124213550Y-93332315D01*
X124213548Y-93332316D01*
X124213547Y-93332317D01*
X124053589Y-93463589D01*
X123922317Y-93623547D01*
X123824769Y-93806043D01*
X123764699Y-94004067D01*
X123744417Y-94210000D01*
X120775583Y-94210000D01*
X120755300Y-94004066D01*
X120695232Y-93806046D01*
X120597685Y-93623550D01*
X120487157Y-93488870D01*
X120466410Y-93463589D01*
X120337434Y-93357743D01*
X120306450Y-93332315D01*
X120123954Y-93234768D01*
X119925934Y-93174700D01*
X119925932Y-93174699D01*
X119925934Y-93174699D01*
X119738463Y-93156235D01*
X119720000Y-93154417D01*
X119719999Y-93154417D01*
X119514067Y-93174699D01*
X119316043Y-93234769D01*
X119237734Y-93276627D01*
X119133550Y-93332315D01*
X119133548Y-93332316D01*
X119133547Y-93332317D01*
X118973589Y-93463589D01*
X118842317Y-93623547D01*
X118744769Y-93806043D01*
X118684699Y-94004067D01*
X118664417Y-94210000D01*
X118235583Y-94210000D01*
X118215300Y-94004066D01*
X118155232Y-93806046D01*
X118057685Y-93623550D01*
X117947157Y-93488870D01*
X117926410Y-93463589D01*
X117797434Y-93357743D01*
X117766450Y-93332315D01*
X117583954Y-93234768D01*
X117385934Y-93174700D01*
X117385932Y-93174699D01*
X117385934Y-93174699D01*
X117198463Y-93156235D01*
X117180000Y-93154417D01*
X117179999Y-93154417D01*
X116974067Y-93174699D01*
X116776043Y-93234769D01*
X116697734Y-93276627D01*
X116593550Y-93332315D01*
X116593548Y-93332316D01*
X116593547Y-93332317D01*
X116433589Y-93463589D01*
X116302317Y-93623547D01*
X116204769Y-93806043D01*
X116144699Y-94004067D01*
X116124417Y-94210000D01*
X113155583Y-94210000D01*
X113135300Y-94004066D01*
X113075232Y-93806046D01*
X112977685Y-93623550D01*
X112867157Y-93488870D01*
X112846410Y-93463589D01*
X112717434Y-93357743D01*
X112686450Y-93332315D01*
X112503954Y-93234768D01*
X112305934Y-93174700D01*
X112305932Y-93174699D01*
X112305934Y-93174699D01*
X112100000Y-93154417D01*
X111894067Y-93174699D01*
X111696043Y-93234769D01*
X111617734Y-93276627D01*
X111513550Y-93332315D01*
X111513548Y-93332316D01*
X111513547Y-93332317D01*
X111353589Y-93463589D01*
X111222317Y-93623547D01*
X111124769Y-93806043D01*
X111064699Y-94004067D01*
X111044417Y-94210000D01*
X110615583Y-94210000D01*
X110595300Y-94004066D01*
X110535232Y-93806046D01*
X110437685Y-93623550D01*
X110327157Y-93488870D01*
X110306410Y-93463589D01*
X110177434Y-93357743D01*
X110146450Y-93332315D01*
X109963954Y-93234768D01*
X109765934Y-93174700D01*
X109765932Y-93174699D01*
X109765934Y-93174699D01*
X109578463Y-93156235D01*
X109560000Y-93154417D01*
X109559999Y-93154417D01*
X109354067Y-93174699D01*
X109156043Y-93234769D01*
X109077734Y-93276627D01*
X108973550Y-93332315D01*
X108973548Y-93332316D01*
X108973547Y-93332317D01*
X108813589Y-93463589D01*
X108682317Y-93623547D01*
X108584769Y-93806043D01*
X108524699Y-94004067D01*
X108504417Y-94210000D01*
X108075583Y-94210000D01*
X108055300Y-94004066D01*
X107995232Y-93806046D01*
X107897685Y-93623550D01*
X107787157Y-93488870D01*
X107766410Y-93463589D01*
X107637434Y-93357743D01*
X107606450Y-93332315D01*
X107423954Y-93234768D01*
X107225934Y-93174700D01*
X107225932Y-93174699D01*
X107225934Y-93174699D01*
X107020000Y-93154417D01*
X106814067Y-93174699D01*
X106616043Y-93234769D01*
X106537734Y-93276627D01*
X106433550Y-93332315D01*
X106433548Y-93332316D01*
X106433547Y-93332317D01*
X106273589Y-93463589D01*
X106142317Y-93623547D01*
X106044769Y-93806043D01*
X105984699Y-94004067D01*
X105964417Y-94209999D01*
X102995583Y-94209999D01*
X102975300Y-94004066D01*
X102915232Y-93806046D01*
X102817685Y-93623550D01*
X102707157Y-93488870D01*
X102686410Y-93463589D01*
X102557434Y-93357743D01*
X102526450Y-93332315D01*
X102343954Y-93234768D01*
X102145934Y-93174700D01*
X102145932Y-93174699D01*
X102145934Y-93174699D01*
X101940000Y-93154417D01*
X101734067Y-93174699D01*
X101536043Y-93234769D01*
X101457734Y-93276627D01*
X101353550Y-93332315D01*
X101353548Y-93332316D01*
X101353547Y-93332317D01*
X101193589Y-93463589D01*
X101062317Y-93623547D01*
X100964769Y-93806043D01*
X100904699Y-94004067D01*
X100884417Y-94210000D01*
X100455583Y-94210000D01*
X100435300Y-94004066D01*
X100375232Y-93806046D01*
X100277685Y-93623550D01*
X100167157Y-93488870D01*
X100146410Y-93463589D01*
X100017434Y-93357743D01*
X99986450Y-93332315D01*
X99803954Y-93234768D01*
X99605934Y-93174700D01*
X99605932Y-93174699D01*
X99605934Y-93174699D01*
X99399452Y-93154363D01*
X99334665Y-93128202D01*
X99294306Y-93071168D01*
X99291189Y-93001367D01*
X99323922Y-92943281D01*
X99430388Y-92836816D01*
X99491709Y-92803334D01*
X99518067Y-92800500D01*
X142788050Y-92800500D01*
X142855089Y-92820185D01*
X142875731Y-92836819D01*
X143049794Y-93010882D01*
X143083279Y-93072205D01*
X143078295Y-93141897D01*
X143036423Y-93197830D01*
X142970959Y-93222247D01*
X142926118Y-93217224D01*
X142862184Y-93197830D01*
X142785934Y-93174700D01*
X142785932Y-93174699D01*
X142785934Y-93174699D01*
X142580000Y-93154417D01*
X142374067Y-93174699D01*
X142176043Y-93234769D01*
X142097734Y-93276627D01*
X141993550Y-93332315D01*
X141993548Y-93332316D01*
X141993547Y-93332317D01*
X141833589Y-93463589D01*
X141702317Y-93623547D01*
X141604769Y-93806043D01*
X141544699Y-94004067D01*
X141524417Y-94210000D01*
X141544699Y-94415932D01*
X141574733Y-94514944D01*
X141604768Y-94613954D01*
X141702315Y-94796450D01*
X141702317Y-94796452D01*
X141833589Y-94956410D01*
X141887314Y-95000500D01*
X141993550Y-95087685D01*
X142176046Y-95185232D01*
X142374066Y-95245300D01*
X142374065Y-95245300D01*
X142394348Y-95247297D01*
X142580000Y-95265583D01*
X142785934Y-95245300D01*
X142983954Y-95185232D01*
X143166450Y-95087685D01*
X143326410Y-94956410D01*
X143326410Y-94956409D01*
X143326835Y-94956061D01*
X143391145Y-94928748D01*
X143460013Y-94940539D01*
X143511573Y-94987691D01*
X143529500Y-95051914D01*
X143529500Y-95397158D01*
X143528905Y-95405732D01*
X143527227Y-95417763D01*
X143529434Y-95465509D01*
X143529500Y-95468372D01*
X143529500Y-95487845D01*
X143529993Y-95490482D01*
X143530982Y-95499015D01*
X143532415Y-95529991D01*
X143532416Y-95529997D01*
X143535214Y-95536334D01*
X143543664Y-95563620D01*
X143544937Y-95570429D01*
X143544937Y-95570430D01*
X143561260Y-95596793D01*
X143565263Y-95604386D01*
X143577794Y-95632765D01*
X143577795Y-95632766D01*
X143577796Y-95632768D01*
X143582689Y-95637661D01*
X143600435Y-95660065D01*
X143604077Y-95665948D01*
X143604080Y-95665951D01*
X143628826Y-95684639D01*
X143635311Y-95690282D01*
X144130701Y-96185672D01*
X144164186Y-96246995D01*
X144159202Y-96316687D01*
X144152381Y-96331800D01*
X144144770Y-96346039D01*
X144084699Y-96544067D01*
X144064417Y-96750000D01*
X144084699Y-96955932D01*
X144084700Y-96955934D01*
X144144768Y-97153954D01*
X144242315Y-97336450D01*
X144242317Y-97336452D01*
X144373589Y-97496410D01*
X144439510Y-97550509D01*
X144533550Y-97627685D01*
X144716046Y-97725232D01*
X144914066Y-97785300D01*
X144914065Y-97785300D01*
X144932529Y-97787118D01*
X145120000Y-97805583D01*
X145325934Y-97785300D01*
X145523954Y-97725232D01*
X145706450Y-97627685D01*
X145866410Y-97496410D01*
X145997685Y-97336450D01*
X146095232Y-97153954D01*
X146155300Y-96955934D01*
X146175583Y-96750000D01*
X146155300Y-96544066D01*
X146095232Y-96346046D01*
X145997685Y-96163550D01*
X145945702Y-96100209D01*
X145866410Y-96003589D01*
X145716121Y-95880252D01*
X145706450Y-95872315D01*
X145523954Y-95774768D01*
X145325934Y-95714700D01*
X145325932Y-95714699D01*
X145325934Y-95714699D01*
X145120000Y-95694417D01*
X144914067Y-95714699D01*
X144716042Y-95774769D01*
X144701804Y-95782380D01*
X144633400Y-95796620D01*
X144568157Y-95771617D01*
X144555673Y-95760701D01*
X144166819Y-95371847D01*
X144133334Y-95310524D01*
X144130500Y-95284166D01*
X144130500Y-95006761D01*
X144150185Y-94939722D01*
X144202989Y-94893967D01*
X144272147Y-94884023D01*
X144335703Y-94913048D01*
X144350354Y-94928097D01*
X144373589Y-94956410D01*
X144427314Y-95000500D01*
X144533550Y-95087685D01*
X144716046Y-95185232D01*
X144914066Y-95245300D01*
X144914065Y-95245300D01*
X144932529Y-95247118D01*
X145120000Y-95265583D01*
X145325934Y-95245300D01*
X145523954Y-95185232D01*
X145706450Y-95087685D01*
X145866410Y-94956410D01*
X145997685Y-94796450D01*
X146095232Y-94613954D01*
X146155300Y-94415934D01*
X146175583Y-94210000D01*
X146604417Y-94210000D01*
X146624699Y-94415932D01*
X146654733Y-94514944D01*
X146684768Y-94613954D01*
X146782315Y-94796450D01*
X146782317Y-94796452D01*
X146913589Y-94956410D01*
X146967314Y-95000500D01*
X147073550Y-95087685D01*
X147256046Y-95185232D01*
X147454066Y-95245300D01*
X147454065Y-95245300D01*
X147472529Y-95247118D01*
X147660000Y-95265583D01*
X147865934Y-95245300D01*
X148063954Y-95185232D01*
X148246450Y-95087685D01*
X148406410Y-94956410D01*
X148537685Y-94796450D01*
X148635232Y-94613954D01*
X148695300Y-94415934D01*
X148715583Y-94210000D01*
X148695300Y-94004066D01*
X148635232Y-93806046D01*
X148537685Y-93623550D01*
X148427157Y-93488870D01*
X148406410Y-93463589D01*
X148277434Y-93357743D01*
X148246450Y-93332315D01*
X148063954Y-93234768D01*
X147865934Y-93174700D01*
X147865932Y-93174699D01*
X147865934Y-93174699D01*
X147660000Y-93154417D01*
X147454067Y-93174699D01*
X147256043Y-93234769D01*
X147177734Y-93276627D01*
X147073550Y-93332315D01*
X147073548Y-93332316D01*
X147073547Y-93332317D01*
X146913589Y-93463589D01*
X146782317Y-93623547D01*
X146684769Y-93806043D01*
X146624699Y-94004067D01*
X146604417Y-94210000D01*
X146175583Y-94210000D01*
X146155300Y-94004066D01*
X146095232Y-93806046D01*
X145997685Y-93623550D01*
X145887157Y-93488870D01*
X145866410Y-93463589D01*
X145737434Y-93357743D01*
X145706450Y-93332315D01*
X145523954Y-93234768D01*
X145325934Y-93174700D01*
X145325932Y-93174699D01*
X145325934Y-93174699D01*
X145120000Y-93154417D01*
X144914067Y-93174699D01*
X144716043Y-93234769D01*
X144637734Y-93276627D01*
X144533550Y-93332315D01*
X144533548Y-93332316D01*
X144533547Y-93332317D01*
X144373587Y-93463591D01*
X144352841Y-93488870D01*
X144295094Y-93528203D01*
X144225250Y-93530072D01*
X144165482Y-93493883D01*
X144134768Y-93431126D01*
X144133122Y-93415926D01*
X144132772Y-93408354D01*
X144132773Y-93408352D01*
X144130566Y-93360605D01*
X144130500Y-93357743D01*
X144130500Y-93338276D01*
X144130499Y-93338270D01*
X144130009Y-93335650D01*
X144129016Y-93327097D01*
X144128648Y-93319137D01*
X144127585Y-93296125D01*
X144124786Y-93289787D01*
X144116333Y-93262490D01*
X144115061Y-93255684D01*
X144098740Y-93229324D01*
X144094734Y-93221725D01*
X144082206Y-93193351D01*
X144077308Y-93188453D01*
X144059561Y-93166048D01*
X144055919Y-93160165D01*
X144048307Y-93154417D01*
X144031176Y-93141480D01*
X144024692Y-93135837D01*
X143689355Y-92800500D01*
X143350534Y-92461680D01*
X143317050Y-92400358D01*
X143322034Y-92330667D01*
X143363905Y-92274733D01*
X143429370Y-92250316D01*
X143438216Y-92250000D01*
X151359494Y-92250000D01*
X151426533Y-92269685D01*
G37*
%TD.AperFunction*%
%TA.AperFunction,Conductor*%
G36*
X91455203Y-96546793D02*
G01*
X91488560Y-96593051D01*
X91550500Y-96742586D01*
X91611905Y-96890831D01*
X91785790Y-97205454D01*
X91993805Y-97498622D01*
X91993806Y-97498623D01*
X92233339Y-97766661D01*
X92468293Y-97976628D01*
X92501377Y-98006194D01*
X92761271Y-98190600D01*
X92794548Y-98214211D01*
X93109167Y-98388094D01*
X93441276Y-98525659D01*
X93786700Y-98625173D01*
X94141093Y-98685387D01*
X94410202Y-98700500D01*
X94410210Y-98700500D01*
X94511831Y-98700500D01*
X94531924Y-98706400D01*
X94541803Y-98701838D01*
X94559968Y-98700500D01*
X94589790Y-98700500D01*
X94589798Y-98700500D01*
X94858907Y-98685387D01*
X95213300Y-98625173D01*
X95558724Y-98525659D01*
X95890833Y-98388094D01*
X96205452Y-98214211D01*
X96498623Y-98006194D01*
X96766661Y-97766661D01*
X97006194Y-97498623D01*
X97214211Y-97205452D01*
X97216971Y-97200457D01*
X97266628Y-97151304D01*
X97334976Y-97136800D01*
X97400315Y-97161549D01*
X97441901Y-97217695D01*
X97449500Y-97260437D01*
X97449500Y-97824167D01*
X97429815Y-97891206D01*
X97413181Y-97911848D01*
X96411848Y-98913181D01*
X96350525Y-98946666D01*
X96324167Y-98949500D01*
X94562840Y-98949500D01*
X94554266Y-98948905D01*
X94542840Y-98947311D01*
X94537708Y-98944993D01*
X94517557Y-98948367D01*
X94505936Y-98948905D01*
X94494490Y-98949434D01*
X94491627Y-98949500D01*
X94472156Y-98949500D01*
X94472151Y-98949500D01*
X94472149Y-98949501D01*
X94469515Y-98949993D01*
X94460985Y-98950982D01*
X94430006Y-98952415D01*
X94430004Y-98952415D01*
X94423658Y-98955217D01*
X94396385Y-98963663D01*
X94389570Y-98964937D01*
X94389566Y-98964939D01*
X94363204Y-98981261D01*
X94355603Y-98985267D01*
X94327234Y-98997793D01*
X94322329Y-99002698D01*
X94299939Y-99020433D01*
X94294049Y-99024080D01*
X94294044Y-99024084D01*
X94275363Y-99048822D01*
X94269721Y-99055305D01*
X92831948Y-100493080D01*
X92825464Y-100498722D01*
X92815768Y-100506044D01*
X92783559Y-100541374D01*
X92781585Y-100543442D01*
X92767827Y-100557200D01*
X92767822Y-100557206D01*
X92766306Y-100559420D01*
X92760976Y-100566148D01*
X92740083Y-100589066D01*
X92734036Y-100598834D01*
X92733020Y-100598205D01*
X92697549Y-100644361D01*
X92631781Y-100667948D01*
X92563701Y-100652234D01*
X92514925Y-100602208D01*
X92500500Y-100544162D01*
X92500500Y-100522662D01*
X92500539Y-100500002D01*
X92500541Y-100500000D01*
X92500540Y-100499997D01*
X92500500Y-100499899D01*
X92500384Y-100499619D01*
X92500383Y-100499618D01*
X92500383Y-100499617D01*
X92500381Y-100499616D01*
X92483252Y-100482430D01*
X92482903Y-100482196D01*
X91330432Y-99329724D01*
X91315016Y-99310940D01*
X91282730Y-99262621D01*
X91264218Y-99217926D01*
X91252383Y-99158427D01*
X91250000Y-99134236D01*
X91250000Y-96640506D01*
X91269685Y-96573467D01*
X91322489Y-96527712D01*
X91391647Y-96517768D01*
X91455203Y-96546793D01*
G37*
%TD.AperFunction*%
%TA.AperFunction,Conductor*%
G36*
X98934938Y-92269685D02*
G01*
X98980693Y-92322489D01*
X98990637Y-92391647D01*
X98961612Y-92455203D01*
X98955580Y-92461681D01*
X97581948Y-93835313D01*
X97575464Y-93840955D01*
X97565768Y-93848277D01*
X97533559Y-93883607D01*
X97531585Y-93885675D01*
X97517827Y-93899433D01*
X97517822Y-93899439D01*
X97516306Y-93901653D01*
X97510976Y-93908381D01*
X97482344Y-93939790D01*
X97479242Y-93936963D01*
X97443572Y-93968848D01*
X97374575Y-93979856D01*
X97310580Y-93951815D01*
X97281800Y-93916842D01*
X97275365Y-93905199D01*
X97214211Y-93794548D01*
X97192031Y-93763289D01*
X97006194Y-93501377D01*
X96972426Y-93463591D01*
X96766661Y-93233339D01*
X96498623Y-92993806D01*
X96427411Y-92943278D01*
X96205454Y-92785790D01*
X95890831Y-92611905D01*
X95795549Y-92572438D01*
X95593052Y-92488560D01*
X95538650Y-92444720D01*
X95516585Y-92378426D01*
X95533864Y-92310726D01*
X95585002Y-92263116D01*
X95640506Y-92250000D01*
X98867899Y-92250000D01*
X98934938Y-92269685D01*
G37*
%TD.AperFunction*%
%TD*%
M02*
