%TF.GenerationSoftware,KiCad,Pcbnew,7.0.7*%
%TF.CreationDate,2023-09-20T17:31:38+03:00*%
%TF.ProjectId,picoups,7069636f-7570-4732-9e6b-696361645f70,1.2.0*%
%TF.SameCoordinates,Original*%
%TF.FileFunction,Legend,Top*%
%TF.FilePolarity,Positive*%
%FSLAX46Y46*%
G04 Gerber Fmt 4.6, Leading zero omitted, Abs format (unit mm)*
G04 Created by KiCad (PCBNEW 7.0.7) date 2023-09-20 17:31:38*
%MOMM*%
%LPD*%
G01*
G04 APERTURE LIST*
%ADD10C,0.000000*%
%ADD11C,0.150000*%
%ADD12C,0.400000*%
%ADD13C,0.600000*%
%ADD14C,0.120000*%
G04 APERTURE END LIST*
D10*
G36*
X140500000Y-118750000D02*
G01*
X140400000Y-118685673D01*
X139900000Y-118620000D01*
X139400000Y-118680769D01*
X139250000Y-118750000D01*
X139250000Y-112600000D01*
X139400000Y-112600000D01*
X139400000Y-118300000D01*
X139900000Y-118300000D01*
X140450000Y-118300000D01*
X140450000Y-112600000D01*
X139400000Y-112600000D01*
X139250000Y-112600000D01*
X139250000Y-112500000D01*
X140500000Y-112500000D01*
X140500000Y-118750000D01*
G37*
G36*
X103600000Y-114600000D02*
G01*
X95800000Y-114600000D01*
X95864327Y-114500000D01*
X95930000Y-114000000D01*
X96150000Y-114000000D01*
X96150000Y-114450000D01*
X103350000Y-114450000D01*
X103350000Y-113500000D01*
X96150000Y-113500000D01*
X96150000Y-114000000D01*
X95930000Y-114000000D01*
X95869231Y-113500000D01*
X95800000Y-113350000D01*
X103600000Y-113350000D01*
X103600000Y-114600000D01*
G37*
G36*
X150920000Y-112780000D02*
G01*
X150555025Y-112955025D01*
X150350000Y-113250000D01*
X150350000Y-113800000D01*
X150190000Y-113800000D01*
X150190000Y-112690000D01*
X151750000Y-112690000D01*
X150920000Y-112780000D01*
G37*
G36*
X150350000Y-100750000D02*
G01*
X150555025Y-101044975D01*
X150920000Y-101220000D01*
X151750000Y-101310000D01*
X150190000Y-101310000D01*
X150190000Y-100200000D01*
X150350000Y-100200000D01*
X150350000Y-100750000D01*
G37*
G36*
X138100000Y-118750000D02*
G01*
X138000000Y-118685673D01*
X137500000Y-118620000D01*
X137000000Y-118680769D01*
X136850000Y-118750000D01*
X136850000Y-114150000D01*
X137000000Y-114150000D01*
X137000000Y-118400000D01*
X137500000Y-118400000D01*
X138050000Y-118400000D01*
X138050000Y-114150000D01*
X137000000Y-114150000D01*
X136850000Y-114150000D01*
X136850000Y-113950000D01*
X138100000Y-113950000D01*
X138100000Y-118750000D01*
G37*
D11*
X147902657Y-110208207D02*
X147931228Y-110132017D01*
X147931228Y-110132017D02*
X147931228Y-110017731D01*
X147931228Y-110017731D02*
X147902657Y-109903445D01*
X147902657Y-109903445D02*
X147845514Y-109827255D01*
X147845514Y-109827255D02*
X147788371Y-109789160D01*
X147788371Y-109789160D02*
X147674085Y-109751064D01*
X147674085Y-109751064D02*
X147588371Y-109751064D01*
X147588371Y-109751064D02*
X147474085Y-109789160D01*
X147474085Y-109789160D02*
X147416942Y-109827255D01*
X147416942Y-109827255D02*
X147359800Y-109903445D01*
X147359800Y-109903445D02*
X147331228Y-110017731D01*
X147331228Y-110017731D02*
X147331228Y-110093922D01*
X147331228Y-110093922D02*
X147359800Y-110208207D01*
X147359800Y-110208207D02*
X147388371Y-110246303D01*
X147388371Y-110246303D02*
X147588371Y-110246303D01*
X147588371Y-110246303D02*
X147588371Y-110093922D01*
G36*
X147040670Y-113329878D02*
G01*
X146795294Y-113329878D01*
X146917982Y-113053830D01*
X147040670Y-113329878D01*
G37*
G36*
X148024440Y-112971328D02*
G01*
X148053179Y-112992882D01*
X148081077Y-113034728D01*
X148081077Y-113096454D01*
X148053179Y-113138301D01*
X148024437Y-113159857D01*
X147952000Y-113187021D01*
X147659649Y-113187021D01*
X147659649Y-112944164D01*
X147952000Y-112944164D01*
X148024440Y-112971328D01*
G37*
G36*
X150241843Y-113801307D02*
G01*
X144450125Y-113801307D01*
X144450125Y-113297735D01*
X144557268Y-113297735D01*
X144557828Y-113299273D01*
X144561117Y-113321452D01*
X144608736Y-113464309D01*
X144610747Y-113466843D01*
X144617483Y-113482194D01*
X144665102Y-113553623D01*
X144665645Y-113554022D01*
X144682506Y-113572021D01*
X144777744Y-113643450D01*
X144779616Y-113644017D01*
X144780765Y-113645601D01*
X144804554Y-113656211D01*
X144947411Y-113691925D01*
X144950859Y-113691564D01*
X144965601Y-113694164D01*
X145060839Y-113694164D01*
X145064096Y-113692978D01*
X145079029Y-113691925D01*
X145221886Y-113656211D01*
X145223506Y-113655116D01*
X145225461Y-113655223D01*
X145248697Y-113643450D01*
X145281077Y-113619164D01*
X145604887Y-113619164D01*
X145622434Y-113667373D01*
X145666863Y-113693025D01*
X145717387Y-113684116D01*
X145750364Y-113644816D01*
X145754887Y-113619164D01*
X145754887Y-113301307D01*
X146176315Y-113301307D01*
X146176315Y-113619164D01*
X146193862Y-113667373D01*
X146238291Y-113693025D01*
X146288815Y-113684116D01*
X146321792Y-113644816D01*
X146322662Y-113639884D01*
X146512568Y-113639884D01*
X146542750Y-113681370D01*
X146592537Y-113693748D01*
X146638633Y-113671228D01*
X146653185Y-113649624D01*
X146728628Y-113479878D01*
X147107336Y-113479878D01*
X147182779Y-113649624D01*
X147218393Y-113686552D01*
X147269411Y-113691949D01*
X147311962Y-113663288D01*
X147324646Y-113619164D01*
X147509649Y-113619164D01*
X147527196Y-113667373D01*
X147571625Y-113693025D01*
X147622149Y-113684116D01*
X147655126Y-113644816D01*
X147659649Y-113619164D01*
X147659649Y-113337021D01*
X147790153Y-113337021D01*
X148101248Y-113670337D01*
X148146969Y-113693608D01*
X148196952Y-113682047D01*
X148227809Y-113641060D01*
X148225102Y-113589829D01*
X148210906Y-113567990D01*
X147991035Y-113332413D01*
X147991935Y-113332246D01*
X148083965Y-113297735D01*
X148462030Y-113297735D01*
X148462590Y-113299273D01*
X148465879Y-113321452D01*
X148513498Y-113464309D01*
X148515509Y-113466843D01*
X148522245Y-113482194D01*
X148569864Y-113553623D01*
X148570407Y-113554022D01*
X148587268Y-113572021D01*
X148682506Y-113643450D01*
X148684378Y-113644017D01*
X148685527Y-113645601D01*
X148709316Y-113656211D01*
X148852173Y-113691925D01*
X148855621Y-113691564D01*
X148870363Y-113694164D01*
X148965601Y-113694164D01*
X148968858Y-113692978D01*
X148983791Y-113691925D01*
X149126648Y-113656211D01*
X149128268Y-113655116D01*
X149130223Y-113655223D01*
X149153459Y-113643450D01*
X149185839Y-113619164D01*
X149509649Y-113619164D01*
X149516312Y-113637472D01*
X149519697Y-113656664D01*
X149524881Y-113661014D01*
X149527196Y-113667373D01*
X149544069Y-113677115D01*
X149558997Y-113689641D01*
X149568739Y-113691358D01*
X149571625Y-113693025D01*
X149574907Y-113692446D01*
X149584649Y-113694164D01*
X150060839Y-113694164D01*
X150109048Y-113676617D01*
X150134700Y-113632188D01*
X150125791Y-113581664D01*
X150086491Y-113548687D01*
X150060839Y-113544164D01*
X149659649Y-113544164D01*
X149659649Y-113301307D01*
X149917982Y-113301307D01*
X149966191Y-113283760D01*
X149991843Y-113239331D01*
X149982934Y-113188807D01*
X149943634Y-113155830D01*
X149917982Y-113151307D01*
X149659649Y-113151307D01*
X149659649Y-112944164D01*
X150060839Y-112944164D01*
X150109048Y-112926617D01*
X150134700Y-112882188D01*
X150125791Y-112831664D01*
X150086491Y-112798687D01*
X150060839Y-112794164D01*
X149584649Y-112794164D01*
X149566340Y-112800827D01*
X149547149Y-112804212D01*
X149542798Y-112809396D01*
X149536440Y-112811711D01*
X149526697Y-112828584D01*
X149514172Y-112843512D01*
X149512454Y-112853254D01*
X149510788Y-112856140D01*
X149511366Y-112859422D01*
X149509649Y-112869164D01*
X149509649Y-113619164D01*
X149185839Y-113619164D01*
X149201077Y-113607735D01*
X149212781Y-113589800D01*
X149226554Y-113573387D01*
X149227687Y-113566960D01*
X149229116Y-113564771D01*
X149228692Y-113561257D01*
X149231077Y-113547735D01*
X149231077Y-113297735D01*
X149224413Y-113279426D01*
X149221029Y-113260235D01*
X149215844Y-113255884D01*
X149213530Y-113249526D01*
X149196656Y-113239783D01*
X149181729Y-113227258D01*
X149171986Y-113225540D01*
X149169101Y-113223874D01*
X149165818Y-113224452D01*
X149156077Y-113222735D01*
X148965601Y-113222735D01*
X148917392Y-113240282D01*
X148891740Y-113284711D01*
X148900649Y-113335235D01*
X148939949Y-113368212D01*
X148965601Y-113372735D01*
X149081077Y-113372735D01*
X149081077Y-113510235D01*
X149075573Y-113514362D01*
X148956367Y-113544164D01*
X148879597Y-113544164D01*
X148760389Y-113514362D01*
X148687545Y-113459729D01*
X148652624Y-113407347D01*
X148612030Y-113285564D01*
X148612030Y-113202762D01*
X148652623Y-113080982D01*
X148687546Y-113028597D01*
X148760389Y-112973965D01*
X148879597Y-112944164D01*
X148999619Y-112944164D01*
X149082124Y-112975103D01*
X149133424Y-112975600D01*
X149173043Y-112943007D01*
X149182441Y-112892572D01*
X149157223Y-112847895D01*
X149134792Y-112834653D01*
X149039554Y-112798939D01*
X149039167Y-112798935D01*
X149038872Y-112798687D01*
X149013220Y-112794164D01*
X148870363Y-112794164D01*
X148867105Y-112795349D01*
X148852173Y-112796403D01*
X148709316Y-112832117D01*
X148707695Y-112833211D01*
X148705741Y-112833105D01*
X148682506Y-112844878D01*
X148587268Y-112916307D01*
X148586900Y-112916870D01*
X148569864Y-112934704D01*
X148522245Y-113006132D01*
X148521478Y-113009279D01*
X148513498Y-113024018D01*
X148465879Y-113166875D01*
X148465923Y-113168509D01*
X148462030Y-113190592D01*
X148462030Y-113297735D01*
X148083965Y-113297735D01*
X148087173Y-113296532D01*
X148089369Y-113294651D01*
X148105840Y-113286307D01*
X148153458Y-113250592D01*
X148153825Y-113250028D01*
X148170862Y-113232195D01*
X148218481Y-113160767D01*
X148220653Y-113151847D01*
X148226554Y-113144816D01*
X148231077Y-113119164D01*
X148231077Y-113012021D01*
X148227937Y-113003396D01*
X148228947Y-112994272D01*
X148218481Y-112970419D01*
X148170862Y-112898990D01*
X148170318Y-112898590D01*
X148153458Y-112880592D01*
X148105839Y-112844878D01*
X148103072Y-112844038D01*
X148087173Y-112834653D01*
X147991935Y-112798939D01*
X147991548Y-112798935D01*
X147991253Y-112798687D01*
X147965601Y-112794164D01*
X147584649Y-112794164D01*
X147566340Y-112800827D01*
X147547149Y-112804212D01*
X147542798Y-112809396D01*
X147536440Y-112811711D01*
X147526697Y-112828584D01*
X147514172Y-112843512D01*
X147512454Y-112853254D01*
X147510788Y-112856140D01*
X147511366Y-112859422D01*
X147509649Y-112869164D01*
X147509649Y-113619164D01*
X147324646Y-113619164D01*
X147326136Y-113613982D01*
X147319851Y-113588704D01*
X146986518Y-112838704D01*
X146972100Y-112823754D01*
X146959881Y-112806959D01*
X146954647Y-112805657D01*
X146950904Y-112801776D01*
X146930246Y-112799590D01*
X146910094Y-112794580D01*
X146905250Y-112796946D01*
X146899886Y-112796379D01*
X146882655Y-112807985D01*
X146863998Y-112817100D01*
X146859741Y-112823418D01*
X146857335Y-112825040D01*
X146856356Y-112828445D01*
X146849446Y-112838704D01*
X146516113Y-113588704D01*
X146512568Y-113639884D01*
X146322662Y-113639884D01*
X146326315Y-113619164D01*
X146326315Y-112869164D01*
X146308768Y-112820955D01*
X146264339Y-112795303D01*
X146213815Y-112804212D01*
X146180838Y-112843512D01*
X146176315Y-112869164D01*
X146176315Y-113151307D01*
X145754887Y-113151307D01*
X145754887Y-112869164D01*
X145737340Y-112820955D01*
X145692911Y-112795303D01*
X145642387Y-112804212D01*
X145609410Y-112843512D01*
X145604887Y-112869164D01*
X145604887Y-113619164D01*
X145281077Y-113619164D01*
X145296315Y-113607735D01*
X145324354Y-113564771D01*
X145318218Y-113513837D01*
X145280776Y-113478764D01*
X145229550Y-113475963D01*
X145206314Y-113487736D01*
X145170811Y-113514362D01*
X145051605Y-113544164D01*
X144974835Y-113544164D01*
X144855627Y-113514362D01*
X144782783Y-113459729D01*
X144747862Y-113407347D01*
X144707268Y-113285564D01*
X144707268Y-113202762D01*
X144747861Y-113080982D01*
X144782784Y-113028597D01*
X144855627Y-112973965D01*
X144974835Y-112944164D01*
X145051605Y-112944164D01*
X145170813Y-112973965D01*
X145206316Y-113000592D01*
X145255411Y-113015480D01*
X145302590Y-112995328D01*
X145325777Y-112949563D01*
X145314123Y-112899602D01*
X145296315Y-112880592D01*
X145248696Y-112844878D01*
X145246825Y-112844310D01*
X145245676Y-112842727D01*
X145221886Y-112832117D01*
X145079029Y-112796403D01*
X145075580Y-112796763D01*
X145060839Y-112794164D01*
X144965601Y-112794164D01*
X144962343Y-112795349D01*
X144947411Y-112796403D01*
X144804554Y-112832117D01*
X144802933Y-112833211D01*
X144800979Y-112833105D01*
X144777744Y-112844878D01*
X144682506Y-112916307D01*
X144682138Y-112916870D01*
X144665102Y-112934704D01*
X144617483Y-113006132D01*
X144616716Y-113009279D01*
X144608736Y-113024018D01*
X144561117Y-113166875D01*
X144561161Y-113168509D01*
X144557268Y-113190592D01*
X144557268Y-113297735D01*
X144450125Y-113297735D01*
X144450125Y-112687021D01*
X150241843Y-112687021D01*
X150241843Y-113801307D01*
G37*
G36*
X149837479Y-100483965D02*
G01*
X149910322Y-100538597D01*
X149945246Y-100590983D01*
X149985839Y-100712762D01*
X149985839Y-100795564D01*
X149945245Y-100917346D01*
X149910323Y-100969729D01*
X149837479Y-101024362D01*
X149718272Y-101054164D01*
X149564411Y-101054164D01*
X149564411Y-100454164D01*
X149718272Y-100454164D01*
X149837479Y-100483965D01*
G37*
G36*
X147929202Y-100481328D02*
G01*
X147957941Y-100502882D01*
X147985839Y-100544728D01*
X147985839Y-100606454D01*
X147957941Y-100648301D01*
X147929199Y-100669857D01*
X147856762Y-100697021D01*
X147564411Y-100697021D01*
X147564411Y-100454164D01*
X147856762Y-100454164D01*
X147929202Y-100481328D01*
G37*
G36*
X145786345Y-100481328D02*
G01*
X145815084Y-100502882D01*
X145842982Y-100544728D01*
X145842982Y-100606454D01*
X145815084Y-100648301D01*
X145786342Y-100669857D01*
X145713905Y-100697021D01*
X145421554Y-100697021D01*
X145421554Y-100454164D01*
X145713905Y-100454164D01*
X145786345Y-100481328D01*
G37*
G36*
X150242982Y-101311307D02*
G01*
X145164411Y-101311307D01*
X145164411Y-101129164D01*
X145271554Y-101129164D01*
X145289101Y-101177373D01*
X145333530Y-101203025D01*
X145384054Y-101194116D01*
X145417031Y-101154816D01*
X145421554Y-101129164D01*
X145421554Y-100847021D01*
X145727506Y-100847021D01*
X145727868Y-100846889D01*
X145728233Y-100847018D01*
X145753840Y-100842246D01*
X145849078Y-100806532D01*
X145851274Y-100804651D01*
X145867745Y-100796307D01*
X145915363Y-100760592D01*
X145915730Y-100760028D01*
X145932767Y-100742195D01*
X145980386Y-100670767D01*
X145982558Y-100661847D01*
X145988459Y-100654816D01*
X145992982Y-100629164D01*
X145992982Y-100522021D01*
X145989842Y-100513396D01*
X145990852Y-100504272D01*
X145980386Y-100480419D01*
X145932767Y-100408990D01*
X145932223Y-100408590D01*
X145915363Y-100390592D01*
X145895959Y-100376039D01*
X146176381Y-100376039D01*
X146179832Y-100401857D01*
X146417927Y-101151858D01*
X146419112Y-101153396D01*
X146419127Y-101155340D01*
X146434647Y-101173560D01*
X146449238Y-101192497D01*
X146451133Y-101192913D01*
X146452395Y-101194394D01*
X146475986Y-101198372D01*
X146499346Y-101203504D01*
X146501068Y-101202602D01*
X146502985Y-101202926D01*
X146523611Y-101190811D01*
X146544806Y-101179725D01*
X146545546Y-101177928D01*
X146547222Y-101176944D01*
X146560077Y-101154290D01*
X146679887Y-100817324D01*
X146799697Y-101154290D01*
X146800935Y-101155788D01*
X146801016Y-101157729D01*
X146817139Y-101175394D01*
X146832380Y-101193835D01*
X146834290Y-101194186D01*
X146835601Y-101195622D01*
X146859307Y-101198790D01*
X146882836Y-101203120D01*
X146884526Y-101202160D01*
X146886452Y-101202418D01*
X146906646Y-101189608D01*
X146927456Y-101177800D01*
X146928134Y-101175978D01*
X146929775Y-101174938D01*
X146941847Y-101151858D01*
X146949051Y-101129164D01*
X147414411Y-101129164D01*
X147431958Y-101177373D01*
X147476387Y-101203025D01*
X147526911Y-101194116D01*
X147559888Y-101154816D01*
X147564411Y-101129164D01*
X147564411Y-100847021D01*
X147694915Y-100847021D01*
X148006010Y-101180337D01*
X148051731Y-101203608D01*
X148101714Y-101192047D01*
X148132571Y-101151060D01*
X148129864Y-101099829D01*
X148115668Y-101077990D01*
X147895797Y-100842413D01*
X147896697Y-100842246D01*
X147988727Y-100807735D01*
X148366792Y-100807735D01*
X148367352Y-100809273D01*
X148370641Y-100831452D01*
X148418260Y-100974309D01*
X148420271Y-100976843D01*
X148427007Y-100992194D01*
X148474626Y-101063623D01*
X148475169Y-101064022D01*
X148492030Y-101082021D01*
X148587268Y-101153450D01*
X148589140Y-101154017D01*
X148590289Y-101155601D01*
X148614078Y-101166211D01*
X148756935Y-101201925D01*
X148760383Y-101201564D01*
X148775125Y-101204164D01*
X148870363Y-101204164D01*
X148873620Y-101202978D01*
X148888553Y-101201925D01*
X149031410Y-101166211D01*
X149033030Y-101165116D01*
X149034985Y-101165223D01*
X149058221Y-101153450D01*
X149090601Y-101129164D01*
X149414411Y-101129164D01*
X149421074Y-101147472D01*
X149424459Y-101166664D01*
X149429643Y-101171014D01*
X149431958Y-101177373D01*
X149448831Y-101187115D01*
X149463759Y-101199641D01*
X149473501Y-101201358D01*
X149476387Y-101203025D01*
X149479669Y-101202446D01*
X149489411Y-101204164D01*
X149727506Y-101204164D01*
X149730763Y-101202978D01*
X149745696Y-101201925D01*
X149888553Y-101166211D01*
X149890173Y-101165116D01*
X149892128Y-101165223D01*
X149915363Y-101153450D01*
X150010601Y-101082021D01*
X150010970Y-101081454D01*
X150028005Y-101063623D01*
X150075624Y-100992194D01*
X150076390Y-100989046D01*
X150084371Y-100974309D01*
X150131990Y-100831453D01*
X150131945Y-100829817D01*
X150135839Y-100807735D01*
X150135839Y-100700592D01*
X150135279Y-100699054D01*
X150131990Y-100676874D01*
X150084371Y-100534018D01*
X150082359Y-100531483D01*
X150075624Y-100516132D01*
X150028005Y-100444704D01*
X150027458Y-100444302D01*
X150010601Y-100426307D01*
X149915363Y-100354878D01*
X149913492Y-100354310D01*
X149912343Y-100352727D01*
X149888553Y-100342117D01*
X149745696Y-100306403D01*
X149742247Y-100306763D01*
X149727506Y-100304164D01*
X149489411Y-100304164D01*
X149471102Y-100310827D01*
X149451911Y-100314212D01*
X149447560Y-100319396D01*
X149441202Y-100321711D01*
X149431459Y-100338584D01*
X149418934Y-100353512D01*
X149417216Y-100363254D01*
X149415550Y-100366140D01*
X149416128Y-100369422D01*
X149414411Y-100379164D01*
X149414411Y-101129164D01*
X149090601Y-101129164D01*
X149105839Y-101117735D01*
X149117543Y-101099800D01*
X149131316Y-101083387D01*
X149132449Y-101076960D01*
X149133878Y-101074771D01*
X149133454Y-101071257D01*
X149135839Y-101057735D01*
X149135839Y-100807735D01*
X149129175Y-100789426D01*
X149125791Y-100770235D01*
X149120606Y-100765884D01*
X149118292Y-100759526D01*
X149101418Y-100749783D01*
X149086491Y-100737258D01*
X149076748Y-100735540D01*
X149073863Y-100733874D01*
X149070580Y-100734452D01*
X149060839Y-100732735D01*
X148870363Y-100732735D01*
X148822154Y-100750282D01*
X148796502Y-100794711D01*
X148805411Y-100845235D01*
X148844711Y-100878212D01*
X148870363Y-100882735D01*
X148985839Y-100882735D01*
X148985839Y-101020235D01*
X148980335Y-101024362D01*
X148861129Y-101054164D01*
X148784359Y-101054164D01*
X148665151Y-101024362D01*
X148592307Y-100969729D01*
X148557386Y-100917347D01*
X148516792Y-100795564D01*
X148516792Y-100712762D01*
X148557385Y-100590982D01*
X148592308Y-100538597D01*
X148665151Y-100483965D01*
X148784359Y-100454164D01*
X148904381Y-100454164D01*
X148986886Y-100485103D01*
X149038186Y-100485600D01*
X149077805Y-100453007D01*
X149087203Y-100402572D01*
X149061985Y-100357895D01*
X149039554Y-100344653D01*
X148944316Y-100308939D01*
X148943929Y-100308935D01*
X148943634Y-100308687D01*
X148917982Y-100304164D01*
X148775125Y-100304164D01*
X148771867Y-100305349D01*
X148756935Y-100306403D01*
X148614078Y-100342117D01*
X148612457Y-100343211D01*
X148610503Y-100343105D01*
X148587268Y-100354878D01*
X148492030Y-100426307D01*
X148491662Y-100426870D01*
X148474626Y-100444704D01*
X148427007Y-100516132D01*
X148426240Y-100519279D01*
X148418260Y-100534018D01*
X148370641Y-100676875D01*
X148370685Y-100678509D01*
X148366792Y-100700592D01*
X148366792Y-100807735D01*
X147988727Y-100807735D01*
X147991935Y-100806532D01*
X147994131Y-100804651D01*
X148010602Y-100796307D01*
X148058220Y-100760592D01*
X148058587Y-100760028D01*
X148075624Y-100742195D01*
X148123243Y-100670767D01*
X148125415Y-100661847D01*
X148131316Y-100654816D01*
X148135839Y-100629164D01*
X148135839Y-100522021D01*
X148132699Y-100513396D01*
X148133709Y-100504272D01*
X148123243Y-100480419D01*
X148075624Y-100408990D01*
X148075080Y-100408590D01*
X148058220Y-100390592D01*
X148010601Y-100354878D01*
X148007834Y-100354038D01*
X147991935Y-100344653D01*
X147896697Y-100308939D01*
X147896310Y-100308935D01*
X147896015Y-100308687D01*
X147870363Y-100304164D01*
X147489411Y-100304164D01*
X147471102Y-100310827D01*
X147451911Y-100314212D01*
X147447560Y-100319396D01*
X147441202Y-100321711D01*
X147431459Y-100338584D01*
X147418934Y-100353512D01*
X147417216Y-100363254D01*
X147415550Y-100366140D01*
X147416128Y-100369422D01*
X147414411Y-100379164D01*
X147414411Y-101129164D01*
X146949051Y-101129164D01*
X147179943Y-100401858D01*
X147177806Y-100350599D01*
X147143221Y-100312706D01*
X147092370Y-100305910D01*
X147049047Y-100333390D01*
X147036975Y-100356471D01*
X146866338Y-100893972D01*
X146750553Y-100568324D01*
X146750175Y-100567867D01*
X146750171Y-100567274D01*
X146733859Y-100548125D01*
X146717870Y-100528779D01*
X146717287Y-100528671D01*
X146716903Y-100528220D01*
X146692108Y-100524038D01*
X146667414Y-100519494D01*
X146666898Y-100519786D01*
X146666314Y-100519688D01*
X146644657Y-100532407D01*
X146622794Y-100544814D01*
X146622586Y-100545369D01*
X146622076Y-100545670D01*
X146609221Y-100568324D01*
X146493435Y-100893972D01*
X146322800Y-100356471D01*
X146291489Y-100315831D01*
X146241381Y-100304824D01*
X146195921Y-100328603D01*
X146176381Y-100376039D01*
X145895959Y-100376039D01*
X145867744Y-100354878D01*
X145864977Y-100354038D01*
X145849078Y-100344653D01*
X145753840Y-100308939D01*
X145753453Y-100308935D01*
X145753158Y-100308687D01*
X145727506Y-100304164D01*
X145346554Y-100304164D01*
X145328245Y-100310827D01*
X145309054Y-100314212D01*
X145304703Y-100319396D01*
X145298345Y-100321711D01*
X145288602Y-100338584D01*
X145276077Y-100353512D01*
X145274359Y-100363254D01*
X145272693Y-100366140D01*
X145273271Y-100369422D01*
X145271554Y-100379164D01*
X145271554Y-101129164D01*
X145164411Y-101129164D01*
X145164411Y-100197021D01*
X150242982Y-100197021D01*
X150242982Y-101311307D01*
G37*
G36*
X140235835Y-116102000D02*
G01*
X140208670Y-116174439D01*
X140187114Y-116203180D01*
X140145270Y-116231077D01*
X140083544Y-116231077D01*
X140041697Y-116203179D01*
X140020141Y-116174437D01*
X139992978Y-116102000D01*
X139992978Y-115809649D01*
X140235835Y-115809649D01*
X140235835Y-116102000D01*
G37*
G36*
X140126168Y-115067982D02*
G01*
X139850121Y-115190669D01*
X139850121Y-114945294D01*
X140126168Y-115067982D01*
G37*
G36*
X140492978Y-118391843D02*
G01*
X139378692Y-118391843D01*
X139378692Y-118210839D01*
X139485835Y-118210839D01*
X139503382Y-118259048D01*
X139547811Y-118284700D01*
X139598335Y-118275791D01*
X139631312Y-118236491D01*
X139635835Y-118210839D01*
X139635835Y-117809649D01*
X139878692Y-117809649D01*
X139878692Y-118067982D01*
X139896239Y-118116191D01*
X139940668Y-118141843D01*
X139991192Y-118132934D01*
X140024169Y-118093634D01*
X140028692Y-118067982D01*
X140028692Y-117809649D01*
X140235835Y-117809649D01*
X140235835Y-118210839D01*
X140253382Y-118259048D01*
X140297811Y-118284700D01*
X140348335Y-118275791D01*
X140381312Y-118236491D01*
X140385835Y-118210839D01*
X140385835Y-117734649D01*
X140379171Y-117716340D01*
X140375787Y-117697149D01*
X140370602Y-117692798D01*
X140368288Y-117686440D01*
X140351414Y-117676697D01*
X140336487Y-117664172D01*
X140326744Y-117662454D01*
X140323859Y-117660788D01*
X140320576Y-117661366D01*
X140310835Y-117659649D01*
X139560835Y-117659649D01*
X139542526Y-117666312D01*
X139523335Y-117669697D01*
X139518984Y-117674881D01*
X139512626Y-117677196D01*
X139502883Y-117694069D01*
X139490358Y-117708997D01*
X139488640Y-117718739D01*
X139486974Y-117721625D01*
X139487552Y-117724907D01*
X139485835Y-117734649D01*
X139485835Y-118210839D01*
X139378692Y-118210839D01*
X139378692Y-117115601D01*
X139485835Y-117115601D01*
X139487020Y-117118858D01*
X139488074Y-117133792D01*
X139523789Y-117276649D01*
X139524883Y-117278269D01*
X139524777Y-117280222D01*
X139536550Y-117303458D01*
X139572264Y-117351077D01*
X139590200Y-117362782D01*
X139606612Y-117376554D01*
X139613037Y-117377686D01*
X139615227Y-117379116D01*
X139618741Y-117378692D01*
X139632264Y-117381077D01*
X139882264Y-117381077D01*
X139900572Y-117374413D01*
X139919764Y-117371029D01*
X139924114Y-117365844D01*
X139930473Y-117363530D01*
X139940215Y-117346656D01*
X139952741Y-117331729D01*
X139954458Y-117321986D01*
X139956125Y-117319101D01*
X139955546Y-117315818D01*
X139957264Y-117306077D01*
X139957264Y-117115601D01*
X139939717Y-117067392D01*
X139895288Y-117041740D01*
X139844764Y-117050649D01*
X139811787Y-117089949D01*
X139807264Y-117115601D01*
X139807264Y-117231077D01*
X139669764Y-117231077D01*
X139665637Y-117225575D01*
X139635835Y-117106365D01*
X139635835Y-117029598D01*
X139665637Y-116910388D01*
X139720270Y-116837545D01*
X139772652Y-116802623D01*
X139894434Y-116762030D01*
X139977237Y-116762030D01*
X140099016Y-116802623D01*
X140151401Y-116837546D01*
X140206033Y-116910389D01*
X140235835Y-117029596D01*
X140235835Y-117149619D01*
X140204896Y-117232124D01*
X140204399Y-117283425D01*
X140236992Y-117323043D01*
X140287427Y-117332442D01*
X140332104Y-117307223D01*
X140345346Y-117284792D01*
X140381060Y-117189554D01*
X140381063Y-117189167D01*
X140381312Y-117188872D01*
X140385835Y-117163220D01*
X140385835Y-117020363D01*
X140384649Y-117017105D01*
X140383596Y-117002173D01*
X140347882Y-116859316D01*
X140346787Y-116857695D01*
X140346894Y-116855741D01*
X140335121Y-116832506D01*
X140263692Y-116737268D01*
X140263128Y-116736900D01*
X140245295Y-116719864D01*
X140173867Y-116672245D01*
X140170719Y-116671478D01*
X140155981Y-116663498D01*
X140013124Y-116615879D01*
X140011489Y-116615923D01*
X139989407Y-116612030D01*
X139882264Y-116612030D01*
X139880726Y-116612589D01*
X139858546Y-116615879D01*
X139715690Y-116663498D01*
X139713154Y-116665510D01*
X139697805Y-116672245D01*
X139626376Y-116719864D01*
X139625978Y-116720404D01*
X139607978Y-116737268D01*
X139536550Y-116832506D01*
X139535982Y-116834376D01*
X139534399Y-116835526D01*
X139523789Y-116859315D01*
X139488074Y-117002172D01*
X139488434Y-117005620D01*
X139485835Y-117020363D01*
X139485835Y-117115601D01*
X139378692Y-117115601D01*
X139378692Y-116296970D01*
X139486390Y-116296970D01*
X139497952Y-116346952D01*
X139538938Y-116377809D01*
X139590170Y-116375102D01*
X139612009Y-116360906D01*
X139847585Y-116141034D01*
X139847753Y-116141935D01*
X139883467Y-116237173D01*
X139885347Y-116239369D01*
X139893692Y-116255840D01*
X139929407Y-116303458D01*
X139929970Y-116303825D01*
X139947804Y-116320862D01*
X140019232Y-116368481D01*
X140028151Y-116370653D01*
X140035183Y-116376554D01*
X140060835Y-116381077D01*
X140167978Y-116381077D01*
X140176602Y-116377937D01*
X140185728Y-116378947D01*
X140209580Y-116368481D01*
X140281009Y-116320862D01*
X140281406Y-116320321D01*
X140299407Y-116303458D01*
X140335121Y-116255838D01*
X140335959Y-116253073D01*
X140345346Y-116237173D01*
X140381060Y-116141935D01*
X140381063Y-116141548D01*
X140381312Y-116141253D01*
X140385835Y-116115601D01*
X140385835Y-115734649D01*
X140379171Y-115716340D01*
X140375787Y-115697149D01*
X140370602Y-115692798D01*
X140368288Y-115686440D01*
X140351414Y-115676697D01*
X140336487Y-115664172D01*
X140326744Y-115662454D01*
X140323859Y-115660788D01*
X140320576Y-115661366D01*
X140310835Y-115659649D01*
X139560835Y-115659649D01*
X139512626Y-115677196D01*
X139486974Y-115721625D01*
X139495883Y-115772149D01*
X139535183Y-115805126D01*
X139560835Y-115809649D01*
X139842978Y-115809649D01*
X139842978Y-115940152D01*
X139509661Y-116251248D01*
X139486390Y-116296970D01*
X139378692Y-116296970D01*
X139378692Y-114742537D01*
X139486251Y-114742537D01*
X139508771Y-114788633D01*
X139530375Y-114803185D01*
X139700121Y-114878627D01*
X139700121Y-115257336D01*
X139530375Y-115332779D01*
X139493447Y-115368393D01*
X139488050Y-115419411D01*
X139516711Y-115461962D01*
X139566017Y-115476136D01*
X139591295Y-115469851D01*
X140341295Y-115136518D01*
X140356244Y-115122100D01*
X140373040Y-115109881D01*
X140374341Y-115104647D01*
X140378223Y-115100904D01*
X140380408Y-115080246D01*
X140385419Y-115060094D01*
X140383052Y-115055250D01*
X140383620Y-115049886D01*
X140372013Y-115032655D01*
X140362899Y-115013998D01*
X140356580Y-115009741D01*
X140354959Y-115007335D01*
X140351553Y-115006356D01*
X140341295Y-114999446D01*
X139591295Y-114666113D01*
X139540115Y-114662568D01*
X139498629Y-114692750D01*
X139486251Y-114742537D01*
X139378692Y-114742537D01*
X139378692Y-114388291D01*
X139486974Y-114388291D01*
X139495883Y-114438815D01*
X139535183Y-114471792D01*
X139560835Y-114476315D01*
X140310835Y-114476315D01*
X140359044Y-114458768D01*
X140384696Y-114414339D01*
X140375787Y-114363815D01*
X140336487Y-114330838D01*
X140310835Y-114326315D01*
X140028692Y-114326315D01*
X140028692Y-113904887D01*
X140310835Y-113904887D01*
X140359044Y-113887340D01*
X140384696Y-113842911D01*
X140375787Y-113792387D01*
X140336487Y-113759410D01*
X140310835Y-113754887D01*
X139560835Y-113754887D01*
X139512626Y-113772434D01*
X139486974Y-113816863D01*
X139495883Y-113867387D01*
X139535183Y-113900364D01*
X139560835Y-113904887D01*
X139878692Y-113904887D01*
X139878692Y-114326315D01*
X139560835Y-114326315D01*
X139512626Y-114343862D01*
X139486974Y-114388291D01*
X139378692Y-114388291D01*
X139378692Y-113210839D01*
X139485835Y-113210839D01*
X139487020Y-113214096D01*
X139488074Y-113229030D01*
X139523789Y-113371887D01*
X139524883Y-113373507D01*
X139524777Y-113375460D01*
X139536550Y-113398696D01*
X139572264Y-113446315D01*
X139615227Y-113474354D01*
X139666161Y-113468219D01*
X139701235Y-113430777D01*
X139704037Y-113379551D01*
X139692264Y-113356316D01*
X139665637Y-113320813D01*
X139635835Y-113201603D01*
X139635835Y-113124836D01*
X139665637Y-113005626D01*
X139720270Y-112932783D01*
X139772652Y-112897861D01*
X139894434Y-112857268D01*
X139977237Y-112857268D01*
X140099016Y-112897861D01*
X140151401Y-112932784D01*
X140206033Y-113005627D01*
X140235835Y-113124834D01*
X140235835Y-113201605D01*
X140206033Y-113320813D01*
X140179407Y-113356315D01*
X140164519Y-113405411D01*
X140184671Y-113452590D01*
X140230436Y-113475777D01*
X140280398Y-113464123D01*
X140299407Y-113446315D01*
X140335121Y-113398695D01*
X140335688Y-113396824D01*
X140337272Y-113395675D01*
X140347882Y-113371886D01*
X140383596Y-113229029D01*
X140383235Y-113225580D01*
X140385835Y-113210839D01*
X140385835Y-113115601D01*
X140384649Y-113112343D01*
X140383596Y-113097411D01*
X140347882Y-112954554D01*
X140346787Y-112952933D01*
X140346894Y-112950979D01*
X140335121Y-112927744D01*
X140263692Y-112832506D01*
X140263128Y-112832138D01*
X140245295Y-112815102D01*
X140173867Y-112767483D01*
X140170719Y-112766716D01*
X140155981Y-112758736D01*
X140013124Y-112711117D01*
X140011489Y-112711161D01*
X139989407Y-112707268D01*
X139882264Y-112707268D01*
X139880726Y-112707827D01*
X139858546Y-112711117D01*
X139715690Y-112758736D01*
X139713154Y-112760748D01*
X139697805Y-112767483D01*
X139626376Y-112815102D01*
X139625978Y-112815642D01*
X139607978Y-112832506D01*
X139536550Y-112927744D01*
X139535982Y-112929614D01*
X139534399Y-112930764D01*
X139523789Y-112954553D01*
X139488074Y-113097410D01*
X139488434Y-113100858D01*
X139485835Y-113115601D01*
X139485835Y-113210839D01*
X139378692Y-113210839D01*
X139378692Y-112600125D01*
X140492978Y-112600125D01*
X140492978Y-118391843D01*
G37*
G36*
X146511220Y-119145078D02*
G01*
X146539959Y-119166632D01*
X146567857Y-119208478D01*
X146567857Y-119270204D01*
X146539959Y-119312051D01*
X146511217Y-119333607D01*
X146438780Y-119360771D01*
X146146429Y-119360771D01*
X146146429Y-119117914D01*
X146438780Y-119117914D01*
X146511220Y-119145078D01*
G37*
G36*
X144296933Y-117937578D02*
G01*
X144364828Y-117988500D01*
X144401190Y-118097583D01*
X144401190Y-118323244D01*
X144364828Y-118432327D01*
X144296933Y-118483249D01*
X144224494Y-118510414D01*
X144061220Y-118510414D01*
X143988780Y-118483249D01*
X143920885Y-118432328D01*
X143884524Y-118323243D01*
X143884524Y-118097584D01*
X143920885Y-117988499D01*
X143988780Y-117937578D01*
X144061220Y-117910414D01*
X144224494Y-117910414D01*
X144296933Y-117937578D01*
G37*
G36*
X146027450Y-118296128D02*
G01*
X145782074Y-118296128D01*
X145904762Y-118020080D01*
X146027450Y-118296128D01*
G37*
G36*
X147011220Y-117937578D02*
G01*
X147039959Y-117959132D01*
X147067857Y-118000978D01*
X147067857Y-118062704D01*
X147039959Y-118104551D01*
X147011217Y-118126107D01*
X146938780Y-118153271D01*
X146646429Y-118153271D01*
X146646429Y-117910414D01*
X146938780Y-117910414D01*
X147011220Y-117937578D01*
G37*
G36*
X147825000Y-119975057D02*
G01*
X142080901Y-119975057D01*
X142080901Y-119779890D01*
X142188044Y-119779890D01*
X142196953Y-119830414D01*
X142236253Y-119863391D01*
X142261905Y-119867914D01*
X142357143Y-119867914D01*
X142360400Y-119866728D01*
X142375333Y-119865675D01*
X142518190Y-119829961D01*
X142519810Y-119828866D01*
X142521765Y-119828973D01*
X142545000Y-119817200D01*
X142640238Y-119745771D01*
X142643636Y-119740563D01*
X142649222Y-119737835D01*
X142663774Y-119716231D01*
X142711393Y-119609089D01*
X142711581Y-119606368D01*
X142713334Y-119604280D01*
X142717857Y-119578628D01*
X142717857Y-119257200D01*
X142996429Y-119257200D01*
X142999568Y-119265824D01*
X142998559Y-119274950D01*
X143009025Y-119298803D01*
X143056644Y-119370231D01*
X143057187Y-119370630D01*
X143074048Y-119388628D01*
X143121668Y-119424342D01*
X143124434Y-119425180D01*
X143140332Y-119434567D01*
X143235570Y-119470281D01*
X143238889Y-119470313D01*
X143248083Y-119473772D01*
X143432148Y-119508284D01*
X143511217Y-119537934D01*
X143539959Y-119559490D01*
X143567857Y-119601337D01*
X143567857Y-119627347D01*
X143539959Y-119669194D01*
X143511217Y-119690750D01*
X143438780Y-119717914D01*
X143223520Y-119717914D01*
X143089619Y-119684439D01*
X143038594Y-119689770D01*
X143002932Y-119726651D01*
X142999321Y-119777827D01*
X143029450Y-119819351D01*
X143053239Y-119829961D01*
X143196096Y-119865675D01*
X143199544Y-119865314D01*
X143214286Y-119867914D01*
X143452381Y-119867914D01*
X143452743Y-119867782D01*
X143453108Y-119867911D01*
X143478715Y-119863139D01*
X143573953Y-119827425D01*
X143576149Y-119825544D01*
X143592620Y-119817200D01*
X143640238Y-119781485D01*
X143640605Y-119780921D01*
X143657642Y-119763088D01*
X143705261Y-119691660D01*
X143707433Y-119682740D01*
X143713334Y-119675709D01*
X143717857Y-119650057D01*
X143717857Y-119578628D01*
X143714717Y-119570003D01*
X143715727Y-119560878D01*
X143705261Y-119537025D01*
X143657642Y-119465597D01*
X143657095Y-119465195D01*
X143640238Y-119447200D01*
X143592620Y-119411485D01*
X143589851Y-119410645D01*
X143573953Y-119401260D01*
X143478715Y-119365546D01*
X143475392Y-119365513D01*
X143466202Y-119362056D01*
X143282138Y-119327544D01*
X143203065Y-119297890D01*
X143174326Y-119276336D01*
X143146429Y-119234490D01*
X143146429Y-119208478D01*
X143174325Y-119166634D01*
X143203066Y-119145078D01*
X143275506Y-119117914D01*
X143490766Y-119117914D01*
X143624667Y-119151389D01*
X143675693Y-119146058D01*
X143711354Y-119109177D01*
X143714965Y-119058001D01*
X143694569Y-119029890D01*
X143854711Y-119029890D01*
X143863620Y-119080414D01*
X143902920Y-119113391D01*
X143928572Y-119117914D01*
X144139286Y-119117914D01*
X144139286Y-119792914D01*
X144156833Y-119841123D01*
X144201262Y-119866775D01*
X144251786Y-119857866D01*
X144284763Y-119818566D01*
X144289286Y-119792914D01*
X145996429Y-119792914D01*
X146013976Y-119841123D01*
X146058405Y-119866775D01*
X146108929Y-119857866D01*
X146141906Y-119818566D01*
X146146429Y-119792914D01*
X146996429Y-119792914D01*
X147013976Y-119841123D01*
X147058405Y-119866775D01*
X147108929Y-119857866D01*
X147141906Y-119818566D01*
X147146429Y-119792914D01*
X147146429Y-119475057D01*
X147567857Y-119475057D01*
X147567857Y-119792914D01*
X147585404Y-119841123D01*
X147629833Y-119866775D01*
X147680357Y-119857866D01*
X147713334Y-119818566D01*
X147717857Y-119792914D01*
X147717857Y-119042914D01*
X147700310Y-118994705D01*
X147655881Y-118969053D01*
X147605357Y-118977962D01*
X147572380Y-119017262D01*
X147567857Y-119042914D01*
X147567857Y-119325057D01*
X147146429Y-119325057D01*
X147146429Y-119042914D01*
X147128882Y-118994705D01*
X147084453Y-118969053D01*
X147033929Y-118977962D01*
X147000952Y-119017262D01*
X146996429Y-119042914D01*
X146996429Y-119792914D01*
X146146429Y-119792914D01*
X146146429Y-119510771D01*
X146452381Y-119510771D01*
X146452743Y-119510639D01*
X146453108Y-119510768D01*
X146478715Y-119505996D01*
X146573953Y-119470282D01*
X146576149Y-119468401D01*
X146592620Y-119460057D01*
X146640238Y-119424342D01*
X146640605Y-119423778D01*
X146657642Y-119405945D01*
X146705261Y-119334517D01*
X146707433Y-119325597D01*
X146713334Y-119318566D01*
X146717857Y-119292914D01*
X146717857Y-119185771D01*
X146714717Y-119177146D01*
X146715727Y-119168022D01*
X146705261Y-119144169D01*
X146657642Y-119072740D01*
X146657098Y-119072340D01*
X146640238Y-119054342D01*
X146592619Y-119018628D01*
X146589852Y-119017788D01*
X146573953Y-119008403D01*
X146478715Y-118972689D01*
X146478328Y-118972685D01*
X146478033Y-118972437D01*
X146452381Y-118967914D01*
X146071429Y-118967914D01*
X146053120Y-118974577D01*
X146033929Y-118977962D01*
X146029578Y-118983146D01*
X146023220Y-118985461D01*
X146013477Y-119002334D01*
X146000952Y-119017262D01*
X145999234Y-119027004D01*
X145997568Y-119029890D01*
X145998146Y-119033172D01*
X145996429Y-119042914D01*
X145996429Y-119792914D01*
X144289286Y-119792914D01*
X144289286Y-119494176D01*
X144759473Y-119494176D01*
X144768382Y-119544700D01*
X144807682Y-119577677D01*
X144833334Y-119582200D01*
X145595239Y-119582200D01*
X145643448Y-119564653D01*
X145669100Y-119520224D01*
X145660191Y-119469700D01*
X145620891Y-119436723D01*
X145595239Y-119432200D01*
X144833334Y-119432200D01*
X144785125Y-119449747D01*
X144759473Y-119494176D01*
X144289286Y-119494176D01*
X144289286Y-119117914D01*
X144500000Y-119117914D01*
X144548209Y-119100367D01*
X144573861Y-119055938D01*
X144564952Y-119005414D01*
X144525652Y-118972437D01*
X144500000Y-118967914D01*
X143928572Y-118967914D01*
X143880363Y-118985461D01*
X143854711Y-119029890D01*
X143694569Y-119029890D01*
X143684837Y-119016477D01*
X143661047Y-119005867D01*
X143518190Y-118970153D01*
X143514741Y-118970513D01*
X143500000Y-118967914D01*
X143261905Y-118967914D01*
X143261542Y-118968045D01*
X143261178Y-118967917D01*
X143235571Y-118972689D01*
X143140333Y-119008403D01*
X143138134Y-119010284D01*
X143121668Y-119018628D01*
X143074048Y-119054342D01*
X143073678Y-119054908D01*
X143056644Y-119072740D01*
X143009025Y-119144169D01*
X143006852Y-119153086D01*
X143000952Y-119160119D01*
X142996429Y-119185771D01*
X142996429Y-119257200D01*
X142717857Y-119257200D01*
X142717857Y-119042914D01*
X142700310Y-118994705D01*
X142655881Y-118969053D01*
X142605357Y-118977962D01*
X142572380Y-119017262D01*
X142567857Y-119042914D01*
X142567857Y-119562712D01*
X142534627Y-119637479D01*
X142467116Y-119688112D01*
X142347909Y-119717914D01*
X142261905Y-119717914D01*
X142213696Y-119735461D01*
X142188044Y-119779890D01*
X142080901Y-119779890D01*
X142080901Y-118049700D01*
X142782143Y-118049700D01*
X142785282Y-118058324D01*
X142784273Y-118067450D01*
X142794739Y-118091303D01*
X142842358Y-118162731D01*
X142842901Y-118163130D01*
X142859762Y-118181128D01*
X142907382Y-118216842D01*
X142910148Y-118217680D01*
X142926046Y-118227067D01*
X143021284Y-118262781D01*
X143024603Y-118262813D01*
X143033797Y-118266272D01*
X143217862Y-118300784D01*
X143296931Y-118330434D01*
X143325673Y-118351990D01*
X143353571Y-118393837D01*
X143353571Y-118419847D01*
X143325673Y-118461694D01*
X143296931Y-118483250D01*
X143224494Y-118510414D01*
X143009234Y-118510414D01*
X142875333Y-118476939D01*
X142824308Y-118482270D01*
X142788646Y-118519151D01*
X142785035Y-118570327D01*
X142815164Y-118611851D01*
X142838953Y-118622461D01*
X142981810Y-118658175D01*
X142985258Y-118657814D01*
X143000000Y-118660414D01*
X143238095Y-118660414D01*
X143238457Y-118660282D01*
X143238822Y-118660411D01*
X143264429Y-118655639D01*
X143359667Y-118619925D01*
X143361863Y-118618044D01*
X143378334Y-118609700D01*
X143425952Y-118573985D01*
X143426319Y-118573421D01*
X143443356Y-118555588D01*
X143490975Y-118484160D01*
X143493147Y-118475240D01*
X143499048Y-118468209D01*
X143503571Y-118442557D01*
X143503571Y-118371128D01*
X143500431Y-118362503D01*
X143501441Y-118353378D01*
X143493559Y-118335414D01*
X143734524Y-118335414D01*
X143735084Y-118336952D01*
X143738373Y-118359131D01*
X143785992Y-118501988D01*
X143792101Y-118509686D01*
X143794335Y-118519261D01*
X143812143Y-118538271D01*
X143907381Y-118609700D01*
X143910147Y-118610539D01*
X143926047Y-118619925D01*
X144021285Y-118655639D01*
X144021671Y-118655642D01*
X144021967Y-118655891D01*
X144047619Y-118660414D01*
X144238095Y-118660414D01*
X144238457Y-118660282D01*
X144238822Y-118660411D01*
X144264429Y-118655639D01*
X144359667Y-118619925D01*
X144361864Y-118618044D01*
X144378333Y-118609700D01*
X144410714Y-118585414D01*
X144829762Y-118585414D01*
X144836425Y-118603722D01*
X144839810Y-118622914D01*
X144844994Y-118627264D01*
X144847309Y-118633623D01*
X144864182Y-118643365D01*
X144879110Y-118655891D01*
X144888852Y-118657608D01*
X144891738Y-118659275D01*
X144895020Y-118658696D01*
X144904762Y-118660414D01*
X145380952Y-118660414D01*
X145429161Y-118642867D01*
X145450370Y-118606134D01*
X145499348Y-118606134D01*
X145529530Y-118647620D01*
X145579317Y-118659998D01*
X145625413Y-118637478D01*
X145639965Y-118615874D01*
X145715408Y-118446128D01*
X146094116Y-118446128D01*
X146169559Y-118615874D01*
X146205173Y-118652802D01*
X146256191Y-118658199D01*
X146298742Y-118629538D01*
X146311426Y-118585414D01*
X146496429Y-118585414D01*
X146513976Y-118633623D01*
X146558405Y-118659275D01*
X146608929Y-118650366D01*
X146641906Y-118611066D01*
X146646429Y-118585414D01*
X146646429Y-118303271D01*
X146776933Y-118303271D01*
X147088028Y-118636587D01*
X147133749Y-118659858D01*
X147183732Y-118648297D01*
X147214589Y-118607310D01*
X147211882Y-118556079D01*
X147197686Y-118534240D01*
X146977815Y-118298663D01*
X146978715Y-118298496D01*
X147073953Y-118262782D01*
X147076149Y-118260901D01*
X147092620Y-118252557D01*
X147140238Y-118216842D01*
X147140605Y-118216278D01*
X147157642Y-118198445D01*
X147205261Y-118127017D01*
X147207433Y-118118097D01*
X147213334Y-118111066D01*
X147217857Y-118085414D01*
X147217857Y-117978271D01*
X147214717Y-117969646D01*
X147215727Y-117960522D01*
X147205261Y-117936669D01*
X147157642Y-117865240D01*
X147157098Y-117864840D01*
X147140238Y-117846842D01*
X147092619Y-117811128D01*
X147089852Y-117810288D01*
X147073953Y-117800903D01*
X146978715Y-117765189D01*
X146978328Y-117765185D01*
X146978033Y-117764937D01*
X146952381Y-117760414D01*
X146571429Y-117760414D01*
X146553120Y-117767077D01*
X146533929Y-117770462D01*
X146529578Y-117775646D01*
X146523220Y-117777961D01*
X146513477Y-117794834D01*
X146500952Y-117809762D01*
X146499234Y-117819504D01*
X146497568Y-117822390D01*
X146498146Y-117825672D01*
X146496429Y-117835414D01*
X146496429Y-118585414D01*
X146311426Y-118585414D01*
X146312916Y-118580232D01*
X146306631Y-118554954D01*
X145973298Y-117804954D01*
X145958880Y-117790004D01*
X145946661Y-117773209D01*
X145941427Y-117771907D01*
X145937684Y-117768026D01*
X145917026Y-117765840D01*
X145896874Y-117760830D01*
X145892030Y-117763196D01*
X145886666Y-117762629D01*
X145869435Y-117774235D01*
X145850778Y-117783350D01*
X145846521Y-117789668D01*
X145844115Y-117791290D01*
X145843136Y-117794695D01*
X145836226Y-117804954D01*
X145502893Y-118554954D01*
X145499348Y-118606134D01*
X145450370Y-118606134D01*
X145454813Y-118598438D01*
X145445904Y-118547914D01*
X145406604Y-118514937D01*
X145380952Y-118510414D01*
X144979762Y-118510414D01*
X144979762Y-117835414D01*
X144962215Y-117787205D01*
X144917786Y-117761553D01*
X144867262Y-117770462D01*
X144834285Y-117809762D01*
X144829762Y-117835414D01*
X144829762Y-118585414D01*
X144410714Y-118585414D01*
X144473571Y-118538271D01*
X144478943Y-118530038D01*
X144487319Y-118524893D01*
X144499722Y-118501988D01*
X144547341Y-118359132D01*
X144547296Y-118357496D01*
X144551190Y-118335414D01*
X144551190Y-118085414D01*
X144550630Y-118083876D01*
X144547341Y-118061696D01*
X144499722Y-117918840D01*
X144493612Y-117911141D01*
X144491379Y-117901567D01*
X144473571Y-117882557D01*
X144378333Y-117811128D01*
X144375566Y-117810288D01*
X144359667Y-117800903D01*
X144264429Y-117765189D01*
X144264042Y-117765185D01*
X144263747Y-117764937D01*
X144238095Y-117760414D01*
X144047619Y-117760414D01*
X144047256Y-117760545D01*
X144046892Y-117760417D01*
X144021285Y-117765189D01*
X143926047Y-117800903D01*
X143923849Y-117802783D01*
X143907381Y-117811128D01*
X143812143Y-117882557D01*
X143806770Y-117890788D01*
X143798394Y-117895935D01*
X143785992Y-117918840D01*
X143738373Y-118061697D01*
X143738417Y-118063331D01*
X143734524Y-118085414D01*
X143734524Y-118335414D01*
X143493559Y-118335414D01*
X143490975Y-118329525D01*
X143443356Y-118258097D01*
X143442809Y-118257695D01*
X143425952Y-118239700D01*
X143378334Y-118203985D01*
X143375565Y-118203145D01*
X143359667Y-118193760D01*
X143264429Y-118158046D01*
X143261106Y-118158013D01*
X143251916Y-118154556D01*
X143067852Y-118120044D01*
X142988779Y-118090390D01*
X142960040Y-118068836D01*
X142932143Y-118026990D01*
X142932143Y-118000978D01*
X142960039Y-117959134D01*
X142988780Y-117937578D01*
X143061220Y-117910414D01*
X143276480Y-117910414D01*
X143410381Y-117943889D01*
X143461407Y-117938558D01*
X143497068Y-117901677D01*
X143500679Y-117850501D01*
X143470551Y-117808977D01*
X143446761Y-117798367D01*
X143303904Y-117762653D01*
X143300455Y-117763013D01*
X143285714Y-117760414D01*
X143047619Y-117760414D01*
X143047256Y-117760545D01*
X143046892Y-117760417D01*
X143021285Y-117765189D01*
X142926047Y-117800903D01*
X142923848Y-117802784D01*
X142907382Y-117811128D01*
X142859762Y-117846842D01*
X142859392Y-117847408D01*
X142842358Y-117865240D01*
X142794739Y-117936669D01*
X142792566Y-117945586D01*
X142786666Y-117952619D01*
X142782143Y-117978271D01*
X142782143Y-118049700D01*
X142080901Y-118049700D01*
X142080901Y-117079176D01*
X143545187Y-117079176D01*
X143554096Y-117129700D01*
X143593396Y-117162677D01*
X143619048Y-117167200D01*
X144380953Y-117167200D01*
X144429162Y-117149653D01*
X144454814Y-117105224D01*
X144450221Y-117079176D01*
X145545187Y-117079176D01*
X145554096Y-117129700D01*
X145593396Y-117162677D01*
X145619048Y-117167200D01*
X145925000Y-117167200D01*
X145925000Y-117377914D01*
X145942547Y-117426123D01*
X145986976Y-117451775D01*
X146037500Y-117442866D01*
X146070477Y-117403566D01*
X146075000Y-117377914D01*
X146075000Y-117167200D01*
X146380953Y-117167200D01*
X146429162Y-117149653D01*
X146454814Y-117105224D01*
X146445905Y-117054700D01*
X146406605Y-117021723D01*
X146380953Y-117017200D01*
X146075000Y-117017200D01*
X146075000Y-116806485D01*
X146057453Y-116758276D01*
X146013024Y-116732624D01*
X145962500Y-116741533D01*
X145929523Y-116780833D01*
X145925000Y-116806485D01*
X145925000Y-117017200D01*
X145619048Y-117017200D01*
X145570839Y-117034747D01*
X145545187Y-117079176D01*
X144450221Y-117079176D01*
X144445905Y-117054700D01*
X144406605Y-117021723D01*
X144380953Y-117017200D01*
X143619048Y-117017200D01*
X143570839Y-117034747D01*
X143545187Y-117079176D01*
X142080901Y-117079176D01*
X142080901Y-116625481D01*
X147825000Y-116625481D01*
X147825000Y-119975057D01*
G37*
G36*
X133911220Y-119145078D02*
G01*
X133939959Y-119166632D01*
X133967857Y-119208478D01*
X133967857Y-119270204D01*
X133939959Y-119312051D01*
X133911217Y-119333607D01*
X133838780Y-119360771D01*
X133546429Y-119360771D01*
X133546429Y-119117914D01*
X133838780Y-119117914D01*
X133911220Y-119145078D01*
G37*
G36*
X131390926Y-118297358D02*
G01*
X131416149Y-118316275D01*
X131444047Y-118358121D01*
X131444047Y-118419847D01*
X131416149Y-118461694D01*
X131387407Y-118483250D01*
X131314970Y-118510414D01*
X131022619Y-118510414D01*
X131022619Y-118267557D01*
X131271718Y-118267557D01*
X131390926Y-118297358D01*
G37*
G36*
X131339791Y-117937578D02*
G01*
X131368530Y-117959132D01*
X131396428Y-118000978D01*
X131396428Y-118026990D01*
X131368529Y-118068837D01*
X131339789Y-118090392D01*
X131267350Y-118117557D01*
X131022619Y-118117557D01*
X131022619Y-117910414D01*
X131267351Y-117910414D01*
X131339791Y-117937578D01*
G37*
G36*
X132260783Y-118296128D02*
G01*
X132015407Y-118296128D01*
X132138095Y-118020080D01*
X132260783Y-118296128D01*
G37*
G36*
X135225000Y-119975057D02*
G01*
X129480901Y-119975057D01*
X129480901Y-119779890D01*
X129588044Y-119779890D01*
X129596953Y-119830414D01*
X129636253Y-119863391D01*
X129661905Y-119867914D01*
X129757143Y-119867914D01*
X129760400Y-119866728D01*
X129775333Y-119865675D01*
X129918190Y-119829961D01*
X129919810Y-119828866D01*
X129921765Y-119828973D01*
X129945000Y-119817200D01*
X130040238Y-119745771D01*
X130043636Y-119740563D01*
X130049222Y-119737835D01*
X130063774Y-119716231D01*
X130111393Y-119609089D01*
X130111581Y-119606368D01*
X130113334Y-119604280D01*
X130117857Y-119578628D01*
X130117857Y-119257200D01*
X130396429Y-119257200D01*
X130399568Y-119265824D01*
X130398559Y-119274950D01*
X130409025Y-119298803D01*
X130456644Y-119370231D01*
X130457187Y-119370630D01*
X130474048Y-119388628D01*
X130521668Y-119424342D01*
X130524434Y-119425180D01*
X130540332Y-119434567D01*
X130635570Y-119470281D01*
X130638889Y-119470313D01*
X130648083Y-119473772D01*
X130832148Y-119508284D01*
X130911217Y-119537934D01*
X130939959Y-119559490D01*
X130967856Y-119601337D01*
X130967856Y-119627347D01*
X130939959Y-119669194D01*
X130911217Y-119690750D01*
X130838780Y-119717914D01*
X130623520Y-119717914D01*
X130489619Y-119684439D01*
X130438594Y-119689770D01*
X130402932Y-119726651D01*
X130399321Y-119777827D01*
X130429450Y-119819351D01*
X130453239Y-119829961D01*
X130596096Y-119865675D01*
X130599544Y-119865314D01*
X130614286Y-119867914D01*
X130852381Y-119867914D01*
X130852743Y-119867782D01*
X130853108Y-119867911D01*
X130878715Y-119863139D01*
X130973953Y-119827425D01*
X130976149Y-119825544D01*
X130992620Y-119817200D01*
X131040238Y-119781485D01*
X131040605Y-119780921D01*
X131057642Y-119763088D01*
X131105261Y-119691660D01*
X131107433Y-119682740D01*
X131113334Y-119675709D01*
X131117857Y-119650057D01*
X131117857Y-119578628D01*
X131114717Y-119570003D01*
X131115727Y-119560878D01*
X131105261Y-119537025D01*
X131057642Y-119465597D01*
X131057095Y-119465195D01*
X131040238Y-119447200D01*
X130992620Y-119411485D01*
X130989851Y-119410645D01*
X130973953Y-119401260D01*
X130878715Y-119365546D01*
X130875392Y-119365513D01*
X130866202Y-119362056D01*
X130682138Y-119327544D01*
X130603065Y-119297890D01*
X130574326Y-119276336D01*
X130546429Y-119234490D01*
X130546429Y-119208478D01*
X130574325Y-119166634D01*
X130603066Y-119145078D01*
X130675506Y-119117914D01*
X130890766Y-119117914D01*
X131024667Y-119151389D01*
X131075693Y-119146058D01*
X131111354Y-119109177D01*
X131114965Y-119058001D01*
X131094569Y-119029890D01*
X131254711Y-119029890D01*
X131263620Y-119080414D01*
X131302920Y-119113391D01*
X131328572Y-119117914D01*
X131539286Y-119117914D01*
X131539286Y-119792914D01*
X131556833Y-119841123D01*
X131601262Y-119866775D01*
X131651786Y-119857866D01*
X131684763Y-119818566D01*
X131689286Y-119792914D01*
X133396429Y-119792914D01*
X133413976Y-119841123D01*
X133458405Y-119866775D01*
X133508929Y-119857866D01*
X133541906Y-119818566D01*
X133546429Y-119792914D01*
X134396429Y-119792914D01*
X134413976Y-119841123D01*
X134458405Y-119866775D01*
X134508929Y-119857866D01*
X134541906Y-119818566D01*
X134546429Y-119792914D01*
X134546429Y-119475057D01*
X134967857Y-119475057D01*
X134967857Y-119792914D01*
X134985404Y-119841123D01*
X135029833Y-119866775D01*
X135080357Y-119857866D01*
X135113334Y-119818566D01*
X135117857Y-119792914D01*
X135117857Y-119042914D01*
X135100310Y-118994705D01*
X135055881Y-118969053D01*
X135005357Y-118977962D01*
X134972380Y-119017262D01*
X134967857Y-119042914D01*
X134967857Y-119325057D01*
X134546429Y-119325057D01*
X134546429Y-119042914D01*
X134528882Y-118994705D01*
X134484453Y-118969053D01*
X134433929Y-118977962D01*
X134400952Y-119017262D01*
X134396429Y-119042914D01*
X134396429Y-119792914D01*
X133546429Y-119792914D01*
X133546429Y-119510771D01*
X133852381Y-119510771D01*
X133852743Y-119510639D01*
X133853108Y-119510768D01*
X133878715Y-119505996D01*
X133973953Y-119470282D01*
X133976149Y-119468401D01*
X133992620Y-119460057D01*
X134040238Y-119424342D01*
X134040605Y-119423778D01*
X134057642Y-119405945D01*
X134105261Y-119334517D01*
X134107433Y-119325597D01*
X134113334Y-119318566D01*
X134117857Y-119292914D01*
X134117857Y-119185771D01*
X134114717Y-119177146D01*
X134115727Y-119168022D01*
X134105261Y-119144169D01*
X134057642Y-119072740D01*
X134057098Y-119072340D01*
X134040238Y-119054342D01*
X133992619Y-119018628D01*
X133989852Y-119017788D01*
X133973953Y-119008403D01*
X133878715Y-118972689D01*
X133878328Y-118972685D01*
X133878033Y-118972437D01*
X133852381Y-118967914D01*
X133471429Y-118967914D01*
X133453120Y-118974577D01*
X133433929Y-118977962D01*
X133429578Y-118983146D01*
X133423220Y-118985461D01*
X133413477Y-119002334D01*
X133400952Y-119017262D01*
X133399234Y-119027004D01*
X133397568Y-119029890D01*
X133398146Y-119033172D01*
X133396429Y-119042914D01*
X133396429Y-119792914D01*
X131689286Y-119792914D01*
X131689286Y-119494176D01*
X132159473Y-119494176D01*
X132168382Y-119544700D01*
X132207682Y-119577677D01*
X132233334Y-119582200D01*
X132995239Y-119582200D01*
X133043448Y-119564653D01*
X133069100Y-119520224D01*
X133060191Y-119469700D01*
X133020891Y-119436723D01*
X132995239Y-119432200D01*
X132233334Y-119432200D01*
X132185125Y-119449747D01*
X132159473Y-119494176D01*
X131689286Y-119494176D01*
X131689286Y-119117914D01*
X131900000Y-119117914D01*
X131948209Y-119100367D01*
X131973861Y-119055938D01*
X131964952Y-119005414D01*
X131925652Y-118972437D01*
X131900000Y-118967914D01*
X131328572Y-118967914D01*
X131280363Y-118985461D01*
X131254711Y-119029890D01*
X131094569Y-119029890D01*
X131084837Y-119016477D01*
X131061047Y-119005867D01*
X130918190Y-118970153D01*
X130914741Y-118970513D01*
X130900000Y-118967914D01*
X130661905Y-118967914D01*
X130661542Y-118968045D01*
X130661178Y-118967917D01*
X130635571Y-118972689D01*
X130540333Y-119008403D01*
X130538134Y-119010284D01*
X130521668Y-119018628D01*
X130474048Y-119054342D01*
X130473678Y-119054908D01*
X130456644Y-119072740D01*
X130409025Y-119144169D01*
X130406852Y-119153086D01*
X130400952Y-119160119D01*
X130396429Y-119185771D01*
X130396429Y-119257200D01*
X130117857Y-119257200D01*
X130117857Y-119042914D01*
X130100310Y-118994705D01*
X130055881Y-118969053D01*
X130005357Y-118977962D01*
X129972380Y-119017262D01*
X129967857Y-119042914D01*
X129967857Y-119562712D01*
X129934627Y-119637479D01*
X129867116Y-119688112D01*
X129747909Y-119717914D01*
X129661905Y-119717914D01*
X129613696Y-119735461D01*
X129588044Y-119779890D01*
X129480901Y-119779890D01*
X129480901Y-118585414D01*
X130872619Y-118585414D01*
X130879282Y-118603722D01*
X130882667Y-118622914D01*
X130887851Y-118627264D01*
X130890166Y-118633623D01*
X130907039Y-118643365D01*
X130921967Y-118655891D01*
X130931709Y-118657608D01*
X130934595Y-118659275D01*
X130937877Y-118658696D01*
X130947619Y-118660414D01*
X131328571Y-118660414D01*
X131328933Y-118660282D01*
X131329298Y-118660411D01*
X131354905Y-118655639D01*
X131450143Y-118619925D01*
X131452339Y-118618044D01*
X131468810Y-118609700D01*
X131473564Y-118606134D01*
X131732681Y-118606134D01*
X131762863Y-118647620D01*
X131812650Y-118659998D01*
X131858746Y-118637478D01*
X131873298Y-118615874D01*
X131948741Y-118446128D01*
X132327449Y-118446128D01*
X132402892Y-118615874D01*
X132438506Y-118652802D01*
X132489524Y-118658199D01*
X132532075Y-118629538D01*
X132546249Y-118580232D01*
X132539964Y-118554954D01*
X132214380Y-117822390D01*
X132588044Y-117822390D01*
X132596953Y-117872914D01*
X132636253Y-117905891D01*
X132661905Y-117910414D01*
X132872619Y-117910414D01*
X132872619Y-118585414D01*
X132890166Y-118633623D01*
X132934595Y-118659275D01*
X132985119Y-118650366D01*
X133018096Y-118611066D01*
X133022619Y-118585414D01*
X133022619Y-117910414D01*
X133233333Y-117910414D01*
X133281542Y-117892867D01*
X133307194Y-117848438D01*
X133302601Y-117822390D01*
X133349949Y-117822390D01*
X133358858Y-117872914D01*
X133398158Y-117905891D01*
X133423810Y-117910414D01*
X133634524Y-117910414D01*
X133634524Y-118585414D01*
X133652071Y-118633623D01*
X133696500Y-118659275D01*
X133747024Y-118650366D01*
X133780001Y-118611066D01*
X133784524Y-118585414D01*
X133784524Y-117910414D01*
X133995238Y-117910414D01*
X134043447Y-117892867D01*
X134069099Y-117848438D01*
X134060190Y-117797914D01*
X134020890Y-117764937D01*
X133995238Y-117760414D01*
X133423810Y-117760414D01*
X133375601Y-117777961D01*
X133349949Y-117822390D01*
X133302601Y-117822390D01*
X133298285Y-117797914D01*
X133258985Y-117764937D01*
X133233333Y-117760414D01*
X132661905Y-117760414D01*
X132613696Y-117777961D01*
X132588044Y-117822390D01*
X132214380Y-117822390D01*
X132206631Y-117804954D01*
X132192213Y-117790004D01*
X132179994Y-117773209D01*
X132174760Y-117771907D01*
X132171017Y-117768026D01*
X132150359Y-117765840D01*
X132130207Y-117760830D01*
X132125363Y-117763196D01*
X132119999Y-117762629D01*
X132102768Y-117774235D01*
X132084111Y-117783350D01*
X132079854Y-117789668D01*
X132077448Y-117791290D01*
X132076469Y-117794695D01*
X132069559Y-117804954D01*
X131736226Y-118554954D01*
X131732681Y-118606134D01*
X131473564Y-118606134D01*
X131516428Y-118573985D01*
X131516795Y-118573421D01*
X131533832Y-118555588D01*
X131581451Y-118484160D01*
X131583623Y-118475240D01*
X131589524Y-118468209D01*
X131594047Y-118442557D01*
X131594047Y-118335414D01*
X131590907Y-118326789D01*
X131591917Y-118317665D01*
X131581451Y-118293812D01*
X131533832Y-118222383D01*
X131533288Y-118221983D01*
X131516428Y-118203985D01*
X131475865Y-118173563D01*
X131486213Y-118162731D01*
X131533832Y-118091303D01*
X131536004Y-118082383D01*
X131541905Y-118075352D01*
X131546428Y-118049700D01*
X131546428Y-117978271D01*
X131543288Y-117969646D01*
X131544298Y-117960522D01*
X131533832Y-117936669D01*
X131486213Y-117865240D01*
X131485669Y-117864840D01*
X131468809Y-117846842D01*
X131421190Y-117811128D01*
X131418423Y-117810288D01*
X131402524Y-117800903D01*
X131307286Y-117765189D01*
X131306899Y-117765185D01*
X131306604Y-117764937D01*
X131280952Y-117760414D01*
X130947619Y-117760414D01*
X130929310Y-117767077D01*
X130910119Y-117770462D01*
X130905768Y-117775646D01*
X130899410Y-117777961D01*
X130889667Y-117794834D01*
X130877142Y-117809762D01*
X130875424Y-117819504D01*
X130873758Y-117822390D01*
X130874336Y-117825672D01*
X130872619Y-117835414D01*
X130872619Y-118585414D01*
X129480901Y-118585414D01*
X129480901Y-117079176D01*
X130945187Y-117079176D01*
X130954096Y-117129700D01*
X130993396Y-117162677D01*
X131019048Y-117167200D01*
X131780953Y-117167200D01*
X131829162Y-117149653D01*
X131854814Y-117105224D01*
X131850221Y-117079176D01*
X132945187Y-117079176D01*
X132954096Y-117129700D01*
X132993396Y-117162677D01*
X133019048Y-117167200D01*
X133325000Y-117167200D01*
X133325000Y-117377914D01*
X133342547Y-117426123D01*
X133386976Y-117451775D01*
X133437500Y-117442866D01*
X133470477Y-117403566D01*
X133475000Y-117377914D01*
X133475000Y-117167200D01*
X133780953Y-117167200D01*
X133829162Y-117149653D01*
X133854814Y-117105224D01*
X133845905Y-117054700D01*
X133806605Y-117021723D01*
X133780953Y-117017200D01*
X133475000Y-117017200D01*
X133475000Y-116806485D01*
X133457453Y-116758276D01*
X133413024Y-116732624D01*
X133362500Y-116741533D01*
X133329523Y-116780833D01*
X133325000Y-116806485D01*
X133325000Y-117017200D01*
X133019048Y-117017200D01*
X132970839Y-117034747D01*
X132945187Y-117079176D01*
X131850221Y-117079176D01*
X131845905Y-117054700D01*
X131806605Y-117021723D01*
X131780953Y-117017200D01*
X131019048Y-117017200D01*
X130970839Y-117034747D01*
X130945187Y-117079176D01*
X129480901Y-117079176D01*
X129480901Y-116625481D01*
X135225000Y-116625481D01*
X135225000Y-119975057D01*
G37*
G36*
X137726168Y-115353695D02*
G01*
X137450121Y-115476383D01*
X137450121Y-115231008D01*
X137726168Y-115353695D01*
G37*
G36*
X138092978Y-118487081D02*
G01*
X136978692Y-118487081D01*
X136978692Y-118007339D01*
X137086974Y-118007339D01*
X137095883Y-118057863D01*
X137135183Y-118090840D01*
X137160835Y-118095363D01*
X137835835Y-118095363D01*
X137835835Y-118306077D01*
X137853382Y-118354286D01*
X137897811Y-118379938D01*
X137948335Y-118371029D01*
X137981312Y-118331729D01*
X137985835Y-118306077D01*
X137985835Y-117734649D01*
X137968288Y-117686440D01*
X137923859Y-117660788D01*
X137873335Y-117669697D01*
X137840358Y-117708997D01*
X137835835Y-117734649D01*
X137835835Y-117945363D01*
X137160835Y-117945363D01*
X137112626Y-117962910D01*
X137086974Y-118007339D01*
X136978692Y-118007339D01*
X136978692Y-117544172D01*
X137085835Y-117544172D01*
X137103382Y-117592381D01*
X137147811Y-117618033D01*
X137198335Y-117609124D01*
X137231312Y-117569824D01*
X137235835Y-117544172D01*
X137235835Y-117142982D01*
X137910835Y-117142982D01*
X137959044Y-117125435D01*
X137984696Y-117081006D01*
X137975787Y-117030482D01*
X137936487Y-116997505D01*
X137910835Y-116992982D01*
X137160835Y-116992982D01*
X137142526Y-116999645D01*
X137123335Y-117003030D01*
X137118984Y-117008214D01*
X137112626Y-117010529D01*
X137102883Y-117027402D01*
X137090358Y-117042330D01*
X137088640Y-117052072D01*
X137086974Y-117054958D01*
X137087552Y-117058240D01*
X137085835Y-117067982D01*
X137085835Y-117544172D01*
X136978692Y-117544172D01*
X136978692Y-116401315D01*
X137085835Y-116401315D01*
X137085966Y-116401677D01*
X137085838Y-116402043D01*
X137090610Y-116427650D01*
X137126325Y-116522887D01*
X137128206Y-116525085D01*
X137136550Y-116541553D01*
X137172264Y-116589172D01*
X137172827Y-116589539D01*
X137190661Y-116606576D01*
X137262089Y-116654195D01*
X137271008Y-116656367D01*
X137278040Y-116662268D01*
X137303692Y-116666791D01*
X137910835Y-116666791D01*
X137959044Y-116649244D01*
X137984696Y-116604815D01*
X137975787Y-116554291D01*
X137936487Y-116521314D01*
X137910835Y-116516791D01*
X137326401Y-116516791D01*
X137284554Y-116488892D01*
X137262999Y-116460152D01*
X137235835Y-116387713D01*
X137235835Y-116224440D01*
X137262999Y-116152001D01*
X137284554Y-116123261D01*
X137326401Y-116095363D01*
X137910835Y-116095363D01*
X137959044Y-116077816D01*
X137984696Y-116033387D01*
X137975787Y-115982863D01*
X137936487Y-115949886D01*
X137910835Y-115945363D01*
X137303692Y-115945363D01*
X137295067Y-115948502D01*
X137285942Y-115947493D01*
X137262089Y-115957959D01*
X137190661Y-116005578D01*
X137190259Y-116006124D01*
X137172264Y-116022982D01*
X137136550Y-116070601D01*
X137135710Y-116073370D01*
X137126325Y-116089267D01*
X137090610Y-116184504D01*
X137090606Y-116184891D01*
X137090358Y-116185187D01*
X137085835Y-116210839D01*
X137085835Y-116401315D01*
X136978692Y-116401315D01*
X136978692Y-115028251D01*
X137086251Y-115028251D01*
X137108771Y-115074347D01*
X137130375Y-115088899D01*
X137300121Y-115164341D01*
X137300121Y-115543050D01*
X137130375Y-115618493D01*
X137093447Y-115654107D01*
X137088050Y-115705125D01*
X137116711Y-115747676D01*
X137166017Y-115761850D01*
X137191295Y-115755565D01*
X137941295Y-115422232D01*
X137956244Y-115407814D01*
X137973040Y-115395595D01*
X137974341Y-115390361D01*
X137978223Y-115386618D01*
X137980408Y-115365960D01*
X137985419Y-115345808D01*
X137983052Y-115340964D01*
X137983620Y-115335600D01*
X137972013Y-115318369D01*
X137962899Y-115299712D01*
X137956580Y-115295455D01*
X137954959Y-115293049D01*
X137951553Y-115292070D01*
X137941295Y-115285160D01*
X137191295Y-114951827D01*
X137140115Y-114948282D01*
X137098629Y-114978464D01*
X137086251Y-115028251D01*
X136978692Y-115028251D01*
X136978692Y-114293053D01*
X137086974Y-114293053D01*
X137095883Y-114343577D01*
X137135183Y-114376554D01*
X137160835Y-114381077D01*
X137478692Y-114381077D01*
X137478692Y-114639410D01*
X137496239Y-114687619D01*
X137540668Y-114713271D01*
X137591192Y-114704362D01*
X137624169Y-114665062D01*
X137628692Y-114639410D01*
X137628692Y-114381077D01*
X137835835Y-114381077D01*
X137835835Y-114782267D01*
X137853382Y-114830476D01*
X137897811Y-114856128D01*
X137948335Y-114847219D01*
X137981312Y-114807919D01*
X137985835Y-114782267D01*
X137985835Y-114306077D01*
X137979171Y-114287768D01*
X137975787Y-114268577D01*
X137970602Y-114264226D01*
X137968288Y-114257868D01*
X137951414Y-114248125D01*
X137936487Y-114235600D01*
X137926744Y-114233882D01*
X137923859Y-114232216D01*
X137920576Y-114232794D01*
X137910835Y-114231077D01*
X137160835Y-114231077D01*
X137112626Y-114248624D01*
X137086974Y-114293053D01*
X136978692Y-114293053D01*
X136978692Y-114123934D01*
X138092978Y-114123934D01*
X138092978Y-118487081D01*
G37*
X147931228Y-103791792D02*
X147331228Y-104058459D01*
X147331228Y-104058459D02*
X147931228Y-104325125D01*
G36*
X153558009Y-109095238D02*
G01*
X153155895Y-109229276D01*
X153155895Y-108961199D01*
X153558009Y-109095238D01*
G37*
G36*
X153578528Y-106689812D02*
G01*
X153655515Y-106728306D01*
X153685922Y-106758713D01*
X153720180Y-106827228D01*
X153720180Y-106887057D01*
X153685922Y-106955572D01*
X153655514Y-106985980D01*
X153578528Y-107024473D01*
X153404994Y-107067857D01*
X153185367Y-107067857D01*
X153011833Y-107024473D01*
X152934846Y-106985980D01*
X152904438Y-106955572D01*
X152870180Y-106887055D01*
X152870180Y-106827230D01*
X152904438Y-106758713D01*
X152934845Y-106728306D01*
X153011832Y-106689812D01*
X153185367Y-106646429D01*
X153404994Y-106646429D01*
X153578528Y-106689812D01*
G37*
G36*
X154013037Y-109646400D02*
G01*
X152577323Y-109646400D01*
X152577323Y-109439572D01*
X152720991Y-109439572D01*
X152745420Y-109484686D01*
X152793131Y-109503543D01*
X152818897Y-109499722D01*
X153818897Y-109166389D01*
X153820588Y-109165046D01*
X153822746Y-109164988D01*
X153840498Y-109149246D01*
X153859083Y-109134498D01*
X153859515Y-109132383D01*
X153861132Y-109130950D01*
X153864611Y-109107481D01*
X153869369Y-109084237D01*
X153868340Y-109082337D01*
X153868657Y-109080202D01*
X153856236Y-109059984D01*
X153844940Y-109039123D01*
X153842932Y-109038329D01*
X153841802Y-109036489D01*
X153818897Y-109024087D01*
X152818897Y-108690754D01*
X152767613Y-108692155D01*
X152729228Y-108726192D01*
X152721703Y-108776941D01*
X152748558Y-108820653D01*
X152771463Y-108833056D01*
X153005895Y-108911199D01*
X153005895Y-109279276D01*
X152771463Y-109357420D01*
X152731277Y-109389311D01*
X152720991Y-109439572D01*
X152577323Y-109439572D01*
X152577323Y-108415548D01*
X152721319Y-108415548D01*
X152730228Y-108466072D01*
X152769528Y-108499049D01*
X152795180Y-108503572D01*
X153318990Y-108503572D01*
X153323203Y-108502038D01*
X153327564Y-108503080D01*
X153352531Y-108495654D01*
X153447769Y-108448035D01*
X153455488Y-108439881D01*
X153465793Y-108435415D01*
X153481310Y-108414494D01*
X153528929Y-108319255D01*
X153529441Y-108314801D01*
X153532324Y-108311366D01*
X153536847Y-108285714D01*
X153536847Y-108142857D01*
X153535313Y-108138643D01*
X153536355Y-108134282D01*
X153528929Y-108109316D01*
X153481310Y-108014078D01*
X153473156Y-108006358D01*
X153470573Y-108000398D01*
X153481310Y-107985922D01*
X153528929Y-107890684D01*
X153529441Y-107886230D01*
X153532324Y-107882795D01*
X153536847Y-107857143D01*
X153536847Y-107714286D01*
X153535313Y-107710072D01*
X153536355Y-107705711D01*
X153528929Y-107680745D01*
X153504084Y-107631055D01*
X153510056Y-107628882D01*
X153535708Y-107584453D01*
X153526799Y-107533929D01*
X153487499Y-107500952D01*
X153461847Y-107496429D01*
X152795180Y-107496429D01*
X152746971Y-107513976D01*
X152721319Y-107558405D01*
X152730228Y-107608929D01*
X152769528Y-107641906D01*
X152795180Y-107646429D01*
X153335543Y-107646429D01*
X153352588Y-107663474D01*
X153386847Y-107731990D01*
X153386847Y-107839437D01*
X153358326Y-107896479D01*
X153301285Y-107925000D01*
X152795180Y-107925000D01*
X152746971Y-107942547D01*
X152721319Y-107986976D01*
X152730228Y-108037500D01*
X152769528Y-108070477D01*
X152795180Y-108075000D01*
X153301285Y-108075000D01*
X153358326Y-108103520D01*
X153386847Y-108160561D01*
X153386847Y-108268009D01*
X153358326Y-108325051D01*
X153301285Y-108353572D01*
X152795180Y-108353572D01*
X152746971Y-108371119D01*
X152721319Y-108415548D01*
X152577323Y-108415548D01*
X152577323Y-106904762D01*
X152720180Y-106904762D01*
X152721713Y-106908975D01*
X152720672Y-106913337D01*
X152728098Y-106938304D01*
X152775718Y-107033542D01*
X152776909Y-107034669D01*
X152789767Y-107053033D01*
X152837386Y-107100652D01*
X152838867Y-107101343D01*
X152856878Y-107114701D01*
X152952116Y-107162320D01*
X152955644Y-107162726D01*
X152967467Y-107167999D01*
X153157943Y-107215618D01*
X153161391Y-107215257D01*
X153176133Y-107217857D01*
X153414228Y-107217857D01*
X153417485Y-107216671D01*
X153432418Y-107215618D01*
X153622894Y-107167999D01*
X153625838Y-107166010D01*
X153638245Y-107162320D01*
X153733483Y-107114701D01*
X153734608Y-107113511D01*
X153752975Y-107100652D01*
X153800594Y-107053033D01*
X153801285Y-107051551D01*
X153814643Y-107033541D01*
X153862262Y-106938303D01*
X153862774Y-106933849D01*
X153865657Y-106930414D01*
X153870180Y-106904762D01*
X153870180Y-106809524D01*
X153868646Y-106805310D01*
X153869688Y-106800949D01*
X153862262Y-106775983D01*
X153814643Y-106680745D01*
X153813453Y-106679619D01*
X153800594Y-106661253D01*
X153752975Y-106613634D01*
X153751493Y-106612943D01*
X153733483Y-106599585D01*
X153638245Y-106551966D01*
X153634716Y-106551559D01*
X153622894Y-106546287D01*
X153432418Y-106498668D01*
X153428969Y-106499028D01*
X153414228Y-106496429D01*
X153176133Y-106496429D01*
X153172875Y-106497614D01*
X153157943Y-106498668D01*
X152967467Y-106546287D01*
X152964522Y-106548275D01*
X152952116Y-106551966D01*
X152856878Y-106599585D01*
X152855752Y-106600774D01*
X152837386Y-106613634D01*
X152789767Y-106661253D01*
X152789075Y-106662735D01*
X152775718Y-106680744D01*
X152728098Y-106775982D01*
X152727585Y-106780436D01*
X152724703Y-106783872D01*
X152720180Y-106809524D01*
X152720180Y-106904762D01*
X152577323Y-106904762D01*
X152577323Y-106000000D01*
X152720180Y-106000000D01*
X152721713Y-106004213D01*
X152720672Y-106008575D01*
X152728098Y-106033542D01*
X152775718Y-106128780D01*
X152776909Y-106129907D01*
X152789767Y-106148271D01*
X152837386Y-106195890D01*
X152838867Y-106196581D01*
X152856878Y-106209939D01*
X152952116Y-106257558D01*
X152956569Y-106258070D01*
X152960005Y-106260953D01*
X152985657Y-106265476D01*
X153223752Y-106265476D01*
X153227965Y-106263942D01*
X153232326Y-106264984D01*
X153257293Y-106257558D01*
X153352531Y-106209939D01*
X153353656Y-106208749D01*
X153372023Y-106195890D01*
X153419642Y-106148271D01*
X153420333Y-106146789D01*
X153433691Y-106128779D01*
X153481310Y-106033541D01*
X153481822Y-106029087D01*
X153484705Y-106025652D01*
X153489228Y-106000000D01*
X153489228Y-105761905D01*
X153487694Y-105757691D01*
X153488736Y-105753330D01*
X153481310Y-105728364D01*
X153471989Y-105709722D01*
X153720180Y-105734541D01*
X153720180Y-106142857D01*
X153737727Y-106191066D01*
X153782156Y-106216718D01*
X153832680Y-106207809D01*
X153865657Y-106168509D01*
X153870180Y-106142857D01*
X153870180Y-105666667D01*
X153864732Y-105651699D01*
X153863541Y-105635816D01*
X153856218Y-105628309D01*
X153852633Y-105618458D01*
X153838839Y-105610494D01*
X153827717Y-105599092D01*
X153810896Y-105594360D01*
X153808204Y-105592806D01*
X153806461Y-105593113D01*
X153802643Y-105592039D01*
X153326453Y-105544420D01*
X153325972Y-105544542D01*
X153325526Y-105544334D01*
X153301166Y-105550860D01*
X153276737Y-105557083D01*
X153276449Y-105557483D01*
X153275972Y-105557611D01*
X153261523Y-105578245D01*
X153246791Y-105598739D01*
X153246828Y-105599232D01*
X153246545Y-105599637D01*
X153248741Y-105624740D01*
X153250629Y-105649899D01*
X153250974Y-105650252D01*
X153251017Y-105650744D01*
X153265957Y-105672081D01*
X153304970Y-105711094D01*
X153339228Y-105779610D01*
X153339228Y-105982295D01*
X153304970Y-106050810D01*
X153274562Y-106081218D01*
X153206047Y-106115476D01*
X153003362Y-106115476D01*
X152934846Y-106081217D01*
X152904438Y-106050810D01*
X152870180Y-105982293D01*
X152870180Y-105779611D01*
X152904438Y-105711094D01*
X152943452Y-105672081D01*
X152965133Y-105625585D01*
X152951856Y-105576030D01*
X152909830Y-105546604D01*
X152858723Y-105551075D01*
X152837386Y-105566015D01*
X152789767Y-105613634D01*
X152789075Y-105615116D01*
X152775718Y-105633125D01*
X152728098Y-105728363D01*
X152727585Y-105732817D01*
X152724703Y-105736253D01*
X152720180Y-105761905D01*
X152720180Y-106000000D01*
X152577323Y-106000000D01*
X152577323Y-104866025D01*
X152720708Y-104866025D01*
X152743840Y-104911817D01*
X152765636Y-104926079D01*
X153765636Y-105354650D01*
X153774481Y-105355144D01*
X153782156Y-105359575D01*
X153799390Y-105356535D01*
X153816859Y-105357512D01*
X153823952Y-105352204D01*
X153832680Y-105350666D01*
X153843928Y-105337260D01*
X153857938Y-105326780D01*
X153859960Y-105318154D01*
X153865657Y-105311366D01*
X153870180Y-105285714D01*
X153870180Y-104619048D01*
X153852633Y-104570839D01*
X153808204Y-104545187D01*
X153757680Y-104554096D01*
X153724703Y-104593396D01*
X153720180Y-104619048D01*
X153720180Y-105171973D01*
X152824724Y-104788207D01*
X152773501Y-104785345D01*
X152732421Y-104816077D01*
X152720708Y-104866025D01*
X152577323Y-104866025D01*
X152577323Y-104402330D01*
X154013037Y-104402330D01*
X154013037Y-109646400D01*
G37*
G36*
X101346753Y-114051108D02*
G01*
X101371976Y-114070025D01*
X101399874Y-114111871D01*
X101399874Y-114173597D01*
X101371976Y-114215444D01*
X101343234Y-114237000D01*
X101270797Y-114264164D01*
X100978446Y-114264164D01*
X100978446Y-114021307D01*
X101227545Y-114021307D01*
X101346753Y-114051108D01*
G37*
G36*
X101295618Y-113691328D02*
G01*
X101324357Y-113712882D01*
X101352255Y-113754728D01*
X101352255Y-113780740D01*
X101324356Y-113822587D01*
X101295616Y-113844142D01*
X101223177Y-113871307D01*
X100978446Y-113871307D01*
X100978446Y-113664164D01*
X101223178Y-113664164D01*
X101295618Y-113691328D01*
G37*
G36*
X99581332Y-113691328D02*
G01*
X99610071Y-113712882D01*
X99637969Y-113754728D01*
X99637969Y-113816454D01*
X99610071Y-113858301D01*
X99581329Y-113879857D01*
X99508892Y-113907021D01*
X99216541Y-113907021D01*
X99216541Y-113664164D01*
X99508892Y-113664164D01*
X99581332Y-113691328D01*
G37*
G36*
X103418922Y-114521307D02*
G01*
X96054636Y-114521307D01*
X96054636Y-114196307D01*
X96161779Y-114196307D01*
X96164918Y-114204931D01*
X96163909Y-114214057D01*
X96174375Y-114237910D01*
X96221994Y-114309338D01*
X96222540Y-114309739D01*
X96239397Y-114327735D01*
X96287016Y-114363449D01*
X96289781Y-114364287D01*
X96305683Y-114373675D01*
X96400921Y-114409389D01*
X96401307Y-114409392D01*
X96401603Y-114409641D01*
X96427255Y-114414164D01*
X96617731Y-114414164D01*
X96618093Y-114414032D01*
X96618458Y-114414161D01*
X96644065Y-114409389D01*
X96739303Y-114373675D01*
X96741499Y-114371794D01*
X96757970Y-114363450D01*
X96805588Y-114327735D01*
X96805955Y-114327171D01*
X96822992Y-114309338D01*
X96870611Y-114237910D01*
X96872783Y-114228990D01*
X96878684Y-114221959D01*
X96883207Y-114196307D01*
X96883207Y-113803450D01*
X97161779Y-113803450D01*
X97164918Y-113812074D01*
X97163909Y-113821200D01*
X97174375Y-113845053D01*
X97221994Y-113916481D01*
X97222537Y-113916880D01*
X97239398Y-113934878D01*
X97287018Y-113970592D01*
X97289784Y-113971430D01*
X97305682Y-113980817D01*
X97400920Y-114016531D01*
X97404239Y-114016563D01*
X97413433Y-114020022D01*
X97597498Y-114054534D01*
X97676567Y-114084184D01*
X97705309Y-114105740D01*
X97733207Y-114147587D01*
X97733207Y-114173597D01*
X97705309Y-114215444D01*
X97676567Y-114237000D01*
X97604130Y-114264164D01*
X97388870Y-114264164D01*
X97254969Y-114230689D01*
X97203944Y-114236020D01*
X97168282Y-114272901D01*
X97164671Y-114324077D01*
X97194800Y-114365601D01*
X97218589Y-114376211D01*
X97361446Y-114411925D01*
X97364894Y-114411564D01*
X97379636Y-114414164D01*
X97617731Y-114414164D01*
X97618093Y-114414032D01*
X97618458Y-114414161D01*
X97644065Y-114409389D01*
X97739303Y-114373675D01*
X97741499Y-114371794D01*
X97757970Y-114363450D01*
X97790350Y-114339164D01*
X98161779Y-114339164D01*
X98168442Y-114357472D01*
X98171827Y-114376664D01*
X98177011Y-114381014D01*
X98179326Y-114387373D01*
X98196199Y-114397115D01*
X98211127Y-114409641D01*
X98220869Y-114411358D01*
X98223755Y-114413025D01*
X98227037Y-114412446D01*
X98236779Y-114414164D01*
X98712969Y-114414164D01*
X98761178Y-114396617D01*
X98786830Y-114352188D01*
X98784533Y-114339164D01*
X99066541Y-114339164D01*
X99084088Y-114387373D01*
X99128517Y-114413025D01*
X99179041Y-114404116D01*
X99212018Y-114364816D01*
X99216541Y-114339164D01*
X99216541Y-114057021D01*
X99347045Y-114057021D01*
X99658140Y-114390337D01*
X99703861Y-114413608D01*
X99753844Y-114402047D01*
X99784701Y-114361060D01*
X99783544Y-114339164D01*
X100828446Y-114339164D01*
X100835109Y-114357472D01*
X100838494Y-114376664D01*
X100843678Y-114381014D01*
X100845993Y-114387373D01*
X100862866Y-114397115D01*
X100877794Y-114409641D01*
X100887536Y-114411358D01*
X100890422Y-114413025D01*
X100893704Y-114412446D01*
X100903446Y-114414164D01*
X101284398Y-114414164D01*
X101284760Y-114414032D01*
X101285125Y-114414161D01*
X101310732Y-114409389D01*
X101405970Y-114373675D01*
X101408166Y-114371794D01*
X101424637Y-114363450D01*
X101472255Y-114327735D01*
X101472622Y-114327171D01*
X101489659Y-114309338D01*
X101537278Y-114237910D01*
X101539450Y-114228990D01*
X101545351Y-114221959D01*
X101549874Y-114196307D01*
X101549874Y-114089164D01*
X101546734Y-114080539D01*
X101547744Y-114071415D01*
X101537278Y-114047562D01*
X101489659Y-113976133D01*
X101489115Y-113975733D01*
X101472255Y-113957735D01*
X101431692Y-113927313D01*
X101442040Y-113916481D01*
X101489659Y-113845053D01*
X101491831Y-113836133D01*
X101497732Y-113829102D01*
X101502255Y-113803450D01*
X101502255Y-113732021D01*
X101499115Y-113723396D01*
X101500125Y-113714272D01*
X101489659Y-113690419D01*
X101442040Y-113618990D01*
X101441496Y-113618590D01*
X101424636Y-113600592D01*
X101392033Y-113576140D01*
X101686728Y-113576140D01*
X101695637Y-113626664D01*
X101734937Y-113659641D01*
X101760589Y-113664164D01*
X101971303Y-113664164D01*
X101971303Y-114339164D01*
X101988850Y-114387373D01*
X102033279Y-114413025D01*
X102083803Y-114404116D01*
X102116780Y-114364816D01*
X102121303Y-114339164D01*
X102590351Y-114339164D01*
X102607898Y-114387373D01*
X102652327Y-114413025D01*
X102702851Y-114404116D01*
X102735828Y-114364816D01*
X102740351Y-114339164D01*
X102740351Y-113811354D01*
X103177122Y-114384617D01*
X103178688Y-114385622D01*
X103179326Y-114387373D01*
X103200114Y-114399375D01*
X103220296Y-114412330D01*
X103222141Y-114412093D01*
X103223755Y-114413025D01*
X103247378Y-114408859D01*
X103271182Y-114405809D01*
X103272445Y-114404439D01*
X103274279Y-114404116D01*
X103289703Y-114385733D01*
X103305971Y-114368102D01*
X103306058Y-114366243D01*
X103307256Y-114364816D01*
X103311779Y-114339164D01*
X103311779Y-113589164D01*
X103294232Y-113540955D01*
X103249803Y-113515303D01*
X103199279Y-113524212D01*
X103166302Y-113563512D01*
X103161779Y-113589164D01*
X103161779Y-114116973D01*
X102725008Y-113543711D01*
X102723441Y-113542705D01*
X102722804Y-113540955D01*
X102702015Y-113528952D01*
X102681834Y-113515998D01*
X102679988Y-113516234D01*
X102678375Y-113515303D01*
X102654751Y-113519468D01*
X102630948Y-113522519D01*
X102629684Y-113523888D01*
X102627851Y-113524212D01*
X102612426Y-113542594D01*
X102596159Y-113560226D01*
X102596071Y-113562084D01*
X102594874Y-113563512D01*
X102590351Y-113589164D01*
X102590351Y-114339164D01*
X102121303Y-114339164D01*
X102121303Y-113664164D01*
X102332017Y-113664164D01*
X102380226Y-113646617D01*
X102405878Y-113602188D01*
X102396969Y-113551664D01*
X102357669Y-113518687D01*
X102332017Y-113514164D01*
X101760589Y-113514164D01*
X101712380Y-113531711D01*
X101686728Y-113576140D01*
X101392033Y-113576140D01*
X101377017Y-113564878D01*
X101374250Y-113564038D01*
X101358351Y-113554653D01*
X101263113Y-113518939D01*
X101262726Y-113518935D01*
X101262431Y-113518687D01*
X101236779Y-113514164D01*
X100903446Y-113514164D01*
X100885137Y-113520827D01*
X100865946Y-113524212D01*
X100861595Y-113529396D01*
X100855237Y-113531711D01*
X100845494Y-113548584D01*
X100832969Y-113563512D01*
X100831251Y-113573254D01*
X100829585Y-113576140D01*
X100830163Y-113579422D01*
X100828446Y-113589164D01*
X100828446Y-114339164D01*
X99783544Y-114339164D01*
X99781994Y-114309829D01*
X99767798Y-114287990D01*
X99547927Y-114052413D01*
X99548827Y-114052246D01*
X99644065Y-114016532D01*
X99646261Y-114014651D01*
X99662732Y-114006307D01*
X99710350Y-113970592D01*
X99710717Y-113970028D01*
X99727754Y-113952195D01*
X99775373Y-113880767D01*
X99777545Y-113871847D01*
X99783446Y-113864816D01*
X99787969Y-113839164D01*
X99787969Y-113732021D01*
X99784829Y-113723396D01*
X99785839Y-113714272D01*
X99775373Y-113690419D01*
X99727754Y-113618990D01*
X99727210Y-113618590D01*
X99710350Y-113600592D01*
X99662731Y-113564878D01*
X99659964Y-113564038D01*
X99644065Y-113554653D01*
X99548827Y-113518939D01*
X99548440Y-113518935D01*
X99548145Y-113518687D01*
X99522493Y-113514164D01*
X99141541Y-113514164D01*
X99123232Y-113520827D01*
X99104041Y-113524212D01*
X99099690Y-113529396D01*
X99093332Y-113531711D01*
X99083589Y-113548584D01*
X99071064Y-113563512D01*
X99069346Y-113573254D01*
X99067680Y-113576140D01*
X99068258Y-113579422D01*
X99066541Y-113589164D01*
X99066541Y-114339164D01*
X98784533Y-114339164D01*
X98777921Y-114301664D01*
X98738621Y-114268687D01*
X98712969Y-114264164D01*
X98311779Y-114264164D01*
X98311779Y-114021307D01*
X98570112Y-114021307D01*
X98618321Y-114003760D01*
X98643973Y-113959331D01*
X98635064Y-113908807D01*
X98595764Y-113875830D01*
X98570112Y-113871307D01*
X98311779Y-113871307D01*
X98311779Y-113664164D01*
X98712969Y-113664164D01*
X98761178Y-113646617D01*
X98786830Y-113602188D01*
X98777921Y-113551664D01*
X98738621Y-113518687D01*
X98712969Y-113514164D01*
X98236779Y-113514164D01*
X98218470Y-113520827D01*
X98199279Y-113524212D01*
X98194928Y-113529396D01*
X98188570Y-113531711D01*
X98178827Y-113548584D01*
X98166302Y-113563512D01*
X98164584Y-113573254D01*
X98162918Y-113576140D01*
X98163496Y-113579422D01*
X98161779Y-113589164D01*
X98161779Y-114339164D01*
X97790350Y-114339164D01*
X97805588Y-114327735D01*
X97805955Y-114327171D01*
X97822992Y-114309338D01*
X97870611Y-114237910D01*
X97872783Y-114228990D01*
X97878684Y-114221959D01*
X97883207Y-114196307D01*
X97883207Y-114124878D01*
X97880067Y-114116253D01*
X97881077Y-114107128D01*
X97870611Y-114083275D01*
X97822992Y-114011847D01*
X97822445Y-114011445D01*
X97805588Y-113993450D01*
X97757970Y-113957735D01*
X97755201Y-113956895D01*
X97739303Y-113947510D01*
X97644065Y-113911796D01*
X97640742Y-113911763D01*
X97631552Y-113908306D01*
X97447488Y-113873794D01*
X97368415Y-113844140D01*
X97339676Y-113822586D01*
X97311779Y-113780740D01*
X97311779Y-113754728D01*
X97339675Y-113712884D01*
X97368416Y-113691328D01*
X97440856Y-113664164D01*
X97656116Y-113664164D01*
X97790017Y-113697639D01*
X97841043Y-113692308D01*
X97876704Y-113655427D01*
X97880315Y-113604251D01*
X97850187Y-113562727D01*
X97826397Y-113552117D01*
X97683540Y-113516403D01*
X97680091Y-113516763D01*
X97665350Y-113514164D01*
X97427255Y-113514164D01*
X97426892Y-113514295D01*
X97426528Y-113514167D01*
X97400921Y-113518939D01*
X97305683Y-113554653D01*
X97303484Y-113556534D01*
X97287018Y-113564878D01*
X97239398Y-113600592D01*
X97239028Y-113601158D01*
X97221994Y-113618990D01*
X97174375Y-113690419D01*
X97172202Y-113699336D01*
X97166302Y-113706369D01*
X97161779Y-113732021D01*
X97161779Y-113803450D01*
X96883207Y-113803450D01*
X96883207Y-113589164D01*
X96865660Y-113540955D01*
X96821231Y-113515303D01*
X96770707Y-113524212D01*
X96737730Y-113563512D01*
X96733207Y-113589164D01*
X96733207Y-114173597D01*
X96705309Y-114215444D01*
X96676567Y-114237000D01*
X96604130Y-114264164D01*
X96440856Y-114264164D01*
X96368416Y-114236999D01*
X96339675Y-114215443D01*
X96311779Y-114173597D01*
X96311779Y-113589164D01*
X96294232Y-113540955D01*
X96249803Y-113515303D01*
X96199279Y-113524212D01*
X96166302Y-113563512D01*
X96161779Y-113589164D01*
X96161779Y-114196307D01*
X96054636Y-114196307D01*
X96054636Y-113407021D01*
X103418922Y-113407021D01*
X103418922Y-114521307D01*
G37*
D12*
X119659119Y-114675888D02*
X118742514Y-115754948D01*
X118742514Y-115754948D02*
X120135310Y-115500674D01*
X119885371Y-117734435D02*
X119313943Y-116744692D01*
X119599657Y-117239563D02*
X121331708Y-116239563D01*
X121331708Y-116239563D02*
X120989034Y-116217463D01*
X120989034Y-116217463D02*
X120728838Y-116147744D01*
X120728838Y-116147744D02*
X120551122Y-116030406D01*
X120478900Y-118381505D02*
X120444040Y-118511602D01*
X120444040Y-118511602D02*
X120313943Y-118476743D01*
X120313943Y-118476743D02*
X120348802Y-118346645D01*
X120348802Y-118346645D02*
X120478900Y-118381505D01*
X120478900Y-118381505D02*
X120313943Y-118476743D01*
X122309608Y-118314288D02*
X122439705Y-118349148D01*
X122439705Y-118349148D02*
X122617422Y-118466486D01*
X122617422Y-118466486D02*
X122855517Y-118878879D01*
X122855517Y-118878879D02*
X122868277Y-119091455D01*
X122868277Y-119091455D02*
X122833417Y-119221553D01*
X122833417Y-119221553D02*
X122716079Y-119399270D01*
X122716079Y-119399270D02*
X122551122Y-119494508D01*
X122551122Y-119494508D02*
X122256067Y-119554886D01*
X122256067Y-119554886D02*
X120694895Y-119136572D01*
X120694895Y-119136572D02*
X121313943Y-120208794D01*
D13*
X115003671Y-102193394D02*
X117601748Y-100693394D01*
X117601748Y-100693394D02*
X118173176Y-101683137D01*
X118173176Y-101683137D02*
X118192315Y-102002002D01*
X118192315Y-102002002D02*
X118140026Y-102197148D01*
X118140026Y-102197148D02*
X117964019Y-102463723D01*
X117964019Y-102463723D02*
X117592865Y-102678009D01*
X117592865Y-102678009D02*
X117274001Y-102697148D01*
X117274001Y-102697148D02*
X117078854Y-102644859D01*
X117078854Y-102644859D02*
X116812279Y-102468852D01*
X116812279Y-102468852D02*
X116240850Y-101479108D01*
X116503671Y-104791470D02*
X118235722Y-103791470D01*
X119101748Y-103291470D02*
X118906601Y-103239181D01*
X118906601Y-103239181D02*
X118854312Y-103434327D01*
X118854312Y-103434327D02*
X119049458Y-103486617D01*
X119049458Y-103486617D02*
X119101748Y-103291470D01*
X119101748Y-103291470D02*
X118854312Y-103434327D01*
X117984532Y-107070682D02*
X117717957Y-106894674D01*
X117717957Y-106894674D02*
X117432243Y-106399803D01*
X117432243Y-106399803D02*
X117413103Y-106080938D01*
X117413103Y-106080938D02*
X117465393Y-105885792D01*
X117465393Y-105885792D02*
X117641400Y-105619217D01*
X117641400Y-105619217D02*
X118383707Y-105190645D01*
X118383707Y-105190645D02*
X118702572Y-105171506D01*
X118702572Y-105171506D02*
X118897718Y-105223796D01*
X118897718Y-105223796D02*
X119164293Y-105399803D01*
X119164293Y-105399803D02*
X119450008Y-105894674D01*
X119450008Y-105894674D02*
X119469147Y-106213539D01*
X118717957Y-108626726D02*
X118698818Y-108307861D01*
X118698818Y-108307861D02*
X118751107Y-108112715D01*
X118751107Y-108112715D02*
X118927114Y-107846140D01*
X118927114Y-107846140D02*
X119669422Y-107417568D01*
X119669422Y-107417568D02*
X119988286Y-107398429D01*
X119988286Y-107398429D02*
X120183433Y-107450718D01*
X120183433Y-107450718D02*
X120450008Y-107626726D01*
X120450008Y-107626726D02*
X120664294Y-107997879D01*
X120664294Y-107997879D02*
X120683433Y-108316744D01*
X120683433Y-108316744D02*
X120631143Y-108511890D01*
X120631143Y-108511890D02*
X120455136Y-108778465D01*
X120455136Y-108778465D02*
X119712829Y-109207037D01*
X119712829Y-109207037D02*
X119393964Y-109226176D01*
X119393964Y-109226176D02*
X119198818Y-109173887D01*
X119198818Y-109173887D02*
X118932243Y-108997879D01*
X118932243Y-108997879D02*
X118717957Y-108626726D01*
X122458891Y-109106213D02*
X120355686Y-110320498D01*
X120355686Y-110320498D02*
X120179679Y-110587073D01*
X120179679Y-110587073D02*
X120127389Y-110782220D01*
X120127389Y-110782220D02*
X120146529Y-111101084D01*
X120146529Y-111101084D02*
X120432243Y-111595956D01*
X120432243Y-111595956D02*
X120698818Y-111771963D01*
X120698818Y-111771963D02*
X120893964Y-111824252D01*
X120893964Y-111824252D02*
X121212829Y-111805113D01*
X121212829Y-111805113D02*
X123316033Y-110590828D01*
X121432243Y-113328007D02*
X124030319Y-111828007D01*
X124030319Y-111828007D02*
X124601748Y-112817750D01*
X124601748Y-112817750D02*
X124620887Y-113136614D01*
X124620887Y-113136614D02*
X124568597Y-113331761D01*
X124568597Y-113331761D02*
X124392590Y-113598336D01*
X124392590Y-113598336D02*
X124021436Y-113812622D01*
X124021436Y-113812622D02*
X123702572Y-113831761D01*
X123702572Y-113831761D02*
X123507426Y-113779471D01*
X123507426Y-113779471D02*
X123240851Y-113603464D01*
X123240851Y-113603464D02*
X122669422Y-112613721D01*
X122984532Y-115730936D02*
X123075100Y-116173519D01*
X123075100Y-116173519D02*
X123432243Y-116792108D01*
X123432243Y-116792108D02*
X123698818Y-116968115D01*
X123698818Y-116968115D02*
X123893964Y-117020405D01*
X123893964Y-117020405D02*
X124212829Y-117001266D01*
X124212829Y-117001266D02*
X124460265Y-116858408D01*
X124460265Y-116858408D02*
X124636272Y-116591833D01*
X124636272Y-116591833D02*
X124688561Y-116396687D01*
X124688561Y-116396687D02*
X124669422Y-116077822D01*
X124669422Y-116077822D02*
X124507426Y-115511522D01*
X124507426Y-115511522D02*
X124488286Y-115192658D01*
X124488286Y-115192658D02*
X124540576Y-114997511D01*
X124540576Y-114997511D02*
X124716583Y-114730936D01*
X124716583Y-114730936D02*
X124964019Y-114588079D01*
X124964019Y-114588079D02*
X125282883Y-114568940D01*
X125282883Y-114568940D02*
X125478030Y-114621229D01*
X125478030Y-114621229D02*
X125744605Y-114797237D01*
X125744605Y-114797237D02*
X126101748Y-115415826D01*
X126101748Y-115415826D02*
X126192315Y-115858408D01*
D14*
%TO.C,JP1*%
X95900000Y-113700000D02*
X95900000Y-114300000D01*
X95200000Y-115000000D02*
X93800000Y-115000000D01*
X93800000Y-113000000D02*
X95200000Y-113000000D01*
X93100000Y-114300000D02*
X93100000Y-113700000D01*
X95200000Y-115000000D02*
G75*
G03*
X95900000Y-114300000I1J699999D01*
G01*
X95900000Y-113700000D02*
G75*
G03*
X95200000Y-113000000I-699999J1D01*
G01*
X93100000Y-114300000D02*
G75*
G03*
X93800000Y-115000000I700000J0D01*
G01*
X93800000Y-113000000D02*
G75*
G03*
X93100000Y-113700000I0J-700000D01*
G01*
%TO.C,JP3*%
X139700000Y-118600000D02*
X140300000Y-118600000D01*
X141000000Y-119300000D02*
X141000000Y-120700000D01*
X139000000Y-120700000D02*
X139000000Y-119300000D01*
X140300000Y-121400000D02*
X139700000Y-121400000D01*
X141000000Y-119300000D02*
G75*
G03*
X140300000Y-118600000I-699999J1D01*
G01*
X139700000Y-118600000D02*
G75*
G03*
X139000000Y-119300000I-1J-699999D01*
G01*
X140300000Y-121400000D02*
G75*
G03*
X141000000Y-120700000I0J700000D01*
G01*
X139000000Y-120700000D02*
G75*
G03*
X139700000Y-121400000I700000J0D01*
G01*
%TO.C,J4*%
X147660000Y-98274000D02*
X99400000Y-98274000D01*
X97876000Y-96750000D02*
X97876000Y-94210000D01*
X149184000Y-94210000D02*
X149184000Y-96750000D01*
X99400000Y-92686000D02*
X147660000Y-92686000D01*
X97876000Y-96750000D02*
G75*
G03*
X99400000Y-98274000I1523999J-1D01*
G01*
X147660000Y-98274000D02*
G75*
G03*
X149184000Y-96750000I1J1523999D01*
G01*
X99400000Y-92686000D02*
G75*
G03*
X97876000Y-94210000I0J-1524000D01*
G01*
X149184000Y-94210000D02*
G75*
G03*
X147660000Y-92686000I-1523999J1D01*
G01*
%TO.C,JP2*%
X137100000Y-118600000D02*
X137700000Y-118600000D01*
X138400000Y-119300000D02*
X138400000Y-120700000D01*
X136400000Y-120700000D02*
X136400000Y-119300000D01*
X137700000Y-121400000D02*
X137100000Y-121400000D01*
X138400000Y-119300000D02*
G75*
G03*
X137700000Y-118600000I-699999J1D01*
G01*
X137100000Y-118600000D02*
G75*
G03*
X136400000Y-119300000I-1J-699999D01*
G01*
X137700000Y-121400000D02*
G75*
G03*
X138400000Y-120700000I0J700000D01*
G01*
X136400000Y-120700000D02*
G75*
G03*
X137100000Y-121400000I700000J0D01*
G01*
%TO.C,TP2*%
X147450000Y-108750000D02*
G75*
G03*
X147450000Y-108750000I-1200000J0D01*
G01*
%TO.C,TP1*%
X147450000Y-105250000D02*
G75*
G03*
X147450000Y-105250000I-1200000J0D01*
G01*
%TO.C,REF\u002A\u002A*%
G36*
X100683353Y-103632750D02*
G01*
X100675565Y-103645653D01*
X100667112Y-103658532D01*
X100657996Y-103671383D01*
X100648219Y-103684204D01*
X100637781Y-103696992D01*
X100626685Y-103709745D01*
X100614930Y-103722461D01*
X100602519Y-103735137D01*
X100589453Y-103747770D01*
X100575733Y-103760359D01*
X100561360Y-103772900D01*
X100546336Y-103785391D01*
X100530661Y-103797829D01*
X100514338Y-103810213D01*
X100497367Y-103822539D01*
X100479750Y-103834805D01*
X100444678Y-103858750D01*
X100408502Y-103881651D01*
X100371221Y-103903516D01*
X100332831Y-103924352D01*
X100293330Y-103944169D01*
X100252716Y-103962975D01*
X100210987Y-103980777D01*
X100168140Y-103997586D01*
X100125009Y-104012896D01*
X100103647Y-104019797D01*
X100082417Y-104026194D01*
X100061319Y-104032085D01*
X100040351Y-104037469D01*
X100019510Y-104042346D01*
X99998795Y-104046714D01*
X99978205Y-104050573D01*
X99957738Y-104053920D01*
X99937391Y-104056756D01*
X99917163Y-104059078D01*
X99897053Y-104060886D01*
X99877059Y-104062179D01*
X99857178Y-104062956D01*
X99837410Y-104063215D01*
X99818569Y-104062956D01*
X99800111Y-104062179D01*
X99782035Y-104060886D01*
X99764342Y-104059078D01*
X99747029Y-104056755D01*
X99730097Y-104053920D01*
X99713545Y-104050572D01*
X99697374Y-104046714D01*
X99681581Y-104042346D01*
X99666168Y-104037469D01*
X99651132Y-104032084D01*
X99636475Y-104026193D01*
X99622195Y-104019797D01*
X99608291Y-104012896D01*
X99594764Y-104005492D01*
X99581613Y-103997586D01*
X99569589Y-103989305D01*
X99558085Y-103980778D01*
X99547104Y-103972001D01*
X99536646Y-103962975D01*
X99526712Y-103953698D01*
X99517304Y-103944169D01*
X99508424Y-103934388D01*
X99500071Y-103924352D01*
X99492249Y-103914062D01*
X99484957Y-103903516D01*
X99478197Y-103892712D01*
X99471970Y-103881651D01*
X99466278Y-103870331D01*
X99461122Y-103858750D01*
X99456502Y-103846909D01*
X99452421Y-103834805D01*
X99448959Y-103822539D01*
X99446196Y-103810213D01*
X99444134Y-103797829D01*
X99442773Y-103785391D01*
X99442114Y-103772900D01*
X99442157Y-103760359D01*
X99442903Y-103747770D01*
X99444353Y-103735137D01*
X99446507Y-103722461D01*
X99449366Y-103709745D01*
X99452931Y-103696992D01*
X99457202Y-103684204D01*
X99462179Y-103671383D01*
X99467864Y-103658532D01*
X99474257Y-103645653D01*
X99481359Y-103632750D01*
X100027580Y-102686555D01*
X101230608Y-102686555D01*
X100683353Y-103632750D01*
G37*
G36*
X111112110Y-116327252D02*
G01*
X111117186Y-116327506D01*
X111122231Y-116327926D01*
X111127241Y-116328510D01*
X111132212Y-116329258D01*
X111137143Y-116330166D01*
X111142027Y-116331232D01*
X111146864Y-116332455D01*
X111151648Y-116333832D01*
X111156376Y-116335362D01*
X111161046Y-116337043D01*
X111165653Y-116338872D01*
X111170194Y-116340847D01*
X111174665Y-116342967D01*
X111179063Y-116345230D01*
X111183385Y-116347633D01*
X111187627Y-116350174D01*
X111191786Y-116352852D01*
X111195857Y-116355665D01*
X111199839Y-116358609D01*
X111203726Y-116361685D01*
X111207516Y-116364888D01*
X111211205Y-116368218D01*
X111214790Y-116371673D01*
X111218268Y-116375250D01*
X111221634Y-116378947D01*
X111224885Y-116382763D01*
X111228018Y-116386695D01*
X111231029Y-116390741D01*
X111233915Y-116394900D01*
X111236673Y-116399169D01*
X111239298Y-116403547D01*
X112787524Y-119085037D01*
X112794808Y-119098202D01*
X112801644Y-119111574D01*
X112808028Y-119125141D01*
X112813956Y-119138891D01*
X112819427Y-119152813D01*
X112824437Y-119166894D01*
X112828983Y-119181124D01*
X112833062Y-119195491D01*
X112836670Y-119209984D01*
X112839805Y-119224589D01*
X112842464Y-119239297D01*
X112844643Y-119254096D01*
X112846339Y-119268973D01*
X112847550Y-119283918D01*
X112848272Y-119298918D01*
X112848502Y-119313962D01*
X112848288Y-119329040D01*
X112847580Y-119344074D01*
X112846381Y-119359052D01*
X112844694Y-119373963D01*
X112842522Y-119388795D01*
X112839868Y-119403537D01*
X112836736Y-119418176D01*
X112833129Y-119432701D01*
X112829049Y-119447101D01*
X112824500Y-119461364D01*
X112819484Y-119475478D01*
X112814006Y-119489431D01*
X112808068Y-119503212D01*
X112801673Y-119516809D01*
X112794824Y-119530211D01*
X112787524Y-119543405D01*
X111513183Y-121749990D01*
X110700830Y-121749990D01*
X109426489Y-119543405D01*
X109412092Y-119516445D01*
X109399615Y-119488810D01*
X109389058Y-119460596D01*
X109380420Y-119431900D01*
X109373702Y-119402817D01*
X109368903Y-119373446D01*
X109366024Y-119343882D01*
X109365064Y-119314221D01*
X109366024Y-119284560D01*
X109368903Y-119254996D01*
X109373702Y-119225624D01*
X109380420Y-119196542D01*
X109389058Y-119167846D01*
X109399615Y-119139632D01*
X109412092Y-119111997D01*
X109426489Y-119085037D01*
X110974715Y-116403547D01*
X110980098Y-116394900D01*
X110985996Y-116386695D01*
X110992380Y-116378947D01*
X110999223Y-116371673D01*
X111006497Y-116364888D01*
X111014175Y-116358609D01*
X111022227Y-116352852D01*
X111030628Y-116347633D01*
X111039348Y-116342967D01*
X111048360Y-116338872D01*
X111057637Y-116335362D01*
X111067149Y-116332455D01*
X111076870Y-116330166D01*
X111086772Y-116328510D01*
X111096827Y-116327506D01*
X111107006Y-116327167D01*
X111112110Y-116327252D01*
G37*
G36*
X111112110Y-102199433D02*
G01*
X111117186Y-102199687D01*
X111122231Y-102200107D01*
X111127241Y-102200692D01*
X111132212Y-102201439D01*
X111137143Y-102202347D01*
X111142027Y-102203413D01*
X111146864Y-102204636D01*
X111151648Y-102206014D01*
X111156376Y-102207544D01*
X111161046Y-102209224D01*
X111165653Y-102211053D01*
X111170194Y-102213029D01*
X111174665Y-102215149D01*
X111179063Y-102217411D01*
X111183385Y-102219814D01*
X111187627Y-102222355D01*
X111191786Y-102225033D01*
X111195857Y-102227846D01*
X111199839Y-102230790D01*
X111203726Y-102233866D01*
X111207516Y-102237069D01*
X111211205Y-102240399D01*
X111214790Y-102243854D01*
X111218268Y-102247431D01*
X111221634Y-102251128D01*
X111224885Y-102254943D01*
X111228018Y-102258875D01*
X111231029Y-102262922D01*
X111233915Y-102267081D01*
X111236673Y-102271350D01*
X111239298Y-102275727D01*
X112787524Y-104956700D01*
X112794824Y-104969895D01*
X112801673Y-104983296D01*
X112808068Y-104996894D01*
X112814006Y-105010675D01*
X112819484Y-105024628D01*
X112824500Y-105038742D01*
X112829049Y-105053005D01*
X112833129Y-105067405D01*
X112836736Y-105081930D01*
X112839868Y-105096569D01*
X112842522Y-105111311D01*
X112844694Y-105126143D01*
X112846381Y-105141054D01*
X112847580Y-105156032D01*
X112848288Y-105171066D01*
X112848502Y-105186143D01*
X112848272Y-105201188D01*
X112847550Y-105216188D01*
X112846340Y-105231133D01*
X112844643Y-105246011D01*
X112842464Y-105260809D01*
X112839806Y-105275517D01*
X112836671Y-105290123D01*
X112833062Y-105304615D01*
X112828983Y-105318982D01*
X112824438Y-105333213D01*
X112819428Y-105347294D01*
X112813957Y-105361216D01*
X112808028Y-105374966D01*
X112801644Y-105388533D01*
X112794808Y-105401905D01*
X112787524Y-105415070D01*
X111239298Y-108096560D01*
X111233915Y-108105207D01*
X111228018Y-108113412D01*
X111221634Y-108121159D01*
X111214790Y-108128433D01*
X111207516Y-108135218D01*
X111199839Y-108141497D01*
X111191786Y-108147254D01*
X111183385Y-108152473D01*
X111174665Y-108157139D01*
X111165653Y-108161234D01*
X111156376Y-108164744D01*
X111146864Y-108167651D01*
X111137143Y-108169940D01*
X111127241Y-108171595D01*
X111117186Y-108172600D01*
X111107006Y-108172939D01*
X111101903Y-108172854D01*
X111096827Y-108172600D01*
X111091782Y-108172180D01*
X111086772Y-108171595D01*
X111081801Y-108170848D01*
X111076870Y-108169940D01*
X111071986Y-108168874D01*
X111067149Y-108167651D01*
X111062365Y-108166274D01*
X111057637Y-108164744D01*
X111052967Y-108163063D01*
X111048360Y-108161234D01*
X111043820Y-108159259D01*
X111039348Y-108157139D01*
X111034950Y-108154876D01*
X111030628Y-108152473D01*
X111026386Y-108149932D01*
X111022227Y-108147254D01*
X111018156Y-108144441D01*
X111014175Y-108141497D01*
X111010287Y-108138422D01*
X111006497Y-108135218D01*
X111002808Y-108131888D01*
X110999223Y-108128433D01*
X110995746Y-108124857D01*
X110992380Y-108121159D01*
X110989129Y-108117344D01*
X110985996Y-108113412D01*
X110982984Y-108109365D01*
X110980098Y-108105207D01*
X110977340Y-108100937D01*
X110974715Y-108096560D01*
X109426489Y-105415070D01*
X109412092Y-105388110D01*
X109399615Y-105360475D01*
X109389058Y-105332261D01*
X109380420Y-105303564D01*
X109373702Y-105274482D01*
X109368903Y-105245111D01*
X109366024Y-105215546D01*
X109365064Y-105185885D01*
X109366024Y-105156224D01*
X109368903Y-105126660D01*
X109373702Y-105097288D01*
X109380420Y-105068206D01*
X109389058Y-105039510D01*
X109399615Y-105011296D01*
X109412092Y-104983660D01*
X109426489Y-104956700D01*
X110974715Y-102275727D01*
X110980098Y-102267081D01*
X110985996Y-102258875D01*
X110992380Y-102251128D01*
X110999223Y-102243854D01*
X111006497Y-102237069D01*
X111014175Y-102230790D01*
X111022227Y-102225033D01*
X111030628Y-102219814D01*
X111039348Y-102215149D01*
X111048360Y-102211053D01*
X111057637Y-102207544D01*
X111067149Y-102204636D01*
X111076870Y-102202347D01*
X111086772Y-102200692D01*
X111096827Y-102199687D01*
X111107006Y-102199348D01*
X111112110Y-102199433D01*
G37*
G36*
X109072958Y-105731001D02*
G01*
X109078034Y-105731254D01*
X109083079Y-105731674D01*
X109088089Y-105732259D01*
X109093061Y-105733006D01*
X109097991Y-105733914D01*
X109102876Y-105734980D01*
X109107712Y-105736203D01*
X109112496Y-105737581D01*
X109117225Y-105739111D01*
X109121894Y-105740791D01*
X109126501Y-105742620D01*
X109131042Y-105744596D01*
X109135513Y-105746716D01*
X109139912Y-105748978D01*
X109144233Y-105751381D01*
X109148475Y-105753923D01*
X109152634Y-105756600D01*
X109156706Y-105759413D01*
X109160687Y-105762358D01*
X109164574Y-105765433D01*
X109168364Y-105768636D01*
X109172054Y-105771966D01*
X109175639Y-105775421D01*
X109179116Y-105778998D01*
X109182482Y-105782695D01*
X109185733Y-105786511D01*
X109188866Y-105790443D01*
X109191877Y-105794489D01*
X109194764Y-105798648D01*
X109197521Y-105802917D01*
X109200147Y-105807294D01*
X110748372Y-108488784D01*
X110755672Y-108501979D01*
X110762521Y-108515381D01*
X110768916Y-108528978D01*
X110774854Y-108542759D01*
X110780333Y-108556712D01*
X110785348Y-108570826D01*
X110789897Y-108585089D01*
X110793977Y-108599489D01*
X110797585Y-108614014D01*
X110800717Y-108628654D01*
X110803370Y-108643395D01*
X110805542Y-108658227D01*
X110807229Y-108673138D01*
X110808428Y-108688117D01*
X110809136Y-108703150D01*
X110809350Y-108718228D01*
X110809120Y-108733272D01*
X110808398Y-108748273D01*
X110807188Y-108763218D01*
X110805491Y-108778095D01*
X110803312Y-108792893D01*
X110800654Y-108807601D01*
X110797519Y-108822207D01*
X110793910Y-108836700D01*
X110789832Y-108851067D01*
X110785286Y-108865297D01*
X110780276Y-108879378D01*
X110774805Y-108893300D01*
X110768876Y-108907050D01*
X110762492Y-108920617D01*
X110755656Y-108933989D01*
X110748372Y-108947155D01*
X109200147Y-111628644D01*
X109194764Y-111637291D01*
X109188866Y-111645496D01*
X109182482Y-111653244D01*
X109175639Y-111660518D01*
X109168364Y-111667302D01*
X109160687Y-111673581D01*
X109152634Y-111679338D01*
X109144233Y-111684558D01*
X109135513Y-111689223D01*
X109126501Y-111693319D01*
X109117225Y-111696828D01*
X109107712Y-111699736D01*
X109097991Y-111702025D01*
X109088089Y-111703680D01*
X109078034Y-111704685D01*
X109067855Y-111705023D01*
X109062751Y-111704938D01*
X109057675Y-111704685D01*
X109052630Y-111704265D01*
X109047621Y-111703680D01*
X109042649Y-111702933D01*
X109037719Y-111702025D01*
X109032834Y-111700958D01*
X109027998Y-111699736D01*
X109023213Y-111698358D01*
X109018485Y-111696828D01*
X109013815Y-111695148D01*
X109009209Y-111693319D01*
X109004668Y-111691343D01*
X109000196Y-111689223D01*
X108995798Y-111686961D01*
X108991476Y-111684558D01*
X108987234Y-111682016D01*
X108983076Y-111679338D01*
X108979004Y-111676526D01*
X108975023Y-111673581D01*
X108971135Y-111670506D01*
X108967345Y-111667302D01*
X108963656Y-111663972D01*
X108960071Y-111660518D01*
X108956594Y-111656941D01*
X108953228Y-111653244D01*
X108949976Y-111649428D01*
X108946843Y-111645496D01*
X108943832Y-111641450D01*
X108940946Y-111637291D01*
X108938188Y-111633022D01*
X108935563Y-111628644D01*
X107387338Y-108947155D01*
X107372941Y-108920194D01*
X107360464Y-108892559D01*
X107349906Y-108864345D01*
X107341268Y-108835649D01*
X107334550Y-108806566D01*
X107329751Y-108777195D01*
X107326872Y-108747630D01*
X107325912Y-108717969D01*
X107326872Y-108688308D01*
X107329751Y-108658744D01*
X107334550Y-108629372D01*
X107341268Y-108600290D01*
X107349906Y-108571594D01*
X107360464Y-108543380D01*
X107372941Y-108515744D01*
X107387338Y-108488784D01*
X108935563Y-105807294D01*
X108940946Y-105798648D01*
X108946843Y-105790443D01*
X108953228Y-105782695D01*
X108960071Y-105775421D01*
X108967345Y-105768636D01*
X108975023Y-105762358D01*
X108983076Y-105756600D01*
X108991476Y-105751381D01*
X109000196Y-105746716D01*
X109009209Y-105742620D01*
X109018485Y-105739111D01*
X109027998Y-105736203D01*
X109037719Y-105733914D01*
X109047621Y-105732259D01*
X109057675Y-105731254D01*
X109067855Y-105730916D01*
X109072958Y-105731001D01*
G37*
G36*
X113151262Y-105731001D02*
G01*
X113156338Y-105731254D01*
X113161383Y-105731674D01*
X113166393Y-105732259D01*
X113171364Y-105733006D01*
X113176294Y-105733914D01*
X113181179Y-105734980D01*
X113186016Y-105736203D01*
X113190800Y-105737581D01*
X113195528Y-105739111D01*
X113200198Y-105740791D01*
X113204805Y-105742620D01*
X113209345Y-105744596D01*
X113213817Y-105746716D01*
X113218215Y-105748978D01*
X113222537Y-105751381D01*
X113226779Y-105753923D01*
X113230937Y-105756600D01*
X113235009Y-105759413D01*
X113238990Y-105762358D01*
X113242878Y-105765433D01*
X113246668Y-105768636D01*
X113250357Y-105771966D01*
X113253942Y-105775421D01*
X113257419Y-105778998D01*
X113260785Y-105782695D01*
X113264036Y-105786511D01*
X113267169Y-105790443D01*
X113270181Y-105794489D01*
X113273067Y-105798648D01*
X113275824Y-105802917D01*
X113278450Y-105807294D01*
X114826676Y-108488784D01*
X114834009Y-108501970D01*
X114840892Y-108515364D01*
X114847321Y-108528955D01*
X114853293Y-108542731D01*
X114858805Y-108556681D01*
X114863853Y-108570792D01*
X114868435Y-108585053D01*
X114872548Y-108599452D01*
X114876188Y-108613979D01*
X114879352Y-108628620D01*
X114882038Y-108643364D01*
X114884241Y-108658201D01*
X114885959Y-108673117D01*
X114887189Y-108688101D01*
X114887927Y-108703142D01*
X114888171Y-108718228D01*
X114887911Y-108733281D01*
X114887159Y-108748288D01*
X114885918Y-108763239D01*
X114884190Y-108778121D01*
X114881980Y-108792924D01*
X114879289Y-108807635D01*
X114876122Y-108822243D01*
X114872481Y-108836736D01*
X114868370Y-108851102D01*
X114863791Y-108865331D01*
X114858748Y-108879410D01*
X114853243Y-108893328D01*
X114847281Y-108907073D01*
X114840863Y-108920633D01*
X114833994Y-108933998D01*
X114826676Y-108947155D01*
X113278450Y-111628644D01*
X113273067Y-111637291D01*
X113267169Y-111645496D01*
X113260785Y-111653244D01*
X113253942Y-111660518D01*
X113246668Y-111667302D01*
X113238990Y-111673581D01*
X113230937Y-111679338D01*
X113222537Y-111684558D01*
X113213817Y-111689223D01*
X113204805Y-111693319D01*
X113195528Y-111696828D01*
X113186016Y-111699736D01*
X113176294Y-111702025D01*
X113166393Y-111703680D01*
X113156338Y-111704685D01*
X113146159Y-111705023D01*
X113141055Y-111704938D01*
X113135979Y-111704685D01*
X113130934Y-111704265D01*
X113125924Y-111703680D01*
X113120952Y-111702933D01*
X113116022Y-111702025D01*
X113111137Y-111700958D01*
X113106301Y-111699736D01*
X113101517Y-111698358D01*
X113096789Y-111696828D01*
X113092119Y-111695148D01*
X113087512Y-111693319D01*
X113082971Y-111691343D01*
X113078500Y-111689223D01*
X113074102Y-111686961D01*
X113069780Y-111684558D01*
X113065538Y-111682016D01*
X113061379Y-111679338D01*
X113057308Y-111676526D01*
X113053326Y-111673581D01*
X113049439Y-111670506D01*
X113045649Y-111667302D01*
X113041960Y-111663972D01*
X113038375Y-111660518D01*
X113034897Y-111656941D01*
X113031531Y-111653244D01*
X113028280Y-111649428D01*
X113025147Y-111645496D01*
X113022136Y-111641450D01*
X113019250Y-111637291D01*
X113016492Y-111633022D01*
X113013867Y-111628644D01*
X111465641Y-108947155D01*
X111451244Y-108920194D01*
X111438767Y-108892559D01*
X111428210Y-108864345D01*
X111419572Y-108835649D01*
X111412854Y-108806566D01*
X111408055Y-108777195D01*
X111405176Y-108747630D01*
X111404216Y-108717969D01*
X111405176Y-108688308D01*
X111408055Y-108658744D01*
X111412854Y-108629372D01*
X111419572Y-108600290D01*
X111428210Y-108571594D01*
X111438767Y-108543380D01*
X111451244Y-108515744D01*
X111465641Y-108488784D01*
X113013867Y-105807294D01*
X113019250Y-105798648D01*
X113025147Y-105790443D01*
X113031531Y-105782695D01*
X113038375Y-105775421D01*
X113045649Y-105768636D01*
X113053326Y-105762358D01*
X113061379Y-105756600D01*
X113069780Y-105751381D01*
X113078500Y-105746716D01*
X113087512Y-105742620D01*
X113096789Y-105739111D01*
X113106301Y-105736203D01*
X113116022Y-105733914D01*
X113125924Y-105732259D01*
X113135979Y-105731254D01*
X113146159Y-105730916D01*
X113151262Y-105731001D01*
G37*
G36*
X111112110Y-109263084D02*
G01*
X111117186Y-109263338D01*
X111122231Y-109263758D01*
X111127241Y-109264342D01*
X111132212Y-109265090D01*
X111137143Y-109265998D01*
X111142027Y-109267064D01*
X111146864Y-109268287D01*
X111151648Y-109269664D01*
X111156376Y-109271194D01*
X111161046Y-109272875D01*
X111165653Y-109274704D01*
X111170194Y-109276679D01*
X111174665Y-109278799D01*
X111179063Y-109281062D01*
X111183385Y-109283465D01*
X111187627Y-109286006D01*
X111191786Y-109288684D01*
X111195857Y-109291496D01*
X111199839Y-109294441D01*
X111203726Y-109297516D01*
X111207516Y-109300720D01*
X111211205Y-109304050D01*
X111214790Y-109307505D01*
X111218268Y-109311081D01*
X111221634Y-109314779D01*
X111224885Y-109318594D01*
X111228018Y-109322526D01*
X111231029Y-109326573D01*
X111233915Y-109330731D01*
X111236673Y-109335000D01*
X111239298Y-109339378D01*
X112787524Y-112020868D01*
X112794808Y-112034033D01*
X112801644Y-112047405D01*
X112808028Y-112060972D01*
X112813956Y-112074722D01*
X112819427Y-112088644D01*
X112824437Y-112102725D01*
X112828983Y-112116956D01*
X112833062Y-112131323D01*
X112836670Y-112145815D01*
X112839805Y-112160421D01*
X112842464Y-112175129D01*
X112844643Y-112189927D01*
X112846339Y-112204805D01*
X112847550Y-112219750D01*
X112848272Y-112234750D01*
X112848502Y-112249795D01*
X112848288Y-112264872D01*
X112847580Y-112279906D01*
X112846381Y-112294884D01*
X112844694Y-112309795D01*
X112842522Y-112324627D01*
X112839868Y-112339368D01*
X112836736Y-112354008D01*
X112833129Y-112368533D01*
X112829049Y-112382933D01*
X112824500Y-112397196D01*
X112819484Y-112411310D01*
X112814006Y-112425263D01*
X112808068Y-112439044D01*
X112801673Y-112452642D01*
X112794824Y-112466044D01*
X112787524Y-112479238D01*
X111239298Y-115160211D01*
X111233915Y-115168858D01*
X111228018Y-115177063D01*
X111221634Y-115184811D01*
X111214790Y-115192085D01*
X111207516Y-115198869D01*
X111199839Y-115205148D01*
X111191786Y-115210905D01*
X111183385Y-115216125D01*
X111174665Y-115220790D01*
X111165653Y-115224885D01*
X111156376Y-115228395D01*
X111146864Y-115231302D01*
X111137143Y-115233592D01*
X111127241Y-115235247D01*
X111117186Y-115236251D01*
X111107006Y-115236590D01*
X111101903Y-115236505D01*
X111096827Y-115236251D01*
X111091782Y-115235831D01*
X111086772Y-115235247D01*
X111081801Y-115234499D01*
X111076870Y-115233592D01*
X111071986Y-115232525D01*
X111067149Y-115231302D01*
X111062365Y-115229925D01*
X111057637Y-115228395D01*
X111052967Y-115226714D01*
X111048360Y-115224885D01*
X111043820Y-115222910D01*
X111039348Y-115220790D01*
X111034950Y-115218528D01*
X111030628Y-115216125D01*
X111026386Y-115213583D01*
X111022227Y-115210905D01*
X111018156Y-115208093D01*
X111014175Y-115205148D01*
X111010287Y-115202073D01*
X111006497Y-115198869D01*
X111002808Y-115195539D01*
X110999223Y-115192085D01*
X110995746Y-115188508D01*
X110992380Y-115184811D01*
X110989129Y-115180995D01*
X110985996Y-115177063D01*
X110982984Y-115173017D01*
X110980098Y-115168858D01*
X110977340Y-115164589D01*
X110974715Y-115160211D01*
X109426489Y-112479238D01*
X109412092Y-112452278D01*
X109399615Y-112424643D01*
X109389058Y-112396429D01*
X109380420Y-112367733D01*
X109373702Y-112338650D01*
X109368903Y-112309279D01*
X109366024Y-112279714D01*
X109365064Y-112250053D01*
X109366024Y-112220392D01*
X109368903Y-112190828D01*
X109373702Y-112161456D01*
X109380420Y-112132374D01*
X109389058Y-112103677D01*
X109399615Y-112075463D01*
X109412092Y-112047828D01*
X109426489Y-112020868D01*
X110974715Y-109339378D01*
X110980098Y-109330731D01*
X110985996Y-109322526D01*
X110992380Y-109314779D01*
X110999223Y-109307505D01*
X111006497Y-109300720D01*
X111014175Y-109294441D01*
X111022227Y-109288684D01*
X111030628Y-109283465D01*
X111039348Y-109278799D01*
X111048360Y-109274704D01*
X111057637Y-109271194D01*
X111067149Y-109268287D01*
X111076870Y-109265998D01*
X111086772Y-109264342D01*
X111096827Y-109263338D01*
X111107006Y-109262999D01*
X111112110Y-109263084D01*
G37*
G36*
X115190414Y-109263084D02*
G01*
X115195490Y-109263338D01*
X115200535Y-109263758D01*
X115205545Y-109264342D01*
X115210516Y-109265090D01*
X115215446Y-109265998D01*
X115220331Y-109267064D01*
X115225167Y-109268287D01*
X115229952Y-109269664D01*
X115234680Y-109271194D01*
X115239350Y-109272875D01*
X115243956Y-109274704D01*
X115248497Y-109276679D01*
X115252969Y-109278799D01*
X115257367Y-109281062D01*
X115261689Y-109283465D01*
X115265931Y-109286006D01*
X115270089Y-109288684D01*
X115274161Y-109291496D01*
X115278142Y-109294441D01*
X115282030Y-109297516D01*
X115285820Y-109300720D01*
X115289509Y-109304050D01*
X115293094Y-109307505D01*
X115296571Y-109311081D01*
X115299937Y-109314779D01*
X115303188Y-109318594D01*
X115306322Y-109322526D01*
X115309333Y-109326573D01*
X115312219Y-109330731D01*
X115314977Y-109335000D01*
X115317602Y-109339378D01*
X116865828Y-112020868D01*
X116873146Y-112034025D01*
X116880015Y-112047389D01*
X116886433Y-112060950D01*
X116892395Y-112074695D01*
X116897900Y-112088612D01*
X116902943Y-112102692D01*
X116907522Y-112116920D01*
X116911633Y-112131287D01*
X116915274Y-112145780D01*
X116918441Y-112160388D01*
X116921132Y-112175099D01*
X116923342Y-112189901D01*
X116925070Y-112204784D01*
X116926311Y-112219734D01*
X116927063Y-112234742D01*
X116927323Y-112249795D01*
X116927079Y-112264880D01*
X116926341Y-112279921D01*
X116925111Y-112294906D01*
X116923393Y-112309822D01*
X116921189Y-112324658D01*
X116918504Y-112339403D01*
X116915340Y-112354044D01*
X116911700Y-112368570D01*
X116907587Y-112382970D01*
X116903005Y-112397231D01*
X116897957Y-112411342D01*
X116892445Y-112425291D01*
X116886473Y-112439067D01*
X116880044Y-112452658D01*
X116873161Y-112466052D01*
X116865828Y-112479238D01*
X115317602Y-115160211D01*
X115312219Y-115168858D01*
X115306322Y-115177063D01*
X115299937Y-115184811D01*
X115293094Y-115192085D01*
X115285820Y-115198869D01*
X115278142Y-115205148D01*
X115270089Y-115210905D01*
X115261689Y-115216125D01*
X115252969Y-115220790D01*
X115243956Y-115224885D01*
X115234680Y-115228395D01*
X115225167Y-115231302D01*
X115215446Y-115233592D01*
X115205545Y-115235247D01*
X115195490Y-115236251D01*
X115185310Y-115236590D01*
X115180207Y-115236505D01*
X115175131Y-115236251D01*
X115170086Y-115235831D01*
X115165076Y-115235247D01*
X115160105Y-115234499D01*
X115155174Y-115233592D01*
X115150290Y-115232525D01*
X115145453Y-115231302D01*
X115140669Y-115229925D01*
X115135941Y-115228395D01*
X115131271Y-115226714D01*
X115126664Y-115224885D01*
X115122123Y-115222910D01*
X115117652Y-115220790D01*
X115113254Y-115218528D01*
X115108932Y-115216125D01*
X115104690Y-115213583D01*
X115100531Y-115210905D01*
X115096460Y-115208093D01*
X115092478Y-115205148D01*
X115088591Y-115202073D01*
X115084801Y-115198869D01*
X115081112Y-115195539D01*
X115077527Y-115192085D01*
X115074049Y-115188508D01*
X115070683Y-115184811D01*
X115067432Y-115180995D01*
X115064299Y-115177063D01*
X115061288Y-115173017D01*
X115058402Y-115168858D01*
X115055644Y-115164589D01*
X115053019Y-115160211D01*
X113505309Y-112479238D01*
X113490913Y-112452278D01*
X113478436Y-112424643D01*
X113467879Y-112396429D01*
X113459241Y-112367733D01*
X113452522Y-112338650D01*
X113447723Y-112309279D01*
X113444844Y-112279714D01*
X113443884Y-112250053D01*
X113444844Y-112220392D01*
X113447723Y-112190828D01*
X113452522Y-112161456D01*
X113459241Y-112132374D01*
X113467879Y-112103677D01*
X113478436Y-112075463D01*
X113490913Y-112047828D01*
X113505309Y-112020868D01*
X115053019Y-109339378D01*
X115058402Y-109330731D01*
X115064299Y-109322526D01*
X115070683Y-109314779D01*
X115077527Y-109307505D01*
X115084801Y-109300720D01*
X115092478Y-109294441D01*
X115100531Y-109288684D01*
X115108932Y-109283465D01*
X115117652Y-109278799D01*
X115126664Y-109274704D01*
X115135941Y-109271194D01*
X115145453Y-109268287D01*
X115155174Y-109265998D01*
X115165076Y-109264342D01*
X115175131Y-109263338D01*
X115185310Y-109262999D01*
X115190414Y-109263084D01*
G37*
G36*
X107033806Y-109263084D02*
G01*
X107038882Y-109263338D01*
X107043927Y-109263758D01*
X107048937Y-109264342D01*
X107053908Y-109265090D01*
X107058839Y-109265998D01*
X107063723Y-109267064D01*
X107068560Y-109268287D01*
X107073344Y-109269664D01*
X107078072Y-109271194D01*
X107082742Y-109272875D01*
X107087349Y-109274704D01*
X107091890Y-109276679D01*
X107096361Y-109278799D01*
X107100759Y-109281062D01*
X107105081Y-109283465D01*
X107109323Y-109286006D01*
X107113482Y-109288684D01*
X107117553Y-109291496D01*
X107121535Y-109294441D01*
X107125422Y-109297516D01*
X107129212Y-109300720D01*
X107132902Y-109304050D01*
X107136486Y-109307505D01*
X107139964Y-109311081D01*
X107143330Y-109314779D01*
X107146581Y-109318594D01*
X107149714Y-109322526D01*
X107152725Y-109326573D01*
X107155611Y-109330731D01*
X107158369Y-109335000D01*
X107160994Y-109339378D01*
X108708704Y-112020868D01*
X108716022Y-112034025D01*
X108722891Y-112047389D01*
X108729308Y-112060950D01*
X108735271Y-112074695D01*
X108740775Y-112088613D01*
X108745818Y-112102692D01*
X108750397Y-112116921D01*
X108754509Y-112131287D01*
X108758150Y-112145780D01*
X108761317Y-112160388D01*
X108764007Y-112175099D01*
X108766218Y-112189901D01*
X108767945Y-112204784D01*
X108769187Y-112219734D01*
X108769939Y-112234742D01*
X108770199Y-112249795D01*
X108769955Y-112264880D01*
X108769216Y-112279921D01*
X108767987Y-112294906D01*
X108766268Y-112309822D01*
X108764065Y-112324658D01*
X108761380Y-112339403D01*
X108758216Y-112354044D01*
X108754576Y-112368570D01*
X108750463Y-112382970D01*
X108745881Y-112397231D01*
X108740832Y-112411342D01*
X108735321Y-112425291D01*
X108729349Y-112439067D01*
X108722920Y-112452658D01*
X108716037Y-112466052D01*
X108708704Y-112479238D01*
X107160994Y-115160211D01*
X107155611Y-115168858D01*
X107149714Y-115177063D01*
X107143330Y-115184811D01*
X107136486Y-115192085D01*
X107129212Y-115198869D01*
X107121535Y-115205148D01*
X107113482Y-115210905D01*
X107105081Y-115216125D01*
X107096361Y-115220790D01*
X107087349Y-115224885D01*
X107078072Y-115228395D01*
X107068560Y-115231302D01*
X107058839Y-115233592D01*
X107048937Y-115235247D01*
X107038882Y-115236251D01*
X107028703Y-115236590D01*
X107023599Y-115236505D01*
X107018523Y-115236251D01*
X107013478Y-115235831D01*
X107008468Y-115235247D01*
X107003497Y-115234499D01*
X106998567Y-115233592D01*
X106993682Y-115232525D01*
X106988845Y-115231302D01*
X106984061Y-115229925D01*
X106979333Y-115228395D01*
X106974663Y-115226714D01*
X106970056Y-115224885D01*
X106965516Y-115222910D01*
X106961044Y-115220790D01*
X106956646Y-115218528D01*
X106952324Y-115216125D01*
X106948082Y-115213583D01*
X106943923Y-115210905D01*
X106939852Y-115208093D01*
X106935870Y-115205148D01*
X106931983Y-115202073D01*
X106928193Y-115198869D01*
X106924504Y-115195539D01*
X106920919Y-115192085D01*
X106917441Y-115188508D01*
X106914076Y-115184811D01*
X106910824Y-115180995D01*
X106907691Y-115177063D01*
X106904680Y-115173017D01*
X106901794Y-115168858D01*
X106899036Y-115164589D01*
X106896411Y-115160211D01*
X105348185Y-112479238D01*
X105333789Y-112452278D01*
X105321312Y-112424643D01*
X105310754Y-112396429D01*
X105302116Y-112367733D01*
X105295398Y-112338650D01*
X105290599Y-112309279D01*
X105287720Y-112279714D01*
X105286760Y-112250053D01*
X105287720Y-112220392D01*
X105290599Y-112190828D01*
X105295398Y-112161456D01*
X105302116Y-112132374D01*
X105310754Y-112103677D01*
X105321312Y-112075463D01*
X105333789Y-112047828D01*
X105348185Y-112020868D01*
X106896411Y-109339378D01*
X106901794Y-109330731D01*
X106907691Y-109322526D01*
X106914076Y-109314779D01*
X106920919Y-109307505D01*
X106928193Y-109300720D01*
X106935870Y-109294441D01*
X106943923Y-109288684D01*
X106952324Y-109283465D01*
X106961044Y-109278799D01*
X106970056Y-109274704D01*
X106979333Y-109271194D01*
X106988845Y-109268287D01*
X106998567Y-109265998D01*
X107008468Y-109264342D01*
X107018523Y-109263338D01*
X107028703Y-109262999D01*
X107033806Y-109263084D01*
G37*
G36*
X109072958Y-112795168D02*
G01*
X109078034Y-112795421D01*
X109083079Y-112795841D01*
X109088089Y-112796426D01*
X109093061Y-112797173D01*
X109097991Y-112798081D01*
X109102876Y-112799147D01*
X109107712Y-112800370D01*
X109112496Y-112801748D01*
X109117225Y-112803278D01*
X109121894Y-112804958D01*
X109126501Y-112806787D01*
X109131042Y-112808763D01*
X109135513Y-112810883D01*
X109139912Y-112813145D01*
X109144233Y-112815548D01*
X109148475Y-112818090D01*
X109152634Y-112820768D01*
X109156706Y-112823580D01*
X109160687Y-112826525D01*
X109164574Y-112829600D01*
X109168364Y-112832804D01*
X109172054Y-112836134D01*
X109175639Y-112839588D01*
X109179116Y-112843165D01*
X109182482Y-112846863D01*
X109185733Y-112850678D01*
X109188866Y-112854610D01*
X109191877Y-112858657D01*
X109194764Y-112862816D01*
X109197521Y-112867085D01*
X109200147Y-112871462D01*
X110748372Y-115552952D01*
X110755656Y-115566118D01*
X110762492Y-115579490D01*
X110768876Y-115593057D01*
X110774805Y-115606807D01*
X110780276Y-115620728D01*
X110785286Y-115634810D01*
X110789831Y-115649040D01*
X110793910Y-115663407D01*
X110797519Y-115677899D01*
X110800654Y-115692505D01*
X110803312Y-115707213D01*
X110805491Y-115722012D01*
X110807188Y-115736889D01*
X110808398Y-115751834D01*
X110809120Y-115766834D01*
X110809350Y-115781879D01*
X110809136Y-115796956D01*
X110808428Y-115811990D01*
X110807229Y-115826968D01*
X110805542Y-115841879D01*
X110803370Y-115856711D01*
X110800717Y-115871452D01*
X110797585Y-115886092D01*
X110793977Y-115900617D01*
X110789897Y-115915017D01*
X110785348Y-115929280D01*
X110780333Y-115943394D01*
X110774854Y-115957347D01*
X110768916Y-115971128D01*
X110762521Y-115984725D01*
X110755672Y-115998127D01*
X110748372Y-116011322D01*
X109200147Y-118692295D01*
X109194764Y-118700941D01*
X109188866Y-118709146D01*
X109182482Y-118716894D01*
X109175639Y-118724168D01*
X109168364Y-118730953D01*
X109160687Y-118737231D01*
X109152634Y-118742988D01*
X109144233Y-118748208D01*
X109135513Y-118752873D01*
X109126501Y-118756968D01*
X109117225Y-118760478D01*
X109107712Y-118763385D01*
X109097991Y-118765674D01*
X109088089Y-118767329D01*
X109078034Y-118768334D01*
X109067855Y-118768672D01*
X109062751Y-118768588D01*
X109057675Y-118768334D01*
X109052630Y-118767914D01*
X109047621Y-118767329D01*
X109042649Y-118766582D01*
X109037719Y-118765674D01*
X109032834Y-118764608D01*
X109027998Y-118763385D01*
X109023213Y-118762008D01*
X109018485Y-118760478D01*
X109013815Y-118758797D01*
X109009209Y-118756968D01*
X109004668Y-118754993D01*
X109000196Y-118752873D01*
X108995798Y-118750610D01*
X108991476Y-118748208D01*
X108987234Y-118745666D01*
X108983076Y-118742988D01*
X108979004Y-118740176D01*
X108975023Y-118737231D01*
X108971135Y-118734156D01*
X108967345Y-118730953D01*
X108963656Y-118727623D01*
X108960071Y-118724168D01*
X108956594Y-118720591D01*
X108953228Y-118716894D01*
X108949976Y-118713078D01*
X108946843Y-118709146D01*
X108943832Y-118705100D01*
X108940946Y-118700941D01*
X108938188Y-118696672D01*
X108935563Y-118692295D01*
X107387338Y-116011322D01*
X107372941Y-115984362D01*
X107360464Y-115956726D01*
X107349906Y-115928512D01*
X107341268Y-115899816D01*
X107334550Y-115870734D01*
X107329751Y-115841362D01*
X107326872Y-115811798D01*
X107325912Y-115782137D01*
X107326872Y-115752476D01*
X107329751Y-115722912D01*
X107334550Y-115693540D01*
X107341268Y-115664458D01*
X107349906Y-115635761D01*
X107360464Y-115607547D01*
X107372941Y-115579912D01*
X107387338Y-115552952D01*
X108935563Y-112871462D01*
X108940946Y-112862816D01*
X108946843Y-112854610D01*
X108953228Y-112846863D01*
X108960071Y-112839588D01*
X108967345Y-112832804D01*
X108975023Y-112826525D01*
X108983076Y-112820768D01*
X108991476Y-112815548D01*
X109000196Y-112810883D01*
X109009209Y-112806787D01*
X109018485Y-112803278D01*
X109027998Y-112800370D01*
X109037719Y-112798081D01*
X109047621Y-112796426D01*
X109057675Y-112795421D01*
X109067855Y-112795083D01*
X109072958Y-112795168D01*
G37*
G36*
X113151262Y-112795168D02*
G01*
X113156338Y-112795421D01*
X113161383Y-112795841D01*
X113166393Y-112796426D01*
X113171364Y-112797173D01*
X113176294Y-112798081D01*
X113181179Y-112799147D01*
X113186016Y-112800370D01*
X113190800Y-112801748D01*
X113195528Y-112803278D01*
X113200198Y-112804958D01*
X113204805Y-112806787D01*
X113209345Y-112808763D01*
X113213817Y-112810883D01*
X113218215Y-112813145D01*
X113222537Y-112815548D01*
X113226779Y-112818090D01*
X113230937Y-112820768D01*
X113235009Y-112823580D01*
X113238990Y-112826525D01*
X113242878Y-112829600D01*
X113246668Y-112832804D01*
X113250357Y-112836134D01*
X113253942Y-112839588D01*
X113257419Y-112843165D01*
X113260785Y-112846863D01*
X113264036Y-112850678D01*
X113267169Y-112854610D01*
X113270181Y-112858657D01*
X113273067Y-112862816D01*
X113275824Y-112867085D01*
X113278450Y-112871462D01*
X114826676Y-115552952D01*
X114833994Y-115566109D01*
X114840863Y-115579473D01*
X114847281Y-115593034D01*
X114853243Y-115606779D01*
X114858748Y-115620696D01*
X114863791Y-115634775D01*
X114868370Y-115649004D01*
X114872481Y-115663371D01*
X114876122Y-115677864D01*
X114879289Y-115692471D01*
X114881980Y-115707182D01*
X114884190Y-115721985D01*
X114885918Y-115736868D01*
X114887159Y-115751818D01*
X114887911Y-115766826D01*
X114888171Y-115781879D01*
X114887927Y-115796965D01*
X114887189Y-115812005D01*
X114885959Y-115826990D01*
X114884241Y-115841906D01*
X114882038Y-115856742D01*
X114879352Y-115871486D01*
X114876188Y-115886127D01*
X114872548Y-115900654D01*
X114868435Y-115915053D01*
X114863853Y-115929314D01*
X114858805Y-115943425D01*
X114853293Y-115957375D01*
X114847321Y-115971151D01*
X114840892Y-115984742D01*
X114834009Y-115998136D01*
X114826676Y-116011322D01*
X113278450Y-118692295D01*
X113273067Y-118700941D01*
X113267169Y-118709146D01*
X113260785Y-118716894D01*
X113253942Y-118724168D01*
X113246668Y-118730953D01*
X113238990Y-118737231D01*
X113230937Y-118742988D01*
X113222537Y-118748208D01*
X113213817Y-118752873D01*
X113204805Y-118756968D01*
X113195528Y-118760478D01*
X113186016Y-118763385D01*
X113176294Y-118765674D01*
X113166393Y-118767329D01*
X113156338Y-118768334D01*
X113146159Y-118768672D01*
X113141055Y-118768588D01*
X113135979Y-118768334D01*
X113130934Y-118767914D01*
X113125924Y-118767329D01*
X113120952Y-118766582D01*
X113116022Y-118765674D01*
X113111137Y-118764608D01*
X113106301Y-118763385D01*
X113101517Y-118762008D01*
X113096789Y-118760478D01*
X113092119Y-118758797D01*
X113087512Y-118756968D01*
X113082971Y-118754993D01*
X113078500Y-118752873D01*
X113074102Y-118750610D01*
X113069780Y-118748208D01*
X113065538Y-118745666D01*
X113061379Y-118742988D01*
X113057308Y-118740176D01*
X113053326Y-118737231D01*
X113049439Y-118734156D01*
X113045649Y-118730953D01*
X113041960Y-118727623D01*
X113038375Y-118724168D01*
X113034897Y-118720591D01*
X113031531Y-118716894D01*
X113028280Y-118713078D01*
X113025147Y-118709146D01*
X113022136Y-118705100D01*
X113019250Y-118700941D01*
X113016492Y-118696672D01*
X113013867Y-118692295D01*
X111465641Y-116011322D01*
X111451244Y-115984362D01*
X111438767Y-115956726D01*
X111428210Y-115928512D01*
X111419572Y-115899816D01*
X111412854Y-115870734D01*
X111408055Y-115841362D01*
X111405176Y-115811798D01*
X111404216Y-115782137D01*
X111405176Y-115752476D01*
X111408055Y-115722912D01*
X111412854Y-115693540D01*
X111419572Y-115664458D01*
X111428210Y-115635761D01*
X111438767Y-115607547D01*
X111451244Y-115579912D01*
X111465641Y-115552952D01*
X113013867Y-112871462D01*
X113019250Y-112862816D01*
X113025147Y-112854610D01*
X113031531Y-112846863D01*
X113038375Y-112839588D01*
X113045649Y-112832804D01*
X113053326Y-112826525D01*
X113061379Y-112820768D01*
X113069780Y-112815548D01*
X113078500Y-112810883D01*
X113087512Y-112806787D01*
X113096789Y-112803278D01*
X113106301Y-112800370D01*
X113116022Y-112798081D01*
X113125924Y-112796426D01*
X113135979Y-112795421D01*
X113146159Y-112795083D01*
X113151262Y-112795168D01*
G37*
G36*
X109833611Y-100251447D02*
G01*
X109919361Y-100255732D01*
X110004591Y-100262831D01*
X110089242Y-100272712D01*
X110173253Y-100285340D01*
X110256567Y-100300681D01*
X110339123Y-100318700D01*
X110420862Y-100339365D01*
X110501726Y-100362640D01*
X110581654Y-100388493D01*
X110660588Y-100416888D01*
X110738468Y-100447792D01*
X110815234Y-100481171D01*
X110890829Y-100516991D01*
X110965191Y-100555218D01*
X111038263Y-100595818D01*
X111109984Y-100638756D01*
X111180295Y-100684000D01*
X111249138Y-100731514D01*
X111316452Y-100781265D01*
X111382179Y-100833219D01*
X111446259Y-100887342D01*
X111508633Y-100943599D01*
X111569241Y-101001957D01*
X111628025Y-101062382D01*
X111684925Y-101124840D01*
X111739881Y-101189297D01*
X111792835Y-101255718D01*
X111843727Y-101324071D01*
X111892498Y-101394319D01*
X111939088Y-101466431D01*
X111983439Y-101540371D01*
X117421349Y-110959434D01*
X117463204Y-111034809D01*
X117502349Y-111111201D01*
X117538784Y-111188544D01*
X117572511Y-111266770D01*
X117603532Y-111345811D01*
X117631848Y-111425600D01*
X117657460Y-111506069D01*
X117680370Y-111587152D01*
X117700580Y-111668780D01*
X117718090Y-111750887D01*
X117732903Y-111833404D01*
X117745019Y-111916265D01*
X117754440Y-111999402D01*
X117761168Y-112082747D01*
X117765203Y-112166234D01*
X117766548Y-112249795D01*
X117765203Y-112333361D01*
X117761168Y-112416864D01*
X117754440Y-112500235D01*
X117745019Y-112583405D01*
X117732903Y-112666305D01*
X117718090Y-112748866D01*
X117700580Y-112831020D01*
X117680370Y-112912696D01*
X117657460Y-112993827D01*
X117631848Y-113074343D01*
X117603532Y-113154176D01*
X117572511Y-113233256D01*
X117538784Y-113311514D01*
X117502349Y-113388882D01*
X117463204Y-113465291D01*
X117421349Y-113540672D01*
X112681588Y-121749990D01*
X112157588Y-121749990D01*
X117028092Y-113313813D01*
X117062639Y-113251620D01*
X117094969Y-113188593D01*
X117125080Y-113124788D01*
X117152969Y-113060261D01*
X117178637Y-112995067D01*
X117202080Y-112929262D01*
X117223298Y-112862901D01*
X117242289Y-112796039D01*
X117259052Y-112728733D01*
X117273584Y-112661037D01*
X117285885Y-112593007D01*
X117295953Y-112524699D01*
X117303786Y-112456168D01*
X117309383Y-112387470D01*
X117312742Y-112318661D01*
X117313862Y-112249795D01*
X117312742Y-112180934D01*
X117309383Y-112112141D01*
X117303786Y-112043468D01*
X117295953Y-111974971D01*
X117285885Y-111906702D01*
X117273584Y-111838716D01*
X117259052Y-111771067D01*
X117242289Y-111703809D01*
X117223298Y-111636995D01*
X117202080Y-111570681D01*
X117178637Y-111504919D01*
X117152969Y-111439764D01*
X117125080Y-111375271D01*
X117094969Y-111311492D01*
X117062639Y-111248481D01*
X117028092Y-111186294D01*
X111590181Y-101767231D01*
X111515166Y-101646723D01*
X111433002Y-101532378D01*
X111344072Y-101424419D01*
X111248762Y-101323068D01*
X111147457Y-101228547D01*
X111040541Y-101141079D01*
X110928398Y-101060886D01*
X110811414Y-100988191D01*
X110689973Y-100923215D01*
X110564459Y-100866181D01*
X110435258Y-100817312D01*
X110302754Y-100776829D01*
X110167331Y-100744956D01*
X110029375Y-100721914D01*
X109889270Y-100707925D01*
X109747400Y-100703213D01*
X98871578Y-100703213D01*
X98800447Y-100704396D01*
X98729708Y-100707925D01*
X98659411Y-100713774D01*
X98589603Y-100721914D01*
X98520332Y-100732317D01*
X98451647Y-100744956D01*
X98383595Y-100759802D01*
X98316224Y-100776829D01*
X98249583Y-100796008D01*
X98183720Y-100817312D01*
X98118682Y-100840712D01*
X98054519Y-100866181D01*
X97991277Y-100893691D01*
X97929005Y-100923215D01*
X97867752Y-100954724D01*
X97807564Y-100988190D01*
X97748491Y-101023587D01*
X97690580Y-101060886D01*
X97633879Y-101100059D01*
X97578437Y-101141079D01*
X97524302Y-101183917D01*
X97471521Y-101228547D01*
X97420143Y-101274940D01*
X97370216Y-101323068D01*
X97321788Y-101372903D01*
X97274906Y-101424419D01*
X97229620Y-101477586D01*
X97185977Y-101532378D01*
X97144025Y-101588766D01*
X97103812Y-101646723D01*
X97065387Y-101706220D01*
X97028797Y-101767231D01*
X92739134Y-109197268D01*
X92733452Y-108300165D01*
X96636057Y-101540371D01*
X96726992Y-101394319D01*
X96826638Y-101255718D01*
X96934522Y-101124840D01*
X97050173Y-101001957D01*
X97173116Y-100887342D01*
X97302879Y-100781265D01*
X97438989Y-100684000D01*
X97580974Y-100595818D01*
X97728359Y-100516991D01*
X97880674Y-100447792D01*
X98037444Y-100388493D01*
X98198196Y-100339365D01*
X98362459Y-100300681D01*
X98529759Y-100272712D01*
X98699623Y-100255732D01*
X98871578Y-100250011D01*
X109747400Y-100250011D01*
X109833611Y-100251447D01*
G37*
G36*
X108429362Y-101262925D02*
G01*
X108470611Y-101266192D01*
X108511460Y-101271602D01*
X108551834Y-101279121D01*
X108591655Y-101288715D01*
X108630846Y-101300348D01*
X108669329Y-101313988D01*
X108707027Y-101329598D01*
X108743864Y-101347146D01*
X108779762Y-101366597D01*
X108814644Y-101387916D01*
X108848432Y-101411070D01*
X108881050Y-101436023D01*
X108912420Y-101462741D01*
X108942465Y-101491191D01*
X108971108Y-101521337D01*
X108998117Y-101552956D01*
X109023292Y-101585793D01*
X109046608Y-101619769D01*
X109068038Y-101654802D01*
X109087557Y-101690812D01*
X109105138Y-101727719D01*
X109120755Y-101765443D01*
X109134382Y-101803904D01*
X109145994Y-101843020D01*
X109155562Y-101882711D01*
X109163063Y-101922898D01*
X109168469Y-101963500D01*
X109171754Y-102004436D01*
X109172892Y-102045627D01*
X109171857Y-102086991D01*
X109168624Y-102128449D01*
X109166210Y-102148926D01*
X109163262Y-102169307D01*
X109159786Y-102189584D01*
X109155782Y-102209745D01*
X109151255Y-102229780D01*
X109146208Y-102249681D01*
X109140645Y-102269435D01*
X109134567Y-102289035D01*
X109127980Y-102308469D01*
X109120886Y-102327727D01*
X109113287Y-102346799D01*
X109105189Y-102365676D01*
X109096593Y-102384347D01*
X109087503Y-102402802D01*
X109077923Y-102421031D01*
X109067855Y-102439024D01*
X104536361Y-110287620D01*
X104453382Y-110420889D01*
X104362473Y-110547353D01*
X104264062Y-110666767D01*
X104158578Y-110778882D01*
X104046451Y-110883450D01*
X103928109Y-110980224D01*
X103803980Y-111068957D01*
X103674494Y-111149401D01*
X103540079Y-111221307D01*
X103401165Y-111284430D01*
X103258179Y-111338521D01*
X103111552Y-111383332D01*
X102961711Y-111418616D01*
X102809086Y-111444125D01*
X102654105Y-111459613D01*
X102497197Y-111464830D01*
X93433668Y-111464830D01*
X93407086Y-111464254D01*
X93380657Y-111462789D01*
X93354400Y-111460446D01*
X93328332Y-111457236D01*
X93302473Y-111453169D01*
X93276841Y-111448257D01*
X93251454Y-111442511D01*
X93226331Y-111435941D01*
X93201490Y-111428558D01*
X93176950Y-111420374D01*
X93152729Y-111411399D01*
X93128845Y-111401645D01*
X93105318Y-111391122D01*
X93082165Y-111379841D01*
X93059405Y-111367813D01*
X93037057Y-111355050D01*
X93015139Y-111341561D01*
X92993668Y-111327359D01*
X92972665Y-111312453D01*
X92952147Y-111296855D01*
X92932133Y-111280577D01*
X92912641Y-111263628D01*
X92893690Y-111246019D01*
X92875298Y-111227763D01*
X92857483Y-111208869D01*
X92840265Y-111189349D01*
X92823661Y-111169213D01*
X92807690Y-111148473D01*
X92792370Y-111127139D01*
X92777721Y-111105223D01*
X92763760Y-111082735D01*
X92750505Y-111059686D01*
X92745855Y-110318130D01*
X92747807Y-110310477D01*
X92749835Y-110302844D01*
X92751941Y-110295231D01*
X92754122Y-110287641D01*
X95376399Y-105745829D01*
X96325844Y-105745829D01*
X96326459Y-105759086D01*
X96328022Y-105771964D01*
X96330532Y-105784463D01*
X96333991Y-105796584D01*
X96338400Y-105808328D01*
X96344343Y-105819528D01*
X96351047Y-105830019D01*
X96358509Y-105839797D01*
X96366731Y-105848861D01*
X96375711Y-105857210D01*
X96385449Y-105864842D01*
X96395945Y-105871755D01*
X96407198Y-105877947D01*
X96419208Y-105883417D01*
X96431974Y-105888164D01*
X96445497Y-105892184D01*
X96459775Y-105895478D01*
X96474808Y-105898042D01*
X96490596Y-105899876D01*
X96507138Y-105900978D01*
X96524435Y-105901345D01*
X98770809Y-105901345D01*
X98788495Y-105900978D01*
X98806208Y-105899876D01*
X98823948Y-105898042D01*
X98841717Y-105895478D01*
X98859516Y-105892185D01*
X98877346Y-105888164D01*
X98895208Y-105883418D01*
X98913104Y-105877948D01*
X98931034Y-105871755D01*
X98949000Y-105864842D01*
X98967003Y-105857211D01*
X98985045Y-105848862D01*
X99003125Y-105839797D01*
X99021246Y-105830019D01*
X99029728Y-105825120D01*
X99547555Y-105825120D01*
X99548023Y-105835716D01*
X99550181Y-105845595D01*
X99553474Y-105854837D01*
X99555546Y-105859220D01*
X99557901Y-105863444D01*
X99563463Y-105871415D01*
X99570158Y-105878749D01*
X99577987Y-105885447D01*
X99586950Y-105891508D01*
X99597045Y-105896933D01*
X99608273Y-105901720D01*
X99620633Y-105905869D01*
X99634125Y-105909381D01*
X99648749Y-105912254D01*
X99664505Y-105914490D01*
X99681391Y-105916087D01*
X99699408Y-105917046D01*
X99718555Y-105917365D01*
X99821392Y-105917365D01*
X99840244Y-105917070D01*
X99858734Y-105916183D01*
X99876859Y-105914704D01*
X99894617Y-105912633D01*
X99912005Y-105909969D01*
X99929022Y-105906712D01*
X99945664Y-105902861D01*
X99961930Y-105898416D01*
X99977817Y-105893376D01*
X99993323Y-105887740D01*
X100008445Y-105881509D01*
X100023182Y-105874682D01*
X100037530Y-105867258D01*
X100051488Y-105859237D01*
X100065053Y-105850618D01*
X100078222Y-105841401D01*
X100091209Y-105831436D01*
X100104229Y-105820575D01*
X100117283Y-105808819D01*
X100130373Y-105796168D01*
X100143503Y-105782622D01*
X100156674Y-105768183D01*
X100169888Y-105752850D01*
X100183148Y-105736624D01*
X100196456Y-105719507D01*
X100209813Y-105701497D01*
X100223223Y-105682597D01*
X100236687Y-105662806D01*
X100263787Y-105620556D01*
X100291130Y-105574750D01*
X100303265Y-105553339D01*
X100314552Y-105532609D01*
X100324989Y-105512559D01*
X100334576Y-105493190D01*
X100343309Y-105474501D01*
X100351188Y-105456493D01*
X100358211Y-105439164D01*
X100364376Y-105422516D01*
X100369681Y-105406547D01*
X100374124Y-105391257D01*
X100377704Y-105376648D01*
X100380419Y-105362717D01*
X100382268Y-105349466D01*
X100383248Y-105336893D01*
X100383358Y-105324999D01*
X100382597Y-105313784D01*
X100381094Y-105303906D01*
X100379900Y-105299205D01*
X100378409Y-105294664D01*
X100376623Y-105290281D01*
X100374542Y-105286057D01*
X100372166Y-105281992D01*
X100369494Y-105278086D01*
X100366528Y-105274339D01*
X100363267Y-105270752D01*
X100355861Y-105264054D01*
X100347278Y-105257993D01*
X100337519Y-105252568D01*
X100326584Y-105247781D01*
X100314476Y-105243632D01*
X100301194Y-105240120D01*
X100286741Y-105237247D01*
X100271117Y-105235011D01*
X100254323Y-105233414D01*
X100236361Y-105232455D01*
X100217232Y-105232136D01*
X100114397Y-105232136D01*
X100095544Y-105232431D01*
X100077054Y-105233318D01*
X100058929Y-105234797D01*
X100041171Y-105236868D01*
X100023783Y-105239532D01*
X100006766Y-105242789D01*
X99990123Y-105246640D01*
X99973857Y-105251085D01*
X99957970Y-105256125D01*
X99942464Y-105261760D01*
X99927342Y-105267991D01*
X99912605Y-105274819D01*
X99898257Y-105282243D01*
X99884299Y-105290264D01*
X99870734Y-105298883D01*
X99857565Y-105308100D01*
X99844584Y-105318046D01*
X99831584Y-105328852D01*
X99818564Y-105340515D01*
X99805524Y-105353035D01*
X99792463Y-105366410D01*
X99779380Y-105380639D01*
X99766275Y-105395720D01*
X99753148Y-105411652D01*
X99739997Y-105428434D01*
X99726822Y-105446064D01*
X99713623Y-105464541D01*
X99700399Y-105483863D01*
X99687149Y-105504030D01*
X99673873Y-105525040D01*
X99647241Y-105569582D01*
X99634346Y-105592286D01*
X99622347Y-105614177D01*
X99611243Y-105635254D01*
X99601033Y-105655519D01*
X99591717Y-105674973D01*
X99583294Y-105693617D01*
X99575764Y-105711453D01*
X99569124Y-105728480D01*
X99563376Y-105744699D01*
X99558518Y-105760113D01*
X99554549Y-105774721D01*
X99551469Y-105788525D01*
X99549277Y-105801526D01*
X99547973Y-105813724D01*
X99547555Y-105825120D01*
X99029728Y-105825120D01*
X99039408Y-105819529D01*
X99057613Y-105808328D01*
X99076244Y-105796584D01*
X99094325Y-105784463D01*
X99111855Y-105771964D01*
X99128837Y-105759086D01*
X99145270Y-105745829D01*
X99161156Y-105732192D01*
X99176497Y-105718174D01*
X99191292Y-105703774D01*
X99205544Y-105688992D01*
X99219252Y-105673827D01*
X99232419Y-105658278D01*
X99245045Y-105642345D01*
X99257130Y-105626026D01*
X99268677Y-105609321D01*
X99279686Y-105592230D01*
X99290157Y-105574750D01*
X99299892Y-105557267D01*
X99304405Y-105548667D01*
X99308680Y-105540162D01*
X99312715Y-105531753D01*
X99316508Y-105523438D01*
X99320058Y-105515219D01*
X99323363Y-105507096D01*
X99326422Y-105499068D01*
X99329233Y-105491136D01*
X99331795Y-105483299D01*
X99334105Y-105475559D01*
X99336162Y-105467915D01*
X99337965Y-105460366D01*
X99339512Y-105452915D01*
X99340801Y-105445559D01*
X99341832Y-105438303D01*
X99342608Y-105431149D01*
X99343129Y-105424095D01*
X99343396Y-105417141D01*
X99343413Y-105410286D01*
X99343179Y-105403529D01*
X99342695Y-105396870D01*
X99341965Y-105390307D01*
X99340987Y-105383840D01*
X99339765Y-105377467D01*
X99338300Y-105371188D01*
X99336592Y-105365003D01*
X99334643Y-105358909D01*
X99332454Y-105352907D01*
X99330027Y-105346995D01*
X99327364Y-105341173D01*
X99322093Y-105329972D01*
X99316047Y-105319482D01*
X99309221Y-105309704D01*
X99301612Y-105300639D01*
X99293217Y-105292290D01*
X99284033Y-105284659D01*
X99274057Y-105277746D01*
X99263284Y-105271553D01*
X99251712Y-105266083D01*
X99239337Y-105261337D01*
X99226157Y-105257316D01*
X99212167Y-105254023D01*
X99197364Y-105251458D01*
X99181745Y-105249624D01*
X99165307Y-105248523D01*
X99148046Y-105248155D01*
X96901672Y-105248155D01*
X96883956Y-105248523D01*
X96866156Y-105249624D01*
X96848272Y-105251458D01*
X96830306Y-105254022D01*
X96812258Y-105257316D01*
X96794130Y-105261336D01*
X96775923Y-105266083D01*
X96757637Y-105271553D01*
X96739275Y-105277745D01*
X96720836Y-105284658D01*
X96702323Y-105292290D01*
X96683735Y-105300639D01*
X96665075Y-105309703D01*
X96646343Y-105319481D01*
X96627540Y-105329972D01*
X96608667Y-105341173D01*
X96590692Y-105352917D01*
X96573219Y-105365038D01*
X96556249Y-105377537D01*
X96539781Y-105390414D01*
X96523816Y-105403671D01*
X96508353Y-105417308D01*
X96493392Y-105431326D01*
X96478932Y-105445726D01*
X96464974Y-105460508D01*
X96451517Y-105475673D01*
X96438561Y-105491222D01*
X96426106Y-105507156D01*
X96414152Y-105523474D01*
X96402698Y-105540179D01*
X96391744Y-105557271D01*
X96381290Y-105574750D01*
X96371555Y-105592230D01*
X96362755Y-105609321D01*
X96354892Y-105626026D01*
X96347968Y-105642345D01*
X96341982Y-105658278D01*
X96336937Y-105673827D01*
X96332832Y-105688992D01*
X96329670Y-105703774D01*
X96327450Y-105718174D01*
X96326175Y-105732192D01*
X96325844Y-105745829D01*
X95376399Y-105745829D01*
X96901672Y-103104040D01*
X97227004Y-102540561D01*
X98176798Y-102540561D01*
X98177692Y-102553350D01*
X98179559Y-102565714D01*
X98182398Y-102577653D01*
X98186211Y-102589167D01*
X98191000Y-102600255D01*
X98197329Y-102610783D01*
X98204403Y-102620616D01*
X98212220Y-102629758D01*
X98220779Y-102638209D01*
X98230077Y-102645973D01*
X98240113Y-102653050D01*
X98250885Y-102659444D01*
X98262392Y-102665156D01*
X98274630Y-102670188D01*
X98287599Y-102674543D01*
X98301297Y-102678222D01*
X98315721Y-102681227D01*
X98330871Y-102683561D01*
X98346743Y-102685226D01*
X98363338Y-102686223D01*
X98380651Y-102686555D01*
X99407980Y-102686555D01*
X98861759Y-103632750D01*
X98842073Y-103667949D01*
X98823829Y-103702854D01*
X98807028Y-103737464D01*
X98791670Y-103771778D01*
X98777757Y-103805797D01*
X98765288Y-103839520D01*
X98754264Y-103872946D01*
X98744685Y-103906075D01*
X98736553Y-103938906D01*
X98729868Y-103971440D01*
X98724630Y-104003676D01*
X98720839Y-104035613D01*
X98718497Y-104067251D01*
X98717604Y-104098589D01*
X98718161Y-104129628D01*
X98720167Y-104160366D01*
X98723830Y-104191254D01*
X98728781Y-104221379D01*
X98735020Y-104250743D01*
X98742549Y-104279345D01*
X98751366Y-104307183D01*
X98761474Y-104334258D01*
X98772872Y-104360570D01*
X98785560Y-104386117D01*
X98799540Y-104410899D01*
X98814811Y-104434917D01*
X98831375Y-104458168D01*
X98849231Y-104480654D01*
X98868380Y-104502373D01*
X98888822Y-104523325D01*
X98910559Y-104543509D01*
X98933590Y-104562926D01*
X98957845Y-104581366D01*
X98983254Y-104598620D01*
X99009818Y-104614688D01*
X99037536Y-104629569D01*
X99066408Y-104643263D01*
X99096434Y-104655768D01*
X99127615Y-104667086D01*
X99159950Y-104677214D01*
X99193438Y-104686153D01*
X99228081Y-104693901D01*
X99263878Y-104700459D01*
X99300829Y-104705826D01*
X99338934Y-104710001D01*
X99378193Y-104712984D01*
X99418606Y-104714774D01*
X99460172Y-104715371D01*
X99503086Y-104714774D01*
X99546179Y-104712984D01*
X99589452Y-104710001D01*
X99632904Y-104705826D01*
X99676534Y-104700459D01*
X99720342Y-104693901D01*
X99764329Y-104686153D01*
X99808492Y-104677214D01*
X99852833Y-104667086D01*
X99897350Y-104655768D01*
X99942044Y-104643263D01*
X99986913Y-104629569D01*
X100031958Y-104614688D01*
X100077177Y-104598620D01*
X100114397Y-104584473D01*
X100122572Y-104581366D01*
X100168140Y-104562926D01*
X100213570Y-104543509D01*
X100258550Y-104523325D01*
X100303080Y-104502373D01*
X100347159Y-104480654D01*
X100390788Y-104458168D01*
X100433967Y-104434917D01*
X100476696Y-104410899D01*
X100518974Y-104386117D01*
X100560801Y-104360570D01*
X100602178Y-104334258D01*
X100643104Y-104307183D01*
X100683578Y-104279345D01*
X100723602Y-104250743D01*
X100763175Y-104221379D01*
X100802297Y-104191254D01*
X100840967Y-104160366D01*
X100878474Y-104129628D01*
X100914888Y-104098589D01*
X100950209Y-104067251D01*
X100984434Y-104035613D01*
X101017562Y-104003676D01*
X101049592Y-103971440D01*
X101080523Y-103938906D01*
X101110352Y-103906075D01*
X101139078Y-103872946D01*
X101166700Y-103839520D01*
X101193216Y-103805797D01*
X101218624Y-103771778D01*
X101242924Y-103737464D01*
X101266114Y-103702854D01*
X101288192Y-103667949D01*
X101309156Y-103632750D01*
X102024358Y-102393549D01*
X102034092Y-102376036D01*
X102038606Y-102367400D01*
X102042885Y-102358846D01*
X102046927Y-102350375D01*
X102050731Y-102341986D01*
X102054296Y-102333681D01*
X102057622Y-102325460D01*
X102060708Y-102317324D01*
X102063553Y-102309273D01*
X102066156Y-102301309D01*
X102068517Y-102293432D01*
X102070634Y-102285643D01*
X102072507Y-102277942D01*
X102074135Y-102270330D01*
X102075517Y-102262808D01*
X102075516Y-102262808D01*
X102076656Y-102255370D01*
X102077562Y-102248012D01*
X102078234Y-102240733D01*
X102078669Y-102233536D01*
X102078868Y-102226420D01*
X102078829Y-102219386D01*
X102078551Y-102212436D01*
X102078034Y-102205570D01*
X102077277Y-102198789D01*
X102076279Y-102192094D01*
X102075040Y-102185486D01*
X102073557Y-102178965D01*
X102071831Y-102172532D01*
X102069860Y-102166188D01*
X102067644Y-102159934D01*
X102065182Y-102153771D01*
X102059894Y-102142581D01*
X102053798Y-102132124D01*
X102046895Y-102122397D01*
X102039187Y-102113398D01*
X102030675Y-102105127D01*
X102021361Y-102097583D01*
X102011244Y-102090763D01*
X102000327Y-102084668D01*
X101988610Y-102079294D01*
X101976095Y-102074641D01*
X101962784Y-102070708D01*
X101948676Y-102067492D01*
X101933775Y-102064994D01*
X101918080Y-102063211D01*
X101901592Y-102062142D01*
X101884314Y-102061787D01*
X98741354Y-102061787D01*
X98723656Y-102062124D01*
X98705907Y-102063138D01*
X98688108Y-102064828D01*
X98670258Y-102067195D01*
X98652357Y-102070239D01*
X98634404Y-102073962D01*
X98616399Y-102078363D01*
X98598342Y-102083443D01*
X98580232Y-102089203D01*
X98562070Y-102095644D01*
X98543854Y-102102765D01*
X98525585Y-102110567D01*
X98507261Y-102119052D01*
X98488884Y-102128219D01*
X98470452Y-102138069D01*
X98451965Y-102148603D01*
X98434381Y-102159673D01*
X98417299Y-102171132D01*
X98400717Y-102182978D01*
X98384637Y-102195210D01*
X98369059Y-102207828D01*
X98353982Y-102220831D01*
X98339406Y-102234219D01*
X98325331Y-102247989D01*
X98311758Y-102262142D01*
X98298687Y-102276676D01*
X98286117Y-102291591D01*
X98274049Y-102306885D01*
X98262482Y-102322559D01*
X98251417Y-102338611D01*
X98240853Y-102355040D01*
X98230791Y-102371845D01*
X98221067Y-102389306D01*
X98212302Y-102406343D01*
X98204499Y-102422955D01*
X98197658Y-102439142D01*
X98191779Y-102454905D01*
X98186866Y-102470243D01*
X98182917Y-102485156D01*
X98179935Y-102499645D01*
X98177920Y-102513709D01*
X98176874Y-102527347D01*
X98176798Y-102540561D01*
X97227004Y-102540561D01*
X97285616Y-102439045D01*
X97368595Y-102305777D01*
X97459504Y-102179312D01*
X97557915Y-102059899D01*
X97663398Y-101947784D01*
X97775526Y-101843216D01*
X97893868Y-101746442D01*
X98017997Y-101657709D01*
X98147483Y-101577265D01*
X98281898Y-101505358D01*
X98420812Y-101442236D01*
X98563798Y-101388145D01*
X98710426Y-101343334D01*
X98741354Y-101336051D01*
X98860267Y-101308050D01*
X99012892Y-101282540D01*
X99167873Y-101267053D01*
X99324781Y-101261835D01*
X108387792Y-101261835D01*
X108429362Y-101262925D01*
G37*
%TO.C,JP4*%
X150350000Y-114050000D02*
X150350000Y-113450000D01*
X151050000Y-112750000D02*
X152450000Y-112750000D01*
X152450000Y-114750000D02*
X151050000Y-114750000D01*
X153150000Y-113450000D02*
X153150000Y-114050000D01*
X151050000Y-112750000D02*
G75*
G03*
X150350000Y-113450000I-1J-699999D01*
G01*
X150350000Y-114050000D02*
G75*
G03*
X151050000Y-114750000I699999J-1D01*
G01*
X153150000Y-113450000D02*
G75*
G03*
X152450000Y-112750000I-700000J0D01*
G01*
X152450000Y-114750000D02*
G75*
G03*
X153150000Y-114050000I0J700000D01*
G01*
%TO.C,JP5*%
X150350000Y-100550000D02*
X150350000Y-99950000D01*
X151050000Y-99250000D02*
X152450000Y-99250000D01*
X152450000Y-101250000D02*
X151050000Y-101250000D01*
X153150000Y-99950000D02*
X153150000Y-100550000D01*
X151050000Y-99250000D02*
G75*
G03*
X150350000Y-99950000I-1J-699999D01*
G01*
X150350000Y-100550000D02*
G75*
G03*
X151050000Y-101250000I699999J-1D01*
G01*
X153150000Y-99950000D02*
G75*
G03*
X152450000Y-99250000I-700000J0D01*
G01*
X152450000Y-101250000D02*
G75*
G03*
X153150000Y-100550000I0J700000D01*
G01*
%TD*%
M02*
