  0
SECTION
  2
HEADER
  9
$ANGBASE
  50
0.0
  9
$ANGDIR
  70
1
  9
$MEASUREMENT
  70
0
  0
ENDSEC
  0
SECTION
  2
TABLES
  0
TABLE
  2
LTYPE
  70
4
  0
LTYPE
  5
40F
  2
CONTINUOUS
  70
0
  3
Solid line
  72
65
  73
0
  40
0.0
  0
LTYPE
  5
410
  2
DASHDOT
 70
0
  3
Dash Dot ____ _ ____ _
 72
65
 73
4
 40
2.0
 49
1.25
 49
-0.25
 49
0.25
 49
-0.25
  0
LTYPE
  5
411
  2
DASHED
 70
0
  3
Dashed __ __ __ __ __
 72
65
 73
2
 40
0.75
 49
0.5
 49
-0.25
  0
LTYPE
  5
43B
  2
DOTTED
 70
0
  3
Dotted .  .  .  .
 72
65
 73
2
 40
0.2
 49
0.0
 49
-0.2
  0
ENDTAB
  0
TABLE
  2
STYLE
  70
4
  0
STYLE
  2
KICAD
  70
0
  40
0
  41
1
  42
1
  50
0
  71
0
  3
isocp.shx
  0
STYLE
  2
KICADB
  70
0
  40
0
  41
1
  42
1
  50
0
  71
0
  3
isocp.shx
  0
STYLE
  2
KICADI
  70
0
  40
0
  41
1
  42
1
  50
15
  71
0
  3
isocp.shx
  0
STYLE
  2
KICADBI
  70
0
  40
0
  41
1
  42
1
  50
15
  71
0
  3
isocp.shx
  0
ENDTAB
  0
TABLE
  2
LAYER
  70
1
  0
LAYER
  2
BLACK
  70
0
  62
7
  6
CONTINUOUS
  0
ENDTAB
  0
ENDSEC
  0
SECTION
  2
ENTITIES
0
ARC
8
BLACK
10
5.1378
20
-4.42913
40
0.019685
50
-270
51
-90
0
ARC
8
BLACK
10
5.2874
20
-4.42913
40
0.019685
50
-90
51
90
0
LINE
8
BLACK
6
CONTINUOUS
10
3.58268
20
-4.68504
11
3.58268
21
-4.52756
0
ARC
8
BLACK
10
6.02362
20
-4.68504
40
0.11811
50
-90
51
-0
0
LINE
8
BLACK
6
CONTINUOUS
10
5.1378
20
-4.40945
11
5.2874
21
-4.40945
0
LINE
8
BLACK
6
CONTINUOUS
10
3.58268
20
-3.89764
11
3.64173
21
-3.95669
0
LINE
8
BLACK
6
CONTINUOUS
10
6.14173
20
-4.68504
11
6.14173
21
-3.74016
0
LINE
8
BLACK
6
CONTINUOUS
10
3.58268
20
-4.52756
11
3.64173
21
-4.4685
0
LINE
8
BLACK
6
CONTINUOUS
10
3.58268
20
-3.74016
11
3.58268
21
-3.89764
0
ARC
8
BLACK
10
6.02362
20
-3.74016
40
0.11811
50
-0
51
90
0
ARC
8
BLACK
10
3.70079
20
-3.74016
40
0.11811
50
90
51
180
0
ARC
8
BLACK
10
3.70079
20
-4.68504
40
0.11811
50
-180
51
-90
0
LINE
8
BLACK
6
CONTINUOUS
10
3.64173
20
-4.4685
11
3.64173
21
-3.95669
0
LINE
8
BLACK
6
CONTINUOUS
10
3.70079
20
-4.80315
11
6.02362
21
-4.80315
0
LINE
8
BLACK
6
CONTINUOUS
10
6.02362
20
-3.62205
11
3.70079
21
-3.62205
0
LINE
8
BLACK
6
CONTINUOUS
10
5.2874
20
-4.44882
11
5.1378
21
-4.44882
0
LINE
8
BLACK
6
CONTINUOUS
10
5.87874
20
-4.08602
11
5.90433
21
-4.11161
0
LINE
8
BLACK
6
CONTINUOUS
10
5.90433
20
-4.08602
11
5.87874
21
-4.11161
0
LINE
8
BLACK
6
CONTINUOUS
10
5.87874
20
-4.31358
11
5.90433
21
-4.33917
0
LINE
8
BLACK
6
CONTINUOUS
10
5.90433
20
-4.31358
11
5.87874
21
-4.33917
0
CIRCLE
8
BLACK
10
3.70079
20
-4.31693
40
0.0177165
0
CIRCLE
8
BLACK
10
3.70079
20
-4.38386
40
0.0177165
0
CIRCLE
8
BLACK
10
3.70748
20
-3.99606
40
0.0177165
0
CIRCLE
8
BLACK
10
3.70748
20
-4.11417
40
0.0177165
0
LINE
8
BLACK
6
CONTINUOUS
10
3.72047
20
-3.70669
11
3.72047
21
-3.81299
0
LINE
8
BLACK
6
CONTINUOUS
10
3.66732
20
-3.75984
11
3.77362
21
-3.75984
0
LINE
8
BLACK
6
CONTINUOUS
10
3.72047
20
-4.6122
11
3.72047
21
-4.7185
0
LINE
8
BLACK
6
CONTINUOUS
10
3.66732
20
-4.66535
11
3.77362
21
-4.66535
0
LINE
8
BLACK
6
CONTINUOUS
10
6.00394
20
-3.70669
11
6.00394
21
-3.81299
0
LINE
8
BLACK
6
CONTINUOUS
10
5.95079
20
-3.75984
11
6.05709
21
-3.75984
0
LINE
8
BLACK
6
CONTINUOUS
10
6.00394
20
-4.6122
11
6.00394
21
-4.7185
0
LINE
8
BLACK
6
CONTINUOUS
10
5.95079
20
-4.66535
11
6.05709
21
-4.66535
0
LINE
8
BLACK
6
CONTINUOUS
10
3.68338
20
-4.92775
11
3.68338
21
-4.84901
0
LINE
8
BLACK
6
CONTINUOUS
10
3.68338
20
-4.84901
11
3.70212
21
-4.84901
0
LINE
8
BLACK
6
CONTINUOUS
10
3.70212
20
-4.84901
11
3.71337
21
-4.85276
0
LINE
8
BLACK
6
CONTINUOUS
10
3.71337
20
-4.85276
11
3.72087
21
-4.86026
0
LINE
8
BLACK
6
CONTINUOUS
10
3.72087
20
-4.86026
11
3.72462
21
-4.86776
0
LINE
8
BLACK
6
CONTINUOUS
10
3.72462
20
-4.86776
11
3.72837
21
-4.88276
0
LINE
8
BLACK
6
CONTINUOUS
10
3.72837
20
-4.88276
11
3.72837
21
-4.894
0
LINE
8
BLACK
6
CONTINUOUS
10
3.72837
20
-4.894
11
3.72462
21
-4.909
0
LINE
8
BLACK
6
CONTINUOUS
10
3.72462
20
-4.909
11
3.72087
21
-4.9165
0
LINE
8
BLACK
6
CONTINUOUS
10
3.72087
20
-4.9165
11
3.71337
21
-4.924
0
LINE
8
BLACK
6
CONTINUOUS
10
3.71337
20
-4.924
11
3.70212
21
-4.92775
0
LINE
8
BLACK
6
CONTINUOUS
10
3.70212
20
-4.92775
11
3.68338
21
-4.92775
0
LINE
8
BLACK
6
CONTINUOUS
10
3.76212
20
-4.92775
11
3.76212
21
-4.87526
0
LINE
8
BLACK
6
CONTINUOUS
10
3.76212
20
-4.89025
11
3.76587
21
-4.88276
0
LINE
8
BLACK
6
CONTINUOUS
10
3.76587
20
-4.88276
11
3.76962
21
-4.87901
0
LINE
8
BLACK
6
CONTINUOUS
10
3.76962
20
-4.87901
11
3.77711
21
-4.87526
0
LINE
8
BLACK
6
CONTINUOUS
10
3.77711
20
-4.87526
11
3.78461
21
-4.87526
0
LINE
8
BLACK
6
CONTINUOUS
10
3.81086
20
-4.92775
11
3.81086
21
-4.87526
0
LINE
8
BLACK
6
CONTINUOUS
10
3.81086
20
-4.84901
11
3.80711
21
-4.85276
0
LINE
8
BLACK
6
CONTINUOUS
10
3.80711
20
-4.85276
11
3.81086
21
-4.85651
0
LINE
8
BLACK
6
CONTINUOUS
10
3.81086
20
-4.85651
11
3.81461
21
-4.85276
0
LINE
8
BLACK
6
CONTINUOUS
10
3.81461
20
-4.85276
11
3.81086
21
-4.84901
0
LINE
8
BLACK
6
CONTINUOUS
10
3.81086
20
-4.84901
11
3.81086
21
-4.85651
0
LINE
8
BLACK
6
CONTINUOUS
10
3.8596
20
-4.92775
11
3.85211
21
-4.924
0
LINE
8
BLACK
6
CONTINUOUS
10
3.85211
20
-4.924
11
3.84836
21
-4.9165
0
LINE
8
BLACK
6
CONTINUOUS
10
3.84836
20
-4.9165
11
3.84836
21
-4.84901
0
LINE
8
BLACK
6
CONTINUOUS
10
3.90085
20
-4.92775
11
3.89335
21
-4.924
0
LINE
8
BLACK
6
CONTINUOUS
10
3.89335
20
-4.924
11
3.8896
21
-4.9165
0
LINE
8
BLACK
6
CONTINUOUS
10
3.8896
20
-4.9165
11
3.8896
21
-4.84901
0
LINE
8
BLACK
6
CONTINUOUS
10
3.99084
20
-4.92775
11
3.99084
21
-4.84901
0
LINE
8
BLACK
6
CONTINUOUS
10
3.99084
20
-4.84901
11
4.01708
21
-4.90525
0
LINE
8
BLACK
6
CONTINUOUS
10
4.01708
20
-4.90525
11
4.04333
21
-4.84901
0
LINE
8
BLACK
6
CONTINUOUS
10
4.04333
20
-4.84901
11
4.04333
21
-4.92775
0
LINE
8
BLACK
6
CONTINUOUS
10
4.11457
20
-4.92775
11
4.11457
21
-4.8865
0
LINE
8
BLACK
6
CONTINUOUS
10
4.11457
20
-4.8865
11
4.11082
21
-4.87901
0
LINE
8
BLACK
6
CONTINUOUS
10
4.11082
20
-4.87901
11
4.10332
21
-4.87526
0
LINE
8
BLACK
6
CONTINUOUS
10
4.10332
20
-4.87526
11
4.08833
21
-4.87526
0
LINE
8
BLACK
6
CONTINUOUS
10
4.08833
20
-4.87526
11
4.08083
21
-4.87901
0
LINE
8
BLACK
6
CONTINUOUS
10
4.11457
20
-4.924
11
4.10707
21
-4.92775
0
LINE
8
BLACK
6
CONTINUOUS
10
4.10707
20
-4.92775
11
4.08833
21
-4.92775
0
LINE
8
BLACK
6
CONTINUOUS
10
4.08833
20
-4.92775
11
4.08083
21
-4.924
0
LINE
8
BLACK
6
CONTINUOUS
10
4.08083
20
-4.924
11
4.07708
21
-4.9165
0
LINE
8
BLACK
6
CONTINUOUS
10
4.07708
20
-4.9165
11
4.07708
21
-4.909
0
LINE
8
BLACK
6
CONTINUOUS
10
4.07708
20
-4.909
11
4.08083
21
-4.9015
0
LINE
8
BLACK
6
CONTINUOUS
10
4.08083
20
-4.9015
11
4.08833
21
-4.89775
0
LINE
8
BLACK
6
CONTINUOUS
10
4.08833
20
-4.89775
11
4.10707
21
-4.89775
0
LINE
8
BLACK
6
CONTINUOUS
10
4.10707
20
-4.89775
11
4.11457
21
-4.894
0
LINE
8
BLACK
6
CONTINUOUS
10
4.15207
20
-4.87526
11
4.15207
21
-4.954
0
LINE
8
BLACK
6
CONTINUOUS
10
4.15207
20
-4.87901
11
4.15957
21
-4.87526
0
LINE
8
BLACK
6
CONTINUOUS
10
4.15957
20
-4.87526
11
4.17457
21
-4.87526
0
LINE
8
BLACK
6
CONTINUOUS
10
4.17457
20
-4.87526
11
4.18206
21
-4.87901
0
LINE
8
BLACK
6
CONTINUOUS
10
4.18206
20
-4.87901
11
4.18581
21
-4.88276
0
LINE
8
BLACK
6
CONTINUOUS
10
4.18581
20
-4.88276
11
4.18956
21
-4.89025
0
LINE
8
BLACK
6
CONTINUOUS
10
4.18956
20
-4.89025
11
4.18956
21
-4.91275
0
LINE
8
BLACK
6
CONTINUOUS
10
4.18956
20
-4.91275
11
4.18581
21
-4.92025
0
LINE
8
BLACK
6
CONTINUOUS
10
4.18581
20
-4.92025
11
4.18206
21
-4.924
0
LINE
8
BLACK
6
CONTINUOUS
10
4.18206
20
-4.924
11
4.17457
21
-4.92775
0
LINE
8
BLACK
6
CONTINUOUS
10
4.17457
20
-4.92775
11
4.15957
21
-4.92775
0
LINE
8
BLACK
6
CONTINUOUS
10
4.15957
20
-4.92775
11
4.15207
21
-4.924
0
LINE
8
BLACK
6
CONTINUOUS
10
4.22331
20
-4.92025
11
4.22706
21
-4.924
0
LINE
8
BLACK
6
CONTINUOUS
10
4.22706
20
-4.924
11
4.22331
21
-4.92775
0
LINE
8
BLACK
6
CONTINUOUS
10
4.22331
20
-4.92775
11
4.21956
21
-4.924
0
LINE
8
BLACK
6
CONTINUOUS
10
4.21956
20
-4.924
11
4.22331
21
-4.92025
0
LINE
8
BLACK
6
CONTINUOUS
10
4.22331
20
-4.92025
11
4.22331
21
-4.92775
0
LINE
8
BLACK
6
CONTINUOUS
10
4.22331
20
-4.87901
11
4.22706
21
-4.88276
0
LINE
8
BLACK
6
CONTINUOUS
10
4.22706
20
-4.88276
11
4.22331
21
-4.8865
0
LINE
8
BLACK
6
CONTINUOUS
10
4.22331
20
-4.8865
11
4.21956
21
-4.88276
0
LINE
8
BLACK
6
CONTINUOUS
10
4.21956
20
-4.88276
11
4.22331
21
-4.87901
0
LINE
8
BLACK
6
CONTINUOUS
10
4.22331
20
-4.87901
11
4.22331
21
-4.8865
0
LINE
8
BLACK
6
CONTINUOUS
10
3.55512
20
-5.04429
11
3.58071
21
-5.06988
0
LINE
8
BLACK
6
CONTINUOUS
10
3.58071
20
-5.04429
11
3.55512
21
-5.06988
0
LINE
8
BLACK
6
CONTINUOUS
10
3.69837
20
-5.01436
11
3.70587
21
-5.01436
0
LINE
8
BLACK
6
CONTINUOUS
10
3.70587
20
-5.01436
11
3.71337
21
-5.01811
0
LINE
8
BLACK
6
CONTINUOUS
10
3.71337
20
-5.01811
11
3.71712
21
-5.02186
0
LINE
8
BLACK
6
CONTINUOUS
10
3.71712
20
-5.02186
11
3.72087
21
-5.02936
0
LINE
8
BLACK
6
CONTINUOUS
10
3.72087
20
-5.02936
11
3.72462
21
-5.04436
0
LINE
8
BLACK
6
CONTINUOUS
10
3.72462
20
-5.04436
11
3.72462
21
-5.06311
0
LINE
8
BLACK
6
CONTINUOUS
10
3.72462
20
-5.06311
11
3.72087
21
-5.07811
0
LINE
8
BLACK
6
CONTINUOUS
10
3.72087
20
-5.07811
11
3.71712
21
-5.0856
0
LINE
8
BLACK
6
CONTINUOUS
10
3.71712
20
-5.0856
11
3.71337
21
-5.08935
0
LINE
8
BLACK
6
CONTINUOUS
10
3.71337
20
-5.08935
11
3.70587
21
-5.0931
0
LINE
8
BLACK
6
CONTINUOUS
10
3.70587
20
-5.0931
11
3.69837
21
-5.0931
0
LINE
8
BLACK
6
CONTINUOUS
10
3.69837
20
-5.0931
11
3.69088
21
-5.08935
0
LINE
8
BLACK
6
CONTINUOUS
10
3.69088
20
-5.08935
11
3.68713
21
-5.0856
0
LINE
8
BLACK
6
CONTINUOUS
10
3.68713
20
-5.0856
11
3.68338
21
-5.07811
0
LINE
8
BLACK
6
CONTINUOUS
10
3.68338
20
-5.07811
11
3.67963
21
-5.06311
0
LINE
8
BLACK
6
CONTINUOUS
10
3.67963
20
-5.06311
11
3.67963
21
-5.04436
0
LINE
8
BLACK
6
CONTINUOUS
10
3.67963
20
-5.04436
11
3.68338
21
-5.02936
0
LINE
8
BLACK
6
CONTINUOUS
10
3.68338
20
-5.02936
11
3.68713
21
-5.02186
0
LINE
8
BLACK
6
CONTINUOUS
10
3.68713
20
-5.02186
11
3.69088
21
-5.01811
0
LINE
8
BLACK
6
CONTINUOUS
10
3.69088
20
-5.01811
11
3.69837
21
-5.01436
0
LINE
8
BLACK
6
CONTINUOUS
10
3.75837
20
-5.0856
11
3.76212
21
-5.08935
0
LINE
8
BLACK
6
CONTINUOUS
10
3.76212
20
-5.08935
11
3.75837
21
-5.0931
0
LINE
8
BLACK
6
CONTINUOUS
10
3.75837
20
-5.0931
11
3.75462
21
-5.08935
0
LINE
8
BLACK
6
CONTINUOUS
10
3.75462
20
-5.08935
11
3.75837
21
-5.0856
0
LINE
8
BLACK
6
CONTINUOUS
10
3.75837
20
-5.0856
11
3.75837
21
-5.0931
0
LINE
8
BLACK
6
CONTINUOUS
10
3.82961
20
-5.01436
11
3.81461
21
-5.01436
0
LINE
8
BLACK
6
CONTINUOUS
10
3.81461
20
-5.01436
11
3.80711
21
-5.01811
0
LINE
8
BLACK
6
CONTINUOUS
10
3.80711
20
-5.01811
11
3.80336
21
-5.02186
0
LINE
8
BLACK
6
CONTINUOUS
10
3.80336
20
-5.02186
11
3.79586
21
-5.03311
0
LINE
8
BLACK
6
CONTINUOUS
10
3.79586
20
-5.03311
11
3.79211
21
-5.04811
0
LINE
8
BLACK
6
CONTINUOUS
10
3.79211
20
-5.04811
11
3.79211
21
-5.07811
0
LINE
8
BLACK
6
CONTINUOUS
10
3.79211
20
-5.07811
11
3.79586
21
-5.0856
0
LINE
8
BLACK
6
CONTINUOUS
10
3.79586
20
-5.0856
11
3.79961
21
-5.08935
0
LINE
8
BLACK
6
CONTINUOUS
10
3.79961
20
-5.08935
11
3.80711
21
-5.0931
0
LINE
8
BLACK
6
CONTINUOUS
10
3.80711
20
-5.0931
11
3.82211
21
-5.0931
0
LINE
8
BLACK
6
CONTINUOUS
10
3.82211
20
-5.0931
11
3.82961
21
-5.08935
0
LINE
8
BLACK
6
CONTINUOUS
10
3.82961
20
-5.08935
11
3.83336
21
-5.0856
0
LINE
8
BLACK
6
CONTINUOUS
10
3.83336
20
-5.0856
11
3.83711
21
-5.07811
0
LINE
8
BLACK
6
CONTINUOUS
10
3.83711
20
-5.07811
11
3.83711
21
-5.05936
0
LINE
8
BLACK
6
CONTINUOUS
10
3.83711
20
-5.05936
11
3.83336
21
-5.05186
0
LINE
8
BLACK
6
CONTINUOUS
10
3.83336
20
-5.05186
11
3.82961
21
-5.04811
0
LINE
8
BLACK
6
CONTINUOUS
10
3.82961
20
-5.04811
11
3.82211
21
-5.04436
0
LINE
8
BLACK
6
CONTINUOUS
10
3.82211
20
-5.04436
11
3.80711
21
-5.04436
0
LINE
8
BLACK
6
CONTINUOUS
10
3.80711
20
-5.04436
11
3.79961
21
-5.04811
0
LINE
8
BLACK
6
CONTINUOUS
10
3.79961
20
-5.04811
11
3.79586
21
-5.05186
0
LINE
8
BLACK
6
CONTINUOUS
10
3.79586
20
-5.05186
11
3.79211
21
-5.05936
0
LINE
8
BLACK
6
CONTINUOUS
10
3.90835
20
-5.01436
11
3.87085
21
-5.01436
0
LINE
8
BLACK
6
CONTINUOUS
10
3.87085
20
-5.01436
11
3.8671
21
-5.05186
0
LINE
8
BLACK
6
CONTINUOUS
10
3.8671
20
-5.05186
11
3.87085
21
-5.04811
0
LINE
8
BLACK
6
CONTINUOUS
10
3.87085
20
-5.04811
11
3.87835
21
-5.04436
0
LINE
8
BLACK
6
CONTINUOUS
10
3.87835
20
-5.04436
11
3.8971
21
-5.04436
0
LINE
8
BLACK
6
CONTINUOUS
10
3.8971
20
-5.04436
11
3.9046
21
-5.04811
0
LINE
8
BLACK
6
CONTINUOUS
10
3.9046
20
-5.04811
11
3.90835
21
-5.05186
0
LINE
8
BLACK
6
CONTINUOUS
10
3.90835
20
-5.05186
11
3.9121
21
-5.05936
0
LINE
8
BLACK
6
CONTINUOUS
10
3.9121
20
-5.05936
11
3.9121
21
-5.07811
0
LINE
8
BLACK
6
CONTINUOUS
10
3.9121
20
-5.07811
11
3.90835
21
-5.0856
0
LINE
8
BLACK
6
CONTINUOUS
10
3.90835
20
-5.0856
11
3.9046
21
-5.08935
0
LINE
8
BLACK
6
CONTINUOUS
10
3.9046
20
-5.08935
11
3.8971
21
-5.0931
0
LINE
8
BLACK
6
CONTINUOUS
10
3.8971
20
-5.0931
11
3.87835
21
-5.0931
0
LINE
8
BLACK
6
CONTINUOUS
10
3.87835
20
-5.0931
11
3.87085
21
-5.08935
0
LINE
8
BLACK
6
CONTINUOUS
10
3.87085
20
-5.08935
11
3.8671
21
-5.0856
0
LINE
8
BLACK
6
CONTINUOUS
10
3.96084
20
-5.01436
11
3.96834
21
-5.01436
0
LINE
8
BLACK
6
CONTINUOUS
10
3.96834
20
-5.01436
11
3.97584
21
-5.01811
0
LINE
8
BLACK
6
CONTINUOUS
10
3.97584
20
-5.01811
11
3.97959
21
-5.02186
0
LINE
8
BLACK
6
CONTINUOUS
10
3.97959
20
-5.02186
11
3.98334
21
-5.02936
0
LINE
8
BLACK
6
CONTINUOUS
10
3.98334
20
-5.02936
11
3.98709
21
-5.04436
0
LINE
8
BLACK
6
CONTINUOUS
10
3.98709
20
-5.04436
11
3.98709
21
-5.06311
0
LINE
8
BLACK
6
CONTINUOUS
10
3.98709
20
-5.06311
11
3.98334
21
-5.07811
0
LINE
8
BLACK
6
CONTINUOUS
10
3.98334
20
-5.07811
11
3.97959
21
-5.0856
0
LINE
8
BLACK
6
CONTINUOUS
10
3.97959
20
-5.0856
11
3.97584
21
-5.08935
0
LINE
8
BLACK
6
CONTINUOUS
10
3.97584
20
-5.08935
11
3.96834
21
-5.0931
0
LINE
8
BLACK
6
CONTINUOUS
10
3.96834
20
-5.0931
11
3.96084
21
-5.0931
0
LINE
8
BLACK
6
CONTINUOUS
10
3.96084
20
-5.0931
11
3.95334
21
-5.08935
0
LINE
8
BLACK
6
CONTINUOUS
10
3.95334
20
-5.08935
11
3.94959
21
-5.0856
0
LINE
8
BLACK
6
CONTINUOUS
10
3.94959
20
-5.0856
11
3.94584
21
-5.07811
0
LINE
8
BLACK
6
CONTINUOUS
10
3.94584
20
-5.07811
11
3.94209
21
-5.06311
0
LINE
8
BLACK
6
CONTINUOUS
10
3.94209
20
-5.06311
11
3.94209
21
-5.04436
0
LINE
8
BLACK
6
CONTINUOUS
10
3.94209
20
-5.04436
11
3.94584
21
-5.02936
0
LINE
8
BLACK
6
CONTINUOUS
10
3.94584
20
-5.02936
11
3.94959
21
-5.02186
0
LINE
8
BLACK
6
CONTINUOUS
10
3.94959
20
-5.02186
11
3.95334
21
-5.01811
0
LINE
8
BLACK
6
CONTINUOUS
10
3.95334
20
-5.01811
11
3.96084
21
-5.01436
0
LINE
8
BLACK
6
CONTINUOUS
10
4.02083
20
-5.0931
11
4.02083
21
-5.04061
0
LINE
8
BLACK
6
CONTINUOUS
10
4.02083
20
-5.04811
11
4.02458
21
-5.04436
0
LINE
8
BLACK
6
CONTINUOUS
10
4.02458
20
-5.04436
11
4.03208
21
-5.04061
0
LINE
8
BLACK
6
CONTINUOUS
10
4.03208
20
-5.04061
11
4.04333
21
-5.04061
0
LINE
8
BLACK
6
CONTINUOUS
10
4.04333
20
-5.04061
11
4.05083
21
-5.04436
0
LINE
8
BLACK
6
CONTINUOUS
10
4.05083
20
-5.04436
11
4.05458
21
-5.05186
0
LINE
8
BLACK
6
CONTINUOUS
10
4.05458
20
-5.05186
11
4.05458
21
-5.0931
0
LINE
8
BLACK
6
CONTINUOUS
10
4.05458
20
-5.05186
11
4.05833
21
-5.04436
0
LINE
8
BLACK
6
CONTINUOUS
10
4.05833
20
-5.04436
11
4.06583
21
-5.04061
0
LINE
8
BLACK
6
CONTINUOUS
10
4.06583
20
-5.04061
11
4.07708
21
-5.04061
0
LINE
8
BLACK
6
CONTINUOUS
10
4.07708
20
-5.04061
11
4.08458
21
-5.04436
0
LINE
8
BLACK
6
CONTINUOUS
10
4.08458
20
-5.04436
11
4.08833
21
-5.05186
0
LINE
8
BLACK
6
CONTINUOUS
10
4.08833
20
-5.05186
11
4.08833
21
-5.0931
0
LINE
8
BLACK
6
CONTINUOUS
10
4.12582
20
-5.0931
11
4.12582
21
-5.04061
0
LINE
8
BLACK
6
CONTINUOUS
10
4.12582
20
-5.04811
11
4.12957
21
-5.04436
0
LINE
8
BLACK
6
CONTINUOUS
10
4.12957
20
-5.04436
11
4.13707
21
-5.04061
0
LINE
8
BLACK
6
CONTINUOUS
10
4.13707
20
-5.04061
11
4.14832
21
-5.04061
0
LINE
8
BLACK
6
CONTINUOUS
10
4.14832
20
-5.04061
11
4.15582
21
-5.04436
0
LINE
8
BLACK
6
CONTINUOUS
10
4.15582
20
-5.04436
11
4.15957
21
-5.05186
0
LINE
8
BLACK
6
CONTINUOUS
10
4.15957
20
-5.05186
11
4.15957
21
-5.0931
0
LINE
8
BLACK
6
CONTINUOUS
10
4.15957
20
-5.05186
11
4.16332
21
-5.04436
0
LINE
8
BLACK
6
CONTINUOUS
10
4.16332
20
-5.04436
11
4.17082
21
-5.04061
0
LINE
8
BLACK
6
CONTINUOUS
10
4.17082
20
-5.04061
11
4.18206
21
-5.04061
0
LINE
8
BLACK
6
CONTINUOUS
10
4.18206
20
-5.04061
11
4.18956
21
-5.04436
0
LINE
8
BLACK
6
CONTINUOUS
10
4.18956
20
-5.04436
11
4.19331
21
-5.05186
0
LINE
8
BLACK
6
CONTINUOUS
10
4.19331
20
-5.05186
11
4.19331
21
-5.0931
0
LINE
8
BLACK
6
CONTINUOUS
10
4.34704
20
-5.01061
11
4.27955
21
-5.11185
0
LINE
8
BLACK
6
CONTINUOUS
10
4.44828
20
-5.01436
11
4.45578
21
-5.01436
0
LINE
8
BLACK
6
CONTINUOUS
10
4.45578
20
-5.01436
11
4.46328
21
-5.01811
0
LINE
8
BLACK
6
CONTINUOUS
10
4.46328
20
-5.01811
11
4.46703
21
-5.02186
0
LINE
8
BLACK
6
CONTINUOUS
10
4.46703
20
-5.02186
11
4.47078
21
-5.02936
0
LINE
8
BLACK
6
CONTINUOUS
10
4.47078
20
-5.02936
11
4.47453
21
-5.04436
0
LINE
8
BLACK
6
CONTINUOUS
10
4.47453
20
-5.04436
11
4.47453
21
-5.06311
0
LINE
8
BLACK
6
CONTINUOUS
10
4.47453
20
-5.06311
11
4.47078
21
-5.07811
0
LINE
8
BLACK
6
CONTINUOUS
10
4.47078
20
-5.07811
11
4.46703
21
-5.0856
0
LINE
8
BLACK
6
CONTINUOUS
10
4.46703
20
-5.0856
11
4.46328
21
-5.08935
0
LINE
8
BLACK
6
CONTINUOUS
10
4.46328
20
-5.08935
11
4.45578
21
-5.0931
0
LINE
8
BLACK
6
CONTINUOUS
10
4.45578
20
-5.0931
11
4.44828
21
-5.0931
0
LINE
8
BLACK
6
CONTINUOUS
10
4.44828
20
-5.0931
11
4.44078
21
-5.08935
0
LINE
8
BLACK
6
CONTINUOUS
10
4.44078
20
-5.08935
11
4.43703
21
-5.0856
0
LINE
8
BLACK
6
CONTINUOUS
10
4.43703
20
-5.0856
11
4.43328
21
-5.07811
0
LINE
8
BLACK
6
CONTINUOUS
10
4.43328
20
-5.07811
11
4.42953
21
-5.06311
0
LINE
8
BLACK
6
CONTINUOUS
10
4.42953
20
-5.06311
11
4.42953
21
-5.04436
0
LINE
8
BLACK
6
CONTINUOUS
10
4.42953
20
-5.04436
11
4.43328
21
-5.02936
0
LINE
8
BLACK
6
CONTINUOUS
10
4.43328
20
-5.02936
11
4.43703
21
-5.02186
0
LINE
8
BLACK
6
CONTINUOUS
10
4.43703
20
-5.02186
11
4.44078
21
-5.01811
0
LINE
8
BLACK
6
CONTINUOUS
10
4.44078
20
-5.01811
11
4.44828
21
-5.01436
0
LINE
8
BLACK
6
CONTINUOUS
10
4.50827
20
-5.0856
11
4.51202
21
-5.08935
0
LINE
8
BLACK
6
CONTINUOUS
10
4.51202
20
-5.08935
11
4.50827
21
-5.0931
0
LINE
8
BLACK
6
CONTINUOUS
10
4.50827
20
-5.0931
11
4.50452
21
-5.08935
0
LINE
8
BLACK
6
CONTINUOUS
10
4.50452
20
-5.08935
11
4.50827
21
-5.0856
0
LINE
8
BLACK
6
CONTINUOUS
10
4.50827
20
-5.0856
11
4.50827
21
-5.0931
0
LINE
8
BLACK
6
CONTINUOUS
10
4.56077
20
-5.01436
11
4.56827
21
-5.01436
0
LINE
8
BLACK
6
CONTINUOUS
10
4.56827
20
-5.01436
11
4.57577
21
-5.01811
0
LINE
8
BLACK
6
CONTINUOUS
10
4.57577
20
-5.01811
11
4.57951
21
-5.02186
0
LINE
8
BLACK
6
CONTINUOUS
10
4.57951
20
-5.02186
11
4.58326
21
-5.02936
0
LINE
8
BLACK
6
CONTINUOUS
10
4.58326
20
-5.02936
11
4.58701
21
-5.04436
0
LINE
8
BLACK
6
CONTINUOUS
10
4.58701
20
-5.04436
11
4.58701
21
-5.06311
0
LINE
8
BLACK
6
CONTINUOUS
10
4.58701
20
-5.06311
11
4.58326
21
-5.07811
0
LINE
8
BLACK
6
CONTINUOUS
10
4.58326
20
-5.07811
11
4.57951
21
-5.0856
0
LINE
8
BLACK
6
CONTINUOUS
10
4.57951
20
-5.0856
11
4.57577
21
-5.08935
0
LINE
8
BLACK
6
CONTINUOUS
10
4.57577
20
-5.08935
11
4.56827
21
-5.0931
0
LINE
8
BLACK
6
CONTINUOUS
10
4.56827
20
-5.0931
11
4.56077
21
-5.0931
0
LINE
8
BLACK
6
CONTINUOUS
10
4.56077
20
-5.0931
11
4.55327
21
-5.08935
0
LINE
8
BLACK
6
CONTINUOUS
10
4.55327
20
-5.08935
11
4.54952
21
-5.0856
0
LINE
8
BLACK
6
CONTINUOUS
10
4.54952
20
-5.0856
11
4.54577
21
-5.07811
0
LINE
8
BLACK
6
CONTINUOUS
10
4.54577
20
-5.07811
11
4.54202
21
-5.06311
0
LINE
8
BLACK
6
CONTINUOUS
10
4.54202
20
-5.06311
11
4.54202
21
-5.04436
0
LINE
8
BLACK
6
CONTINUOUS
10
4.54202
20
-5.04436
11
4.54577
21
-5.02936
0
LINE
8
BLACK
6
CONTINUOUS
10
4.54577
20
-5.02936
11
4.54952
21
-5.02186
0
LINE
8
BLACK
6
CONTINUOUS
10
4.54952
20
-5.02186
11
4.55327
21
-5.01811
0
LINE
8
BLACK
6
CONTINUOUS
10
4.55327
20
-5.01811
11
4.56077
21
-5.01436
0
LINE
8
BLACK
6
CONTINUOUS
10
4.61701
20
-5.02186
11
4.62076
21
-5.01811
0
LINE
8
BLACK
6
CONTINUOUS
10
4.62076
20
-5.01811
11
4.62826
21
-5.01436
0
LINE
8
BLACK
6
CONTINUOUS
10
4.62826
20
-5.01436
11
4.64701
21
-5.01436
0
LINE
8
BLACK
6
CONTINUOUS
10
4.64701
20
-5.01436
11
4.65451
21
-5.01811
0
LINE
8
BLACK
6
CONTINUOUS
10
4.65451
20
-5.01811
11
4.65825
21
-5.02186
0
LINE
8
BLACK
6
CONTINUOUS
10
4.65825
20
-5.02186
11
4.662
21
-5.02936
0
LINE
8
BLACK
6
CONTINUOUS
10
4.662
20
-5.02936
11
4.662
21
-5.03686
0
LINE
8
BLACK
6
CONTINUOUS
10
4.662
20
-5.03686
11
4.65825
21
-5.04811
0
LINE
8
BLACK
6
CONTINUOUS
10
4.65825
20
-5.04811
11
4.61326
21
-5.0931
0
LINE
8
BLACK
6
CONTINUOUS
10
4.61326
20
-5.0931
11
4.662
21
-5.0931
0
LINE
8
BLACK
6
CONTINUOUS
10
4.73325
20
-5.01436
11
4.69575
21
-5.01436
0
LINE
8
BLACK
6
CONTINUOUS
10
4.69575
20
-5.01436
11
4.692
21
-5.05186
0
LINE
8
BLACK
6
CONTINUOUS
10
4.692
20
-5.05186
11
4.69575
21
-5.04811
0
LINE
8
BLACK
6
CONTINUOUS
10
4.69575
20
-5.04811
11
4.70325
21
-5.04436
0
LINE
8
BLACK
6
CONTINUOUS
10
4.70325
20
-5.04436
11
4.722
21
-5.04436
0
LINE
8
BLACK
6
CONTINUOUS
10
4.722
20
-5.04436
11
4.7295
21
-5.04811
0
LINE
8
BLACK
6
CONTINUOUS
10
4.7295
20
-5.04811
11
4.73325
21
-5.05186
0
LINE
8
BLACK
6
CONTINUOUS
10
4.73325
20
-5.05186
11
4.737
21
-5.05936
0
LINE
8
BLACK
6
CONTINUOUS
10
4.737
20
-5.05936
11
4.737
21
-5.07811
0
LINE
8
BLACK
6
CONTINUOUS
10
4.737
20
-5.07811
11
4.73325
21
-5.0856
0
LINE
8
BLACK
6
CONTINUOUS
10
4.73325
20
-5.0856
11
4.7295
21
-5.08935
0
LINE
8
BLACK
6
CONTINUOUS
10
4.7295
20
-5.08935
11
4.722
21
-5.0931
0
LINE
8
BLACK
6
CONTINUOUS
10
4.722
20
-5.0931
11
4.70325
21
-5.0931
0
LINE
8
BLACK
6
CONTINUOUS
10
4.70325
20
-5.0931
11
4.69575
21
-5.08935
0
LINE
8
BLACK
6
CONTINUOUS
10
4.69575
20
-5.08935
11
4.692
21
-5.0856
0
LINE
8
BLACK
6
CONTINUOUS
10
4.80449
20
-5.01436
11
4.78949
21
-5.01436
0
LINE
8
BLACK
6
CONTINUOUS
10
4.78949
20
-5.01436
11
4.78199
21
-5.01811
0
LINE
8
BLACK
6
CONTINUOUS
10
4.78199
20
-5.01811
11
4.77824
21
-5.02186
0
LINE
8
BLACK
6
CONTINUOUS
10
4.77824
20
-5.02186
11
4.77074
21
-5.03311
0
LINE
8
BLACK
6
CONTINUOUS
10
4.77074
20
-5.03311
11
4.76699
21
-5.04811
0
LINE
8
BLACK
6
CONTINUOUS
10
4.76699
20
-5.04811
11
4.76699
21
-5.07811
0
LINE
8
BLACK
6
CONTINUOUS
10
4.76699
20
-5.07811
11
4.77074
21
-5.0856
0
LINE
8
BLACK
6
CONTINUOUS
10
4.77074
20
-5.0856
11
4.77449
21
-5.08935
0
LINE
8
BLACK
6
CONTINUOUS
10
4.77449
20
-5.08935
11
4.78199
21
-5.0931
0
LINE
8
BLACK
6
CONTINUOUS
10
4.78199
20
-5.0931
11
4.79699
21
-5.0931
0
LINE
8
BLACK
6
CONTINUOUS
10
4.79699
20
-5.0931
11
4.80449
21
-5.08935
0
LINE
8
BLACK
6
CONTINUOUS
10
4.80449
20
-5.08935
11
4.80824
21
-5.0856
0
LINE
8
BLACK
6
CONTINUOUS
10
4.80824
20
-5.0856
11
4.81199
21
-5.07811
0
LINE
8
BLACK
6
CONTINUOUS
10
4.81199
20
-5.07811
11
4.81199
21
-5.05936
0
LINE
8
BLACK
6
CONTINUOUS
10
4.81199
20
-5.05936
11
4.80824
21
-5.05186
0
LINE
8
BLACK
6
CONTINUOUS
10
4.80824
20
-5.05186
11
4.80449
21
-5.04811
0
LINE
8
BLACK
6
CONTINUOUS
10
4.80449
20
-5.04811
11
4.79699
21
-5.04436
0
LINE
8
BLACK
6
CONTINUOUS
10
4.79699
20
-5.04436
11
4.78199
21
-5.04436
0
LINE
8
BLACK
6
CONTINUOUS
10
4.78199
20
-5.04436
11
4.77449
21
-5.04811
0
LINE
8
BLACK
6
CONTINUOUS
10
4.77449
20
-5.04811
11
4.77074
21
-5.05186
0
LINE
8
BLACK
6
CONTINUOUS
10
4.77074
20
-5.05186
11
4.76699
21
-5.05936
0
LINE
8
BLACK
6
CONTINUOUS
10
4.84198
20
-5.01436
11
4.84198
21
-5.02936
0
LINE
8
BLACK
6
CONTINUOUS
10
4.87198
20
-5.01436
11
4.87198
21
-5.02936
0
LINE
8
BLACK
6
CONTINUOUS
10
4.98821
20
-5.1231
11
4.98446
21
-5.11935
0
LINE
8
BLACK
6
CONTINUOUS
10
4.98446
20
-5.11935
11
4.97697
21
-5.1081
0
LINE
8
BLACK
6
CONTINUOUS
10
4.97697
20
-5.1081
11
4.97322
21
-5.1006
0
LINE
8
BLACK
6
CONTINUOUS
10
4.97322
20
-5.1006
11
4.96947
21
-5.08935
0
LINE
8
BLACK
6
CONTINUOUS
10
4.96947
20
-5.08935
11
4.96572
21
-5.07061
0
LINE
8
BLACK
6
CONTINUOUS
10
4.96572
20
-5.07061
11
4.96572
21
-5.05561
0
LINE
8
BLACK
6
CONTINUOUS
10
4.96572
20
-5.05561
11
4.96947
21
-5.03686
0
LINE
8
BLACK
6
CONTINUOUS
10
4.96947
20
-5.03686
11
4.97322
21
-5.02561
0
LINE
8
BLACK
6
CONTINUOUS
10
4.97322
20
-5.02561
11
4.97697
21
-5.01811
0
LINE
8
BLACK
6
CONTINUOUS
10
4.97697
20
-5.01811
11
4.98446
21
-5.00686
0
LINE
8
BLACK
6
CONTINUOUS
10
4.98446
20
-5.00686
11
4.98821
21
-5.00312
0
LINE
8
BLACK
6
CONTINUOUS
10
5.01446
20
-5.02186
11
5.01821
21
-5.01811
0
LINE
8
BLACK
6
CONTINUOUS
10
5.01821
20
-5.01811
11
5.02571
21
-5.01436
0
LINE
8
BLACK
6
CONTINUOUS
10
5.02571
20
-5.01436
11
5.04446
21
-5.01436
0
LINE
8
BLACK
6
CONTINUOUS
10
5.04446
20
-5.01436
11
5.05196
21
-5.01811
0
LINE
8
BLACK
6
CONTINUOUS
10
5.05196
20
-5.01811
11
5.05571
21
-5.02186
0
LINE
8
BLACK
6
CONTINUOUS
10
5.05571
20
-5.02186
11
5.05945
21
-5.02936
0
LINE
8
BLACK
6
CONTINUOUS
10
5.05945
20
-5.02936
11
5.05945
21
-5.03686
0
LINE
8
BLACK
6
CONTINUOUS
10
5.05945
20
-5.03686
11
5.05571
21
-5.04811
0
LINE
8
BLACK
6
CONTINUOUS
10
5.05571
20
-5.04811
11
5.01071
21
-5.0931
0
LINE
8
BLACK
6
CONTINUOUS
10
5.01071
20
-5.0931
11
5.05945
21
-5.0931
0
LINE
8
BLACK
6
CONTINUOUS
10
5.15319
20
-5.0931
11
5.15319
21
-5.01436
0
LINE
8
BLACK
6
CONTINUOUS
10
5.18694
20
-5.0931
11
5.18694
21
-5.05186
0
LINE
8
BLACK
6
CONTINUOUS
10
5.18694
20
-5.05186
11
5.18319
21
-5.04436
0
LINE
8
BLACK
6
CONTINUOUS
10
5.18319
20
-5.04436
11
5.17569
21
-5.04061
0
LINE
8
BLACK
6
CONTINUOUS
10
5.17569
20
-5.04061
11
5.16444
21
-5.04061
0
LINE
8
BLACK
6
CONTINUOUS
10
5.16444
20
-5.04061
11
5.15694
21
-5.04436
0
LINE
8
BLACK
6
CONTINUOUS
10
5.15694
20
-5.04436
11
5.15319
21
-5.04811
0
LINE
8
BLACK
6
CONTINUOUS
10
5.23568
20
-5.0931
11
5.22818
21
-5.08935
0
LINE
8
BLACK
6
CONTINUOUS
10
5.22818
20
-5.08935
11
5.22443
21
-5.0856
0
LINE
8
BLACK
6
CONTINUOUS
10
5.22443
20
-5.0856
11
5.22068
21
-5.07811
0
LINE
8
BLACK
6
CONTINUOUS
10
5.22068
20
-5.07811
11
5.22068
21
-5.05561
0
LINE
8
BLACK
6
CONTINUOUS
10
5.22068
20
-5.05561
11
5.22443
21
-5.04811
0
LINE
8
BLACK
6
CONTINUOUS
10
5.22443
20
-5.04811
11
5.22818
21
-5.04436
0
LINE
8
BLACK
6
CONTINUOUS
10
5.22818
20
-5.04436
11
5.23568
21
-5.04061
0
LINE
8
BLACK
6
CONTINUOUS
10
5.23568
20
-5.04061
11
5.24693
21
-5.04061
0
LINE
8
BLACK
6
CONTINUOUS
10
5.24693
20
-5.04061
11
5.25443
21
-5.04436
0
LINE
8
BLACK
6
CONTINUOUS
10
5.25443
20
-5.04436
11
5.25818
21
-5.04811
0
LINE
8
BLACK
6
CONTINUOUS
10
5.25818
20
-5.04811
11
5.26193
21
-5.05561
0
LINE
8
BLACK
6
CONTINUOUS
10
5.26193
20
-5.05561
11
5.26193
21
-5.07811
0
LINE
8
BLACK
6
CONTINUOUS
10
5.26193
20
-5.07811
11
5.25818
21
-5.0856
0
LINE
8
BLACK
6
CONTINUOUS
10
5.25818
20
-5.0856
11
5.25443
21
-5.08935
0
LINE
8
BLACK
6
CONTINUOUS
10
5.25443
20
-5.08935
11
5.24693
21
-5.0931
0
LINE
8
BLACK
6
CONTINUOUS
10
5.24693
20
-5.0931
11
5.23568
21
-5.0931
0
LINE
8
BLACK
6
CONTINUOUS
10
5.30692
20
-5.0931
11
5.29942
21
-5.08935
0
LINE
8
BLACK
6
CONTINUOUS
10
5.29942
20
-5.08935
11
5.29568
21
-5.08186
0
LINE
8
BLACK
6
CONTINUOUS
10
5.29568
20
-5.08186
11
5.29568
21
-5.01436
0
LINE
8
BLACK
6
CONTINUOUS
10
5.36692
20
-5.08935
11
5.35942
21
-5.0931
0
LINE
8
BLACK
6
CONTINUOUS
10
5.35942
20
-5.0931
11
5.34442
21
-5.0931
0
LINE
8
BLACK
6
CONTINUOUS
10
5.34442
20
-5.0931
11
5.33692
21
-5.08935
0
LINE
8
BLACK
6
CONTINUOUS
10
5.33692
20
-5.08935
11
5.33317
21
-5.08186
0
LINE
8
BLACK
6
CONTINUOUS
10
5.33317
20
-5.08186
11
5.33317
21
-5.05186
0
LINE
8
BLACK
6
CONTINUOUS
10
5.33317
20
-5.05186
11
5.33692
21
-5.04436
0
LINE
8
BLACK
6
CONTINUOUS
10
5.33692
20
-5.04436
11
5.34442
21
-5.04061
0
LINE
8
BLACK
6
CONTINUOUS
10
5.34442
20
-5.04061
11
5.35942
21
-5.04061
0
LINE
8
BLACK
6
CONTINUOUS
10
5.35942
20
-5.04061
11
5.36692
21
-5.04436
0
LINE
8
BLACK
6
CONTINUOUS
10
5.36692
20
-5.04436
11
5.37067
21
-5.05186
0
LINE
8
BLACK
6
CONTINUOUS
10
5.37067
20
-5.05186
11
5.37067
21
-5.05936
0
LINE
8
BLACK
6
CONTINUOUS
10
5.37067
20
-5.05936
11
5.33317
21
-5.06686
0
LINE
8
BLACK
6
CONTINUOUS
10
5.40066
20
-5.08935
11
5.40816
21
-5.0931
0
LINE
8
BLACK
6
CONTINUOUS
10
5.40816
20
-5.0931
11
5.42316
21
-5.0931
0
LINE
8
BLACK
6
CONTINUOUS
10
5.42316
20
-5.0931
11
5.43066
21
-5.08935
0
LINE
8
BLACK
6
CONTINUOUS
10
5.43066
20
-5.08935
11
5.43441
21
-5.08186
0
LINE
8
BLACK
6
CONTINUOUS
10
5.43441
20
-5.08186
11
5.43441
21
-5.07811
0
LINE
8
BLACK
6
CONTINUOUS
10
5.43441
20
-5.07811
11
5.43066
21
-5.07061
0
LINE
8
BLACK
6
CONTINUOUS
10
5.43066
20
-5.07061
11
5.42316
21
-5.06686
0
LINE
8
BLACK
6
CONTINUOUS
10
5.42316
20
-5.06686
11
5.41191
21
-5.06686
0
LINE
8
BLACK
6
CONTINUOUS
10
5.41191
20
-5.06686
11
5.40441
21
-5.06311
0
LINE
8
BLACK
6
CONTINUOUS
10
5.40441
20
-5.06311
11
5.40066
21
-5.05561
0
LINE
8
BLACK
6
CONTINUOUS
10
5.40066
20
-5.05561
11
5.40066
21
-5.05186
0
LINE
8
BLACK
6
CONTINUOUS
10
5.40066
20
-5.05186
11
5.40441
21
-5.04436
0
LINE
8
BLACK
6
CONTINUOUS
10
5.40441
20
-5.04436
11
5.41191
21
-5.04061
0
LINE
8
BLACK
6
CONTINUOUS
10
5.41191
20
-5.04061
11
5.42316
21
-5.04061
0
LINE
8
BLACK
6
CONTINUOUS
10
5.42316
20
-5.04061
11
5.43066
21
-5.04436
0
LINE
8
BLACK
6
CONTINUOUS
10
5.46065
20
-5.1231
11
5.4644
21
-5.11935
0
LINE
8
BLACK
6
CONTINUOUS
10
5.4644
20
-5.11935
11
5.4719
21
-5.1081
0
LINE
8
BLACK
6
CONTINUOUS
10
5.4719
20
-5.1081
11
5.47565
21
-5.1006
0
LINE
8
BLACK
6
CONTINUOUS
10
5.47565
20
-5.1006
11
5.4794
21
-5.08935
0
LINE
8
BLACK
6
CONTINUOUS
10
5.4794
20
-5.08935
11
5.48315
21
-5.07061
0
LINE
8
BLACK
6
CONTINUOUS
10
5.48315
20
-5.07061
11
5.48315
21
-5.05561
0
LINE
8
BLACK
6
CONTINUOUS
10
5.48315
20
-5.05561
11
5.4794
21
-5.03686
0
LINE
8
BLACK
6
CONTINUOUS
10
5.4794
20
-5.03686
11
5.47565
21
-5.02561
0
LINE
8
BLACK
6
CONTINUOUS
10
5.47565
20
-5.02561
11
5.4719
21
-5.01811
0
LINE
8
BLACK
6
CONTINUOUS
10
5.4719
20
-5.01811
11
5.4644
21
-5.00686
0
LINE
8
BLACK
6
CONTINUOUS
10
5.4644
20
-5.00686
11
5.46065
21
-5.00312
0
LINE
8
BLACK
6
CONTINUOUS
10
5.60314
20
-5.1231
11
5.59939
21
-5.11935
0
LINE
8
BLACK
6
CONTINUOUS
10
5.59939
20
-5.11935
11
5.59189
21
-5.1081
0
LINE
8
BLACK
6
CONTINUOUS
10
5.59189
20
-5.1081
11
5.58814
21
-5.1006
0
LINE
8
BLACK
6
CONTINUOUS
10
5.58814
20
-5.1006
11
5.58439
21
-5.08935
0
LINE
8
BLACK
6
CONTINUOUS
10
5.58439
20
-5.08935
11
5.58064
21
-5.07061
0
LINE
8
BLACK
6
CONTINUOUS
10
5.58064
20
-5.07061
11
5.58064
21
-5.05561
0
LINE
8
BLACK
6
CONTINUOUS
10
5.58064
20
-5.05561
11
5.58439
21
-5.03686
0
LINE
8
BLACK
6
CONTINUOUS
10
5.58439
20
-5.03686
11
5.58814
21
-5.02561
0
LINE
8
BLACK
6
CONTINUOUS
10
5.58814
20
-5.02561
11
5.59189
21
-5.01811
0
LINE
8
BLACK
6
CONTINUOUS
10
5.59189
20
-5.01811
11
5.59939
21
-5.00686
0
LINE
8
BLACK
6
CONTINUOUS
10
5.59939
20
-5.00686
11
5.60314
21
-5.00312
0
LINE
8
BLACK
6
CONTINUOUS
10
5.63313
20
-5.04061
11
5.63313
21
-5.0931
0
LINE
8
BLACK
6
CONTINUOUS
10
5.63313
20
-5.04811
11
5.63688
21
-5.04436
0
LINE
8
BLACK
6
CONTINUOUS
10
5.63688
20
-5.04436
11
5.64438
21
-5.04061
0
LINE
8
BLACK
6
CONTINUOUS
10
5.64438
20
-5.04061
11
5.65563
21
-5.04061
0
LINE
8
BLACK
6
CONTINUOUS
10
5.65563
20
-5.04061
11
5.66313
21
-5.04436
0
LINE
8
BLACK
6
CONTINUOUS
10
5.66313
20
-5.04436
11
5.66688
21
-5.05186
0
LINE
8
BLACK
6
CONTINUOUS
10
5.66688
20
-5.05186
11
5.66688
21
-5.0931
0
LINE
8
BLACK
6
CONTINUOUS
10
5.71562
20
-5.0931
11
5.70812
21
-5.08935
0
LINE
8
BLACK
6
CONTINUOUS
10
5.70812
20
-5.08935
11
5.70437
21
-5.0856
0
LINE
8
BLACK
6
CONTINUOUS
10
5.70437
20
-5.0856
11
5.70062
21
-5.07811
0
LINE
8
BLACK
6
CONTINUOUS
10
5.70062
20
-5.07811
11
5.70062
21
-5.05561
0
LINE
8
BLACK
6
CONTINUOUS
10
5.70062
20
-5.05561
11
5.70437
21
-5.04811
0
LINE
8
BLACK
6
CONTINUOUS
10
5.70437
20
-5.04811
11
5.70812
21
-5.04436
0
LINE
8
BLACK
6
CONTINUOUS
10
5.70812
20
-5.04436
11
5.71562
21
-5.04061
0
LINE
8
BLACK
6
CONTINUOUS
10
5.71562
20
-5.04061
11
5.72687
21
-5.04061
0
LINE
8
BLACK
6
CONTINUOUS
10
5.72687
20
-5.04061
11
5.73437
21
-5.04436
0
LINE
8
BLACK
6
CONTINUOUS
10
5.73437
20
-5.04436
11
5.73812
21
-5.04811
0
LINE
8
BLACK
6
CONTINUOUS
10
5.73812
20
-5.04811
11
5.74187
21
-5.05561
0
LINE
8
BLACK
6
CONTINUOUS
10
5.74187
20
-5.05561
11
5.74187
21
-5.07811
0
LINE
8
BLACK
6
CONTINUOUS
10
5.74187
20
-5.07811
11
5.73812
21
-5.0856
0
LINE
8
BLACK
6
CONTINUOUS
10
5.73812
20
-5.0856
11
5.73437
21
-5.08935
0
LINE
8
BLACK
6
CONTINUOUS
10
5.73437
20
-5.08935
11
5.72687
21
-5.0931
0
LINE
8
BLACK
6
CONTINUOUS
10
5.72687
20
-5.0931
11
5.71562
21
-5.0931
0
LINE
8
BLACK
6
CONTINUOUS
10
5.76437
20
-5.04061
11
5.79436
21
-5.04061
0
LINE
8
BLACK
6
CONTINUOUS
10
5.77562
20
-5.01436
11
5.77562
21
-5.08186
0
LINE
8
BLACK
6
CONTINUOUS
10
5.77562
20
-5.08186
11
5.77936
21
-5.08935
0
LINE
8
BLACK
6
CONTINUOUS
10
5.77936
20
-5.08935
11
5.78686
21
-5.0931
0
LINE
8
BLACK
6
CONTINUOUS
10
5.78686
20
-5.0931
11
5.79436
21
-5.0931
0
LINE
8
BLACK
6
CONTINUOUS
10
5.8806
20
-5.04061
11
5.8806
21
-5.11935
0
LINE
8
BLACK
6
CONTINUOUS
10
5.8806
20
-5.04436
11
5.8881
21
-5.04061
0
LINE
8
BLACK
6
CONTINUOUS
10
5.8881
20
-5.04061
11
5.9031
21
-5.04061
0
LINE
8
BLACK
6
CONTINUOUS
10
5.9031
20
-5.04061
11
5.9106
21
-5.04436
0
LINE
8
BLACK
6
CONTINUOUS
10
5.9106
20
-5.04436
11
5.91435
21
-5.04811
0
LINE
8
BLACK
6
CONTINUOUS
10
5.91435
20
-5.04811
11
5.9181
21
-5.05561
0
LINE
8
BLACK
6
CONTINUOUS
10
5.9181
20
-5.05561
11
5.9181
21
-5.07811
0
LINE
8
BLACK
6
CONTINUOUS
10
5.9181
20
-5.07811
11
5.91435
21
-5.0856
0
LINE
8
BLACK
6
CONTINUOUS
10
5.91435
20
-5.0856
11
5.9106
21
-5.08935
0
LINE
8
BLACK
6
CONTINUOUS
10
5.9106
20
-5.08935
11
5.9031
21
-5.0931
0
LINE
8
BLACK
6
CONTINUOUS
10
5.9031
20
-5.0931
11
5.8881
21
-5.0931
0
LINE
8
BLACK
6
CONTINUOUS
10
5.8881
20
-5.0931
11
5.8806
21
-5.08935
0
LINE
8
BLACK
6
CONTINUOUS
10
5.96309
20
-5.0931
11
5.95559
21
-5.08935
0
LINE
8
BLACK
6
CONTINUOUS
10
5.95559
20
-5.08935
11
5.95184
21
-5.08186
0
LINE
8
BLACK
6
CONTINUOUS
10
5.95184
20
-5.08186
11
5.95184
21
-5.01436
0
LINE
8
BLACK
6
CONTINUOUS
10
6.02683
20
-5.0931
11
6.02683
21
-5.05186
0
LINE
8
BLACK
6
CONTINUOUS
10
6.02683
20
-5.05186
11
6.02308
21
-5.04436
0
LINE
8
BLACK
6
CONTINUOUS
10
6.02308
20
-5.04436
11
6.01559
21
-5.04061
0
LINE
8
BLACK
6
CONTINUOUS
10
6.01559
20
-5.04061
11
6.00059
21
-5.04061
0
LINE
8
BLACK
6
CONTINUOUS
10
6.00059
20
-5.04061
11
5.99309
21
-5.04436
0
LINE
8
BLACK
6
CONTINUOUS
10
6.02683
20
-5.08935
11
6.01933
21
-5.0931
0
LINE
8
BLACK
6
CONTINUOUS
10
6.01933
20
-5.0931
11
6.00059
21
-5.0931
0
LINE
8
BLACK
6
CONTINUOUS
10
6.00059
20
-5.0931
11
5.99309
21
-5.08935
0
LINE
8
BLACK
6
CONTINUOUS
10
5.99309
20
-5.08935
11
5.98934
21
-5.08186
0
LINE
8
BLACK
6
CONTINUOUS
10
5.98934
20
-5.08186
11
5.98934
21
-5.07436
0
LINE
8
BLACK
6
CONTINUOUS
10
5.98934
20
-5.07436
11
5.99309
21
-5.06686
0
LINE
8
BLACK
6
CONTINUOUS
10
5.99309
20
-5.06686
11
6.00059
21
-5.06311
0
LINE
8
BLACK
6
CONTINUOUS
10
6.00059
20
-5.06311
11
6.01933
21
-5.06311
0
LINE
8
BLACK
6
CONTINUOUS
10
6.01933
20
-5.06311
11
6.02683
21
-5.05936
0
LINE
8
BLACK
6
CONTINUOUS
10
6.05308
20
-5.04061
11
6.08308
21
-5.04061
0
LINE
8
BLACK
6
CONTINUOUS
10
6.06433
20
-5.01436
11
6.06433
21
-5.08186
0
LINE
8
BLACK
6
CONTINUOUS
10
6.06433
20
-5.08186
11
6.06808
21
-5.08935
0
LINE
8
BLACK
6
CONTINUOUS
10
6.06808
20
-5.08935
11
6.07558
21
-5.0931
0
LINE
8
BLACK
6
CONTINUOUS
10
6.07558
20
-5.0931
11
6.08308
21
-5.0931
0
LINE
8
BLACK
6
CONTINUOUS
10
6.13932
20
-5.08935
11
6.13182
21
-5.0931
0
LINE
8
BLACK
6
CONTINUOUS
10
6.13182
20
-5.0931
11
6.11682
21
-5.0931
0
LINE
8
BLACK
6
CONTINUOUS
10
6.11682
20
-5.0931
11
6.10932
21
-5.08935
0
LINE
8
BLACK
6
CONTINUOUS
10
6.10932
20
-5.08935
11
6.10557
21
-5.08186
0
LINE
8
BLACK
6
CONTINUOUS
10
6.10557
20
-5.08186
11
6.10557
21
-5.05186
0
LINE
8
BLACK
6
CONTINUOUS
10
6.10557
20
-5.05186
11
6.10932
21
-5.04436
0
LINE
8
BLACK
6
CONTINUOUS
10
6.10932
20
-5.04436
11
6.11682
21
-5.04061
0
LINE
8
BLACK
6
CONTINUOUS
10
6.11682
20
-5.04061
11
6.13182
21
-5.04061
0
LINE
8
BLACK
6
CONTINUOUS
10
6.13182
20
-5.04061
11
6.13932
21
-5.04436
0
LINE
8
BLACK
6
CONTINUOUS
10
6.13932
20
-5.04436
11
6.14307
21
-5.05186
0
LINE
8
BLACK
6
CONTINUOUS
10
6.14307
20
-5.05186
11
6.14307
21
-5.05936
0
LINE
8
BLACK
6
CONTINUOUS
10
6.14307
20
-5.05936
11
6.10557
21
-5.06686
0
LINE
8
BLACK
6
CONTINUOUS
10
6.21056
20
-5.0931
11
6.21056
21
-5.01436
0
LINE
8
BLACK
6
CONTINUOUS
10
6.21056
20
-5.08935
11
6.20306
21
-5.0931
0
LINE
8
BLACK
6
CONTINUOUS
10
6.20306
20
-5.0931
11
6.18806
21
-5.0931
0
LINE
8
BLACK
6
CONTINUOUS
10
6.18806
20
-5.0931
11
6.18056
21
-5.08935
0
LINE
8
BLACK
6
CONTINUOUS
10
6.18056
20
-5.08935
11
6.17682
21
-5.0856
0
LINE
8
BLACK
6
CONTINUOUS
10
6.17682
20
-5.0856
11
6.17307
21
-5.07811
0
LINE
8
BLACK
6
CONTINUOUS
10
6.17307
20
-5.07811
11
6.17307
21
-5.05561
0
LINE
8
BLACK
6
CONTINUOUS
10
6.17307
20
-5.05561
11
6.17682
21
-5.04811
0
LINE
8
BLACK
6
CONTINUOUS
10
6.17682
20
-5.04811
11
6.18056
21
-5.04436
0
LINE
8
BLACK
6
CONTINUOUS
10
6.18056
20
-5.04436
11
6.18806
21
-5.04061
0
LINE
8
BLACK
6
CONTINUOUS
10
6.18806
20
-5.04061
11
6.20306
21
-5.04061
0
LINE
8
BLACK
6
CONTINUOUS
10
6.20306
20
-5.04061
11
6.21056
21
-5.04436
0
LINE
8
BLACK
6
CONTINUOUS
10
6.24056
20
-5.1231
11
6.24431
21
-5.11935
0
LINE
8
BLACK
6
CONTINUOUS
10
6.24431
20
-5.11935
11
6.25181
21
-5.1081
0
LINE
8
BLACK
6
CONTINUOUS
10
6.25181
20
-5.1081
11
6.25556
21
-5.1006
0
LINE
8
BLACK
6
CONTINUOUS
10
6.25556
20
-5.1006
11
6.2593
21
-5.08935
0
LINE
8
BLACK
6
CONTINUOUS
10
6.2593
20
-5.08935
11
6.26305
21
-5.07061
0
LINE
8
BLACK
6
CONTINUOUS
10
6.26305
20
-5.07061
11
6.26305
21
-5.05561
0
LINE
8
BLACK
6
CONTINUOUS
10
6.26305
20
-5.05561
11
6.2593
21
-5.03686
0
LINE
8
BLACK
6
CONTINUOUS
10
6.2593
20
-5.03686
11
6.25556
21
-5.02561
0
LINE
8
BLACK
6
CONTINUOUS
10
6.25556
20
-5.02561
11
6.25181
21
-5.01811
0
LINE
8
BLACK
6
CONTINUOUS
10
6.25181
20
-5.01811
11
6.24431
21
-5.00686
0
LINE
8
BLACK
6
CONTINUOUS
10
6.24431
20
-5.00686
11
6.24056
21
-5.00312
0
CIRCLE
8
BLACK
10
3.56299
20
-5.16102
40
0.0177165
0
LINE
8
BLACK
6
CONTINUOUS
10
3.69837
20
-5.1183
11
3.70587
21
-5.1183
0
LINE
8
BLACK
6
CONTINUOUS
10
3.70587
20
-5.1183
11
3.71337
21
-5.12205
0
LINE
8
BLACK
6
CONTINUOUS
10
3.71337
20
-5.12205
11
3.71712
21
-5.1258
0
LINE
8
BLACK
6
CONTINUOUS
10
3.71712
20
-5.1258
11
3.72087
21
-5.1333
0
LINE
8
BLACK
6
CONTINUOUS
10
3.72087
20
-5.1333
11
3.72462
21
-5.1483
0
LINE
8
BLACK
6
CONTINUOUS
10
3.72462
20
-5.1483
11
3.72462
21
-5.16704
0
LINE
8
BLACK
6
CONTINUOUS
10
3.72462
20
-5.16704
11
3.72087
21
-5.18204
0
LINE
8
BLACK
6
CONTINUOUS
10
3.72087
20
-5.18204
11
3.71712
21
-5.18954
0
LINE
8
BLACK
6
CONTINUOUS
10
3.71712
20
-5.18954
11
3.71337
21
-5.19329
0
LINE
8
BLACK
6
CONTINUOUS
10
3.71337
20
-5.19329
11
3.70587
21
-5.19704
0
LINE
8
BLACK
6
CONTINUOUS
10
3.70587
20
-5.19704
11
3.69837
21
-5.19704
0
LINE
8
BLACK
6
CONTINUOUS
10
3.69837
20
-5.19704
11
3.69088
21
-5.19329
0
LINE
8
BLACK
6
CONTINUOUS
10
3.69088
20
-5.19329
11
3.68713
21
-5.18954
0
LINE
8
BLACK
6
CONTINUOUS
10
3.68713
20
-5.18954
11
3.68338
21
-5.18204
0
LINE
8
BLACK
6
CONTINUOUS
10
3.68338
20
-5.18204
11
3.67963
21
-5.16704
0
LINE
8
BLACK
6
CONTINUOUS
10
3.67963
20
-5.16704
11
3.67963
21
-5.1483
0
LINE
8
BLACK
6
CONTINUOUS
10
3.67963
20
-5.1483
11
3.68338
21
-5.1333
0
LINE
8
BLACK
6
CONTINUOUS
10
3.68338
20
-5.1333
11
3.68713
21
-5.1258
0
LINE
8
BLACK
6
CONTINUOUS
10
3.68713
20
-5.1258
11
3.69088
21
-5.12205
0
LINE
8
BLACK
6
CONTINUOUS
10
3.69088
20
-5.12205
11
3.69837
21
-5.1183
0
LINE
8
BLACK
6
CONTINUOUS
10
3.75837
20
-5.18954
11
3.76212
21
-5.19329
0
LINE
8
BLACK
6
CONTINUOUS
10
3.76212
20
-5.19329
11
3.75837
21
-5.19704
0
LINE
8
BLACK
6
CONTINUOUS
10
3.75837
20
-5.19704
11
3.75462
21
-5.19329
0
LINE
8
BLACK
6
CONTINUOUS
10
3.75462
20
-5.19329
11
3.75837
21
-5.18954
0
LINE
8
BLACK
6
CONTINUOUS
10
3.75837
20
-5.18954
11
3.75837
21
-5.19704
0
LINE
8
BLACK
6
CONTINUOUS
10
3.79961
20
-5.19704
11
3.81461
21
-5.19704
0
LINE
8
BLACK
6
CONTINUOUS
10
3.81461
20
-5.19704
11
3.82211
21
-5.19329
0
LINE
8
BLACK
6
CONTINUOUS
10
3.82211
20
-5.19329
11
3.82586
21
-5.18954
0
LINE
8
BLACK
6
CONTINUOUS
10
3.82586
20
-5.18954
11
3.83336
21
-5.17829
0
LINE
8
BLACK
6
CONTINUOUS
10
3.83336
20
-5.17829
11
3.83711
21
-5.1633
0
LINE
8
BLACK
6
CONTINUOUS
10
3.83711
20
-5.1633
11
3.83711
21
-5.1333
0
LINE
8
BLACK
6
CONTINUOUS
10
3.83711
20
-5.1333
11
3.83336
21
-5.1258
0
LINE
8
BLACK
6
CONTINUOUS
10
3.83336
20
-5.1258
11
3.82961
21
-5.12205
0
LINE
8
BLACK
6
CONTINUOUS
10
3.82961
20
-5.12205
11
3.82211
21
-5.1183
0
LINE
8
BLACK
6
CONTINUOUS
10
3.82211
20
-5.1183
11
3.80711
21
-5.1183
0
LINE
8
BLACK
6
CONTINUOUS
10
3.80711
20
-5.1183
11
3.79961
21
-5.12205
0
LINE
8
BLACK
6
CONTINUOUS
10
3.79961
20
-5.12205
11
3.79586
21
-5.1258
0
LINE
8
BLACK
6
CONTINUOUS
10
3.79586
20
-5.1258
11
3.79211
21
-5.1333
0
LINE
8
BLACK
6
CONTINUOUS
10
3.79211
20
-5.1333
11
3.79211
21
-5.15205
0
LINE
8
BLACK
6
CONTINUOUS
10
3.79211
20
-5.15205
11
3.79586
21
-5.15955
0
LINE
8
BLACK
6
CONTINUOUS
10
3.79586
20
-5.15955
11
3.79961
21
-5.1633
0
LINE
8
BLACK
6
CONTINUOUS
10
3.79961
20
-5.1633
11
3.80711
21
-5.16704
0
LINE
8
BLACK
6
CONTINUOUS
10
3.80711
20
-5.16704
11
3.82211
21
-5.16704
0
LINE
8
BLACK
6
CONTINUOUS
10
3.82211
20
-5.16704
11
3.82961
21
-5.1633
0
LINE
8
BLACK
6
CONTINUOUS
10
3.82961
20
-5.1633
11
3.83336
21
-5.15955
0
LINE
8
BLACK
6
CONTINUOUS
10
3.83336
20
-5.15955
11
3.83711
21
-5.15205
0
LINE
8
BLACK
6
CONTINUOUS
10
3.88585
20
-5.1183
11
3.89335
21
-5.1183
0
LINE
8
BLACK
6
CONTINUOUS
10
3.89335
20
-5.1183
11
3.90085
21
-5.12205
0
LINE
8
BLACK
6
CONTINUOUS
10
3.90085
20
-5.12205
11
3.9046
21
-5.1258
0
LINE
8
BLACK
6
CONTINUOUS
10
3.9046
20
-5.1258
11
3.90835
21
-5.1333
0
LINE
8
BLACK
6
CONTINUOUS
10
3.90835
20
-5.1333
11
3.9121
21
-5.1483
0
LINE
8
BLACK
6
CONTINUOUS
10
3.9121
20
-5.1483
11
3.9121
21
-5.16704
0
LINE
8
BLACK
6
CONTINUOUS
10
3.9121
20
-5.16704
11
3.90835
21
-5.18204
0
LINE
8
BLACK
6
CONTINUOUS
10
3.90835
20
-5.18204
11
3.9046
21
-5.18954
0
LINE
8
BLACK
6
CONTINUOUS
10
3.9046
20
-5.18954
11
3.90085
21
-5.19329
0
LINE
8
BLACK
6
CONTINUOUS
10
3.90085
20
-5.19329
11
3.89335
21
-5.19704
0
LINE
8
BLACK
6
CONTINUOUS
10
3.89335
20
-5.19704
11
3.88585
21
-5.19704
0
LINE
8
BLACK
6
CONTINUOUS
10
3.88585
20
-5.19704
11
3.87835
21
-5.19329
0
LINE
8
BLACK
6
CONTINUOUS
10
3.87835
20
-5.19329
11
3.8746
21
-5.18954
0
LINE
8
BLACK
6
CONTINUOUS
10
3.8746
20
-5.18954
11
3.87085
21
-5.18204
0
LINE
8
BLACK
6
CONTINUOUS
10
3.87085
20
-5.18204
11
3.8671
21
-5.16704
0
LINE
8
BLACK
6
CONTINUOUS
10
3.8671
20
-5.16704
11
3.8671
21
-5.1483
0
LINE
8
BLACK
6
CONTINUOUS
10
3.8671
20
-5.1483
11
3.87085
21
-5.1333
0
LINE
8
BLACK
6
CONTINUOUS
10
3.87085
20
-5.1333
11
3.8746
21
-5.1258
0
LINE
8
BLACK
6
CONTINUOUS
10
3.8746
20
-5.1258
11
3.87835
21
-5.12205
0
LINE
8
BLACK
6
CONTINUOUS
10
3.87835
20
-5.12205
11
3.88585
21
-5.1183
0
LINE
8
BLACK
6
CONTINUOUS
10
3.96084
20
-5.1183
11
3.96834
21
-5.1183
0
LINE
8
BLACK
6
CONTINUOUS
10
3.96834
20
-5.1183
11
3.97584
21
-5.12205
0
LINE
8
BLACK
6
CONTINUOUS
10
3.97584
20
-5.12205
11
3.97959
21
-5.1258
0
LINE
8
BLACK
6
CONTINUOUS
10
3.97959
20
-5.1258
11
3.98334
21
-5.1333
0
LINE
8
BLACK
6
CONTINUOUS
10
3.98334
20
-5.1333
11
3.98709
21
-5.1483
0
LINE
8
BLACK
6
CONTINUOUS
10
3.98709
20
-5.1483
11
3.98709
21
-5.16704
0
LINE
8
BLACK
6
CONTINUOUS
10
3.98709
20
-5.16704
11
3.98334
21
-5.18204
0
LINE
8
BLACK
6
CONTINUOUS
10
3.98334
20
-5.18204
11
3.97959
21
-5.18954
0
LINE
8
BLACK
6
CONTINUOUS
10
3.97959
20
-5.18954
11
3.97584
21
-5.19329
0
LINE
8
BLACK
6
CONTINUOUS
10
3.97584
20
-5.19329
11
3.96834
21
-5.19704
0
LINE
8
BLACK
6
CONTINUOUS
10
3.96834
20
-5.19704
11
3.96084
21
-5.19704
0
LINE
8
BLACK
6
CONTINUOUS
10
3.96084
20
-5.19704
11
3.95334
21
-5.19329
0
LINE
8
BLACK
6
CONTINUOUS
10
3.95334
20
-5.19329
11
3.94959
21
-5.18954
0
LINE
8
BLACK
6
CONTINUOUS
10
3.94959
20
-5.18954
11
3.94584
21
-5.18204
0
LINE
8
BLACK
6
CONTINUOUS
10
3.94584
20
-5.18204
11
3.94209
21
-5.16704
0
LINE
8
BLACK
6
CONTINUOUS
10
3.94209
20
-5.16704
11
3.94209
21
-5.1483
0
LINE
8
BLACK
6
CONTINUOUS
10
3.94209
20
-5.1483
11
3.94584
21
-5.1333
0
LINE
8
BLACK
6
CONTINUOUS
10
3.94584
20
-5.1333
11
3.94959
21
-5.1258
0
LINE
8
BLACK
6
CONTINUOUS
10
3.94959
20
-5.1258
11
3.95334
21
-5.12205
0
LINE
8
BLACK
6
CONTINUOUS
10
3.95334
20
-5.12205
11
3.96084
21
-5.1183
0
LINE
8
BLACK
6
CONTINUOUS
10
4.02083
20
-5.19704
11
4.02083
21
-5.14455
0
LINE
8
BLACK
6
CONTINUOUS
10
4.02083
20
-5.15205
11
4.02458
21
-5.1483
0
LINE
8
BLACK
6
CONTINUOUS
10
4.02458
20
-5.1483
11
4.03208
21
-5.14455
0
LINE
8
BLACK
6
CONTINUOUS
10
4.03208
20
-5.14455
11
4.04333
21
-5.14455
0
LINE
8
BLACK
6
CONTINUOUS
10
4.04333
20
-5.14455
11
4.05083
21
-5.1483
0
LINE
8
BLACK
6
CONTINUOUS
10
4.05083
20
-5.1483
11
4.05458
21
-5.1558
0
LINE
8
BLACK
6
CONTINUOUS
10
4.05458
20
-5.1558
11
4.05458
21
-5.19704
0
LINE
8
BLACK
6
CONTINUOUS
10
4.05458
20
-5.1558
11
4.05833
21
-5.1483
0
LINE
8
BLACK
6
CONTINUOUS
10
4.05833
20
-5.1483
11
4.06583
21
-5.14455
0
LINE
8
BLACK
6
CONTINUOUS
10
4.06583
20
-5.14455
11
4.07708
21
-5.14455
0
LINE
8
BLACK
6
CONTINUOUS
10
4.07708
20
-5.14455
11
4.08458
21
-5.1483
0
LINE
8
BLACK
6
CONTINUOUS
10
4.08458
20
-5.1483
11
4.08833
21
-5.1558
0
LINE
8
BLACK
6
CONTINUOUS
10
4.08833
20
-5.1558
11
4.08833
21
-5.19704
0
LINE
8
BLACK
6
CONTINUOUS
10
4.12582
20
-5.19704
11
4.12582
21
-5.14455
0
LINE
8
BLACK
6
CONTINUOUS
10
4.12582
20
-5.15205
11
4.12957
21
-5.1483
0
LINE
8
BLACK
6
CONTINUOUS
10
4.12957
20
-5.1483
11
4.13707
21
-5.14455
0
LINE
8
BLACK
6
CONTINUOUS
10
4.13707
20
-5.14455
11
4.14832
21
-5.14455
0
LINE
8
BLACK
6
CONTINUOUS
10
4.14832
20
-5.14455
11
4.15582
21
-5.1483
0
LINE
8
BLACK
6
CONTINUOUS
10
4.15582
20
-5.1483
11
4.15957
21
-5.1558
0
LINE
8
BLACK
6
CONTINUOUS
10
4.15957
20
-5.1558
11
4.15957
21
-5.19704
0
LINE
8
BLACK
6
CONTINUOUS
10
4.15957
20
-5.1558
11
4.16332
21
-5.1483
0
LINE
8
BLACK
6
CONTINUOUS
10
4.16332
20
-5.1483
11
4.17082
21
-5.14455
0
LINE
8
BLACK
6
CONTINUOUS
10
4.17082
20
-5.14455
11
4.18206
21
-5.14455
0
LINE
8
BLACK
6
CONTINUOUS
10
4.18206
20
-5.14455
11
4.18956
21
-5.1483
0
LINE
8
BLACK
6
CONTINUOUS
10
4.18956
20
-5.1483
11
4.19331
21
-5.1558
0
LINE
8
BLACK
6
CONTINUOUS
10
4.19331
20
-5.1558
11
4.19331
21
-5.19704
0
LINE
8
BLACK
6
CONTINUOUS
10
4.34704
20
-5.11455
11
4.27955
21
-5.21579
0
LINE
8
BLACK
6
CONTINUOUS
10
4.44828
20
-5.1183
11
4.45578
21
-5.1183
0
LINE
8
BLACK
6
CONTINUOUS
10
4.45578
20
-5.1183
11
4.46328
21
-5.12205
0
LINE
8
BLACK
6
CONTINUOUS
10
4.46328
20
-5.12205
11
4.46703
21
-5.1258
0
LINE
8
BLACK
6
CONTINUOUS
10
4.46703
20
-5.1258
11
4.47078
21
-5.1333
0
LINE
8
BLACK
6
CONTINUOUS
10
4.47078
20
-5.1333
11
4.47453
21
-5.1483
0
LINE
8
BLACK
6
CONTINUOUS
10
4.47453
20
-5.1483
11
4.47453
21
-5.16704
0
LINE
8
BLACK
6
CONTINUOUS
10
4.47453
20
-5.16704
11
4.47078
21
-5.18204
0
LINE
8
BLACK
6
CONTINUOUS
10
4.47078
20
-5.18204
11
4.46703
21
-5.18954
0
LINE
8
BLACK
6
CONTINUOUS
10
4.46703
20
-5.18954
11
4.46328
21
-5.19329
0
LINE
8
BLACK
6
CONTINUOUS
10
4.46328
20
-5.19329
11
4.45578
21
-5.19704
0
LINE
8
BLACK
6
CONTINUOUS
10
4.45578
20
-5.19704
11
4.44828
21
-5.19704
0
LINE
8
BLACK
6
CONTINUOUS
10
4.44828
20
-5.19704
11
4.44078
21
-5.19329
0
LINE
8
BLACK
6
CONTINUOUS
10
4.44078
20
-5.19329
11
4.43703
21
-5.18954
0
LINE
8
BLACK
6
CONTINUOUS
10
4.43703
20
-5.18954
11
4.43328
21
-5.18204
0
LINE
8
BLACK
6
CONTINUOUS
10
4.43328
20
-5.18204
11
4.42953
21
-5.16704
0
LINE
8
BLACK
6
CONTINUOUS
10
4.42953
20
-5.16704
11
4.42953
21
-5.1483
0
LINE
8
BLACK
6
CONTINUOUS
10
4.42953
20
-5.1483
11
4.43328
21
-5.1333
0
LINE
8
BLACK
6
CONTINUOUS
10
4.43328
20
-5.1333
11
4.43703
21
-5.1258
0
LINE
8
BLACK
6
CONTINUOUS
10
4.43703
20
-5.1258
11
4.44078
21
-5.12205
0
LINE
8
BLACK
6
CONTINUOUS
10
4.44078
20
-5.12205
11
4.44828
21
-5.1183
0
LINE
8
BLACK
6
CONTINUOUS
10
4.50827
20
-5.18954
11
4.51202
21
-5.19329
0
LINE
8
BLACK
6
CONTINUOUS
10
4.51202
20
-5.19329
11
4.50827
21
-5.19704
0
LINE
8
BLACK
6
CONTINUOUS
10
4.50827
20
-5.19704
11
4.50452
21
-5.19329
0
LINE
8
BLACK
6
CONTINUOUS
10
4.50452
20
-5.19329
11
4.50827
21
-5.18954
0
LINE
8
BLACK
6
CONTINUOUS
10
4.50827
20
-5.18954
11
4.50827
21
-5.19704
0
LINE
8
BLACK
6
CONTINUOUS
10
4.56077
20
-5.1183
11
4.56827
21
-5.1183
0
LINE
8
BLACK
6
CONTINUOUS
10
4.56827
20
-5.1183
11
4.57577
21
-5.12205
0
LINE
8
BLACK
6
CONTINUOUS
10
4.57577
20
-5.12205
11
4.57951
21
-5.1258
0
LINE
8
BLACK
6
CONTINUOUS
10
4.57951
20
-5.1258
11
4.58326
21
-5.1333
0
LINE
8
BLACK
6
CONTINUOUS
10
4.58326
20
-5.1333
11
4.58701
21
-5.1483
0
LINE
8
BLACK
6
CONTINUOUS
10
4.58701
20
-5.1483
11
4.58701
21
-5.16704
0
LINE
8
BLACK
6
CONTINUOUS
10
4.58701
20
-5.16704
11
4.58326
21
-5.18204
0
LINE
8
BLACK
6
CONTINUOUS
10
4.58326
20
-5.18204
11
4.57951
21
-5.18954
0
LINE
8
BLACK
6
CONTINUOUS
10
4.57951
20
-5.18954
11
4.57577
21
-5.19329
0
LINE
8
BLACK
6
CONTINUOUS
10
4.57577
20
-5.19329
11
4.56827
21
-5.19704
0
LINE
8
BLACK
6
CONTINUOUS
10
4.56827
20
-5.19704
11
4.56077
21
-5.19704
0
LINE
8
BLACK
6
CONTINUOUS
10
4.56077
20
-5.19704
11
4.55327
21
-5.19329
0
LINE
8
BLACK
6
CONTINUOUS
10
4.55327
20
-5.19329
11
4.54952
21
-5.18954
0
LINE
8
BLACK
6
CONTINUOUS
10
4.54952
20
-5.18954
11
4.54577
21
-5.18204
0
LINE
8
BLACK
6
CONTINUOUS
10
4.54577
20
-5.18204
11
4.54202
21
-5.16704
0
LINE
8
BLACK
6
CONTINUOUS
10
4.54202
20
-5.16704
11
4.54202
21
-5.1483
0
LINE
8
BLACK
6
CONTINUOUS
10
4.54202
20
-5.1483
11
4.54577
21
-5.1333
0
LINE
8
BLACK
6
CONTINUOUS
10
4.54577
20
-5.1333
11
4.54952
21
-5.1258
0
LINE
8
BLACK
6
CONTINUOUS
10
4.54952
20
-5.1258
11
4.55327
21
-5.12205
0
LINE
8
BLACK
6
CONTINUOUS
10
4.55327
20
-5.12205
11
4.56077
21
-5.1183
0
LINE
8
BLACK
6
CONTINUOUS
10
4.61326
20
-5.1183
11
4.662
21
-5.1183
0
LINE
8
BLACK
6
CONTINUOUS
10
4.662
20
-5.1183
11
4.63576
21
-5.1483
0
LINE
8
BLACK
6
CONTINUOUS
10
4.63576
20
-5.1483
11
4.64701
21
-5.1483
0
LINE
8
BLACK
6
CONTINUOUS
10
4.64701
20
-5.1483
11
4.65451
21
-5.15205
0
LINE
8
BLACK
6
CONTINUOUS
10
4.65451
20
-5.15205
11
4.65825
21
-5.1558
0
LINE
8
BLACK
6
CONTINUOUS
10
4.65825
20
-5.1558
11
4.662
21
-5.1633
0
LINE
8
BLACK
6
CONTINUOUS
10
4.662
20
-5.1633
11
4.662
21
-5.18204
0
LINE
8
BLACK
6
CONTINUOUS
10
4.662
20
-5.18204
11
4.65825
21
-5.18954
0
LINE
8
BLACK
6
CONTINUOUS
10
4.65825
20
-5.18954
11
4.65451
21
-5.19329
0
LINE
8
BLACK
6
CONTINUOUS
10
4.65451
20
-5.19329
11
4.64701
21
-5.19704
0
LINE
8
BLACK
6
CONTINUOUS
10
4.64701
20
-5.19704
11
4.62451
21
-5.19704
0
LINE
8
BLACK
6
CONTINUOUS
10
4.62451
20
-5.19704
11
4.61701
21
-5.19329
0
LINE
8
BLACK
6
CONTINUOUS
10
4.61701
20
-5.19329
11
4.61326
21
-5.18954
0
LINE
8
BLACK
6
CONTINUOUS
10
4.73325
20
-5.1183
11
4.69575
21
-5.1183
0
LINE
8
BLACK
6
CONTINUOUS
10
4.69575
20
-5.1183
11
4.692
21
-5.1558
0
LINE
8
BLACK
6
CONTINUOUS
10
4.692
20
-5.1558
11
4.69575
21
-5.15205
0
LINE
8
BLACK
6
CONTINUOUS
10
4.69575
20
-5.15205
11
4.70325
21
-5.1483
0
LINE
8
BLACK
6
CONTINUOUS
10
4.70325
20
-5.1483
11
4.722
21
-5.1483
0
LINE
8
BLACK
6
CONTINUOUS
10
4.722
20
-5.1483
11
4.7295
21
-5.15205
0
LINE
8
BLACK
6
CONTINUOUS
10
4.7295
20
-5.15205
11
4.73325
21
-5.1558
0
LINE
8
BLACK
6
CONTINUOUS
10
4.73325
20
-5.1558
11
4.737
21
-5.1633
0
LINE
8
BLACK
6
CONTINUOUS
10
4.737
20
-5.1633
11
4.737
21
-5.18204
0
LINE
8
BLACK
6
CONTINUOUS
10
4.737
20
-5.18204
11
4.73325
21
-5.18954
0
LINE
8
BLACK
6
CONTINUOUS
10
4.73325
20
-5.18954
11
4.7295
21
-5.19329
0
LINE
8
BLACK
6
CONTINUOUS
10
4.7295
20
-5.19329
11
4.722
21
-5.19704
0
LINE
8
BLACK
6
CONTINUOUS
10
4.722
20
-5.19704
11
4.70325
21
-5.19704
0
LINE
8
BLACK
6
CONTINUOUS
10
4.70325
20
-5.19704
11
4.69575
21
-5.19329
0
LINE
8
BLACK
6
CONTINUOUS
10
4.69575
20
-5.19329
11
4.692
21
-5.18954
0
LINE
8
BLACK
6
CONTINUOUS
10
4.80449
20
-5.14455
11
4.80449
21
-5.19704
0
LINE
8
BLACK
6
CONTINUOUS
10
4.78574
20
-5.11455
11
4.76699
21
-5.17079
0
LINE
8
BLACK
6
CONTINUOUS
10
4.76699
20
-5.17079
11
4.81574
21
-5.17079
0
LINE
8
BLACK
6
CONTINUOUS
10
4.84198
20
-5.1183
11
4.84198
21
-5.1333
0
LINE
8
BLACK
6
CONTINUOUS
10
4.87198
20
-5.1183
11
4.87198
21
-5.1333
0
LINE
8
BLACK
6
CONTINUOUS
10
4.98821
20
-5.22704
11
4.98446
21
-5.22329
0
LINE
8
BLACK
6
CONTINUOUS
10
4.98446
20
-5.22329
11
4.97697
21
-5.21204
0
LINE
8
BLACK
6
CONTINUOUS
10
4.97697
20
-5.21204
11
4.97322
21
-5.20454
0
LINE
8
BLACK
6
CONTINUOUS
10
4.97322
20
-5.20454
11
4.96947
21
-5.19329
0
LINE
8
BLACK
6
CONTINUOUS
10
4.96947
20
-5.19329
11
4.96572
21
-5.17454
0
LINE
8
BLACK
6
CONTINUOUS
10
4.96572
20
-5.17454
11
4.96572
21
-5.15955
0
LINE
8
BLACK
6
CONTINUOUS
10
4.96572
20
-5.15955
11
4.96947
21
-5.1408
0
LINE
8
BLACK
6
CONTINUOUS
10
4.96947
20
-5.1408
11
4.97322
21
-5.12955
0
LINE
8
BLACK
6
CONTINUOUS
10
4.97322
20
-5.12955
11
4.97697
21
-5.12205
0
LINE
8
BLACK
6
CONTINUOUS
10
4.97697
20
-5.12205
11
4.98446
21
-5.1108
0
LINE
8
BLACK
6
CONTINUOUS
10
4.98446
20
-5.1108
11
4.98821
21
-5.10705
0
LINE
8
BLACK
6
CONTINUOUS
10
5.05196
20
-5.14455
11
5.05196
21
-5.19704
0
LINE
8
BLACK
6
CONTINUOUS
10
5.03321
20
-5.11455
11
5.01446
21
-5.17079
0
LINE
8
BLACK
6
CONTINUOUS
10
5.01446
20
-5.17079
11
5.0632
21
-5.17079
0
LINE
8
BLACK
6
CONTINUOUS
10
5.15319
20
-5.19704
11
5.15319
21
-5.1183
0
LINE
8
BLACK
6
CONTINUOUS
10
5.18694
20
-5.19704
11
5.18694
21
-5.1558
0
LINE
8
BLACK
6
CONTINUOUS
10
5.18694
20
-5.1558
11
5.18319
21
-5.1483
0
LINE
8
BLACK
6
CONTINUOUS
10
5.18319
20
-5.1483
11
5.17569
21
-5.14455
0
LINE
8
BLACK
6
CONTINUOUS
10
5.17569
20
-5.14455
11
5.16444
21
-5.14455
0
LINE
8
BLACK
6
CONTINUOUS
10
5.16444
20
-5.14455
11
5.15694
21
-5.1483
0
LINE
8
BLACK
6
CONTINUOUS
10
5.15694
20
-5.1483
11
5.15319
21
-5.15205
0
LINE
8
BLACK
6
CONTINUOUS
10
5.23568
20
-5.19704
11
5.22818
21
-5.19329
0
LINE
8
BLACK
6
CONTINUOUS
10
5.22818
20
-5.19329
11
5.22443
21
-5.18954
0
LINE
8
BLACK
6
CONTINUOUS
10
5.22443
20
-5.18954
11
5.22068
21
-5.18204
0
LINE
8
BLACK
6
CONTINUOUS
10
5.22068
20
-5.18204
11
5.22068
21
-5.15955
0
LINE
8
BLACK
6
CONTINUOUS
10
5.22068
20
-5.15955
11
5.22443
21
-5.15205
0
LINE
8
BLACK
6
CONTINUOUS
10
5.22443
20
-5.15205
11
5.22818
21
-5.1483
0
LINE
8
BLACK
6
CONTINUOUS
10
5.22818
20
-5.1483
11
5.23568
21
-5.14455
0
LINE
8
BLACK
6
CONTINUOUS
10
5.23568
20
-5.14455
11
5.24693
21
-5.14455
0
LINE
8
BLACK
6
CONTINUOUS
10
5.24693
20
-5.14455
11
5.25443
21
-5.1483
0
LINE
8
BLACK
6
CONTINUOUS
10
5.25443
20
-5.1483
11
5.25818
21
-5.15205
0
LINE
8
BLACK
6
CONTINUOUS
10
5.25818
20
-5.15205
11
5.26193
21
-5.15955
0
LINE
8
BLACK
6
CONTINUOUS
10
5.26193
20
-5.15955
11
5.26193
21
-5.18204
0
LINE
8
BLACK
6
CONTINUOUS
10
5.26193
20
-5.18204
11
5.25818
21
-5.18954
0
LINE
8
BLACK
6
CONTINUOUS
10
5.25818
20
-5.18954
11
5.25443
21
-5.19329
0
LINE
8
BLACK
6
CONTINUOUS
10
5.25443
20
-5.19329
11
5.24693
21
-5.19704
0
LINE
8
BLACK
6
CONTINUOUS
10
5.24693
20
-5.19704
11
5.23568
21
-5.19704
0
LINE
8
BLACK
6
CONTINUOUS
10
5.30692
20
-5.19704
11
5.29942
21
-5.19329
0
LINE
8
BLACK
6
CONTINUOUS
10
5.29942
20
-5.19329
11
5.29568
21
-5.18579
0
LINE
8
BLACK
6
CONTINUOUS
10
5.29568
20
-5.18579
11
5.29568
21
-5.1183
0
LINE
8
BLACK
6
CONTINUOUS
10
5.36692
20
-5.19329
11
5.35942
21
-5.19704
0
LINE
8
BLACK
6
CONTINUOUS
10
5.35942
20
-5.19704
11
5.34442
21
-5.19704
0
LINE
8
BLACK
6
CONTINUOUS
10
5.34442
20
-5.19704
11
5.33692
21
-5.19329
0
LINE
8
BLACK
6
CONTINUOUS
10
5.33692
20
-5.19329
11
5.33317
21
-5.18579
0
LINE
8
BLACK
6
CONTINUOUS
10
5.33317
20
-5.18579
11
5.33317
21
-5.1558
0
LINE
8
BLACK
6
CONTINUOUS
10
5.33317
20
-5.1558
11
5.33692
21
-5.1483
0
LINE
8
BLACK
6
CONTINUOUS
10
5.33692
20
-5.1483
11
5.34442
21
-5.14455
0
LINE
8
BLACK
6
CONTINUOUS
10
5.34442
20
-5.14455
11
5.35942
21
-5.14455
0
LINE
8
BLACK
6
CONTINUOUS
10
5.35942
20
-5.14455
11
5.36692
21
-5.1483
0
LINE
8
BLACK
6
CONTINUOUS
10
5.36692
20
-5.1483
11
5.37067
21
-5.1558
0
LINE
8
BLACK
6
CONTINUOUS
10
5.37067
20
-5.1558
11
5.37067
21
-5.1633
0
LINE
8
BLACK
6
CONTINUOUS
10
5.37067
20
-5.1633
11
5.33317
21
-5.17079
0
LINE
8
BLACK
6
CONTINUOUS
10
5.40066
20
-5.19329
11
5.40816
21
-5.19704
0
LINE
8
BLACK
6
CONTINUOUS
10
5.40816
20
-5.19704
11
5.42316
21
-5.19704
0
LINE
8
BLACK
6
CONTINUOUS
10
5.42316
20
-5.19704
11
5.43066
21
-5.19329
0
LINE
8
BLACK
6
CONTINUOUS
10
5.43066
20
-5.19329
11
5.43441
21
-5.18579
0
LINE
8
BLACK
6
CONTINUOUS
10
5.43441
20
-5.18579
11
5.43441
21
-5.18204
0
LINE
8
BLACK
6
CONTINUOUS
10
5.43441
20
-5.18204
11
5.43066
21
-5.17454
0
LINE
8
BLACK
6
CONTINUOUS
10
5.43066
20
-5.17454
11
5.42316
21
-5.17079
0
LINE
8
BLACK
6
CONTINUOUS
10
5.42316
20
-5.17079
11
5.41191
21
-5.17079
0
LINE
8
BLACK
6
CONTINUOUS
10
5.41191
20
-5.17079
11
5.40441
21
-5.16704
0
LINE
8
BLACK
6
CONTINUOUS
10
5.40441
20
-5.16704
11
5.40066
21
-5.15955
0
LINE
8
BLACK
6
CONTINUOUS
10
5.40066
20
-5.15955
11
5.40066
21
-5.1558
0
LINE
8
BLACK
6
CONTINUOUS
10
5.40066
20
-5.1558
11
5.40441
21
-5.1483
0
LINE
8
BLACK
6
CONTINUOUS
10
5.40441
20
-5.1483
11
5.41191
21
-5.14455
0
LINE
8
BLACK
6
CONTINUOUS
10
5.41191
20
-5.14455
11
5.42316
21
-5.14455
0
LINE
8
BLACK
6
CONTINUOUS
10
5.42316
20
-5.14455
11
5.43066
21
-5.1483
0
LINE
8
BLACK
6
CONTINUOUS
10
5.46065
20
-5.22704
11
5.4644
21
-5.22329
0
LINE
8
BLACK
6
CONTINUOUS
10
5.4644
20
-5.22329
11
5.4719
21
-5.21204
0
LINE
8
BLACK
6
CONTINUOUS
10
5.4719
20
-5.21204
11
5.47565
21
-5.20454
0
LINE
8
BLACK
6
CONTINUOUS
10
5.47565
20
-5.20454
11
5.4794
21
-5.19329
0
LINE
8
BLACK
6
CONTINUOUS
10
5.4794
20
-5.19329
11
5.48315
21
-5.17454
0
LINE
8
BLACK
6
CONTINUOUS
10
5.48315
20
-5.17454
11
5.48315
21
-5.15955
0
LINE
8
BLACK
6
CONTINUOUS
10
5.48315
20
-5.15955
11
5.4794
21
-5.1408
0
LINE
8
BLACK
6
CONTINUOUS
10
5.4794
20
-5.1408
11
5.47565
21
-5.12955
0
LINE
8
BLACK
6
CONTINUOUS
10
5.47565
20
-5.12955
11
5.4719
21
-5.12205
0
LINE
8
BLACK
6
CONTINUOUS
10
5.4719
20
-5.12205
11
5.4644
21
-5.1108
0
LINE
8
BLACK
6
CONTINUOUS
10
5.4644
20
-5.1108
11
5.46065
21
-5.10705
0
LINE
8
BLACK
6
CONTINUOUS
10
5.60314
20
-5.22704
11
5.59939
21
-5.22329
0
LINE
8
BLACK
6
CONTINUOUS
10
5.59939
20
-5.22329
11
5.59189
21
-5.21204
0
LINE
8
BLACK
6
CONTINUOUS
10
5.59189
20
-5.21204
11
5.58814
21
-5.20454
0
LINE
8
BLACK
6
CONTINUOUS
10
5.58814
20
-5.20454
11
5.58439
21
-5.19329
0
LINE
8
BLACK
6
CONTINUOUS
10
5.58439
20
-5.19329
11
5.58064
21
-5.17454
0
LINE
8
BLACK
6
CONTINUOUS
10
5.58064
20
-5.17454
11
5.58064
21
-5.15955
0
LINE
8
BLACK
6
CONTINUOUS
10
5.58064
20
-5.15955
11
5.58439
21
-5.1408
0
LINE
8
BLACK
6
CONTINUOUS
10
5.58439
20
-5.1408
11
5.58814
21
-5.12955
0
LINE
8
BLACK
6
CONTINUOUS
10
5.58814
20
-5.12955
11
5.59189
21
-5.12205
0
LINE
8
BLACK
6
CONTINUOUS
10
5.59189
20
-5.12205
11
5.59939
21
-5.1108
0
LINE
8
BLACK
6
CONTINUOUS
10
5.59939
20
-5.1108
11
5.60314
21
-5.10705
0
LINE
8
BLACK
6
CONTINUOUS
10
5.63313
20
-5.14455
11
5.63313
21
-5.19704
0
LINE
8
BLACK
6
CONTINUOUS
10
5.63313
20
-5.15205
11
5.63688
21
-5.1483
0
LINE
8
BLACK
6
CONTINUOUS
10
5.63688
20
-5.1483
11
5.64438
21
-5.14455
0
LINE
8
BLACK
6
CONTINUOUS
10
5.64438
20
-5.14455
11
5.65563
21
-5.14455
0
LINE
8
BLACK
6
CONTINUOUS
10
5.65563
20
-5.14455
11
5.66313
21
-5.1483
0
LINE
8
BLACK
6
CONTINUOUS
10
5.66313
20
-5.1483
11
5.66688
21
-5.1558
0
LINE
8
BLACK
6
CONTINUOUS
10
5.66688
20
-5.1558
11
5.66688
21
-5.19704
0
LINE
8
BLACK
6
CONTINUOUS
10
5.71562
20
-5.19704
11
5.70812
21
-5.19329
0
LINE
8
BLACK
6
CONTINUOUS
10
5.70812
20
-5.19329
11
5.70437
21
-5.18954
0
LINE
8
BLACK
6
CONTINUOUS
10
5.70437
20
-5.18954
11
5.70062
21
-5.18204
0
LINE
8
BLACK
6
CONTINUOUS
10
5.70062
20
-5.18204
11
5.70062
21
-5.15955
0
LINE
8
BLACK
6
CONTINUOUS
10
5.70062
20
-5.15955
11
5.70437
21
-5.15205
0
LINE
8
BLACK
6
CONTINUOUS
10
5.70437
20
-5.15205
11
5.70812
21
-5.1483
0
LINE
8
BLACK
6
CONTINUOUS
10
5.70812
20
-5.1483
11
5.71562
21
-5.14455
0
LINE
8
BLACK
6
CONTINUOUS
10
5.71562
20
-5.14455
11
5.72687
21
-5.14455
0
LINE
8
BLACK
6
CONTINUOUS
10
5.72687
20
-5.14455
11
5.73437
21
-5.1483
0
LINE
8
BLACK
6
CONTINUOUS
10
5.73437
20
-5.1483
11
5.73812
21
-5.15205
0
LINE
8
BLACK
6
CONTINUOUS
10
5.73812
20
-5.15205
11
5.74187
21
-5.15955
0
LINE
8
BLACK
6
CONTINUOUS
10
5.74187
20
-5.15955
11
5.74187
21
-5.18204
0
LINE
8
BLACK
6
CONTINUOUS
10
5.74187
20
-5.18204
11
5.73812
21
-5.18954
0
LINE
8
BLACK
6
CONTINUOUS
10
5.73812
20
-5.18954
11
5.73437
21
-5.19329
0
LINE
8
BLACK
6
CONTINUOUS
10
5.73437
20
-5.19329
11
5.72687
21
-5.19704
0
LINE
8
BLACK
6
CONTINUOUS
10
5.72687
20
-5.19704
11
5.71562
21
-5.19704
0
LINE
8
BLACK
6
CONTINUOUS
10
5.76437
20
-5.14455
11
5.79436
21
-5.14455
0
LINE
8
BLACK
6
CONTINUOUS
10
5.77562
20
-5.1183
11
5.77562
21
-5.18579
0
LINE
8
BLACK
6
CONTINUOUS
10
5.77562
20
-5.18579
11
5.77936
21
-5.19329
0
LINE
8
BLACK
6
CONTINUOUS
10
5.77936
20
-5.19329
11
5.78686
21
-5.19704
0
LINE
8
BLACK
6
CONTINUOUS
10
5.78686
20
-5.19704
11
5.79436
21
-5.19704
0
LINE
8
BLACK
6
CONTINUOUS
10
5.8806
20
-5.14455
11
5.8806
21
-5.22329
0
LINE
8
BLACK
6
CONTINUOUS
10
5.8806
20
-5.1483
11
5.8881
21
-5.14455
0
LINE
8
BLACK
6
CONTINUOUS
10
5.8881
20
-5.14455
11
5.9031
21
-5.14455
0
LINE
8
BLACK
6
CONTINUOUS
10
5.9031
20
-5.14455
11
5.9106
21
-5.1483
0
LINE
8
BLACK
6
CONTINUOUS
10
5.9106
20
-5.1483
11
5.91435
21
-5.15205
0
LINE
8
BLACK
6
CONTINUOUS
10
5.91435
20
-5.15205
11
5.9181
21
-5.15955
0
LINE
8
BLACK
6
CONTINUOUS
10
5.9181
20
-5.15955
11
5.9181
21
-5.18204
0
LINE
8
BLACK
6
CONTINUOUS
10
5.9181
20
-5.18204
11
5.91435
21
-5.18954
0
LINE
8
BLACK
6
CONTINUOUS
10
5.91435
20
-5.18954
11
5.9106
21
-5.19329
0
LINE
8
BLACK
6
CONTINUOUS
10
5.9106
20
-5.19329
11
5.9031
21
-5.19704
0
LINE
8
BLACK
6
CONTINUOUS
10
5.9031
20
-5.19704
11
5.8881
21
-5.19704
0
LINE
8
BLACK
6
CONTINUOUS
10
5.8881
20
-5.19704
11
5.8806
21
-5.19329
0
LINE
8
BLACK
6
CONTINUOUS
10
5.96309
20
-5.19704
11
5.95559
21
-5.19329
0
LINE
8
BLACK
6
CONTINUOUS
10
5.95559
20
-5.19329
11
5.95184
21
-5.18579
0
LINE
8
BLACK
6
CONTINUOUS
10
5.95184
20
-5.18579
11
5.95184
21
-5.1183
0
LINE
8
BLACK
6
CONTINUOUS
10
6.02683
20
-5.19704
11
6.02683
21
-5.1558
0
LINE
8
BLACK
6
CONTINUOUS
10
6.02683
20
-5.1558
11
6.02308
21
-5.1483
0
LINE
8
BLACK
6
CONTINUOUS
10
6.02308
20
-5.1483
11
6.01559
21
-5.14455
0
LINE
8
BLACK
6
CONTINUOUS
10
6.01559
20
-5.14455
11
6.00059
21
-5.14455
0
LINE
8
BLACK
6
CONTINUOUS
10
6.00059
20
-5.14455
11
5.99309
21
-5.1483
0
LINE
8
BLACK
6
CONTINUOUS
10
6.02683
20
-5.19329
11
6.01933
21
-5.19704
0
LINE
8
BLACK
6
CONTINUOUS
10
6.01933
20
-5.19704
11
6.00059
21
-5.19704
0
LINE
8
BLACK
6
CONTINUOUS
10
6.00059
20
-5.19704
11
5.99309
21
-5.19329
0
LINE
8
BLACK
6
CONTINUOUS
10
5.99309
20
-5.19329
11
5.98934
21
-5.18579
0
LINE
8
BLACK
6
CONTINUOUS
10
5.98934
20
-5.18579
11
5.98934
21
-5.17829
0
LINE
8
BLACK
6
CONTINUOUS
10
5.98934
20
-5.17829
11
5.99309
21
-5.17079
0
LINE
8
BLACK
6
CONTINUOUS
10
5.99309
20
-5.17079
11
6.00059
21
-5.16704
0
LINE
8
BLACK
6
CONTINUOUS
10
6.00059
20
-5.16704
11
6.01933
21
-5.16704
0
LINE
8
BLACK
6
CONTINUOUS
10
6.01933
20
-5.16704
11
6.02683
21
-5.1633
0
LINE
8
BLACK
6
CONTINUOUS
10
6.05308
20
-5.14455
11
6.08308
21
-5.14455
0
LINE
8
BLACK
6
CONTINUOUS
10
6.06433
20
-5.1183
11
6.06433
21
-5.18579
0
LINE
8
BLACK
6
CONTINUOUS
10
6.06433
20
-5.18579
11
6.06808
21
-5.19329
0
LINE
8
BLACK
6
CONTINUOUS
10
6.06808
20
-5.19329
11
6.07558
21
-5.19704
0
LINE
8
BLACK
6
CONTINUOUS
10
6.07558
20
-5.19704
11
6.08308
21
-5.19704
0
LINE
8
BLACK
6
CONTINUOUS
10
6.13932
20
-5.19329
11
6.13182
21
-5.19704
0
LINE
8
BLACK
6
CONTINUOUS
10
6.13182
20
-5.19704
11
6.11682
21
-5.19704
0
LINE
8
BLACK
6
CONTINUOUS
10
6.11682
20
-5.19704
11
6.10932
21
-5.19329
0
LINE
8
BLACK
6
CONTINUOUS
10
6.10932
20
-5.19329
11
6.10557
21
-5.18579
0
LINE
8
BLACK
6
CONTINUOUS
10
6.10557
20
-5.18579
11
6.10557
21
-5.1558
0
LINE
8
BLACK
6
CONTINUOUS
10
6.10557
20
-5.1558
11
6.10932
21
-5.1483
0
LINE
8
BLACK
6
CONTINUOUS
10
6.10932
20
-5.1483
11
6.11682
21
-5.14455
0
LINE
8
BLACK
6
CONTINUOUS
10
6.11682
20
-5.14455
11
6.13182
21
-5.14455
0
LINE
8
BLACK
6
CONTINUOUS
10
6.13182
20
-5.14455
11
6.13932
21
-5.1483
0
LINE
8
BLACK
6
CONTINUOUS
10
6.13932
20
-5.1483
11
6.14307
21
-5.1558
0
LINE
8
BLACK
6
CONTINUOUS
10
6.14307
20
-5.1558
11
6.14307
21
-5.1633
0
LINE
8
BLACK
6
CONTINUOUS
10
6.14307
20
-5.1633
11
6.10557
21
-5.17079
0
LINE
8
BLACK
6
CONTINUOUS
10
6.21056
20
-5.19704
11
6.21056
21
-5.1183
0
LINE
8
BLACK
6
CONTINUOUS
10
6.21056
20
-5.19329
11
6.20306
21
-5.19704
0
LINE
8
BLACK
6
CONTINUOUS
10
6.20306
20
-5.19704
11
6.18806
21
-5.19704
0
LINE
8
BLACK
6
CONTINUOUS
10
6.18806
20
-5.19704
11
6.18056
21
-5.19329
0
LINE
8
BLACK
6
CONTINUOUS
10
6.18056
20
-5.19329
11
6.17682
21
-5.18954
0
LINE
8
BLACK
6
CONTINUOUS
10
6.17682
20
-5.18954
11
6.17307
21
-5.18204
0
LINE
8
BLACK
6
CONTINUOUS
10
6.17307
20
-5.18204
11
6.17307
21
-5.15955
0
LINE
8
BLACK
6
CONTINUOUS
10
6.17307
20
-5.15955
11
6.17682
21
-5.15205
0
LINE
8
BLACK
6
CONTINUOUS
10
6.17682
20
-5.15205
11
6.18056
21
-5.1483
0
LINE
8
BLACK
6
CONTINUOUS
10
6.18056
20
-5.1483
11
6.18806
21
-5.14455
0
LINE
8
BLACK
6
CONTINUOUS
10
6.18806
20
-5.14455
11
6.20306
21
-5.14455
0
LINE
8
BLACK
6
CONTINUOUS
10
6.20306
20
-5.14455
11
6.21056
21
-5.1483
0
LINE
8
BLACK
6
CONTINUOUS
10
6.24056
20
-5.22704
11
6.24431
21
-5.22329
0
LINE
8
BLACK
6
CONTINUOUS
10
6.24431
20
-5.22329
11
6.25181
21
-5.21204
0
LINE
8
BLACK
6
CONTINUOUS
10
6.25181
20
-5.21204
11
6.25556
21
-5.20454
0
LINE
8
BLACK
6
CONTINUOUS
10
6.25556
20
-5.20454
11
6.2593
21
-5.19329
0
LINE
8
BLACK
6
CONTINUOUS
10
6.2593
20
-5.19329
11
6.26305
21
-5.17454
0
LINE
8
BLACK
6
CONTINUOUS
10
6.26305
20
-5.17454
11
6.26305
21
-5.15955
0
LINE
8
BLACK
6
CONTINUOUS
10
6.26305
20
-5.15955
11
6.2593
21
-5.1408
0
LINE
8
BLACK
6
CONTINUOUS
10
6.2593
20
-5.1408
11
6.25556
21
-5.12955
0
LINE
8
BLACK
6
CONTINUOUS
10
6.25556
20
-5.12955
11
6.25181
21
-5.12205
0
LINE
8
BLACK
6
CONTINUOUS
10
6.25181
20
-5.12205
11
6.24431
21
-5.1108
0
LINE
8
BLACK
6
CONTINUOUS
10
6.24431
20
-5.1108
11
6.24056
21
-5.10705
0
LINE
8
BLACK
6
CONTINUOUS
10
3.54134
20
-5.22559
11
3.54134
21
-5.30433
0
LINE
8
BLACK
6
CONTINUOUS
10
3.50197
20
-5.26496
11
3.58071
21
-5.26496
0
LINE
8
BLACK
6
CONTINUOUS
10
3.67963
20
-5.22974
11
3.68338
21
-5.22599
0
LINE
8
BLACK
6
CONTINUOUS
10
3.68338
20
-5.22599
11
3.69088
21
-5.22224
0
LINE
8
BLACK
6
CONTINUOUS
10
3.69088
20
-5.22224
11
3.70962
21
-5.22224
0
LINE
8
BLACK
6
CONTINUOUS
10
3.70962
20
-5.22224
11
3.71712
21
-5.22599
0
LINE
8
BLACK
6
CONTINUOUS
10
3.71712
20
-5.22599
11
3.72087
21
-5.22974
0
LINE
8
BLACK
6
CONTINUOUS
10
3.72087
20
-5.22974
11
3.72462
21
-5.23724
0
LINE
8
BLACK
6
CONTINUOUS
10
3.72462
20
-5.23724
11
3.72462
21
-5.24473
0
LINE
8
BLACK
6
CONTINUOUS
10
3.72462
20
-5.24473
11
3.72087
21
-5.25598
0
LINE
8
BLACK
6
CONTINUOUS
10
3.72087
20
-5.25598
11
3.67588
21
-5.30098
0
LINE
8
BLACK
6
CONTINUOUS
10
3.67588
20
-5.30098
11
3.72462
21
-5.30098
0
LINE
8
BLACK
6
CONTINUOUS
10
3.75837
20
-5.29348
11
3.76212
21
-5.29723
0
LINE
8
BLACK
6
CONTINUOUS
10
3.76212
20
-5.29723
11
3.75837
21
-5.30098
0
LINE
8
BLACK
6
CONTINUOUS
10
3.75837
20
-5.30098
11
3.75462
21
-5.29723
0
LINE
8
BLACK
6
CONTINUOUS
10
3.75462
20
-5.29723
11
3.75837
21
-5.29348
0
LINE
8
BLACK
6
CONTINUOUS
10
3.75837
20
-5.29348
11
3.75837
21
-5.30098
0
LINE
8
BLACK
6
CONTINUOUS
10
3.78836
20
-5.22224
11
3.84086
21
-5.22224
0
LINE
8
BLACK
6
CONTINUOUS
10
3.84086
20
-5.22224
11
3.80711
21
-5.30098
0
LINE
8
BLACK
6
CONTINUOUS
10
3.88585
20
-5.22224
11
3.89335
21
-5.22224
0
LINE
8
BLACK
6
CONTINUOUS
10
3.89335
20
-5.22224
11
3.90085
21
-5.22599
0
LINE
8
BLACK
6
CONTINUOUS
10
3.90085
20
-5.22599
11
3.9046
21
-5.22974
0
LINE
8
BLACK
6
CONTINUOUS
10
3.9046
20
-5.22974
11
3.90835
21
-5.23724
0
LINE
8
BLACK
6
CONTINUOUS
10
3.90835
20
-5.23724
11
3.9121
21
-5.25223
0
LINE
8
BLACK
6
CONTINUOUS
10
3.9121
20
-5.25223
11
3.9121
21
-5.27098
0
LINE
8
BLACK
6
CONTINUOUS
10
3.9121
20
-5.27098
11
3.90835
21
-5.28598
0
LINE
8
BLACK
6
CONTINUOUS
10
3.90835
20
-5.28598
11
3.9046
21
-5.29348
0
LINE
8
BLACK
6
CONTINUOUS
10
3.9046
20
-5.29348
11
3.90085
21
-5.29723
0
LINE
8
BLACK
6
CONTINUOUS
10
3.90085
20
-5.29723
11
3.89335
21
-5.30098
0
LINE
8
BLACK
6
CONTINUOUS
10
3.89335
20
-5.30098
11
3.88585
21
-5.30098
0
LINE
8
BLACK
6
CONTINUOUS
10
3.88585
20
-5.30098
11
3.87835
21
-5.29723
0
LINE
8
BLACK
6
CONTINUOUS
10
3.87835
20
-5.29723
11
3.8746
21
-5.29348
0
LINE
8
BLACK
6
CONTINUOUS
10
3.8746
20
-5.29348
11
3.87085
21
-5.28598
0
LINE
8
BLACK
6
CONTINUOUS
10
3.87085
20
-5.28598
11
3.8671
21
-5.27098
0
LINE
8
BLACK
6
CONTINUOUS
10
3.8671
20
-5.27098
11
3.8671
21
-5.25223
0
LINE
8
BLACK
6
CONTINUOUS
10
3.8671
20
-5.25223
11
3.87085
21
-5.23724
0
LINE
8
BLACK
6
CONTINUOUS
10
3.87085
20
-5.23724
11
3.8746
21
-5.22974
0
LINE
8
BLACK
6
CONTINUOUS
10
3.8746
20
-5.22974
11
3.87835
21
-5.22599
0
LINE
8
BLACK
6
CONTINUOUS
10
3.87835
20
-5.22599
11
3.88585
21
-5.22224
0
LINE
8
BLACK
6
CONTINUOUS
10
3.96084
20
-5.22224
11
3.96834
21
-5.22224
0
LINE
8
BLACK
6
CONTINUOUS
10
3.96834
20
-5.22224
11
3.97584
21
-5.22599
0
LINE
8
BLACK
6
CONTINUOUS
10
3.97584
20
-5.22599
11
3.97959
21
-5.22974
0
LINE
8
BLACK
6
CONTINUOUS
10
3.97959
20
-5.22974
11
3.98334
21
-5.23724
0
LINE
8
BLACK
6
CONTINUOUS
10
3.98334
20
-5.23724
11
3.98709
21
-5.25223
0
LINE
8
BLACK
6
CONTINUOUS
10
3.98709
20
-5.25223
11
3.98709
21
-5.27098
0
LINE
8
BLACK
6
CONTINUOUS
10
3.98709
20
-5.27098
11
3.98334
21
-5.28598
0
LINE
8
BLACK
6
CONTINUOUS
10
3.98334
20
-5.28598
11
3.97959
21
-5.29348
0
LINE
8
BLACK
6
CONTINUOUS
10
3.97959
20
-5.29348
11
3.97584
21
-5.29723
0
LINE
8
BLACK
6
CONTINUOUS
10
3.97584
20
-5.29723
11
3.96834
21
-5.30098
0
LINE
8
BLACK
6
CONTINUOUS
10
3.96834
20
-5.30098
11
3.96084
21
-5.30098
0
LINE
8
BLACK
6
CONTINUOUS
10
3.96084
20
-5.30098
11
3.95334
21
-5.29723
0
LINE
8
BLACK
6
CONTINUOUS
10
3.95334
20
-5.29723
11
3.94959
21
-5.29348
0
LINE
8
BLACK
6
CONTINUOUS
10
3.94959
20
-5.29348
11
3.94584
21
-5.28598
0
LINE
8
BLACK
6
CONTINUOUS
10
3.94584
20
-5.28598
11
3.94209
21
-5.27098
0
LINE
8
BLACK
6
CONTINUOUS
10
3.94209
20
-5.27098
11
3.94209
21
-5.25223
0
LINE
8
BLACK
6
CONTINUOUS
10
3.94209
20
-5.25223
11
3.94584
21
-5.23724
0
LINE
8
BLACK
6
CONTINUOUS
10
3.94584
20
-5.23724
11
3.94959
21
-5.22974
0
LINE
8
BLACK
6
CONTINUOUS
10
3.94959
20
-5.22974
11
3.95334
21
-5.22599
0
LINE
8
BLACK
6
CONTINUOUS
10
3.95334
20
-5.22599
11
3.96084
21
-5.22224
0
LINE
8
BLACK
6
CONTINUOUS
10
4.02083
20
-5.30098
11
4.02083
21
-5.24848
0
LINE
8
BLACK
6
CONTINUOUS
10
4.02083
20
-5.25598
11
4.02458
21
-5.25223
0
LINE
8
BLACK
6
CONTINUOUS
10
4.02458
20
-5.25223
11
4.03208
21
-5.24848
0
LINE
8
BLACK
6
CONTINUOUS
10
4.03208
20
-5.24848
11
4.04333
21
-5.24848
0
LINE
8
BLACK
6
CONTINUOUS
10
4.04333
20
-5.24848
11
4.05083
21
-5.25223
0
LINE
8
BLACK
6
CONTINUOUS
10
4.05083
20
-5.25223
11
4.05458
21
-5.25973
0
LINE
8
BLACK
6
CONTINUOUS
10
4.05458
20
-5.25973
11
4.05458
21
-5.30098
0
LINE
8
BLACK
6
CONTINUOUS
10
4.05458
20
-5.25973
11
4.05833
21
-5.25223
0
LINE
8
BLACK
6
CONTINUOUS
10
4.05833
20
-5.25223
11
4.06583
21
-5.24848
0
LINE
8
BLACK
6
CONTINUOUS
10
4.06583
20
-5.24848
11
4.07708
21
-5.24848
0
LINE
8
BLACK
6
CONTINUOUS
10
4.07708
20
-5.24848
11
4.08458
21
-5.25223
0
LINE
8
BLACK
6
CONTINUOUS
10
4.08458
20
-5.25223
11
4.08833
21
-5.25973
0
LINE
8
BLACK
6
CONTINUOUS
10
4.08833
20
-5.25973
11
4.08833
21
-5.30098
0
LINE
8
BLACK
6
CONTINUOUS
10
4.12582
20
-5.30098
11
4.12582
21
-5.24848
0
LINE
8
BLACK
6
CONTINUOUS
10
4.12582
20
-5.25598
11
4.12957
21
-5.25223
0
LINE
8
BLACK
6
CONTINUOUS
10
4.12957
20
-5.25223
11
4.13707
21
-5.24848
0
LINE
8
BLACK
6
CONTINUOUS
10
4.13707
20
-5.24848
11
4.14832
21
-5.24848
0
LINE
8
BLACK
6
CONTINUOUS
10
4.14832
20
-5.24848
11
4.15582
21
-5.25223
0
LINE
8
BLACK
6
CONTINUOUS
10
4.15582
20
-5.25223
11
4.15957
21
-5.25973
0
LINE
8
BLACK
6
CONTINUOUS
10
4.15957
20
-5.25973
11
4.15957
21
-5.30098
0
LINE
8
BLACK
6
CONTINUOUS
10
4.15957
20
-5.25973
11
4.16332
21
-5.25223
0
LINE
8
BLACK
6
CONTINUOUS
10
4.16332
20
-5.25223
11
4.17082
21
-5.24848
0
LINE
8
BLACK
6
CONTINUOUS
10
4.17082
20
-5.24848
11
4.18206
21
-5.24848
0
LINE
8
BLACK
6
CONTINUOUS
10
4.18206
20
-5.24848
11
4.18956
21
-5.25223
0
LINE
8
BLACK
6
CONTINUOUS
10
4.18956
20
-5.25223
11
4.19331
21
-5.25973
0
LINE
8
BLACK
6
CONTINUOUS
10
4.19331
20
-5.25973
11
4.19331
21
-5.30098
0
LINE
8
BLACK
6
CONTINUOUS
10
4.34704
20
-5.21849
11
4.27955
21
-5.31973
0
LINE
8
BLACK
6
CONTINUOUS
10
4.44828
20
-5.22224
11
4.45578
21
-5.22224
0
LINE
8
BLACK
6
CONTINUOUS
10
4.45578
20
-5.22224
11
4.46328
21
-5.22599
0
LINE
8
BLACK
6
CONTINUOUS
10
4.46328
20
-5.22599
11
4.46703
21
-5.22974
0
LINE
8
BLACK
6
CONTINUOUS
10
4.46703
20
-5.22974
11
4.47078
21
-5.23724
0
LINE
8
BLACK
6
CONTINUOUS
10
4.47078
20
-5.23724
11
4.47453
21
-5.25223
0
LINE
8
BLACK
6
CONTINUOUS
10
4.47453
20
-5.25223
11
4.47453
21
-5.27098
0
LINE
8
BLACK
6
CONTINUOUS
10
4.47453
20
-5.27098
11
4.47078
21
-5.28598
0
LINE
8
BLACK
6
CONTINUOUS
10
4.47078
20
-5.28598
11
4.46703
21
-5.29348
0
LINE
8
BLACK
6
CONTINUOUS
10
4.46703
20
-5.29348
11
4.46328
21
-5.29723
0
LINE
8
BLACK
6
CONTINUOUS
10
4.46328
20
-5.29723
11
4.45578
21
-5.30098
0
LINE
8
BLACK
6
CONTINUOUS
10
4.45578
20
-5.30098
11
4.44828
21
-5.30098
0
LINE
8
BLACK
6
CONTINUOUS
10
4.44828
20
-5.30098
11
4.44078
21
-5.29723
0
LINE
8
BLACK
6
CONTINUOUS
10
4.44078
20
-5.29723
11
4.43703
21
-5.29348
0
LINE
8
BLACK
6
CONTINUOUS
10
4.43703
20
-5.29348
11
4.43328
21
-5.28598
0
LINE
8
BLACK
6
CONTINUOUS
10
4.43328
20
-5.28598
11
4.42953
21
-5.27098
0
LINE
8
BLACK
6
CONTINUOUS
10
4.42953
20
-5.27098
11
4.42953
21
-5.25223
0
LINE
8
BLACK
6
CONTINUOUS
10
4.42953
20
-5.25223
11
4.43328
21
-5.23724
0
LINE
8
BLACK
6
CONTINUOUS
10
4.43328
20
-5.23724
11
4.43703
21
-5.22974
0
LINE
8
BLACK
6
CONTINUOUS
10
4.43703
20
-5.22974
11
4.44078
21
-5.22599
0
LINE
8
BLACK
6
CONTINUOUS
10
4.44078
20
-5.22599
11
4.44828
21
-5.22224
0
LINE
8
BLACK
6
CONTINUOUS
10
4.50827
20
-5.29348
11
4.51202
21
-5.29723
0
LINE
8
BLACK
6
CONTINUOUS
10
4.51202
20
-5.29723
11
4.50827
21
-5.30098
0
LINE
8
BLACK
6
CONTINUOUS
10
4.50827
20
-5.30098
11
4.50452
21
-5.29723
0
LINE
8
BLACK
6
CONTINUOUS
10
4.50452
20
-5.29723
11
4.50827
21
-5.29348
0
LINE
8
BLACK
6
CONTINUOUS
10
4.50827
20
-5.29348
11
4.50827
21
-5.30098
0
LINE
8
BLACK
6
CONTINUOUS
10
4.58701
20
-5.30098
11
4.54202
21
-5.30098
0
LINE
8
BLACK
6
CONTINUOUS
10
4.56452
20
-5.30098
11
4.56452
21
-5.22224
0
LINE
8
BLACK
6
CONTINUOUS
10
4.56452
20
-5.22224
11
4.55702
21
-5.23349
0
LINE
8
BLACK
6
CONTINUOUS
10
4.55702
20
-5.23349
11
4.54952
21
-5.24099
0
LINE
8
BLACK
6
CONTINUOUS
10
4.54952
20
-5.24099
11
4.54202
21
-5.24473
0
LINE
8
BLACK
6
CONTINUOUS
10
4.63576
20
-5.22224
11
4.64326
21
-5.22224
0
LINE
8
BLACK
6
CONTINUOUS
10
4.64326
20
-5.22224
11
4.65076
21
-5.22599
0
LINE
8
BLACK
6
CONTINUOUS
10
4.65076
20
-5.22599
11
4.65451
21
-5.22974
0
LINE
8
BLACK
6
CONTINUOUS
10
4.65451
20
-5.22974
11
4.65825
21
-5.23724
0
LINE
8
BLACK
6
CONTINUOUS
10
4.65825
20
-5.23724
11
4.662
21
-5.25223
0
LINE
8
BLACK
6
CONTINUOUS
10
4.662
20
-5.25223
11
4.662
21
-5.27098
0
LINE
8
BLACK
6
CONTINUOUS
10
4.662
20
-5.27098
11
4.65825
21
-5.28598
0
LINE
8
BLACK
6
CONTINUOUS
10
4.65825
20
-5.28598
11
4.65451
21
-5.29348
0
LINE
8
BLACK
6
CONTINUOUS
10
4.65451
20
-5.29348
11
4.65076
21
-5.29723
0
LINE
8
BLACK
6
CONTINUOUS
10
4.65076
20
-5.29723
11
4.64326
21
-5.30098
0
LINE
8
BLACK
6
CONTINUOUS
10
4.64326
20
-5.30098
11
4.63576
21
-5.30098
0
LINE
8
BLACK
6
CONTINUOUS
10
4.63576
20
-5.30098
11
4.62826
21
-5.29723
0
LINE
8
BLACK
6
CONTINUOUS
10
4.62826
20
-5.29723
11
4.62451
21
-5.29348
0
LINE
8
BLACK
6
CONTINUOUS
10
4.62451
20
-5.29348
11
4.62076
21
-5.28598
0
LINE
8
BLACK
6
CONTINUOUS
10
4.62076
20
-5.28598
11
4.61701
21
-5.27098
0
LINE
8
BLACK
6
CONTINUOUS
10
4.61701
20
-5.27098
11
4.61701
21
-5.25223
0
LINE
8
BLACK
6
CONTINUOUS
10
4.61701
20
-5.25223
11
4.62076
21
-5.23724
0
LINE
8
BLACK
6
CONTINUOUS
10
4.62076
20
-5.23724
11
4.62451
21
-5.22974
0
LINE
8
BLACK
6
CONTINUOUS
10
4.62451
20
-5.22974
11
4.62826
21
-5.22599
0
LINE
8
BLACK
6
CONTINUOUS
10
4.62826
20
-5.22599
11
4.63576
21
-5.22224
0
LINE
8
BLACK
6
CONTINUOUS
10
4.7295
20
-5.22224
11
4.7145
21
-5.22224
0
LINE
8
BLACK
6
CONTINUOUS
10
4.7145
20
-5.22224
11
4.707
21
-5.22599
0
LINE
8
BLACK
6
CONTINUOUS
10
4.707
20
-5.22599
11
4.70325
21
-5.22974
0
LINE
8
BLACK
6
CONTINUOUS
10
4.70325
20
-5.22974
11
4.69575
21
-5.24099
0
LINE
8
BLACK
6
CONTINUOUS
10
4.69575
20
-5.24099
11
4.692
21
-5.25598
0
LINE
8
BLACK
6
CONTINUOUS
10
4.692
20
-5.25598
11
4.692
21
-5.28598
0
LINE
8
BLACK
6
CONTINUOUS
10
4.692
20
-5.28598
11
4.69575
21
-5.29348
0
LINE
8
BLACK
6
CONTINUOUS
10
4.69575
20
-5.29348
11
4.6995
21
-5.29723
0
LINE
8
BLACK
6
CONTINUOUS
10
4.6995
20
-5.29723
11
4.707
21
-5.30098
0
LINE
8
BLACK
6
CONTINUOUS
10
4.707
20
-5.30098
11
4.722
21
-5.30098
0
LINE
8
BLACK
6
CONTINUOUS
10
4.722
20
-5.30098
11
4.7295
21
-5.29723
0
LINE
8
BLACK
6
CONTINUOUS
10
4.7295
20
-5.29723
11
4.73325
21
-5.29348
0
LINE
8
BLACK
6
CONTINUOUS
10
4.73325
20
-5.29348
11
4.737
21
-5.28598
0
LINE
8
BLACK
6
CONTINUOUS
10
4.737
20
-5.28598
11
4.737
21
-5.26723
0
LINE
8
BLACK
6
CONTINUOUS
10
4.737
20
-5.26723
11
4.73325
21
-5.25973
0
LINE
8
BLACK
6
CONTINUOUS
10
4.73325
20
-5.25973
11
4.7295
21
-5.25598
0
LINE
8
BLACK
6
CONTINUOUS
10
4.7295
20
-5.25598
11
4.722
21
-5.25223
0
LINE
8
BLACK
6
CONTINUOUS
10
4.722
20
-5.25223
11
4.707
21
-5.25223
0
LINE
8
BLACK
6
CONTINUOUS
10
4.707
20
-5.25223
11
4.6995
21
-5.25598
0
LINE
8
BLACK
6
CONTINUOUS
10
4.6995
20
-5.25598
11
4.69575
21
-5.25973
0
LINE
8
BLACK
6
CONTINUOUS
10
4.69575
20
-5.25973
11
4.692
21
-5.26723
0
LINE
8
BLACK
6
CONTINUOUS
10
4.76324
20
-5.22224
11
4.81199
21
-5.22224
0
LINE
8
BLACK
6
CONTINUOUS
10
4.81199
20
-5.22224
11
4.78574
21
-5.25223
0
LINE
8
BLACK
6
CONTINUOUS
10
4.78574
20
-5.25223
11
4.79699
21
-5.25223
0
LINE
8
BLACK
6
CONTINUOUS
10
4.79699
20
-5.25223
11
4.80449
21
-5.25598
0
LINE
8
BLACK
6
CONTINUOUS
10
4.80449
20
-5.25598
11
4.80824
21
-5.25973
0
LINE
8
BLACK
6
CONTINUOUS
10
4.80824
20
-5.25973
11
4.81199
21
-5.26723
0
LINE
8
BLACK
6
CONTINUOUS
10
4.81199
20
-5.26723
11
4.81199
21
-5.28598
0
LINE
8
BLACK
6
CONTINUOUS
10
4.81199
20
-5.28598
11
4.80824
21
-5.29348
0
LINE
8
BLACK
6
CONTINUOUS
10
4.80824
20
-5.29348
11
4.80449
21
-5.29723
0
LINE
8
BLACK
6
CONTINUOUS
10
4.80449
20
-5.29723
11
4.79699
21
-5.30098
0
LINE
8
BLACK
6
CONTINUOUS
10
4.79699
20
-5.30098
11
4.77449
21
-5.30098
0
LINE
8
BLACK
6
CONTINUOUS
10
4.77449
20
-5.30098
11
4.76699
21
-5.29723
0
LINE
8
BLACK
6
CONTINUOUS
10
4.76699
20
-5.29723
11
4.76324
21
-5.29348
0
LINE
8
BLACK
6
CONTINUOUS
10
4.84198
20
-5.22224
11
4.84198
21
-5.23724
0
LINE
8
BLACK
6
CONTINUOUS
10
4.87198
20
-5.22224
11
4.87198
21
-5.23724
0
LINE
8
BLACK
6
CONTINUOUS
10
4.98821
20
-5.33097
11
4.98446
21
-5.32722
0
LINE
8
BLACK
6
CONTINUOUS
10
4.98446
20
-5.32722
11
4.97697
21
-5.31598
0
LINE
8
BLACK
6
CONTINUOUS
10
4.97697
20
-5.31598
11
4.97322
21
-5.30848
0
LINE
8
BLACK
6
CONTINUOUS
10
4.97322
20
-5.30848
11
4.96947
21
-5.29723
0
LINE
8
BLACK
6
CONTINUOUS
10
4.96947
20
-5.29723
11
4.96572
21
-5.27848
0
LINE
8
BLACK
6
CONTINUOUS
10
4.96572
20
-5.27848
11
4.96572
21
-5.26348
0
LINE
8
BLACK
6
CONTINUOUS
10
4.96572
20
-5.26348
11
4.96947
21
-5.24473
0
LINE
8
BLACK
6
CONTINUOUS
10
4.96947
20
-5.24473
11
4.97322
21
-5.23349
0
LINE
8
BLACK
6
CONTINUOUS
10
4.97322
20
-5.23349
11
4.97697
21
-5.22599
0
LINE
8
BLACK
6
CONTINUOUS
10
4.97697
20
-5.22599
11
4.98446
21
-5.21474
0
LINE
8
BLACK
6
CONTINUOUS
10
4.98446
20
-5.21474
11
4.98821
21
-5.21099
0
LINE
8
BLACK
6
CONTINUOUS
10
5.05196
20
-5.24848
11
5.05196
21
-5.30098
0
LINE
8
BLACK
6
CONTINUOUS
10
5.03321
20
-5.21849
11
5.01446
21
-5.27473
0
LINE
8
BLACK
6
CONTINUOUS
10
5.01446
20
-5.27473
11
5.0632
21
-5.27473
0
LINE
8
BLACK
6
CONTINUOUS
10
5.15319
20
-5.30098
11
5.15319
21
-5.22224
0
LINE
8
BLACK
6
CONTINUOUS
10
5.18694
20
-5.30098
11
5.18694
21
-5.25973
0
LINE
8
BLACK
6
CONTINUOUS
10
5.18694
20
-5.25973
11
5.18319
21
-5.25223
0
LINE
8
BLACK
6
CONTINUOUS
10
5.18319
20
-5.25223
11
5.17569
21
-5.24848
0
LINE
8
BLACK
6
CONTINUOUS
10
5.17569
20
-5.24848
11
5.16444
21
-5.24848
0
LINE
8
BLACK
6
CONTINUOUS
10
5.16444
20
-5.24848
11
5.15694
21
-5.25223
0
LINE
8
BLACK
6
CONTINUOUS
10
5.15694
20
-5.25223
11
5.15319
21
-5.25598
0
LINE
8
BLACK
6
CONTINUOUS
10
5.23568
20
-5.30098
11
5.22818
21
-5.29723
0
LINE
8
BLACK
6
CONTINUOUS
10
5.22818
20
-5.29723
11
5.22443
21
-5.29348
0
LINE
8
BLACK
6
CONTINUOUS
10
5.22443
20
-5.29348
11
5.22068
21
-5.28598
0
LINE
8
BLACK
6
CONTINUOUS
10
5.22068
20
-5.28598
11
5.22068
21
-5.26348
0
LINE
8
BLACK
6
CONTINUOUS
10
5.22068
20
-5.26348
11
5.22443
21
-5.25598
0
LINE
8
BLACK
6
CONTINUOUS
10
5.22443
20
-5.25598
11
5.22818
21
-5.25223
0
LINE
8
BLACK
6
CONTINUOUS
10
5.22818
20
-5.25223
11
5.23568
21
-5.24848
0
LINE
8
BLACK
6
CONTINUOUS
10
5.23568
20
-5.24848
11
5.24693
21
-5.24848
0
LINE
8
BLACK
6
CONTINUOUS
10
5.24693
20
-5.24848
11
5.25443
21
-5.25223
0
LINE
8
BLACK
6
CONTINUOUS
10
5.25443
20
-5.25223
11
5.25818
21
-5.25598
0
LINE
8
BLACK
6
CONTINUOUS
10
5.25818
20
-5.25598
11
5.26193
21
-5.26348
0
LINE
8
BLACK
6
CONTINUOUS
10
5.26193
20
-5.26348
11
5.26193
21
-5.28598
0
LINE
8
BLACK
6
CONTINUOUS
10
5.26193
20
-5.28598
11
5.25818
21
-5.29348
0
LINE
8
BLACK
6
CONTINUOUS
10
5.25818
20
-5.29348
11
5.25443
21
-5.29723
0
LINE
8
BLACK
6
CONTINUOUS
10
5.25443
20
-5.29723
11
5.24693
21
-5.30098
0
LINE
8
BLACK
6
CONTINUOUS
10
5.24693
20
-5.30098
11
5.23568
21
-5.30098
0
LINE
8
BLACK
6
CONTINUOUS
10
5.30692
20
-5.30098
11
5.29942
21
-5.29723
0
LINE
8
BLACK
6
CONTINUOUS
10
5.29942
20
-5.29723
11
5.29568
21
-5.28973
0
LINE
8
BLACK
6
CONTINUOUS
10
5.29568
20
-5.28973
11
5.29568
21
-5.22224
0
LINE
8
BLACK
6
CONTINUOUS
10
5.36692
20
-5.29723
11
5.35942
21
-5.30098
0
LINE
8
BLACK
6
CONTINUOUS
10
5.35942
20
-5.30098
11
5.34442
21
-5.30098
0
LINE
8
BLACK
6
CONTINUOUS
10
5.34442
20
-5.30098
11
5.33692
21
-5.29723
0
LINE
8
BLACK
6
CONTINUOUS
10
5.33692
20
-5.29723
11
5.33317
21
-5.28973
0
LINE
8
BLACK
6
CONTINUOUS
10
5.33317
20
-5.28973
11
5.33317
21
-5.25973
0
LINE
8
BLACK
6
CONTINUOUS
10
5.33317
20
-5.25973
11
5.33692
21
-5.25223
0
LINE
8
BLACK
6
CONTINUOUS
10
5.33692
20
-5.25223
11
5.34442
21
-5.24848
0
LINE
8
BLACK
6
CONTINUOUS
10
5.34442
20
-5.24848
11
5.35942
21
-5.24848
0
LINE
8
BLACK
6
CONTINUOUS
10
5.35942
20
-5.24848
11
5.36692
21
-5.25223
0
LINE
8
BLACK
6
CONTINUOUS
10
5.36692
20
-5.25223
11
5.37067
21
-5.25973
0
LINE
8
BLACK
6
CONTINUOUS
10
5.37067
20
-5.25973
11
5.37067
21
-5.26723
0
LINE
8
BLACK
6
CONTINUOUS
10
5.37067
20
-5.26723
11
5.33317
21
-5.27473
0
LINE
8
BLACK
6
CONTINUOUS
10
5.40066
20
-5.29723
11
5.40816
21
-5.30098
0
LINE
8
BLACK
6
CONTINUOUS
10
5.40816
20
-5.30098
11
5.42316
21
-5.30098
0
LINE
8
BLACK
6
CONTINUOUS
10
5.42316
20
-5.30098
11
5.43066
21
-5.29723
0
LINE
8
BLACK
6
CONTINUOUS
10
5.43066
20
-5.29723
11
5.43441
21
-5.28973
0
LINE
8
BLACK
6
CONTINUOUS
10
5.43441
20
-5.28973
11
5.43441
21
-5.28598
0
LINE
8
BLACK
6
CONTINUOUS
10
5.43441
20
-5.28598
11
5.43066
21
-5.27848
0
LINE
8
BLACK
6
CONTINUOUS
10
5.43066
20
-5.27848
11
5.42316
21
-5.27473
0
LINE
8
BLACK
6
CONTINUOUS
10
5.42316
20
-5.27473
11
5.41191
21
-5.27473
0
LINE
8
BLACK
6
CONTINUOUS
10
5.41191
20
-5.27473
11
5.40441
21
-5.27098
0
LINE
8
BLACK
6
CONTINUOUS
10
5.40441
20
-5.27098
11
5.40066
21
-5.26348
0
LINE
8
BLACK
6
CONTINUOUS
10
5.40066
20
-5.26348
11
5.40066
21
-5.25973
0
LINE
8
BLACK
6
CONTINUOUS
10
5.40066
20
-5.25973
11
5.40441
21
-5.25223
0
LINE
8
BLACK
6
CONTINUOUS
10
5.40441
20
-5.25223
11
5.41191
21
-5.24848
0
LINE
8
BLACK
6
CONTINUOUS
10
5.41191
20
-5.24848
11
5.42316
21
-5.24848
0
LINE
8
BLACK
6
CONTINUOUS
10
5.42316
20
-5.24848
11
5.43066
21
-5.25223
0
LINE
8
BLACK
6
CONTINUOUS
10
5.46065
20
-5.33097
11
5.4644
21
-5.32722
0
LINE
8
BLACK
6
CONTINUOUS
10
5.4644
20
-5.32722
11
5.4719
21
-5.31598
0
LINE
8
BLACK
6
CONTINUOUS
10
5.4719
20
-5.31598
11
5.47565
21
-5.30848
0
LINE
8
BLACK
6
CONTINUOUS
10
5.47565
20
-5.30848
11
5.4794
21
-5.29723
0
LINE
8
BLACK
6
CONTINUOUS
10
5.4794
20
-5.29723
11
5.48315
21
-5.27848
0
LINE
8
BLACK
6
CONTINUOUS
10
5.48315
20
-5.27848
11
5.48315
21
-5.26348
0
LINE
8
BLACK
6
CONTINUOUS
10
5.48315
20
-5.26348
11
5.4794
21
-5.24473
0
LINE
8
BLACK
6
CONTINUOUS
10
5.4794
20
-5.24473
11
5.47565
21
-5.23349
0
LINE
8
BLACK
6
CONTINUOUS
10
5.47565
20
-5.23349
11
5.4719
21
-5.22599
0
LINE
8
BLACK
6
CONTINUOUS
10
5.4719
20
-5.22599
11
5.4644
21
-5.21474
0
LINE
8
BLACK
6
CONTINUOUS
10
5.4644
20
-5.21474
11
5.46065
21
-5.21099
0
LINE
8
BLACK
6
CONTINUOUS
10
5.60314
20
-5.33097
11
5.59939
21
-5.32722
0
LINE
8
BLACK
6
CONTINUOUS
10
5.59939
20
-5.32722
11
5.59189
21
-5.31598
0
LINE
8
BLACK
6
CONTINUOUS
10
5.59189
20
-5.31598
11
5.58814
21
-5.30848
0
LINE
8
BLACK
6
CONTINUOUS
10
5.58814
20
-5.30848
11
5.58439
21
-5.29723
0
LINE
8
BLACK
6
CONTINUOUS
10
5.58439
20
-5.29723
11
5.58064
21
-5.27848
0
LINE
8
BLACK
6
CONTINUOUS
10
5.58064
20
-5.27848
11
5.58064
21
-5.26348
0
LINE
8
BLACK
6
CONTINUOUS
10
5.58064
20
-5.26348
11
5.58439
21
-5.24473
0
LINE
8
BLACK
6
CONTINUOUS
10
5.58439
20
-5.24473
11
5.58814
21
-5.23349
0
LINE
8
BLACK
6
CONTINUOUS
10
5.58814
20
-5.23349
11
5.59189
21
-5.22599
0
LINE
8
BLACK
6
CONTINUOUS
10
5.59189
20
-5.22599
11
5.59939
21
-5.21474
0
LINE
8
BLACK
6
CONTINUOUS
10
5.59939
20
-5.21474
11
5.60314
21
-5.21099
0
LINE
8
BLACK
6
CONTINUOUS
10
5.63313
20
-5.24848
11
5.63313
21
-5.30098
0
LINE
8
BLACK
6
CONTINUOUS
10
5.63313
20
-5.25598
11
5.63688
21
-5.25223
0
LINE
8
BLACK
6
CONTINUOUS
10
5.63688
20
-5.25223
11
5.64438
21
-5.24848
0
LINE
8
BLACK
6
CONTINUOUS
10
5.64438
20
-5.24848
11
5.65563
21
-5.24848
0
LINE
8
BLACK
6
CONTINUOUS
10
5.65563
20
-5.24848
11
5.66313
21
-5.25223
0
LINE
8
BLACK
6
CONTINUOUS
10
5.66313
20
-5.25223
11
5.66688
21
-5.25973
0
LINE
8
BLACK
6
CONTINUOUS
10
5.66688
20
-5.25973
11
5.66688
21
-5.30098
0
LINE
8
BLACK
6
CONTINUOUS
10
5.71562
20
-5.30098
11
5.70812
21
-5.29723
0
LINE
8
BLACK
6
CONTINUOUS
10
5.70812
20
-5.29723
11
5.70437
21
-5.29348
0
LINE
8
BLACK
6
CONTINUOUS
10
5.70437
20
-5.29348
11
5.70062
21
-5.28598
0
LINE
8
BLACK
6
CONTINUOUS
10
5.70062
20
-5.28598
11
5.70062
21
-5.26348
0
LINE
8
BLACK
6
CONTINUOUS
10
5.70062
20
-5.26348
11
5.70437
21
-5.25598
0
LINE
8
BLACK
6
CONTINUOUS
10
5.70437
20
-5.25598
11
5.70812
21
-5.25223
0
LINE
8
BLACK
6
CONTINUOUS
10
5.70812
20
-5.25223
11
5.71562
21
-5.24848
0
LINE
8
BLACK
6
CONTINUOUS
10
5.71562
20
-5.24848
11
5.72687
21
-5.24848
0
LINE
8
BLACK
6
CONTINUOUS
10
5.72687
20
-5.24848
11
5.73437
21
-5.25223
0
LINE
8
BLACK
6
CONTINUOUS
10
5.73437
20
-5.25223
11
5.73812
21
-5.25598
0
LINE
8
BLACK
6
CONTINUOUS
10
5.73812
20
-5.25598
11
5.74187
21
-5.26348
0
LINE
8
BLACK
6
CONTINUOUS
10
5.74187
20
-5.26348
11
5.74187
21
-5.28598
0
LINE
8
BLACK
6
CONTINUOUS
10
5.74187
20
-5.28598
11
5.73812
21
-5.29348
0
LINE
8
BLACK
6
CONTINUOUS
10
5.73812
20
-5.29348
11
5.73437
21
-5.29723
0
LINE
8
BLACK
6
CONTINUOUS
10
5.73437
20
-5.29723
11
5.72687
21
-5.30098
0
LINE
8
BLACK
6
CONTINUOUS
10
5.72687
20
-5.30098
11
5.71562
21
-5.30098
0
LINE
8
BLACK
6
CONTINUOUS
10
5.76437
20
-5.24848
11
5.79436
21
-5.24848
0
LINE
8
BLACK
6
CONTINUOUS
10
5.77562
20
-5.22224
11
5.77562
21
-5.28973
0
LINE
8
BLACK
6
CONTINUOUS
10
5.77562
20
-5.28973
11
5.77936
21
-5.29723
0
LINE
8
BLACK
6
CONTINUOUS
10
5.77936
20
-5.29723
11
5.78686
21
-5.30098
0
LINE
8
BLACK
6
CONTINUOUS
10
5.78686
20
-5.30098
11
5.79436
21
-5.30098
0
LINE
8
BLACK
6
CONTINUOUS
10
5.8806
20
-5.24848
11
5.8806
21
-5.32722
0
LINE
8
BLACK
6
CONTINUOUS
10
5.8806
20
-5.25223
11
5.8881
21
-5.24848
0
LINE
8
BLACK
6
CONTINUOUS
10
5.8881
20
-5.24848
11
5.9031
21
-5.24848
0
LINE
8
BLACK
6
CONTINUOUS
10
5.9031
20
-5.24848
11
5.9106
21
-5.25223
0
LINE
8
BLACK
6
CONTINUOUS
10
5.9106
20
-5.25223
11
5.91435
21
-5.25598
0
LINE
8
BLACK
6
CONTINUOUS
10
5.91435
20
-5.25598
11
5.9181
21
-5.26348
0
LINE
8
BLACK
6
CONTINUOUS
10
5.9181
20
-5.26348
11
5.9181
21
-5.28598
0
LINE
8
BLACK
6
CONTINUOUS
10
5.9181
20
-5.28598
11
5.91435
21
-5.29348
0
LINE
8
BLACK
6
CONTINUOUS
10
5.91435
20
-5.29348
11
5.9106
21
-5.29723
0
LINE
8
BLACK
6
CONTINUOUS
10
5.9106
20
-5.29723
11
5.9031
21
-5.30098
0
LINE
8
BLACK
6
CONTINUOUS
10
5.9031
20
-5.30098
11
5.8881
21
-5.30098
0
LINE
8
BLACK
6
CONTINUOUS
10
5.8881
20
-5.30098
11
5.8806
21
-5.29723
0
LINE
8
BLACK
6
CONTINUOUS
10
5.96309
20
-5.30098
11
5.95559
21
-5.29723
0
LINE
8
BLACK
6
CONTINUOUS
10
5.95559
20
-5.29723
11
5.95184
21
-5.28973
0
LINE
8
BLACK
6
CONTINUOUS
10
5.95184
20
-5.28973
11
5.95184
21
-5.22224
0
LINE
8
BLACK
6
CONTINUOUS
10
6.02683
20
-5.30098
11
6.02683
21
-5.25973
0
LINE
8
BLACK
6
CONTINUOUS
10
6.02683
20
-5.25973
11
6.02308
21
-5.25223
0
LINE
8
BLACK
6
CONTINUOUS
10
6.02308
20
-5.25223
11
6.01559
21
-5.24848
0
LINE
8
BLACK
6
CONTINUOUS
10
6.01559
20
-5.24848
11
6.00059
21
-5.24848
0
LINE
8
BLACK
6
CONTINUOUS
10
6.00059
20
-5.24848
11
5.99309
21
-5.25223
0
LINE
8
BLACK
6
CONTINUOUS
10
6.02683
20
-5.29723
11
6.01933
21
-5.30098
0
LINE
8
BLACK
6
CONTINUOUS
10
6.01933
20
-5.30098
11
6.00059
21
-5.30098
0
LINE
8
BLACK
6
CONTINUOUS
10
6.00059
20
-5.30098
11
5.99309
21
-5.29723
0
LINE
8
BLACK
6
CONTINUOUS
10
5.99309
20
-5.29723
11
5.98934
21
-5.28973
0
LINE
8
BLACK
6
CONTINUOUS
10
5.98934
20
-5.28973
11
5.98934
21
-5.28223
0
LINE
8
BLACK
6
CONTINUOUS
10
5.98934
20
-5.28223
11
5.99309
21
-5.27473
0
LINE
8
BLACK
6
CONTINUOUS
10
5.99309
20
-5.27473
11
6.00059
21
-5.27098
0
LINE
8
BLACK
6
CONTINUOUS
10
6.00059
20
-5.27098
11
6.01933
21
-5.27098
0
LINE
8
BLACK
6
CONTINUOUS
10
6.01933
20
-5.27098
11
6.02683
21
-5.26723
0
LINE
8
BLACK
6
CONTINUOUS
10
6.05308
20
-5.24848
11
6.08308
21
-5.24848
0
LINE
8
BLACK
6
CONTINUOUS
10
6.06433
20
-5.22224
11
6.06433
21
-5.28973
0
LINE
8
BLACK
6
CONTINUOUS
10
6.06433
20
-5.28973
11
6.06808
21
-5.29723
0
LINE
8
BLACK
6
CONTINUOUS
10
6.06808
20
-5.29723
11
6.07558
21
-5.30098
0
LINE
8
BLACK
6
CONTINUOUS
10
6.07558
20
-5.30098
11
6.08308
21
-5.30098
0
LINE
8
BLACK
6
CONTINUOUS
10
6.13932
20
-5.29723
11
6.13182
21
-5.30098
0
LINE
8
BLACK
6
CONTINUOUS
10
6.13182
20
-5.30098
11
6.11682
21
-5.30098
0
LINE
8
BLACK
6
CONTINUOUS
10
6.11682
20
-5.30098
11
6.10932
21
-5.29723
0
LINE
8
BLACK
6
CONTINUOUS
10
6.10932
20
-5.29723
11
6.10557
21
-5.28973
0
LINE
8
BLACK
6
CONTINUOUS
10
6.10557
20
-5.28973
11
6.10557
21
-5.25973
0
LINE
8
BLACK
6
CONTINUOUS
10
6.10557
20
-5.25973
11
6.10932
21
-5.25223
0
LINE
8
BLACK
6
CONTINUOUS
10
6.10932
20
-5.25223
11
6.11682
21
-5.24848
0
LINE
8
BLACK
6
CONTINUOUS
10
6.11682
20
-5.24848
11
6.13182
21
-5.24848
0
LINE
8
BLACK
6
CONTINUOUS
10
6.13182
20
-5.24848
11
6.13932
21
-5.25223
0
LINE
8
BLACK
6
CONTINUOUS
10
6.13932
20
-5.25223
11
6.14307
21
-5.25973
0
LINE
8
BLACK
6
CONTINUOUS
10
6.14307
20
-5.25973
11
6.14307
21
-5.26723
0
LINE
8
BLACK
6
CONTINUOUS
10
6.14307
20
-5.26723
11
6.10557
21
-5.27473
0
LINE
8
BLACK
6
CONTINUOUS
10
6.21056
20
-5.30098
11
6.21056
21
-5.22224
0
LINE
8
BLACK
6
CONTINUOUS
10
6.21056
20
-5.29723
11
6.20306
21
-5.30098
0
LINE
8
BLACK
6
CONTINUOUS
10
6.20306
20
-5.30098
11
6.18806
21
-5.30098
0
LINE
8
BLACK
6
CONTINUOUS
10
6.18806
20
-5.30098
11
6.18056
21
-5.29723
0
LINE
8
BLACK
6
CONTINUOUS
10
6.18056
20
-5.29723
11
6.17682
21
-5.29348
0
LINE
8
BLACK
6
CONTINUOUS
10
6.17682
20
-5.29348
11
6.17307
21
-5.28598
0
LINE
8
BLACK
6
CONTINUOUS
10
6.17307
20
-5.28598
11
6.17307
21
-5.26348
0
LINE
8
BLACK
6
CONTINUOUS
10
6.17307
20
-5.26348
11
6.17682
21
-5.25598
0
LINE
8
BLACK
6
CONTINUOUS
10
6.17682
20
-5.25598
11
6.18056
21
-5.25223
0
LINE
8
BLACK
6
CONTINUOUS
10
6.18056
20
-5.25223
11
6.18806
21
-5.24848
0
LINE
8
BLACK
6
CONTINUOUS
10
6.18806
20
-5.24848
11
6.20306
21
-5.24848
0
LINE
8
BLACK
6
CONTINUOUS
10
6.20306
20
-5.24848
11
6.21056
21
-5.25223
0
LINE
8
BLACK
6
CONTINUOUS
10
6.24056
20
-5.33097
11
6.24431
21
-5.32722
0
LINE
8
BLACK
6
CONTINUOUS
10
6.24431
20
-5.32722
11
6.25181
21
-5.31598
0
LINE
8
BLACK
6
CONTINUOUS
10
6.25181
20
-5.31598
11
6.25556
21
-5.30848
0
LINE
8
BLACK
6
CONTINUOUS
10
6.25556
20
-5.30848
11
6.2593
21
-5.29723
0
LINE
8
BLACK
6
CONTINUOUS
10
6.2593
20
-5.29723
11
6.26305
21
-5.27848
0
LINE
8
BLACK
6
CONTINUOUS
10
6.26305
20
-5.27848
11
6.26305
21
-5.26348
0
LINE
8
BLACK
6
CONTINUOUS
10
6.26305
20
-5.26348
11
6.2593
21
-5.24473
0
LINE
8
BLACK
6
CONTINUOUS
10
6.2593
20
-5.24473
11
6.25556
21
-5.23349
0
LINE
8
BLACK
6
CONTINUOUS
10
6.25556
20
-5.23349
11
6.25181
21
-5.22599
0
LINE
8
BLACK
6
CONTINUOUS
10
6.25181
20
-5.22599
11
6.24431
21
-5.21474
0
LINE
8
BLACK
6
CONTINUOUS
10
6.24431
20
-5.21474
11
6.24056
21
-5.21099
  0
ENDSEC
  0
EOF
