%TF.GenerationSoftware,KiCad,Pcbnew,7.0.7*%
%TF.CreationDate,2023-09-16T21:48:38+03:00*%
%TF.ProjectId,picoups,7069636f-7570-4732-9e6b-696361645f70,1.1.0*%
%TF.SameCoordinates,Original*%
%TF.FileFunction,Copper,L4,Bot*%
%TF.FilePolarity,Positive*%
%FSLAX46Y46*%
G04 Gerber Fmt 4.6, Leading zero omitted, Abs format (unit mm)*
G04 Created by KiCad (PCBNEW 7.0.7) date 2023-09-16 21:48:38*
%MOMM*%
%LPD*%
G01*
G04 APERTURE LIST*
G04 Aperture macros list*
%AMRoundRect*
0 Rectangle with rounded corners*
0 $1 Rounding radius*
0 $2 $3 $4 $5 $6 $7 $8 $9 X,Y pos of 4 corners*
0 Add a 4 corners polygon primitive as box body*
4,1,4,$2,$3,$4,$5,$6,$7,$8,$9,$2,$3,0*
0 Add four circle primitives for the rounded corners*
1,1,$1+$1,$2,$3*
1,1,$1+$1,$4,$5*
1,1,$1+$1,$6,$7*
1,1,$1+$1,$8,$9*
0 Add four rect primitives between the rounded corners*
20,1,$1+$1,$2,$3,$4,$5,0*
20,1,$1+$1,$4,$5,$6,$7,0*
20,1,$1+$1,$6,$7,$8,$9,0*
20,1,$1+$1,$8,$9,$2,$3,0*%
%AMOutline5P*
0 Free polygon, 5 corners , with rotation*
0 The origin of the aperture is its center*
0 number of corners: always 5*
0 $1 to $10 corner X, Y*
0 $11 Rotation angle, in degrees counterclockwise*
0 create outline with 5 corners*
4,1,5,$1,$2,$3,$4,$5,$6,$7,$8,$9,$10,$1,$2,$11*%
%AMOutline6P*
0 Free polygon, 6 corners , with rotation*
0 The origin of the aperture is its center*
0 number of corners: always 6*
0 $1 to $12 corner X, Y*
0 $13 Rotation angle, in degrees counterclockwise*
0 create outline with 6 corners*
4,1,6,$1,$2,$3,$4,$5,$6,$7,$8,$9,$10,$11,$12,$1,$2,$13*%
%AMOutline7P*
0 Free polygon, 7 corners , with rotation*
0 The origin of the aperture is its center*
0 number of corners: always 7*
0 $1 to $14 corner X, Y*
0 $15 Rotation angle, in degrees counterclockwise*
0 create outline with 7 corners*
4,1,7,$1,$2,$3,$4,$5,$6,$7,$8,$9,$10,$11,$12,$13,$14,$1,$2,$15*%
%AMOutline8P*
0 Free polygon, 8 corners , with rotation*
0 The origin of the aperture is its center*
0 number of corners: always 8*
0 $1 to $16 corner X, Y*
0 $17 Rotation angle, in degrees counterclockwise*
0 create outline with 8 corners*
4,1,8,$1,$2,$3,$4,$5,$6,$7,$8,$9,$10,$11,$12,$13,$14,$15,$16,$1,$2,$17*%
%AMFreePoly0*
4,1,13,-0.487500,0.037500,-0.484645,0.051851,-0.476517,0.064017,-0.464351,0.072145,-0.450000,0.075000,0.450000,0.075000,0.464351,0.072145,0.476517,0.064017,0.484645,0.051851,0.487500,0.037500,0.487500,-0.075000,-0.487500,-0.075000,-0.487500,0.037500,-0.487500,0.037500,$1*%
G04 Aperture macros list end*
%TA.AperFunction,ComponentPad*%
%ADD10Outline5P,-0.850000X0.425000X-0.425000X0.850000X0.850000X0.850000X0.850000X-0.850000X-0.850000X-0.850000X90.000000*%
%TD*%
%TA.AperFunction,ComponentPad*%
%ADD11C,1.700000*%
%TD*%
%TA.AperFunction,ComponentPad*%
%ADD12O,1.700000X1.700000*%
%TD*%
%TA.AperFunction,SMDPad,CuDef*%
%ADD13RoundRect,0.050000X-0.285000X-0.100000X0.285000X-0.100000X0.285000X0.100000X-0.285000X0.100000X0*%
%TD*%
%TA.AperFunction,SMDPad,CuDef*%
%ADD14RoundRect,0.250000X0.475000X-0.250000X0.475000X0.250000X-0.475000X0.250000X-0.475000X-0.250000X0*%
%TD*%
%TA.AperFunction,SMDPad,CuDef*%
%ADD15R,5.700000X1.600000*%
%TD*%
%TA.AperFunction,SMDPad,CuDef*%
%ADD16RoundRect,0.243750X0.456250X-0.243750X0.456250X0.243750X-0.456250X0.243750X-0.456250X-0.243750X0*%
%TD*%
%TA.AperFunction,SMDPad,CuDef*%
%ADD17RoundRect,0.250000X-0.450000X0.262500X-0.450000X-0.262500X0.450000X-0.262500X0.450000X0.262500X0*%
%TD*%
%TA.AperFunction,SMDPad,CuDef*%
%ADD18RoundRect,0.100000X0.625000X0.100000X-0.625000X0.100000X-0.625000X-0.100000X0.625000X-0.100000X0*%
%TD*%
%TA.AperFunction,ComponentPad*%
%ADD19C,0.500000*%
%TD*%
%TA.AperFunction,SMDPad,CuDef*%
%ADD20R,1.650000X2.850000*%
%TD*%
%TA.AperFunction,SMDPad,CuDef*%
%ADD21R,1.100000X1.600000*%
%TD*%
%TA.AperFunction,SMDPad,CuDef*%
%ADD22R,1.600000X1.600000*%
%TD*%
%TA.AperFunction,SMDPad,CuDef*%
%ADD23RoundRect,0.250000X-0.325000X-1.100000X0.325000X-1.100000X0.325000X1.100000X-0.325000X1.100000X0*%
%TD*%
%TA.AperFunction,SMDPad,CuDef*%
%ADD24RoundRect,0.250000X0.262500X0.450000X-0.262500X0.450000X-0.262500X-0.450000X0.262500X-0.450000X0*%
%TD*%
%TA.AperFunction,SMDPad,CuDef*%
%ADD25RoundRect,0.087500X-0.425000X-0.087500X0.425000X-0.087500X0.425000X0.087500X-0.425000X0.087500X0*%
%TD*%
%TA.AperFunction,SMDPad,CuDef*%
%ADD26RoundRect,0.087500X-0.087500X-0.425000X0.087500X-0.425000X0.087500X0.425000X-0.087500X0.425000X0*%
%TD*%
%TA.AperFunction,SMDPad,CuDef*%
%ADD27R,2.100000X2.100000*%
%TD*%
%TA.AperFunction,SMDPad,CuDef*%
%ADD28C,1.000000*%
%TD*%
%TA.AperFunction,SMDPad,CuDef*%
%ADD29RoundRect,0.200000X-0.200000X-0.275000X0.200000X-0.275000X0.200000X0.275000X-0.200000X0.275000X0*%
%TD*%
%TA.AperFunction,SMDPad,CuDef*%
%ADD30RoundRect,0.250000X0.250000X0.475000X-0.250000X0.475000X-0.250000X-0.475000X0.250000X-0.475000X0*%
%TD*%
%TA.AperFunction,SMDPad,CuDef*%
%ADD31RoundRect,0.250000X-0.300000X-0.300000X0.300000X-0.300000X0.300000X0.300000X-0.300000X0.300000X0*%
%TD*%
%TA.AperFunction,SMDPad,CuDef*%
%ADD32RoundRect,0.250000X0.312500X1.075000X-0.312500X1.075000X-0.312500X-1.075000X0.312500X-1.075000X0*%
%TD*%
%TA.AperFunction,SMDPad,CuDef*%
%ADD33RoundRect,0.250000X0.450000X-0.262500X0.450000X0.262500X-0.450000X0.262500X-0.450000X-0.262500X0*%
%TD*%
%TA.AperFunction,SMDPad,CuDef*%
%ADD34RoundRect,0.250000X-0.475000X0.250000X-0.475000X-0.250000X0.475000X-0.250000X0.475000X0.250000X0*%
%TD*%
%TA.AperFunction,SMDPad,CuDef*%
%ADD35RoundRect,0.112500X-0.112500X0.187500X-0.112500X-0.187500X0.112500X-0.187500X0.112500X0.187500X0*%
%TD*%
%TA.AperFunction,SMDPad,CuDef*%
%ADD36RoundRect,0.250000X-0.300000X0.300000X-0.300000X-0.300000X0.300000X-0.300000X0.300000X0.300000X0*%
%TD*%
%TA.AperFunction,SMDPad,CuDef*%
%ADD37RoundRect,0.150000X-0.587500X-0.150000X0.587500X-0.150000X0.587500X0.150000X-0.587500X0.150000X0*%
%TD*%
%TA.AperFunction,SMDPad,CuDef*%
%ADD38R,0.200000X0.500000*%
%TD*%
%TA.AperFunction,SMDPad,CuDef*%
%ADD39R,1.500000X0.900000*%
%TD*%
%TA.AperFunction,ComponentPad*%
%ADD40RoundRect,0.250000X0.350000X0.625000X-0.350000X0.625000X-0.350000X-0.625000X0.350000X-0.625000X0*%
%TD*%
%TA.AperFunction,ComponentPad*%
%ADD41O,1.200000X1.750000*%
%TD*%
%TA.AperFunction,SMDPad,CuDef*%
%ADD42R,1.200000X0.600000*%
%TD*%
%TA.AperFunction,SMDPad,CuDef*%
%ADD43R,0.800000X0.900000*%
%TD*%
%TA.AperFunction,SMDPad,CuDef*%
%ADD44RoundRect,0.075000X-0.075000X0.475000X-0.075000X-0.475000X0.075000X-0.475000X0.075000X0.475000X0*%
%TD*%
%TA.AperFunction,SMDPad,CuDef*%
%ADD45FreePoly0,270.000000*%
%TD*%
%TA.AperFunction,SMDPad,CuDef*%
%ADD46RoundRect,0.075000X-0.075000X1.375000X-0.075000X-1.375000X0.075000X-1.375000X0.075000X1.375000X0*%
%TD*%
%TA.AperFunction,SMDPad,CuDef*%
%ADD47RoundRect,0.062500X-0.062500X0.237500X-0.062500X-0.237500X0.062500X-0.237500X0.062500X0.237500X0*%
%TD*%
%TA.AperFunction,SMDPad,CuDef*%
%ADD48RoundRect,0.062500X-0.237500X0.062500X-0.237500X-0.062500X0.237500X-0.062500X0.237500X0.062500X0*%
%TD*%
%TA.AperFunction,SMDPad,CuDef*%
%ADD49RoundRect,0.075000X-0.075000X0.650000X-0.075000X-0.650000X0.075000X-0.650000X0.075000X0.650000X0*%
%TD*%
%TA.AperFunction,SMDPad,CuDef*%
%ADD50R,0.420000X0.400000*%
%TD*%
%TA.AperFunction,SMDPad,CuDef*%
%ADD51R,1.150000X0.600000*%
%TD*%
%TA.AperFunction,SMDPad,CuDef*%
%ADD52R,1.150000X0.300000*%
%TD*%
%TA.AperFunction,ComponentPad*%
%ADD53O,1.800000X1.000000*%
%TD*%
%TA.AperFunction,ComponentPad*%
%ADD54O,2.100000X1.000000*%
%TD*%
%TA.AperFunction,SMDPad,CuDef*%
%ADD55RoundRect,0.243750X-0.456250X0.243750X-0.456250X-0.243750X0.456250X-0.243750X0.456250X0.243750X0*%
%TD*%
%TA.AperFunction,SMDPad,CuDef*%
%ADD56R,1.903000X2.790000*%
%TD*%
%TA.AperFunction,SMDPad,CuDef*%
%ADD57R,0.800000X1.000000*%
%TD*%
%TA.AperFunction,SMDPad,CuDef*%
%ADD58R,1.500000X0.700000*%
%TD*%
%TA.AperFunction,ViaPad*%
%ADD59C,0.800000*%
%TD*%
%TA.AperFunction,ViaPad*%
%ADD60C,0.600000*%
%TD*%
%TA.AperFunction,Conductor*%
%ADD61C,0.400000*%
%TD*%
%TA.AperFunction,Conductor*%
%ADD62C,0.250000*%
%TD*%
%TA.AperFunction,Conductor*%
%ADD63C,0.200000*%
%TD*%
%TA.AperFunction,Conductor*%
%ADD64C,0.350000*%
%TD*%
%TA.AperFunction,Conductor*%
%ADD65C,0.500000*%
%TD*%
%TA.AperFunction,Conductor*%
%ADD66C,1.000000*%
%TD*%
%TA.AperFunction,Conductor*%
%ADD67C,0.300000*%
%TD*%
G04 APERTURE END LIST*
D10*
%TO.P,J4,1,Pin_1*%
%TO.N,3v3*%
X99400000Y-96750000D03*
D11*
%TO.P,J4,2,Pin_2*%
%TO.N,5V*%
X99400000Y-94210000D03*
D12*
%TO.P,J4,3,Pin_3*%
%TO.N,SDA*%
X101940000Y-96750000D03*
%TO.P,J4,4,Pin_4*%
%TO.N,5V*%
X101940000Y-94210000D03*
%TO.P,J4,5,Pin_5*%
%TO.N,SCL*%
X104480000Y-96750000D03*
%TO.P,J4,6,Pin_6*%
%TO.N,GND*%
X104480000Y-94210000D03*
%TO.P,J4,7,Pin_7*%
%TO.N,unconnected-(J4-Pin_7-Pad7)*%
X107020000Y-96750000D03*
%TO.P,J4,8,Pin_8*%
%TO.N,unconnected-(J4-Pin_8-Pad8)*%
X107020000Y-94210000D03*
%TO.P,J4,9,Pin_9*%
%TO.N,GND*%
X109560000Y-96750000D03*
%TO.P,J4,10,Pin_10*%
%TO.N,unconnected-(J4-Pin_10-Pad10)*%
X109560000Y-94210000D03*
%TO.P,J4,11,Pin_11*%
%TO.N,unconnected-(J4-Pin_11-Pad11)*%
X112100000Y-96750000D03*
%TO.P,J4,12,Pin_12*%
%TO.N,unconnected-(J4-Pin_12-Pad12)*%
X112100000Y-94210000D03*
%TO.P,J4,13,Pin_13*%
%TO.N,unconnected-(J4-Pin_13-Pad13)*%
X114640000Y-96750000D03*
%TO.P,J4,14,Pin_14*%
%TO.N,GND*%
X114640000Y-94210000D03*
%TO.P,J4,15,Pin_15*%
%TO.N,unconnected-(J4-Pin_15-Pad15)*%
X117180000Y-96750000D03*
%TO.P,J4,16,Pin_16*%
%TO.N,unconnected-(J4-Pin_16-Pad16)*%
X117180000Y-94210000D03*
%TO.P,J4,17,Pin_17*%
%TO.N,unconnected-(J4-Pin_17-Pad17)*%
X119720000Y-96750000D03*
%TO.P,J4,18,Pin_18*%
%TO.N,unconnected-(J4-Pin_18-Pad18)*%
X119720000Y-94210000D03*
%TO.P,J4,19,Pin_19*%
%TO.N,unconnected-(J4-Pin_19-Pad19)*%
X122260000Y-96750000D03*
%TO.P,J4,20,Pin_20*%
%TO.N,GND*%
X122260000Y-94210000D03*
%TO.P,J4,21,Pin_21*%
%TO.N,unconnected-(J4-Pin_21-Pad21)*%
X124800000Y-96750000D03*
%TO.P,J4,22,Pin_22*%
%TO.N,unconnected-(J4-Pin_22-Pad22)*%
X124800000Y-94210000D03*
%TO.P,J4,23,Pin_23*%
%TO.N,unconnected-(J4-Pin_23-Pad23)*%
X127340000Y-96750000D03*
%TO.P,J4,24,Pin_24*%
%TO.N,unconnected-(J4-Pin_24-Pad24)*%
X127340000Y-94210000D03*
%TO.P,J4,25,Pin_25*%
%TO.N,GND*%
X129880000Y-96750000D03*
%TO.P,J4,26,Pin_26*%
%TO.N,unconnected-(J4-Pin_26-Pad26)*%
X129880000Y-94210000D03*
%TO.P,J4,27,Pin_27*%
%TO.N,unconnected-(J4-Pin_27-Pad27)*%
X132420000Y-96750000D03*
%TO.P,J4,28,Pin_28*%
%TO.N,unconnected-(J4-Pin_28-Pad28)*%
X132420000Y-94210000D03*
%TO.P,J4,29,Pin_29*%
%TO.N,unconnected-(J4-Pin_29-Pad29)*%
X134960000Y-96750000D03*
%TO.P,J4,30,Pin_30*%
%TO.N,GND*%
X134960000Y-94210000D03*
%TO.P,J4,31,Pin_31*%
%TO.N,unconnected-(J4-Pin_31-Pad31)*%
X137500000Y-96750000D03*
%TO.P,J4,32,Pin_32*%
%TO.N,unconnected-(J4-Pin_32-Pad32)*%
X137500000Y-94210000D03*
%TO.P,J4,33,Pin_33*%
%TO.N,unconnected-(J4-Pin_33-Pad33)*%
X140040000Y-96750000D03*
%TO.P,J4,34,Pin_34*%
%TO.N,GND*%
X140040000Y-94210000D03*
%TO.P,J4,35,Pin_35*%
%TO.N,unconnected-(J4-Pin_35-Pad35)*%
X142580000Y-96750000D03*
%TO.P,J4,36,Pin_36*%
%TO.N,unconnected-(J4-Pin_36-Pad36)*%
X142580000Y-94210000D03*
%TO.P,J4,37,Pin_37*%
%TO.N,Net-(J4-Pin_37)*%
X145120000Y-96750000D03*
%TO.P,J4,38,Pin_38*%
%TO.N,unconnected-(J4-Pin_38-Pad38)*%
X145120000Y-94210000D03*
%TO.P,J4,39,Pin_39*%
%TO.N,GND*%
X147660000Y-96750000D03*
%TO.P,J4,40,Pin_40*%
%TO.N,unconnected-(J4-Pin_40-Pad40)*%
X147660000Y-94210000D03*
%TD*%
D13*
%TO.P,U2,1,GND*%
%TO.N,GND*%
X120510000Y-113750000D03*
%TO.P,U2,2,VOUT*%
%TO.N,VBAT+*%
X120510000Y-113250000D03*
%TO.P,U2,3,VIN1*%
%TO.N,/Power Mux/USB*%
X120510000Y-112750000D03*
%TO.P,U2,4,PR1*%
X120510000Y-112250000D03*
%TO.P,U2,5,MODE*%
X121990000Y-112250000D03*
%TO.P,U2,6,VIN2*%
%TO.N,VBAT_SOL-*%
X121990000Y-112750000D03*
%TO.P,U2,7,VOUT*%
%TO.N,VBAT+*%
X121990000Y-113250000D03*
%TO.P,U2,8,ST*%
%TO.N,unconnected-(U2-ST-Pad8)*%
X121990000Y-113750000D03*
%TD*%
D14*
%TO.P,C2,1*%
%TO.N,VBAT_SOL+*%
X128000000Y-109950000D03*
%TO.P,C2,2*%
%TO.N,GND*%
X128000000Y-108050000D03*
%TD*%
D15*
%TO.P,L1,1,1*%
%TO.N,/Solar Panel Supply/SW*%
X130250000Y-100400000D03*
%TO.P,L1,2,2*%
%TO.N,/Solar Panel Supply/SENSE*%
X130250000Y-105100000D03*
%TD*%
D16*
%TO.P,D5,1,K*%
%TO.N,Net-(D5-K)*%
X139900000Y-120937500D03*
%TO.P,D5,2,A*%
%TO.N,Net-(D5-A)*%
X139900000Y-119062500D03*
%TD*%
D17*
%TO.P,R5,1*%
%TO.N,GND*%
X98250000Y-99837500D03*
%TO.P,R5,2*%
%TO.N,Net-(SW1-C)*%
X98250000Y-101662500D03*
%TD*%
D18*
%TO.P,U1,1,V_{IN}*%
%TO.N,/Solar Panel Supply/VIN*%
X139650000Y-102875000D03*
%TO.P,U1,2,V_{IN_REG}*%
%TO.N,VIN_REG*%
X139650000Y-103525000D03*
%TO.P,U1,3,~{SHDN}*%
%TO.N,/Solar Panel Supply/VIN*%
X139650000Y-104175000D03*
%TO.P,U1,4,~{CHRG}*%
%TO.N,/Solar Panel Supply/CHRG*%
X139650000Y-104825000D03*
%TO.P,U1,5,~{FAULT}*%
%TO.N,/Solar Panel Supply/FAULT*%
X139650000Y-105475000D03*
%TO.P,U1,6,TIMER*%
%TO.N,Net-(U1-TIMER)*%
X139650000Y-106125000D03*
%TO.P,U1,7,V_{FB}*%
%TO.N,Net-(U1-V_{FB})*%
X135350000Y-106125000D03*
%TO.P,U1,8,NTC*%
%TO.N,unconnected-(U1-NTC-Pad8)*%
X135350000Y-105475000D03*
%TO.P,U1,9,BAT*%
%TO.N,VBAT_SOL+*%
X135350000Y-104825000D03*
%TO.P,U1,10,SENSE*%
%TO.N,/Solar Panel Supply/SENSE*%
X135350000Y-104175000D03*
%TO.P,U1,11,BOOST*%
%TO.N,/Solar Panel Supply/BOOST*%
X135350000Y-103525000D03*
%TO.P,U1,12,SW*%
%TO.N,/Solar Panel Supply/SW*%
X135350000Y-102875000D03*
D19*
%TO.P,U1,13,GND*%
%TO.N,GND*%
X138000000Y-105500000D03*
X138000000Y-104500000D03*
X138000000Y-103500000D03*
D20*
X137500000Y-104500000D03*
D19*
X137000000Y-105500000D03*
X137000000Y-104500000D03*
X137000000Y-103500000D03*
%TD*%
D21*
%TO.P,RV1,1,1*%
%TO.N,/Solar Panel Supply/VIN*%
X143600000Y-103200000D03*
D22*
%TO.P,RV1,2,2*%
%TO.N,VIN_REG*%
X144750000Y-100300000D03*
D21*
%TO.P,RV1,3,3*%
%TO.N,GND*%
X145900000Y-103200000D03*
%TD*%
D23*
%TO.P,C3,1*%
%TO.N,VBAT_SOL+*%
X124525000Y-112750000D03*
%TO.P,C3,2*%
%TO.N,GND*%
X127475000Y-112750000D03*
%TD*%
D24*
%TO.P,R12,1*%
%TO.N,Net-(D3-A)*%
X139912500Y-112550000D03*
%TO.P,R12,2*%
%TO.N,GND*%
X138087500Y-112550000D03*
%TD*%
D25*
%TO.P,U5,1,IN-3*%
%TO.N,5V*%
X111387500Y-102975000D03*
%TO.P,U5,2,IN+3*%
%TO.N,5V+*%
X111387500Y-102325000D03*
%TO.P,U5,3,GND*%
%TO.N,GND*%
X111387500Y-101675000D03*
%TO.P,U5,4,VS*%
%TO.N,5V+*%
X111387500Y-101025000D03*
D26*
%TO.P,U5,5,A0*%
%TO.N,GND*%
X112275000Y-100137500D03*
%TO.P,U5,6,SCL*%
%TO.N,SCL*%
X112925000Y-100137500D03*
%TO.P,U5,7,SDA*%
%TO.N,SDA*%
X113575000Y-100137500D03*
%TO.P,U5,8,WARNING*%
%TO.N,unconnected-(U5-WARNING-Pad8)*%
X114225000Y-100137500D03*
D25*
%TO.P,U5,9,CRITICAL*%
%TO.N,unconnected-(U5-CRITICAL-Pad9)*%
X115112500Y-101025000D03*
%TO.P,U5,10,PV*%
%TO.N,unconnected-(U5-PV-Pad10)*%
X115112500Y-101675000D03*
%TO.P,U5,11,IN-1*%
%TO.N,VBAT_SOL-*%
X115112500Y-102325000D03*
%TO.P,U5,12,IN+1*%
%TO.N,VBAT_SOL+*%
X115112500Y-102975000D03*
D26*
%TO.P,U5,13,TC*%
%TO.N,unconnected-(U5-TC-Pad13)*%
X114225000Y-103862500D03*
%TO.P,U5,14,IN-2*%
%TO.N,VBAT-*%
X113575000Y-103862500D03*
%TO.P,U5,15,IN+2*%
%TO.N,VBAT+*%
X112925000Y-103862500D03*
%TO.P,U5,16,VPU*%
%TO.N,GND*%
X112275000Y-103862500D03*
D19*
%TO.P,U5,17,EP*%
X112450000Y-101200000D03*
X112450000Y-102000000D03*
X112450000Y-102800000D03*
X113250000Y-101200000D03*
X113250000Y-102000000D03*
D27*
X113250000Y-102000000D03*
D19*
X113250000Y-102800000D03*
X114050000Y-101200000D03*
X114050000Y-102000000D03*
X114050000Y-102800000D03*
%TD*%
D28*
%TO.P,TP6,1,1*%
%TO.N,VBAT+*%
X122500000Y-118250000D03*
%TD*%
D14*
%TO.P,C10,1*%
%TO.N,/Power Mux/USB*%
X118250000Y-107450000D03*
%TO.P,C10,2*%
%TO.N,GND*%
X118250000Y-105550000D03*
%TD*%
D29*
%TO.P,R13,1*%
%TO.N,GND*%
X144925000Y-105750000D03*
%TO.P,R13,2*%
%TO.N,Net-(J3-CC1)*%
X146575000Y-105750000D03*
%TD*%
D14*
%TO.P,C8,1*%
%TO.N,5V+*%
X111250000Y-119950000D03*
%TO.P,C8,2*%
%TO.N,GND*%
X111250000Y-118050000D03*
%TD*%
D16*
%TO.P,D7,1,K*%
%TO.N,Net-(D7-K)*%
X154750000Y-100687500D03*
%TO.P,D7,2,A*%
%TO.N,Net-(D7-A)*%
X154750000Y-98812500D03*
%TD*%
D28*
%TO.P,TP3,1,1*%
%TO.N,5V*%
X107550000Y-107000000D03*
%TD*%
D17*
%TO.P,R7,1*%
%TO.N,GND*%
X122150000Y-100337500D03*
%TO.P,R7,2*%
%TO.N,Net-(U4-PRE-TERM)*%
X122150000Y-102162500D03*
%TD*%
D30*
%TO.P,C1,1*%
%TO.N,/Solar Panel Supply/VIN*%
X141244916Y-100670000D03*
%TO.P,C1,2*%
%TO.N,GND*%
X139344916Y-100670000D03*
%TD*%
D31*
%TO.P,D1,1,K*%
%TO.N,/Solar Panel Supply/SW*%
X134644916Y-100400000D03*
%TO.P,D1,2,A*%
%TO.N,GND*%
X137444916Y-100400000D03*
%TD*%
D17*
%TO.P,R6,1*%
%TO.N,GND*%
X120250000Y-100337500D03*
%TO.P,R6,2*%
%TO.N,Net-(U4-ISET)*%
X120250000Y-102162500D03*
%TD*%
D32*
%TO.P,R11,1*%
%TO.N,5V+*%
X109000000Y-119500000D03*
%TO.P,R11,2*%
%TO.N,5V*%
X106075000Y-119500000D03*
%TD*%
D17*
%TO.P,R1,1*%
%TO.N,/Solar Panel Supply/SENSE*%
X130250000Y-108087500D03*
%TO.P,R1,2*%
%TO.N,VBAT_SOL+*%
X130250000Y-109912500D03*
%TD*%
D33*
%TO.P,R8,1*%
%TO.N,GND*%
X120250000Y-109412500D03*
%TO.P,R8,2*%
%TO.N,Net-(U4-TS)*%
X120250000Y-107587500D03*
%TD*%
D34*
%TO.P,C6,1*%
%TO.N,Net-(U1-TIMER)*%
X139650000Y-108050000D03*
%TO.P,C6,2*%
%TO.N,GND*%
X139650000Y-109950000D03*
%TD*%
D32*
%TO.P,R9,1*%
%TO.N,VBAT_SOL+*%
X125712500Y-109500000D03*
%TO.P,R9,2*%
%TO.N,VBAT_SOL-*%
X122787500Y-109500000D03*
%TD*%
D14*
%TO.P,C9,1*%
%TO.N,GND*%
X118250000Y-103950000D03*
%TO.P,C9,2*%
%TO.N,USB_5V*%
X118250000Y-102050000D03*
%TD*%
D33*
%TO.P,R17,1*%
%TO.N,Net-(D5-A)*%
X139900000Y-117412500D03*
%TO.P,R17,2*%
%TO.N,VBAT+*%
X139900000Y-115587500D03*
%TD*%
D17*
%TO.P,R3,1*%
%TO.N,Net-(U1-V_{FB})*%
X135350000Y-108087500D03*
%TO.P,R3,2*%
%TO.N,Net-(R2-Pad1)*%
X135350000Y-109912500D03*
%TD*%
D35*
%TO.P,D3,1,K*%
%TO.N,/Solar Panel Supply/VIN*%
X142000000Y-110450000D03*
%TO.P,D3,2,A*%
%TO.N,Net-(D3-A)*%
X142000000Y-112550000D03*
%TD*%
D36*
%TO.P,D2,1,K*%
%TO.N,/Solar Panel Supply/BOOST*%
X125500000Y-104100000D03*
%TO.P,D2,2,A*%
%TO.N,VBAT_SOL+*%
X125500000Y-106900000D03*
%TD*%
D37*
%TO.P,Q1,1,G*%
%TO.N,Net-(D3-A)*%
X144125000Y-112450000D03*
%TO.P,Q1,2,S*%
%TO.N,/Solar Panel Supply/VIN*%
X144125000Y-110550000D03*
%TO.P,Q1,3,D*%
%TO.N,Net-(J1-Pin_1)*%
X146000000Y-111500000D03*
%TD*%
D34*
%TO.P,C5,1*%
%TO.N,/Solar Panel Supply/SW*%
X125500000Y-100400000D03*
%TO.P,C5,2*%
%TO.N,/Solar Panel Supply/BOOST*%
X125500000Y-102300000D03*
%TD*%
D38*
%TO.P,U4,1,IN*%
%TO.N,USB_5V*%
X119950000Y-103800000D03*
%TO.P,U4,2,ISET*%
%TO.N,Net-(U4-ISET)*%
X120350000Y-103800000D03*
%TO.P,U4,3,VSS*%
%TO.N,GND*%
X120750000Y-103800000D03*
D19*
X121250000Y-104750000D03*
D39*
X120750000Y-104750000D03*
D19*
X120250000Y-104750000D03*
D38*
%TO.P,U4,4,PRE-TERM*%
%TO.N,Net-(U4-PRE-TERM)*%
X121150000Y-103800000D03*
%TO.P,U4,5,~{PG}*%
%TO.N,/Status LEDs/USB_PWRGD*%
X121550000Y-103800000D03*
%TO.P,U4,6,NC*%
%TO.N,unconnected-(U4-NC-Pad6)*%
X121550000Y-105700000D03*
%TO.P,U4,7,ISET2*%
%TO.N,GND*%
X121150000Y-105700000D03*
%TO.P,U4,8,~{CHG}*%
%TO.N,/Status LEDs/USB_CHRG*%
X120750000Y-105700000D03*
%TO.P,U4,9,TS*%
%TO.N,Net-(U4-TS)*%
X120350000Y-105700000D03*
%TO.P,U4,10,OUT*%
%TO.N,/Power Mux/USB*%
X119950000Y-105700000D03*
%TD*%
D33*
%TO.P,R16,1*%
%TO.N,Net-(D4-A)*%
X137500000Y-117412500D03*
%TO.P,R16,2*%
%TO.N,VBAT+*%
X137500000Y-115587500D03*
%TD*%
D40*
%TO.P,J1,1,Pin_1*%
%TO.N,Net-(J1-Pin_1)*%
X146000000Y-115300000D03*
D41*
%TO.P,J1,2,Pin_2*%
%TO.N,GND*%
X144000000Y-115300000D03*
%TD*%
D42*
%TO.P,SW2,*%
%TO.N,*%
X93400000Y-108200000D03*
X93400000Y-112800000D03*
D43*
%TO.P,SW2,1,1*%
%TO.N,GND*%
X95400000Y-108800000D03*
%TO.P,SW2,2,2*%
%TO.N,SCL*%
X95400000Y-112200000D03*
%TD*%
D17*
%TO.P,R2,1*%
%TO.N,Net-(R2-Pad1)*%
X133000000Y-108087500D03*
%TO.P,R2,2*%
%TO.N,VBAT_SOL+*%
X133000000Y-109912500D03*
%TD*%
D24*
%TO.P,R18,1*%
%TO.N,Net-(D6-A)*%
X152662500Y-114250000D03*
%TO.P,R18,2*%
%TO.N,USB_5V*%
X150837500Y-114250000D03*
%TD*%
D44*
%TO.P,U3,1,PGND*%
%TO.N,GND*%
X113980000Y-118100000D03*
D45*
%TO.P,U3,2,SW*%
%TO.N,Net-(U3-SW)*%
X114825000Y-119000000D03*
D46*
X114600000Y-119000000D03*
D47*
%TO.P,U3,3,VIN*%
%TO.N,VBAT+*%
X115225000Y-117850000D03*
D48*
%TO.P,U3,4,CC*%
%TO.N,GND*%
X115900000Y-118250000D03*
%TO.P,U3,5,AGND*%
X115900000Y-118750000D03*
%TO.P,U3,6,FB*%
%TO.N,5V+*%
X115900000Y-119250000D03*
%TO.P,U3,7,EN*%
%TO.N,Net-(SW1-C)*%
X115900000Y-119750000D03*
D47*
%TO.P,U3,8,INACT*%
%TO.N,unconnected-(U3-INACT-Pad8)*%
X115225000Y-120150000D03*
D49*
%TO.P,U3,9,VOUT*%
%TO.N,5V+*%
X113980000Y-119725000D03*
%TD*%
D32*
%TO.P,R10,1*%
%TO.N,VBAT-*%
X127462500Y-119500000D03*
%TO.P,R10,2*%
%TO.N,VBAT+*%
X124537500Y-119500000D03*
%TD*%
D50*
%TO.P,U6,1,SDA*%
%TO.N,SDA*%
X105400000Y-101150000D03*
%TO.P,U6,2,SQW*%
%TO.N,unconnected-(U6-SQW-Pad2)*%
X105400000Y-102050000D03*
%TO.P,U6,3,VSS*%
%TO.N,GND*%
X105400000Y-102950000D03*
%TO.P,U6,4,NC*%
%TO.N,unconnected-(U6-NC-Pad4)*%
X105400000Y-103850000D03*
%TO.P,U6,5,VCC*%
%TO.N,VBAT+*%
X104480000Y-103850000D03*
%TO.P,U6,6,~{IRQ}/OUT*%
%TO.N,unconnected-(U6-~{IRQ}{slash}OUT-Pad6)*%
X104480000Y-102950000D03*
%TO.P,U6,7,NC*%
%TO.N,unconnected-(U6-NC-Pad7)*%
X104480000Y-102050000D03*
%TO.P,U6,8,SCL*%
%TO.N,SCL*%
X104480000Y-101150000D03*
%TD*%
D16*
%TO.P,D4,1,K*%
%TO.N,Net-(D4-K)*%
X137500000Y-120937500D03*
%TO.P,D4,2,A*%
%TO.N,Net-(D4-A)*%
X137500000Y-119062500D03*
%TD*%
D29*
%TO.P,R14,1*%
%TO.N,GND*%
X144925000Y-108750000D03*
%TO.P,R14,2*%
%TO.N,Net-(J3-CC2)*%
X146575000Y-108750000D03*
%TD*%
D51*
%TO.P,J3,A1,GND*%
%TO.N,GND*%
X148570000Y-103800000D03*
%TO.P,J3,A4,VBUS*%
%TO.N,USB_5V*%
X148570000Y-104600000D03*
D52*
%TO.P,J3,A5,CC1*%
%TO.N,Net-(J3-CC1)*%
X148570000Y-105750000D03*
%TO.P,J3,A6,D+*%
%TO.N,unconnected-(J3-D+-PadA6)*%
X148570000Y-106750000D03*
%TO.P,J3,A7,D-*%
%TO.N,unconnected-(J3-D--PadA7)*%
X148570000Y-107250000D03*
%TO.P,J3,A8,SBU1*%
%TO.N,unconnected-(J3-SBU1-PadA8)*%
X148570000Y-108250000D03*
D51*
%TO.P,J3,A9,VBUS*%
%TO.N,USB_5V*%
X148570000Y-109400000D03*
%TO.P,J3,A12,GND*%
%TO.N,GND*%
X148570000Y-110200000D03*
%TO.P,J3,B1,GND*%
X148570000Y-110200000D03*
%TO.P,J3,B4,VBUS*%
%TO.N,USB_5V*%
X148570000Y-109400000D03*
D52*
%TO.P,J3,B5,CC2*%
%TO.N,Net-(J3-CC2)*%
X148570000Y-108750000D03*
%TO.P,J3,B6,D+*%
%TO.N,unconnected-(J3-D+-PadB6)*%
X148570000Y-107750000D03*
%TO.P,J3,B7,D-*%
%TO.N,unconnected-(J3-D--PadB7)*%
X148570000Y-106250000D03*
%TO.P,J3,B8,SBU2*%
%TO.N,unconnected-(J3-SBU2-PadB8)*%
X148570000Y-105250000D03*
D51*
%TO.P,J3,B9,VBUS*%
%TO.N,USB_5V*%
X148570000Y-104600000D03*
%TO.P,J3,B12,GND*%
%TO.N,GND*%
X148570000Y-103800000D03*
D53*
%TO.P,J3,S1,SHIELD*%
%TO.N,unconnected-(J3-SHIELD-PadS1)*%
X153325000Y-102680000D03*
D54*
X149145000Y-102680000D03*
D53*
X153325000Y-111320000D03*
D54*
X149145000Y-111320000D03*
%TD*%
D28*
%TO.P,TP4,1,1*%
%TO.N,GND*%
X107550000Y-109000000D03*
%TD*%
D55*
%TO.P,D6,1,K*%
%TO.N,Net-(D6-K)*%
X154750000Y-113312500D03*
%TO.P,D6,2,A*%
%TO.N,Net-(D6-A)*%
X154750000Y-115187500D03*
%TD*%
D14*
%TO.P,C11,1*%
%TO.N,5V+*%
X109000000Y-102950000D03*
%TO.P,C11,2*%
%TO.N,GND*%
X109000000Y-101050000D03*
%TD*%
D23*
%TO.P,C4,1*%
%TO.N,VBAT_SOL+*%
X124525000Y-116000000D03*
%TO.P,C4,2*%
%TO.N,GND*%
X127475000Y-116000000D03*
%TD*%
D28*
%TO.P,TP8,1,1*%
%TO.N,VBAT_SOL-*%
X123000000Y-106000000D03*
%TD*%
D56*
%TO.P,L2,1,1*%
%TO.N,VBAT+*%
X115676500Y-113750000D03*
%TO.P,L2,2,2*%
%TO.N,Net-(U3-SW)*%
X110823500Y-113750000D03*
%TD*%
D28*
%TO.P,TP5,1,1*%
%TO.N,GND*%
X120500000Y-118250000D03*
%TD*%
D40*
%TO.P,J2,1,Pin_1*%
%TO.N,VBAT-*%
X133400000Y-115300000D03*
D41*
%TO.P,J2,2,Pin_2*%
%TO.N,GND*%
X131400000Y-115300000D03*
%TD*%
D34*
%TO.P,C7,1*%
%TO.N,VBAT+*%
X118250000Y-114300000D03*
%TO.P,C7,2*%
%TO.N,GND*%
X118250000Y-116200000D03*
%TD*%
D24*
%TO.P,R19,1*%
%TO.N,Net-(D7-A)*%
X152662500Y-99750000D03*
%TO.P,R19,2*%
%TO.N,USB_5V*%
X150837500Y-99750000D03*
%TD*%
D33*
%TO.P,R4,1*%
%TO.N,Net-(R2-Pad1)*%
X137500000Y-109912500D03*
%TO.P,R4,2*%
%TO.N,GND*%
X137500000Y-108087500D03*
%TD*%
D57*
%TO.P,SW1,*%
%TO.N,*%
X93070000Y-106650000D03*
X95280000Y-106650000D03*
X93070000Y-99350000D03*
X95280000Y-99350000D03*
D58*
%TO.P,SW1,1,A*%
%TO.N,unconnected-(SW1-A-Pad1)*%
X95930000Y-105250000D03*
%TO.P,SW1,2,B*%
%TO.N,VBAT+*%
X95930000Y-102250000D03*
%TO.P,SW1,3,C*%
%TO.N,Net-(SW1-C)*%
X95930000Y-100750000D03*
%TD*%
D59*
%TO.N,GND*%
X119800000Y-116200000D03*
X111250000Y-116900000D03*
X122150000Y-99149500D03*
D60*
X126874500Y-109000000D03*
D59*
X150000000Y-107000000D03*
X149000000Y-115500000D03*
X128750000Y-116000000D03*
X155000000Y-107000000D03*
X120500000Y-114750000D03*
X92000000Y-98500000D03*
X151500000Y-107000000D03*
X131400000Y-120500000D03*
X147000000Y-99500000D03*
X109000000Y-100000000D03*
X120250000Y-110500000D03*
X141000000Y-109000000D03*
X151500000Y-109000000D03*
X116500000Y-100000000D03*
X155000000Y-105500000D03*
X144000000Y-121000000D03*
X97250000Y-92750000D03*
X107550000Y-110500000D03*
X137444916Y-101750000D03*
X96500000Y-108800000D03*
X147500000Y-103250000D03*
X149750000Y-98250000D03*
X105500000Y-117000000D03*
X120250000Y-99149500D03*
X113200000Y-118100000D03*
X155000000Y-110000000D03*
X128750000Y-112750000D03*
X139344916Y-99250000D03*
X128750000Y-113500000D03*
X98000000Y-116000000D03*
X136750000Y-112550000D03*
X155000000Y-104000000D03*
X94000000Y-103000000D03*
X116250000Y-117500000D03*
X147500000Y-110750000D03*
X132000000Y-102000000D03*
X151500000Y-105000000D03*
X128750000Y-115250000D03*
X128750000Y-116750000D03*
X145900000Y-101750000D03*
X106500000Y-102950000D03*
X146000000Y-120500000D03*
X97500000Y-121000000D03*
X149750000Y-92750000D03*
X143750000Y-105750000D03*
X143750000Y-108750000D03*
X133400000Y-121000000D03*
X149000000Y-121000000D03*
X111250000Y-104000000D03*
X111250000Y-100000000D03*
X116750000Y-105550000D03*
X155000000Y-108500000D03*
X119000000Y-118250000D03*
X116750000Y-103950000D03*
D60*
X98250000Y-98750000D03*
D59*
X128500000Y-102000000D03*
X128750000Y-112000000D03*
D60*
%TO.N,VBAT_SOL+*%
X115112500Y-104750000D03*
D59*
X125712500Y-109500000D03*
%TO.N,/Solar Panel Supply/BOOST*%
X134025000Y-103525000D03*
X126500000Y-103250000D03*
D60*
%TO.N,VBAT+*%
X104480000Y-104730000D03*
X112925000Y-105250000D03*
X124537500Y-119500000D03*
X99000000Y-106250000D03*
D59*
%TO.N,5V+*%
X109000000Y-107750000D03*
X110267217Y-100493335D03*
X109000000Y-104500000D03*
D60*
%TO.N,Net-(D4-K)*%
X137400000Y-120650000D03*
%TO.N,Net-(D5-K)*%
X140000000Y-120650000D03*
D59*
%TO.N,Net-(D6-K)*%
X154750000Y-113312500D03*
%TO.N,Net-(D7-K)*%
X154750000Y-100687500D03*
D60*
%TO.N,VBAT-*%
X113575000Y-104750000D03*
X127462500Y-119500000D03*
%TO.N,SDA*%
X105400000Y-98250000D03*
X105400000Y-100250000D03*
%TO.N,SCL*%
X95150000Y-114000000D03*
D59*
X103365000Y-100115000D03*
X99750000Y-103750000D03*
D60*
%TO.N,/Solar Panel Supply/FAULT*%
X141000000Y-107849500D03*
%TO.N,/Solar Panel Supply/CHRG*%
X141110393Y-109892702D03*
%TO.N,/Status LEDs/USB_CHRG*%
X121043606Y-106584583D03*
%TO.N,/Status LEDs/USB_PWRGD*%
X122725000Y-104275000D03*
D59*
%TO.N,Net-(SW1-C)*%
X98250000Y-104000000D03*
D60*
X115925000Y-120497372D03*
%TO.N,VBAT_SOL-*%
X116000000Y-104750000D03*
D59*
X122787500Y-109500000D03*
%TO.N,VIN_REG*%
X141250000Y-103500000D03*
X143250000Y-100250000D03*
%TD*%
D61*
%TO.N,GND*%
X111250000Y-116900000D02*
X111250000Y-118050000D01*
X136750000Y-112550000D02*
X138087500Y-112550000D01*
D62*
X148050000Y-110200000D02*
X147500000Y-110750000D01*
X116750000Y-103950000D02*
X118250000Y-103950000D01*
D61*
X137500000Y-108087500D02*
X137500000Y-104500000D01*
D62*
X120500000Y-114750000D02*
X120510000Y-114740000D01*
X137444916Y-101750000D02*
X137444916Y-100400000D01*
X140050000Y-109950000D02*
X141000000Y-109000000D01*
D61*
X111387500Y-100137500D02*
X111250000Y-100000000D01*
D62*
X120250000Y-110500000D02*
X120250000Y-109412500D01*
D63*
X121150000Y-105150000D02*
X120750000Y-104750000D01*
D62*
X144925000Y-108750000D02*
X143750000Y-108750000D01*
X148050000Y-103800000D02*
X148570000Y-103800000D01*
X115900000Y-118250000D02*
X115900000Y-118725000D01*
X116250000Y-117900000D02*
X115900000Y-118250000D01*
D61*
X112275000Y-103862500D02*
X111387500Y-103862500D01*
D64*
X109000000Y-101050000D02*
X109000000Y-100000000D01*
D62*
X144925000Y-105750000D02*
X143750000Y-105750000D01*
X120250000Y-100337500D02*
X120250000Y-99149500D01*
D61*
X112275000Y-100137500D02*
X111387500Y-100137500D01*
D62*
X145900000Y-101750000D02*
X145900000Y-103200000D01*
D61*
X120500000Y-118250000D02*
X119000000Y-118250000D01*
D63*
X120750000Y-103800000D02*
X120750000Y-104750000D01*
D62*
X147500000Y-103250000D02*
X148050000Y-103800000D01*
D61*
X127824500Y-108050000D02*
X128000000Y-108050000D01*
D62*
X116750000Y-105550000D02*
X118250000Y-105550000D01*
D61*
X105400000Y-102950000D02*
X106500000Y-102950000D01*
D62*
X122150000Y-99149500D02*
X122150000Y-100337500D01*
D64*
X109625000Y-101675000D02*
X109000000Y-101050000D01*
D62*
X139344916Y-100670000D02*
X139344916Y-99250000D01*
D61*
X111387500Y-103862500D02*
X111250000Y-104000000D01*
X96500000Y-108800000D02*
X95400000Y-108800000D01*
D62*
X116250000Y-117500000D02*
X116250000Y-117900000D01*
D61*
X98250000Y-98750000D02*
X98250000Y-99837500D01*
D62*
X148570000Y-110200000D02*
X148050000Y-110200000D01*
X139650000Y-109950000D02*
X140050000Y-109950000D01*
D64*
X111387500Y-101675000D02*
X109625000Y-101675000D01*
D63*
X121150000Y-105700000D02*
X121150000Y-105150000D01*
D61*
X107550000Y-109000000D02*
X107550000Y-110500000D01*
D62*
X120510000Y-114740000D02*
X120510000Y-113800000D01*
D61*
X126874500Y-109000000D02*
X127824500Y-108050000D01*
X119800000Y-116200000D02*
X118250000Y-116200000D01*
D63*
%TO.N,VBAT_SOL+*%
X115112500Y-104750000D02*
X115112500Y-102975000D01*
D61*
%TO.N,/Solar Panel Supply/SW*%
X134644916Y-100400000D02*
X130250000Y-100400000D01*
X135350000Y-102875000D02*
X135350000Y-101105084D01*
X125500000Y-100400000D02*
X130250000Y-100400000D01*
X135350000Y-101105084D02*
X134644916Y-100400000D01*
%TO.N,/Solar Panel Supply/BOOST*%
X125500000Y-103250000D02*
X125500000Y-102300000D01*
X125500000Y-104100000D02*
X125500000Y-103250000D01*
X134025000Y-103525000D02*
X135350000Y-103525000D01*
X126500000Y-103250000D02*
X125500000Y-103250000D01*
%TO.N,Net-(U1-TIMER)*%
X139650000Y-108050000D02*
X139650000Y-106125000D01*
D63*
%TO.N,VBAT+*%
X131587500Y-121500000D02*
X126537500Y-121500000D01*
X112925000Y-105250000D02*
X112925000Y-103862500D01*
D62*
X115225000Y-117850000D02*
X115225000Y-114201500D01*
D63*
X137500000Y-115587500D02*
X131587500Y-121500000D01*
X104480000Y-104730000D02*
X104480000Y-103850000D01*
D62*
X115225000Y-114201500D02*
X115676500Y-113750000D01*
D63*
X139900000Y-115587500D02*
X137500000Y-115587500D01*
X95930000Y-103180000D02*
X95930000Y-102250000D01*
X126537500Y-121500000D02*
X124537500Y-119500000D01*
X99000000Y-106250000D02*
X95930000Y-103180000D01*
D62*
%TO.N,5V+*%
X116550000Y-120756256D02*
X116550000Y-119551992D01*
D64*
X109000000Y-102950000D02*
X109000000Y-104500000D01*
X110267217Y-100493335D02*
X110798882Y-101025000D01*
X111387500Y-102325000D02*
X109625000Y-102325000D01*
D62*
X116550000Y-119551992D02*
X116248008Y-119250000D01*
D64*
X109000000Y-107750000D02*
X109000000Y-119500000D01*
D62*
X114600621Y-121122372D02*
X116183884Y-121122372D01*
X116248008Y-119250000D02*
X115900000Y-119250000D01*
D64*
X110798882Y-101025000D02*
X111387500Y-101025000D01*
D62*
X116183884Y-121122372D02*
X116550000Y-120756256D01*
X113980000Y-119725000D02*
X113980000Y-120501751D01*
D64*
X109625000Y-102325000D02*
X109000000Y-102950000D01*
D62*
X113980000Y-120501751D02*
X114600621Y-121122372D01*
D63*
%TO.N,USB_5V*%
X118550000Y-102050000D02*
X119950000Y-103450000D01*
D65*
X119450000Y-98300000D02*
X118250000Y-99500000D01*
X147550000Y-98300000D02*
X119450000Y-98300000D01*
X149000000Y-99750000D02*
X147550000Y-98300000D01*
X118250000Y-99500000D02*
X118250000Y-102050000D01*
D63*
X119950000Y-103450000D02*
X119950000Y-103800000D01*
D65*
X150837500Y-99750000D02*
X149000000Y-99750000D01*
D63*
X118250000Y-102050000D02*
X118550000Y-102050000D01*
%TO.N,/Power Mux/USB*%
X119950000Y-106050000D02*
X118550000Y-107450000D01*
X118250000Y-107450000D02*
X118250000Y-109990000D01*
X120510000Y-112250000D02*
X120510000Y-112750000D01*
X120510000Y-112250000D02*
X121990000Y-112250000D01*
X119950000Y-105700000D02*
X119950000Y-106050000D01*
X118250000Y-109990000D02*
X120510000Y-112250000D01*
X118550000Y-107450000D02*
X118250000Y-107450000D01*
D61*
%TO.N,Net-(D3-A)*%
X142000000Y-112550000D02*
X139912500Y-112550000D01*
X144025000Y-112550000D02*
X142000000Y-112550000D01*
X144125000Y-112450000D02*
X144025000Y-112550000D01*
%TO.N,Net-(D4-A)*%
X137500000Y-117412500D02*
X137500000Y-119062500D01*
%TO.N,Net-(D5-A)*%
X139900000Y-117412500D02*
X139900000Y-119062500D01*
%TO.N,Net-(D6-A)*%
X153812500Y-114250000D02*
X152662500Y-114250000D01*
X154750000Y-115187500D02*
X153812500Y-114250000D01*
%TO.N,Net-(D7-A)*%
X152662500Y-99750000D02*
X153812500Y-99750000D01*
X153812500Y-99750000D02*
X154750000Y-98812500D01*
%TO.N,Net-(J1-Pin_1)*%
X146000000Y-115300000D02*
X146000000Y-111500000D01*
D66*
%TO.N,VBAT-*%
X133400000Y-116850000D02*
X133400000Y-115300000D01*
X127462500Y-119500000D02*
X130750000Y-119500000D01*
X130750000Y-119500000D02*
X133400000Y-116850000D01*
D63*
X113575000Y-104750000D02*
X113575000Y-103862500D01*
D67*
%TO.N,Net-(J3-CC1)*%
X146575000Y-105750000D02*
X148570000Y-105750000D01*
%TO.N,Net-(J3-CC2)*%
X146575000Y-108750000D02*
X148570000Y-108750000D01*
D61*
%TO.N,SDA*%
X112437957Y-98250000D02*
X113575000Y-99387043D01*
X105400000Y-101150000D02*
X105400000Y-100250000D01*
X113575000Y-99387043D02*
X113575000Y-100137500D01*
X105400000Y-98250000D02*
X112437957Y-98250000D01*
%TO.N,SCL*%
X112339429Y-99000000D02*
X112925000Y-99585571D01*
X112925000Y-99585571D02*
X112925000Y-100137500D01*
X104480000Y-99000000D02*
X112339429Y-99000000D01*
X104480000Y-101150000D02*
X104480000Y-96750000D01*
X99750000Y-107850000D02*
X95400000Y-112200000D01*
X103365000Y-100115000D02*
X104480000Y-99000000D01*
X95400000Y-113750000D02*
X95400000Y-112200000D01*
X95150000Y-114000000D02*
X95400000Y-113750000D01*
X99750000Y-103750000D02*
X99750000Y-107850000D01*
D63*
%TO.N,/Solar Panel Supply/FAULT*%
X140532107Y-105475000D02*
X139650000Y-105475000D01*
X141000000Y-107849500D02*
X141000000Y-105942893D01*
X141000000Y-105942893D02*
X140532107Y-105475000D01*
%TO.N,/Solar Panel Supply/CHRG*%
X141750000Y-105844365D02*
X140730635Y-104825000D01*
X141750000Y-109253095D02*
X141750000Y-105844365D01*
X141110393Y-109892702D02*
X141750000Y-109253095D01*
X140730635Y-104825000D02*
X139650000Y-104825000D01*
%TO.N,/Status LEDs/USB_CHRG*%
X121043606Y-106584583D02*
X120750000Y-106290977D01*
X120750000Y-106290977D02*
X120750000Y-105700000D01*
%TO.N,/Status LEDs/USB_PWRGD*%
X122250000Y-103800000D02*
X121550000Y-103800000D01*
X122725000Y-104275000D02*
X122250000Y-103800000D01*
D61*
%TO.N,/Solar Panel Supply/SENSE*%
X133581371Y-105100000D02*
X130250000Y-105100000D01*
X135350000Y-104175000D02*
X134506371Y-104175000D01*
X134506371Y-104175000D02*
X133581371Y-105100000D01*
X130250000Y-108087500D02*
X130250000Y-105100000D01*
D67*
%TO.N,Net-(U3-SW)*%
X114600000Y-119000000D02*
X114600000Y-116175000D01*
X114600000Y-116175000D02*
X112175000Y-113750000D01*
X112175000Y-113750000D02*
X110823500Y-113750000D01*
D61*
%TO.N,Net-(R2-Pad1)*%
X133306250Y-108087500D02*
X135131250Y-109912500D01*
X137500000Y-109912500D02*
X135350000Y-109912500D01*
X133000000Y-108087500D02*
X133306250Y-108087500D01*
X135131250Y-109912500D02*
X135350000Y-109912500D01*
%TO.N,Net-(U1-V_{FB})*%
X135350000Y-106125000D02*
X135350000Y-108087500D01*
%TO.N,Net-(SW1-C)*%
X95930000Y-100750000D02*
X97337500Y-100750000D01*
X98250000Y-104000000D02*
X98250000Y-101662500D01*
D62*
X115925000Y-120497372D02*
X115925000Y-119750000D01*
D61*
X97337500Y-100750000D02*
X98250000Y-101662500D01*
D63*
%TO.N,Net-(U4-ISET)*%
X120350000Y-102262500D02*
X120250000Y-102162500D01*
X120350000Y-103800000D02*
X120350000Y-102262500D01*
%TO.N,Net-(U4-PRE-TERM)*%
X121150000Y-103162500D02*
X122150000Y-102162500D01*
X121150000Y-103800000D02*
X121150000Y-103162500D01*
%TO.N,Net-(U4-TS)*%
X120350000Y-105700000D02*
X120350000Y-107487500D01*
X120350000Y-107487500D02*
X120250000Y-107587500D01*
%TO.N,VBAT_SOL-*%
X122787500Y-112332475D02*
X122369975Y-112750000D01*
X122787500Y-107425000D02*
X122787500Y-109500000D01*
X122787500Y-109500000D02*
X122787500Y-112332475D01*
X116000000Y-104750000D02*
X116000000Y-102801992D01*
X115523008Y-102325000D02*
X115112500Y-102325000D01*
X122369975Y-112750000D02*
X121990000Y-112750000D01*
X123000000Y-107212500D02*
X122787500Y-107425000D01*
X116000000Y-102801992D02*
X115523008Y-102325000D01*
X123000000Y-106000000D02*
X123000000Y-107212500D01*
D61*
%TO.N,VIN_REG*%
X143300000Y-100300000D02*
X144750000Y-100300000D01*
X143250000Y-100250000D02*
X143300000Y-100300000D01*
X141225000Y-103525000D02*
X139650000Y-103525000D01*
X141250000Y-103500000D02*
X141225000Y-103525000D01*
%TD*%
%TA.AperFunction,Conductor*%
%TO.N,/Solar Panel Supply/VIN*%
G36*
X142004031Y-99250530D02*
G01*
X142095879Y-99262622D01*
X142113223Y-99264906D01*
X142144491Y-99273284D01*
X142234918Y-99310740D01*
X142262952Y-99326925D01*
X142340602Y-99386509D01*
X142363491Y-99409398D01*
X142423074Y-99487048D01*
X142439259Y-99515081D01*
X142476715Y-99605508D01*
X142485093Y-99636775D01*
X142499469Y-99745964D01*
X142500000Y-99754065D01*
X142500000Y-101249993D01*
X142500001Y-101250009D01*
X142517036Y-101379408D01*
X142517038Y-101379413D01*
X142566984Y-101499995D01*
X142566984Y-101499996D01*
X142566986Y-101499999D01*
X142566987Y-101500000D01*
X142646447Y-101603553D01*
X142750000Y-101683013D01*
X142750003Y-101683014D01*
X142750004Y-101683015D01*
X142778939Y-101695000D01*
X142870590Y-101732963D01*
X143000000Y-101750000D01*
X144245933Y-101750000D01*
X144254031Y-101750530D01*
X144345879Y-101762622D01*
X144363223Y-101764906D01*
X144394491Y-101773284D01*
X144484918Y-101810740D01*
X144512952Y-101826925D01*
X144590602Y-101886509D01*
X144613491Y-101909398D01*
X144673074Y-101987048D01*
X144689259Y-102015081D01*
X144726715Y-102105508D01*
X144735093Y-102136775D01*
X144745050Y-102212401D01*
X144747040Y-102227520D01*
X144749469Y-102245964D01*
X144750000Y-102254065D01*
X144750000Y-104245934D01*
X144749469Y-104254035D01*
X144735093Y-104363224D01*
X144726715Y-104394491D01*
X144689259Y-104484918D01*
X144673074Y-104512951D01*
X144613491Y-104590601D01*
X144590601Y-104613491D01*
X144512951Y-104673074D01*
X144484918Y-104689259D01*
X144394491Y-104726715D01*
X144363224Y-104735093D01*
X144274783Y-104746737D01*
X144254031Y-104749469D01*
X144245934Y-104750000D01*
X143750000Y-104750000D01*
X143749994Y-104750000D01*
X143749990Y-104750001D01*
X143620591Y-104767036D01*
X143620586Y-104767038D01*
X143500004Y-104816984D01*
X143500003Y-104816984D01*
X143396447Y-104896447D01*
X143316984Y-105000003D01*
X143316984Y-105000004D01*
X143267038Y-105120586D01*
X143267036Y-105120591D01*
X143250001Y-105249990D01*
X143250000Y-105250006D01*
X143250000Y-105373091D01*
X143230315Y-105440130D01*
X143225878Y-105446440D01*
X143225465Y-105447156D01*
X143164956Y-105593237D01*
X143164955Y-105593239D01*
X143144318Y-105749998D01*
X143144318Y-105750001D01*
X143164955Y-105906760D01*
X143164956Y-105906762D01*
X143225462Y-106052837D01*
X143229526Y-106059875D01*
X143227987Y-106060763D01*
X143249570Y-106116589D01*
X143250000Y-106126908D01*
X143250000Y-108373091D01*
X143230315Y-108440130D01*
X143225878Y-108446440D01*
X143225465Y-108447156D01*
X143164956Y-108593237D01*
X143164955Y-108593239D01*
X143144318Y-108749998D01*
X143144318Y-108750001D01*
X143164955Y-108906760D01*
X143164956Y-108906762D01*
X143225462Y-109052837D01*
X143229526Y-109059875D01*
X143227987Y-109060763D01*
X143249570Y-109116589D01*
X143250000Y-109126908D01*
X143250000Y-109249993D01*
X143250001Y-109250009D01*
X143267036Y-109379408D01*
X143267038Y-109379413D01*
X143316984Y-109499995D01*
X143316984Y-109499996D01*
X143316986Y-109499999D01*
X143316987Y-109500000D01*
X143396447Y-109603553D01*
X143500000Y-109683013D01*
X143568628Y-109711439D01*
X143623030Y-109755279D01*
X143645096Y-109821573D01*
X143627817Y-109889272D01*
X143576681Y-109936883D01*
X143521178Y-109950000D01*
X143483304Y-109950000D01*
X143452893Y-109952851D01*
X143324854Y-109997653D01*
X143215707Y-110078207D01*
X143135153Y-110187354D01*
X143095738Y-110300000D01*
X144251000Y-110300000D01*
X144318039Y-110319685D01*
X144363794Y-110372489D01*
X144375000Y-110424000D01*
X144375000Y-111149999D01*
X144753538Y-111149999D01*
X144820577Y-111169684D01*
X144866332Y-111222488D01*
X144876276Y-111291646D01*
X144847251Y-111355202D01*
X144829024Y-111372375D01*
X144762951Y-111423074D01*
X144734918Y-111439259D01*
X144644491Y-111476715D01*
X144613224Y-111485093D01*
X144524783Y-111496737D01*
X144504031Y-111499469D01*
X144495934Y-111500000D01*
X141254066Y-111500000D01*
X141245968Y-111499469D01*
X141222457Y-111496374D01*
X141136775Y-111485093D01*
X141105508Y-111476715D01*
X141015081Y-111439259D01*
X140987048Y-111423074D01*
X140909398Y-111363491D01*
X140886508Y-111340601D01*
X140826925Y-111262951D01*
X140810740Y-111234918D01*
X140773284Y-111144491D01*
X140764906Y-111113223D01*
X140750531Y-111004035D01*
X140750000Y-110995933D01*
X140750000Y-110675000D01*
X141475800Y-110675000D01*
X141490299Y-110766559D01*
X141549622Y-110882984D01*
X141549625Y-110882989D01*
X141642010Y-110975374D01*
X141642015Y-110975377D01*
X141758440Y-111034700D01*
X141775000Y-111037322D01*
X141775000Y-110675000D01*
X142225000Y-110675000D01*
X142225000Y-111037322D01*
X142241559Y-111034700D01*
X142357984Y-110975377D01*
X142357989Y-110975374D01*
X142450374Y-110882989D01*
X142450377Y-110882984D01*
X142492661Y-110800000D01*
X143095738Y-110800000D01*
X143135153Y-110912645D01*
X143215707Y-111021792D01*
X143324854Y-111102346D01*
X143452897Y-111147149D01*
X143483292Y-111149999D01*
X143874999Y-111149999D01*
X143875000Y-111149998D01*
X143875000Y-110800000D01*
X143095738Y-110800000D01*
X142492661Y-110800000D01*
X142509702Y-110766555D01*
X142509702Y-110766554D01*
X142524203Y-110675000D01*
X142225000Y-110675000D01*
X141775000Y-110675000D01*
X141475800Y-110675000D01*
X140750000Y-110675000D01*
X140750000Y-110474156D01*
X140769685Y-110407117D01*
X140822489Y-110361362D01*
X140891647Y-110351418D01*
X140908934Y-110355179D01*
X141038429Y-110393201D01*
X141038431Y-110393202D01*
X141038432Y-110393202D01*
X141182355Y-110393202D01*
X141182355Y-110393201D01*
X141320446Y-110352655D01*
X141441521Y-110274845D01*
X141447629Y-110267795D01*
X141506409Y-110230022D01*
X141541341Y-110225000D01*
X141775000Y-110225000D01*
X141775000Y-109862676D01*
X142225000Y-109862676D01*
X142225000Y-110225000D01*
X142524200Y-110225000D01*
X142509700Y-110133440D01*
X142450377Y-110017015D01*
X142450374Y-110017010D01*
X142357989Y-109924625D01*
X142357984Y-109924622D01*
X142241557Y-109865299D01*
X142225000Y-109862676D01*
X141775000Y-109862676D01*
X141775000Y-109862675D01*
X141763949Y-109853237D01*
X141725756Y-109794730D01*
X141725256Y-109724862D01*
X141756797Y-109671267D01*
X141918059Y-109510005D01*
X141924532Y-109504374D01*
X141934224Y-109497054D01*
X141934228Y-109497053D01*
X141966459Y-109461695D01*
X141968367Y-109459697D01*
X141982174Y-109445892D01*
X141983684Y-109443687D01*
X141989023Y-109436946D01*
X141991368Y-109434373D01*
X142009916Y-109414028D01*
X142012417Y-109407571D01*
X142025750Y-109382279D01*
X142029657Y-109376576D01*
X142036757Y-109346389D01*
X142039296Y-109338187D01*
X142050500Y-109309268D01*
X142050500Y-109302343D01*
X142053794Y-109273951D01*
X142055379Y-109267214D01*
X142051095Y-109236503D01*
X142050500Y-109227928D01*
X142050500Y-105907204D01*
X142051095Y-105898628D01*
X142052771Y-105886605D01*
X142052773Y-105886601D01*
X142050566Y-105838856D01*
X142050500Y-105835993D01*
X142050500Y-105816524D01*
X142050499Y-105816518D01*
X142050009Y-105813898D01*
X142049016Y-105805345D01*
X142048769Y-105800000D01*
X142047585Y-105774374D01*
X142044788Y-105768041D01*
X142036332Y-105740735D01*
X142035061Y-105733932D01*
X142018738Y-105707570D01*
X142014731Y-105699967D01*
X142002207Y-105671602D01*
X142002206Y-105671601D01*
X142002206Y-105671600D01*
X141997309Y-105666703D01*
X141979563Y-105644299D01*
X141975918Y-105638412D01*
X141951172Y-105619725D01*
X141944694Y-105614088D01*
X140987557Y-104656951D01*
X140981913Y-104650465D01*
X140974591Y-104640770D01*
X140939259Y-104608560D01*
X140937208Y-104606602D01*
X140923432Y-104592826D01*
X140921221Y-104591311D01*
X140914488Y-104585978D01*
X140891568Y-104565084D01*
X140885105Y-104562580D01*
X140859827Y-104549256D01*
X140854116Y-104545344D01*
X140854113Y-104545343D01*
X140854114Y-104545343D01*
X140823937Y-104538244D01*
X140815729Y-104535703D01*
X140786808Y-104524500D01*
X140785655Y-104524500D01*
X140783634Y-104523906D01*
X140775511Y-104522388D01*
X140775664Y-104521566D01*
X140718616Y-104504815D01*
X140672861Y-104452011D01*
X140662917Y-104382853D01*
X140663182Y-104381102D01*
X140664148Y-104375000D01*
X139574000Y-104375000D01*
X139506961Y-104355315D01*
X139461206Y-104302511D01*
X139450000Y-104251000D01*
X139450000Y-104099000D01*
X139469685Y-104031961D01*
X139522489Y-103986206D01*
X139574000Y-103975000D01*
X140664148Y-103975000D01*
X140669300Y-103968968D01*
X140727807Y-103930775D01*
X140763590Y-103925500D01*
X140775999Y-103925500D01*
X140843038Y-103945185D01*
X140851485Y-103951124D01*
X140947157Y-104024535D01*
X140947158Y-104024535D01*
X140947159Y-104024536D01*
X141093238Y-104085044D01*
X141171618Y-104095363D01*
X141249999Y-104105682D01*
X141250000Y-104105682D01*
X141250001Y-104105682D01*
X141302253Y-104098802D01*
X141406762Y-104085044D01*
X141552841Y-104024536D01*
X141678282Y-103928282D01*
X141774536Y-103802841D01*
X141835044Y-103656762D01*
X141855682Y-103500000D01*
X141849099Y-103450000D01*
X142750001Y-103450000D01*
X142750001Y-104044785D01*
X142750002Y-104044808D01*
X142752908Y-104069869D01*
X142752909Y-104069873D01*
X142798211Y-104172474D01*
X142798214Y-104172479D01*
X142877520Y-104251785D01*
X142877525Y-104251788D01*
X142980123Y-104297089D01*
X143005206Y-104299999D01*
X143349999Y-104299999D01*
X143350000Y-104299998D01*
X143350000Y-103450000D01*
X143850000Y-103450000D01*
X143850000Y-104299999D01*
X144194786Y-104299999D01*
X144194808Y-104299997D01*
X144219869Y-104297091D01*
X144219873Y-104297090D01*
X144322474Y-104251788D01*
X144322479Y-104251785D01*
X144401785Y-104172479D01*
X144401788Y-104172474D01*
X144447089Y-104069877D01*
X144447089Y-104069875D01*
X144449999Y-104044794D01*
X144450000Y-104044791D01*
X144450000Y-103450000D01*
X143850000Y-103450000D01*
X143350000Y-103450000D01*
X142750001Y-103450000D01*
X141849099Y-103450000D01*
X141835044Y-103343239D01*
X141835044Y-103343238D01*
X141774536Y-103197159D01*
X141678282Y-103071718D01*
X141552841Y-102975464D01*
X141491366Y-102950000D01*
X142750000Y-102950000D01*
X143350000Y-102950000D01*
X143350000Y-102100000D01*
X143850000Y-102100000D01*
X143850000Y-102950000D01*
X144449999Y-102950000D01*
X144449999Y-102355214D01*
X144449997Y-102355191D01*
X144447091Y-102330130D01*
X144447090Y-102330126D01*
X144401788Y-102227525D01*
X144401785Y-102227520D01*
X144322479Y-102148214D01*
X144322474Y-102148211D01*
X144219876Y-102102910D01*
X144194794Y-102100000D01*
X143850000Y-102100000D01*
X143350000Y-102100000D01*
X143005214Y-102100000D01*
X143005191Y-102100002D01*
X142980130Y-102102908D01*
X142980126Y-102102909D01*
X142877525Y-102148211D01*
X142877520Y-102148214D01*
X142798214Y-102227520D01*
X142798211Y-102227525D01*
X142752910Y-102330122D01*
X142752910Y-102330124D01*
X142750000Y-102355205D01*
X142750000Y-102950000D01*
X141491366Y-102950000D01*
X141406762Y-102914956D01*
X141406760Y-102914955D01*
X141250001Y-102894318D01*
X141249999Y-102894318D01*
X141093239Y-102914955D01*
X141093237Y-102914956D01*
X140947157Y-102975464D01*
X140818191Y-103074423D01*
X140753021Y-103099617D01*
X140684577Y-103085578D01*
X140671386Y-103075000D01*
X139574000Y-103075000D01*
X139506961Y-103055315D01*
X139461206Y-103002511D01*
X139450000Y-102951000D01*
X139450000Y-102375000D01*
X139850000Y-102375000D01*
X139850000Y-102675000D01*
X140664148Y-102675000D01*
X140660166Y-102649856D01*
X140602639Y-102536953D01*
X140602636Y-102536949D01*
X140513050Y-102447363D01*
X140513046Y-102447360D01*
X140400144Y-102389833D01*
X140306486Y-102375000D01*
X139850000Y-102375000D01*
X139450000Y-102375000D01*
X138993519Y-102375000D01*
X138893395Y-102390857D01*
X138824102Y-102381900D01*
X138770651Y-102336903D01*
X138750013Y-102270151D01*
X138750000Y-102268383D01*
X138750000Y-102254066D01*
X138750531Y-102245964D01*
X138752960Y-102227520D01*
X138764906Y-102136775D01*
X138773284Y-102105508D01*
X138775565Y-102100002D01*
X138810740Y-102015079D01*
X138826923Y-101987050D01*
X138886513Y-101909392D01*
X138909392Y-101886513D01*
X138987050Y-101826923D01*
X139015079Y-101810740D01*
X139105509Y-101773283D01*
X139136775Y-101764906D01*
X139245967Y-101750530D01*
X139254067Y-101750000D01*
X139749993Y-101750000D01*
X139750000Y-101750000D01*
X139879410Y-101732963D01*
X139999995Y-101683015D01*
X139999996Y-101683015D01*
X139999996Y-101683014D01*
X140000000Y-101683013D01*
X140103553Y-101603553D01*
X140183013Y-101500000D01*
X140232963Y-101379410D01*
X140236297Y-101354083D01*
X140264563Y-101290187D01*
X140322888Y-101251716D01*
X140392752Y-101250884D01*
X140451976Y-101287957D01*
X140474591Y-101324779D01*
X140510995Y-101417095D01*
X140602351Y-101537564D01*
X140722820Y-101628920D01*
X140863472Y-101684386D01*
X140951862Y-101695000D01*
X140994916Y-101695000D01*
X140994916Y-100920000D01*
X141494916Y-100920000D01*
X141494916Y-101695000D01*
X141537970Y-101695000D01*
X141626359Y-101684386D01*
X141767011Y-101628920D01*
X141887480Y-101537564D01*
X141978836Y-101417095D01*
X142034302Y-101276443D01*
X142044916Y-101188053D01*
X142044916Y-100920000D01*
X141494916Y-100920000D01*
X140994916Y-100920000D01*
X140994916Y-99645000D01*
X141494916Y-99645000D01*
X141494916Y-100420000D01*
X142044916Y-100420000D01*
X142044916Y-100151946D01*
X142034302Y-100063556D01*
X141978836Y-99922904D01*
X141887480Y-99802435D01*
X141767011Y-99711079D01*
X141626359Y-99655613D01*
X141537970Y-99645000D01*
X141494916Y-99645000D01*
X140994916Y-99645000D01*
X140951862Y-99645000D01*
X140863472Y-99655613D01*
X140722820Y-99711079D01*
X140602351Y-99802435D01*
X140510994Y-99922906D01*
X140510993Y-99922908D01*
X140489354Y-99977781D01*
X140446448Y-100032925D01*
X140380540Y-100056118D01*
X140312556Y-100039997D01*
X140264080Y-99989680D01*
X140250000Y-99932291D01*
X140250000Y-99754066D01*
X140250531Y-99745964D01*
X140264906Y-99636776D01*
X140273284Y-99605508D01*
X140310740Y-99515081D01*
X140326923Y-99487050D01*
X140386513Y-99409392D01*
X140409392Y-99386513D01*
X140487050Y-99326923D01*
X140515079Y-99310740D01*
X140605509Y-99273283D01*
X140636775Y-99264906D01*
X140745967Y-99250530D01*
X140754067Y-99250000D01*
X141995933Y-99250000D01*
X142004031Y-99250530D01*
G37*
%TD.AperFunction*%
%TD*%
%TA.AperFunction,Conductor*%
%TO.N,USB_5V*%
G36*
X151511980Y-99002383D02*
G01*
X151571480Y-99014218D01*
X151616175Y-99032730D01*
X151656272Y-99059522D01*
X151690477Y-99093727D01*
X151717267Y-99133822D01*
X151735781Y-99178517D01*
X151739542Y-99197427D01*
X151747617Y-99238019D01*
X151750000Y-99262210D01*
X151750000Y-104285836D01*
X151730315Y-104352875D01*
X151677511Y-104398630D01*
X151609815Y-104408775D01*
X151500001Y-104394318D01*
X151499999Y-104394318D01*
X151343239Y-104414955D01*
X151343237Y-104414956D01*
X151197160Y-104475463D01*
X151071718Y-104571718D01*
X150975463Y-104697160D01*
X150914956Y-104843237D01*
X150914955Y-104843239D01*
X150894318Y-104999998D01*
X150894318Y-105000001D01*
X150914955Y-105156760D01*
X150914956Y-105156762D01*
X150975464Y-105302841D01*
X151071718Y-105428282D01*
X151197159Y-105524536D01*
X151343238Y-105585044D01*
X151390180Y-105591224D01*
X151499999Y-105605682D01*
X151500000Y-105605682D01*
X151609816Y-105591224D01*
X151678849Y-105601989D01*
X151731105Y-105648369D01*
X151750000Y-105714163D01*
X151750000Y-106285836D01*
X151730315Y-106352875D01*
X151677511Y-106398630D01*
X151609815Y-106408775D01*
X151500001Y-106394318D01*
X151499999Y-106394318D01*
X151343239Y-106414955D01*
X151343237Y-106414956D01*
X151197160Y-106475463D01*
X151071718Y-106571718D01*
X150975463Y-106697160D01*
X150914956Y-106843237D01*
X150914955Y-106843239D01*
X150894318Y-106999998D01*
X150894318Y-107000001D01*
X150914955Y-107156760D01*
X150914956Y-107156762D01*
X150975464Y-107302841D01*
X151071718Y-107428282D01*
X151197159Y-107524536D01*
X151343238Y-107585044D01*
X151390180Y-107591224D01*
X151499999Y-107605682D01*
X151500000Y-107605682D01*
X151609816Y-107591224D01*
X151678849Y-107601989D01*
X151731105Y-107648369D01*
X151750000Y-107714163D01*
X151750000Y-108285836D01*
X151730315Y-108352875D01*
X151677511Y-108398630D01*
X151609815Y-108408775D01*
X151500001Y-108394318D01*
X151499999Y-108394318D01*
X151343239Y-108414955D01*
X151343237Y-108414956D01*
X151197160Y-108475463D01*
X151071718Y-108571718D01*
X150975463Y-108697160D01*
X150914956Y-108843237D01*
X150914955Y-108843239D01*
X150894318Y-108999998D01*
X150894318Y-109000001D01*
X150914955Y-109156760D01*
X150914956Y-109156762D01*
X150975464Y-109302841D01*
X151071718Y-109428282D01*
X151197159Y-109524536D01*
X151343238Y-109585044D01*
X151390180Y-109591224D01*
X151499999Y-109605682D01*
X151500000Y-109605682D01*
X151609816Y-109591224D01*
X151678849Y-109601989D01*
X151731105Y-109648369D01*
X151750000Y-109714163D01*
X151750000Y-114987789D01*
X151747617Y-115011982D01*
X151735781Y-115071482D01*
X151717267Y-115116179D01*
X151690481Y-115156268D01*
X151656269Y-115190479D01*
X151621975Y-115213394D01*
X151616179Y-115217267D01*
X151571482Y-115235781D01*
X151537857Y-115242469D01*
X151511978Y-115247617D01*
X151487789Y-115250000D01*
X150512211Y-115250000D01*
X150488020Y-115247617D01*
X150473189Y-115244667D01*
X150428518Y-115235781D01*
X150383822Y-115217267D01*
X150343727Y-115190477D01*
X150309522Y-115156272D01*
X150282730Y-115116175D01*
X150264218Y-115071480D01*
X150252383Y-115011980D01*
X150250000Y-114987789D01*
X150250000Y-111796773D01*
X150269685Y-111729734D01*
X150271952Y-111726330D01*
X150275726Y-111720860D01*
X150275734Y-111720852D01*
X150354790Y-111570225D01*
X150395500Y-111405056D01*
X150395500Y-111234944D01*
X150354790Y-111069775D01*
X150323117Y-111009427D01*
X150275735Y-110919149D01*
X150271951Y-110913667D01*
X150250067Y-110847312D01*
X150250000Y-110843226D01*
X150250000Y-109999998D01*
X150249999Y-109999996D01*
X150230011Y-109899509D01*
X150223536Y-109875341D01*
X150205687Y-109739765D01*
X150205687Y-109739764D01*
X150147698Y-109599767D01*
X150055451Y-109479549D01*
X149935233Y-109387302D01*
X149935229Y-109387300D01*
X149852542Y-109353050D01*
X149795236Y-109329313D01*
X149781171Y-109327461D01*
X149682727Y-109314500D01*
X149682720Y-109314500D01*
X149607280Y-109314500D01*
X149607272Y-109314500D01*
X149494764Y-109329313D01*
X149494763Y-109329313D01*
X149354770Y-109387300D01*
X149354767Y-109387301D01*
X149354767Y-109387302D01*
X149301361Y-109428282D01*
X149234549Y-109479549D01*
X149142299Y-109599770D01*
X149142299Y-109599771D01*
X149132698Y-109622952D01*
X149088858Y-109677356D01*
X149022564Y-109699421D01*
X149018137Y-109699500D01*
X148154685Y-109699500D01*
X148087646Y-109679815D01*
X148051583Y-109644391D01*
X148037258Y-109622952D01*
X148032732Y-109616177D01*
X148014218Y-109571480D01*
X148002383Y-109511980D01*
X148000000Y-109487789D01*
X148000000Y-109224500D01*
X148019685Y-109157461D01*
X148072489Y-109111706D01*
X148124000Y-109100500D01*
X149164750Y-109100500D01*
X149164751Y-109100499D01*
X149179568Y-109097552D01*
X149223229Y-109088868D01*
X149223229Y-109088867D01*
X149223231Y-109088867D01*
X149289552Y-109044552D01*
X149333867Y-108978231D01*
X149333867Y-108978229D01*
X149333868Y-108978229D01*
X149345499Y-108919752D01*
X149345500Y-108919750D01*
X149345500Y-108580249D01*
X149334349Y-108524192D01*
X149334349Y-108475808D01*
X149345500Y-108419750D01*
X149345500Y-108080249D01*
X149334349Y-108024192D01*
X149334349Y-107975808D01*
X149345500Y-107919750D01*
X149345500Y-107580249D01*
X149334349Y-107524192D01*
X149334349Y-107475808D01*
X149337331Y-107460817D01*
X149369716Y-107398906D01*
X149430432Y-107364332D01*
X149500202Y-107368073D01*
X149556873Y-107408939D01*
X149557285Y-107409472D01*
X149571718Y-107428282D01*
X149697159Y-107524536D01*
X149843238Y-107585044D01*
X149890180Y-107591224D01*
X149999999Y-107605682D01*
X150000000Y-107605682D01*
X150000001Y-107605682D01*
X150052253Y-107598802D01*
X150156762Y-107585044D01*
X150302841Y-107524536D01*
X150428282Y-107428282D01*
X150524536Y-107302841D01*
X150585044Y-107156762D01*
X150605682Y-107000000D01*
X150585044Y-106843238D01*
X150524536Y-106697159D01*
X150428282Y-106571718D01*
X150302841Y-106475464D01*
X150156762Y-106414956D01*
X150156760Y-106414955D01*
X150000001Y-106394318D01*
X149999999Y-106394318D01*
X149843239Y-106414955D01*
X149843237Y-106414956D01*
X149697160Y-106475463D01*
X149693553Y-106478231D01*
X149571718Y-106571718D01*
X149571716Y-106571719D01*
X149571715Y-106571721D01*
X149557322Y-106590478D01*
X149500894Y-106631680D01*
X149431148Y-106635833D01*
X149370228Y-106601620D01*
X149337476Y-106539902D01*
X149337331Y-106539184D01*
X149334349Y-106524194D01*
X149334349Y-106475808D01*
X149345500Y-106419750D01*
X149345500Y-106080249D01*
X149334349Y-106024192D01*
X149334349Y-105975808D01*
X149345500Y-105919750D01*
X149345500Y-105580249D01*
X149334349Y-105524192D01*
X149334349Y-105475808D01*
X149345500Y-105419750D01*
X149345500Y-105080249D01*
X149345499Y-105080247D01*
X149333868Y-105021770D01*
X149333867Y-105021769D01*
X149289552Y-104955447D01*
X149223230Y-104911132D01*
X149223229Y-104911131D01*
X149164752Y-104899500D01*
X149164748Y-104899500D01*
X148124000Y-104899500D01*
X148056961Y-104879815D01*
X148011206Y-104827011D01*
X148000000Y-104775500D01*
X148000000Y-104512210D01*
X148002383Y-104488019D01*
X148014218Y-104428517D01*
X148032732Y-104383821D01*
X148051584Y-104355607D01*
X148105197Y-104310803D01*
X148154685Y-104300500D01*
X149018137Y-104300500D01*
X149085176Y-104320185D01*
X149130931Y-104372989D01*
X149132698Y-104377048D01*
X149142299Y-104400228D01*
X149142299Y-104400229D01*
X149142301Y-104400232D01*
X149142302Y-104400233D01*
X149234549Y-104520451D01*
X149354767Y-104612698D01*
X149494764Y-104670687D01*
X149607280Y-104685500D01*
X149607287Y-104685500D01*
X149682713Y-104685500D01*
X149682720Y-104685500D01*
X149795236Y-104670687D01*
X149935233Y-104612698D01*
X150055451Y-104520451D01*
X150147698Y-104400233D01*
X150205687Y-104260236D01*
X150223536Y-104124658D01*
X150230010Y-104100498D01*
X150249999Y-104000004D01*
X150250000Y-104000001D01*
X150250000Y-103156773D01*
X150269685Y-103089734D01*
X150271952Y-103086330D01*
X150275726Y-103080860D01*
X150275734Y-103080852D01*
X150354790Y-102930225D01*
X150395500Y-102765056D01*
X150395500Y-102594944D01*
X150354790Y-102429775D01*
X150328798Y-102380252D01*
X150275735Y-102279149D01*
X150271951Y-102273667D01*
X150250067Y-102207312D01*
X150250000Y-102203226D01*
X150250000Y-99262210D01*
X150252383Y-99238019D01*
X150264218Y-99178517D01*
X150282729Y-99133826D01*
X150309524Y-99093724D01*
X150343724Y-99059524D01*
X150383826Y-99032729D01*
X150428514Y-99014219D01*
X150488028Y-99002381D01*
X150512211Y-99000000D01*
X151487789Y-99000000D01*
X151511980Y-99002383D01*
G37*
%TD.AperFunction*%
%TD*%
%TA.AperFunction,Conductor*%
%TO.N,GND*%
G36*
X128693039Y-115019685D02*
G01*
X128738794Y-115072489D01*
X128750000Y-115124000D01*
X128750000Y-116876000D01*
X128730315Y-116943039D01*
X128677511Y-116988794D01*
X128626000Y-117000000D01*
X127124000Y-117000000D01*
X127056961Y-116980315D01*
X127011206Y-116927511D01*
X127000000Y-116876000D01*
X127000000Y-115124000D01*
X127019685Y-115056961D01*
X127072489Y-115011206D01*
X127124000Y-115000000D01*
X128626000Y-115000000D01*
X128693039Y-115019685D01*
G37*
%TD.AperFunction*%
%TD*%
%TA.AperFunction,Conductor*%
%TO.N,5V*%
G36*
X116261980Y-92252383D02*
G01*
X116276582Y-92255287D01*
X116321480Y-92264218D01*
X116366175Y-92282730D01*
X116406272Y-92309522D01*
X116440477Y-92343727D01*
X116467267Y-92383822D01*
X116485781Y-92428517D01*
X116497617Y-92488022D01*
X116500000Y-92512210D01*
X116500000Y-93350440D01*
X116480315Y-93417479D01*
X116454666Y-93446292D01*
X116433591Y-93463588D01*
X116319992Y-93602010D01*
X116302315Y-93623550D01*
X116280300Y-93664737D01*
X116204769Y-93806043D01*
X116144699Y-94004067D01*
X116124417Y-94210000D01*
X116144699Y-94415932D01*
X116174733Y-94514944D01*
X116204768Y-94613954D01*
X116302315Y-94796450D01*
X116302317Y-94796452D01*
X116433587Y-94956407D01*
X116433588Y-94956408D01*
X116433590Y-94956410D01*
X116454665Y-94973706D01*
X116493999Y-95031449D01*
X116500000Y-95069558D01*
X116500000Y-95890440D01*
X116480315Y-95957479D01*
X116454666Y-95986292D01*
X116433591Y-96003588D01*
X116302317Y-96163547D01*
X116204769Y-96346043D01*
X116144699Y-96544067D01*
X116124417Y-96749999D01*
X116144699Y-96955932D01*
X116144700Y-96955934D01*
X116204768Y-97153954D01*
X116302315Y-97336450D01*
X116302317Y-97336452D01*
X116433587Y-97496407D01*
X116433590Y-97496410D01*
X116449451Y-97509427D01*
X116454664Y-97513705D01*
X116493998Y-97571451D01*
X116499999Y-97609558D01*
X116500000Y-99285573D01*
X116480315Y-99352612D01*
X116427512Y-99398367D01*
X116392186Y-99408511D01*
X116343238Y-99414956D01*
X116343237Y-99414956D01*
X116197160Y-99475463D01*
X116071718Y-99571718D01*
X115975463Y-99697160D01*
X115914956Y-99843237D01*
X115914955Y-99843239D01*
X115894318Y-99999998D01*
X115894318Y-100000001D01*
X115914955Y-100156760D01*
X115914956Y-100156762D01*
X115967508Y-100283635D01*
X115975464Y-100302841D01*
X116071718Y-100428282D01*
X116197159Y-100524536D01*
X116343238Y-100585044D01*
X116392185Y-100591487D01*
X116456080Y-100619752D01*
X116494552Y-100678076D01*
X116500000Y-100714426D01*
X116500000Y-102602603D01*
X116480315Y-102669642D01*
X116427511Y-102715397D01*
X116358353Y-102725341D01*
X116294797Y-102696316D01*
X116262565Y-102652688D01*
X116252207Y-102629229D01*
X116252206Y-102629228D01*
X116252206Y-102629227D01*
X116247309Y-102624330D01*
X116229563Y-102601926D01*
X116225918Y-102596039D01*
X116201172Y-102577352D01*
X116194694Y-102571715D01*
X115856975Y-102233996D01*
X115825005Y-102178868D01*
X115822707Y-102170424D01*
X115822707Y-102170420D01*
X115802571Y-102124817D01*
X115779216Y-102071922D01*
X115777954Y-102070080D01*
X115776689Y-102066200D01*
X115774574Y-102061409D01*
X115775058Y-102061195D01*
X115756305Y-102003649D01*
X115774008Y-101936060D01*
X115777954Y-101929920D01*
X115779211Y-101928082D01*
X115779215Y-101928079D01*
X115822707Y-101829580D01*
X115825500Y-101805505D01*
X115825499Y-101544496D01*
X115822707Y-101520420D01*
X115822705Y-101520415D01*
X115779216Y-101421922D01*
X115777954Y-101420080D01*
X115776689Y-101416200D01*
X115774574Y-101411409D01*
X115775058Y-101411195D01*
X115756305Y-101353649D01*
X115774008Y-101286060D01*
X115777954Y-101279920D01*
X115779211Y-101278082D01*
X115779215Y-101278079D01*
X115822707Y-101179580D01*
X115825500Y-101155505D01*
X115825499Y-100894496D01*
X115822707Y-100870420D01*
X115798175Y-100814860D01*
X115779218Y-100771926D01*
X115779216Y-100771923D01*
X115779215Y-100771921D01*
X115703079Y-100695785D01*
X115645251Y-100670251D01*
X115604581Y-100652293D01*
X115580508Y-100649500D01*
X114724499Y-100649500D01*
X114657460Y-100629815D01*
X114611705Y-100577011D01*
X114600499Y-100525504D01*
X114600499Y-99669496D01*
X114597707Y-99645420D01*
X114577646Y-99599986D01*
X114554218Y-99546926D01*
X114554216Y-99546923D01*
X114554215Y-99546921D01*
X114478079Y-99470785D01*
X114446561Y-99456868D01*
X114379581Y-99427293D01*
X114355508Y-99424500D01*
X114097385Y-99424500D01*
X114030346Y-99404815D01*
X113984591Y-99352011D01*
X113978801Y-99332799D01*
X113978516Y-99332892D01*
X113968654Y-99302541D01*
X113964112Y-99283619D01*
X113960647Y-99261744D01*
X113960646Y-99261743D01*
X113960646Y-99261739D01*
X113950584Y-99241992D01*
X113943140Y-99224019D01*
X113941160Y-99217926D01*
X113936296Y-99202954D01*
X113923274Y-99185030D01*
X113913108Y-99168441D01*
X113903050Y-99148701D01*
X113882398Y-99128049D01*
X113882380Y-99128029D01*
X112697244Y-97942893D01*
X112697213Y-97942864D01*
X112676299Y-97921950D01*
X112676298Y-97921949D01*
X112656557Y-97911890D01*
X112639971Y-97901726D01*
X112622047Y-97888703D01*
X112616687Y-97885973D01*
X112565890Y-97838000D01*
X112549093Y-97770179D01*
X112571629Y-97704044D01*
X112614524Y-97666130D01*
X112686450Y-97627685D01*
X112846410Y-97496410D01*
X112977685Y-97336450D01*
X113075232Y-97153954D01*
X113135300Y-96955934D01*
X113155583Y-96750000D01*
X113155583Y-96749999D01*
X113584417Y-96749999D01*
X113604699Y-96955932D01*
X113604700Y-96955934D01*
X113664768Y-97153954D01*
X113762315Y-97336450D01*
X113762317Y-97336452D01*
X113893589Y-97496410D01*
X113959510Y-97550509D01*
X114053550Y-97627685D01*
X114236046Y-97725232D01*
X114434066Y-97785300D01*
X114434065Y-97785300D01*
X114452529Y-97787118D01*
X114640000Y-97805583D01*
X114845934Y-97785300D01*
X115043954Y-97725232D01*
X115226450Y-97627685D01*
X115386410Y-97496410D01*
X115517685Y-97336450D01*
X115615232Y-97153954D01*
X115675300Y-96955934D01*
X115695583Y-96750000D01*
X115675300Y-96544066D01*
X115615232Y-96346046D01*
X115517685Y-96163550D01*
X115465702Y-96100209D01*
X115386410Y-96003589D01*
X115268677Y-95906969D01*
X115226450Y-95872315D01*
X115043954Y-95774768D01*
X114845934Y-95714700D01*
X114845932Y-95714699D01*
X114845934Y-95714699D01*
X114658463Y-95696235D01*
X114640000Y-95694417D01*
X114639999Y-95694417D01*
X114434067Y-95714699D01*
X114236043Y-95774769D01*
X114148114Y-95821769D01*
X114053550Y-95872315D01*
X114053548Y-95872316D01*
X114053547Y-95872317D01*
X113893589Y-96003589D01*
X113762317Y-96163547D01*
X113664769Y-96346043D01*
X113604699Y-96544067D01*
X113584417Y-96749999D01*
X113155583Y-96749999D01*
X113135300Y-96544066D01*
X113075232Y-96346046D01*
X112977685Y-96163550D01*
X112925702Y-96100209D01*
X112846410Y-96003589D01*
X112728677Y-95906969D01*
X112686450Y-95872315D01*
X112503954Y-95774768D01*
X112305934Y-95714700D01*
X112305932Y-95714699D01*
X112305934Y-95714699D01*
X112100000Y-95694417D01*
X111894067Y-95714699D01*
X111696043Y-95774769D01*
X111608114Y-95821769D01*
X111513550Y-95872315D01*
X111513548Y-95872316D01*
X111513547Y-95872317D01*
X111353589Y-96003589D01*
X111222317Y-96163547D01*
X111124769Y-96346043D01*
X111064699Y-96544067D01*
X111044417Y-96749999D01*
X111064699Y-96955932D01*
X111064700Y-96955934D01*
X111124768Y-97153954D01*
X111222315Y-97336450D01*
X111222317Y-97336452D01*
X111353587Y-97496407D01*
X111353588Y-97496408D01*
X111353590Y-97496410D01*
X111513550Y-97627685D01*
X111513551Y-97627685D01*
X111515940Y-97629646D01*
X111555274Y-97687392D01*
X111557145Y-97757237D01*
X111520958Y-97817005D01*
X111458202Y-97847721D01*
X111437275Y-97849500D01*
X110222725Y-97849500D01*
X110155686Y-97829815D01*
X110109931Y-97777011D01*
X110099987Y-97707853D01*
X110129012Y-97644297D01*
X110144060Y-97629646D01*
X110146448Y-97627685D01*
X110146450Y-97627685D01*
X110306410Y-97496410D01*
X110437685Y-97336450D01*
X110535232Y-97153954D01*
X110595300Y-96955934D01*
X110615583Y-96750000D01*
X110595300Y-96544066D01*
X110535232Y-96346046D01*
X110437685Y-96163550D01*
X110385702Y-96100209D01*
X110306410Y-96003589D01*
X110188677Y-95906969D01*
X110146450Y-95872315D01*
X109963954Y-95774768D01*
X109765934Y-95714700D01*
X109765932Y-95714699D01*
X109765934Y-95714699D01*
X109560000Y-95694417D01*
X109354067Y-95714699D01*
X109156043Y-95774769D01*
X109068114Y-95821769D01*
X108973550Y-95872315D01*
X108973548Y-95872316D01*
X108973547Y-95872317D01*
X108813589Y-96003589D01*
X108682317Y-96163547D01*
X108584769Y-96346043D01*
X108524699Y-96544067D01*
X108504417Y-96750000D01*
X108524699Y-96955932D01*
X108524700Y-96955934D01*
X108584768Y-97153954D01*
X108682315Y-97336450D01*
X108682317Y-97336452D01*
X108813587Y-97496407D01*
X108813588Y-97496408D01*
X108813590Y-97496410D01*
X108973550Y-97627685D01*
X108973551Y-97627685D01*
X108975940Y-97629646D01*
X109015274Y-97687392D01*
X109017145Y-97757237D01*
X108980958Y-97817005D01*
X108918202Y-97847721D01*
X108897275Y-97849500D01*
X107682725Y-97849500D01*
X107615686Y-97829815D01*
X107569931Y-97777011D01*
X107559987Y-97707853D01*
X107589012Y-97644297D01*
X107604060Y-97629646D01*
X107606448Y-97627685D01*
X107606450Y-97627685D01*
X107766410Y-97496410D01*
X107897685Y-97336450D01*
X107995232Y-97153954D01*
X108055300Y-96955934D01*
X108075583Y-96750000D01*
X108055300Y-96544066D01*
X107995232Y-96346046D01*
X107897685Y-96163550D01*
X107845702Y-96100209D01*
X107766410Y-96003589D01*
X107648677Y-95906969D01*
X107606450Y-95872315D01*
X107423954Y-95774768D01*
X107225934Y-95714700D01*
X107225932Y-95714699D01*
X107225934Y-95714699D01*
X107020000Y-95694417D01*
X106814067Y-95714699D01*
X106616043Y-95774769D01*
X106528114Y-95821769D01*
X106433550Y-95872315D01*
X106433548Y-95872316D01*
X106433547Y-95872317D01*
X106273589Y-96003589D01*
X106142317Y-96163547D01*
X106044769Y-96346043D01*
X105984699Y-96544067D01*
X105964417Y-96750000D01*
X105984699Y-96955932D01*
X105984700Y-96955934D01*
X106044768Y-97153954D01*
X106142315Y-97336450D01*
X106142317Y-97336452D01*
X106273587Y-97496407D01*
X106273588Y-97496408D01*
X106273590Y-97496410D01*
X106433550Y-97627685D01*
X106433551Y-97627685D01*
X106435940Y-97629646D01*
X106475274Y-97687392D01*
X106477145Y-97757237D01*
X106440958Y-97817005D01*
X106378202Y-97847721D01*
X106357275Y-97849500D01*
X105738974Y-97849500D01*
X105671936Y-97829816D01*
X105610050Y-97790045D01*
X105471963Y-97749500D01*
X105471961Y-97749500D01*
X105328039Y-97749500D01*
X105274086Y-97765341D01*
X105204216Y-97765340D01*
X105145439Y-97727564D01*
X105116415Y-97664008D01*
X105126360Y-97594850D01*
X105160487Y-97550510D01*
X105226410Y-97496410D01*
X105357685Y-97336450D01*
X105455232Y-97153954D01*
X105515300Y-96955934D01*
X105535583Y-96750000D01*
X105515300Y-96544066D01*
X105455232Y-96346046D01*
X105357685Y-96163550D01*
X105305702Y-96100209D01*
X105226410Y-96003589D01*
X105108677Y-95906969D01*
X105066450Y-95872315D01*
X104883954Y-95774768D01*
X104685934Y-95714700D01*
X104685932Y-95714699D01*
X104685934Y-95714699D01*
X104480000Y-95694417D01*
X104274067Y-95714699D01*
X104076043Y-95774769D01*
X103988114Y-95821769D01*
X103893550Y-95872315D01*
X103893548Y-95872316D01*
X103893547Y-95872317D01*
X103733589Y-96003589D01*
X103602317Y-96163547D01*
X103504769Y-96346043D01*
X103444699Y-96544067D01*
X103424417Y-96749999D01*
X103444699Y-96955932D01*
X103444700Y-96955934D01*
X103504768Y-97153954D01*
X103602315Y-97336450D01*
X103602317Y-97336452D01*
X103733589Y-97496410D01*
X103893548Y-97627684D01*
X103893550Y-97627685D01*
X104013953Y-97692042D01*
X104063798Y-97741004D01*
X104079500Y-97801400D01*
X104079499Y-98782744D01*
X104059814Y-98849784D01*
X104043180Y-98870425D01*
X103440008Y-99473597D01*
X103378685Y-99507082D01*
X103368513Y-99508855D01*
X103208238Y-99529956D01*
X103208237Y-99529956D01*
X103062160Y-99590463D01*
X102936718Y-99686718D01*
X102840463Y-99812160D01*
X102779956Y-99958237D01*
X102779955Y-99958239D01*
X102759318Y-100114998D01*
X102759318Y-100115001D01*
X102779955Y-100271760D01*
X102779956Y-100271762D01*
X102829949Y-100392457D01*
X102840464Y-100417841D01*
X102936718Y-100543282D01*
X103062159Y-100639536D01*
X103208238Y-100700044D01*
X103286618Y-100710363D01*
X103364999Y-100720682D01*
X103365000Y-100720682D01*
X103365001Y-100720682D01*
X103417253Y-100713802D01*
X103521762Y-100700044D01*
X103667841Y-100639536D01*
X103793282Y-100543282D01*
X103857124Y-100460080D01*
X103913552Y-100418878D01*
X103983298Y-100414723D01*
X104044218Y-100448935D01*
X104076971Y-100510653D01*
X104079500Y-100535567D01*
X104079500Y-100867766D01*
X104077117Y-100891958D01*
X104069500Y-100930250D01*
X104069500Y-101369752D01*
X104081131Y-101428229D01*
X104081132Y-101428230D01*
X104125448Y-101494553D01*
X104128959Y-101496899D01*
X104173764Y-101550512D01*
X104182470Y-101619837D01*
X104152314Y-101682864D01*
X104128959Y-101703101D01*
X104125448Y-101705446D01*
X104081132Y-101771769D01*
X104081131Y-101771770D01*
X104069500Y-101830247D01*
X104069500Y-102269752D01*
X104081131Y-102328229D01*
X104081132Y-102328230D01*
X104125448Y-102394553D01*
X104128959Y-102396899D01*
X104173764Y-102450512D01*
X104182470Y-102519837D01*
X104152314Y-102582864D01*
X104128959Y-102603101D01*
X104125448Y-102605446D01*
X104081132Y-102671769D01*
X104081131Y-102671770D01*
X104069500Y-102730247D01*
X104069500Y-103169752D01*
X104081131Y-103228229D01*
X104081132Y-103228230D01*
X104125448Y-103294553D01*
X104128959Y-103296899D01*
X104173764Y-103350512D01*
X104182470Y-103419837D01*
X104152314Y-103482864D01*
X104128959Y-103503101D01*
X104125448Y-103505446D01*
X104081132Y-103571769D01*
X104081131Y-103571770D01*
X104069500Y-103630247D01*
X104069500Y-104069752D01*
X104081131Y-104128229D01*
X104081132Y-104128230D01*
X104125448Y-104194553D01*
X104127533Y-104196638D01*
X104130624Y-104202300D01*
X104132233Y-104204707D01*
X104132017Y-104204850D01*
X104161018Y-104257961D01*
X104156034Y-104327653D01*
X104133565Y-104365521D01*
X104054625Y-104456622D01*
X104054622Y-104456628D01*
X103994834Y-104587543D01*
X103974353Y-104730000D01*
X103994834Y-104872456D01*
X104024019Y-104936361D01*
X104054623Y-105003373D01*
X104148872Y-105112143D01*
X104269947Y-105189953D01*
X104269950Y-105189954D01*
X104269949Y-105189954D01*
X104408036Y-105230499D01*
X104408038Y-105230500D01*
X104408039Y-105230500D01*
X104551962Y-105230500D01*
X104551962Y-105230499D01*
X104690053Y-105189953D01*
X104811128Y-105112143D01*
X104905377Y-105003373D01*
X104965165Y-104872457D01*
X104985647Y-104730000D01*
X104965165Y-104587543D01*
X104905377Y-104456627D01*
X104826433Y-104365520D01*
X104797409Y-104301966D01*
X104807353Y-104232807D01*
X104832470Y-104196634D01*
X104834548Y-104194554D01*
X104834552Y-104194552D01*
X104836896Y-104191043D01*
X104890508Y-104146237D01*
X104959833Y-104137528D01*
X105022861Y-104167682D01*
X105043103Y-104191043D01*
X105045447Y-104194552D01*
X105111769Y-104238867D01*
X105111770Y-104238868D01*
X105170247Y-104250499D01*
X105170250Y-104250500D01*
X105170252Y-104250500D01*
X105629750Y-104250500D01*
X105629751Y-104250499D01*
X105651049Y-104246263D01*
X105688229Y-104238868D01*
X105688229Y-104238867D01*
X105688231Y-104238867D01*
X105754552Y-104194552D01*
X105798867Y-104128231D01*
X105798867Y-104128229D01*
X105798868Y-104128229D01*
X105810499Y-104069752D01*
X105810500Y-104069750D01*
X105810500Y-103630249D01*
X105810499Y-103630247D01*
X105798868Y-103571770D01*
X105798867Y-103571768D01*
X105779906Y-103543392D01*
X105759027Y-103476715D01*
X105777511Y-103409335D01*
X105829489Y-103362644D01*
X105883007Y-103350500D01*
X105993420Y-103350500D01*
X106060459Y-103370185D01*
X106068907Y-103376124D01*
X106071716Y-103378279D01*
X106071718Y-103378282D01*
X106197159Y-103474536D01*
X106343238Y-103535044D01*
X106406648Y-103543392D01*
X106499999Y-103555682D01*
X106500000Y-103555682D01*
X106500001Y-103555682D01*
X106593352Y-103543392D01*
X106656762Y-103535044D01*
X106802841Y-103474536D01*
X106928282Y-103378282D01*
X107024536Y-103252841D01*
X107085044Y-103106762D01*
X107105682Y-102950000D01*
X107085044Y-102793238D01*
X107024536Y-102647159D01*
X106928282Y-102521718D01*
X106802841Y-102425464D01*
X106777472Y-102414956D01*
X106656762Y-102364956D01*
X106656760Y-102364955D01*
X106500001Y-102344318D01*
X106499999Y-102344318D01*
X106343239Y-102364955D01*
X106343237Y-102364956D01*
X106197160Y-102425463D01*
X106197158Y-102425464D01*
X106197159Y-102425464D01*
X106071718Y-102521718D01*
X106071716Y-102521720D01*
X106068907Y-102523876D01*
X106003737Y-102549070D01*
X105993420Y-102549500D01*
X105883007Y-102549500D01*
X105815968Y-102529815D01*
X105770213Y-102477011D01*
X105760269Y-102407853D01*
X105779906Y-102356608D01*
X105798867Y-102328231D01*
X105798868Y-102328229D01*
X105810499Y-102269752D01*
X105810500Y-102269750D01*
X105810500Y-101830249D01*
X105810499Y-101830247D01*
X105798868Y-101771770D01*
X105798867Y-101771769D01*
X105754552Y-101705447D01*
X105751043Y-101703103D01*
X105706237Y-101649492D01*
X105697528Y-101580167D01*
X105727682Y-101517139D01*
X105751043Y-101496897D01*
X105754552Y-101494552D01*
X105765712Y-101477850D01*
X105798867Y-101428231D01*
X105798867Y-101428229D01*
X105798868Y-101428229D01*
X105810499Y-101369752D01*
X105810500Y-101369750D01*
X105810500Y-100930251D01*
X105810499Y-100930250D01*
X105802883Y-100891958D01*
X105800500Y-100867766D01*
X105800500Y-100598332D01*
X105820185Y-100531293D01*
X105820901Y-100530336D01*
X105825368Y-100523382D01*
X105825377Y-100523373D01*
X105885165Y-100392457D01*
X105905647Y-100250000D01*
X105885165Y-100107543D01*
X105825377Y-99976627D01*
X105731128Y-99867857D01*
X105610053Y-99790047D01*
X105610051Y-99790046D01*
X105610049Y-99790045D01*
X105610050Y-99790045D01*
X105471963Y-99749500D01*
X105471961Y-99749500D01*
X105328039Y-99749500D01*
X105328036Y-99749500D01*
X105189949Y-99790045D01*
X105071539Y-99866143D01*
X105004500Y-99885827D01*
X104937460Y-99866142D01*
X104891706Y-99813338D01*
X104880500Y-99761827D01*
X104880500Y-99524500D01*
X104900185Y-99457461D01*
X104952989Y-99411706D01*
X105004500Y-99400500D01*
X108451651Y-99400500D01*
X108518690Y-99420185D01*
X108564445Y-99472989D01*
X108574389Y-99542147D01*
X108550027Y-99599986D01*
X108475464Y-99697157D01*
X108414956Y-99843237D01*
X108414955Y-99843239D01*
X108394318Y-99999998D01*
X108394318Y-100000001D01*
X108414955Y-100156760D01*
X108414956Y-100156761D01*
X108438733Y-100214166D01*
X108446200Y-100283635D01*
X108414925Y-100346114D01*
X108365127Y-100378658D01*
X108312117Y-100397207D01*
X108202850Y-100477850D01*
X108122207Y-100587117D01*
X108122206Y-100587119D01*
X108077353Y-100715298D01*
X108077353Y-100715300D01*
X108074500Y-100745730D01*
X108074500Y-101354269D01*
X108077353Y-101384699D01*
X108077353Y-101384701D01*
X108116614Y-101496899D01*
X108122207Y-101512882D01*
X108202850Y-101622150D01*
X108312118Y-101702793D01*
X108347864Y-101715301D01*
X108440299Y-101747646D01*
X108470730Y-101750500D01*
X108470734Y-101750500D01*
X109118101Y-101750500D01*
X109185140Y-101770185D01*
X109205782Y-101786819D01*
X109322849Y-101903886D01*
X109338981Y-101923753D01*
X109345644Y-101933953D01*
X109365828Y-102000844D01*
X109346643Y-102068028D01*
X109329512Y-102089448D01*
X109205779Y-102213182D01*
X109144459Y-102246666D01*
X109118100Y-102249500D01*
X108470730Y-102249500D01*
X108440300Y-102252353D01*
X108440298Y-102252353D01*
X108312119Y-102297206D01*
X108312117Y-102297207D01*
X108202850Y-102377850D01*
X108122207Y-102487117D01*
X108122206Y-102487119D01*
X108077353Y-102615298D01*
X108077353Y-102615300D01*
X108074500Y-102645730D01*
X108074500Y-103254269D01*
X108077353Y-103284699D01*
X108077353Y-103284701D01*
X108120966Y-103409335D01*
X108122207Y-103412882D01*
X108202850Y-103522150D01*
X108312118Y-103602793D01*
X108347864Y-103615301D01*
X108440299Y-103647646D01*
X108470730Y-103650500D01*
X108470734Y-103650500D01*
X108500500Y-103650500D01*
X108567539Y-103670185D01*
X108613294Y-103722989D01*
X108624500Y-103774500D01*
X108624500Y-103970067D01*
X108604815Y-104037106D01*
X108575988Y-104068441D01*
X108571721Y-104071715D01*
X108571719Y-104071716D01*
X108571718Y-104071718D01*
X108514538Y-104146237D01*
X108475463Y-104197160D01*
X108414956Y-104343237D01*
X108414955Y-104343239D01*
X108394318Y-104499998D01*
X108394318Y-104500001D01*
X108414955Y-104656760D01*
X108414956Y-104656762D01*
X108453981Y-104750978D01*
X108475464Y-104802841D01*
X108571718Y-104928282D01*
X108697159Y-105024536D01*
X108843238Y-105085044D01*
X108858992Y-105087118D01*
X108999999Y-105105682D01*
X109000000Y-105105682D01*
X109000001Y-105105682D01*
X109052253Y-105098802D01*
X109156762Y-105085044D01*
X109302841Y-105024536D01*
X109428282Y-104928282D01*
X109524536Y-104802841D01*
X109585044Y-104656762D01*
X109605682Y-104500000D01*
X109585044Y-104343238D01*
X109524536Y-104197159D01*
X109428282Y-104071718D01*
X109425720Y-104069752D01*
X109424012Y-104068441D01*
X109382810Y-104012013D01*
X109375500Y-103970067D01*
X109375500Y-103774500D01*
X109395185Y-103707461D01*
X109447989Y-103661706D01*
X109499500Y-103650500D01*
X109529270Y-103650500D01*
X109559699Y-103647646D01*
X109559701Y-103647646D01*
X109628167Y-103623688D01*
X109687882Y-103602793D01*
X109797150Y-103522150D01*
X109877793Y-103412882D01*
X109900599Y-103347707D01*
X109922646Y-103284701D01*
X109922646Y-103284699D01*
X109925500Y-103254269D01*
X109925500Y-102824500D01*
X109945185Y-102757461D01*
X109997989Y-102711706D01*
X110049500Y-102700500D01*
X110454604Y-102700500D01*
X110521643Y-102720185D01*
X110567398Y-102772989D01*
X110568701Y-102782053D01*
X110584029Y-102800000D01*
X111438500Y-102800000D01*
X111505539Y-102819685D01*
X111551294Y-102872489D01*
X111562500Y-102924000D01*
X111562500Y-103026000D01*
X111542815Y-103093039D01*
X111490011Y-103138794D01*
X111438500Y-103150000D01*
X110584029Y-103150000D01*
X110589372Y-103183738D01*
X110645099Y-103293106D01*
X110645102Y-103293111D01*
X110731888Y-103379897D01*
X110731893Y-103379900D01*
X110769442Y-103399033D01*
X110820238Y-103447008D01*
X110837033Y-103514829D01*
X110814496Y-103580963D01*
X110811523Y-103585004D01*
X110725464Y-103697157D01*
X110664956Y-103843237D01*
X110664955Y-103843239D01*
X110644318Y-103999998D01*
X110644318Y-104000001D01*
X110664955Y-104156760D01*
X110664956Y-104156762D01*
X110725101Y-104301966D01*
X110725464Y-104302841D01*
X110821718Y-104428282D01*
X110947159Y-104524536D01*
X111093238Y-104585044D01*
X111170259Y-104595184D01*
X111249999Y-104605682D01*
X111250000Y-104605682D01*
X111250001Y-104605682D01*
X111302254Y-104598802D01*
X111406762Y-104585044D01*
X111552841Y-104524536D01*
X111678282Y-104428282D01*
X111713803Y-104381989D01*
X111770228Y-104340788D01*
X111839974Y-104336633D01*
X111900894Y-104370844D01*
X111925611Y-104407390D01*
X111945785Y-104453079D01*
X112021921Y-104529215D01*
X112120420Y-104572707D01*
X112144495Y-104575500D01*
X112405504Y-104575499D01*
X112429580Y-104572707D01*
X112450413Y-104563507D01*
X112519691Y-104554436D01*
X112582877Y-104584259D01*
X112619908Y-104643508D01*
X112624500Y-104676942D01*
X112624500Y-104786260D01*
X112604815Y-104853299D01*
X112594213Y-104867462D01*
X112499625Y-104976622D01*
X112499622Y-104976628D01*
X112439834Y-105107543D01*
X112419353Y-105250000D01*
X112439834Y-105392456D01*
X112499622Y-105523371D01*
X112499623Y-105523373D01*
X112593872Y-105632143D01*
X112714947Y-105709953D01*
X112714950Y-105709954D01*
X112714949Y-105709954D01*
X112822107Y-105741417D01*
X112849633Y-105749500D01*
X112853036Y-105750499D01*
X112853038Y-105750500D01*
X112853039Y-105750500D01*
X112996962Y-105750500D01*
X112996962Y-105750499D01*
X113104121Y-105719035D01*
X113135050Y-105709954D01*
X113135050Y-105709953D01*
X113135053Y-105709953D01*
X113256128Y-105632143D01*
X113350377Y-105523373D01*
X113410165Y-105392457D01*
X113415284Y-105356852D01*
X113444309Y-105293298D01*
X113503087Y-105255523D01*
X113538022Y-105250500D01*
X113646962Y-105250500D01*
X113646962Y-105250499D01*
X113785053Y-105209953D01*
X113906128Y-105132143D01*
X114000377Y-105023373D01*
X114060165Y-104892457D01*
X114080647Y-104750000D01*
X114075923Y-104717145D01*
X114085866Y-104647988D01*
X114131621Y-104595184D01*
X114198657Y-104575499D01*
X114355504Y-104575499D01*
X114379580Y-104572707D01*
X114444814Y-104543902D01*
X114514091Y-104534831D01*
X114577276Y-104564654D01*
X114614308Y-104623903D01*
X114617638Y-104674983D01*
X114607459Y-104745786D01*
X114606853Y-104750000D01*
X114606994Y-104750978D01*
X114627334Y-104892456D01*
X114665775Y-104976628D01*
X114687123Y-105023373D01*
X114781372Y-105132143D01*
X114902447Y-105209953D01*
X114902450Y-105209954D01*
X114902449Y-105209954D01*
X114972421Y-105230499D01*
X115038836Y-105250000D01*
X115040536Y-105250499D01*
X115040538Y-105250500D01*
X115040539Y-105250500D01*
X115184462Y-105250500D01*
X115184462Y-105250499D01*
X115322553Y-105209953D01*
X115443628Y-105132143D01*
X115462537Y-105110319D01*
X115521313Y-105072546D01*
X115591183Y-105072544D01*
X115649960Y-105110317D01*
X115668872Y-105132143D01*
X115789947Y-105209953D01*
X115789950Y-105209954D01*
X115789949Y-105209954D01*
X115859921Y-105230499D01*
X115926336Y-105250000D01*
X115928036Y-105250499D01*
X115928038Y-105250500D01*
X116042353Y-105250500D01*
X116109392Y-105270185D01*
X116155147Y-105322989D01*
X116165292Y-105390685D01*
X116144318Y-105549998D01*
X116144318Y-105550001D01*
X116164955Y-105706760D01*
X116164956Y-105706762D01*
X116203914Y-105800816D01*
X116225464Y-105852841D01*
X116308559Y-105961133D01*
X116321719Y-105978283D01*
X116366810Y-106012882D01*
X116443554Y-106071770D01*
X116451486Y-106077856D01*
X116492689Y-106134284D01*
X116500000Y-106176232D01*
X116499999Y-106737789D01*
X116497616Y-106761980D01*
X116485781Y-106821480D01*
X116467267Y-106866179D01*
X116440481Y-106906268D01*
X116406269Y-106940479D01*
X116371975Y-106963394D01*
X116366179Y-106967267D01*
X116321482Y-106985781D01*
X116287857Y-106992469D01*
X116261978Y-106997617D01*
X116237789Y-107000000D01*
X108465875Y-107000000D01*
X108398836Y-106980315D01*
X108353081Y-106927511D01*
X108342655Y-106889883D01*
X108334878Y-106820862D01*
X108334877Y-106820858D01*
X108275337Y-106650701D01*
X108275335Y-106650697D01*
X108266660Y-106636891D01*
X107903552Y-107000000D01*
X107800000Y-107000000D01*
X107704329Y-107019030D01*
X107623223Y-107073223D01*
X107569030Y-107154329D01*
X107550000Y-107250000D01*
X107550000Y-107353553D01*
X107186891Y-107716660D01*
X107200697Y-107725335D01*
X107200701Y-107725337D01*
X107370858Y-107784877D01*
X107370861Y-107784878D01*
X107439883Y-107792655D01*
X107504296Y-107819721D01*
X107543852Y-107877316D01*
X107549999Y-107915875D01*
X107550000Y-108181387D01*
X107530316Y-108248426D01*
X107477512Y-108294181D01*
X107455675Y-108301784D01*
X107299773Y-108340210D01*
X107149150Y-108419263D01*
X107021816Y-108532072D01*
X106925182Y-108672068D01*
X106864860Y-108831125D01*
X106864859Y-108831130D01*
X106844355Y-109000000D01*
X106864859Y-109168869D01*
X106864860Y-109168874D01*
X106925182Y-109327931D01*
X106964605Y-109385044D01*
X107021817Y-109467929D01*
X107107728Y-109544040D01*
X107144853Y-109603226D01*
X107149500Y-109636853D01*
X107149500Y-109993419D01*
X107129815Y-110060458D01*
X107123876Y-110068905D01*
X107025464Y-110197157D01*
X106964956Y-110343237D01*
X106964955Y-110343239D01*
X106944318Y-110499998D01*
X106944318Y-110500001D01*
X106964955Y-110656760D01*
X106964956Y-110656762D01*
X106993296Y-110725182D01*
X107025464Y-110802841D01*
X107121718Y-110928282D01*
X107247159Y-111024536D01*
X107393238Y-111085044D01*
X107442185Y-111091487D01*
X107506080Y-111119752D01*
X107544552Y-111178076D01*
X107549999Y-111214426D01*
X107550000Y-121487789D01*
X107547617Y-121511982D01*
X107535781Y-121571482D01*
X107517267Y-121616179D01*
X107490481Y-121656268D01*
X107456269Y-121690479D01*
X107447834Y-121696116D01*
X107416179Y-121717267D01*
X107371482Y-121735781D01*
X107337857Y-121742469D01*
X107311978Y-121747617D01*
X107287789Y-121750000D01*
X97874303Y-121750000D01*
X97807264Y-121730315D01*
X97761509Y-121677511D01*
X97751565Y-121608353D01*
X97780590Y-121544797D01*
X97798816Y-121527624D01*
X97802839Y-121524536D01*
X97802841Y-121524536D01*
X97928282Y-121428282D01*
X98024536Y-121302841D01*
X98085044Y-121156762D01*
X98105682Y-121000000D01*
X98105216Y-120996464D01*
X98085044Y-120843239D01*
X98085044Y-120843238D01*
X98024536Y-120697159D01*
X97928282Y-120571718D01*
X97802841Y-120475464D01*
X97661841Y-120417060D01*
X97656762Y-120414956D01*
X97656760Y-120414955D01*
X97500001Y-120394318D01*
X97499999Y-120394318D01*
X97343239Y-120414955D01*
X97335387Y-120417060D01*
X97334708Y-120414527D01*
X97278153Y-120420603D01*
X97215676Y-120389324D01*
X97180028Y-120329232D01*
X97182528Y-120259407D01*
X97199051Y-120226818D01*
X97214208Y-120205456D01*
X97214211Y-120205452D01*
X97388094Y-119890833D01*
X97446429Y-119750000D01*
X105212500Y-119750000D01*
X105212500Y-120618053D01*
X105223113Y-120706443D01*
X105278579Y-120847095D01*
X105369935Y-120967564D01*
X105490404Y-121058920D01*
X105631056Y-121114386D01*
X105719446Y-121125000D01*
X105825000Y-121125000D01*
X105825000Y-119750000D01*
X106325000Y-119750000D01*
X106325000Y-121125000D01*
X106430554Y-121125000D01*
X106518943Y-121114386D01*
X106659595Y-121058920D01*
X106780064Y-120967564D01*
X106871420Y-120847095D01*
X106926886Y-120706443D01*
X106937499Y-120618053D01*
X106937500Y-119750000D01*
X106325000Y-119750000D01*
X105825000Y-119750000D01*
X105212500Y-119750000D01*
X97446429Y-119750000D01*
X97525659Y-119558724D01*
X97614600Y-119250000D01*
X105212500Y-119250000D01*
X105825000Y-119250000D01*
X105825000Y-117875000D01*
X106325000Y-117875000D01*
X106325000Y-119250000D01*
X106937500Y-119250000D01*
X106937499Y-118381946D01*
X106926886Y-118293556D01*
X106871420Y-118152904D01*
X106780064Y-118032435D01*
X106659595Y-117941079D01*
X106518943Y-117885613D01*
X106430554Y-117875000D01*
X106325000Y-117875000D01*
X105825000Y-117875000D01*
X105719446Y-117875000D01*
X105631056Y-117885613D01*
X105490404Y-117941079D01*
X105369935Y-118032435D01*
X105278579Y-118152904D01*
X105223113Y-118293556D01*
X105212500Y-118381946D01*
X105212500Y-119250000D01*
X97614600Y-119250000D01*
X97625173Y-119213300D01*
X97685387Y-118858907D01*
X97705543Y-118500000D01*
X97685387Y-118141093D01*
X97625173Y-117786700D01*
X97525659Y-117441276D01*
X97388094Y-117109167D01*
X97327760Y-117000001D01*
X104894318Y-117000001D01*
X104914955Y-117156760D01*
X104914956Y-117156762D01*
X104975464Y-117302841D01*
X105071718Y-117428282D01*
X105197159Y-117524536D01*
X105343238Y-117585044D01*
X105358992Y-117587118D01*
X105499999Y-117605682D01*
X105500000Y-117605682D01*
X105500001Y-117605682D01*
X105559361Y-117597867D01*
X105656762Y-117585044D01*
X105802841Y-117524536D01*
X105928282Y-117428282D01*
X106024536Y-117302841D01*
X106085044Y-117156762D01*
X106105682Y-117000000D01*
X106085044Y-116843238D01*
X106024536Y-116697159D01*
X105928282Y-116571718D01*
X105802841Y-116475464D01*
X105793797Y-116471718D01*
X105656762Y-116414956D01*
X105656760Y-116414955D01*
X105500001Y-116394318D01*
X105499999Y-116394318D01*
X105343239Y-116414955D01*
X105343237Y-116414956D01*
X105197160Y-116475463D01*
X105071718Y-116571718D01*
X104975463Y-116697160D01*
X104914956Y-116843237D01*
X104914955Y-116843239D01*
X104894318Y-116999998D01*
X104894318Y-117000001D01*
X97327760Y-117000001D01*
X97214211Y-116794548D01*
X97177804Y-116743238D01*
X97006194Y-116501377D01*
X96979689Y-116471718D01*
X96766661Y-116233339D01*
X96505555Y-116000001D01*
X97394318Y-116000001D01*
X97414955Y-116156760D01*
X97414956Y-116156762D01*
X97471933Y-116294318D01*
X97475464Y-116302841D01*
X97571718Y-116428282D01*
X97697159Y-116524536D01*
X97843238Y-116585044D01*
X97921618Y-116595362D01*
X97999999Y-116605682D01*
X98000000Y-116605682D01*
X98000001Y-116605682D01*
X98064739Y-116597159D01*
X98156762Y-116585044D01*
X98302841Y-116524536D01*
X98428282Y-116428282D01*
X98524536Y-116302841D01*
X98585044Y-116156762D01*
X98605682Y-116000000D01*
X98604866Y-115993805D01*
X98585044Y-115843239D01*
X98585044Y-115843238D01*
X98524536Y-115697159D01*
X98428282Y-115571718D01*
X98302841Y-115475464D01*
X98156762Y-115414956D01*
X98156760Y-115414955D01*
X98000001Y-115394318D01*
X97999999Y-115394318D01*
X97843239Y-115414955D01*
X97843237Y-115414956D01*
X97697160Y-115475463D01*
X97571718Y-115571718D01*
X97475463Y-115697160D01*
X97414956Y-115843237D01*
X97414955Y-115843239D01*
X97394318Y-115999998D01*
X97394318Y-116000001D01*
X96505555Y-116000001D01*
X96498623Y-115993806D01*
X96492680Y-115989589D01*
X96205454Y-115785790D01*
X96045087Y-115697159D01*
X95890833Y-115611906D01*
X95558724Y-115474341D01*
X95558720Y-115474339D01*
X95558718Y-115474339D01*
X95213305Y-115374828D01*
X95213296Y-115374826D01*
X94858914Y-115314614D01*
X94858902Y-115314612D01*
X94693262Y-115305310D01*
X94589798Y-115299500D01*
X94410202Y-115299500D01*
X94311482Y-115305044D01*
X94141097Y-115314612D01*
X94141085Y-115314614D01*
X93786703Y-115374826D01*
X93786694Y-115374828D01*
X93441281Y-115474339D01*
X93109168Y-115611905D01*
X92794545Y-115785790D01*
X92501377Y-115993805D01*
X92233339Y-116233339D01*
X91993805Y-116501377D01*
X91785790Y-116794545D01*
X91611905Y-117109168D01*
X91488561Y-117406946D01*
X91444720Y-117461349D01*
X91378426Y-117483414D01*
X91310726Y-117466135D01*
X91263116Y-117414997D01*
X91250000Y-117359493D01*
X91250000Y-114865762D01*
X91252381Y-114841581D01*
X91264219Y-114782067D01*
X91282728Y-114737379D01*
X91315020Y-114689051D01*
X91330426Y-114670279D01*
X92488802Y-113511903D01*
X92500381Y-113500384D01*
X92500381Y-113500383D01*
X92500383Y-113500383D01*
X92500500Y-113500099D01*
X92500500Y-113500098D01*
X92500541Y-113500000D01*
X92500539Y-113499997D01*
X92500584Y-113475664D01*
X92500500Y-113475240D01*
X92500500Y-113373007D01*
X92520185Y-113305968D01*
X92572989Y-113260213D01*
X92642147Y-113250269D01*
X92693392Y-113269906D01*
X92721768Y-113288867D01*
X92721770Y-113288868D01*
X92780247Y-113300499D01*
X92780250Y-113300500D01*
X92780252Y-113300500D01*
X94019750Y-113300500D01*
X94019751Y-113300499D01*
X94034568Y-113297552D01*
X94078229Y-113288868D01*
X94078229Y-113288867D01*
X94078231Y-113288867D01*
X94144552Y-113244552D01*
X94188867Y-113178231D01*
X94188867Y-113178229D01*
X94188868Y-113178229D01*
X94200499Y-113119752D01*
X94200500Y-113119750D01*
X94200500Y-112480249D01*
X94200499Y-112480247D01*
X94188868Y-112421770D01*
X94188867Y-112421769D01*
X94144552Y-112355447D01*
X94078230Y-112311132D01*
X94078229Y-112311131D01*
X94019752Y-112299500D01*
X94019748Y-112299500D01*
X92780252Y-112299500D01*
X92780247Y-112299500D01*
X92721770Y-112311131D01*
X92721770Y-112311132D01*
X92693390Y-112330095D01*
X92626713Y-112350972D01*
X92559333Y-112332487D01*
X92512643Y-112280508D01*
X92500500Y-112226992D01*
X92500500Y-109735055D01*
X93299500Y-109735055D01*
X93340210Y-109900226D01*
X93419263Y-110050849D01*
X93444635Y-110079488D01*
X93532071Y-110178183D01*
X93622318Y-110240476D01*
X93672068Y-110274817D01*
X93672069Y-110274817D01*
X93672070Y-110274818D01*
X93831128Y-110335140D01*
X93897821Y-110343238D01*
X93957626Y-110350500D01*
X93957628Y-110350500D01*
X94042374Y-110350500D01*
X94084538Y-110345380D01*
X94168872Y-110335140D01*
X94327930Y-110274818D01*
X94467929Y-110178183D01*
X94580734Y-110050852D01*
X94580972Y-110050400D01*
X94659789Y-109900226D01*
X94659790Y-109900225D01*
X94700500Y-109735056D01*
X94700500Y-109564944D01*
X94696172Y-109547383D01*
X94699240Y-109477581D01*
X94739559Y-109420518D01*
X94804328Y-109394313D01*
X94872983Y-109407284D01*
X94885460Y-109414606D01*
X94921768Y-109438867D01*
X94921770Y-109438868D01*
X94980247Y-109450499D01*
X94980250Y-109450500D01*
X94980252Y-109450500D01*
X95819750Y-109450500D01*
X95819751Y-109450499D01*
X95834568Y-109447552D01*
X95878229Y-109438868D01*
X95878229Y-109438867D01*
X95878231Y-109438867D01*
X95944552Y-109394552D01*
X95987543Y-109330211D01*
X96041155Y-109285407D01*
X96110480Y-109276700D01*
X96166132Y-109300728D01*
X96197157Y-109324535D01*
X96197158Y-109324535D01*
X96197159Y-109324536D01*
X96343238Y-109385044D01*
X96415459Y-109394552D01*
X96499999Y-109405682D01*
X96500000Y-109405682D01*
X96500001Y-109405682D01*
X96584541Y-109394552D01*
X96656762Y-109385044D01*
X96802841Y-109324536D01*
X96928282Y-109228282D01*
X97024536Y-109102841D01*
X97085044Y-108956762D01*
X97105682Y-108800000D01*
X97102128Y-108773007D01*
X97088840Y-108672070D01*
X97085044Y-108643238D01*
X97024536Y-108497159D01*
X96928282Y-108371718D01*
X96802841Y-108275464D01*
X96793920Y-108271769D01*
X96656762Y-108214956D01*
X96656760Y-108214955D01*
X96500001Y-108194318D01*
X96499999Y-108194318D01*
X96343239Y-108214955D01*
X96343237Y-108214956D01*
X96197157Y-108275464D01*
X96166131Y-108299272D01*
X96100962Y-108324466D01*
X96032517Y-108310427D01*
X95987543Y-108269787D01*
X95944552Y-108205447D01*
X95878230Y-108161132D01*
X95878229Y-108161131D01*
X95819752Y-108149500D01*
X95819748Y-108149500D01*
X94980252Y-108149500D01*
X94980247Y-108149500D01*
X94921770Y-108161131D01*
X94921769Y-108161132D01*
X94855447Y-108205447D01*
X94811132Y-108271769D01*
X94811131Y-108271770D01*
X94799500Y-108330247D01*
X94799500Y-109169122D01*
X94779815Y-109236161D01*
X94727011Y-109281916D01*
X94657853Y-109291860D01*
X94594297Y-109262835D01*
X94582685Y-109251349D01*
X94467930Y-109121818D01*
X94467927Y-109121816D01*
X94424566Y-109091885D01*
X94327931Y-109025182D01*
X94168874Y-108964860D01*
X94168868Y-108964859D01*
X94042374Y-108949500D01*
X94042372Y-108949500D01*
X93957628Y-108949500D01*
X93957626Y-108949500D01*
X93831131Y-108964859D01*
X93831125Y-108964860D01*
X93672068Y-109025182D01*
X93532072Y-109121816D01*
X93419263Y-109249150D01*
X93340210Y-109399773D01*
X93299500Y-109564944D01*
X93299500Y-109735055D01*
X92500500Y-109735055D01*
X92500500Y-108773007D01*
X92520185Y-108705968D01*
X92572989Y-108660213D01*
X92642147Y-108650269D01*
X92693392Y-108669906D01*
X92721768Y-108688867D01*
X92721770Y-108688868D01*
X92780247Y-108700499D01*
X92780250Y-108700500D01*
X92780252Y-108700500D01*
X94019750Y-108700500D01*
X94019751Y-108700499D01*
X94034568Y-108697552D01*
X94078229Y-108688868D01*
X94078229Y-108688867D01*
X94078231Y-108688867D01*
X94144552Y-108644552D01*
X94188867Y-108578231D01*
X94188867Y-108578229D01*
X94188868Y-108578229D01*
X94200499Y-108519752D01*
X94200500Y-108519750D01*
X94200500Y-107880249D01*
X94200499Y-107880247D01*
X94188868Y-107821770D01*
X94188867Y-107821769D01*
X94144552Y-107755447D01*
X94078230Y-107711132D01*
X94078229Y-107711131D01*
X94019752Y-107699500D01*
X94019748Y-107699500D01*
X92780252Y-107699500D01*
X92780247Y-107699500D01*
X92721770Y-107711131D01*
X92721770Y-107711132D01*
X92693390Y-107730095D01*
X92626713Y-107750972D01*
X92559333Y-107732487D01*
X92512643Y-107680508D01*
X92500500Y-107626992D01*
X92500500Y-107471807D01*
X92520185Y-107404768D01*
X92572989Y-107359013D01*
X92642147Y-107349069D01*
X92648690Y-107350189D01*
X92650252Y-107350500D01*
X93489750Y-107350500D01*
X93489751Y-107350499D01*
X93504568Y-107347552D01*
X93548229Y-107338868D01*
X93548229Y-107338867D01*
X93548231Y-107338867D01*
X93614552Y-107294552D01*
X93658867Y-107228231D01*
X93658867Y-107228229D01*
X93658868Y-107228229D01*
X93670499Y-107169752D01*
X93670500Y-107169750D01*
X93670500Y-106130249D01*
X93670499Y-106130247D01*
X93658868Y-106071770D01*
X93658867Y-106071769D01*
X93614552Y-106005447D01*
X93548230Y-105961132D01*
X93548229Y-105961131D01*
X93489752Y-105949500D01*
X93489748Y-105949500D01*
X92650252Y-105949500D01*
X92650247Y-105949500D01*
X92648679Y-105949812D01*
X92647842Y-105949737D01*
X92644187Y-105950097D01*
X92644118Y-105949403D01*
X92579088Y-105943577D01*
X92523915Y-105900708D01*
X92500677Y-105834816D01*
X92500500Y-105828192D01*
X92500500Y-100522662D01*
X92500539Y-100500002D01*
X92500541Y-100500000D01*
X92500540Y-100499997D01*
X92500500Y-100499899D01*
X92500384Y-100499619D01*
X92500383Y-100499618D01*
X92500383Y-100499617D01*
X92500381Y-100499616D01*
X92483252Y-100482430D01*
X92482903Y-100482196D01*
X91330432Y-99329724D01*
X91315016Y-99310940D01*
X91282730Y-99262621D01*
X91264218Y-99217926D01*
X91252383Y-99158427D01*
X91250000Y-99134236D01*
X91250000Y-98874302D01*
X91269685Y-98807263D01*
X91322489Y-98761508D01*
X91391647Y-98751564D01*
X91455203Y-98780589D01*
X91472376Y-98798816D01*
X91475463Y-98802839D01*
X91475464Y-98802841D01*
X91496495Y-98830249D01*
X91544228Y-98892457D01*
X91571718Y-98928282D01*
X91697159Y-99024536D01*
X91843238Y-99085044D01*
X91921619Y-99095363D01*
X91999999Y-99105682D01*
X92000000Y-99105682D01*
X92000001Y-99105682D01*
X92052254Y-99098802D01*
X92156762Y-99085044D01*
X92298049Y-99026520D01*
X92367516Y-99019052D01*
X92429996Y-99050327D01*
X92465648Y-99110416D01*
X92469500Y-99141082D01*
X92469500Y-99869752D01*
X92481131Y-99928229D01*
X92481132Y-99928230D01*
X92525447Y-99994552D01*
X92591769Y-100038867D01*
X92591770Y-100038868D01*
X92650247Y-100050499D01*
X92650250Y-100050500D01*
X92650252Y-100050500D01*
X93489750Y-100050500D01*
X93489751Y-100050499D01*
X93504568Y-100047552D01*
X93548229Y-100038868D01*
X93548229Y-100038867D01*
X93548231Y-100038867D01*
X93614552Y-99994552D01*
X93658867Y-99928231D01*
X93658867Y-99928229D01*
X93658868Y-99928229D01*
X93670499Y-99869752D01*
X93670500Y-99869750D01*
X93670500Y-98830249D01*
X93659344Y-98774166D01*
X93665571Y-98704574D01*
X93708434Y-98649397D01*
X93774323Y-98626152D01*
X93801722Y-98627725D01*
X94141093Y-98685387D01*
X94410202Y-98700500D01*
X94410210Y-98700500D01*
X94555500Y-98700500D01*
X94622539Y-98720185D01*
X94668294Y-98772989D01*
X94679500Y-98824500D01*
X94679500Y-99869752D01*
X94691131Y-99928229D01*
X94691132Y-99928230D01*
X94735447Y-99994552D01*
X94801769Y-100038867D01*
X94801770Y-100038868D01*
X94860247Y-100050499D01*
X94860250Y-100050500D01*
X94941033Y-100050500D01*
X95008072Y-100070185D01*
X95053827Y-100122989D01*
X95063771Y-100192147D01*
X95040139Y-100243893D01*
X95042233Y-100245293D01*
X94991132Y-100321769D01*
X94991131Y-100321770D01*
X94979500Y-100380247D01*
X94979500Y-101032642D01*
X94959815Y-101099681D01*
X94907011Y-101145436D01*
X94837853Y-101155380D01*
X94774297Y-101126355D01*
X94753453Y-101103086D01*
X94750738Y-101099153D01*
X94750618Y-101099017D01*
X94637929Y-100971817D01*
X94552981Y-100913181D01*
X94497931Y-100875182D01*
X94338874Y-100814860D01*
X94338868Y-100814859D01*
X94212374Y-100799500D01*
X94212372Y-100799500D01*
X94127628Y-100799500D01*
X94127626Y-100799500D01*
X94001131Y-100814859D01*
X94001125Y-100814860D01*
X93842068Y-100875182D01*
X93702072Y-100971816D01*
X93589263Y-101099150D01*
X93510210Y-101249773D01*
X93484455Y-101354269D01*
X93469500Y-101414944D01*
X93469500Y-101585056D01*
X93478643Y-101622150D01*
X93510210Y-101750226D01*
X93589263Y-101900849D01*
X93589266Y-101900852D01*
X93702071Y-102028183D01*
X93790828Y-102089448D01*
X93842068Y-102124817D01*
X93842069Y-102124817D01*
X93842070Y-102124818D01*
X93949858Y-102165696D01*
X94005561Y-102207874D01*
X94029618Y-102273471D01*
X94014391Y-102341661D01*
X93964715Y-102390795D01*
X93922073Y-102404577D01*
X93843238Y-102414956D01*
X93843237Y-102414956D01*
X93697160Y-102475463D01*
X93571718Y-102571718D01*
X93475463Y-102697160D01*
X93414956Y-102843237D01*
X93414955Y-102843239D01*
X93394318Y-102999998D01*
X93394318Y-103000001D01*
X93414955Y-103156760D01*
X93414956Y-103156762D01*
X93472030Y-103294552D01*
X93475464Y-103302841D01*
X93571718Y-103428282D01*
X93697159Y-103524536D01*
X93843238Y-103585044D01*
X93922072Y-103595422D01*
X93985968Y-103623688D01*
X94024440Y-103682012D01*
X94025272Y-103751877D01*
X93988200Y-103811101D01*
X93949859Y-103834303D01*
X93842067Y-103875183D01*
X93702072Y-103971816D01*
X93589263Y-104099150D01*
X93510210Y-104249773D01*
X93478536Y-104378282D01*
X93469500Y-104414944D01*
X93469500Y-104585056D01*
X93479075Y-104623903D01*
X93510210Y-104750226D01*
X93589263Y-104900849D01*
X93589266Y-104900852D01*
X93702071Y-105028183D01*
X93792318Y-105090476D01*
X93842068Y-105124817D01*
X93842069Y-105124817D01*
X93842070Y-105124818D01*
X94001128Y-105185140D01*
X94077028Y-105194356D01*
X94127626Y-105200500D01*
X94127628Y-105200500D01*
X94212374Y-105200500D01*
X94254538Y-105195380D01*
X94338872Y-105185140D01*
X94497930Y-105124818D01*
X94637929Y-105028183D01*
X94750734Y-104900852D01*
X94750737Y-104900845D01*
X94753450Y-104896917D01*
X94807732Y-104852927D01*
X94877181Y-104845267D01*
X94939746Y-104876370D01*
X94975563Y-104936361D01*
X94979500Y-104967357D01*
X94979499Y-105619750D01*
X94979500Y-105619752D01*
X94991131Y-105678229D01*
X94991132Y-105678230D01*
X95042233Y-105754707D01*
X95039084Y-105756810D01*
X95062199Y-105799142D01*
X95057215Y-105868834D01*
X95015343Y-105924767D01*
X94949879Y-105949184D01*
X94941033Y-105949500D01*
X94860247Y-105949500D01*
X94801770Y-105961131D01*
X94801769Y-105961132D01*
X94735447Y-106005447D01*
X94691132Y-106071769D01*
X94691131Y-106071770D01*
X94679500Y-106130247D01*
X94679500Y-107169752D01*
X94691131Y-107228229D01*
X94691132Y-107228230D01*
X94735447Y-107294552D01*
X94801769Y-107338867D01*
X94801770Y-107338868D01*
X94860247Y-107350499D01*
X94860250Y-107350500D01*
X94860252Y-107350500D01*
X95699750Y-107350500D01*
X95699751Y-107350499D01*
X95714568Y-107347552D01*
X95758229Y-107338868D01*
X95758229Y-107338867D01*
X95758231Y-107338867D01*
X95824552Y-107294552D01*
X95868867Y-107228231D01*
X95868867Y-107228229D01*
X95868868Y-107228229D01*
X95880499Y-107169752D01*
X95880500Y-107169750D01*
X95880500Y-106130249D01*
X95880499Y-106130247D01*
X95868868Y-106071770D01*
X95868867Y-106071769D01*
X95817767Y-105995293D01*
X95820915Y-105993189D01*
X95797801Y-105950858D01*
X95802785Y-105881166D01*
X95844657Y-105825233D01*
X95910121Y-105800816D01*
X95918967Y-105800500D01*
X96699750Y-105800500D01*
X96699751Y-105800499D01*
X96714568Y-105797552D01*
X96758229Y-105788868D01*
X96758229Y-105788867D01*
X96758231Y-105788867D01*
X96824552Y-105744552D01*
X96868867Y-105678231D01*
X96868867Y-105678229D01*
X96868868Y-105678229D01*
X96880499Y-105619752D01*
X96880500Y-105619750D01*
X96880500Y-104880251D01*
X96879604Y-104875747D01*
X96885830Y-104806156D01*
X96928692Y-104750978D01*
X96994582Y-104727732D01*
X97062579Y-104743799D01*
X97088899Y-104763871D01*
X97848399Y-105523371D01*
X98460603Y-106135575D01*
X98494088Y-106196898D01*
X98495661Y-106240895D01*
X98494353Y-106249996D01*
X98494353Y-106249999D01*
X98514834Y-106392456D01*
X98574622Y-106523371D01*
X98574623Y-106523373D01*
X98668872Y-106632143D01*
X98789947Y-106709953D01*
X98789950Y-106709954D01*
X98789949Y-106709954D01*
X98884749Y-106737789D01*
X98924633Y-106749500D01*
X98928036Y-106750499D01*
X98928038Y-106750500D01*
X98928039Y-106750500D01*
X99071961Y-106750500D01*
X99190565Y-106715675D01*
X99260435Y-106715675D01*
X99319213Y-106753449D01*
X99348238Y-106817005D01*
X99349500Y-106834652D01*
X99349500Y-107632745D01*
X99329815Y-107699784D01*
X99313181Y-107720426D01*
X95520426Y-111513181D01*
X95459103Y-111546666D01*
X95432745Y-111549500D01*
X94980247Y-111549500D01*
X94921770Y-111561131D01*
X94921766Y-111561133D01*
X94885458Y-111585394D01*
X94818781Y-111606272D01*
X94751401Y-111587787D01*
X94704711Y-111535808D01*
X94693535Y-111466838D01*
X94696172Y-111452615D01*
X94700500Y-111435056D01*
X94700500Y-111264944D01*
X94659790Y-111099775D01*
X94655440Y-111091487D01*
X94580736Y-110949150D01*
X94561560Y-110927505D01*
X94467929Y-110821817D01*
X94418177Y-110787475D01*
X94327931Y-110725182D01*
X94168874Y-110664860D01*
X94168868Y-110664859D01*
X94042374Y-110649500D01*
X94042372Y-110649500D01*
X93957628Y-110649500D01*
X93957626Y-110649500D01*
X93831131Y-110664859D01*
X93831125Y-110664860D01*
X93672068Y-110725182D01*
X93532072Y-110821816D01*
X93419263Y-110949150D01*
X93340210Y-111099773D01*
X93340210Y-111099775D01*
X93299500Y-111264944D01*
X93299500Y-111435056D01*
X93318756Y-111513181D01*
X93340210Y-111600226D01*
X93419263Y-111750849D01*
X93419266Y-111750852D01*
X93532071Y-111878183D01*
X93622318Y-111940476D01*
X93672068Y-111974817D01*
X93672069Y-111974817D01*
X93672070Y-111974818D01*
X93831128Y-112035140D01*
X93907028Y-112044356D01*
X93957626Y-112050500D01*
X93957628Y-112050500D01*
X94042374Y-112050500D01*
X94084538Y-112045380D01*
X94168872Y-112035140D01*
X94327930Y-111974818D01*
X94467929Y-111878183D01*
X94580734Y-111750852D01*
X94580735Y-111750849D01*
X94582684Y-111748650D01*
X94641874Y-111711523D01*
X94711739Y-111712291D01*
X94770099Y-111750708D01*
X94798424Y-111814579D01*
X94799500Y-111830877D01*
X94799499Y-112669750D01*
X94799500Y-112669752D01*
X94811131Y-112728229D01*
X94811132Y-112728230D01*
X94855447Y-112794552D01*
X94921769Y-112838867D01*
X94922949Y-112839356D01*
X94925126Y-112841110D01*
X94931923Y-112845652D01*
X94931516Y-112846259D01*
X94977354Y-112883195D01*
X94999421Y-112949489D01*
X94999500Y-112953918D01*
X94999500Y-113434065D01*
X94979815Y-113501104D01*
X94942540Y-113538380D01*
X94818874Y-113617855D01*
X94724623Y-113726626D01*
X94724622Y-113726628D01*
X94664834Y-113857543D01*
X94644353Y-114000000D01*
X94664834Y-114142456D01*
X94724622Y-114273371D01*
X94724623Y-114273373D01*
X94818872Y-114382143D01*
X94939947Y-114459953D01*
X94939950Y-114459954D01*
X94939949Y-114459954D01*
X95078036Y-114500499D01*
X95078038Y-114500500D01*
X95078039Y-114500500D01*
X95221962Y-114500500D01*
X95221962Y-114500499D01*
X95360053Y-114459953D01*
X95481128Y-114382143D01*
X95575377Y-114273373D01*
X95635165Y-114142457D01*
X95639572Y-114111798D01*
X95668594Y-114048243D01*
X95674630Y-114041761D01*
X95732314Y-113984078D01*
X95736392Y-113971968D01*
X95738101Y-113968613D01*
X95748271Y-113952014D01*
X95761296Y-113934090D01*
X95768140Y-113913022D01*
X95775586Y-113895045D01*
X95785646Y-113875304D01*
X95789112Y-113853415D01*
X95793652Y-113834501D01*
X95800499Y-113813433D01*
X95800499Y-113784076D01*
X95800500Y-113784051D01*
X95800500Y-112953918D01*
X95820185Y-112886879D01*
X95872989Y-112841124D01*
X95877051Y-112839356D01*
X95878229Y-112838867D01*
X95878231Y-112838867D01*
X95944552Y-112794552D01*
X95988867Y-112728231D01*
X95988867Y-112728229D01*
X95988868Y-112728229D01*
X96000499Y-112669752D01*
X96000500Y-112669750D01*
X96000500Y-112217254D01*
X96020185Y-112150215D01*
X96036814Y-112129578D01*
X100055484Y-108110909D01*
X100055484Y-108110908D01*
X100062552Y-108103841D01*
X100062557Y-108103834D01*
X100078050Y-108088342D01*
X100088114Y-108068588D01*
X100098263Y-108052026D01*
X100111296Y-108034090D01*
X100118144Y-108013011D01*
X100125586Y-107995044D01*
X100135646Y-107975304D01*
X100139112Y-107953417D01*
X100143655Y-107934498D01*
X100150500Y-107913433D01*
X100150500Y-107786567D01*
X100150500Y-107000000D01*
X106744938Y-107000000D01*
X106765121Y-107179138D01*
X106765122Y-107179141D01*
X106824662Y-107349298D01*
X106824667Y-107349308D01*
X106833338Y-107363108D01*
X107196446Y-107000000D01*
X107196446Y-106999999D01*
X106833338Y-106636890D01*
X106833338Y-106636891D01*
X106824664Y-106650696D01*
X106765122Y-106820858D01*
X106765121Y-106820861D01*
X106744938Y-106999997D01*
X106744938Y-107000000D01*
X100150500Y-107000000D01*
X100150500Y-106283338D01*
X107186890Y-106283338D01*
X107550000Y-106646447D01*
X107550001Y-106646447D01*
X107913108Y-106283338D01*
X107913108Y-106283337D01*
X107899308Y-106274667D01*
X107899298Y-106274662D01*
X107729141Y-106215122D01*
X107729138Y-106215121D01*
X107550003Y-106194938D01*
X107549997Y-106194938D01*
X107370861Y-106215121D01*
X107370858Y-106215122D01*
X107200696Y-106274664D01*
X107186891Y-106283338D01*
X107186890Y-106283338D01*
X100150500Y-106283338D01*
X100150500Y-104256580D01*
X100170185Y-104189541D01*
X100176124Y-104181093D01*
X100178279Y-104178283D01*
X100178282Y-104178282D01*
X100274536Y-104052841D01*
X100335044Y-103906762D01*
X100355682Y-103750000D01*
X100348725Y-103697159D01*
X100336302Y-103602792D01*
X100335044Y-103593238D01*
X100274536Y-103447159D01*
X100178282Y-103321718D01*
X100052841Y-103225464D01*
X100016671Y-103210482D01*
X99906762Y-103164956D01*
X99906760Y-103164955D01*
X99750001Y-103144318D01*
X99749999Y-103144318D01*
X99593239Y-103164955D01*
X99593237Y-103164956D01*
X99447160Y-103225463D01*
X99321718Y-103321718D01*
X99225463Y-103447160D01*
X99164956Y-103593237D01*
X99164955Y-103593239D01*
X99144318Y-103749998D01*
X99144318Y-103750001D01*
X99164955Y-103906760D01*
X99164956Y-103906762D01*
X99203576Y-104000000D01*
X99225464Y-104052841D01*
X99321718Y-104178282D01*
X99321720Y-104178283D01*
X99323876Y-104181093D01*
X99349070Y-104246263D01*
X99349500Y-104256580D01*
X99349500Y-105665347D01*
X99329815Y-105732386D01*
X99277011Y-105778141D01*
X99207853Y-105788085D01*
X99190566Y-105784324D01*
X99071964Y-105749500D01*
X99071961Y-105749500D01*
X98975833Y-105749500D01*
X98908794Y-105729815D01*
X98888152Y-105713181D01*
X97965193Y-104790222D01*
X97931708Y-104728899D01*
X97936692Y-104659207D01*
X97978564Y-104603274D01*
X98044028Y-104578857D01*
X98084714Y-104585451D01*
X98085387Y-104582940D01*
X98093236Y-104585043D01*
X98093238Y-104585044D01*
X98170259Y-104595184D01*
X98249999Y-104605682D01*
X98250000Y-104605682D01*
X98250001Y-104605682D01*
X98302254Y-104598802D01*
X98406762Y-104585044D01*
X98552841Y-104524536D01*
X98678282Y-104428282D01*
X98774536Y-104302841D01*
X98835044Y-104156762D01*
X98851572Y-104031217D01*
X98855682Y-104000001D01*
X98855682Y-103999998D01*
X98835044Y-103843239D01*
X98835044Y-103843238D01*
X98774536Y-103697159D01*
X98774535Y-103697158D01*
X98774535Y-103697157D01*
X98676124Y-103568905D01*
X98650930Y-103503736D01*
X98650500Y-103493419D01*
X98650500Y-102498146D01*
X98670185Y-102431107D01*
X98722989Y-102385352D01*
X98762919Y-102374688D01*
X98784699Y-102372646D01*
X98784701Y-102372645D01*
X98784704Y-102372645D01*
X98873249Y-102341661D01*
X98912882Y-102327793D01*
X99022150Y-102247150D01*
X99102793Y-102137882D01*
X99129627Y-102061195D01*
X99147646Y-102009701D01*
X99147646Y-102009699D01*
X99150500Y-101979269D01*
X99150500Y-101345730D01*
X99147646Y-101315300D01*
X99147646Y-101315298D01*
X99102793Y-101187119D01*
X99102792Y-101187117D01*
X99097231Y-101179582D01*
X99022150Y-101077850D01*
X98912882Y-100997207D01*
X98912880Y-100997206D01*
X98784700Y-100952353D01*
X98754270Y-100949500D01*
X98754266Y-100949500D01*
X98154755Y-100949500D01*
X98087716Y-100929815D01*
X98067074Y-100913181D01*
X97916074Y-100762181D01*
X97882589Y-100700858D01*
X97887573Y-100631166D01*
X97929445Y-100575233D01*
X97994909Y-100550816D01*
X98003755Y-100550500D01*
X98754270Y-100550500D01*
X98784699Y-100547646D01*
X98784701Y-100547646D01*
X98850744Y-100524536D01*
X98912882Y-100502793D01*
X99022150Y-100422150D01*
X99102793Y-100312882D01*
X99137335Y-100214166D01*
X99147646Y-100184701D01*
X99147646Y-100184699D01*
X99150500Y-100154269D01*
X99150500Y-99520730D01*
X99147646Y-99490300D01*
X99147646Y-99490298D01*
X99102793Y-99362119D01*
X99102792Y-99362117D01*
X99095777Y-99352612D01*
X99022150Y-99252850D01*
X98912882Y-99172207D01*
X98912881Y-99172206D01*
X98777806Y-99124941D01*
X98721031Y-99084219D01*
X98695284Y-99019266D01*
X98705968Y-98956388D01*
X98735165Y-98892456D01*
X98737775Y-98874302D01*
X98755647Y-98750000D01*
X98735165Y-98607543D01*
X98675377Y-98476627D01*
X98581128Y-98367857D01*
X98460053Y-98290047D01*
X98460051Y-98290046D01*
X98460049Y-98290045D01*
X98460050Y-98290045D01*
X98321963Y-98249500D01*
X98321961Y-98249500D01*
X98178039Y-98249500D01*
X98178036Y-98249500D01*
X98039949Y-98290045D01*
X97918873Y-98367856D01*
X97824623Y-98476626D01*
X97824622Y-98476628D01*
X97764834Y-98607543D01*
X97744353Y-98749999D01*
X97764834Y-98892454D01*
X97794032Y-98956389D01*
X97803975Y-99025548D01*
X97774950Y-99089103D01*
X97722193Y-99124941D01*
X97587117Y-99172207D01*
X97477850Y-99252850D01*
X97397207Y-99362117D01*
X97397206Y-99362119D01*
X97352353Y-99490298D01*
X97352353Y-99490300D01*
X97349500Y-99520730D01*
X97349500Y-100154269D01*
X97352353Y-100184699D01*
X97353964Y-100192073D01*
X97352698Y-100192349D01*
X97355861Y-100254327D01*
X97321130Y-100314954D01*
X97259136Y-100347179D01*
X97235258Y-100349500D01*
X96953676Y-100349500D01*
X96886637Y-100329815D01*
X96850575Y-100294392D01*
X96824553Y-100255448D01*
X96758230Y-100211132D01*
X96758229Y-100211131D01*
X96699752Y-100199500D01*
X96699748Y-100199500D01*
X95918967Y-100199500D01*
X95851928Y-100179815D01*
X95806173Y-100127011D01*
X95796229Y-100057853D01*
X95819860Y-100006106D01*
X95817767Y-100004707D01*
X95841760Y-99968799D01*
X95868867Y-99928231D01*
X95868867Y-99928229D01*
X95868868Y-99928229D01*
X95880499Y-99869752D01*
X95880500Y-99869750D01*
X95880500Y-98830249D01*
X95880499Y-98830247D01*
X95868868Y-98771770D01*
X95868867Y-98771769D01*
X95824552Y-98705447D01*
X95749611Y-98655373D01*
X95704806Y-98601760D01*
X95696099Y-98532435D01*
X95726254Y-98469408D01*
X95771050Y-98437710D01*
X95890826Y-98388097D01*
X95890827Y-98388096D01*
X95890833Y-98388094D01*
X96205452Y-98214211D01*
X96498623Y-98006194D01*
X96766661Y-97766661D01*
X97006194Y-97498623D01*
X97214211Y-97205452D01*
X97220125Y-97194752D01*
X98349500Y-97194752D01*
X98351629Y-97205454D01*
X98361132Y-97253233D01*
X98394254Y-97302803D01*
X98394260Y-97302811D01*
X98847184Y-97755735D01*
X98847191Y-97755741D01*
X98896768Y-97788867D01*
X98955247Y-97800499D01*
X98955250Y-97800500D01*
X98955252Y-97800500D01*
X100269750Y-97800500D01*
X100269751Y-97800499D01*
X100284568Y-97797552D01*
X100328229Y-97788868D01*
X100328229Y-97788867D01*
X100328231Y-97788867D01*
X100394552Y-97744552D01*
X100438867Y-97678231D01*
X100438867Y-97678229D01*
X100438868Y-97678229D01*
X100450499Y-97619752D01*
X100450500Y-97619750D01*
X100450500Y-96750000D01*
X100884417Y-96750000D01*
X100904699Y-96955932D01*
X100904700Y-96955934D01*
X100964768Y-97153954D01*
X101062315Y-97336450D01*
X101062317Y-97336452D01*
X101193589Y-97496410D01*
X101259510Y-97550509D01*
X101353550Y-97627685D01*
X101536046Y-97725232D01*
X101734066Y-97785300D01*
X101734065Y-97785300D01*
X101752529Y-97787118D01*
X101940000Y-97805583D01*
X102145934Y-97785300D01*
X102343954Y-97725232D01*
X102526450Y-97627685D01*
X102686410Y-97496410D01*
X102817685Y-97336450D01*
X102915232Y-97153954D01*
X102975300Y-96955934D01*
X102995583Y-96750000D01*
X102975300Y-96544066D01*
X102915232Y-96346046D01*
X102817685Y-96163550D01*
X102765702Y-96100209D01*
X102686410Y-96003589D01*
X102568677Y-95906969D01*
X102526450Y-95872315D01*
X102343954Y-95774768D01*
X102145934Y-95714700D01*
X102145932Y-95714699D01*
X102145934Y-95714699D01*
X101958463Y-95696235D01*
X101940000Y-95694417D01*
X101939999Y-95694417D01*
X101734067Y-95714699D01*
X101536043Y-95774769D01*
X101448114Y-95821769D01*
X101353550Y-95872315D01*
X101353548Y-95872316D01*
X101353547Y-95872317D01*
X101193589Y-96003589D01*
X101062317Y-96163547D01*
X100964769Y-96346043D01*
X100904699Y-96544067D01*
X100884417Y-96750000D01*
X100450500Y-96750000D01*
X100450500Y-95880249D01*
X100450499Y-95880247D01*
X100438868Y-95821770D01*
X100438867Y-95821769D01*
X100394552Y-95755447D01*
X100328230Y-95711132D01*
X100328229Y-95711131D01*
X100269752Y-95699500D01*
X100269748Y-95699500D01*
X98530252Y-95699500D01*
X98530247Y-95699500D01*
X98471770Y-95711131D01*
X98471769Y-95711132D01*
X98405447Y-95755447D01*
X98361132Y-95821769D01*
X98361131Y-95821770D01*
X98349500Y-95880247D01*
X98349500Y-95880251D01*
X98349500Y-95880252D01*
X98349500Y-97194752D01*
X97220125Y-97194752D01*
X97388094Y-96890833D01*
X97525659Y-96558724D01*
X97625173Y-96213300D01*
X97685387Y-95858907D01*
X97705543Y-95500000D01*
X97685387Y-95141093D01*
X97625173Y-94786700D01*
X97525659Y-94441276D01*
X97429861Y-94210000D01*
X98245073Y-94210000D01*
X98264737Y-94422216D01*
X98264738Y-94422219D01*
X98323058Y-94627196D01*
X98323066Y-94627216D01*
X98418061Y-94817992D01*
X98418062Y-94817993D01*
X98426834Y-94829610D01*
X98791049Y-94465395D01*
X98852372Y-94431910D01*
X98922063Y-94436894D01*
X98977997Y-94478765D01*
X98983045Y-94486036D01*
X99018238Y-94540797D01*
X99018239Y-94540798D01*
X99117974Y-94627218D01*
X99133602Y-94640759D01*
X99131287Y-94643430D01*
X99165978Y-94683435D01*
X99175946Y-94752590D01*
X99146945Y-94816156D01*
X99140883Y-94822669D01*
X98782991Y-95180560D01*
X98782992Y-95180561D01*
X98885201Y-95243845D01*
X98885210Y-95243850D01*
X99083936Y-95320836D01*
X99083941Y-95320837D01*
X99293439Y-95360000D01*
X99506561Y-95360000D01*
X99716058Y-95320837D01*
X99716063Y-95320836D01*
X99914789Y-95243850D01*
X99914793Y-95243848D01*
X100017007Y-95180560D01*
X99659116Y-94822669D01*
X99625631Y-94761346D01*
X99630615Y-94691654D01*
X99667641Y-94642193D01*
X99666398Y-94640759D01*
X99673100Y-94634952D01*
X99781761Y-94540798D01*
X99816955Y-94486034D01*
X99869754Y-94440283D01*
X99938913Y-94430338D01*
X100002469Y-94459362D01*
X100008949Y-94465395D01*
X100373163Y-94829610D01*
X100381935Y-94817996D01*
X100381938Y-94817991D01*
X100476935Y-94627211D01*
X100476941Y-94627196D01*
X100535261Y-94422219D01*
X100535262Y-94422216D01*
X100554926Y-94210000D01*
X100554926Y-94209999D01*
X100535262Y-93997783D01*
X100535261Y-93997780D01*
X100524512Y-93959999D01*
X100815487Y-93959999D01*
X100815488Y-93960000D01*
X101326653Y-93960000D01*
X101393692Y-93979685D01*
X101439447Y-94032489D01*
X101449391Y-94101647D01*
X101445631Y-94118933D01*
X101440000Y-94138111D01*
X101440000Y-94281888D01*
X101445631Y-94301067D01*
X101445630Y-94370936D01*
X101407855Y-94429714D01*
X101344299Y-94458738D01*
X101326653Y-94460000D01*
X100815488Y-94460000D01*
X100863062Y-94627205D01*
X100863067Y-94627218D01*
X100958061Y-94817991D01*
X101086500Y-94988071D01*
X101244000Y-95131651D01*
X101244002Y-95131653D01*
X101425201Y-95243846D01*
X101425207Y-95243849D01*
X101623941Y-95320838D01*
X101690000Y-95333186D01*
X101690000Y-94822301D01*
X101709685Y-94755262D01*
X101762489Y-94709507D01*
X101831647Y-94699563D01*
X101904237Y-94710000D01*
X101904238Y-94710000D01*
X101975762Y-94710000D01*
X101975763Y-94710000D01*
X102048353Y-94699563D01*
X102117512Y-94709507D01*
X102170315Y-94755262D01*
X102190000Y-94822301D01*
X102190000Y-95333185D01*
X102256058Y-95320838D01*
X102454792Y-95243849D01*
X102454798Y-95243846D01*
X102635997Y-95131653D01*
X102635999Y-95131651D01*
X102793499Y-94988071D01*
X102921938Y-94817991D01*
X103016932Y-94627218D01*
X103016937Y-94627205D01*
X103064512Y-94460000D01*
X102553347Y-94460000D01*
X102486308Y-94440315D01*
X102440553Y-94387511D01*
X102430609Y-94318353D01*
X102434369Y-94301067D01*
X102440000Y-94281888D01*
X102440000Y-94210000D01*
X103424417Y-94210000D01*
X103444699Y-94415932D01*
X103474733Y-94514944D01*
X103504768Y-94613954D01*
X103602315Y-94796450D01*
X103602317Y-94796452D01*
X103733589Y-94956410D01*
X103825026Y-95031449D01*
X103893550Y-95087685D01*
X104076046Y-95185232D01*
X104274066Y-95245300D01*
X104274065Y-95245300D01*
X104292529Y-95247118D01*
X104480000Y-95265583D01*
X104685934Y-95245300D01*
X104883954Y-95185232D01*
X105066450Y-95087685D01*
X105226410Y-94956410D01*
X105357685Y-94796450D01*
X105455232Y-94613954D01*
X105515300Y-94415934D01*
X105535583Y-94210000D01*
X105535583Y-94209999D01*
X105964417Y-94209999D01*
X105984699Y-94415932D01*
X106014733Y-94514944D01*
X106044768Y-94613954D01*
X106142315Y-94796450D01*
X106142317Y-94796452D01*
X106273589Y-94956410D01*
X106365026Y-95031449D01*
X106433550Y-95087685D01*
X106616046Y-95185232D01*
X106814066Y-95245300D01*
X106814065Y-95245300D01*
X106834348Y-95247297D01*
X107020000Y-95265583D01*
X107225934Y-95245300D01*
X107423954Y-95185232D01*
X107606450Y-95087685D01*
X107766410Y-94956410D01*
X107897685Y-94796450D01*
X107995232Y-94613954D01*
X108055300Y-94415934D01*
X108075583Y-94210000D01*
X108504417Y-94210000D01*
X108524699Y-94415932D01*
X108554733Y-94514944D01*
X108584768Y-94613954D01*
X108682315Y-94796450D01*
X108682317Y-94796452D01*
X108813589Y-94956410D01*
X108905026Y-95031449D01*
X108973550Y-95087685D01*
X109156046Y-95185232D01*
X109354066Y-95245300D01*
X109354065Y-95245300D01*
X109374347Y-95247297D01*
X109560000Y-95265583D01*
X109765934Y-95245300D01*
X109963954Y-95185232D01*
X110146450Y-95087685D01*
X110306410Y-94956410D01*
X110437685Y-94796450D01*
X110535232Y-94613954D01*
X110595300Y-94415934D01*
X110615583Y-94210000D01*
X111044417Y-94210000D01*
X111064699Y-94415932D01*
X111094733Y-94514944D01*
X111124768Y-94613954D01*
X111222315Y-94796450D01*
X111222317Y-94796452D01*
X111353589Y-94956410D01*
X111445026Y-95031449D01*
X111513550Y-95087685D01*
X111696046Y-95185232D01*
X111894066Y-95245300D01*
X111894065Y-95245300D01*
X111914347Y-95247297D01*
X112100000Y-95265583D01*
X112305934Y-95245300D01*
X112503954Y-95185232D01*
X112686450Y-95087685D01*
X112846410Y-94956410D01*
X112977685Y-94796450D01*
X113075232Y-94613954D01*
X113135300Y-94415934D01*
X113155583Y-94210000D01*
X113155583Y-94209999D01*
X113584417Y-94209999D01*
X113604699Y-94415932D01*
X113634733Y-94514944D01*
X113664768Y-94613954D01*
X113762315Y-94796450D01*
X113762317Y-94796452D01*
X113893589Y-94956410D01*
X113985026Y-95031449D01*
X114053550Y-95087685D01*
X114236046Y-95185232D01*
X114434066Y-95245300D01*
X114434065Y-95245300D01*
X114452529Y-95247118D01*
X114640000Y-95265583D01*
X114845934Y-95245300D01*
X115043954Y-95185232D01*
X115226450Y-95087685D01*
X115386410Y-94956410D01*
X115517685Y-94796450D01*
X115615232Y-94613954D01*
X115675300Y-94415934D01*
X115695583Y-94210000D01*
X115675300Y-94004066D01*
X115615232Y-93806046D01*
X115517685Y-93623550D01*
X115465702Y-93560209D01*
X115386410Y-93463589D01*
X115254923Y-93355682D01*
X115226450Y-93332315D01*
X115043954Y-93234768D01*
X114845934Y-93174700D01*
X114845932Y-93174699D01*
X114845934Y-93174699D01*
X114640000Y-93154417D01*
X114434067Y-93174699D01*
X114236043Y-93234769D01*
X114161646Y-93274536D01*
X114053550Y-93332315D01*
X114053548Y-93332316D01*
X114053547Y-93332317D01*
X113893589Y-93463589D01*
X113762317Y-93623547D01*
X113762315Y-93623550D01*
X113740300Y-93664737D01*
X113664769Y-93806043D01*
X113604699Y-94004067D01*
X113584417Y-94209999D01*
X113155583Y-94209999D01*
X113135300Y-94004066D01*
X113075232Y-93806046D01*
X112977685Y-93623550D01*
X112925702Y-93560209D01*
X112846410Y-93463589D01*
X112714923Y-93355682D01*
X112686450Y-93332315D01*
X112503954Y-93234768D01*
X112305934Y-93174700D01*
X112305932Y-93174699D01*
X112305934Y-93174699D01*
X112100000Y-93154417D01*
X111894067Y-93174699D01*
X111696043Y-93234769D01*
X111621646Y-93274536D01*
X111513550Y-93332315D01*
X111513548Y-93332316D01*
X111513547Y-93332317D01*
X111353589Y-93463589D01*
X111222317Y-93623547D01*
X111222315Y-93623550D01*
X111200300Y-93664737D01*
X111124769Y-93806043D01*
X111064699Y-94004067D01*
X111044417Y-94210000D01*
X110615583Y-94210000D01*
X110595300Y-94004066D01*
X110535232Y-93806046D01*
X110437685Y-93623550D01*
X110385702Y-93560209D01*
X110306410Y-93463589D01*
X110174923Y-93355682D01*
X110146450Y-93332315D01*
X109963954Y-93234768D01*
X109765934Y-93174700D01*
X109765932Y-93174699D01*
X109765934Y-93174699D01*
X109578463Y-93156235D01*
X109560000Y-93154417D01*
X109559999Y-93154417D01*
X109354067Y-93174699D01*
X109156043Y-93234769D01*
X109081646Y-93274536D01*
X108973550Y-93332315D01*
X108973548Y-93332316D01*
X108973547Y-93332317D01*
X108813589Y-93463589D01*
X108682317Y-93623547D01*
X108682315Y-93623550D01*
X108660300Y-93664737D01*
X108584769Y-93806043D01*
X108524699Y-94004067D01*
X108504417Y-94210000D01*
X108075583Y-94210000D01*
X108055300Y-94004066D01*
X107995232Y-93806046D01*
X107897685Y-93623550D01*
X107845702Y-93560209D01*
X107766410Y-93463589D01*
X107634923Y-93355682D01*
X107606450Y-93332315D01*
X107423954Y-93234768D01*
X107225934Y-93174700D01*
X107225932Y-93174699D01*
X107225934Y-93174699D01*
X107020000Y-93154417D01*
X106814067Y-93174699D01*
X106616043Y-93234769D01*
X106541646Y-93274536D01*
X106433550Y-93332315D01*
X106433548Y-93332316D01*
X106433547Y-93332317D01*
X106273589Y-93463589D01*
X106142317Y-93623547D01*
X106142315Y-93623550D01*
X106120300Y-93664737D01*
X106044769Y-93806043D01*
X105984699Y-94004067D01*
X105964417Y-94209999D01*
X105535583Y-94209999D01*
X105515300Y-94004066D01*
X105455232Y-93806046D01*
X105357685Y-93623550D01*
X105305702Y-93560209D01*
X105226410Y-93463589D01*
X105094923Y-93355682D01*
X105066450Y-93332315D01*
X104883954Y-93234768D01*
X104685934Y-93174700D01*
X104685932Y-93174699D01*
X104685934Y-93174699D01*
X104498463Y-93156235D01*
X104480000Y-93154417D01*
X104479999Y-93154417D01*
X104274067Y-93174699D01*
X104076043Y-93234769D01*
X104001646Y-93274536D01*
X103893550Y-93332315D01*
X103893548Y-93332316D01*
X103893547Y-93332317D01*
X103733589Y-93463589D01*
X103602317Y-93623547D01*
X103602315Y-93623550D01*
X103580300Y-93664737D01*
X103504769Y-93806043D01*
X103444699Y-94004067D01*
X103424417Y-94210000D01*
X102440000Y-94210000D01*
X102440000Y-94138111D01*
X102434369Y-94118933D01*
X102434370Y-94049064D01*
X102472145Y-93990286D01*
X102535701Y-93961262D01*
X102553347Y-93960000D01*
X103064512Y-93960000D01*
X103064512Y-93959999D01*
X103016937Y-93792794D01*
X103016932Y-93792781D01*
X102921938Y-93602008D01*
X102793499Y-93431928D01*
X102635999Y-93288348D01*
X102635997Y-93288346D01*
X102454798Y-93176153D01*
X102454789Y-93176149D01*
X102256063Y-93099163D01*
X102256058Y-93099162D01*
X102190000Y-93086813D01*
X102190000Y-93597698D01*
X102170315Y-93664737D01*
X102117511Y-93710492D01*
X102048355Y-93720436D01*
X101975766Y-93710000D01*
X101975763Y-93710000D01*
X101904237Y-93710000D01*
X101904233Y-93710000D01*
X101831645Y-93720436D01*
X101762487Y-93710492D01*
X101709684Y-93664736D01*
X101690000Y-93597698D01*
X101690000Y-93086813D01*
X101623941Y-93099162D01*
X101623936Y-93099163D01*
X101425210Y-93176149D01*
X101425201Y-93176153D01*
X101244002Y-93288346D01*
X101244000Y-93288348D01*
X101086500Y-93431928D01*
X100958061Y-93602008D01*
X100863067Y-93792781D01*
X100863062Y-93792794D01*
X100815487Y-93959999D01*
X100524512Y-93959999D01*
X100476941Y-93792803D01*
X100476933Y-93792783D01*
X100381940Y-93602010D01*
X100373163Y-93590388D01*
X100008949Y-93954603D01*
X99947626Y-93988088D01*
X99877934Y-93983104D01*
X99822001Y-93941232D01*
X99816952Y-93933961D01*
X99810063Y-93923241D01*
X99781761Y-93879202D01*
X99673100Y-93785048D01*
X99673099Y-93785047D01*
X99666398Y-93779241D01*
X99668704Y-93776578D01*
X99633988Y-93736492D01*
X99624063Y-93667330D01*
X99653105Y-93603782D01*
X99659115Y-93597329D01*
X100017007Y-93239438D01*
X99914789Y-93176149D01*
X99716063Y-93099163D01*
X99716058Y-93099162D01*
X99506561Y-93060000D01*
X99293439Y-93060000D01*
X99083941Y-93099162D01*
X99083940Y-93099162D01*
X98885208Y-93176151D01*
X98885205Y-93176152D01*
X98782991Y-93239438D01*
X99140883Y-93597330D01*
X99174368Y-93658653D01*
X99169384Y-93728345D01*
X99132357Y-93777805D01*
X99133602Y-93779241D01*
X99018237Y-93879203D01*
X98983046Y-93933962D01*
X98930242Y-93979717D01*
X98861084Y-93989661D01*
X98797528Y-93960636D01*
X98791050Y-93954604D01*
X98426835Y-93590389D01*
X98418056Y-93602015D01*
X98323066Y-93792783D01*
X98323058Y-93792803D01*
X98264738Y-93997780D01*
X98264737Y-93997783D01*
X98245073Y-94209999D01*
X98245073Y-94210000D01*
X97429861Y-94210000D01*
X97388094Y-94109167D01*
X97214211Y-93794548D01*
X97212966Y-93792794D01*
X97154221Y-93710000D01*
X97031509Y-93537055D01*
X97008770Y-93470991D01*
X97025357Y-93403119D01*
X97076006Y-93354989D01*
X97144635Y-93341883D01*
X97148824Y-93342362D01*
X97249999Y-93355682D01*
X97250000Y-93355682D01*
X97250001Y-93355682D01*
X97302253Y-93348802D01*
X97406762Y-93335044D01*
X97552841Y-93274536D01*
X97678282Y-93178282D01*
X97774536Y-93052841D01*
X97835044Y-92906762D01*
X97855682Y-92750000D01*
X97851154Y-92715610D01*
X97837847Y-92614530D01*
X97835044Y-92593238D01*
X97774536Y-92447159D01*
X97774534Y-92447156D01*
X97770472Y-92440119D01*
X97772293Y-92439067D01*
X97751128Y-92384314D01*
X97765168Y-92315870D01*
X97813983Y-92265881D01*
X97874698Y-92250000D01*
X116237789Y-92250000D01*
X116261980Y-92252383D01*
G37*
%TD.AperFunction*%
%TD*%
%TA.AperFunction,Conductor*%
%TO.N,VBAT_SOL+*%
G36*
X136036040Y-104595184D02*
G01*
X136044483Y-104601121D01*
X136090602Y-104636509D01*
X136113491Y-104659398D01*
X136173074Y-104737048D01*
X136189259Y-104765081D01*
X136226715Y-104855508D01*
X136235093Y-104886776D01*
X136244676Y-104959567D01*
X136233910Y-105028602D01*
X136187530Y-105080858D01*
X136120261Y-105099743D01*
X136071650Y-105089186D01*
X136044992Y-105077415D01*
X136019865Y-105074500D01*
X134680143Y-105074500D01*
X134680117Y-105074502D01*
X134655012Y-105077413D01*
X134655008Y-105077415D01*
X134552235Y-105122793D01*
X134472794Y-105202234D01*
X134427415Y-105305006D01*
X134427415Y-105305008D01*
X134424500Y-105330131D01*
X134424500Y-105619856D01*
X134424502Y-105619882D01*
X134427413Y-105644986D01*
X134427414Y-105644990D01*
X134427415Y-105644991D01*
X134472794Y-105747765D01*
X134472795Y-105747766D01*
X134473743Y-105749913D01*
X134482814Y-105819191D01*
X134473743Y-105850085D01*
X134427415Y-105955009D01*
X134424500Y-105980131D01*
X134424500Y-106269856D01*
X134424502Y-106269882D01*
X134427413Y-106294987D01*
X134427415Y-106294991D01*
X134472793Y-106397764D01*
X134472794Y-106397765D01*
X134552235Y-106477206D01*
X134655009Y-106522585D01*
X134680135Y-106525500D01*
X134825500Y-106525499D01*
X134892539Y-106545183D01*
X134938294Y-106597987D01*
X134949500Y-106649499D01*
X134949500Y-106876000D01*
X134929815Y-106943039D01*
X134877011Y-106988794D01*
X134825500Y-107000000D01*
X134750000Y-107000000D01*
X134749994Y-107000000D01*
X134749990Y-107000001D01*
X134620591Y-107017036D01*
X134620586Y-107017038D01*
X134500004Y-107066984D01*
X134500003Y-107066984D01*
X134396447Y-107146447D01*
X134316984Y-107250003D01*
X134316984Y-107250004D01*
X134267038Y-107370586D01*
X134267036Y-107370591D01*
X134250001Y-107499990D01*
X134249999Y-107500006D01*
X134249999Y-108165494D01*
X134230314Y-108232534D01*
X134177510Y-108278288D01*
X134108352Y-108288232D01*
X134044796Y-108259207D01*
X134038318Y-108253175D01*
X133936818Y-108151675D01*
X133903333Y-108090352D01*
X133900499Y-108063994D01*
X133900499Y-107974500D01*
X133900500Y-107770734D01*
X133897646Y-107740301D01*
X133897646Y-107740300D01*
X133897646Y-107740298D01*
X133852793Y-107612119D01*
X133852792Y-107612117D01*
X133834342Y-107587118D01*
X133772150Y-107502850D01*
X133662882Y-107422207D01*
X133662880Y-107422206D01*
X133534700Y-107377353D01*
X133504270Y-107374500D01*
X133504266Y-107374500D01*
X132495734Y-107374500D01*
X132495730Y-107374500D01*
X132465300Y-107377353D01*
X132465298Y-107377353D01*
X132337119Y-107422206D01*
X132337117Y-107422207D01*
X132227850Y-107502850D01*
X132147207Y-107612117D01*
X132147206Y-107612119D01*
X132102353Y-107740298D01*
X132102353Y-107740300D01*
X132099500Y-107770730D01*
X132099500Y-108404269D01*
X132102353Y-108434699D01*
X132102353Y-108434701D01*
X132147206Y-108562880D01*
X132147207Y-108562882D01*
X132227850Y-108672150D01*
X132337118Y-108752793D01*
X132379845Y-108767744D01*
X132465299Y-108797646D01*
X132495730Y-108800500D01*
X132495734Y-108800500D01*
X133401495Y-108800500D01*
X133468534Y-108820185D01*
X133489176Y-108836819D01*
X134213680Y-109561323D01*
X134247165Y-109622646D01*
X134249999Y-109649004D01*
X134250000Y-110495933D01*
X134249469Y-110504035D01*
X134235093Y-110613224D01*
X134226715Y-110644491D01*
X134189259Y-110734918D01*
X134173074Y-110762951D01*
X134113491Y-110840601D01*
X134090601Y-110863491D01*
X134012951Y-110923074D01*
X133984918Y-110939259D01*
X133894491Y-110976715D01*
X133863224Y-110985093D01*
X133774783Y-110996737D01*
X133754031Y-110999469D01*
X133745934Y-111000000D01*
X126500000Y-111000000D01*
X126499994Y-111000000D01*
X126499990Y-111000001D01*
X126370591Y-111017036D01*
X126370586Y-111017038D01*
X126250004Y-111066984D01*
X126250003Y-111066984D01*
X126146447Y-111146447D01*
X126066984Y-111250003D01*
X126066984Y-111250004D01*
X126017038Y-111370586D01*
X126017036Y-111370591D01*
X126000001Y-111499990D01*
X125999999Y-111500006D01*
X125999999Y-117245933D01*
X125999468Y-117254035D01*
X125985093Y-117363223D01*
X125976715Y-117394491D01*
X125939259Y-117484918D01*
X125923074Y-117512951D01*
X125863491Y-117590601D01*
X125840601Y-117613491D01*
X125762951Y-117673074D01*
X125734918Y-117689259D01*
X125644491Y-117726715D01*
X125613224Y-117735093D01*
X125524783Y-117746737D01*
X125504031Y-117749469D01*
X125495934Y-117750000D01*
X124254066Y-117750000D01*
X124245968Y-117749469D01*
X124222457Y-117746374D01*
X124136775Y-117735093D01*
X124105508Y-117726715D01*
X124015081Y-117689259D01*
X123987048Y-117673074D01*
X123909398Y-117613491D01*
X123886508Y-117590601D01*
X123826925Y-117512951D01*
X123810740Y-117484918D01*
X123773284Y-117394491D01*
X123764906Y-117363223D01*
X123750531Y-117254035D01*
X123750000Y-117245933D01*
X123750000Y-111262210D01*
X123752383Y-111238019D01*
X123764218Y-111178519D01*
X123782729Y-111133826D01*
X123809524Y-111093724D01*
X123843724Y-111059524D01*
X123883826Y-111032729D01*
X123928514Y-111014219D01*
X124000000Y-111000000D01*
X124095671Y-110980970D01*
X124176777Y-110926777D01*
X124230970Y-110845671D01*
X124250000Y-110750000D01*
X124250000Y-108999999D01*
X126368853Y-108999999D01*
X126389334Y-109142456D01*
X126389336Y-109142460D01*
X126449123Y-109273373D01*
X126543372Y-109382143D01*
X126664447Y-109459953D01*
X126664450Y-109459954D01*
X126664449Y-109459954D01*
X126802536Y-109500499D01*
X126802538Y-109500500D01*
X126802539Y-109500500D01*
X126946462Y-109500500D01*
X126946462Y-109500499D01*
X127084553Y-109459953D01*
X127205628Y-109382143D01*
X127299877Y-109273373D01*
X127359665Y-109142457D01*
X127364073Y-109111795D01*
X127393094Y-109048244D01*
X127399100Y-109041791D01*
X127654075Y-108786816D01*
X127715397Y-108753334D01*
X127741755Y-108750500D01*
X128529270Y-108750500D01*
X128559699Y-108747646D01*
X128559701Y-108747646D01*
X128623790Y-108725219D01*
X128687882Y-108702793D01*
X128797150Y-108622150D01*
X128877793Y-108512882D01*
X128905150Y-108434699D01*
X128922646Y-108384701D01*
X128922646Y-108384699D01*
X128925500Y-108354269D01*
X128925500Y-107745730D01*
X128922646Y-107715300D01*
X128922646Y-107715298D01*
X128877793Y-107587119D01*
X128877792Y-107587117D01*
X128850008Y-107549471D01*
X128797150Y-107477850D01*
X128687882Y-107397207D01*
X128687880Y-107397206D01*
X128559700Y-107352353D01*
X128529270Y-107349500D01*
X128529266Y-107349500D01*
X127470734Y-107349500D01*
X127470730Y-107349500D01*
X127440300Y-107352353D01*
X127440298Y-107352353D01*
X127312119Y-107397206D01*
X127312117Y-107397207D01*
X127202850Y-107477850D01*
X127122207Y-107587117D01*
X127122206Y-107587119D01*
X127077353Y-107715298D01*
X127077353Y-107715300D01*
X127074499Y-107745730D01*
X127074499Y-108182245D01*
X127054814Y-108249285D01*
X127038180Y-108269926D01*
X126833509Y-108474597D01*
X126780763Y-108505893D01*
X126664449Y-108540045D01*
X126543373Y-108617856D01*
X126449123Y-108726626D01*
X126449122Y-108726628D01*
X126389334Y-108857543D01*
X126368853Y-108999999D01*
X124250000Y-108999999D01*
X124250000Y-106004049D01*
X124250528Y-105995984D01*
X124264906Y-105886773D01*
X124273284Y-105855508D01*
X124310740Y-105765081D01*
X124326923Y-105737050D01*
X124386513Y-105659392D01*
X124409392Y-105636513D01*
X124487050Y-105576923D01*
X124515079Y-105560740D01*
X124605509Y-105523283D01*
X124636775Y-105514906D01*
X124745967Y-105500530D01*
X124754067Y-105500000D01*
X126245933Y-105500000D01*
X126254031Y-105500530D01*
X126345879Y-105512622D01*
X126363223Y-105514906D01*
X126394491Y-105523284D01*
X126484918Y-105560740D01*
X126512952Y-105576925D01*
X126590602Y-105636509D01*
X126613491Y-105659398D01*
X126673074Y-105737048D01*
X126689259Y-105765081D01*
X126726715Y-105855508D01*
X126735093Y-105886775D01*
X126750000Y-105999999D01*
X126767036Y-106129408D01*
X126767038Y-106129413D01*
X126816984Y-106249995D01*
X126816984Y-106249996D01*
X126816986Y-106249999D01*
X126816987Y-106250000D01*
X126896447Y-106353553D01*
X127000000Y-106433013D01*
X127000003Y-106433014D01*
X127000004Y-106433015D01*
X127060295Y-106457988D01*
X127120590Y-106482963D01*
X127250000Y-106500000D01*
X127250007Y-106500000D01*
X129725500Y-106500000D01*
X129792539Y-106519685D01*
X129838294Y-106572489D01*
X129849500Y-106624000D01*
X129849500Y-107251853D01*
X129829815Y-107318892D01*
X129777011Y-107364647D01*
X129737079Y-107375311D01*
X129715300Y-107377353D01*
X129715298Y-107377353D01*
X129587119Y-107422206D01*
X129587117Y-107422207D01*
X129477850Y-107502850D01*
X129397207Y-107612117D01*
X129397206Y-107612119D01*
X129352353Y-107740298D01*
X129352353Y-107740300D01*
X129349499Y-107770730D01*
X129349499Y-108404269D01*
X129352353Y-108434699D01*
X129352353Y-108434701D01*
X129397206Y-108562880D01*
X129397207Y-108562882D01*
X129477850Y-108672150D01*
X129587118Y-108752793D01*
X129629845Y-108767744D01*
X129715299Y-108797646D01*
X129745730Y-108800500D01*
X129745734Y-108800500D01*
X130754270Y-108800500D01*
X130784699Y-108797646D01*
X130784701Y-108797646D01*
X130848790Y-108775219D01*
X130912882Y-108752793D01*
X131022150Y-108672150D01*
X131102793Y-108562882D01*
X131133685Y-108474597D01*
X131147646Y-108434701D01*
X131147646Y-108434699D01*
X131150500Y-108404269D01*
X131150500Y-107770730D01*
X131147646Y-107740300D01*
X131147646Y-107740298D01*
X131102793Y-107612119D01*
X131102792Y-107612117D01*
X131084342Y-107587118D01*
X131022150Y-107502850D01*
X130912882Y-107422207D01*
X130912880Y-107422206D01*
X130784700Y-107377353D01*
X130762921Y-107375311D01*
X130698013Y-107349453D01*
X130657388Y-107292607D01*
X130650500Y-107251853D01*
X130650500Y-106624000D01*
X130670185Y-106556961D01*
X130722989Y-106511206D01*
X130774500Y-106500000D01*
X133249993Y-106500000D01*
X133250000Y-106500000D01*
X133379410Y-106482963D01*
X133499995Y-106433015D01*
X133499996Y-106433015D01*
X133499996Y-106433014D01*
X133500000Y-106433013D01*
X133603553Y-106353553D01*
X133683013Y-106250000D01*
X133732963Y-106129410D01*
X133750000Y-106000000D01*
X133750000Y-105539557D01*
X133769685Y-105472518D01*
X133812089Y-105434154D01*
X133811820Y-105433784D01*
X133815264Y-105431281D01*
X133817706Y-105429072D01*
X133819713Y-105428050D01*
X133835205Y-105412557D01*
X133835212Y-105412552D01*
X134635945Y-104611819D01*
X134697268Y-104578334D01*
X134723626Y-104575500D01*
X135391509Y-104575500D01*
X135391521Y-104575499D01*
X135969001Y-104575499D01*
X136036040Y-104595184D01*
G37*
%TD.AperFunction*%
%TD*%
%TA.AperFunction,Conductor*%
%TO.N,GND*%
G36*
X113886980Y-117552383D02*
G01*
X113946480Y-117564218D01*
X113991175Y-117582730D01*
X114031272Y-117609522D01*
X114065477Y-117643727D01*
X114092267Y-117683822D01*
X114110781Y-117728517D01*
X114114542Y-117747427D01*
X114122617Y-117788019D01*
X114125000Y-117812210D01*
X114125000Y-118387789D01*
X114122617Y-118411982D01*
X114110781Y-118471482D01*
X114092267Y-118516179D01*
X114065481Y-118556268D01*
X114031269Y-118590479D01*
X114017021Y-118600000D01*
X113991179Y-118617267D01*
X113946482Y-118635781D01*
X113912857Y-118642469D01*
X113886978Y-118647617D01*
X113862789Y-118650000D01*
X112603565Y-118650000D01*
X112536526Y-118630315D01*
X112490771Y-118577511D01*
X112489005Y-118573454D01*
X112485356Y-118564645D01*
X112450000Y-118550000D01*
X110787211Y-118550000D01*
X110763020Y-118547617D01*
X110748189Y-118544667D01*
X110703518Y-118535781D01*
X110658822Y-118517267D01*
X110618727Y-118490477D01*
X110584522Y-118456272D01*
X110557730Y-118416175D01*
X110539218Y-118371480D01*
X110527383Y-118311980D01*
X110525000Y-118287789D01*
X110525000Y-117812210D01*
X110527383Y-117788019D01*
X110539218Y-117728517D01*
X110557729Y-117683826D01*
X110584524Y-117643724D01*
X110618724Y-117609524D01*
X110658826Y-117582729D01*
X110703514Y-117564219D01*
X110763028Y-117552381D01*
X110787211Y-117550000D01*
X113862789Y-117550000D01*
X113886980Y-117552383D01*
G37*
%TD.AperFunction*%
%TD*%
%TA.AperFunction,Conductor*%
%TO.N,GND*%
G36*
X128693039Y-111769685D02*
G01*
X128738794Y-111822489D01*
X128750000Y-111874000D01*
X128750000Y-113626000D01*
X128730315Y-113693039D01*
X128677511Y-113738794D01*
X128626000Y-113750000D01*
X127124000Y-113750000D01*
X127056961Y-113730315D01*
X127011206Y-113677511D01*
X127000000Y-113626000D01*
X127000000Y-111874000D01*
X127019685Y-111806961D01*
X127072489Y-111761206D01*
X127124000Y-111750000D01*
X128626000Y-111750000D01*
X128693039Y-111769685D01*
G37*
%TD.AperFunction*%
%TD*%
%TA.AperFunction,Conductor*%
%TO.N,5V+*%
G36*
X109358427Y-118177383D02*
G01*
X109417920Y-118189217D01*
X109417926Y-118189218D01*
X109462625Y-118207733D01*
X109513067Y-118241437D01*
X109531858Y-118256858D01*
X110651773Y-119376774D01*
X110651774Y-119376775D01*
X110651777Y-119376777D01*
X110732883Y-119430970D01*
X110732885Y-119430970D01*
X110732885Y-119430971D01*
X110828548Y-119449999D01*
X110828551Y-119450000D01*
X112275000Y-119450000D01*
X112275001Y-119450000D01*
X112275002Y-119449999D01*
X112303960Y-119444239D01*
X112361101Y-119432874D01*
X112361102Y-119432873D01*
X112361104Y-119432873D01*
X112434099Y-119384099D01*
X112482873Y-119311104D01*
X112500000Y-119225000D01*
X112512315Y-119163082D01*
X112530825Y-119118394D01*
X112552201Y-119086403D01*
X112586403Y-119052201D01*
X112618394Y-119030825D01*
X112663082Y-119012315D01*
X112713027Y-119002381D01*
X112737211Y-119000000D01*
X113862789Y-119000000D01*
X113886980Y-119002383D01*
X113946480Y-119014218D01*
X113991175Y-119032730D01*
X114031272Y-119059522D01*
X114065477Y-119093727D01*
X114092267Y-119133822D01*
X114110781Y-119178517D01*
X114122617Y-119238022D01*
X114125000Y-119262210D01*
X114125000Y-120187789D01*
X114122617Y-120211982D01*
X114110781Y-120271482D01*
X114092267Y-120316179D01*
X114065481Y-120356268D01*
X114031269Y-120390479D01*
X113996975Y-120413394D01*
X113991179Y-120417267D01*
X113946482Y-120435781D01*
X113912857Y-120442469D01*
X113886978Y-120447617D01*
X113862789Y-120450000D01*
X110303550Y-120450000D01*
X110207885Y-120469028D01*
X110207885Y-120469029D01*
X110207883Y-120469029D01*
X110207883Y-120469030D01*
X110187538Y-120482623D01*
X110126774Y-120523224D01*
X110126773Y-120523225D01*
X109906857Y-120743142D01*
X109888068Y-120758562D01*
X109845843Y-120786775D01*
X109837625Y-120792267D01*
X109792928Y-120810781D01*
X109758777Y-120817574D01*
X109733425Y-120822617D01*
X109709236Y-120825000D01*
X108712211Y-120825000D01*
X108688020Y-120822617D01*
X108673189Y-120819667D01*
X108628518Y-120810781D01*
X108583822Y-120792267D01*
X108543727Y-120765477D01*
X108509522Y-120731272D01*
X108482730Y-120691175D01*
X108464218Y-120646480D01*
X108452383Y-120586980D01*
X108450000Y-120562789D01*
X108450000Y-118437210D01*
X108452383Y-118413019D01*
X108464218Y-118353519D01*
X108482729Y-118308826D01*
X108509524Y-118268724D01*
X108543724Y-118234524D01*
X108583826Y-118207729D01*
X108628514Y-118189219D01*
X108688028Y-118177381D01*
X108712211Y-118175000D01*
X109334236Y-118175000D01*
X109358427Y-118177383D01*
G37*
%TD.AperFunction*%
%TD*%
%TA.AperFunction,Conductor*%
%TO.N,VBAT+*%
G36*
X118011980Y-112502383D02*
G01*
X118071480Y-112514218D01*
X118116175Y-112532730D01*
X118156272Y-112559522D01*
X118190477Y-112593727D01*
X118217267Y-112633822D01*
X118235781Y-112678518D01*
X118250000Y-112750000D01*
X118269030Y-112845672D01*
X118285680Y-112870590D01*
X118323223Y-112926777D01*
X118371842Y-112959262D01*
X118404328Y-112980970D01*
X118499995Y-112999999D01*
X118499999Y-113000000D01*
X118500000Y-113000000D01*
X119962435Y-113000000D01*
X120029474Y-113019685D01*
X120036329Y-113025209D01*
X120044399Y-113030601D01*
X120127260Y-113085966D01*
X120127263Y-113085966D01*
X120127264Y-113085967D01*
X120200321Y-113100499D01*
X120200324Y-113100500D01*
X120200326Y-113100500D01*
X120819676Y-113100500D01*
X120819677Y-113100499D01*
X120892740Y-113085966D01*
X120975601Y-113030601D01*
X120975600Y-113030601D01*
X120985756Y-113023816D01*
X120987634Y-113026626D01*
X121031207Y-113002834D01*
X121057565Y-113000000D01*
X121442435Y-113000000D01*
X121509474Y-113019685D01*
X121516329Y-113025209D01*
X121524399Y-113030601D01*
X121607260Y-113085966D01*
X121607263Y-113085966D01*
X121607264Y-113085967D01*
X121680321Y-113100499D01*
X121680324Y-113100500D01*
X121680326Y-113100500D01*
X122299676Y-113100500D01*
X122299677Y-113100499D01*
X122336207Y-113093233D01*
X122372736Y-113085967D01*
X122372736Y-113085966D01*
X122372740Y-113085966D01*
X122400279Y-113067564D01*
X122466951Y-113046686D01*
X122516623Y-113056106D01*
X122527810Y-113060740D01*
X122555842Y-113076924D01*
X122643224Y-113143974D01*
X122649319Y-113149319D01*
X123350679Y-113850679D01*
X123356025Y-113856775D01*
X123423075Y-113944157D01*
X123439260Y-113972191D01*
X123476715Y-114062616D01*
X123485093Y-114093882D01*
X123489860Y-114130095D01*
X123499470Y-114203090D01*
X123500000Y-114211172D01*
X123500000Y-117499993D01*
X123500001Y-117500009D01*
X123517036Y-117629408D01*
X123517038Y-117629413D01*
X123566984Y-117749995D01*
X123566984Y-117749996D01*
X123566986Y-117749999D01*
X123566987Y-117750000D01*
X123646447Y-117853553D01*
X123750000Y-117933013D01*
X123750003Y-117933014D01*
X123750004Y-117933015D01*
X123810295Y-117957988D01*
X123870590Y-117982963D01*
X124000000Y-118000000D01*
X125495933Y-118000000D01*
X125504031Y-118000530D01*
X125595879Y-118012622D01*
X125613223Y-118014906D01*
X125644491Y-118023284D01*
X125734918Y-118060740D01*
X125762952Y-118076925D01*
X125840602Y-118136509D01*
X125863491Y-118159398D01*
X125923074Y-118237048D01*
X125939259Y-118265081D01*
X125976715Y-118355508D01*
X125985093Y-118386775D01*
X125999469Y-118495964D01*
X126000000Y-118504065D01*
X126000000Y-120495934D01*
X125999469Y-120504035D01*
X125985093Y-120613224D01*
X125976715Y-120644491D01*
X125939259Y-120734918D01*
X125923074Y-120762951D01*
X125863491Y-120840601D01*
X125840601Y-120863491D01*
X125762951Y-120923074D01*
X125734918Y-120939259D01*
X125644491Y-120976715D01*
X125613224Y-120985093D01*
X125524783Y-120996737D01*
X125504031Y-120999469D01*
X125495934Y-121000000D01*
X123004066Y-121000000D01*
X122995968Y-120999469D01*
X122972457Y-120996374D01*
X122886775Y-120985093D01*
X122855508Y-120976715D01*
X122765081Y-120939259D01*
X122737048Y-120923074D01*
X122659398Y-120863491D01*
X122636508Y-120840601D01*
X122576925Y-120762951D01*
X122560740Y-120734918D01*
X122523284Y-120644491D01*
X122514906Y-120613223D01*
X122500531Y-120504035D01*
X122500000Y-120495933D01*
X122500000Y-118457113D01*
X122500000Y-118457107D01*
X122482963Y-118327697D01*
X122433013Y-118207107D01*
X122353553Y-118103553D01*
X122353548Y-118103547D01*
X120428725Y-116178725D01*
X120395240Y-116117402D01*
X120393472Y-116107256D01*
X120385044Y-116043238D01*
X120324536Y-115897159D01*
X120228282Y-115771718D01*
X120102841Y-115675464D01*
X119956762Y-115614956D01*
X119915893Y-115609575D01*
X119892768Y-115606531D01*
X119828872Y-115578264D01*
X119821273Y-115571273D01*
X119396452Y-115146451D01*
X119396445Y-115146445D01*
X119292893Y-115066987D01*
X119292888Y-115066984D01*
X119172306Y-115017038D01*
X119172301Y-115017036D01*
X119042902Y-115000001D01*
X119042899Y-115000000D01*
X119042893Y-115000000D01*
X119042886Y-115000000D01*
X115504066Y-115000000D01*
X115495968Y-114999469D01*
X115472457Y-114996374D01*
X115386775Y-114985093D01*
X115355508Y-114976715D01*
X115265081Y-114939259D01*
X115237048Y-114923074D01*
X115159398Y-114863491D01*
X115136508Y-114840601D01*
X115076925Y-114762951D01*
X115069448Y-114750001D01*
X119894318Y-114750001D01*
X119914955Y-114906760D01*
X119914956Y-114906762D01*
X119953576Y-115000000D01*
X119975464Y-115052841D01*
X120071718Y-115178282D01*
X120197159Y-115274536D01*
X120343238Y-115335044D01*
X120421619Y-115345362D01*
X120499999Y-115355682D01*
X120500000Y-115355682D01*
X120500001Y-115355682D01*
X120552253Y-115348802D01*
X120656762Y-115335044D01*
X120802841Y-115274536D01*
X120928282Y-115178282D01*
X121024536Y-115052841D01*
X121085044Y-114906762D01*
X121105682Y-114750000D01*
X121103696Y-114734918D01*
X121085044Y-114593239D01*
X121085044Y-114593238D01*
X121024536Y-114447159D01*
X120928282Y-114321718D01*
X120884789Y-114288345D01*
X120843589Y-114231919D01*
X120839434Y-114162173D01*
X120873647Y-114101252D01*
X120891389Y-114086868D01*
X120892738Y-114085966D01*
X120892740Y-114085966D01*
X120975601Y-114030601D01*
X121030966Y-113947740D01*
X121045499Y-113874678D01*
X121454500Y-113874678D01*
X121469032Y-113947735D01*
X121469033Y-113947739D01*
X121469034Y-113947740D01*
X121524399Y-114030601D01*
X121572314Y-114062616D01*
X121607260Y-114085966D01*
X121607264Y-114085967D01*
X121680321Y-114100499D01*
X121680324Y-114100500D01*
X121680326Y-114100500D01*
X122299676Y-114100500D01*
X122299677Y-114100499D01*
X122372740Y-114085966D01*
X122455601Y-114030601D01*
X122510966Y-113947740D01*
X122525500Y-113874674D01*
X122525500Y-113625326D01*
X122525500Y-113625323D01*
X122525499Y-113625321D01*
X122510967Y-113552264D01*
X122510966Y-113552260D01*
X122489638Y-113520340D01*
X122455601Y-113469399D01*
X122372740Y-113414034D01*
X122372739Y-113414033D01*
X122372735Y-113414032D01*
X122299677Y-113399500D01*
X122299674Y-113399500D01*
X121680326Y-113399500D01*
X121680323Y-113399500D01*
X121607264Y-113414032D01*
X121607260Y-113414033D01*
X121524399Y-113469399D01*
X121469033Y-113552260D01*
X121469032Y-113552264D01*
X121454500Y-113625321D01*
X121454500Y-113874678D01*
X121045499Y-113874678D01*
X121045500Y-113874674D01*
X121045500Y-113625326D01*
X121045500Y-113625323D01*
X121045499Y-113625321D01*
X121030967Y-113552264D01*
X121030966Y-113552260D01*
X121009638Y-113520340D01*
X120975601Y-113469399D01*
X120892740Y-113414034D01*
X120892739Y-113414033D01*
X120892735Y-113414032D01*
X120819677Y-113399500D01*
X120819674Y-113399500D01*
X120200326Y-113399500D01*
X120200323Y-113399500D01*
X120127264Y-113414032D01*
X120127260Y-113414033D01*
X120044399Y-113469399D01*
X119989033Y-113552260D01*
X119989032Y-113552264D01*
X119974500Y-113625321D01*
X119974500Y-113874678D01*
X119989032Y-113947735D01*
X119989033Y-113947739D01*
X119989034Y-113947740D01*
X120044399Y-114030601D01*
X120117920Y-114079725D01*
X120162726Y-114133338D01*
X120171433Y-114202662D01*
X120141279Y-114265690D01*
X120124517Y-114281203D01*
X120071720Y-114321715D01*
X119975463Y-114447160D01*
X119914956Y-114593237D01*
X119914955Y-114593239D01*
X119894318Y-114749998D01*
X119894318Y-114750001D01*
X115069448Y-114750001D01*
X115060740Y-114734918D01*
X115023284Y-114644491D01*
X115014906Y-114613223D01*
X115000531Y-114504035D01*
X115000000Y-114495933D01*
X115000000Y-113004066D01*
X115000531Y-112995964D01*
X115014906Y-112886776D01*
X115023284Y-112855508D01*
X115060740Y-112765081D01*
X115076923Y-112737050D01*
X115136513Y-112659392D01*
X115159392Y-112636513D01*
X115237050Y-112576923D01*
X115265079Y-112560740D01*
X115355509Y-112523283D01*
X115386775Y-112514906D01*
X115495967Y-112500530D01*
X115504067Y-112500000D01*
X117987789Y-112500000D01*
X118011980Y-112502383D01*
G37*
%TD.AperFunction*%
%TD*%
M02*
