%TF.GenerationSoftware,KiCad,Pcbnew,7.0.1*%
%TF.CreationDate,2023-05-02T18:46:26+03:00*%
%TF.ProjectId,picoups,7069636f-7570-4732-9e6b-696361645f70,rev?*%
%TF.SameCoordinates,Original*%
%TF.FileFunction,Soldermask,Bot*%
%TF.FilePolarity,Negative*%
%FSLAX46Y46*%
G04 Gerber Fmt 4.6, Leading zero omitted, Abs format (unit mm)*
G04 Created by KiCad (PCBNEW 7.0.1) date 2023-05-02 18:46:26*
%MOMM*%
%LPD*%
G01*
G04 APERTURE LIST*
G04 Aperture macros list*
%AMRoundRect*
0 Rectangle with rounded corners*
0 $1 Rounding radius*
0 $2 $3 $4 $5 $6 $7 $8 $9 X,Y pos of 4 corners*
0 Add a 4 corners polygon primitive as box body*
4,1,4,$2,$3,$4,$5,$6,$7,$8,$9,$2,$3,0*
0 Add four circle primitives for the rounded corners*
1,1,$1+$1,$2,$3*
1,1,$1+$1,$4,$5*
1,1,$1+$1,$6,$7*
1,1,$1+$1,$8,$9*
0 Add four rect primitives between the rounded corners*
20,1,$1+$1,$2,$3,$4,$5,0*
20,1,$1+$1,$4,$5,$6,$7,0*
20,1,$1+$1,$6,$7,$8,$9,0*
20,1,$1+$1,$8,$9,$2,$3,0*%
%AMOutline5P*
0 Free polygon, 5 corners , with rotation*
0 The origin of the aperture is its center*
0 number of corners: always 5*
0 $1 to $10 corner X, Y*
0 $11 Rotation angle, in degrees counterclockwise*
0 create outline with 5 corners*
4,1,5,$1,$2,$3,$4,$5,$6,$7,$8,$9,$10,$1,$2,$11*%
%AMOutline6P*
0 Free polygon, 6 corners , with rotation*
0 The origin of the aperture is its center*
0 number of corners: always 6*
0 $1 to $12 corner X, Y*
0 $13 Rotation angle, in degrees counterclockwise*
0 create outline with 6 corners*
4,1,6,$1,$2,$3,$4,$5,$6,$7,$8,$9,$10,$11,$12,$1,$2,$13*%
%AMOutline7P*
0 Free polygon, 7 corners , with rotation*
0 The origin of the aperture is its center*
0 number of corners: always 7*
0 $1 to $14 corner X, Y*
0 $15 Rotation angle, in degrees counterclockwise*
0 create outline with 7 corners*
4,1,7,$1,$2,$3,$4,$5,$6,$7,$8,$9,$10,$11,$12,$13,$14,$1,$2,$15*%
%AMOutline8P*
0 Free polygon, 8 corners , with rotation*
0 The origin of the aperture is its center*
0 number of corners: always 8*
0 $1 to $16 corner X, Y*
0 $17 Rotation angle, in degrees counterclockwise*
0 create outline with 8 corners*
4,1,8,$1,$2,$3,$4,$5,$6,$7,$8,$9,$10,$11,$12,$13,$14,$15,$16,$1,$2,$17*%
G04 Aperture macros list end*
%ADD10C,0.264583*%
%ADD11R,1.100000X2.000000*%
%ADD12R,0.800000X0.800000*%
%ADD13RoundRect,0.250000X0.350000X0.625000X-0.350000X0.625000X-0.350000X-0.625000X0.350000X-0.625000X0*%
%ADD14O,1.200000X1.750000*%
%ADD15C,5.400000*%
%ADD16Outline5P,-0.850000X0.425000X-0.425000X0.850000X0.850000X0.850000X0.850000X-0.850000X-0.850000X-0.850000X90.000000*%
%ADD17C,1.700000*%
%ADD18O,1.700000X1.700000*%
%ADD19RoundRect,0.250000X0.625000X-0.350000X0.625000X0.350000X-0.625000X0.350000X-0.625000X-0.350000X0*%
%ADD20O,1.750000X1.200000*%
G04 APERTURE END LIST*
%TO.C,REF\u002A\u002A*%
G36*
X146030023Y-108219771D02*
G01*
X146059581Y-108222648D01*
X146088946Y-108227445D01*
X146118022Y-108234160D01*
X146146712Y-108242794D01*
X146174920Y-108253347D01*
X146202550Y-108265818D01*
X146229505Y-108280208D01*
X147604321Y-109073958D01*
X147612967Y-109079341D01*
X147621172Y-109085238D01*
X147628920Y-109091623D01*
X147636194Y-109098466D01*
X147642978Y-109105740D01*
X147649257Y-109113417D01*
X147655014Y-109121470D01*
X147660234Y-109129871D01*
X147664899Y-109138591D01*
X147668995Y-109147603D01*
X147672504Y-109156880D01*
X147675411Y-109166392D01*
X147677701Y-109176113D01*
X147679356Y-109186015D01*
X147680361Y-109196070D01*
X147680699Y-109206249D01*
X147680614Y-109211353D01*
X147680361Y-109216429D01*
X147679941Y-109221474D01*
X147679356Y-109226484D01*
X147678609Y-109231455D01*
X147677701Y-109236385D01*
X147676634Y-109241270D01*
X147675411Y-109246107D01*
X147674034Y-109250891D01*
X147672504Y-109255619D01*
X147670824Y-109260289D01*
X147668995Y-109264896D01*
X147667019Y-109269436D01*
X147664899Y-109273908D01*
X147662637Y-109278306D01*
X147660234Y-109282628D01*
X147657692Y-109286870D01*
X147655014Y-109291029D01*
X147652202Y-109295100D01*
X147649257Y-109299082D01*
X147646182Y-109302969D01*
X147642978Y-109306759D01*
X147639648Y-109310448D01*
X147636194Y-109314033D01*
X147632617Y-109317510D01*
X147628920Y-109320876D01*
X147625104Y-109324128D01*
X147621172Y-109327261D01*
X147617126Y-109330272D01*
X147612967Y-109333158D01*
X147608698Y-109335916D01*
X147604321Y-109338541D01*
X146229505Y-110132291D01*
X146202550Y-110146681D01*
X146174920Y-110159152D01*
X146146712Y-110169705D01*
X146118022Y-110178338D01*
X146088946Y-110185054D01*
X146059581Y-110189850D01*
X146030023Y-110192728D01*
X146000369Y-110193688D01*
X145970715Y-110192728D01*
X145941157Y-110189850D01*
X145911792Y-110185054D01*
X145882717Y-110178338D01*
X145854027Y-110169705D01*
X145825818Y-110159152D01*
X145798189Y-110146681D01*
X145771234Y-110132291D01*
X144396418Y-109338541D01*
X144387771Y-109333158D01*
X144379566Y-109327261D01*
X144371819Y-109320876D01*
X144364545Y-109314033D01*
X144357760Y-109306759D01*
X144351481Y-109299082D01*
X144345724Y-109291029D01*
X144340505Y-109282628D01*
X144335840Y-109273908D01*
X144331744Y-109264896D01*
X144328235Y-109255619D01*
X144325327Y-109246107D01*
X144323038Y-109236385D01*
X144321383Y-109226484D01*
X144320378Y-109216429D01*
X144320039Y-109206249D01*
X144320124Y-109201146D01*
X144320378Y-109196070D01*
X144320798Y-109191025D01*
X144321383Y-109186015D01*
X144322130Y-109181043D01*
X144323038Y-109176113D01*
X144324104Y-109171228D01*
X144325327Y-109166392D01*
X144326705Y-109161608D01*
X144328235Y-109156880D01*
X144329915Y-109152210D01*
X144331744Y-109147603D01*
X144333720Y-109143062D01*
X144335840Y-109138591D01*
X144338102Y-109134193D01*
X144340505Y-109129871D01*
X144343046Y-109125629D01*
X144345724Y-109121470D01*
X144348536Y-109117399D01*
X144351481Y-109113417D01*
X144354556Y-109109530D01*
X144357760Y-109105740D01*
X144361090Y-109102051D01*
X144364545Y-109098466D01*
X144368121Y-109094989D01*
X144371819Y-109091623D01*
X144375634Y-109088371D01*
X144379566Y-109085238D01*
X144383613Y-109082227D01*
X144387771Y-109079341D01*
X144392040Y-109076583D01*
X144396418Y-109073958D01*
X145771234Y-108280208D01*
X145798189Y-108265818D01*
X145825819Y-108253347D01*
X145854027Y-108242794D01*
X145882717Y-108234160D01*
X145911793Y-108227445D01*
X145941157Y-108222648D01*
X145970715Y-108219771D01*
X146000369Y-108218811D01*
X146030023Y-108219771D01*
G37*
G36*
X143967800Y-109410395D02*
G01*
X143997358Y-109413273D01*
X144026723Y-109418070D01*
X144055799Y-109424785D01*
X144084489Y-109433419D01*
X144112697Y-109443972D01*
X144140327Y-109456443D01*
X144167282Y-109470833D01*
X145542098Y-110264583D01*
X145546476Y-110267208D01*
X145550745Y-110269966D01*
X145554903Y-110272852D01*
X145558950Y-110275863D01*
X145562882Y-110278996D01*
X145566697Y-110282247D01*
X145570395Y-110285613D01*
X145573971Y-110289091D01*
X145577426Y-110292675D01*
X145580756Y-110296365D01*
X145583960Y-110300155D01*
X145587035Y-110304042D01*
X145589979Y-110308024D01*
X145592792Y-110312095D01*
X145595470Y-110316254D01*
X145598011Y-110320496D01*
X145600414Y-110324818D01*
X145602676Y-110329216D01*
X145604796Y-110333687D01*
X145606772Y-110338228D01*
X145608601Y-110342835D01*
X145610281Y-110347505D01*
X145611811Y-110352233D01*
X145613189Y-110357017D01*
X145614412Y-110361854D01*
X145615478Y-110366738D01*
X145616386Y-110371668D01*
X145617133Y-110376640D01*
X145617718Y-110381650D01*
X145618138Y-110386695D01*
X145618392Y-110391771D01*
X145618477Y-110396874D01*
X145618138Y-110407054D01*
X145617133Y-110417109D01*
X145615478Y-110427010D01*
X145613189Y-110436731D01*
X145610281Y-110446244D01*
X145606772Y-110455520D01*
X145602676Y-110464533D01*
X145598011Y-110473253D01*
X145592792Y-110481653D01*
X145587035Y-110489706D01*
X145580756Y-110497384D01*
X145573971Y-110504658D01*
X145566697Y-110511501D01*
X145558950Y-110517886D01*
X145550745Y-110523783D01*
X145542098Y-110529166D01*
X144167282Y-111322916D01*
X144140327Y-111337306D01*
X144112697Y-111349777D01*
X144084489Y-111360329D01*
X144055799Y-111368963D01*
X144026723Y-111375679D01*
X143997358Y-111380475D01*
X143967801Y-111383353D01*
X143938146Y-111384312D01*
X143908492Y-111383353D01*
X143878935Y-111380475D01*
X143849570Y-111375679D01*
X143820494Y-111368963D01*
X143791804Y-111360329D01*
X143763596Y-111349777D01*
X143735966Y-111337306D01*
X143709011Y-111322916D01*
X142334196Y-110529166D01*
X142329818Y-110526541D01*
X142325549Y-110523783D01*
X142321390Y-110520897D01*
X142317344Y-110517886D01*
X142313412Y-110514753D01*
X142309596Y-110511501D01*
X142305899Y-110508135D01*
X142302322Y-110504658D01*
X142298868Y-110501073D01*
X142295538Y-110497384D01*
X142292334Y-110493594D01*
X142289259Y-110489706D01*
X142286314Y-110485725D01*
X142283502Y-110481653D01*
X142280824Y-110477495D01*
X142278282Y-110473253D01*
X142275879Y-110468931D01*
X142273617Y-110464533D01*
X142271497Y-110460061D01*
X142269521Y-110455520D01*
X142267692Y-110450914D01*
X142266012Y-110446244D01*
X142264482Y-110441516D01*
X142263105Y-110436731D01*
X142261882Y-110431895D01*
X142260815Y-110427010D01*
X142259908Y-110422080D01*
X142259160Y-110417109D01*
X142258576Y-110412099D01*
X142258155Y-110407054D01*
X142257902Y-110401978D01*
X142257817Y-110396874D01*
X142258155Y-110386695D01*
X142259160Y-110376640D01*
X142260815Y-110366738D01*
X142263105Y-110357017D01*
X142266012Y-110347505D01*
X142269521Y-110338228D01*
X142273617Y-110329216D01*
X142278282Y-110320496D01*
X142283502Y-110312095D01*
X142289259Y-110304042D01*
X142295538Y-110296365D01*
X142302322Y-110289091D01*
X142309596Y-110282247D01*
X142317344Y-110275863D01*
X142325549Y-110269966D01*
X142334196Y-110264583D01*
X143709011Y-109470833D01*
X143735966Y-109456443D01*
X143763596Y-109443972D01*
X143791804Y-109433419D01*
X143820494Y-109424785D01*
X143849570Y-109418070D01*
X143878935Y-109413273D01*
X143908492Y-109410395D01*
X143938146Y-109409436D01*
X143967800Y-109410395D01*
G37*
G36*
X143967800Y-107029146D02*
G01*
X143997358Y-107032024D01*
X144026723Y-107036820D01*
X144055799Y-107043535D01*
X144084489Y-107052169D01*
X144112697Y-107062722D01*
X144140327Y-107075193D01*
X144167282Y-107089583D01*
X145542098Y-107883333D01*
X145546476Y-107885958D01*
X145550745Y-107888716D01*
X145554903Y-107891602D01*
X145558950Y-107894613D01*
X145562882Y-107897746D01*
X145566697Y-107900998D01*
X145570395Y-107904364D01*
X145573971Y-107907841D01*
X145577426Y-107911426D01*
X145580756Y-107915115D01*
X145583960Y-107918905D01*
X145587035Y-107922792D01*
X145589979Y-107926774D01*
X145592792Y-107930845D01*
X145595470Y-107935004D01*
X145598011Y-107939246D01*
X145600414Y-107943568D01*
X145602676Y-107947966D01*
X145604796Y-107952438D01*
X145606772Y-107956978D01*
X145608601Y-107961585D01*
X145610281Y-107966255D01*
X145611811Y-107970983D01*
X145613189Y-107975767D01*
X145614412Y-107980604D01*
X145615478Y-107985489D01*
X145616386Y-107990419D01*
X145617133Y-107995390D01*
X145617718Y-108000400D01*
X145618138Y-108005445D01*
X145618392Y-108010521D01*
X145618477Y-108015625D01*
X145618138Y-108025804D01*
X145617133Y-108035859D01*
X145615478Y-108045760D01*
X145613189Y-108055482D01*
X145610281Y-108064994D01*
X145606772Y-108074271D01*
X145602676Y-108083283D01*
X145598011Y-108092003D01*
X145592792Y-108100404D01*
X145587035Y-108108457D01*
X145580756Y-108116134D01*
X145573971Y-108123408D01*
X145566697Y-108130251D01*
X145558950Y-108136636D01*
X145550745Y-108142533D01*
X145542098Y-108147916D01*
X144167282Y-108941666D01*
X144140327Y-108956056D01*
X144112697Y-108968527D01*
X144084489Y-108979080D01*
X144055799Y-108987714D01*
X144026723Y-108994429D01*
X143997358Y-108999226D01*
X143967801Y-109002104D01*
X143938146Y-109003063D01*
X143908492Y-109002104D01*
X143878935Y-108999226D01*
X143849570Y-108994429D01*
X143820494Y-108987714D01*
X143791804Y-108979080D01*
X143763596Y-108968527D01*
X143735966Y-108956056D01*
X143709011Y-108941666D01*
X142334196Y-108147916D01*
X142329818Y-108145291D01*
X142325549Y-108142533D01*
X142321390Y-108139647D01*
X142317344Y-108136636D01*
X142313412Y-108133503D01*
X142309596Y-108130251D01*
X142305899Y-108126885D01*
X142302322Y-108123408D01*
X142298868Y-108119823D01*
X142295538Y-108116134D01*
X142292334Y-108112344D01*
X142289259Y-108108457D01*
X142286314Y-108104475D01*
X142283502Y-108100404D01*
X142280824Y-108096245D01*
X142278282Y-108092003D01*
X142275879Y-108087681D01*
X142273617Y-108083283D01*
X142271497Y-108078812D01*
X142269521Y-108074271D01*
X142267692Y-108069664D01*
X142266012Y-108064994D01*
X142264482Y-108060266D01*
X142263105Y-108055482D01*
X142261882Y-108050645D01*
X142260815Y-108045760D01*
X142259908Y-108040830D01*
X142259160Y-108035859D01*
X142258576Y-108030849D01*
X142258155Y-108025804D01*
X142257902Y-108020728D01*
X142257817Y-108015625D01*
X142258155Y-108005445D01*
X142259160Y-107995390D01*
X142260815Y-107985489D01*
X142263105Y-107975767D01*
X142266012Y-107966255D01*
X142269521Y-107956978D01*
X142273617Y-107947966D01*
X142278282Y-107939246D01*
X142283502Y-107930845D01*
X142289259Y-107922792D01*
X142295538Y-107915115D01*
X142302322Y-107907841D01*
X142309596Y-107900997D01*
X142317344Y-107894613D01*
X142325549Y-107888716D01*
X142334196Y-107883333D01*
X143709011Y-107089583D01*
X143735966Y-107075193D01*
X143763596Y-107062722D01*
X143791804Y-107052169D01*
X143820494Y-107043535D01*
X143849570Y-107036820D01*
X143878935Y-107032024D01*
X143908492Y-107029146D01*
X143938146Y-107028186D01*
X143967800Y-107029146D01*
G37*
G36*
X141905578Y-110601020D02*
G01*
X141935136Y-110603898D01*
X141964500Y-110608695D01*
X141993576Y-110615410D01*
X142022266Y-110624044D01*
X142050474Y-110634597D01*
X142078104Y-110647068D01*
X142105059Y-110661458D01*
X143479875Y-111455208D01*
X143484253Y-111457833D01*
X143488522Y-111460591D01*
X143492680Y-111463477D01*
X143496727Y-111466488D01*
X143500659Y-111469621D01*
X143504474Y-111472872D01*
X143508172Y-111476238D01*
X143511749Y-111479716D01*
X143515203Y-111483301D01*
X143518533Y-111486990D01*
X143521737Y-111490780D01*
X143524812Y-111494667D01*
X143527757Y-111498649D01*
X143530569Y-111502720D01*
X143533247Y-111506879D01*
X143535788Y-111511121D01*
X143538191Y-111515443D01*
X143540454Y-111519841D01*
X143542574Y-111524312D01*
X143544549Y-111528853D01*
X143546378Y-111533460D01*
X143548059Y-111538129D01*
X143549589Y-111542858D01*
X143550966Y-111547642D01*
X143552189Y-111552478D01*
X143553256Y-111557363D01*
X143554163Y-111562293D01*
X143554911Y-111567265D01*
X143555495Y-111572275D01*
X143555916Y-111577320D01*
X143556169Y-111582395D01*
X143556254Y-111587499D01*
X143555916Y-111597679D01*
X143554911Y-111607733D01*
X143553256Y-111617635D01*
X143550966Y-111627356D01*
X143548059Y-111636869D01*
X143544549Y-111646145D01*
X143540454Y-111655158D01*
X143535788Y-111663878D01*
X143530569Y-111672279D01*
X143524812Y-111680331D01*
X143518533Y-111688009D01*
X143511749Y-111695283D01*
X143504474Y-111702126D01*
X143496727Y-111708510D01*
X143488522Y-111714408D01*
X143479875Y-111719791D01*
X142105060Y-112513541D01*
X142078105Y-112527931D01*
X142050475Y-112540402D01*
X142022267Y-112550954D01*
X141993577Y-112559588D01*
X141964501Y-112566304D01*
X141935136Y-112571100D01*
X141905578Y-112573978D01*
X141875924Y-112574938D01*
X141846270Y-112573978D01*
X141816712Y-112571100D01*
X141787347Y-112566304D01*
X141758271Y-112559588D01*
X141729581Y-112550954D01*
X141701373Y-112540402D01*
X141673743Y-112527931D01*
X141646788Y-112513541D01*
X140271973Y-111719791D01*
X140267596Y-111717166D01*
X140263327Y-111714408D01*
X140259168Y-111711522D01*
X140255121Y-111708510D01*
X140251189Y-111705377D01*
X140247374Y-111702126D01*
X140243676Y-111698760D01*
X140240100Y-111695283D01*
X140236645Y-111691698D01*
X140233315Y-111688009D01*
X140230111Y-111684219D01*
X140227036Y-111680331D01*
X140224091Y-111676350D01*
X140221279Y-111672279D01*
X140218601Y-111668120D01*
X140216060Y-111663878D01*
X140213657Y-111659556D01*
X140211394Y-111655158D01*
X140209274Y-111650686D01*
X140207299Y-111646145D01*
X140205470Y-111641539D01*
X140203790Y-111636869D01*
X140202260Y-111632141D01*
X140200882Y-111627356D01*
X140199659Y-111622520D01*
X140198593Y-111617635D01*
X140197685Y-111612705D01*
X140196938Y-111607733D01*
X140196353Y-111602723D01*
X140195933Y-111597679D01*
X140195679Y-111592603D01*
X140195594Y-111587499D01*
X140195933Y-111577320D01*
X140196938Y-111567265D01*
X140198593Y-111557363D01*
X140200882Y-111547642D01*
X140203789Y-111538129D01*
X140207299Y-111528853D01*
X140211394Y-111519841D01*
X140216059Y-111511121D01*
X140221279Y-111502720D01*
X140227036Y-111494667D01*
X140233314Y-111486990D01*
X140240099Y-111479716D01*
X140247373Y-111472872D01*
X140255120Y-111466488D01*
X140263326Y-111460591D01*
X140271972Y-111455208D01*
X141646788Y-110661458D01*
X141673743Y-110647068D01*
X141701373Y-110634597D01*
X141729581Y-110624044D01*
X141758271Y-110615410D01*
X141787347Y-110608695D01*
X141816712Y-110603898D01*
X141846270Y-110601020D01*
X141875924Y-110600061D01*
X141905578Y-110601020D01*
G37*
G36*
X137781132Y-108219771D02*
G01*
X137810689Y-108222648D01*
X137840054Y-108227445D01*
X137869130Y-108234160D01*
X137897820Y-108242794D01*
X137926029Y-108253347D01*
X137953658Y-108265818D01*
X137980613Y-108280208D01*
X139355428Y-109073958D01*
X139364075Y-109079341D01*
X139372280Y-109085238D01*
X139380028Y-109091623D01*
X139387302Y-109098466D01*
X139394086Y-109105740D01*
X139400365Y-109113417D01*
X139406122Y-109121470D01*
X139411341Y-109129871D01*
X139416007Y-109138591D01*
X139420102Y-109147603D01*
X139423612Y-109156880D01*
X139426519Y-109166392D01*
X139428809Y-109176113D01*
X139430464Y-109186015D01*
X139431469Y-109196070D01*
X139431807Y-109206249D01*
X139431722Y-109211353D01*
X139431469Y-109216429D01*
X139431049Y-109221474D01*
X139430464Y-109226484D01*
X139429717Y-109231455D01*
X139428809Y-109236385D01*
X139427742Y-109241270D01*
X139426519Y-109246107D01*
X139425142Y-109250891D01*
X139423612Y-109255619D01*
X139421931Y-109260289D01*
X139420102Y-109264896D01*
X139418127Y-109269436D01*
X139416007Y-109273908D01*
X139413744Y-109278306D01*
X139411341Y-109282628D01*
X139408800Y-109286870D01*
X139406122Y-109291029D01*
X139403310Y-109295100D01*
X139400365Y-109299082D01*
X139397290Y-109302969D01*
X139394086Y-109306759D01*
X139390756Y-109310448D01*
X139387302Y-109314033D01*
X139383725Y-109317510D01*
X139380028Y-109320876D01*
X139376212Y-109324128D01*
X139372280Y-109327261D01*
X139368234Y-109330272D01*
X139364075Y-109333158D01*
X139359806Y-109335916D01*
X139355428Y-109338541D01*
X137980613Y-110132291D01*
X137953658Y-110146681D01*
X137926029Y-110159152D01*
X137897820Y-110169705D01*
X137869130Y-110178338D01*
X137840054Y-110185054D01*
X137810689Y-110189850D01*
X137781132Y-110192728D01*
X137751478Y-110193688D01*
X137721823Y-110192728D01*
X137692266Y-110189850D01*
X137662901Y-110185054D01*
X137633825Y-110178338D01*
X137605135Y-110169705D01*
X137576927Y-110159152D01*
X137549297Y-110146681D01*
X137522342Y-110132291D01*
X136147527Y-109338541D01*
X136138881Y-109333158D01*
X136130675Y-109327261D01*
X136122928Y-109320876D01*
X136115653Y-109314033D01*
X136108869Y-109306759D01*
X136102590Y-109299082D01*
X136096833Y-109291029D01*
X136091613Y-109282628D01*
X136086948Y-109273908D01*
X136082852Y-109264896D01*
X136079343Y-109255619D01*
X136076435Y-109246107D01*
X136074146Y-109236385D01*
X136072491Y-109226484D01*
X136071486Y-109216429D01*
X136071148Y-109206249D01*
X136071233Y-109201146D01*
X136071486Y-109196070D01*
X136071906Y-109191025D01*
X136072491Y-109186015D01*
X136073238Y-109181043D01*
X136074146Y-109176113D01*
X136075212Y-109171228D01*
X136076435Y-109166392D01*
X136077813Y-109161608D01*
X136079343Y-109156880D01*
X136081023Y-109152210D01*
X136082852Y-109147603D01*
X136084828Y-109143062D01*
X136086948Y-109138591D01*
X136089210Y-109134193D01*
X136091613Y-109129871D01*
X136094155Y-109125629D01*
X136096833Y-109121470D01*
X136099645Y-109117399D01*
X136102590Y-109113417D01*
X136105665Y-109109530D01*
X136108869Y-109105740D01*
X136112199Y-109102051D01*
X136115653Y-109098466D01*
X136119230Y-109094989D01*
X136122928Y-109091623D01*
X136126743Y-109088371D01*
X136130675Y-109085238D01*
X136134722Y-109082227D01*
X136138881Y-109079341D01*
X136143150Y-109076583D01*
X136147527Y-109073958D01*
X137522342Y-108280208D01*
X137549297Y-108265818D01*
X137576927Y-108253347D01*
X137605135Y-108242794D01*
X137633825Y-108234160D01*
X137662901Y-108227445D01*
X137692266Y-108222648D01*
X137721823Y-108219771D01*
X137751478Y-108218811D01*
X137781132Y-108219771D01*
G37*
G36*
X141905578Y-108219770D02*
G01*
X141935136Y-108222648D01*
X141964501Y-108227445D01*
X141993576Y-108234160D01*
X142022266Y-108242794D01*
X142050475Y-108253347D01*
X142078104Y-108265818D01*
X142105059Y-108280208D01*
X143479875Y-109073958D01*
X143479874Y-109073958D01*
X143488521Y-109079341D01*
X143496726Y-109085238D01*
X143504474Y-109091623D01*
X143511748Y-109098466D01*
X143518532Y-109105740D01*
X143524811Y-109113417D01*
X143530568Y-109121470D01*
X143535787Y-109129871D01*
X143540453Y-109138591D01*
X143544548Y-109147603D01*
X143548058Y-109156880D01*
X143550965Y-109166392D01*
X143553255Y-109176113D01*
X143554910Y-109186015D01*
X143555915Y-109196070D01*
X143556253Y-109206249D01*
X143556168Y-109211353D01*
X143555915Y-109216429D01*
X143555494Y-109221474D01*
X143554910Y-109226484D01*
X143554162Y-109231455D01*
X143553255Y-109236385D01*
X143552188Y-109241270D01*
X143550965Y-109246107D01*
X143549588Y-109250891D01*
X143548058Y-109255619D01*
X143546377Y-109260289D01*
X143544548Y-109264896D01*
X143542573Y-109269436D01*
X143540453Y-109273908D01*
X143538190Y-109278306D01*
X143535787Y-109282628D01*
X143533246Y-109286870D01*
X143530568Y-109291029D01*
X143527756Y-109295100D01*
X143524811Y-109299082D01*
X143521736Y-109302969D01*
X143518532Y-109306759D01*
X143515202Y-109310448D01*
X143511748Y-109314033D01*
X143508171Y-109317510D01*
X143504474Y-109320876D01*
X143500658Y-109324128D01*
X143496726Y-109327261D01*
X143492680Y-109330272D01*
X143488521Y-109333158D01*
X143484252Y-109335916D01*
X143479874Y-109338541D01*
X142105058Y-110132291D01*
X142078103Y-110146681D01*
X142050474Y-110159152D01*
X142022265Y-110169705D01*
X141993575Y-110178338D01*
X141964499Y-110185054D01*
X141935135Y-110189850D01*
X141905577Y-110192728D01*
X141875923Y-110193688D01*
X141846269Y-110192728D01*
X141816711Y-110189850D01*
X141787346Y-110185054D01*
X141758270Y-110178338D01*
X141729580Y-110169705D01*
X141701372Y-110159152D01*
X141673742Y-110146681D01*
X141646787Y-110132291D01*
X140271972Y-109338541D01*
X140263326Y-109333158D01*
X140255120Y-109327261D01*
X140247373Y-109320876D01*
X140240098Y-109314033D01*
X140233314Y-109306759D01*
X140227035Y-109299082D01*
X140221278Y-109291029D01*
X140216058Y-109282628D01*
X140211393Y-109273908D01*
X140207297Y-109264896D01*
X140203788Y-109255619D01*
X140200880Y-109246107D01*
X140198591Y-109236385D01*
X140196936Y-109226484D01*
X140195931Y-109216429D01*
X140195593Y-109206249D01*
X140195678Y-109201146D01*
X140195931Y-109196070D01*
X140196351Y-109191025D01*
X140196936Y-109186015D01*
X140197683Y-109181043D01*
X140198591Y-109176113D01*
X140199657Y-109171228D01*
X140200880Y-109166392D01*
X140202258Y-109161608D01*
X140203788Y-109156880D01*
X140205468Y-109152210D01*
X140207297Y-109147603D01*
X140209273Y-109143062D01*
X140211393Y-109138591D01*
X140213655Y-109134193D01*
X140216058Y-109129871D01*
X140218600Y-109125629D01*
X140221278Y-109121470D01*
X140224090Y-109117399D01*
X140227035Y-109113417D01*
X140230110Y-109109530D01*
X140233314Y-109105740D01*
X140236644Y-109102051D01*
X140240098Y-109098466D01*
X140243675Y-109094989D01*
X140247373Y-109091623D01*
X140251188Y-109088371D01*
X140255120Y-109085238D01*
X140259167Y-109082227D01*
X140263326Y-109079341D01*
X140267595Y-109076583D01*
X140271972Y-109073958D01*
X141646788Y-108280208D01*
X141673743Y-108265818D01*
X141701373Y-108253347D01*
X141729582Y-108242794D01*
X141758272Y-108234160D01*
X141787348Y-108227445D01*
X141816712Y-108222648D01*
X141846270Y-108219770D01*
X141875924Y-108218811D01*
X141905578Y-108219770D01*
G37*
G36*
X141905577Y-105838521D02*
G01*
X141935135Y-105841399D01*
X141964499Y-105846195D01*
X141993575Y-105852910D01*
X142022265Y-105861544D01*
X142050474Y-105872097D01*
X142078103Y-105884568D01*
X142105058Y-105898958D01*
X143479874Y-106692708D01*
X143484252Y-106695333D01*
X143488521Y-106698091D01*
X143492680Y-106700977D01*
X143496726Y-106703988D01*
X143500658Y-106707121D01*
X143504474Y-106710373D01*
X143508171Y-106713739D01*
X143511748Y-106717216D01*
X143515202Y-106720801D01*
X143518532Y-106724490D01*
X143521736Y-106728280D01*
X143524811Y-106732167D01*
X143527756Y-106736149D01*
X143530568Y-106740220D01*
X143533246Y-106744379D01*
X143535787Y-106748621D01*
X143538190Y-106752943D01*
X143540453Y-106757341D01*
X143542573Y-106761813D01*
X143544548Y-106766353D01*
X143546377Y-106770960D01*
X143548058Y-106775630D01*
X143549588Y-106780358D01*
X143550965Y-106785142D01*
X143552188Y-106789979D01*
X143553255Y-106794864D01*
X143554162Y-106799794D01*
X143554910Y-106804765D01*
X143555494Y-106809775D01*
X143555915Y-106814820D01*
X143556168Y-106819896D01*
X143556253Y-106825000D01*
X143555915Y-106835179D01*
X143554910Y-106845234D01*
X143553255Y-106855135D01*
X143550965Y-106864857D01*
X143548058Y-106874369D01*
X143544548Y-106883646D01*
X143540453Y-106892658D01*
X143535787Y-106901378D01*
X143530568Y-106909779D01*
X143524811Y-106917832D01*
X143518532Y-106925509D01*
X143511748Y-106932783D01*
X143504474Y-106939626D01*
X143496726Y-106946011D01*
X143488521Y-106951908D01*
X143479874Y-106957291D01*
X143479875Y-106957291D01*
X142105059Y-107751041D01*
X142078104Y-107765431D01*
X142050475Y-107777902D01*
X142022266Y-107788455D01*
X141993576Y-107797089D01*
X141964501Y-107803804D01*
X141935136Y-107808601D01*
X141905578Y-107811479D01*
X141875924Y-107812438D01*
X141846270Y-107811479D01*
X141816712Y-107808601D01*
X141787348Y-107803804D01*
X141758272Y-107797089D01*
X141729582Y-107788455D01*
X141701373Y-107777902D01*
X141673743Y-107765431D01*
X141646788Y-107751041D01*
X140271972Y-106957291D01*
X140267595Y-106954666D01*
X140263326Y-106951908D01*
X140259167Y-106949022D01*
X140255120Y-106946011D01*
X140251188Y-106942878D01*
X140247373Y-106939626D01*
X140243675Y-106936260D01*
X140240098Y-106932783D01*
X140236644Y-106929198D01*
X140233314Y-106925509D01*
X140230110Y-106921719D01*
X140227035Y-106917832D01*
X140224090Y-106913850D01*
X140221278Y-106909779D01*
X140218600Y-106905620D01*
X140216058Y-106901378D01*
X140213655Y-106897056D01*
X140211393Y-106892658D01*
X140209273Y-106888186D01*
X140207297Y-106883646D01*
X140205468Y-106879039D01*
X140203788Y-106874369D01*
X140202258Y-106869641D01*
X140200880Y-106864857D01*
X140199657Y-106860020D01*
X140198591Y-106855135D01*
X140197683Y-106850205D01*
X140196936Y-106845234D01*
X140196351Y-106840224D01*
X140195931Y-106835179D01*
X140195678Y-106830103D01*
X140195593Y-106825000D01*
X140195931Y-106814820D01*
X140196936Y-106804765D01*
X140198591Y-106794864D01*
X140200880Y-106785142D01*
X140203788Y-106775630D01*
X140207297Y-106766353D01*
X140211393Y-106757341D01*
X140216058Y-106748621D01*
X140221277Y-106740220D01*
X140227034Y-106732167D01*
X140233313Y-106724490D01*
X140240098Y-106717216D01*
X140247372Y-106710373D01*
X140255120Y-106703988D01*
X140263325Y-106698091D01*
X140271971Y-106692708D01*
X141646787Y-105898958D01*
X141673742Y-105884568D01*
X141701372Y-105872097D01*
X141729580Y-105861544D01*
X141758270Y-105852910D01*
X141787346Y-105846195D01*
X141816711Y-105841399D01*
X141846269Y-105838521D01*
X141875923Y-105837561D01*
X141905577Y-105838521D01*
G37*
G36*
X139843354Y-109410395D02*
G01*
X139872912Y-109413273D01*
X139902277Y-109418070D01*
X139931353Y-109424785D01*
X139960043Y-109433419D01*
X139988251Y-109443972D01*
X140015881Y-109456443D01*
X140042836Y-109470833D01*
X141417652Y-110264583D01*
X141422029Y-110267208D01*
X141426298Y-110269966D01*
X141430457Y-110272852D01*
X141434504Y-110275863D01*
X141438436Y-110278996D01*
X141442251Y-110282247D01*
X141445949Y-110285613D01*
X141449526Y-110289091D01*
X141452980Y-110292675D01*
X141456310Y-110296365D01*
X141459514Y-110300155D01*
X141462589Y-110304042D01*
X141465534Y-110308024D01*
X141468346Y-110312095D01*
X141471024Y-110316254D01*
X141473565Y-110320496D01*
X141475968Y-110324818D01*
X141478231Y-110329216D01*
X141480351Y-110333687D01*
X141482326Y-110338228D01*
X141484155Y-110342835D01*
X141485836Y-110347505D01*
X141487366Y-110352233D01*
X141488743Y-110357017D01*
X141489966Y-110361854D01*
X141491032Y-110366738D01*
X141491940Y-110371668D01*
X141492687Y-110376640D01*
X141493272Y-110381650D01*
X141493692Y-110386695D01*
X141493946Y-110391771D01*
X141494031Y-110396874D01*
X141493692Y-110407054D01*
X141492687Y-110417109D01*
X141491032Y-110427010D01*
X141488743Y-110436731D01*
X141485836Y-110446244D01*
X141482326Y-110455520D01*
X141478231Y-110464533D01*
X141473565Y-110473253D01*
X141468346Y-110481653D01*
X141462589Y-110489706D01*
X141456310Y-110497384D01*
X141449526Y-110504658D01*
X141442251Y-110511501D01*
X141434504Y-110517886D01*
X141426298Y-110523783D01*
X141417652Y-110529166D01*
X140042836Y-111322916D01*
X140015881Y-111337306D01*
X139988251Y-111349777D01*
X139960043Y-111360329D01*
X139931353Y-111368963D01*
X139902277Y-111375679D01*
X139872912Y-111380475D01*
X139843354Y-111383353D01*
X139813700Y-111384312D01*
X139784046Y-111383353D01*
X139754489Y-111380475D01*
X139725124Y-111375679D01*
X139696048Y-111368963D01*
X139667358Y-111360329D01*
X139639150Y-111349777D01*
X139611520Y-111337306D01*
X139584565Y-111322916D01*
X138209750Y-110529166D01*
X138205372Y-110526541D01*
X138201103Y-110523783D01*
X138196944Y-110520897D01*
X138192898Y-110517886D01*
X138188966Y-110514753D01*
X138185150Y-110511501D01*
X138181453Y-110508135D01*
X138177876Y-110504658D01*
X138174421Y-110501073D01*
X138171091Y-110497384D01*
X138167888Y-110493594D01*
X138164812Y-110489706D01*
X138161868Y-110485725D01*
X138159055Y-110481653D01*
X138156377Y-110477495D01*
X138153836Y-110473253D01*
X138151433Y-110468931D01*
X138149170Y-110464533D01*
X138147050Y-110460061D01*
X138145075Y-110455520D01*
X138143246Y-110450914D01*
X138141565Y-110446244D01*
X138140035Y-110441516D01*
X138138658Y-110436731D01*
X138137435Y-110431895D01*
X138136369Y-110427010D01*
X138135461Y-110422080D01*
X138134713Y-110417109D01*
X138134129Y-110412099D01*
X138133709Y-110407054D01*
X138133455Y-110401978D01*
X138133370Y-110396874D01*
X138133709Y-110386695D01*
X138134713Y-110376640D01*
X138136368Y-110366738D01*
X138138658Y-110357017D01*
X138141565Y-110347505D01*
X138145075Y-110338228D01*
X138149170Y-110329216D01*
X138153835Y-110320496D01*
X138159055Y-110312095D01*
X138164812Y-110304042D01*
X138171091Y-110296365D01*
X138177875Y-110289091D01*
X138185149Y-110282247D01*
X138192897Y-110275863D01*
X138201102Y-110269966D01*
X138209749Y-110264583D01*
X138209750Y-110264583D01*
X139584565Y-109470833D01*
X139611520Y-109456443D01*
X139639150Y-109443972D01*
X139667358Y-109433419D01*
X139696048Y-109424785D01*
X139725124Y-109418070D01*
X139754489Y-109413273D01*
X139784046Y-109410395D01*
X139813700Y-109409436D01*
X139843354Y-109410395D01*
G37*
G36*
X139843354Y-107029146D02*
G01*
X139872912Y-107032024D01*
X139902277Y-107036820D01*
X139931353Y-107043536D01*
X139960043Y-107052169D01*
X139988251Y-107062722D01*
X140015881Y-107075193D01*
X140042836Y-107089583D01*
X140042837Y-107089583D01*
X141417653Y-107883333D01*
X141422030Y-107885958D01*
X141426299Y-107888716D01*
X141430458Y-107891602D01*
X141434505Y-107894613D01*
X141438437Y-107897746D01*
X141442252Y-107900998D01*
X141445950Y-107904363D01*
X141449526Y-107907841D01*
X141452981Y-107911426D01*
X141456311Y-107915115D01*
X141459515Y-107918905D01*
X141462590Y-107922792D01*
X141465535Y-107926774D01*
X141468347Y-107930845D01*
X141471025Y-107935004D01*
X141473566Y-107939246D01*
X141475969Y-107943568D01*
X141478232Y-107947966D01*
X141480352Y-107952438D01*
X141482327Y-107956978D01*
X141484156Y-107961585D01*
X141485837Y-107966255D01*
X141487366Y-107970983D01*
X141488744Y-107975767D01*
X141489967Y-107980604D01*
X141491033Y-107985489D01*
X141491941Y-107990419D01*
X141492688Y-107995390D01*
X141493273Y-108000400D01*
X141493693Y-108005445D01*
X141493947Y-108010521D01*
X141494032Y-108015625D01*
X141493693Y-108025804D01*
X141492688Y-108035859D01*
X141491033Y-108045760D01*
X141488744Y-108055482D01*
X141485837Y-108064994D01*
X141482327Y-108074271D01*
X141478232Y-108083283D01*
X141473566Y-108092003D01*
X141468347Y-108100404D01*
X141462590Y-108108457D01*
X141456311Y-108116134D01*
X141449526Y-108123408D01*
X141442252Y-108130251D01*
X141434505Y-108136636D01*
X141426299Y-108142533D01*
X141417653Y-108147916D01*
X140042837Y-108941666D01*
X140015882Y-108956056D01*
X139988252Y-108968527D01*
X139960043Y-108979080D01*
X139931353Y-108987714D01*
X139902278Y-108994429D01*
X139872913Y-108999226D01*
X139843355Y-109002104D01*
X139813701Y-109003063D01*
X139784047Y-109002104D01*
X139754489Y-108999226D01*
X139725124Y-108994429D01*
X139696048Y-108987714D01*
X139667358Y-108979080D01*
X139639150Y-108968527D01*
X139611520Y-108956056D01*
X139584565Y-108941666D01*
X138209750Y-108147916D01*
X138205372Y-108145291D01*
X138201103Y-108142533D01*
X138196944Y-108139647D01*
X138192898Y-108136636D01*
X138188966Y-108133503D01*
X138185150Y-108130251D01*
X138181453Y-108126885D01*
X138177876Y-108123408D01*
X138174421Y-108119823D01*
X138171091Y-108116134D01*
X138167888Y-108112344D01*
X138164812Y-108108457D01*
X138161868Y-108104475D01*
X138159055Y-108100404D01*
X138156377Y-108096245D01*
X138153836Y-108092003D01*
X138151433Y-108087681D01*
X138149170Y-108083283D01*
X138147050Y-108078811D01*
X138145075Y-108074271D01*
X138143246Y-108069664D01*
X138141565Y-108064994D01*
X138140035Y-108060266D01*
X138138658Y-108055482D01*
X138137435Y-108050645D01*
X138136369Y-108045760D01*
X138135461Y-108040830D01*
X138134713Y-108035859D01*
X138134129Y-108030849D01*
X138133709Y-108025804D01*
X138133455Y-108020728D01*
X138133370Y-108015625D01*
X138133709Y-108005445D01*
X138134713Y-107995390D01*
X138136368Y-107985489D01*
X138138658Y-107975767D01*
X138141565Y-107966255D01*
X138145075Y-107956978D01*
X138149170Y-107947966D01*
X138153835Y-107939246D01*
X138159055Y-107930845D01*
X138164812Y-107922792D01*
X138171091Y-107915115D01*
X138177875Y-107907841D01*
X138185149Y-107900998D01*
X138192897Y-107894613D01*
X138201102Y-107888716D01*
X138209749Y-107883333D01*
X139584565Y-107089583D01*
X139611520Y-107075193D01*
X139639150Y-107062722D01*
X139667358Y-107052169D01*
X139696048Y-107043536D01*
X139725124Y-107036820D01*
X139754489Y-107032024D01*
X139784046Y-107029146D01*
X139813700Y-107028186D01*
X139843354Y-107029146D01*
G37*
D10*
X133250000Y-109849999D02*
X133250000Y-103500000D01*
X133250000Y-103500000D02*
X133246954Y-103408383D01*
X133249235Y-109895932D02*
X133250000Y-109849999D01*
X133246954Y-103408383D02*
X133237910Y-103317892D01*
X133246953Y-109941616D02*
X133249235Y-109895932D01*
X133243172Y-109987017D02*
X133246953Y-109941616D01*
X133237910Y-110032107D02*
X133243172Y-109987017D01*
X133237910Y-103317892D02*
X133223014Y-103228776D01*
X133231184Y-110076852D02*
X133237910Y-110032107D01*
X133223014Y-110121223D02*
X133231184Y-110076852D01*
X133223014Y-103228776D02*
X133202410Y-103141286D01*
X133213416Y-110165187D02*
X133223014Y-110121223D01*
X133202410Y-110208713D02*
X133213416Y-110165187D01*
X133202410Y-103141286D02*
X133176244Y-103055672D01*
X133190013Y-110251770D02*
X133202410Y-110208713D01*
X133176244Y-103055672D02*
X133144658Y-102972184D01*
X133176243Y-110294327D02*
X133190013Y-110251770D01*
X133161119Y-110336352D02*
X133176243Y-110294327D01*
X133144658Y-110377814D02*
X133161119Y-110336352D01*
X133144658Y-102972184D02*
X133107799Y-102891074D01*
X133126878Y-110418682D02*
X133144658Y-110377814D01*
X133107799Y-102891074D02*
X133065810Y-102812592D01*
X133107798Y-110458924D02*
X133126878Y-110418682D01*
X133087436Y-110498510D02*
X133107798Y-110458924D01*
X133065810Y-110537407D02*
X133087436Y-110498510D01*
X133065810Y-102812592D02*
X133018837Y-102736987D01*
X133042937Y-110575585D02*
X133065810Y-110537407D01*
X133018837Y-102736987D02*
X132967023Y-102664511D01*
X133018836Y-110613011D02*
X133042937Y-110575585D01*
X132993525Y-110649656D02*
X133018836Y-110613011D01*
X132967023Y-102664511D02*
X132910513Y-102595413D01*
X132967022Y-110685488D02*
X132993525Y-110649656D01*
X132939345Y-110720474D02*
X132967022Y-110685488D01*
X132910513Y-110754585D02*
X132939345Y-110720474D01*
X132910513Y-102595413D02*
X132849453Y-102529945D01*
X132880542Y-110787788D02*
X132910513Y-110754585D01*
X132849453Y-102529945D02*
X132783986Y-102468357D01*
X132849452Y-110820053D02*
X132880542Y-110787788D01*
X132817261Y-110851348D02*
X132849452Y-110820053D01*
X132783986Y-110881641D02*
X132817261Y-110851348D01*
X132783986Y-102468357D02*
X132714257Y-102410899D01*
X132749645Y-110910903D02*
X132783986Y-110881641D01*
X132714257Y-110939100D02*
X132749645Y-110910903D01*
X132714257Y-102410899D02*
X132640412Y-102357821D01*
X132677840Y-110966202D02*
X132714257Y-110939100D01*
X132640412Y-102357821D02*
X132562593Y-102309374D01*
X132640411Y-110992177D02*
X132677840Y-110966202D01*
X132601989Y-111016995D02*
X132640411Y-110992177D01*
X132562593Y-102309374D02*
X127063332Y-99134375D01*
X132562592Y-111040624D02*
X132601989Y-111016995D01*
X127063332Y-99134375D02*
X126982467Y-99091205D01*
X127063331Y-114215623D02*
X132562592Y-111040624D01*
X126982467Y-99091205D02*
X126899577Y-99053791D01*
X126982466Y-114258793D02*
X127063331Y-114215623D01*
X126899577Y-99053791D02*
X126814952Y-99022134D01*
X126899576Y-114296207D02*
X126982466Y-114258793D01*
X126814952Y-114327864D02*
X126899576Y-114296207D01*
X126814952Y-99022134D02*
X126728882Y-98996232D01*
X126728882Y-98996232D02*
X126641655Y-98976086D01*
X126728881Y-114353766D02*
X126814952Y-114327864D01*
X126641655Y-98976086D02*
X126553560Y-98961696D01*
X126641654Y-114373912D02*
X126728881Y-114353766D01*
X126553560Y-98961696D02*
X126464887Y-98953062D01*
X126553559Y-114388302D02*
X126641654Y-114373912D01*
X126464887Y-98953062D02*
X126375924Y-98950184D01*
X126464886Y-114396936D02*
X126553559Y-114388302D01*
X126375924Y-114399814D02*
X126464886Y-114396936D01*
X126375924Y-98950184D02*
X126286962Y-98953062D01*
X126286962Y-98953062D02*
X126198289Y-98961696D01*
X126286961Y-114396936D02*
X126375924Y-114399814D01*
X126198289Y-98961696D02*
X126110194Y-98976086D01*
X126198288Y-114388302D02*
X126286961Y-114396936D01*
X126110194Y-98976086D02*
X126022966Y-98996232D01*
X126110193Y-114373912D02*
X126198288Y-114388302D01*
X126022966Y-114353766D02*
X126110193Y-114373912D01*
X126022966Y-98996232D02*
X125936896Y-99022133D01*
X125936896Y-114327864D02*
X126022966Y-114353766D01*
X125936896Y-99022133D02*
X125852271Y-99053791D01*
X125852271Y-114296207D02*
X125936896Y-114327864D01*
X125852271Y-99053791D02*
X125769382Y-99091205D01*
X125769382Y-114258793D02*
X125852271Y-114296207D01*
X125769382Y-99091205D02*
X125688516Y-99134374D01*
X125688516Y-114215623D02*
X125769382Y-114258793D01*
X125688516Y-99134374D02*
X120189255Y-102309374D01*
X120189255Y-111040624D02*
X125688516Y-114215623D01*
X120189255Y-102309374D02*
X120149858Y-102333003D01*
X120149858Y-102333003D02*
X120111437Y-102357821D01*
X120111437Y-110992177D02*
X120189255Y-111040624D01*
X120111437Y-102357821D02*
X120074008Y-102383797D01*
X120074008Y-102383797D02*
X120037591Y-102410899D01*
X120037591Y-110939100D02*
X120111437Y-110992177D01*
X120037591Y-102410899D02*
X120002202Y-102439096D01*
X120002202Y-102439096D02*
X119967862Y-102468357D01*
X119967862Y-110881641D02*
X120037591Y-110939100D01*
X119967862Y-102468357D02*
X119934586Y-102498650D01*
X119934586Y-102498650D02*
X119902395Y-102529945D01*
X119902395Y-110820053D02*
X119967862Y-110881641D01*
X119902395Y-102529945D02*
X119871305Y-102562210D01*
X119871305Y-102562210D02*
X119841334Y-102595413D01*
X119841334Y-110754585D02*
X119902395Y-110820053D01*
X119841334Y-102595413D02*
X119812502Y-102629524D01*
X119812502Y-102629524D02*
X119784825Y-102664511D01*
X119784825Y-110685488D02*
X119841334Y-110754585D01*
X119784825Y-102664511D02*
X119758322Y-102700342D01*
X119758322Y-102700342D02*
X119733011Y-102736987D01*
X119733011Y-110613011D02*
X119784825Y-110685488D01*
X119733011Y-102736987D02*
X119708910Y-102774414D01*
X119708910Y-102774414D02*
X119686037Y-102812592D01*
X119686037Y-110537407D02*
X119733011Y-110613011D01*
X119686037Y-102812592D02*
X119664411Y-102851489D01*
X119664411Y-102851489D02*
X119644049Y-102891074D01*
X119644049Y-110458924D02*
X119686037Y-110537407D01*
X119644049Y-102891074D02*
X119624969Y-102931317D01*
X119624969Y-102931317D02*
X119607189Y-102972184D01*
X119607189Y-110377814D02*
X119644049Y-110458924D01*
X119607189Y-102972184D02*
X119590728Y-103013647D01*
X119590728Y-103013647D02*
X119575604Y-103055672D01*
X119575604Y-110294327D02*
X119607189Y-110377814D01*
X119575604Y-103055672D02*
X119561834Y-103098229D01*
X119561834Y-103098229D02*
X119549437Y-103141286D01*
X119549437Y-110208713D02*
X119575604Y-110294327D01*
X119549437Y-103141286D02*
X119538431Y-103184812D01*
X119538431Y-103184812D02*
X119528833Y-103228776D01*
X119528833Y-110121223D02*
X119549437Y-110208713D01*
X119528833Y-103228776D02*
X119520663Y-103273146D01*
X119520663Y-103273146D02*
X119513937Y-103317892D01*
X119513937Y-110032107D02*
X119528833Y-110121223D01*
X119513937Y-103317892D02*
X119508675Y-103362981D01*
X119508675Y-103362981D02*
X119504894Y-103408383D01*
X119504894Y-109941616D02*
X119513937Y-110032107D01*
X119504894Y-103408383D02*
X119502612Y-103454066D01*
X119502612Y-103454066D02*
X119501847Y-103500000D01*
X119501847Y-109849999D02*
X119504894Y-109941616D01*
X119501847Y-103500000D02*
X119501847Y-109849999D01*
G36*
X131959562Y-109175105D02*
G01*
X131407141Y-109493949D01*
X131399609Y-109498097D01*
X131392094Y-109501835D01*
X131384599Y-109505162D01*
X131377123Y-109508078D01*
X131369667Y-109510583D01*
X131362234Y-109512677D01*
X131354823Y-109514361D01*
X131347436Y-109515633D01*
X131340074Y-109516494D01*
X131332737Y-109516944D01*
X131325428Y-109516983D01*
X131318146Y-109516610D01*
X131310893Y-109515825D01*
X131303671Y-109514629D01*
X131296479Y-109513021D01*
X131289318Y-109511002D01*
X131282251Y-109508618D01*
X131275336Y-109505921D01*
X131268572Y-109502909D01*
X131261960Y-109499585D01*
X131255499Y-109495948D01*
X131249187Y-109491999D01*
X131243026Y-109487740D01*
X131237014Y-109483171D01*
X131231151Y-109478293D01*
X131225436Y-109473106D01*
X131219869Y-109467612D01*
X131214449Y-109461811D01*
X131209176Y-109455704D01*
X131204050Y-109449292D01*
X131199069Y-109442575D01*
X131194234Y-109435554D01*
X131189619Y-109427876D01*
X131185298Y-109419978D01*
X131181273Y-109411860D01*
X131177543Y-109403523D01*
X131174110Y-109394965D01*
X131170973Y-109386187D01*
X131168132Y-109377188D01*
X131165589Y-109367968D01*
X131163343Y-109358527D01*
X131161396Y-109348863D01*
X131159747Y-109338978D01*
X131158397Y-109328870D01*
X131157346Y-109318540D01*
X131156595Y-109307986D01*
X131156144Y-109297210D01*
X131155994Y-109286209D01*
X131156144Y-109274665D01*
X131156595Y-109263053D01*
X131157346Y-109251370D01*
X131158397Y-109239618D01*
X131159747Y-109227795D01*
X131161396Y-109215902D01*
X131163343Y-109203936D01*
X131165589Y-109191898D01*
X131168132Y-109179788D01*
X131170973Y-109167605D01*
X131174110Y-109155348D01*
X131177543Y-109143017D01*
X131181273Y-109130611D01*
X131185298Y-109118129D01*
X131189619Y-109105573D01*
X131194234Y-109092939D01*
X131204050Y-109067925D01*
X131214449Y-109043565D01*
X131225436Y-109019857D01*
X131237014Y-108996801D01*
X131249187Y-108974393D01*
X131261960Y-108952631D01*
X131275336Y-108931514D01*
X131289318Y-108911038D01*
X131296479Y-108900753D01*
X131303671Y-108890844D01*
X131310893Y-108881315D01*
X131318146Y-108872165D01*
X131325428Y-108863394D01*
X131332737Y-108855004D01*
X131340074Y-108846996D01*
X131347436Y-108839369D01*
X131354823Y-108832124D01*
X131362234Y-108825263D01*
X131369667Y-108818786D01*
X131377123Y-108812694D01*
X131384599Y-108806986D01*
X131392094Y-108801665D01*
X131399609Y-108796730D01*
X131407141Y-108792183D01*
X131959562Y-108472822D01*
X131959562Y-109175105D01*
G37*
G36*
X132748249Y-109925963D02*
G01*
X132743967Y-109944151D01*
X132717802Y-110029768D01*
X132686220Y-110113257D01*
X132649364Y-110194368D01*
X132607378Y-110272852D01*
X132560409Y-110348457D01*
X132508599Y-110420934D01*
X132452094Y-110490031D01*
X132391039Y-110555500D01*
X132325577Y-110617088D01*
X132255854Y-110674547D01*
X132182013Y-110727625D01*
X132104201Y-110776073D01*
X131715804Y-111000317D01*
X127521590Y-113421874D01*
X127494637Y-113436253D01*
X127467010Y-113448715D01*
X127438804Y-113459258D01*
X127410118Y-113467884D01*
X127381047Y-113474591D01*
X127351686Y-113479381D01*
X127322134Y-113482252D01*
X127292485Y-113483206D01*
X127262837Y-113482242D01*
X127233286Y-113479360D01*
X127203927Y-113474560D01*
X127174858Y-113467842D01*
X127146174Y-113459206D01*
X127117973Y-113448653D01*
X127090350Y-113436182D01*
X127063401Y-113421793D01*
X127050272Y-113413918D01*
X127037468Y-113405646D01*
X127024995Y-113396989D01*
X127012859Y-113387956D01*
X127001066Y-113378558D01*
X126989621Y-113368806D01*
X126978532Y-113358710D01*
X126967804Y-113348280D01*
X126957443Y-113337527D01*
X126947455Y-113326462D01*
X126937846Y-113315094D01*
X126928622Y-113303434D01*
X126919789Y-113291493D01*
X126911354Y-113279280D01*
X126903322Y-113266807D01*
X126895698Y-113254084D01*
X126888491Y-113241121D01*
X126881704Y-113227929D01*
X126875345Y-113214518D01*
X126869418Y-113200898D01*
X126863932Y-113187081D01*
X126858890Y-113173075D01*
X126854300Y-113158893D01*
X126850167Y-113144544D01*
X126846498Y-113130038D01*
X126843298Y-113115387D01*
X126840574Y-113100600D01*
X126838331Y-113085688D01*
X126836575Y-113070662D01*
X126835313Y-113055531D01*
X126834551Y-113040306D01*
X126834294Y-113024999D01*
X126834294Y-111220458D01*
X130082674Y-111220458D01*
X130082888Y-111230556D01*
X130083530Y-111240211D01*
X130084598Y-111249424D01*
X130086092Y-111258195D01*
X130088011Y-111266524D01*
X130090355Y-111274411D01*
X130093121Y-111281856D01*
X130096310Y-111288859D01*
X130099921Y-111295420D01*
X130103953Y-111301540D01*
X130108405Y-111307217D01*
X130113276Y-111312453D01*
X130118565Y-111317246D01*
X130124272Y-111321599D01*
X130130395Y-111325509D01*
X130136934Y-111328979D01*
X130143792Y-111331555D01*
X130150870Y-111333582D01*
X130158170Y-111335060D01*
X130165692Y-111335987D01*
X130173436Y-111336364D01*
X130181402Y-111336191D01*
X130189591Y-111335468D01*
X130198003Y-111334194D01*
X130206639Y-111332370D01*
X130215497Y-111329995D01*
X130224580Y-111327069D01*
X130233886Y-111323592D01*
X130243417Y-111319565D01*
X130253173Y-111314986D01*
X130263154Y-111309855D01*
X130273360Y-111304173D01*
X130283566Y-111298069D01*
X130293547Y-111291672D01*
X130303303Y-111284982D01*
X130312834Y-111277999D01*
X130322140Y-111270723D01*
X130331223Y-111263155D01*
X130340082Y-111255293D01*
X130348717Y-111247139D01*
X130357129Y-111238692D01*
X130365318Y-111229952D01*
X130373284Y-111220919D01*
X130381028Y-111211594D01*
X130388550Y-111201975D01*
X130395850Y-111192065D01*
X130402929Y-111181862D01*
X130409786Y-111171366D01*
X130416325Y-111160347D01*
X130422448Y-111149370D01*
X130428155Y-111138434D01*
X130433444Y-111127540D01*
X130438315Y-111116690D01*
X130442767Y-111105882D01*
X130446799Y-111095119D01*
X130450410Y-111084400D01*
X130453599Y-111073726D01*
X130456366Y-111063098D01*
X130458709Y-111052516D01*
X130460628Y-111041981D01*
X130462122Y-111031492D01*
X130463191Y-111021052D01*
X130463832Y-111010660D01*
X130464046Y-111000317D01*
X130464046Y-109688768D01*
X130463832Y-109678688D01*
X130463191Y-109669084D01*
X130462122Y-109659955D01*
X130460628Y-109651299D01*
X130458709Y-109643115D01*
X130456366Y-109635402D01*
X130453599Y-109628158D01*
X130450410Y-109621383D01*
X130446799Y-109615074D01*
X130442767Y-109609230D01*
X130438315Y-109603850D01*
X130433444Y-109598933D01*
X130428155Y-109594478D01*
X130422448Y-109590482D01*
X130416325Y-109586945D01*
X130409786Y-109583865D01*
X130406386Y-109582311D01*
X130402933Y-109580897D01*
X130399427Y-109579624D01*
X130395868Y-109578492D01*
X130392254Y-109577502D01*
X130388585Y-109576654D01*
X130384862Y-109575949D01*
X130381083Y-109575387D01*
X130377248Y-109574969D01*
X130373357Y-109574695D01*
X130369410Y-109574566D01*
X130365405Y-109574583D01*
X130361343Y-109574746D01*
X130357223Y-109575055D01*
X130353044Y-109575510D01*
X130348807Y-109576114D01*
X130344513Y-109576865D01*
X130340161Y-109577765D01*
X130335753Y-109578812D01*
X130331289Y-109580006D01*
X130326768Y-109581347D01*
X130322191Y-109582833D01*
X130317559Y-109584464D01*
X130312870Y-109586239D01*
X130308125Y-109588158D01*
X130303325Y-109590221D01*
X130298469Y-109592426D01*
X130293557Y-109594773D01*
X130288591Y-109597262D01*
X130283569Y-109599891D01*
X130273360Y-109605570D01*
X130263154Y-109611685D01*
X130253173Y-109618117D01*
X130243417Y-109624866D01*
X130233886Y-109631931D01*
X130224580Y-109639313D01*
X130215497Y-109647012D01*
X130206639Y-109655028D01*
X130198003Y-109663361D01*
X130189591Y-109672012D01*
X130181402Y-109680981D01*
X130173436Y-109690268D01*
X130165692Y-109699873D01*
X130158170Y-109709797D01*
X130150870Y-109720039D01*
X130143792Y-109730599D01*
X130136934Y-109741479D01*
X130130395Y-109752108D01*
X130124272Y-109762712D01*
X130118565Y-109773291D01*
X130113276Y-109783846D01*
X130108405Y-109794378D01*
X130103953Y-109804887D01*
X130099921Y-109815375D01*
X130096310Y-109825841D01*
X130093121Y-109836288D01*
X130090355Y-109846715D01*
X130088011Y-109857123D01*
X130086092Y-109867513D01*
X130084598Y-109877886D01*
X130083530Y-109888243D01*
X130082888Y-109898584D01*
X130082674Y-109908910D01*
X130082674Y-111220458D01*
X126834294Y-111220458D01*
X126834294Y-109506351D01*
X130775138Y-109506351D01*
X130775485Y-109530620D01*
X130776526Y-109554216D01*
X130778262Y-109577139D01*
X130780692Y-109599389D01*
X130783816Y-109620965D01*
X130787634Y-109641867D01*
X130792147Y-109662096D01*
X130797355Y-109681651D01*
X130803257Y-109700532D01*
X130809853Y-109718739D01*
X130817145Y-109736272D01*
X130825130Y-109753131D01*
X130833811Y-109769316D01*
X130843186Y-109784827D01*
X130853257Y-109799664D01*
X130864022Y-109813826D01*
X130875359Y-109827272D01*
X130887147Y-109839961D01*
X130899385Y-109851893D01*
X130912071Y-109863069D01*
X130925206Y-109873489D01*
X130938790Y-109883154D01*
X130952820Y-109892064D01*
X130967298Y-109900220D01*
X130982222Y-109907621D01*
X130997592Y-109914270D01*
X131013408Y-109920165D01*
X131029668Y-109925309D01*
X131046373Y-109929700D01*
X131063522Y-109933339D01*
X131081114Y-109936228D01*
X131099149Y-109938366D01*
X131117096Y-109939538D01*
X131135216Y-109939862D01*
X131153510Y-109939340D01*
X131171978Y-109937972D01*
X131190620Y-109935758D01*
X131209436Y-109932699D01*
X131228426Y-109928794D01*
X131247589Y-109924045D01*
X131266926Y-109918452D01*
X131286436Y-109912014D01*
X131306120Y-109904732D01*
X131325977Y-109896608D01*
X131346008Y-109887640D01*
X131366212Y-109877830D01*
X131386590Y-109867178D01*
X131407141Y-109855683D01*
X131959562Y-109536839D01*
X131959562Y-110136804D01*
X131959759Y-110146911D01*
X131960349Y-110156595D01*
X131961333Y-110165856D01*
X131962712Y-110174692D01*
X131964486Y-110183103D01*
X131966656Y-110191088D01*
X131969221Y-110198647D01*
X131972183Y-110205779D01*
X131975542Y-110212484D01*
X131979298Y-110218760D01*
X131983452Y-110224608D01*
X131988004Y-110230026D01*
X131992955Y-110235014D01*
X131998305Y-110239571D01*
X132004055Y-110243697D01*
X132010205Y-110247391D01*
X132016679Y-110250186D01*
X132023400Y-110252412D01*
X132030369Y-110254069D01*
X132037585Y-110255157D01*
X132045050Y-110255678D01*
X132052762Y-110255631D01*
X132060722Y-110255018D01*
X132068930Y-110253840D01*
X132077386Y-110252097D01*
X132086090Y-110249789D01*
X132095043Y-110246918D01*
X132104243Y-110243484D01*
X132113692Y-110239489D01*
X132123390Y-110234932D01*
X132133336Y-110229814D01*
X132143530Y-110224136D01*
X132153341Y-110218261D01*
X132162929Y-110212091D01*
X132172296Y-110205628D01*
X132181439Y-110198871D01*
X132190360Y-110191820D01*
X132199059Y-110184477D01*
X132207534Y-110176840D01*
X132215786Y-110168910D01*
X132223815Y-110160687D01*
X132231621Y-110152172D01*
X132239203Y-110143364D01*
X132246561Y-110134264D01*
X132253695Y-110124872D01*
X132260606Y-110115188D01*
X132267293Y-110105212D01*
X132273755Y-110094945D01*
X132279905Y-110084151D01*
X132285654Y-110073389D01*
X132291004Y-110062658D01*
X132295955Y-110051959D01*
X132300507Y-110041290D01*
X132304661Y-110030653D01*
X132308417Y-110020047D01*
X132311776Y-110009472D01*
X132314738Y-109998928D01*
X132317303Y-109988414D01*
X132319473Y-109977930D01*
X132321247Y-109967477D01*
X132322626Y-109957054D01*
X132323610Y-109946660D01*
X132324201Y-109936297D01*
X132324397Y-109925963D01*
X132324397Y-108090934D01*
X132324189Y-108080848D01*
X132323564Y-108071227D01*
X132322521Y-108062072D01*
X132321060Y-108053383D01*
X132319180Y-108045160D01*
X132316881Y-108037403D01*
X132314161Y-108030113D01*
X132311020Y-108023289D01*
X132307457Y-108016932D01*
X132303472Y-108011042D01*
X132299064Y-108005618D01*
X132294232Y-108000662D01*
X132288976Y-107996174D01*
X132283295Y-107992153D01*
X132277188Y-107988599D01*
X132270654Y-107985514D01*
X132267057Y-107984074D01*
X132263409Y-107982775D01*
X132259710Y-107981616D01*
X132255960Y-107980597D01*
X132252160Y-107979718D01*
X132248310Y-107978980D01*
X132244410Y-107978382D01*
X132240461Y-107977925D01*
X132236461Y-107977607D01*
X132232413Y-107977430D01*
X132228315Y-107977393D01*
X132224167Y-107977496D01*
X132219972Y-107977740D01*
X132215727Y-107978124D01*
X132211434Y-107978648D01*
X132207092Y-107979312D01*
X132202699Y-107980120D01*
X132198250Y-107981073D01*
X132193746Y-107982171D01*
X132189189Y-107983414D01*
X132184579Y-107984800D01*
X132179917Y-107986328D01*
X132175203Y-107987999D01*
X132170439Y-107989810D01*
X132165626Y-107991761D01*
X132160763Y-107993853D01*
X132155853Y-107996082D01*
X132150896Y-107998450D01*
X132145892Y-108000955D01*
X132140843Y-108003596D01*
X132130611Y-108009285D01*
X131407141Y-108426830D01*
X131386590Y-108439071D01*
X131366212Y-108451962D01*
X131346008Y-108465502D01*
X131325977Y-108479690D01*
X131306120Y-108494526D01*
X131286436Y-108510009D01*
X131266926Y-108526137D01*
X131247589Y-108542910D01*
X131228426Y-108560327D01*
X131209436Y-108578387D01*
X131190620Y-108597089D01*
X131171978Y-108616432D01*
X131153510Y-108636415D01*
X131135216Y-108657038D01*
X131117096Y-108678299D01*
X131099149Y-108700198D01*
X131081114Y-108722775D01*
X131063522Y-108745614D01*
X131046373Y-108768714D01*
X131029668Y-108792076D01*
X131013408Y-108815701D01*
X130997592Y-108839587D01*
X130982222Y-108863737D01*
X130967298Y-108888149D01*
X130952820Y-108912824D01*
X130938790Y-108937763D01*
X130925206Y-108962965D01*
X130912071Y-108988431D01*
X130899385Y-109014162D01*
X130887147Y-109040156D01*
X130875359Y-109066415D01*
X130864022Y-109092939D01*
X130853257Y-109119546D01*
X130851389Y-109124462D01*
X130843186Y-109146051D01*
X130833811Y-109172456D01*
X130825130Y-109198760D01*
X130817145Y-109224961D01*
X130809853Y-109251061D01*
X130803257Y-109277058D01*
X130797355Y-109302952D01*
X130792147Y-109328742D01*
X130787634Y-109354429D01*
X130783816Y-109380012D01*
X130780692Y-109405490D01*
X130778262Y-109430864D01*
X130776526Y-109456132D01*
X130775485Y-109481294D01*
X130775138Y-109506351D01*
X126834294Y-109506351D01*
X126834294Y-109355455D01*
X130073373Y-109355455D01*
X130073558Y-109366637D01*
X130074113Y-109377161D01*
X130075039Y-109387029D01*
X130076336Y-109396239D01*
X130078004Y-109404790D01*
X130080044Y-109412682D01*
X130082455Y-109419913D01*
X130085237Y-109426485D01*
X130088392Y-109432395D01*
X130091919Y-109437643D01*
X130095819Y-109442228D01*
X130100092Y-109446150D01*
X130104737Y-109449408D01*
X130107200Y-109450788D01*
X130109756Y-109452002D01*
X130115148Y-109453930D01*
X130120915Y-109455192D01*
X130127103Y-109455465D01*
X130133762Y-109455223D01*
X130140892Y-109454464D01*
X130148493Y-109453187D01*
X130156565Y-109451393D01*
X130165108Y-109449080D01*
X130174121Y-109446248D01*
X130183607Y-109442897D01*
X130193563Y-109439026D01*
X130203991Y-109434633D01*
X130214890Y-109429720D01*
X130226261Y-109424285D01*
X130238103Y-109418327D01*
X130250417Y-109411846D01*
X130263203Y-109404842D01*
X130276461Y-109397313D01*
X130302458Y-109381756D01*
X130314714Y-109373995D01*
X130326474Y-109366247D01*
X130337739Y-109358512D01*
X130348508Y-109350790D01*
X130358781Y-109343080D01*
X130368558Y-109335384D01*
X130377840Y-109327702D01*
X130386625Y-109320033D01*
X130394913Y-109312379D01*
X130402705Y-109304738D01*
X130410001Y-109297112D01*
X130416800Y-109289501D01*
X130423101Y-109281905D01*
X130428906Y-109274323D01*
X130434289Y-109266635D01*
X130439324Y-109258718D01*
X130444011Y-109250573D01*
X130448352Y-109242202D01*
X130452344Y-109233604D01*
X130455990Y-109224783D01*
X130459288Y-109215738D01*
X130462239Y-109206471D01*
X130464843Y-109196982D01*
X130467100Y-109187274D01*
X130469009Y-109177346D01*
X130470571Y-109167201D01*
X130471786Y-109156839D01*
X130472654Y-109146261D01*
X130473174Y-109135468D01*
X130473348Y-109124462D01*
X130473348Y-109064517D01*
X130473163Y-109053347D01*
X130472607Y-109042858D01*
X130471681Y-109033049D01*
X130470384Y-109023921D01*
X130468716Y-109015476D01*
X130466677Y-109007714D01*
X130464266Y-109000637D01*
X130461483Y-108994245D01*
X130458328Y-108988539D01*
X130454801Y-108983520D01*
X130450901Y-108979188D01*
X130448812Y-108977281D01*
X130446629Y-108975546D01*
X130444353Y-108973983D01*
X130441983Y-108972593D01*
X130439520Y-108971376D01*
X130436964Y-108970331D01*
X130434315Y-108969459D01*
X130431572Y-108968760D01*
X130425806Y-108967882D01*
X130419257Y-108967436D01*
X130412310Y-108967494D01*
X130404965Y-108968058D01*
X130397223Y-108969126D01*
X130389084Y-108970698D01*
X130380547Y-108972773D01*
X130371614Y-108975352D01*
X130362283Y-108978432D01*
X130352555Y-108982015D01*
X130342431Y-108986099D01*
X130331910Y-108990684D01*
X130320992Y-108995770D01*
X130309678Y-109001356D01*
X130297968Y-109007442D01*
X130285862Y-109014026D01*
X130273360Y-109021110D01*
X130246622Y-109037084D01*
X130234035Y-109045024D01*
X130221969Y-109052933D01*
X130210425Y-109060812D01*
X130199402Y-109068661D01*
X130188899Y-109076481D01*
X130178918Y-109084272D01*
X130169458Y-109092035D01*
X130160518Y-109099771D01*
X130152100Y-109107481D01*
X130144202Y-109115164D01*
X130136824Y-109122822D01*
X130129967Y-109130455D01*
X130123631Y-109138064D01*
X130117814Y-109145649D01*
X130112432Y-109153337D01*
X130107397Y-109161255D01*
X130102709Y-109169400D01*
X130098369Y-109177771D01*
X130094376Y-109186368D01*
X130090730Y-109195190D01*
X130087432Y-109204235D01*
X130084481Y-109213502D01*
X130081877Y-109222991D01*
X130079621Y-109232699D01*
X130077711Y-109242627D01*
X130076149Y-109252772D01*
X130074934Y-109263134D01*
X130074067Y-109273712D01*
X130073546Y-109284505D01*
X130073373Y-109295511D01*
X130073373Y-109355455D01*
X126834294Y-109355455D01*
X126834294Y-107733333D01*
X126837340Y-107641709D01*
X126846383Y-107551212D01*
X126861278Y-107462092D01*
X126881879Y-107374598D01*
X126908044Y-107288981D01*
X126939627Y-107205492D01*
X126976483Y-107124380D01*
X127018468Y-107045896D01*
X127065438Y-106970291D01*
X127117247Y-106897815D01*
X127173752Y-106828717D01*
X127234807Y-106763249D01*
X127300269Y-106701660D01*
X127369992Y-106644201D01*
X127443833Y-106591123D01*
X127521646Y-106542675D01*
X132104256Y-103896874D01*
X132114763Y-103890990D01*
X132125409Y-103885390D01*
X132136186Y-103880077D01*
X132147090Y-103875053D01*
X132158114Y-103870319D01*
X132169253Y-103865877D01*
X132180500Y-103861730D01*
X132191850Y-103857879D01*
X132203296Y-103854326D01*
X132214834Y-103851073D01*
X132226457Y-103848122D01*
X132238159Y-103845475D01*
X132249934Y-103843134D01*
X132261776Y-103841100D01*
X132273680Y-103839376D01*
X132285640Y-103837963D01*
X132309840Y-103836079D01*
X132333985Y-103835479D01*
X132358029Y-103836146D01*
X132381924Y-103838066D01*
X132405623Y-103841224D01*
X132429081Y-103845604D01*
X132452249Y-103851191D01*
X132475082Y-103857970D01*
X132497531Y-103865926D01*
X132519551Y-103875043D01*
X132541094Y-103885306D01*
X132562114Y-103896699D01*
X132582564Y-103909209D01*
X132602396Y-103922818D01*
X132621564Y-103937513D01*
X132640021Y-103953277D01*
X132657619Y-103969995D01*
X132674227Y-103987532D01*
X132689824Y-104005842D01*
X132704392Y-104024880D01*
X132717909Y-104044601D01*
X132730356Y-104064961D01*
X132741712Y-104085914D01*
X132751959Y-104107414D01*
X132761075Y-104129418D01*
X132769040Y-104151880D01*
X132775835Y-104174755D01*
X132781440Y-104197998D01*
X132785834Y-104221564D01*
X132788997Y-104245408D01*
X132790910Y-104269485D01*
X132791552Y-104293749D01*
X132791552Y-109585416D01*
X132788506Y-109677039D01*
X132779463Y-109767536D01*
X132764569Y-109856657D01*
X132748249Y-109925963D01*
G37*
%TD*%
D11*
%TO.C,D2*%
X114250000Y-110380000D03*
D12*
X114250000Y-108480000D03*
%TD*%
D11*
%TO.C,D1*%
X112250000Y-110380000D03*
D12*
X112250000Y-108480000D03*
%TD*%
D13*
%TO.C,J4*%
X119500000Y-119500000D03*
D14*
X117500000Y-119500000D03*
%TD*%
D15*
%TO.C,REF\u002A\u002A*%
X152500000Y-118500000D03*
%TD*%
%TO.C,REF\u002A\u002A*%
X94500000Y-118500000D03*
%TD*%
D16*
%TO.C,J1*%
X99400000Y-96750000D03*
D17*
X99400000Y-94210000D03*
D18*
X101940000Y-96750000D03*
X101940000Y-94210000D03*
X104480000Y-96750000D03*
X104480000Y-94210000D03*
X107020000Y-96750000D03*
X107020000Y-94210000D03*
X109560000Y-96750000D03*
X109560000Y-94210000D03*
X112100000Y-96750000D03*
X112100000Y-94210000D03*
X114640000Y-96750000D03*
X114640000Y-94210000D03*
X117180000Y-96750000D03*
X117180000Y-94210000D03*
X119720000Y-96750000D03*
X119720000Y-94210000D03*
X122260000Y-96750000D03*
X122260000Y-94210000D03*
X124800000Y-96750000D03*
X124800000Y-94210000D03*
X127340000Y-96750000D03*
X127340000Y-94210000D03*
X129880000Y-96750000D03*
X129880000Y-94210000D03*
X132420000Y-96750000D03*
X132420000Y-94210000D03*
X134960000Y-96750000D03*
X134960000Y-94210000D03*
X137500000Y-96750000D03*
X137500000Y-94210000D03*
X140040000Y-96750000D03*
X140040000Y-94210000D03*
X142580000Y-96750000D03*
X142580000Y-94210000D03*
X145120000Y-96750000D03*
X145120000Y-94210000D03*
X147660000Y-96750000D03*
X147660000Y-94210000D03*
%TD*%
D15*
%TO.C,REF\u002A\u002A*%
X94500000Y-95500000D03*
%TD*%
%TO.C,REF\u002A\u002A*%
X152500000Y-95500000D03*
%TD*%
D19*
%TO.C,J3*%
X98000000Y-112000000D03*
D20*
X98000000Y-110000000D03*
%TD*%
D19*
%TO.C,J2*%
X97950000Y-104000000D03*
D20*
X97950000Y-102000000D03*
%TD*%
M02*
