%TF.GenerationSoftware,KiCad,Pcbnew,7.0.7*%
%TF.CreationDate,2023-09-20T17:31:38+03:00*%
%TF.ProjectId,picoups,7069636f-7570-4732-9e6b-696361645f70,1.2.0*%
%TF.SameCoordinates,Original*%
%TF.FileFunction,Legend,Bot*%
%TF.FilePolarity,Positive*%
%FSLAX46Y46*%
G04 Gerber Fmt 4.6, Leading zero omitted, Abs format (unit mm)*
G04 Created by KiCad (PCBNEW 7.0.7) date 2023-09-20 17:31:38*
%MOMM*%
%LPD*%
G01*
G04 APERTURE LIST*
%ADD10C,0.150000*%
%ADD11C,0.120000*%
G04 APERTURE END LIST*
D10*
X98213228Y-116359524D02*
X98813228Y-116092857D01*
X98813228Y-116092857D02*
X98213228Y-115826191D01*
X98213228Y-115826191D02*
X98213228Y-116359524D01*
X98613228Y-115559524D02*
X98298942Y-115559524D01*
X98298942Y-115559524D02*
X98241800Y-115521429D01*
X98241800Y-115521429D02*
X98213228Y-115445239D01*
X98213228Y-115026191D02*
X98241800Y-115102381D01*
X98241800Y-115102381D02*
X98270371Y-115140476D01*
X98270371Y-115140476D02*
X98327514Y-115178572D01*
X98327514Y-115178572D02*
X98498942Y-115178572D01*
X98498942Y-115178572D02*
X98556085Y-115140476D01*
X98556085Y-115140476D02*
X98584657Y-115102381D01*
X98584657Y-115102381D02*
X98613228Y-115026191D01*
X98613228Y-115026191D02*
X98613228Y-114911905D01*
X98613228Y-114911905D02*
X98584657Y-114835714D01*
X98584657Y-114835714D02*
X98556085Y-114797619D01*
X98556085Y-114797619D02*
X98498942Y-114759524D01*
X98498942Y-114759524D02*
X98327514Y-114759524D01*
X98327514Y-114759524D02*
X98270371Y-114797619D01*
X98270371Y-114797619D02*
X98241800Y-114835714D01*
X98241800Y-114835714D02*
X98213228Y-114911905D01*
X98213228Y-114911905D02*
X98213228Y-115026191D01*
X98613228Y-114492857D02*
X98213228Y-114302381D01*
X98213228Y-114302381D02*
X98527514Y-114111904D01*
X98527514Y-114111904D02*
X98556085Y-114111904D01*
X98556085Y-114111904D02*
X98613228Y-114150000D01*
X98613228Y-113769047D02*
X98298942Y-113769047D01*
X98298942Y-113769047D02*
X98241800Y-113730952D01*
X98241800Y-113730952D02*
X98213228Y-113654762D01*
X98213228Y-113654762D02*
X98213228Y-113540476D01*
X98213228Y-113540476D02*
X98241800Y-113464285D01*
X98241800Y-113464285D02*
X98270371Y-113426190D01*
X98270371Y-113426190D02*
X98327514Y-113388095D01*
X98327514Y-113388095D02*
X98527514Y-113388095D01*
X98527514Y-113388095D02*
X98584657Y-113426190D01*
X98584657Y-113426190D02*
X98613228Y-113464285D01*
X98841800Y-113502381D02*
X98756085Y-113616666D01*
X98613228Y-112588094D02*
X98613228Y-112930952D01*
X98613228Y-112930952D02*
X98584657Y-113007142D01*
X98584657Y-113007142D02*
X98556085Y-113045237D01*
X98556085Y-113045237D02*
X98498942Y-113083333D01*
X98498942Y-113083333D02*
X98327514Y-113083333D01*
X98327514Y-113083333D02*
X98270371Y-113045237D01*
X98270371Y-113045237D02*
X98241800Y-113007142D01*
X98241800Y-113007142D02*
X98213228Y-112930952D01*
X98213228Y-112930952D02*
X98213228Y-112816666D01*
X98213228Y-112816666D02*
X98241800Y-112740475D01*
X98241800Y-112740475D02*
X98270371Y-112702380D01*
X98270371Y-112702380D02*
X98327514Y-112664285D01*
X98327514Y-112664285D02*
X98498942Y-112664285D01*
X98498942Y-112664285D02*
X98556085Y-112702380D01*
X98556085Y-112702380D02*
X98584657Y-112740475D01*
X98584657Y-112740475D02*
X98613228Y-112816666D01*
X98613228Y-112283332D02*
X98213228Y-112283332D01*
X98556085Y-112283332D02*
X98584657Y-112245237D01*
X98584657Y-112245237D02*
X98613228Y-112169047D01*
X98613228Y-112169047D02*
X98613228Y-112054761D01*
X98613228Y-112054761D02*
X98584657Y-111978570D01*
X98584657Y-111978570D02*
X98527514Y-111940475D01*
X98527514Y-111940475D02*
X98013228Y-111940475D01*
X98584657Y-111216665D02*
X98613228Y-111292856D01*
X98613228Y-111292856D02*
X98613228Y-111445237D01*
X98613228Y-111445237D02*
X98584657Y-111521427D01*
X98584657Y-111521427D02*
X98556085Y-111559522D01*
X98556085Y-111559522D02*
X98498942Y-111597618D01*
X98498942Y-111597618D02*
X98327514Y-111597618D01*
X98327514Y-111597618D02*
X98270371Y-111559522D01*
X98270371Y-111559522D02*
X98241800Y-111521427D01*
X98241800Y-111521427D02*
X98213228Y-111445237D01*
X98213228Y-111445237D02*
X98213228Y-111330951D01*
X98213228Y-111330951D02*
X98184657Y-111254760D01*
X98184657Y-111254760D02*
X98127514Y-111216665D01*
X98127514Y-111216665D02*
X98098942Y-111216665D01*
X98098942Y-111216665D02*
X98041800Y-111254760D01*
X98041800Y-111254760D02*
X98013228Y-111330951D01*
X97847228Y-116492857D02*
X97847228Y-116035714D01*
X97247228Y-116264286D02*
X97847228Y-116264286D01*
X97247228Y-115654762D02*
X97275800Y-115730952D01*
X97275800Y-115730952D02*
X97304371Y-115769047D01*
X97304371Y-115769047D02*
X97361514Y-115807143D01*
X97361514Y-115807143D02*
X97532942Y-115807143D01*
X97532942Y-115807143D02*
X97590085Y-115769047D01*
X97590085Y-115769047D02*
X97618657Y-115730952D01*
X97618657Y-115730952D02*
X97647228Y-115654762D01*
X97647228Y-115654762D02*
X97647228Y-115540476D01*
X97647228Y-115540476D02*
X97618657Y-115464285D01*
X97618657Y-115464285D02*
X97590085Y-115426190D01*
X97590085Y-115426190D02*
X97532942Y-115388095D01*
X97532942Y-115388095D02*
X97361514Y-115388095D01*
X97361514Y-115388095D02*
X97304371Y-115426190D01*
X97304371Y-115426190D02*
X97275800Y-115464285D01*
X97275800Y-115464285D02*
X97247228Y-115540476D01*
X97247228Y-115540476D02*
X97247228Y-115654762D01*
X97647228Y-115045237D02*
X97332942Y-115045237D01*
X97332942Y-115045237D02*
X97275800Y-115007142D01*
X97275800Y-115007142D02*
X97247228Y-114930952D01*
X97247228Y-114930952D02*
X97247228Y-114816666D01*
X97247228Y-114816666D02*
X97275800Y-114740475D01*
X97275800Y-114740475D02*
X97304371Y-114702380D01*
X97304371Y-114702380D02*
X97361514Y-114664285D01*
X97361514Y-114664285D02*
X97561514Y-114664285D01*
X97561514Y-114664285D02*
X97618657Y-114702380D01*
X97618657Y-114702380D02*
X97647228Y-114740475D01*
X97647228Y-114207142D02*
X97247228Y-114397618D01*
X97847228Y-114397618D02*
X97847228Y-114321427D01*
X97847228Y-114321427D02*
X97818657Y-114283332D01*
X97818657Y-114283332D02*
X97647228Y-114207142D01*
X97647228Y-114207142D02*
X97247228Y-114016665D01*
X97647228Y-113254760D02*
X97361514Y-113369046D01*
X97361514Y-113369046D02*
X97304371Y-113407141D01*
X97304371Y-113407141D02*
X97275800Y-113445237D01*
X97275800Y-113445237D02*
X97247228Y-113521427D01*
X97247228Y-113521427D02*
X97247228Y-113597618D01*
X97247228Y-113597618D02*
X97275800Y-113673808D01*
X97275800Y-113673808D02*
X97304371Y-113711903D01*
X97304371Y-113711903D02*
X97390085Y-113749999D01*
X97390085Y-113749999D02*
X97504371Y-113749999D01*
X97504371Y-113749999D02*
X97590085Y-113711903D01*
X97590085Y-113711903D02*
X97618657Y-113673808D01*
X97618657Y-113673808D02*
X97647228Y-113597618D01*
X97647228Y-113597618D02*
X97647228Y-113521427D01*
X97647228Y-113521427D02*
X97618657Y-113445237D01*
X97618657Y-113445237D02*
X97590085Y-113407141D01*
X97590085Y-113407141D02*
X97532942Y-113369046D01*
X97532942Y-113369046D02*
X97332942Y-113330951D01*
X97332942Y-113330951D02*
X97275800Y-113292856D01*
X97275800Y-113292856D02*
X97247228Y-113216665D01*
X97875800Y-113445237D02*
X97790085Y-113559522D01*
X97561514Y-112949999D02*
X97618657Y-112911903D01*
X97618657Y-112911903D02*
X97647228Y-112835713D01*
X97647228Y-112835713D02*
X97647228Y-112492856D01*
X97647228Y-112721427D02*
X97332942Y-112721427D01*
X97332942Y-112721427D02*
X97275800Y-112683332D01*
X97275800Y-112683332D02*
X97247228Y-112607141D01*
X97247228Y-112035713D02*
X97275800Y-112111903D01*
X97275800Y-112111903D02*
X97304371Y-112149998D01*
X97304371Y-112149998D02*
X97361514Y-112188094D01*
X97361514Y-112188094D02*
X97532942Y-112188094D01*
X97532942Y-112188094D02*
X97590085Y-112149998D01*
X97590085Y-112149998D02*
X97618657Y-112111903D01*
X97618657Y-112111903D02*
X97647228Y-112035713D01*
X97647228Y-112035713D02*
X97647228Y-111921427D01*
X97647228Y-111921427D02*
X97618657Y-111845236D01*
X97618657Y-111845236D02*
X97590085Y-111807141D01*
X97590085Y-111807141D02*
X97532942Y-111769046D01*
X97532942Y-111769046D02*
X97361514Y-111769046D01*
X97361514Y-111769046D02*
X97304371Y-111807141D01*
X97304371Y-111807141D02*
X97275800Y-111845236D01*
X97275800Y-111845236D02*
X97247228Y-111921427D01*
X97247228Y-111921427D02*
X97247228Y-112035713D01*
X97618657Y-111083331D02*
X97647228Y-111159522D01*
X97647228Y-111159522D02*
X97647228Y-111311903D01*
X97647228Y-111311903D02*
X97618657Y-111388093D01*
X97618657Y-111388093D02*
X97590085Y-111426188D01*
X97590085Y-111426188D02*
X97532942Y-111464284D01*
X97532942Y-111464284D02*
X97361514Y-111464284D01*
X97361514Y-111464284D02*
X97304371Y-111426188D01*
X97304371Y-111426188D02*
X97275800Y-111388093D01*
X97275800Y-111388093D02*
X97247228Y-111311903D01*
X97247228Y-111311903D02*
X97247228Y-111197617D01*
X97247228Y-111197617D02*
X97218657Y-111121426D01*
X97218657Y-111121426D02*
X97161514Y-111083331D01*
X97161514Y-111083331D02*
X97132942Y-111083331D01*
X97132942Y-111083331D02*
X97075800Y-111121426D01*
X97075800Y-111121426D02*
X97047228Y-111197617D01*
X100330228Y-102197619D02*
X99730228Y-102007143D01*
X99730228Y-102007143D02*
X100158800Y-101854762D01*
X100158800Y-101854762D02*
X99730228Y-101702381D01*
X99730228Y-101702381D02*
X100330228Y-101511905D01*
X99901657Y-101245238D02*
X99901657Y-100864285D01*
X99730228Y-101321428D02*
X100330228Y-101054761D01*
X100330228Y-101054761D02*
X99730228Y-100788095D01*
X99730228Y-100521428D02*
X100330228Y-100521428D01*
X99730228Y-100064285D02*
X100073085Y-100407143D01*
X100330228Y-100064285D02*
X99987371Y-100521428D01*
X100044514Y-99721428D02*
X100044514Y-99454762D01*
X99730228Y-99340476D02*
X99730228Y-99721428D01*
X99730228Y-99721428D02*
X100330228Y-99721428D01*
X100330228Y-99721428D02*
X100330228Y-99340476D01*
X117478570Y-110169771D02*
X117478570Y-110655485D01*
X117478570Y-110655485D02*
X117440475Y-110712628D01*
X117440475Y-110712628D02*
X117402380Y-110741200D01*
X117402380Y-110741200D02*
X117326189Y-110769771D01*
X117326189Y-110769771D02*
X117173808Y-110769771D01*
X117173808Y-110769771D02*
X117097618Y-110741200D01*
X117097618Y-110741200D02*
X117059523Y-110712628D01*
X117059523Y-110712628D02*
X117021427Y-110655485D01*
X117021427Y-110655485D02*
X117021427Y-110169771D01*
X111783332Y-114786771D02*
X111783332Y-114386771D01*
X111783332Y-114501057D02*
X111745237Y-114443914D01*
X111745237Y-114443914D02*
X111707142Y-114415342D01*
X111707142Y-114415342D02*
X111630951Y-114386771D01*
X111630951Y-114386771D02*
X111554761Y-114386771D01*
X110983332Y-114758200D02*
X111059523Y-114786771D01*
X111059523Y-114786771D02*
X111211904Y-114786771D01*
X111211904Y-114786771D02*
X111288094Y-114758200D01*
X111288094Y-114758200D02*
X111326190Y-114701057D01*
X111326190Y-114701057D02*
X111326190Y-114472485D01*
X111326190Y-114472485D02*
X111288094Y-114415342D01*
X111288094Y-114415342D02*
X111211904Y-114386771D01*
X111211904Y-114386771D02*
X111059523Y-114386771D01*
X111059523Y-114386771D02*
X110983332Y-114415342D01*
X110983332Y-114415342D02*
X110945237Y-114472485D01*
X110945237Y-114472485D02*
X110945237Y-114529628D01*
X110945237Y-114529628D02*
X111326190Y-114586771D01*
X110678571Y-114386771D02*
X110488095Y-114786771D01*
X110488095Y-114786771D02*
X110297618Y-114386771D01*
X108964285Y-114786771D02*
X109421428Y-114786771D01*
X109192856Y-114786771D02*
X109192856Y-114186771D01*
X109192856Y-114186771D02*
X109269047Y-114272485D01*
X109269047Y-114272485D02*
X109345237Y-114329628D01*
X109345237Y-114329628D02*
X109421428Y-114358200D01*
X108621427Y-114729628D02*
X108583332Y-114758200D01*
X108583332Y-114758200D02*
X108621427Y-114786771D01*
X108621427Y-114786771D02*
X108659523Y-114758200D01*
X108659523Y-114758200D02*
X108621427Y-114729628D01*
X108621427Y-114729628D02*
X108621427Y-114786771D01*
X108278571Y-114243914D02*
X108240475Y-114215342D01*
X108240475Y-114215342D02*
X108164285Y-114186771D01*
X108164285Y-114186771D02*
X107973809Y-114186771D01*
X107973809Y-114186771D02*
X107897618Y-114215342D01*
X107897618Y-114215342D02*
X107859523Y-114243914D01*
X107859523Y-114243914D02*
X107821428Y-114301057D01*
X107821428Y-114301057D02*
X107821428Y-114358200D01*
X107821428Y-114358200D02*
X107859523Y-114443914D01*
X107859523Y-114443914D02*
X108316666Y-114786771D01*
X108316666Y-114786771D02*
X107821428Y-114786771D01*
X107478570Y-114729628D02*
X107440475Y-114758200D01*
X107440475Y-114758200D02*
X107478570Y-114786771D01*
X107478570Y-114786771D02*
X107516666Y-114758200D01*
X107516666Y-114758200D02*
X107478570Y-114729628D01*
X107478570Y-114729628D02*
X107478570Y-114786771D01*
X106945237Y-114186771D02*
X106869047Y-114186771D01*
X106869047Y-114186771D02*
X106792856Y-114215342D01*
X106792856Y-114215342D02*
X106754761Y-114243914D01*
X106754761Y-114243914D02*
X106716666Y-114301057D01*
X106716666Y-114301057D02*
X106678571Y-114415342D01*
X106678571Y-114415342D02*
X106678571Y-114558200D01*
X106678571Y-114558200D02*
X106716666Y-114672485D01*
X106716666Y-114672485D02*
X106754761Y-114729628D01*
X106754761Y-114729628D02*
X106792856Y-114758200D01*
X106792856Y-114758200D02*
X106869047Y-114786771D01*
X106869047Y-114786771D02*
X106945237Y-114786771D01*
X106945237Y-114786771D02*
X107021428Y-114758200D01*
X107021428Y-114758200D02*
X107059523Y-114729628D01*
X107059523Y-114729628D02*
X107097618Y-114672485D01*
X107097618Y-114672485D02*
X107135714Y-114558200D01*
X107135714Y-114558200D02*
X107135714Y-114415342D01*
X107135714Y-114415342D02*
X107097618Y-114301057D01*
X107097618Y-114301057D02*
X107059523Y-114243914D01*
X107059523Y-114243914D02*
X107021428Y-114215342D01*
X107021428Y-114215342D02*
X106945237Y-114186771D01*
X111764286Y-115209914D02*
X111726190Y-115181342D01*
X111726190Y-115181342D02*
X111650000Y-115152771D01*
X111650000Y-115152771D02*
X111459524Y-115152771D01*
X111459524Y-115152771D02*
X111383333Y-115181342D01*
X111383333Y-115181342D02*
X111345238Y-115209914D01*
X111345238Y-115209914D02*
X111307143Y-115267057D01*
X111307143Y-115267057D02*
X111307143Y-115324200D01*
X111307143Y-115324200D02*
X111345238Y-115409914D01*
X111345238Y-115409914D02*
X111802381Y-115752771D01*
X111802381Y-115752771D02*
X111307143Y-115752771D01*
X110811904Y-115152771D02*
X110735714Y-115152771D01*
X110735714Y-115152771D02*
X110659523Y-115181342D01*
X110659523Y-115181342D02*
X110621428Y-115209914D01*
X110621428Y-115209914D02*
X110583333Y-115267057D01*
X110583333Y-115267057D02*
X110545238Y-115381342D01*
X110545238Y-115381342D02*
X110545238Y-115524200D01*
X110545238Y-115524200D02*
X110583333Y-115638485D01*
X110583333Y-115638485D02*
X110621428Y-115695628D01*
X110621428Y-115695628D02*
X110659523Y-115724200D01*
X110659523Y-115724200D02*
X110735714Y-115752771D01*
X110735714Y-115752771D02*
X110811904Y-115752771D01*
X110811904Y-115752771D02*
X110888095Y-115724200D01*
X110888095Y-115724200D02*
X110926190Y-115695628D01*
X110926190Y-115695628D02*
X110964285Y-115638485D01*
X110964285Y-115638485D02*
X111002381Y-115524200D01*
X111002381Y-115524200D02*
X111002381Y-115381342D01*
X111002381Y-115381342D02*
X110964285Y-115267057D01*
X110964285Y-115267057D02*
X110926190Y-115209914D01*
X110926190Y-115209914D02*
X110888095Y-115181342D01*
X110888095Y-115181342D02*
X110811904Y-115152771D01*
X110202380Y-115695628D02*
X110164285Y-115724200D01*
X110164285Y-115724200D02*
X110202380Y-115752771D01*
X110202380Y-115752771D02*
X110240476Y-115724200D01*
X110240476Y-115724200D02*
X110202380Y-115695628D01*
X110202380Y-115695628D02*
X110202380Y-115752771D01*
X109669047Y-115152771D02*
X109592857Y-115152771D01*
X109592857Y-115152771D02*
X109516666Y-115181342D01*
X109516666Y-115181342D02*
X109478571Y-115209914D01*
X109478571Y-115209914D02*
X109440476Y-115267057D01*
X109440476Y-115267057D02*
X109402381Y-115381342D01*
X109402381Y-115381342D02*
X109402381Y-115524200D01*
X109402381Y-115524200D02*
X109440476Y-115638485D01*
X109440476Y-115638485D02*
X109478571Y-115695628D01*
X109478571Y-115695628D02*
X109516666Y-115724200D01*
X109516666Y-115724200D02*
X109592857Y-115752771D01*
X109592857Y-115752771D02*
X109669047Y-115752771D01*
X109669047Y-115752771D02*
X109745238Y-115724200D01*
X109745238Y-115724200D02*
X109783333Y-115695628D01*
X109783333Y-115695628D02*
X109821428Y-115638485D01*
X109821428Y-115638485D02*
X109859524Y-115524200D01*
X109859524Y-115524200D02*
X109859524Y-115381342D01*
X109859524Y-115381342D02*
X109821428Y-115267057D01*
X109821428Y-115267057D02*
X109783333Y-115209914D01*
X109783333Y-115209914D02*
X109745238Y-115181342D01*
X109745238Y-115181342D02*
X109669047Y-115152771D01*
X109021428Y-115752771D02*
X108869047Y-115752771D01*
X108869047Y-115752771D02*
X108792857Y-115724200D01*
X108792857Y-115724200D02*
X108754761Y-115695628D01*
X108754761Y-115695628D02*
X108678571Y-115609914D01*
X108678571Y-115609914D02*
X108640476Y-115495628D01*
X108640476Y-115495628D02*
X108640476Y-115267057D01*
X108640476Y-115267057D02*
X108678571Y-115209914D01*
X108678571Y-115209914D02*
X108716666Y-115181342D01*
X108716666Y-115181342D02*
X108792857Y-115152771D01*
X108792857Y-115152771D02*
X108945238Y-115152771D01*
X108945238Y-115152771D02*
X109021428Y-115181342D01*
X109021428Y-115181342D02*
X109059523Y-115209914D01*
X109059523Y-115209914D02*
X109097619Y-115267057D01*
X109097619Y-115267057D02*
X109097619Y-115409914D01*
X109097619Y-115409914D02*
X109059523Y-115467057D01*
X109059523Y-115467057D02*
X109021428Y-115495628D01*
X109021428Y-115495628D02*
X108945238Y-115524200D01*
X108945238Y-115524200D02*
X108792857Y-115524200D01*
X108792857Y-115524200D02*
X108716666Y-115495628D01*
X108716666Y-115495628D02*
X108678571Y-115467057D01*
X108678571Y-115467057D02*
X108640476Y-115409914D01*
X108297618Y-115695628D02*
X108259523Y-115724200D01*
X108259523Y-115724200D02*
X108297618Y-115752771D01*
X108297618Y-115752771D02*
X108335714Y-115724200D01*
X108335714Y-115724200D02*
X108297618Y-115695628D01*
X108297618Y-115695628D02*
X108297618Y-115752771D01*
X107954762Y-115209914D02*
X107916666Y-115181342D01*
X107916666Y-115181342D02*
X107840476Y-115152771D01*
X107840476Y-115152771D02*
X107650000Y-115152771D01*
X107650000Y-115152771D02*
X107573809Y-115181342D01*
X107573809Y-115181342D02*
X107535714Y-115209914D01*
X107535714Y-115209914D02*
X107497619Y-115267057D01*
X107497619Y-115267057D02*
X107497619Y-115324200D01*
X107497619Y-115324200D02*
X107535714Y-115409914D01*
X107535714Y-115409914D02*
X107992857Y-115752771D01*
X107992857Y-115752771D02*
X107497619Y-115752771D01*
X107230952Y-115152771D02*
X106735714Y-115152771D01*
X106735714Y-115152771D02*
X107002380Y-115381342D01*
X107002380Y-115381342D02*
X106888095Y-115381342D01*
X106888095Y-115381342D02*
X106811904Y-115409914D01*
X106811904Y-115409914D02*
X106773809Y-115438485D01*
X106773809Y-115438485D02*
X106735714Y-115495628D01*
X106735714Y-115495628D02*
X106735714Y-115638485D01*
X106735714Y-115638485D02*
X106773809Y-115695628D01*
X106773809Y-115695628D02*
X106811904Y-115724200D01*
X106811904Y-115724200D02*
X106888095Y-115752771D01*
X106888095Y-115752771D02*
X107116666Y-115752771D01*
X107116666Y-115752771D02*
X107192857Y-115724200D01*
X107192857Y-115724200D02*
X107230952Y-115695628D01*
X113192857Y-110455485D02*
X113078571Y-110484057D01*
X113078571Y-110484057D02*
X113040476Y-110512628D01*
X113040476Y-110512628D02*
X113002380Y-110569771D01*
X113002380Y-110569771D02*
X113002380Y-110655485D01*
X113002380Y-110655485D02*
X113040476Y-110712628D01*
X113040476Y-110712628D02*
X113078571Y-110741200D01*
X113078571Y-110741200D02*
X113154761Y-110769771D01*
X113154761Y-110769771D02*
X113459523Y-110769771D01*
X113459523Y-110769771D02*
X113459523Y-110169771D01*
X113459523Y-110169771D02*
X113192857Y-110169771D01*
X113192857Y-110169771D02*
X113116666Y-110198342D01*
X113116666Y-110198342D02*
X113078571Y-110226914D01*
X113078571Y-110226914D02*
X113040476Y-110284057D01*
X113040476Y-110284057D02*
X113040476Y-110341200D01*
X113040476Y-110341200D02*
X113078571Y-110398342D01*
X113078571Y-110398342D02*
X113116666Y-110426914D01*
X113116666Y-110426914D02*
X113192857Y-110455485D01*
X113192857Y-110455485D02*
X113459523Y-110455485D01*
X115059523Y-108419771D02*
X115440475Y-108419771D01*
X115440475Y-108419771D02*
X115478571Y-108705485D01*
X115478571Y-108705485D02*
X115440475Y-108676914D01*
X115440475Y-108676914D02*
X115364285Y-108648342D01*
X115364285Y-108648342D02*
X115173809Y-108648342D01*
X115173809Y-108648342D02*
X115097618Y-108676914D01*
X115097618Y-108676914D02*
X115059523Y-108705485D01*
X115059523Y-108705485D02*
X115021428Y-108762628D01*
X115021428Y-108762628D02*
X115021428Y-108905485D01*
X115021428Y-108905485D02*
X115059523Y-108962628D01*
X115059523Y-108962628D02*
X115097618Y-108991200D01*
X115097618Y-108991200D02*
X115173809Y-109019771D01*
X115173809Y-109019771D02*
X115364285Y-109019771D01*
X115364285Y-109019771D02*
X115440475Y-108991200D01*
X115440475Y-108991200D02*
X115478571Y-108962628D01*
X123971428Y-107640200D02*
X123857142Y-107668771D01*
X123857142Y-107668771D02*
X123666666Y-107668771D01*
X123666666Y-107668771D02*
X123590475Y-107640200D01*
X123590475Y-107640200D02*
X123552380Y-107611628D01*
X123552380Y-107611628D02*
X123514285Y-107554485D01*
X123514285Y-107554485D02*
X123514285Y-107497342D01*
X123514285Y-107497342D02*
X123552380Y-107440200D01*
X123552380Y-107440200D02*
X123590475Y-107411628D01*
X123590475Y-107411628D02*
X123666666Y-107383057D01*
X123666666Y-107383057D02*
X123819047Y-107354485D01*
X123819047Y-107354485D02*
X123895237Y-107325914D01*
X123895237Y-107325914D02*
X123933332Y-107297342D01*
X123933332Y-107297342D02*
X123971428Y-107240200D01*
X123971428Y-107240200D02*
X123971428Y-107183057D01*
X123971428Y-107183057D02*
X123933332Y-107125914D01*
X123933332Y-107125914D02*
X123895237Y-107097342D01*
X123895237Y-107097342D02*
X123819047Y-107068771D01*
X123819047Y-107068771D02*
X123628570Y-107068771D01*
X123628570Y-107068771D02*
X123514285Y-107097342D01*
X123019046Y-107068771D02*
X122866665Y-107068771D01*
X122866665Y-107068771D02*
X122790475Y-107097342D01*
X122790475Y-107097342D02*
X122714284Y-107154485D01*
X122714284Y-107154485D02*
X122676189Y-107268771D01*
X122676189Y-107268771D02*
X122676189Y-107468771D01*
X122676189Y-107468771D02*
X122714284Y-107583057D01*
X122714284Y-107583057D02*
X122790475Y-107640200D01*
X122790475Y-107640200D02*
X122866665Y-107668771D01*
X122866665Y-107668771D02*
X123019046Y-107668771D01*
X123019046Y-107668771D02*
X123095237Y-107640200D01*
X123095237Y-107640200D02*
X123171427Y-107583057D01*
X123171427Y-107583057D02*
X123209523Y-107468771D01*
X123209523Y-107468771D02*
X123209523Y-107268771D01*
X123209523Y-107268771D02*
X123171427Y-107154485D01*
X123171427Y-107154485D02*
X123095237Y-107097342D01*
X123095237Y-107097342D02*
X123019046Y-107068771D01*
X121952380Y-107668771D02*
X122333332Y-107668771D01*
X122333332Y-107668771D02*
X122333332Y-107068771D01*
X115040476Y-110198342D02*
X115116666Y-110169771D01*
X115116666Y-110169771D02*
X115230952Y-110169771D01*
X115230952Y-110169771D02*
X115345238Y-110198342D01*
X115345238Y-110198342D02*
X115421428Y-110255485D01*
X115421428Y-110255485D02*
X115459523Y-110312628D01*
X115459523Y-110312628D02*
X115497619Y-110426914D01*
X115497619Y-110426914D02*
X115497619Y-110512628D01*
X115497619Y-110512628D02*
X115459523Y-110626914D01*
X115459523Y-110626914D02*
X115421428Y-110684057D01*
X115421428Y-110684057D02*
X115345238Y-110741200D01*
X115345238Y-110741200D02*
X115230952Y-110769771D01*
X115230952Y-110769771D02*
X115154761Y-110769771D01*
X115154761Y-110769771D02*
X115040476Y-110741200D01*
X115040476Y-110741200D02*
X115002380Y-110712628D01*
X115002380Y-110712628D02*
X115002380Y-110512628D01*
X115002380Y-110512628D02*
X115154761Y-110512628D01*
X121859523Y-110919771D02*
X121859523Y-111405485D01*
X121859523Y-111405485D02*
X121821428Y-111462628D01*
X121821428Y-111462628D02*
X121783333Y-111491200D01*
X121783333Y-111491200D02*
X121707142Y-111519771D01*
X121707142Y-111519771D02*
X121554761Y-111519771D01*
X121554761Y-111519771D02*
X121478571Y-111491200D01*
X121478571Y-111491200D02*
X121440476Y-111462628D01*
X121440476Y-111462628D02*
X121402380Y-111405485D01*
X121402380Y-111405485D02*
X121402380Y-110919771D01*
X121059524Y-110976914D02*
X121021428Y-110948342D01*
X121021428Y-110948342D02*
X120945238Y-110919771D01*
X120945238Y-110919771D02*
X120754762Y-110919771D01*
X120754762Y-110919771D02*
X120678571Y-110948342D01*
X120678571Y-110948342D02*
X120640476Y-110976914D01*
X120640476Y-110976914D02*
X120602381Y-111034057D01*
X120602381Y-111034057D02*
X120602381Y-111091200D01*
X120602381Y-111091200D02*
X120640476Y-111176914D01*
X120640476Y-111176914D02*
X121097619Y-111519771D01*
X121097619Y-111519771D02*
X120602381Y-111519771D01*
X128133332Y-107012628D02*
X128171428Y-107041200D01*
X128171428Y-107041200D02*
X128285713Y-107069771D01*
X128285713Y-107069771D02*
X128361904Y-107069771D01*
X128361904Y-107069771D02*
X128476190Y-107041200D01*
X128476190Y-107041200D02*
X128552380Y-106984057D01*
X128552380Y-106984057D02*
X128590475Y-106926914D01*
X128590475Y-106926914D02*
X128628571Y-106812628D01*
X128628571Y-106812628D02*
X128628571Y-106726914D01*
X128628571Y-106726914D02*
X128590475Y-106612628D01*
X128590475Y-106612628D02*
X128552380Y-106555485D01*
X128552380Y-106555485D02*
X128476190Y-106498342D01*
X128476190Y-106498342D02*
X128361904Y-106469771D01*
X128361904Y-106469771D02*
X128285713Y-106469771D01*
X128285713Y-106469771D02*
X128171428Y-106498342D01*
X128171428Y-106498342D02*
X128133332Y-106526914D01*
X127828571Y-106526914D02*
X127790475Y-106498342D01*
X127790475Y-106498342D02*
X127714285Y-106469771D01*
X127714285Y-106469771D02*
X127523809Y-106469771D01*
X127523809Y-106469771D02*
X127447618Y-106498342D01*
X127447618Y-106498342D02*
X127409523Y-106526914D01*
X127409523Y-106526914D02*
X127371428Y-106584057D01*
X127371428Y-106584057D02*
X127371428Y-106641200D01*
X127371428Y-106641200D02*
X127409523Y-106726914D01*
X127409523Y-106726914D02*
X127866666Y-107069771D01*
X127866666Y-107069771D02*
X127371428Y-107069771D01*
X130383333Y-103019771D02*
X130764285Y-103019771D01*
X130764285Y-103019771D02*
X130764285Y-102419771D01*
X129697619Y-103019771D02*
X130154762Y-103019771D01*
X129926190Y-103019771D02*
X129926190Y-102419771D01*
X129926190Y-102419771D02*
X130002381Y-102505485D01*
X130002381Y-102505485D02*
X130078571Y-102562628D01*
X130078571Y-102562628D02*
X130154762Y-102591200D01*
X140980228Y-118690475D02*
X141580228Y-118690475D01*
X141580228Y-118690475D02*
X141580228Y-118499999D01*
X141580228Y-118499999D02*
X141551657Y-118385713D01*
X141551657Y-118385713D02*
X141494514Y-118309523D01*
X141494514Y-118309523D02*
X141437371Y-118271428D01*
X141437371Y-118271428D02*
X141323085Y-118233332D01*
X141323085Y-118233332D02*
X141237371Y-118233332D01*
X141237371Y-118233332D02*
X141123085Y-118271428D01*
X141123085Y-118271428D02*
X141065942Y-118309523D01*
X141065942Y-118309523D02*
X141008800Y-118385713D01*
X141008800Y-118385713D02*
X140980228Y-118499999D01*
X140980228Y-118499999D02*
X140980228Y-118690475D01*
X141580228Y-117509523D02*
X141580228Y-117890475D01*
X141580228Y-117890475D02*
X141294514Y-117928571D01*
X141294514Y-117928571D02*
X141323085Y-117890475D01*
X141323085Y-117890475D02*
X141351657Y-117814285D01*
X141351657Y-117814285D02*
X141351657Y-117623809D01*
X141351657Y-117623809D02*
X141323085Y-117547618D01*
X141323085Y-117547618D02*
X141294514Y-117509523D01*
X141294514Y-117509523D02*
X141237371Y-117471428D01*
X141237371Y-117471428D02*
X141094514Y-117471428D01*
X141094514Y-117471428D02*
X141037371Y-117509523D01*
X141037371Y-117509523D02*
X141008800Y-117547618D01*
X141008800Y-117547618D02*
X140980228Y-117623809D01*
X140980228Y-117623809D02*
X140980228Y-117814285D01*
X140980228Y-117814285D02*
X141008800Y-117890475D01*
X141008800Y-117890475D02*
X141037371Y-117928571D01*
X96480228Y-99383332D02*
X96765942Y-99649999D01*
X96480228Y-99840475D02*
X97080228Y-99840475D01*
X97080228Y-99840475D02*
X97080228Y-99535713D01*
X97080228Y-99535713D02*
X97051657Y-99459523D01*
X97051657Y-99459523D02*
X97023085Y-99421428D01*
X97023085Y-99421428D02*
X96965942Y-99383332D01*
X96965942Y-99383332D02*
X96880228Y-99383332D01*
X96880228Y-99383332D02*
X96823085Y-99421428D01*
X96823085Y-99421428D02*
X96794514Y-99459523D01*
X96794514Y-99459523D02*
X96765942Y-99535713D01*
X96765942Y-99535713D02*
X96765942Y-99840475D01*
X97080228Y-98659523D02*
X97080228Y-99040475D01*
X97080228Y-99040475D02*
X96794514Y-99078571D01*
X96794514Y-99078571D02*
X96823085Y-99040475D01*
X96823085Y-99040475D02*
X96851657Y-98964285D01*
X96851657Y-98964285D02*
X96851657Y-98773809D01*
X96851657Y-98773809D02*
X96823085Y-98697618D01*
X96823085Y-98697618D02*
X96794514Y-98659523D01*
X96794514Y-98659523D02*
X96737371Y-98621428D01*
X96737371Y-98621428D02*
X96594514Y-98621428D01*
X96594514Y-98621428D02*
X96537371Y-98659523D01*
X96537371Y-98659523D02*
X96508800Y-98697618D01*
X96508800Y-98697618D02*
X96480228Y-98773809D01*
X96480228Y-98773809D02*
X96480228Y-98964285D01*
X96480228Y-98964285D02*
X96508800Y-99040475D01*
X96508800Y-99040475D02*
X96537371Y-99078571D01*
X142109523Y-104169771D02*
X142109523Y-104655485D01*
X142109523Y-104655485D02*
X142071428Y-104712628D01*
X142071428Y-104712628D02*
X142033333Y-104741200D01*
X142033333Y-104741200D02*
X141957142Y-104769771D01*
X141957142Y-104769771D02*
X141804761Y-104769771D01*
X141804761Y-104769771D02*
X141728571Y-104741200D01*
X141728571Y-104741200D02*
X141690476Y-104712628D01*
X141690476Y-104712628D02*
X141652380Y-104655485D01*
X141652380Y-104655485D02*
X141652380Y-104169771D01*
X140852381Y-104769771D02*
X141309524Y-104769771D01*
X141080952Y-104769771D02*
X141080952Y-104169771D01*
X141080952Y-104169771D02*
X141157143Y-104255485D01*
X141157143Y-104255485D02*
X141233333Y-104312628D01*
X141233333Y-104312628D02*
X141309524Y-104341200D01*
X145226189Y-102019771D02*
X145492856Y-101734057D01*
X145683332Y-102019771D02*
X145683332Y-101419771D01*
X145683332Y-101419771D02*
X145378570Y-101419771D01*
X145378570Y-101419771D02*
X145302380Y-101448342D01*
X145302380Y-101448342D02*
X145264285Y-101476914D01*
X145264285Y-101476914D02*
X145226189Y-101534057D01*
X145226189Y-101534057D02*
X145226189Y-101619771D01*
X145226189Y-101619771D02*
X145264285Y-101676914D01*
X145264285Y-101676914D02*
X145302380Y-101705485D01*
X145302380Y-101705485D02*
X145378570Y-101734057D01*
X145378570Y-101734057D02*
X145683332Y-101734057D01*
X144997618Y-101419771D02*
X144730951Y-102019771D01*
X144730951Y-102019771D02*
X144464285Y-101419771D01*
X143778571Y-102019771D02*
X144235714Y-102019771D01*
X144007142Y-102019771D02*
X144007142Y-101419771D01*
X144007142Y-101419771D02*
X144083333Y-101505485D01*
X144083333Y-101505485D02*
X144159523Y-101562628D01*
X144159523Y-101562628D02*
X144235714Y-101591200D01*
X125787371Y-112883332D02*
X125758800Y-112921428D01*
X125758800Y-112921428D02*
X125730228Y-113035713D01*
X125730228Y-113035713D02*
X125730228Y-113111904D01*
X125730228Y-113111904D02*
X125758800Y-113226190D01*
X125758800Y-113226190D02*
X125815942Y-113302380D01*
X125815942Y-113302380D02*
X125873085Y-113340475D01*
X125873085Y-113340475D02*
X125987371Y-113378571D01*
X125987371Y-113378571D02*
X126073085Y-113378571D01*
X126073085Y-113378571D02*
X126187371Y-113340475D01*
X126187371Y-113340475D02*
X126244514Y-113302380D01*
X126244514Y-113302380D02*
X126301657Y-113226190D01*
X126301657Y-113226190D02*
X126330228Y-113111904D01*
X126330228Y-113111904D02*
X126330228Y-113035713D01*
X126330228Y-113035713D02*
X126301657Y-112921428D01*
X126301657Y-112921428D02*
X126273085Y-112883332D01*
X126330228Y-112616666D02*
X126330228Y-112121428D01*
X126330228Y-112121428D02*
X126101657Y-112388094D01*
X126101657Y-112388094D02*
X126101657Y-112273809D01*
X126101657Y-112273809D02*
X126073085Y-112197618D01*
X126073085Y-112197618D02*
X126044514Y-112159523D01*
X126044514Y-112159523D02*
X125987371Y-112121428D01*
X125987371Y-112121428D02*
X125844514Y-112121428D01*
X125844514Y-112121428D02*
X125787371Y-112159523D01*
X125787371Y-112159523D02*
X125758800Y-112197618D01*
X125758800Y-112197618D02*
X125730228Y-112273809D01*
X125730228Y-112273809D02*
X125730228Y-112502380D01*
X125730228Y-112502380D02*
X125758800Y-112578571D01*
X125758800Y-112578571D02*
X125787371Y-112616666D01*
X139514285Y-114269771D02*
X139780952Y-113984057D01*
X139971428Y-114269771D02*
X139971428Y-113669771D01*
X139971428Y-113669771D02*
X139666666Y-113669771D01*
X139666666Y-113669771D02*
X139590476Y-113698342D01*
X139590476Y-113698342D02*
X139552381Y-113726914D01*
X139552381Y-113726914D02*
X139514285Y-113784057D01*
X139514285Y-113784057D02*
X139514285Y-113869771D01*
X139514285Y-113869771D02*
X139552381Y-113926914D01*
X139552381Y-113926914D02*
X139590476Y-113955485D01*
X139590476Y-113955485D02*
X139666666Y-113984057D01*
X139666666Y-113984057D02*
X139971428Y-113984057D01*
X138752381Y-114269771D02*
X139209524Y-114269771D01*
X138980952Y-114269771D02*
X138980952Y-113669771D01*
X138980952Y-113669771D02*
X139057143Y-113755485D01*
X139057143Y-113755485D02*
X139133333Y-113812628D01*
X139133333Y-113812628D02*
X139209524Y-113841200D01*
X138447619Y-113726914D02*
X138409523Y-113698342D01*
X138409523Y-113698342D02*
X138333333Y-113669771D01*
X138333333Y-113669771D02*
X138142857Y-113669771D01*
X138142857Y-113669771D02*
X138066666Y-113698342D01*
X138066666Y-113698342D02*
X138028571Y-113726914D01*
X138028571Y-113726914D02*
X137990476Y-113784057D01*
X137990476Y-113784057D02*
X137990476Y-113841200D01*
X137990476Y-113841200D02*
X138028571Y-113926914D01*
X138028571Y-113926914D02*
X138485714Y-114269771D01*
X138485714Y-114269771D02*
X137990476Y-114269771D01*
X108392857Y-109609580D02*
X108440476Y-109657200D01*
X108440476Y-109657200D02*
X108583333Y-109704819D01*
X108583333Y-109704819D02*
X108678571Y-109704819D01*
X108678571Y-109704819D02*
X108821428Y-109657200D01*
X108821428Y-109657200D02*
X108916666Y-109561961D01*
X108916666Y-109561961D02*
X108964285Y-109466723D01*
X108964285Y-109466723D02*
X109011904Y-109276247D01*
X109011904Y-109276247D02*
X109011904Y-109133390D01*
X109011904Y-109133390D02*
X108964285Y-108942914D01*
X108964285Y-108942914D02*
X108916666Y-108847676D01*
X108916666Y-108847676D02*
X108821428Y-108752438D01*
X108821428Y-108752438D02*
X108678571Y-108704819D01*
X108678571Y-108704819D02*
X108583333Y-108704819D01*
X108583333Y-108704819D02*
X108440476Y-108752438D01*
X108440476Y-108752438D02*
X108392857Y-108800057D01*
X107440476Y-109704819D02*
X108011904Y-109704819D01*
X107726190Y-109704819D02*
X107726190Y-108704819D01*
X107726190Y-108704819D02*
X107821428Y-108847676D01*
X107821428Y-108847676D02*
X107916666Y-108942914D01*
X107916666Y-108942914D02*
X108011904Y-108990533D01*
X107107142Y-108704819D02*
X106488095Y-108704819D01*
X106488095Y-108704819D02*
X106821428Y-109085771D01*
X106821428Y-109085771D02*
X106678571Y-109085771D01*
X106678571Y-109085771D02*
X106583333Y-109133390D01*
X106583333Y-109133390D02*
X106535714Y-109181009D01*
X106535714Y-109181009D02*
X106488095Y-109276247D01*
X106488095Y-109276247D02*
X106488095Y-109514342D01*
X106488095Y-109514342D02*
X106535714Y-109609580D01*
X106535714Y-109609580D02*
X106583333Y-109657200D01*
X106583333Y-109657200D02*
X106678571Y-109704819D01*
X106678571Y-109704819D02*
X106964285Y-109704819D01*
X106964285Y-109704819D02*
X107059523Y-109657200D01*
X107059523Y-109657200D02*
X107107142Y-109609580D01*
X117109523Y-99419771D02*
X117109523Y-99905485D01*
X117109523Y-99905485D02*
X117071428Y-99962628D01*
X117071428Y-99962628D02*
X117033333Y-99991200D01*
X117033333Y-99991200D02*
X116957142Y-100019771D01*
X116957142Y-100019771D02*
X116804761Y-100019771D01*
X116804761Y-100019771D02*
X116728571Y-99991200D01*
X116728571Y-99991200D02*
X116690476Y-99962628D01*
X116690476Y-99962628D02*
X116652380Y-99905485D01*
X116652380Y-99905485D02*
X116652380Y-99419771D01*
X115890476Y-99419771D02*
X116271428Y-99419771D01*
X116271428Y-99419771D02*
X116309524Y-99705485D01*
X116309524Y-99705485D02*
X116271428Y-99676914D01*
X116271428Y-99676914D02*
X116195238Y-99648342D01*
X116195238Y-99648342D02*
X116004762Y-99648342D01*
X116004762Y-99648342D02*
X115928571Y-99676914D01*
X115928571Y-99676914D02*
X115890476Y-99705485D01*
X115890476Y-99705485D02*
X115852381Y-99762628D01*
X115852381Y-99762628D02*
X115852381Y-99905485D01*
X115852381Y-99905485D02*
X115890476Y-99962628D01*
X115890476Y-99962628D02*
X115928571Y-99991200D01*
X115928571Y-99991200D02*
X116004762Y-100019771D01*
X116004762Y-100019771D02*
X116195238Y-100019771D01*
X116195238Y-100019771D02*
X116271428Y-99991200D01*
X116271428Y-99991200D02*
X116309524Y-99962628D01*
X116537371Y-107514285D02*
X116508800Y-107552381D01*
X116508800Y-107552381D02*
X116480228Y-107666666D01*
X116480228Y-107666666D02*
X116480228Y-107742857D01*
X116480228Y-107742857D02*
X116508800Y-107857143D01*
X116508800Y-107857143D02*
X116565942Y-107933333D01*
X116565942Y-107933333D02*
X116623085Y-107971428D01*
X116623085Y-107971428D02*
X116737371Y-108009524D01*
X116737371Y-108009524D02*
X116823085Y-108009524D01*
X116823085Y-108009524D02*
X116937371Y-107971428D01*
X116937371Y-107971428D02*
X116994514Y-107933333D01*
X116994514Y-107933333D02*
X117051657Y-107857143D01*
X117051657Y-107857143D02*
X117080228Y-107742857D01*
X117080228Y-107742857D02*
X117080228Y-107666666D01*
X117080228Y-107666666D02*
X117051657Y-107552381D01*
X117051657Y-107552381D02*
X117023085Y-107514285D01*
X116480228Y-106752381D02*
X116480228Y-107209524D01*
X116480228Y-106980952D02*
X117080228Y-106980952D01*
X117080228Y-106980952D02*
X116994514Y-107057143D01*
X116994514Y-107057143D02*
X116937371Y-107133333D01*
X116937371Y-107133333D02*
X116908800Y-107209524D01*
X117080228Y-106257142D02*
X117080228Y-106180952D01*
X117080228Y-106180952D02*
X117051657Y-106104761D01*
X117051657Y-106104761D02*
X117023085Y-106066666D01*
X117023085Y-106066666D02*
X116965942Y-106028571D01*
X116965942Y-106028571D02*
X116851657Y-105990476D01*
X116851657Y-105990476D02*
X116708800Y-105990476D01*
X116708800Y-105990476D02*
X116594514Y-106028571D01*
X116594514Y-106028571D02*
X116537371Y-106066666D01*
X116537371Y-106066666D02*
X116508800Y-106104761D01*
X116508800Y-106104761D02*
X116480228Y-106180952D01*
X116480228Y-106180952D02*
X116480228Y-106257142D01*
X116480228Y-106257142D02*
X116508800Y-106333333D01*
X116508800Y-106333333D02*
X116537371Y-106371428D01*
X116537371Y-106371428D02*
X116594514Y-106409523D01*
X116594514Y-106409523D02*
X116708800Y-106447619D01*
X116708800Y-106447619D02*
X116851657Y-106447619D01*
X116851657Y-106447619D02*
X116965942Y-106409523D01*
X116965942Y-106409523D02*
X117023085Y-106371428D01*
X117023085Y-106371428D02*
X117051657Y-106333333D01*
X117051657Y-106333333D02*
X117080228Y-106257142D01*
X146264285Y-107019771D02*
X146530952Y-106734057D01*
X146721428Y-107019771D02*
X146721428Y-106419771D01*
X146721428Y-106419771D02*
X146416666Y-106419771D01*
X146416666Y-106419771D02*
X146340476Y-106448342D01*
X146340476Y-106448342D02*
X146302381Y-106476914D01*
X146302381Y-106476914D02*
X146264285Y-106534057D01*
X146264285Y-106534057D02*
X146264285Y-106619771D01*
X146264285Y-106619771D02*
X146302381Y-106676914D01*
X146302381Y-106676914D02*
X146340476Y-106705485D01*
X146340476Y-106705485D02*
X146416666Y-106734057D01*
X146416666Y-106734057D02*
X146721428Y-106734057D01*
X145502381Y-107019771D02*
X145959524Y-107019771D01*
X145730952Y-107019771D02*
X145730952Y-106419771D01*
X145730952Y-106419771D02*
X145807143Y-106505485D01*
X145807143Y-106505485D02*
X145883333Y-106562628D01*
X145883333Y-106562628D02*
X145959524Y-106591200D01*
X145235714Y-106419771D02*
X144740476Y-106419771D01*
X144740476Y-106419771D02*
X145007142Y-106648342D01*
X145007142Y-106648342D02*
X144892857Y-106648342D01*
X144892857Y-106648342D02*
X144816666Y-106676914D01*
X144816666Y-106676914D02*
X144778571Y-106705485D01*
X144778571Y-106705485D02*
X144740476Y-106762628D01*
X144740476Y-106762628D02*
X144740476Y-106905485D01*
X144740476Y-106905485D02*
X144778571Y-106962628D01*
X144778571Y-106962628D02*
X144816666Y-106991200D01*
X144816666Y-106991200D02*
X144892857Y-107019771D01*
X144892857Y-107019771D02*
X145121428Y-107019771D01*
X145121428Y-107019771D02*
X145197619Y-106991200D01*
X145197619Y-106991200D02*
X145235714Y-106962628D01*
X112383332Y-117462628D02*
X112421428Y-117491200D01*
X112421428Y-117491200D02*
X112535713Y-117519771D01*
X112535713Y-117519771D02*
X112611904Y-117519771D01*
X112611904Y-117519771D02*
X112726190Y-117491200D01*
X112726190Y-117491200D02*
X112802380Y-117434057D01*
X112802380Y-117434057D02*
X112840475Y-117376914D01*
X112840475Y-117376914D02*
X112878571Y-117262628D01*
X112878571Y-117262628D02*
X112878571Y-117176914D01*
X112878571Y-117176914D02*
X112840475Y-117062628D01*
X112840475Y-117062628D02*
X112802380Y-117005485D01*
X112802380Y-117005485D02*
X112726190Y-116948342D01*
X112726190Y-116948342D02*
X112611904Y-116919771D01*
X112611904Y-116919771D02*
X112535713Y-116919771D01*
X112535713Y-116919771D02*
X112421428Y-116948342D01*
X112421428Y-116948342D02*
X112383332Y-116976914D01*
X111926190Y-117176914D02*
X112002380Y-117148342D01*
X112002380Y-117148342D02*
X112040475Y-117119771D01*
X112040475Y-117119771D02*
X112078571Y-117062628D01*
X112078571Y-117062628D02*
X112078571Y-117034057D01*
X112078571Y-117034057D02*
X112040475Y-116976914D01*
X112040475Y-116976914D02*
X112002380Y-116948342D01*
X112002380Y-116948342D02*
X111926190Y-116919771D01*
X111926190Y-116919771D02*
X111773809Y-116919771D01*
X111773809Y-116919771D02*
X111697618Y-116948342D01*
X111697618Y-116948342D02*
X111659523Y-116976914D01*
X111659523Y-116976914D02*
X111621428Y-117034057D01*
X111621428Y-117034057D02*
X111621428Y-117062628D01*
X111621428Y-117062628D02*
X111659523Y-117119771D01*
X111659523Y-117119771D02*
X111697618Y-117148342D01*
X111697618Y-117148342D02*
X111773809Y-117176914D01*
X111773809Y-117176914D02*
X111926190Y-117176914D01*
X111926190Y-117176914D02*
X112002380Y-117205485D01*
X112002380Y-117205485D02*
X112040475Y-117234057D01*
X112040475Y-117234057D02*
X112078571Y-117291200D01*
X112078571Y-117291200D02*
X112078571Y-117405485D01*
X112078571Y-117405485D02*
X112040475Y-117462628D01*
X112040475Y-117462628D02*
X112002380Y-117491200D01*
X112002380Y-117491200D02*
X111926190Y-117519771D01*
X111926190Y-117519771D02*
X111773809Y-117519771D01*
X111773809Y-117519771D02*
X111697618Y-117491200D01*
X111697618Y-117491200D02*
X111659523Y-117462628D01*
X111659523Y-117462628D02*
X111621428Y-117405485D01*
X111621428Y-117405485D02*
X111621428Y-117291200D01*
X111621428Y-117291200D02*
X111659523Y-117234057D01*
X111659523Y-117234057D02*
X111697618Y-117205485D01*
X111697618Y-117205485D02*
X111773809Y-117176914D01*
X153340475Y-101519771D02*
X153340475Y-100919771D01*
X153340475Y-100919771D02*
X153149999Y-100919771D01*
X153149999Y-100919771D02*
X153035713Y-100948342D01*
X153035713Y-100948342D02*
X152959523Y-101005485D01*
X152959523Y-101005485D02*
X152921428Y-101062628D01*
X152921428Y-101062628D02*
X152883332Y-101176914D01*
X152883332Y-101176914D02*
X152883332Y-101262628D01*
X152883332Y-101262628D02*
X152921428Y-101376914D01*
X152921428Y-101376914D02*
X152959523Y-101434057D01*
X152959523Y-101434057D02*
X153035713Y-101491200D01*
X153035713Y-101491200D02*
X153149999Y-101519771D01*
X153149999Y-101519771D02*
X153340475Y-101519771D01*
X152616666Y-100919771D02*
X152083332Y-100919771D01*
X152083332Y-100919771D02*
X152426190Y-101519771D01*
X123633332Y-100019771D02*
X123899999Y-99734057D01*
X124090475Y-100019771D02*
X124090475Y-99419771D01*
X124090475Y-99419771D02*
X123785713Y-99419771D01*
X123785713Y-99419771D02*
X123709523Y-99448342D01*
X123709523Y-99448342D02*
X123671428Y-99476914D01*
X123671428Y-99476914D02*
X123633332Y-99534057D01*
X123633332Y-99534057D02*
X123633332Y-99619771D01*
X123633332Y-99619771D02*
X123671428Y-99676914D01*
X123671428Y-99676914D02*
X123709523Y-99705485D01*
X123709523Y-99705485D02*
X123785713Y-99734057D01*
X123785713Y-99734057D02*
X124090475Y-99734057D01*
X123366666Y-99419771D02*
X122833332Y-99419771D01*
X122833332Y-99419771D02*
X123176190Y-100019771D01*
X141633332Y-102462628D02*
X141671428Y-102491200D01*
X141671428Y-102491200D02*
X141785713Y-102519771D01*
X141785713Y-102519771D02*
X141861904Y-102519771D01*
X141861904Y-102519771D02*
X141976190Y-102491200D01*
X141976190Y-102491200D02*
X142052380Y-102434057D01*
X142052380Y-102434057D02*
X142090475Y-102376914D01*
X142090475Y-102376914D02*
X142128571Y-102262628D01*
X142128571Y-102262628D02*
X142128571Y-102176914D01*
X142128571Y-102176914D02*
X142090475Y-102062628D01*
X142090475Y-102062628D02*
X142052380Y-102005485D01*
X142052380Y-102005485D02*
X141976190Y-101948342D01*
X141976190Y-101948342D02*
X141861904Y-101919771D01*
X141861904Y-101919771D02*
X141785713Y-101919771D01*
X141785713Y-101919771D02*
X141671428Y-101948342D01*
X141671428Y-101948342D02*
X141633332Y-101976914D01*
X140871428Y-102519771D02*
X141328571Y-102519771D01*
X141099999Y-102519771D02*
X141099999Y-101919771D01*
X141099999Y-101919771D02*
X141176190Y-102005485D01*
X141176190Y-102005485D02*
X141252380Y-102062628D01*
X141252380Y-102062628D02*
X141328571Y-102091200D01*
X135780228Y-100990475D02*
X136380228Y-100990475D01*
X136380228Y-100990475D02*
X136380228Y-100799999D01*
X136380228Y-100799999D02*
X136351657Y-100685713D01*
X136351657Y-100685713D02*
X136294514Y-100609523D01*
X136294514Y-100609523D02*
X136237371Y-100571428D01*
X136237371Y-100571428D02*
X136123085Y-100533332D01*
X136123085Y-100533332D02*
X136037371Y-100533332D01*
X136037371Y-100533332D02*
X135923085Y-100571428D01*
X135923085Y-100571428D02*
X135865942Y-100609523D01*
X135865942Y-100609523D02*
X135808800Y-100685713D01*
X135808800Y-100685713D02*
X135780228Y-100799999D01*
X135780228Y-100799999D02*
X135780228Y-100990475D01*
X135780228Y-99771428D02*
X135780228Y-100228571D01*
X135780228Y-99999999D02*
X136380228Y-99999999D01*
X136380228Y-99999999D02*
X136294514Y-100076190D01*
X136294514Y-100076190D02*
X136237371Y-100152380D01*
X136237371Y-100152380D02*
X136208800Y-100228571D01*
X118883332Y-100019771D02*
X119149999Y-99734057D01*
X119340475Y-100019771D02*
X119340475Y-99419771D01*
X119340475Y-99419771D02*
X119035713Y-99419771D01*
X119035713Y-99419771D02*
X118959523Y-99448342D01*
X118959523Y-99448342D02*
X118921428Y-99476914D01*
X118921428Y-99476914D02*
X118883332Y-99534057D01*
X118883332Y-99534057D02*
X118883332Y-99619771D01*
X118883332Y-99619771D02*
X118921428Y-99676914D01*
X118921428Y-99676914D02*
X118959523Y-99705485D01*
X118959523Y-99705485D02*
X119035713Y-99734057D01*
X119035713Y-99734057D02*
X119340475Y-99734057D01*
X118197618Y-99419771D02*
X118349999Y-99419771D01*
X118349999Y-99419771D02*
X118426190Y-99448342D01*
X118426190Y-99448342D02*
X118464285Y-99476914D01*
X118464285Y-99476914D02*
X118540475Y-99562628D01*
X118540475Y-99562628D02*
X118578571Y-99676914D01*
X118578571Y-99676914D02*
X118578571Y-99905485D01*
X118578571Y-99905485D02*
X118540475Y-99962628D01*
X118540475Y-99962628D02*
X118502380Y-99991200D01*
X118502380Y-99991200D02*
X118426190Y-100019771D01*
X118426190Y-100019771D02*
X118273809Y-100019771D01*
X118273809Y-100019771D02*
X118197618Y-99991200D01*
X118197618Y-99991200D02*
X118159523Y-99962628D01*
X118159523Y-99962628D02*
X118121428Y-99905485D01*
X118121428Y-99905485D02*
X118121428Y-99762628D01*
X118121428Y-99762628D02*
X118159523Y-99705485D01*
X118159523Y-99705485D02*
X118197618Y-99676914D01*
X118197618Y-99676914D02*
X118273809Y-99648342D01*
X118273809Y-99648342D02*
X118426190Y-99648342D01*
X118426190Y-99648342D02*
X118502380Y-99676914D01*
X118502380Y-99676914D02*
X118540475Y-99705485D01*
X118540475Y-99705485D02*
X118578571Y-99762628D01*
X109730228Y-120014285D02*
X110015942Y-120280952D01*
X109730228Y-120471428D02*
X110330228Y-120471428D01*
X110330228Y-120471428D02*
X110330228Y-120166666D01*
X110330228Y-120166666D02*
X110301657Y-120090476D01*
X110301657Y-120090476D02*
X110273085Y-120052381D01*
X110273085Y-120052381D02*
X110215942Y-120014285D01*
X110215942Y-120014285D02*
X110130228Y-120014285D01*
X110130228Y-120014285D02*
X110073085Y-120052381D01*
X110073085Y-120052381D02*
X110044514Y-120090476D01*
X110044514Y-120090476D02*
X110015942Y-120166666D01*
X110015942Y-120166666D02*
X110015942Y-120471428D01*
X109730228Y-119252381D02*
X109730228Y-119709524D01*
X109730228Y-119480952D02*
X110330228Y-119480952D01*
X110330228Y-119480952D02*
X110244514Y-119557143D01*
X110244514Y-119557143D02*
X110187371Y-119633333D01*
X110187371Y-119633333D02*
X110158800Y-119709524D01*
X109730228Y-118490476D02*
X109730228Y-118947619D01*
X109730228Y-118719047D02*
X110330228Y-118719047D01*
X110330228Y-118719047D02*
X110244514Y-118795238D01*
X110244514Y-118795238D02*
X110187371Y-118871428D01*
X110187371Y-118871428D02*
X110158800Y-118947619D01*
X130383332Y-107069771D02*
X130649999Y-106784057D01*
X130840475Y-107069771D02*
X130840475Y-106469771D01*
X130840475Y-106469771D02*
X130535713Y-106469771D01*
X130535713Y-106469771D02*
X130459523Y-106498342D01*
X130459523Y-106498342D02*
X130421428Y-106526914D01*
X130421428Y-106526914D02*
X130383332Y-106584057D01*
X130383332Y-106584057D02*
X130383332Y-106669771D01*
X130383332Y-106669771D02*
X130421428Y-106726914D01*
X130421428Y-106726914D02*
X130459523Y-106755485D01*
X130459523Y-106755485D02*
X130535713Y-106784057D01*
X130535713Y-106784057D02*
X130840475Y-106784057D01*
X129621428Y-107069771D02*
X130078571Y-107069771D01*
X129849999Y-107069771D02*
X129849999Y-106469771D01*
X129849999Y-106469771D02*
X129926190Y-106555485D01*
X129926190Y-106555485D02*
X130002380Y-106612628D01*
X130002380Y-106612628D02*
X130078571Y-106641200D01*
X121230228Y-108883332D02*
X121515942Y-109149999D01*
X121230228Y-109340475D02*
X121830228Y-109340475D01*
X121830228Y-109340475D02*
X121830228Y-109035713D01*
X121830228Y-109035713D02*
X121801657Y-108959523D01*
X121801657Y-108959523D02*
X121773085Y-108921428D01*
X121773085Y-108921428D02*
X121715942Y-108883332D01*
X121715942Y-108883332D02*
X121630228Y-108883332D01*
X121630228Y-108883332D02*
X121573085Y-108921428D01*
X121573085Y-108921428D02*
X121544514Y-108959523D01*
X121544514Y-108959523D02*
X121515942Y-109035713D01*
X121515942Y-109035713D02*
X121515942Y-109340475D01*
X121573085Y-108426190D02*
X121601657Y-108502380D01*
X121601657Y-108502380D02*
X121630228Y-108540475D01*
X121630228Y-108540475D02*
X121687371Y-108578571D01*
X121687371Y-108578571D02*
X121715942Y-108578571D01*
X121715942Y-108578571D02*
X121773085Y-108540475D01*
X121773085Y-108540475D02*
X121801657Y-108502380D01*
X121801657Y-108502380D02*
X121830228Y-108426190D01*
X121830228Y-108426190D02*
X121830228Y-108273809D01*
X121830228Y-108273809D02*
X121801657Y-108197618D01*
X121801657Y-108197618D02*
X121773085Y-108159523D01*
X121773085Y-108159523D02*
X121715942Y-108121428D01*
X121715942Y-108121428D02*
X121687371Y-108121428D01*
X121687371Y-108121428D02*
X121630228Y-108159523D01*
X121630228Y-108159523D02*
X121601657Y-108197618D01*
X121601657Y-108197618D02*
X121573085Y-108273809D01*
X121573085Y-108273809D02*
X121573085Y-108426190D01*
X121573085Y-108426190D02*
X121544514Y-108502380D01*
X121544514Y-108502380D02*
X121515942Y-108540475D01*
X121515942Y-108540475D02*
X121458800Y-108578571D01*
X121458800Y-108578571D02*
X121344514Y-108578571D01*
X121344514Y-108578571D02*
X121287371Y-108540475D01*
X121287371Y-108540475D02*
X121258800Y-108502380D01*
X121258800Y-108502380D02*
X121230228Y-108426190D01*
X121230228Y-108426190D02*
X121230228Y-108273809D01*
X121230228Y-108273809D02*
X121258800Y-108197618D01*
X121258800Y-108197618D02*
X121287371Y-108159523D01*
X121287371Y-108159523D02*
X121344514Y-108121428D01*
X121344514Y-108121428D02*
X121458800Y-108121428D01*
X121458800Y-108121428D02*
X121515942Y-108159523D01*
X121515942Y-108159523D02*
X121544514Y-108197618D01*
X121544514Y-108197618D02*
X121573085Y-108273809D01*
X139783332Y-111412628D02*
X139821428Y-111441200D01*
X139821428Y-111441200D02*
X139935713Y-111469771D01*
X139935713Y-111469771D02*
X140011904Y-111469771D01*
X140011904Y-111469771D02*
X140126190Y-111441200D01*
X140126190Y-111441200D02*
X140202380Y-111384057D01*
X140202380Y-111384057D02*
X140240475Y-111326914D01*
X140240475Y-111326914D02*
X140278571Y-111212628D01*
X140278571Y-111212628D02*
X140278571Y-111126914D01*
X140278571Y-111126914D02*
X140240475Y-111012628D01*
X140240475Y-111012628D02*
X140202380Y-110955485D01*
X140202380Y-110955485D02*
X140126190Y-110898342D01*
X140126190Y-110898342D02*
X140011904Y-110869771D01*
X140011904Y-110869771D02*
X139935713Y-110869771D01*
X139935713Y-110869771D02*
X139821428Y-110898342D01*
X139821428Y-110898342D02*
X139783332Y-110926914D01*
X139097618Y-110869771D02*
X139249999Y-110869771D01*
X139249999Y-110869771D02*
X139326190Y-110898342D01*
X139326190Y-110898342D02*
X139364285Y-110926914D01*
X139364285Y-110926914D02*
X139440475Y-111012628D01*
X139440475Y-111012628D02*
X139478571Y-111126914D01*
X139478571Y-111126914D02*
X139478571Y-111355485D01*
X139478571Y-111355485D02*
X139440475Y-111412628D01*
X139440475Y-111412628D02*
X139402380Y-111441200D01*
X139402380Y-111441200D02*
X139326190Y-111469771D01*
X139326190Y-111469771D02*
X139173809Y-111469771D01*
X139173809Y-111469771D02*
X139097618Y-111441200D01*
X139097618Y-111441200D02*
X139059523Y-111412628D01*
X139059523Y-111412628D02*
X139021428Y-111355485D01*
X139021428Y-111355485D02*
X139021428Y-111212628D01*
X139021428Y-111212628D02*
X139059523Y-111155485D01*
X139059523Y-111155485D02*
X139097618Y-111126914D01*
X139097618Y-111126914D02*
X139173809Y-111098342D01*
X139173809Y-111098342D02*
X139326190Y-111098342D01*
X139326190Y-111098342D02*
X139402380Y-111126914D01*
X139402380Y-111126914D02*
X139440475Y-111155485D01*
X139440475Y-111155485D02*
X139478571Y-111212628D01*
X123980228Y-109633332D02*
X124265942Y-109899999D01*
X123980228Y-110090475D02*
X124580228Y-110090475D01*
X124580228Y-110090475D02*
X124580228Y-109785713D01*
X124580228Y-109785713D02*
X124551657Y-109709523D01*
X124551657Y-109709523D02*
X124523085Y-109671428D01*
X124523085Y-109671428D02*
X124465942Y-109633332D01*
X124465942Y-109633332D02*
X124380228Y-109633332D01*
X124380228Y-109633332D02*
X124323085Y-109671428D01*
X124323085Y-109671428D02*
X124294514Y-109709523D01*
X124294514Y-109709523D02*
X124265942Y-109785713D01*
X124265942Y-109785713D02*
X124265942Y-110090475D01*
X123980228Y-109252380D02*
X123980228Y-109099999D01*
X123980228Y-109099999D02*
X124008800Y-109023809D01*
X124008800Y-109023809D02*
X124037371Y-108985713D01*
X124037371Y-108985713D02*
X124123085Y-108909523D01*
X124123085Y-108909523D02*
X124237371Y-108871428D01*
X124237371Y-108871428D02*
X124465942Y-108871428D01*
X124465942Y-108871428D02*
X124523085Y-108909523D01*
X124523085Y-108909523D02*
X124551657Y-108947618D01*
X124551657Y-108947618D02*
X124580228Y-109023809D01*
X124580228Y-109023809D02*
X124580228Y-109176190D01*
X124580228Y-109176190D02*
X124551657Y-109252380D01*
X124551657Y-109252380D02*
X124523085Y-109290475D01*
X124523085Y-109290475D02*
X124465942Y-109328571D01*
X124465942Y-109328571D02*
X124323085Y-109328571D01*
X124323085Y-109328571D02*
X124265942Y-109290475D01*
X124265942Y-109290475D02*
X124237371Y-109252380D01*
X124237371Y-109252380D02*
X124208800Y-109176190D01*
X124208800Y-109176190D02*
X124208800Y-109023809D01*
X124208800Y-109023809D02*
X124237371Y-108947618D01*
X124237371Y-108947618D02*
X124265942Y-108909523D01*
X124265942Y-108909523D02*
X124323085Y-108871428D01*
X116537371Y-103133332D02*
X116508800Y-103171428D01*
X116508800Y-103171428D02*
X116480228Y-103285713D01*
X116480228Y-103285713D02*
X116480228Y-103361904D01*
X116480228Y-103361904D02*
X116508800Y-103476190D01*
X116508800Y-103476190D02*
X116565942Y-103552380D01*
X116565942Y-103552380D02*
X116623085Y-103590475D01*
X116623085Y-103590475D02*
X116737371Y-103628571D01*
X116737371Y-103628571D02*
X116823085Y-103628571D01*
X116823085Y-103628571D02*
X116937371Y-103590475D01*
X116937371Y-103590475D02*
X116994514Y-103552380D01*
X116994514Y-103552380D02*
X117051657Y-103476190D01*
X117051657Y-103476190D02*
X117080228Y-103361904D01*
X117080228Y-103361904D02*
X117080228Y-103285713D01*
X117080228Y-103285713D02*
X117051657Y-103171428D01*
X117051657Y-103171428D02*
X117023085Y-103133332D01*
X116480228Y-102752380D02*
X116480228Y-102599999D01*
X116480228Y-102599999D02*
X116508800Y-102523809D01*
X116508800Y-102523809D02*
X116537371Y-102485713D01*
X116537371Y-102485713D02*
X116623085Y-102409523D01*
X116623085Y-102409523D02*
X116737371Y-102371428D01*
X116737371Y-102371428D02*
X116965942Y-102371428D01*
X116965942Y-102371428D02*
X117023085Y-102409523D01*
X117023085Y-102409523D02*
X117051657Y-102447618D01*
X117051657Y-102447618D02*
X117080228Y-102523809D01*
X117080228Y-102523809D02*
X117080228Y-102676190D01*
X117080228Y-102676190D02*
X117051657Y-102752380D01*
X117051657Y-102752380D02*
X117023085Y-102790475D01*
X117023085Y-102790475D02*
X116965942Y-102828571D01*
X116965942Y-102828571D02*
X116823085Y-102828571D01*
X116823085Y-102828571D02*
X116765942Y-102790475D01*
X116765942Y-102790475D02*
X116737371Y-102752380D01*
X116737371Y-102752380D02*
X116708800Y-102676190D01*
X116708800Y-102676190D02*
X116708800Y-102523809D01*
X116708800Y-102523809D02*
X116737371Y-102447618D01*
X116737371Y-102447618D02*
X116765942Y-102409523D01*
X116765942Y-102409523D02*
X116823085Y-102371428D01*
X140980228Y-116014285D02*
X141265942Y-116280952D01*
X140980228Y-116471428D02*
X141580228Y-116471428D01*
X141580228Y-116471428D02*
X141580228Y-116166666D01*
X141580228Y-116166666D02*
X141551657Y-116090476D01*
X141551657Y-116090476D02*
X141523085Y-116052381D01*
X141523085Y-116052381D02*
X141465942Y-116014285D01*
X141465942Y-116014285D02*
X141380228Y-116014285D01*
X141380228Y-116014285D02*
X141323085Y-116052381D01*
X141323085Y-116052381D02*
X141294514Y-116090476D01*
X141294514Y-116090476D02*
X141265942Y-116166666D01*
X141265942Y-116166666D02*
X141265942Y-116471428D01*
X140980228Y-115252381D02*
X140980228Y-115709524D01*
X140980228Y-115480952D02*
X141580228Y-115480952D01*
X141580228Y-115480952D02*
X141494514Y-115557143D01*
X141494514Y-115557143D02*
X141437371Y-115633333D01*
X141437371Y-115633333D02*
X141408800Y-115709524D01*
X141580228Y-114985714D02*
X141580228Y-114452380D01*
X141580228Y-114452380D02*
X140980228Y-114795238D01*
X135483332Y-111469771D02*
X135749999Y-111184057D01*
X135940475Y-111469771D02*
X135940475Y-110869771D01*
X135940475Y-110869771D02*
X135635713Y-110869771D01*
X135635713Y-110869771D02*
X135559523Y-110898342D01*
X135559523Y-110898342D02*
X135521428Y-110926914D01*
X135521428Y-110926914D02*
X135483332Y-110984057D01*
X135483332Y-110984057D02*
X135483332Y-111069771D01*
X135483332Y-111069771D02*
X135521428Y-111126914D01*
X135521428Y-111126914D02*
X135559523Y-111155485D01*
X135559523Y-111155485D02*
X135635713Y-111184057D01*
X135635713Y-111184057D02*
X135940475Y-111184057D01*
X135216666Y-110869771D02*
X134721428Y-110869771D01*
X134721428Y-110869771D02*
X134988094Y-111098342D01*
X134988094Y-111098342D02*
X134873809Y-111098342D01*
X134873809Y-111098342D02*
X134797618Y-111126914D01*
X134797618Y-111126914D02*
X134759523Y-111155485D01*
X134759523Y-111155485D02*
X134721428Y-111212628D01*
X134721428Y-111212628D02*
X134721428Y-111355485D01*
X134721428Y-111355485D02*
X134759523Y-111412628D01*
X134759523Y-111412628D02*
X134797618Y-111441200D01*
X134797618Y-111441200D02*
X134873809Y-111469771D01*
X134873809Y-111469771D02*
X135102380Y-111469771D01*
X135102380Y-111469771D02*
X135178571Y-111441200D01*
X135178571Y-111441200D02*
X135216666Y-111412628D01*
X142590475Y-111769771D02*
X142590475Y-111169771D01*
X142590475Y-111169771D02*
X142399999Y-111169771D01*
X142399999Y-111169771D02*
X142285713Y-111198342D01*
X142285713Y-111198342D02*
X142209523Y-111255485D01*
X142209523Y-111255485D02*
X142171428Y-111312628D01*
X142171428Y-111312628D02*
X142133332Y-111426914D01*
X142133332Y-111426914D02*
X142133332Y-111512628D01*
X142133332Y-111512628D02*
X142171428Y-111626914D01*
X142171428Y-111626914D02*
X142209523Y-111684057D01*
X142209523Y-111684057D02*
X142285713Y-111741200D01*
X142285713Y-111741200D02*
X142399999Y-111769771D01*
X142399999Y-111769771D02*
X142590475Y-111769771D01*
X141866666Y-111169771D02*
X141371428Y-111169771D01*
X141371428Y-111169771D02*
X141638094Y-111398342D01*
X141638094Y-111398342D02*
X141523809Y-111398342D01*
X141523809Y-111398342D02*
X141447618Y-111426914D01*
X141447618Y-111426914D02*
X141409523Y-111455485D01*
X141409523Y-111455485D02*
X141371428Y-111512628D01*
X141371428Y-111512628D02*
X141371428Y-111655485D01*
X141371428Y-111655485D02*
X141409523Y-111712628D01*
X141409523Y-111712628D02*
X141447618Y-111741200D01*
X141447618Y-111741200D02*
X141523809Y-111769771D01*
X141523809Y-111769771D02*
X141752380Y-111769771D01*
X141752380Y-111769771D02*
X141828571Y-111741200D01*
X141828571Y-111741200D02*
X141866666Y-111712628D01*
X126090475Y-105769771D02*
X126090475Y-105169771D01*
X126090475Y-105169771D02*
X125899999Y-105169771D01*
X125899999Y-105169771D02*
X125785713Y-105198342D01*
X125785713Y-105198342D02*
X125709523Y-105255485D01*
X125709523Y-105255485D02*
X125671428Y-105312628D01*
X125671428Y-105312628D02*
X125633332Y-105426914D01*
X125633332Y-105426914D02*
X125633332Y-105512628D01*
X125633332Y-105512628D02*
X125671428Y-105626914D01*
X125671428Y-105626914D02*
X125709523Y-105684057D01*
X125709523Y-105684057D02*
X125785713Y-105741200D01*
X125785713Y-105741200D02*
X125899999Y-105769771D01*
X125899999Y-105769771D02*
X126090475Y-105769771D01*
X125328571Y-105226914D02*
X125290475Y-105198342D01*
X125290475Y-105198342D02*
X125214285Y-105169771D01*
X125214285Y-105169771D02*
X125023809Y-105169771D01*
X125023809Y-105169771D02*
X124947618Y-105198342D01*
X124947618Y-105198342D02*
X124909523Y-105226914D01*
X124909523Y-105226914D02*
X124871428Y-105284057D01*
X124871428Y-105284057D02*
X124871428Y-105341200D01*
X124871428Y-105341200D02*
X124909523Y-105426914D01*
X124909523Y-105426914D02*
X125366666Y-105769771D01*
X125366666Y-105769771D02*
X124871428Y-105769771D01*
X147326190Y-113076914D02*
X147402380Y-113048342D01*
X147402380Y-113048342D02*
X147478571Y-112991200D01*
X147478571Y-112991200D02*
X147592857Y-112905485D01*
X147592857Y-112905485D02*
X147669047Y-112876914D01*
X147669047Y-112876914D02*
X147745238Y-112876914D01*
X147707142Y-113019771D02*
X147783333Y-112991200D01*
X147783333Y-112991200D02*
X147859523Y-112934057D01*
X147859523Y-112934057D02*
X147897619Y-112819771D01*
X147897619Y-112819771D02*
X147897619Y-112619771D01*
X147897619Y-112619771D02*
X147859523Y-112505485D01*
X147859523Y-112505485D02*
X147783333Y-112448342D01*
X147783333Y-112448342D02*
X147707142Y-112419771D01*
X147707142Y-112419771D02*
X147554761Y-112419771D01*
X147554761Y-112419771D02*
X147478571Y-112448342D01*
X147478571Y-112448342D02*
X147402380Y-112505485D01*
X147402380Y-112505485D02*
X147364285Y-112619771D01*
X147364285Y-112619771D02*
X147364285Y-112819771D01*
X147364285Y-112819771D02*
X147402380Y-112934057D01*
X147402380Y-112934057D02*
X147478571Y-112991200D01*
X147478571Y-112991200D02*
X147554761Y-113019771D01*
X147554761Y-113019771D02*
X147707142Y-113019771D01*
X146602381Y-113019771D02*
X147059524Y-113019771D01*
X146830952Y-113019771D02*
X146830952Y-112419771D01*
X146830952Y-112419771D02*
X146907143Y-112505485D01*
X146907143Y-112505485D02*
X146983333Y-112562628D01*
X146983333Y-112562628D02*
X147059524Y-112591200D01*
X123787371Y-101483332D02*
X123758800Y-101521428D01*
X123758800Y-101521428D02*
X123730228Y-101635713D01*
X123730228Y-101635713D02*
X123730228Y-101711904D01*
X123730228Y-101711904D02*
X123758800Y-101826190D01*
X123758800Y-101826190D02*
X123815942Y-101902380D01*
X123815942Y-101902380D02*
X123873085Y-101940475D01*
X123873085Y-101940475D02*
X123987371Y-101978571D01*
X123987371Y-101978571D02*
X124073085Y-101978571D01*
X124073085Y-101978571D02*
X124187371Y-101940475D01*
X124187371Y-101940475D02*
X124244514Y-101902380D01*
X124244514Y-101902380D02*
X124301657Y-101826190D01*
X124301657Y-101826190D02*
X124330228Y-101711904D01*
X124330228Y-101711904D02*
X124330228Y-101635713D01*
X124330228Y-101635713D02*
X124301657Y-101521428D01*
X124301657Y-101521428D02*
X124273085Y-101483332D01*
X124330228Y-100759523D02*
X124330228Y-101140475D01*
X124330228Y-101140475D02*
X124044514Y-101178571D01*
X124044514Y-101178571D02*
X124073085Y-101140475D01*
X124073085Y-101140475D02*
X124101657Y-101064285D01*
X124101657Y-101064285D02*
X124101657Y-100873809D01*
X124101657Y-100873809D02*
X124073085Y-100797618D01*
X124073085Y-100797618D02*
X124044514Y-100759523D01*
X124044514Y-100759523D02*
X123987371Y-100721428D01*
X123987371Y-100721428D02*
X123844514Y-100721428D01*
X123844514Y-100721428D02*
X123787371Y-100759523D01*
X123787371Y-100759523D02*
X123758800Y-100797618D01*
X123758800Y-100797618D02*
X123730228Y-100873809D01*
X123730228Y-100873809D02*
X123730228Y-101064285D01*
X123730228Y-101064285D02*
X123758800Y-101140475D01*
X123758800Y-101140475D02*
X123787371Y-101178571D01*
X123508207Y-103068771D02*
X123508207Y-103554485D01*
X123508207Y-103554485D02*
X123470112Y-103611628D01*
X123470112Y-103611628D02*
X123432017Y-103640200D01*
X123432017Y-103640200D02*
X123355826Y-103668771D01*
X123355826Y-103668771D02*
X123203445Y-103668771D01*
X123203445Y-103668771D02*
X123127255Y-103640200D01*
X123127255Y-103640200D02*
X123089160Y-103611628D01*
X123089160Y-103611628D02*
X123051064Y-103554485D01*
X123051064Y-103554485D02*
X123051064Y-103068771D01*
X122327255Y-103268771D02*
X122327255Y-103668771D01*
X122517731Y-103040200D02*
X122708208Y-103468771D01*
X122708208Y-103468771D02*
X122212969Y-103468771D01*
X135830228Y-116014285D02*
X136115942Y-116280952D01*
X135830228Y-116471428D02*
X136430228Y-116471428D01*
X136430228Y-116471428D02*
X136430228Y-116166666D01*
X136430228Y-116166666D02*
X136401657Y-116090476D01*
X136401657Y-116090476D02*
X136373085Y-116052381D01*
X136373085Y-116052381D02*
X136315942Y-116014285D01*
X136315942Y-116014285D02*
X136230228Y-116014285D01*
X136230228Y-116014285D02*
X136173085Y-116052381D01*
X136173085Y-116052381D02*
X136144514Y-116090476D01*
X136144514Y-116090476D02*
X136115942Y-116166666D01*
X136115942Y-116166666D02*
X136115942Y-116471428D01*
X135830228Y-115252381D02*
X135830228Y-115709524D01*
X135830228Y-115480952D02*
X136430228Y-115480952D01*
X136430228Y-115480952D02*
X136344514Y-115557143D01*
X136344514Y-115557143D02*
X136287371Y-115633333D01*
X136287371Y-115633333D02*
X136258800Y-115709524D01*
X136430228Y-114566666D02*
X136430228Y-114719047D01*
X136430228Y-114719047D02*
X136401657Y-114795238D01*
X136401657Y-114795238D02*
X136373085Y-114833333D01*
X136373085Y-114833333D02*
X136287371Y-114909523D01*
X136287371Y-114909523D02*
X136173085Y-114947619D01*
X136173085Y-114947619D02*
X135944514Y-114947619D01*
X135944514Y-114947619D02*
X135887371Y-114909523D01*
X135887371Y-114909523D02*
X135858800Y-114871428D01*
X135858800Y-114871428D02*
X135830228Y-114795238D01*
X135830228Y-114795238D02*
X135830228Y-114642857D01*
X135830228Y-114642857D02*
X135858800Y-114566666D01*
X135858800Y-114566666D02*
X135887371Y-114528571D01*
X135887371Y-114528571D02*
X135944514Y-114490476D01*
X135944514Y-114490476D02*
X136087371Y-114490476D01*
X136087371Y-114490476D02*
X136144514Y-114528571D01*
X136144514Y-114528571D02*
X136173085Y-114566666D01*
X136173085Y-114566666D02*
X136201657Y-114642857D01*
X136201657Y-114642857D02*
X136201657Y-114795238D01*
X136201657Y-114795238D02*
X136173085Y-114871428D01*
X136173085Y-114871428D02*
X136144514Y-114909523D01*
X136144514Y-114909523D02*
X136087371Y-114947619D01*
X143466666Y-116669771D02*
X143466666Y-117098342D01*
X143466666Y-117098342D02*
X143504761Y-117184057D01*
X143504761Y-117184057D02*
X143580952Y-117241200D01*
X143580952Y-117241200D02*
X143695237Y-117269771D01*
X143695237Y-117269771D02*
X143771428Y-117269771D01*
X142666666Y-117269771D02*
X143123809Y-117269771D01*
X142895237Y-117269771D02*
X142895237Y-116669771D01*
X142895237Y-116669771D02*
X142971428Y-116755485D01*
X142971428Y-116755485D02*
X143047618Y-116812628D01*
X143047618Y-116812628D02*
X143123809Y-116841200D01*
X96008800Y-111566667D02*
X95980228Y-111452381D01*
X95980228Y-111452381D02*
X95980228Y-111261905D01*
X95980228Y-111261905D02*
X96008800Y-111185714D01*
X96008800Y-111185714D02*
X96037371Y-111147619D01*
X96037371Y-111147619D02*
X96094514Y-111109524D01*
X96094514Y-111109524D02*
X96151657Y-111109524D01*
X96151657Y-111109524D02*
X96208800Y-111147619D01*
X96208800Y-111147619D02*
X96237371Y-111185714D01*
X96237371Y-111185714D02*
X96265942Y-111261905D01*
X96265942Y-111261905D02*
X96294514Y-111414286D01*
X96294514Y-111414286D02*
X96323085Y-111490476D01*
X96323085Y-111490476D02*
X96351657Y-111528571D01*
X96351657Y-111528571D02*
X96408800Y-111566667D01*
X96408800Y-111566667D02*
X96465942Y-111566667D01*
X96465942Y-111566667D02*
X96523085Y-111528571D01*
X96523085Y-111528571D02*
X96551657Y-111490476D01*
X96551657Y-111490476D02*
X96580228Y-111414286D01*
X96580228Y-111414286D02*
X96580228Y-111223809D01*
X96580228Y-111223809D02*
X96551657Y-111109524D01*
X96580228Y-110842857D02*
X95980228Y-110652381D01*
X95980228Y-110652381D02*
X96408800Y-110500000D01*
X96408800Y-110500000D02*
X95980228Y-110347619D01*
X95980228Y-110347619D02*
X96580228Y-110157143D01*
X96523085Y-109890476D02*
X96551657Y-109852380D01*
X96551657Y-109852380D02*
X96580228Y-109776190D01*
X96580228Y-109776190D02*
X96580228Y-109585714D01*
X96580228Y-109585714D02*
X96551657Y-109509523D01*
X96551657Y-109509523D02*
X96523085Y-109471428D01*
X96523085Y-109471428D02*
X96465942Y-109433333D01*
X96465942Y-109433333D02*
X96408800Y-109433333D01*
X96408800Y-109433333D02*
X96323085Y-109471428D01*
X96323085Y-109471428D02*
X95980228Y-109928571D01*
X95980228Y-109928571D02*
X95980228Y-109433333D01*
X133133332Y-107069771D02*
X133399999Y-106784057D01*
X133590475Y-107069771D02*
X133590475Y-106469771D01*
X133590475Y-106469771D02*
X133285713Y-106469771D01*
X133285713Y-106469771D02*
X133209523Y-106498342D01*
X133209523Y-106498342D02*
X133171428Y-106526914D01*
X133171428Y-106526914D02*
X133133332Y-106584057D01*
X133133332Y-106584057D02*
X133133332Y-106669771D01*
X133133332Y-106669771D02*
X133171428Y-106726914D01*
X133171428Y-106726914D02*
X133209523Y-106755485D01*
X133209523Y-106755485D02*
X133285713Y-106784057D01*
X133285713Y-106784057D02*
X133590475Y-106784057D01*
X132828571Y-106526914D02*
X132790475Y-106498342D01*
X132790475Y-106498342D02*
X132714285Y-106469771D01*
X132714285Y-106469771D02*
X132523809Y-106469771D01*
X132523809Y-106469771D02*
X132447618Y-106498342D01*
X132447618Y-106498342D02*
X132409523Y-106526914D01*
X132409523Y-106526914D02*
X132371428Y-106584057D01*
X132371428Y-106584057D02*
X132371428Y-106641200D01*
X132371428Y-106641200D02*
X132409523Y-106726914D01*
X132409523Y-106726914D02*
X132866666Y-107069771D01*
X132866666Y-107069771D02*
X132371428Y-107069771D01*
X150764285Y-113019771D02*
X151030952Y-112734057D01*
X151221428Y-113019771D02*
X151221428Y-112419771D01*
X151221428Y-112419771D02*
X150916666Y-112419771D01*
X150916666Y-112419771D02*
X150840476Y-112448342D01*
X150840476Y-112448342D02*
X150802381Y-112476914D01*
X150802381Y-112476914D02*
X150764285Y-112534057D01*
X150764285Y-112534057D02*
X150764285Y-112619771D01*
X150764285Y-112619771D02*
X150802381Y-112676914D01*
X150802381Y-112676914D02*
X150840476Y-112705485D01*
X150840476Y-112705485D02*
X150916666Y-112734057D01*
X150916666Y-112734057D02*
X151221428Y-112734057D01*
X150002381Y-113019771D02*
X150459524Y-113019771D01*
X150230952Y-113019771D02*
X150230952Y-112419771D01*
X150230952Y-112419771D02*
X150307143Y-112505485D01*
X150307143Y-112505485D02*
X150383333Y-112562628D01*
X150383333Y-112562628D02*
X150459524Y-112591200D01*
X149545238Y-112676914D02*
X149621428Y-112648342D01*
X149621428Y-112648342D02*
X149659523Y-112619771D01*
X149659523Y-112619771D02*
X149697619Y-112562628D01*
X149697619Y-112562628D02*
X149697619Y-112534057D01*
X149697619Y-112534057D02*
X149659523Y-112476914D01*
X149659523Y-112476914D02*
X149621428Y-112448342D01*
X149621428Y-112448342D02*
X149545238Y-112419771D01*
X149545238Y-112419771D02*
X149392857Y-112419771D01*
X149392857Y-112419771D02*
X149316666Y-112448342D01*
X149316666Y-112448342D02*
X149278571Y-112476914D01*
X149278571Y-112476914D02*
X149240476Y-112534057D01*
X149240476Y-112534057D02*
X149240476Y-112562628D01*
X149240476Y-112562628D02*
X149278571Y-112619771D01*
X149278571Y-112619771D02*
X149316666Y-112648342D01*
X149316666Y-112648342D02*
X149392857Y-112676914D01*
X149392857Y-112676914D02*
X149545238Y-112676914D01*
X149545238Y-112676914D02*
X149621428Y-112705485D01*
X149621428Y-112705485D02*
X149659523Y-112734057D01*
X149659523Y-112734057D02*
X149697619Y-112791200D01*
X149697619Y-112791200D02*
X149697619Y-112905485D01*
X149697619Y-112905485D02*
X149659523Y-112962628D01*
X149659523Y-112962628D02*
X149621428Y-112991200D01*
X149621428Y-112991200D02*
X149545238Y-113019771D01*
X149545238Y-113019771D02*
X149392857Y-113019771D01*
X149392857Y-113019771D02*
X149316666Y-112991200D01*
X149316666Y-112991200D02*
X149278571Y-112962628D01*
X149278571Y-112962628D02*
X149240476Y-112905485D01*
X149240476Y-112905485D02*
X149240476Y-112791200D01*
X149240476Y-112791200D02*
X149278571Y-112734057D01*
X149278571Y-112734057D02*
X149316666Y-112705485D01*
X149316666Y-112705485D02*
X149392857Y-112676914D01*
X120859523Y-116919771D02*
X120859523Y-117405485D01*
X120859523Y-117405485D02*
X120821428Y-117462628D01*
X120821428Y-117462628D02*
X120783333Y-117491200D01*
X120783333Y-117491200D02*
X120707142Y-117519771D01*
X120707142Y-117519771D02*
X120554761Y-117519771D01*
X120554761Y-117519771D02*
X120478571Y-117491200D01*
X120478571Y-117491200D02*
X120440476Y-117462628D01*
X120440476Y-117462628D02*
X120402380Y-117405485D01*
X120402380Y-117405485D02*
X120402380Y-116919771D01*
X120097619Y-116919771D02*
X119602381Y-116919771D01*
X119602381Y-116919771D02*
X119869047Y-117148342D01*
X119869047Y-117148342D02*
X119754762Y-117148342D01*
X119754762Y-117148342D02*
X119678571Y-117176914D01*
X119678571Y-117176914D02*
X119640476Y-117205485D01*
X119640476Y-117205485D02*
X119602381Y-117262628D01*
X119602381Y-117262628D02*
X119602381Y-117405485D01*
X119602381Y-117405485D02*
X119640476Y-117462628D01*
X119640476Y-117462628D02*
X119678571Y-117491200D01*
X119678571Y-117491200D02*
X119754762Y-117519771D01*
X119754762Y-117519771D02*
X119983333Y-117519771D01*
X119983333Y-117519771D02*
X120059524Y-117491200D01*
X120059524Y-117491200D02*
X120097619Y-117462628D01*
X101142857Y-108359580D02*
X101190476Y-108407200D01*
X101190476Y-108407200D02*
X101333333Y-108454819D01*
X101333333Y-108454819D02*
X101428571Y-108454819D01*
X101428571Y-108454819D02*
X101571428Y-108407200D01*
X101571428Y-108407200D02*
X101666666Y-108311961D01*
X101666666Y-108311961D02*
X101714285Y-108216723D01*
X101714285Y-108216723D02*
X101761904Y-108026247D01*
X101761904Y-108026247D02*
X101761904Y-107883390D01*
X101761904Y-107883390D02*
X101714285Y-107692914D01*
X101714285Y-107692914D02*
X101666666Y-107597676D01*
X101666666Y-107597676D02*
X101571428Y-107502438D01*
X101571428Y-107502438D02*
X101428571Y-107454819D01*
X101428571Y-107454819D02*
X101333333Y-107454819D01*
X101333333Y-107454819D02*
X101190476Y-107502438D01*
X101190476Y-107502438D02*
X101142857Y-107550057D01*
X100190476Y-108454819D02*
X100761904Y-108454819D01*
X100476190Y-108454819D02*
X100476190Y-107454819D01*
X100476190Y-107454819D02*
X100571428Y-107597676D01*
X100571428Y-107597676D02*
X100666666Y-107692914D01*
X100666666Y-107692914D02*
X100761904Y-107740533D01*
X99333333Y-107788152D02*
X99333333Y-108454819D01*
X99571428Y-107407200D02*
X99809523Y-108121485D01*
X99809523Y-108121485D02*
X99190476Y-108121485D01*
X125730228Y-120014285D02*
X126015942Y-120280952D01*
X125730228Y-120471428D02*
X126330228Y-120471428D01*
X126330228Y-120471428D02*
X126330228Y-120166666D01*
X126330228Y-120166666D02*
X126301657Y-120090476D01*
X126301657Y-120090476D02*
X126273085Y-120052381D01*
X126273085Y-120052381D02*
X126215942Y-120014285D01*
X126215942Y-120014285D02*
X126130228Y-120014285D01*
X126130228Y-120014285D02*
X126073085Y-120052381D01*
X126073085Y-120052381D02*
X126044514Y-120090476D01*
X126044514Y-120090476D02*
X126015942Y-120166666D01*
X126015942Y-120166666D02*
X126015942Y-120471428D01*
X125730228Y-119252381D02*
X125730228Y-119709524D01*
X125730228Y-119480952D02*
X126330228Y-119480952D01*
X126330228Y-119480952D02*
X126244514Y-119557143D01*
X126244514Y-119557143D02*
X126187371Y-119633333D01*
X126187371Y-119633333D02*
X126158800Y-119709524D01*
X126330228Y-118757142D02*
X126330228Y-118680952D01*
X126330228Y-118680952D02*
X126301657Y-118604761D01*
X126301657Y-118604761D02*
X126273085Y-118566666D01*
X126273085Y-118566666D02*
X126215942Y-118528571D01*
X126215942Y-118528571D02*
X126101657Y-118490476D01*
X126101657Y-118490476D02*
X125958800Y-118490476D01*
X125958800Y-118490476D02*
X125844514Y-118528571D01*
X125844514Y-118528571D02*
X125787371Y-118566666D01*
X125787371Y-118566666D02*
X125758800Y-118604761D01*
X125758800Y-118604761D02*
X125730228Y-118680952D01*
X125730228Y-118680952D02*
X125730228Y-118757142D01*
X125730228Y-118757142D02*
X125758800Y-118833333D01*
X125758800Y-118833333D02*
X125787371Y-118871428D01*
X125787371Y-118871428D02*
X125844514Y-118909523D01*
X125844514Y-118909523D02*
X125958800Y-118947619D01*
X125958800Y-118947619D02*
X126101657Y-118947619D01*
X126101657Y-118947619D02*
X126215942Y-118909523D01*
X126215942Y-118909523D02*
X126273085Y-118871428D01*
X126273085Y-118871428D02*
X126301657Y-118833333D01*
X126301657Y-118833333D02*
X126330228Y-118757142D01*
X105549523Y-104169771D02*
X105549523Y-104655485D01*
X105549523Y-104655485D02*
X105511428Y-104712628D01*
X105511428Y-104712628D02*
X105473333Y-104741200D01*
X105473333Y-104741200D02*
X105397142Y-104769771D01*
X105397142Y-104769771D02*
X105244761Y-104769771D01*
X105244761Y-104769771D02*
X105168571Y-104741200D01*
X105168571Y-104741200D02*
X105130476Y-104712628D01*
X105130476Y-104712628D02*
X105092380Y-104655485D01*
X105092380Y-104655485D02*
X105092380Y-104169771D01*
X104368571Y-104169771D02*
X104520952Y-104169771D01*
X104520952Y-104169771D02*
X104597143Y-104198342D01*
X104597143Y-104198342D02*
X104635238Y-104226914D01*
X104635238Y-104226914D02*
X104711428Y-104312628D01*
X104711428Y-104312628D02*
X104749524Y-104426914D01*
X104749524Y-104426914D02*
X104749524Y-104655485D01*
X104749524Y-104655485D02*
X104711428Y-104712628D01*
X104711428Y-104712628D02*
X104673333Y-104741200D01*
X104673333Y-104741200D02*
X104597143Y-104769771D01*
X104597143Y-104769771D02*
X104444762Y-104769771D01*
X104444762Y-104769771D02*
X104368571Y-104741200D01*
X104368571Y-104741200D02*
X104330476Y-104712628D01*
X104330476Y-104712628D02*
X104292381Y-104655485D01*
X104292381Y-104655485D02*
X104292381Y-104512628D01*
X104292381Y-104512628D02*
X104330476Y-104455485D01*
X104330476Y-104455485D02*
X104368571Y-104426914D01*
X104368571Y-104426914D02*
X104444762Y-104398342D01*
X104444762Y-104398342D02*
X104597143Y-104398342D01*
X104597143Y-104398342D02*
X104673333Y-104426914D01*
X104673333Y-104426914D02*
X104711428Y-104455485D01*
X104711428Y-104455485D02*
X104749524Y-104512628D01*
X135830228Y-118690475D02*
X136430228Y-118690475D01*
X136430228Y-118690475D02*
X136430228Y-118499999D01*
X136430228Y-118499999D02*
X136401657Y-118385713D01*
X136401657Y-118385713D02*
X136344514Y-118309523D01*
X136344514Y-118309523D02*
X136287371Y-118271428D01*
X136287371Y-118271428D02*
X136173085Y-118233332D01*
X136173085Y-118233332D02*
X136087371Y-118233332D01*
X136087371Y-118233332D02*
X135973085Y-118271428D01*
X135973085Y-118271428D02*
X135915942Y-118309523D01*
X135915942Y-118309523D02*
X135858800Y-118385713D01*
X135858800Y-118385713D02*
X135830228Y-118499999D01*
X135830228Y-118499999D02*
X135830228Y-118690475D01*
X136230228Y-117547618D02*
X135830228Y-117547618D01*
X136458800Y-117738094D02*
X136030228Y-117928571D01*
X136030228Y-117928571D02*
X136030228Y-117433332D01*
X146264285Y-108019771D02*
X146530952Y-107734057D01*
X146721428Y-108019771D02*
X146721428Y-107419771D01*
X146721428Y-107419771D02*
X146416666Y-107419771D01*
X146416666Y-107419771D02*
X146340476Y-107448342D01*
X146340476Y-107448342D02*
X146302381Y-107476914D01*
X146302381Y-107476914D02*
X146264285Y-107534057D01*
X146264285Y-107534057D02*
X146264285Y-107619771D01*
X146264285Y-107619771D02*
X146302381Y-107676914D01*
X146302381Y-107676914D02*
X146340476Y-107705485D01*
X146340476Y-107705485D02*
X146416666Y-107734057D01*
X146416666Y-107734057D02*
X146721428Y-107734057D01*
X145502381Y-108019771D02*
X145959524Y-108019771D01*
X145730952Y-108019771D02*
X145730952Y-107419771D01*
X145730952Y-107419771D02*
X145807143Y-107505485D01*
X145807143Y-107505485D02*
X145883333Y-107562628D01*
X145883333Y-107562628D02*
X145959524Y-107591200D01*
X144816666Y-107619771D02*
X144816666Y-108019771D01*
X145007142Y-107391200D02*
X145197619Y-107819771D01*
X145197619Y-107819771D02*
X144702380Y-107819771D01*
X152516666Y-106669771D02*
X152516666Y-107098342D01*
X152516666Y-107098342D02*
X152554761Y-107184057D01*
X152554761Y-107184057D02*
X152630952Y-107241200D01*
X152630952Y-107241200D02*
X152745237Y-107269771D01*
X152745237Y-107269771D02*
X152821428Y-107269771D01*
X152211904Y-106669771D02*
X151716666Y-106669771D01*
X151716666Y-106669771D02*
X151983332Y-106898342D01*
X151983332Y-106898342D02*
X151869047Y-106898342D01*
X151869047Y-106898342D02*
X151792856Y-106926914D01*
X151792856Y-106926914D02*
X151754761Y-106955485D01*
X151754761Y-106955485D02*
X151716666Y-107012628D01*
X151716666Y-107012628D02*
X151716666Y-107155485D01*
X151716666Y-107155485D02*
X151754761Y-107212628D01*
X151754761Y-107212628D02*
X151792856Y-107241200D01*
X151792856Y-107241200D02*
X151869047Y-107269771D01*
X151869047Y-107269771D02*
X152097618Y-107269771D01*
X152097618Y-107269771D02*
X152173809Y-107241200D01*
X152173809Y-107241200D02*
X152211904Y-107212628D01*
X153340475Y-113019771D02*
X153340475Y-112419771D01*
X153340475Y-112419771D02*
X153149999Y-112419771D01*
X153149999Y-112419771D02*
X153035713Y-112448342D01*
X153035713Y-112448342D02*
X152959523Y-112505485D01*
X152959523Y-112505485D02*
X152921428Y-112562628D01*
X152921428Y-112562628D02*
X152883332Y-112676914D01*
X152883332Y-112676914D02*
X152883332Y-112762628D01*
X152883332Y-112762628D02*
X152921428Y-112876914D01*
X152921428Y-112876914D02*
X152959523Y-112934057D01*
X152959523Y-112934057D02*
X153035713Y-112991200D01*
X153035713Y-112991200D02*
X153149999Y-113019771D01*
X153149999Y-113019771D02*
X153340475Y-113019771D01*
X152197618Y-112419771D02*
X152349999Y-112419771D01*
X152349999Y-112419771D02*
X152426190Y-112448342D01*
X152426190Y-112448342D02*
X152464285Y-112476914D01*
X152464285Y-112476914D02*
X152540475Y-112562628D01*
X152540475Y-112562628D02*
X152578571Y-112676914D01*
X152578571Y-112676914D02*
X152578571Y-112905485D01*
X152578571Y-112905485D02*
X152540475Y-112962628D01*
X152540475Y-112962628D02*
X152502380Y-112991200D01*
X152502380Y-112991200D02*
X152426190Y-113019771D01*
X152426190Y-113019771D02*
X152273809Y-113019771D01*
X152273809Y-113019771D02*
X152197618Y-112991200D01*
X152197618Y-112991200D02*
X152159523Y-112962628D01*
X152159523Y-112962628D02*
X152121428Y-112905485D01*
X152121428Y-112905485D02*
X152121428Y-112762628D01*
X152121428Y-112762628D02*
X152159523Y-112705485D01*
X152159523Y-112705485D02*
X152197618Y-112676914D01*
X152197618Y-112676914D02*
X152273809Y-112648342D01*
X152273809Y-112648342D02*
X152426190Y-112648342D01*
X152426190Y-112648342D02*
X152502380Y-112676914D01*
X152502380Y-112676914D02*
X152540475Y-112705485D01*
X152540475Y-112705485D02*
X152578571Y-112762628D01*
X107287371Y-102514285D02*
X107258800Y-102552381D01*
X107258800Y-102552381D02*
X107230228Y-102666666D01*
X107230228Y-102666666D02*
X107230228Y-102742857D01*
X107230228Y-102742857D02*
X107258800Y-102857143D01*
X107258800Y-102857143D02*
X107315942Y-102933333D01*
X107315942Y-102933333D02*
X107373085Y-102971428D01*
X107373085Y-102971428D02*
X107487371Y-103009524D01*
X107487371Y-103009524D02*
X107573085Y-103009524D01*
X107573085Y-103009524D02*
X107687371Y-102971428D01*
X107687371Y-102971428D02*
X107744514Y-102933333D01*
X107744514Y-102933333D02*
X107801657Y-102857143D01*
X107801657Y-102857143D02*
X107830228Y-102742857D01*
X107830228Y-102742857D02*
X107830228Y-102666666D01*
X107830228Y-102666666D02*
X107801657Y-102552381D01*
X107801657Y-102552381D02*
X107773085Y-102514285D01*
X107230228Y-101752381D02*
X107230228Y-102209524D01*
X107230228Y-101980952D02*
X107830228Y-101980952D01*
X107830228Y-101980952D02*
X107744514Y-102057143D01*
X107744514Y-102057143D02*
X107687371Y-102133333D01*
X107687371Y-102133333D02*
X107658800Y-102209524D01*
X107230228Y-100990476D02*
X107230228Y-101447619D01*
X107230228Y-101219047D02*
X107830228Y-101219047D01*
X107830228Y-101219047D02*
X107744514Y-101295238D01*
X107744514Y-101295238D02*
X107687371Y-101371428D01*
X107687371Y-101371428D02*
X107658800Y-101447619D01*
X125787371Y-116133332D02*
X125758800Y-116171428D01*
X125758800Y-116171428D02*
X125730228Y-116285713D01*
X125730228Y-116285713D02*
X125730228Y-116361904D01*
X125730228Y-116361904D02*
X125758800Y-116476190D01*
X125758800Y-116476190D02*
X125815942Y-116552380D01*
X125815942Y-116552380D02*
X125873085Y-116590475D01*
X125873085Y-116590475D02*
X125987371Y-116628571D01*
X125987371Y-116628571D02*
X126073085Y-116628571D01*
X126073085Y-116628571D02*
X126187371Y-116590475D01*
X126187371Y-116590475D02*
X126244514Y-116552380D01*
X126244514Y-116552380D02*
X126301657Y-116476190D01*
X126301657Y-116476190D02*
X126330228Y-116361904D01*
X126330228Y-116361904D02*
X126330228Y-116285713D01*
X126330228Y-116285713D02*
X126301657Y-116171428D01*
X126301657Y-116171428D02*
X126273085Y-116133332D01*
X126130228Y-115447618D02*
X125730228Y-115447618D01*
X126358800Y-115638094D02*
X125930228Y-115828571D01*
X125930228Y-115828571D02*
X125930228Y-115333332D01*
X102357142Y-116140419D02*
X102309523Y-116092800D01*
X102309523Y-116092800D02*
X102166666Y-116045180D01*
X102166666Y-116045180D02*
X102071428Y-116045180D01*
X102071428Y-116045180D02*
X101928571Y-116092800D01*
X101928571Y-116092800D02*
X101833333Y-116188038D01*
X101833333Y-116188038D02*
X101785714Y-116283276D01*
X101785714Y-116283276D02*
X101738095Y-116473752D01*
X101738095Y-116473752D02*
X101738095Y-116616609D01*
X101738095Y-116616609D02*
X101785714Y-116807085D01*
X101785714Y-116807085D02*
X101833333Y-116902323D01*
X101833333Y-116902323D02*
X101928571Y-116997561D01*
X101928571Y-116997561D02*
X102071428Y-117045180D01*
X102071428Y-117045180D02*
X102166666Y-117045180D01*
X102166666Y-117045180D02*
X102309523Y-116997561D01*
X102309523Y-116997561D02*
X102357142Y-116949942D01*
X103309523Y-116045180D02*
X102738095Y-116045180D01*
X103023809Y-116045180D02*
X103023809Y-117045180D01*
X103023809Y-117045180D02*
X102928571Y-116902323D01*
X102928571Y-116902323D02*
X102833333Y-116807085D01*
X102833333Y-116807085D02*
X102738095Y-116759466D01*
X103690476Y-116949942D02*
X103738095Y-116997561D01*
X103738095Y-116997561D02*
X103833333Y-117045180D01*
X103833333Y-117045180D02*
X104071428Y-117045180D01*
X104071428Y-117045180D02*
X104166666Y-116997561D01*
X104166666Y-116997561D02*
X104214285Y-116949942D01*
X104214285Y-116949942D02*
X104261904Y-116854704D01*
X104261904Y-116854704D02*
X104261904Y-116759466D01*
X104261904Y-116759466D02*
X104214285Y-116616609D01*
X104214285Y-116616609D02*
X103642857Y-116045180D01*
X103642857Y-116045180D02*
X104261904Y-116045180D01*
X115883333Y-114019771D02*
X116264285Y-114019771D01*
X116264285Y-114019771D02*
X116264285Y-113419771D01*
X115654762Y-113476914D02*
X115616666Y-113448342D01*
X115616666Y-113448342D02*
X115540476Y-113419771D01*
X115540476Y-113419771D02*
X115350000Y-113419771D01*
X115350000Y-113419771D02*
X115273809Y-113448342D01*
X115273809Y-113448342D02*
X115235714Y-113476914D01*
X115235714Y-113476914D02*
X115197619Y-113534057D01*
X115197619Y-113534057D02*
X115197619Y-113591200D01*
X115197619Y-113591200D02*
X115235714Y-113676914D01*
X115235714Y-113676914D02*
X115692857Y-114019771D01*
X115692857Y-114019771D02*
X115197619Y-114019771D01*
X134466666Y-116669771D02*
X134466666Y-117098342D01*
X134466666Y-117098342D02*
X134504761Y-117184057D01*
X134504761Y-117184057D02*
X134580952Y-117241200D01*
X134580952Y-117241200D02*
X134695237Y-117269771D01*
X134695237Y-117269771D02*
X134771428Y-117269771D01*
X134123809Y-116726914D02*
X134085713Y-116698342D01*
X134085713Y-116698342D02*
X134009523Y-116669771D01*
X134009523Y-116669771D02*
X133819047Y-116669771D01*
X133819047Y-116669771D02*
X133742856Y-116698342D01*
X133742856Y-116698342D02*
X133704761Y-116726914D01*
X133704761Y-116726914D02*
X133666666Y-116784057D01*
X133666666Y-116784057D02*
X133666666Y-116841200D01*
X133666666Y-116841200D02*
X133704761Y-116926914D01*
X133704761Y-116926914D02*
X134161904Y-117269771D01*
X134161904Y-117269771D02*
X133666666Y-117269771D01*
X121633332Y-118712628D02*
X121671428Y-118741200D01*
X121671428Y-118741200D02*
X121785713Y-118769771D01*
X121785713Y-118769771D02*
X121861904Y-118769771D01*
X121861904Y-118769771D02*
X121976190Y-118741200D01*
X121976190Y-118741200D02*
X122052380Y-118684057D01*
X122052380Y-118684057D02*
X122090475Y-118626914D01*
X122090475Y-118626914D02*
X122128571Y-118512628D01*
X122128571Y-118512628D02*
X122128571Y-118426914D01*
X122128571Y-118426914D02*
X122090475Y-118312628D01*
X122090475Y-118312628D02*
X122052380Y-118255485D01*
X122052380Y-118255485D02*
X121976190Y-118198342D01*
X121976190Y-118198342D02*
X121861904Y-118169771D01*
X121861904Y-118169771D02*
X121785713Y-118169771D01*
X121785713Y-118169771D02*
X121671428Y-118198342D01*
X121671428Y-118198342D02*
X121633332Y-118226914D01*
X121366666Y-118169771D02*
X120833332Y-118169771D01*
X120833332Y-118169771D02*
X121176190Y-118769771D01*
X150764285Y-101519771D02*
X151030952Y-101234057D01*
X151221428Y-101519771D02*
X151221428Y-100919771D01*
X151221428Y-100919771D02*
X150916666Y-100919771D01*
X150916666Y-100919771D02*
X150840476Y-100948342D01*
X150840476Y-100948342D02*
X150802381Y-100976914D01*
X150802381Y-100976914D02*
X150764285Y-101034057D01*
X150764285Y-101034057D02*
X150764285Y-101119771D01*
X150764285Y-101119771D02*
X150802381Y-101176914D01*
X150802381Y-101176914D02*
X150840476Y-101205485D01*
X150840476Y-101205485D02*
X150916666Y-101234057D01*
X150916666Y-101234057D02*
X151221428Y-101234057D01*
X150002381Y-101519771D02*
X150459524Y-101519771D01*
X150230952Y-101519771D02*
X150230952Y-100919771D01*
X150230952Y-100919771D02*
X150307143Y-101005485D01*
X150307143Y-101005485D02*
X150383333Y-101062628D01*
X150383333Y-101062628D02*
X150459524Y-101091200D01*
X149621428Y-101519771D02*
X149469047Y-101519771D01*
X149469047Y-101519771D02*
X149392857Y-101491200D01*
X149392857Y-101491200D02*
X149354761Y-101462628D01*
X149354761Y-101462628D02*
X149278571Y-101376914D01*
X149278571Y-101376914D02*
X149240476Y-101262628D01*
X149240476Y-101262628D02*
X149240476Y-101034057D01*
X149240476Y-101034057D02*
X149278571Y-100976914D01*
X149278571Y-100976914D02*
X149316666Y-100948342D01*
X149316666Y-100948342D02*
X149392857Y-100919771D01*
X149392857Y-100919771D02*
X149545238Y-100919771D01*
X149545238Y-100919771D02*
X149621428Y-100948342D01*
X149621428Y-100948342D02*
X149659523Y-100976914D01*
X149659523Y-100976914D02*
X149697619Y-101034057D01*
X149697619Y-101034057D02*
X149697619Y-101176914D01*
X149697619Y-101176914D02*
X149659523Y-101234057D01*
X149659523Y-101234057D02*
X149621428Y-101262628D01*
X149621428Y-101262628D02*
X149545238Y-101291200D01*
X149545238Y-101291200D02*
X149392857Y-101291200D01*
X149392857Y-101291200D02*
X149316666Y-101262628D01*
X149316666Y-101262628D02*
X149278571Y-101234057D01*
X149278571Y-101234057D02*
X149240476Y-101176914D01*
X137633332Y-111469771D02*
X137899999Y-111184057D01*
X138090475Y-111469771D02*
X138090475Y-110869771D01*
X138090475Y-110869771D02*
X137785713Y-110869771D01*
X137785713Y-110869771D02*
X137709523Y-110898342D01*
X137709523Y-110898342D02*
X137671428Y-110926914D01*
X137671428Y-110926914D02*
X137633332Y-110984057D01*
X137633332Y-110984057D02*
X137633332Y-111069771D01*
X137633332Y-111069771D02*
X137671428Y-111126914D01*
X137671428Y-111126914D02*
X137709523Y-111155485D01*
X137709523Y-111155485D02*
X137785713Y-111184057D01*
X137785713Y-111184057D02*
X138090475Y-111184057D01*
X136947618Y-111069771D02*
X136947618Y-111469771D01*
X137138094Y-110841200D02*
X137328571Y-111269771D01*
X137328571Y-111269771D02*
X136833332Y-111269771D01*
X96258800Y-108066667D02*
X96230228Y-107952381D01*
X96230228Y-107952381D02*
X96230228Y-107761905D01*
X96230228Y-107761905D02*
X96258800Y-107685714D01*
X96258800Y-107685714D02*
X96287371Y-107647619D01*
X96287371Y-107647619D02*
X96344514Y-107609524D01*
X96344514Y-107609524D02*
X96401657Y-107609524D01*
X96401657Y-107609524D02*
X96458800Y-107647619D01*
X96458800Y-107647619D02*
X96487371Y-107685714D01*
X96487371Y-107685714D02*
X96515942Y-107761905D01*
X96515942Y-107761905D02*
X96544514Y-107914286D01*
X96544514Y-107914286D02*
X96573085Y-107990476D01*
X96573085Y-107990476D02*
X96601657Y-108028571D01*
X96601657Y-108028571D02*
X96658800Y-108066667D01*
X96658800Y-108066667D02*
X96715942Y-108066667D01*
X96715942Y-108066667D02*
X96773085Y-108028571D01*
X96773085Y-108028571D02*
X96801657Y-107990476D01*
X96801657Y-107990476D02*
X96830228Y-107914286D01*
X96830228Y-107914286D02*
X96830228Y-107723809D01*
X96830228Y-107723809D02*
X96801657Y-107609524D01*
X96830228Y-107342857D02*
X96230228Y-107152381D01*
X96230228Y-107152381D02*
X96658800Y-107000000D01*
X96658800Y-107000000D02*
X96230228Y-106847619D01*
X96230228Y-106847619D02*
X96830228Y-106657143D01*
X96230228Y-105933333D02*
X96230228Y-106390476D01*
X96230228Y-106161904D02*
X96830228Y-106161904D01*
X96830228Y-106161904D02*
X96744514Y-106238095D01*
X96744514Y-106238095D02*
X96687371Y-106314285D01*
X96687371Y-106314285D02*
X96658800Y-106390476D01*
D11*
%TO.C,J4*%
X98892000Y-98274000D02*
X97876000Y-97258000D01*
X149184000Y-98274000D02*
X98892000Y-98274000D01*
X97876000Y-92686000D02*
X97876000Y-97258000D01*
X97876000Y-92686000D02*
X149184000Y-92686000D01*
X149184000Y-92686000D02*
X149184000Y-98274000D01*
%TO.C,U2*%
X120450000Y-114075000D02*
X120250000Y-114075000D01*
X120450000Y-114075000D02*
X120450000Y-114200000D01*
X120450000Y-114200000D02*
X122100000Y-114200000D01*
X121900000Y-111800000D02*
X120600000Y-111800000D01*
X122100000Y-114200000D02*
X122100000Y-114075000D01*
%TO.C,C2*%
X127265000Y-109261252D02*
X127265000Y-108738748D01*
X128735000Y-109261252D02*
X128735000Y-108738748D01*
%TO.C,L1*%
X133450000Y-99350000D02*
X132250000Y-99350000D01*
X133450000Y-99350000D02*
X133450000Y-100750000D01*
X127050000Y-99350000D02*
X128250000Y-99350000D01*
X127050000Y-99350000D02*
X127050000Y-100750000D01*
X133450000Y-106150000D02*
X133450000Y-104750000D01*
X133450000Y-106150000D02*
X132250000Y-106150000D01*
X127050000Y-106150000D02*
X127050000Y-104750000D01*
X127050000Y-106150000D02*
X128250000Y-106150000D01*
%TO.C,D5*%
X138940000Y-121685000D02*
X138940000Y-119000000D01*
X140860000Y-121685000D02*
X138940000Y-121685000D01*
X140860000Y-119000000D02*
X140860000Y-121685000D01*
%TO.C,R5*%
X98985000Y-100522936D02*
X98985000Y-100977064D01*
X97515000Y-100522936D02*
X97515000Y-100977064D01*
%TO.C,JP6*%
X101700000Y-102150000D02*
X102300000Y-102150000D01*
X103000000Y-101450000D02*
X103000000Y-100050000D01*
X101000000Y-100050000D02*
X101000000Y-101450000D01*
X102300000Y-99350000D02*
X101700000Y-99350000D01*
X101000000Y-101450000D02*
G75*
G03*
X101700000Y-102150000I699999J-1D01*
G01*
X102300000Y-102150000D02*
G75*
G03*
X103000000Y-101450000I1J699999D01*
G01*
X101700000Y-99350000D02*
G75*
G03*
X101000000Y-100050000I0J-700000D01*
G01*
X103000000Y-100050000D02*
G75*
G03*
X102300000Y-99350000I-700000J0D01*
G01*
%TO.C,U1*%
X137500000Y-106610000D02*
X139000000Y-106610000D01*
X137500000Y-106610000D02*
X136000000Y-106610000D01*
X137500000Y-102390000D02*
X140375000Y-102390000D01*
X137500000Y-102390000D02*
X136000000Y-102390000D01*
%TO.C,RV1*%
X142950000Y-99950000D02*
X143510000Y-99950000D01*
X142950000Y-103550000D02*
X142950000Y-99950000D01*
X144550000Y-103550000D02*
X144950000Y-103550000D01*
X145950000Y-99950000D02*
X146555000Y-99950000D01*
X146550000Y-103550000D02*
X146555000Y-99950000D01*
%TO.C,C3*%
X125288748Y-111390000D02*
X126711252Y-111390000D01*
X125288748Y-114110000D02*
X126711252Y-114110000D01*
%TO.C,R12*%
X139227064Y-113285000D02*
X138772936Y-113285000D01*
X139227064Y-111815000D02*
X138772936Y-111815000D01*
%TO.C,C13*%
X105902500Y-104812500D02*
X105902500Y-105600000D01*
X105508750Y-105206250D02*
X106296250Y-105206250D01*
X110095563Y-105840000D02*
X108810000Y-105840000D01*
X110095563Y-105840000D02*
X111160000Y-106904437D01*
X105404437Y-105840000D02*
X106690000Y-105840000D01*
X105404437Y-105840000D02*
X104340000Y-106904437D01*
X111160000Y-106904437D02*
X111160000Y-112660000D01*
X104340000Y-106904437D02*
X104340000Y-112660000D01*
X111160000Y-112660000D02*
X108810000Y-112660000D01*
X104340000Y-112660000D02*
X106690000Y-112660000D01*
%TO.C,U5*%
X111140000Y-99890000D02*
X111140000Y-100590000D01*
X111840000Y-99890000D02*
X111140000Y-99890000D01*
X111840000Y-104110000D02*
X111140000Y-104110000D01*
X114660000Y-99890000D02*
X115360000Y-99890000D01*
X114660000Y-104110000D02*
X115360000Y-104110000D01*
X115360000Y-99890000D02*
X115360000Y-100590000D01*
X115360000Y-104110000D02*
X115360000Y-103410000D01*
%TO.C,TP6*%
X114950000Y-109500000D02*
G75*
G03*
X114950000Y-109500000I-700000J0D01*
G01*
%TO.C,C10*%
X117515000Y-106761252D02*
X117515000Y-106238748D01*
X118985000Y-106761252D02*
X118985000Y-106238748D01*
%TO.C,R13*%
X145512742Y-105227500D02*
X145987258Y-105227500D01*
X145512742Y-106272500D02*
X145987258Y-106272500D01*
%TO.C,C8*%
X113015000Y-119261252D02*
X113015000Y-118738748D01*
X114485000Y-119261252D02*
X114485000Y-118738748D01*
%TO.C,D7*%
X153790000Y-101435000D02*
X153790000Y-98750000D01*
X155710000Y-101435000D02*
X153790000Y-101435000D01*
X155710000Y-98750000D02*
X155710000Y-101435000D01*
%TO.C,TP3*%
X115950000Y-107500000D02*
G75*
G03*
X115950000Y-107500000I-700000J0D01*
G01*
%TO.C,R7*%
X122885000Y-101022936D02*
X122885000Y-101477064D01*
X121415000Y-101022936D02*
X121415000Y-101477064D01*
%TO.C,C1*%
X140556168Y-101405000D02*
X140033664Y-101405000D01*
X140556168Y-99935000D02*
X140033664Y-99935000D01*
%TO.C,D1*%
X133834916Y-99400000D02*
X137694916Y-99400000D01*
X133834916Y-101400000D02*
X133834916Y-99400000D01*
X133834916Y-101400000D02*
X137694916Y-101400000D01*
%TO.C,R6*%
X120985000Y-101022936D02*
X120985000Y-101477064D01*
X119515000Y-101022936D02*
X119515000Y-101477064D01*
%TO.C,R11*%
X110723737Y-120855000D02*
X109276263Y-120855000D01*
X110723737Y-118145000D02*
X109276263Y-118145000D01*
%TO.C,R1*%
X130985000Y-108772936D02*
X130985000Y-109227064D01*
X129515000Y-108772936D02*
X129515000Y-109227064D01*
%TO.C,TP9*%
X118950000Y-109500000D02*
G75*
G03*
X118950000Y-109500000I-700000J0D01*
G01*
%TO.C,R8*%
X119515000Y-108727064D02*
X119515000Y-108272936D01*
X120985000Y-108727064D02*
X120985000Y-108272936D01*
%TO.C,C6*%
X140385000Y-108738748D02*
X140385000Y-109261252D01*
X138915000Y-108738748D02*
X138915000Y-109261252D01*
%TO.C,R9*%
X124973737Y-110855000D02*
X123526263Y-110855000D01*
X124973737Y-108145000D02*
X123526263Y-108145000D01*
%TO.C,C9*%
X117515000Y-103261252D02*
X117515000Y-102738748D01*
X118985000Y-103261252D02*
X118985000Y-102738748D01*
%TO.C,R17*%
X139165000Y-116727064D02*
X139165000Y-116272936D01*
X140635000Y-116727064D02*
X140635000Y-116272936D01*
%TO.C,R3*%
X136085000Y-108772936D02*
X136085000Y-109227064D01*
X134615000Y-108772936D02*
X134615000Y-109227064D01*
%TO.C,D3*%
X142850000Y-109890000D02*
X142850000Y-112550000D01*
X141150000Y-109890000D02*
X142850000Y-109890000D01*
X141150000Y-109890000D02*
X141150000Y-112550000D01*
%TO.C,D2*%
X126500000Y-103290000D02*
X126500000Y-107150000D01*
X124500000Y-103290000D02*
X126500000Y-103290000D01*
X124500000Y-103290000D02*
X124500000Y-107150000D01*
%TO.C,Q1*%
X145062500Y-109940000D02*
X144412500Y-109940000D01*
X145062500Y-109940000D02*
X145712500Y-109940000D01*
X145062500Y-113060000D02*
X143387500Y-113060000D01*
X145062500Y-113060000D02*
X145712500Y-113060000D01*
%TO.C,C5*%
X126235000Y-101088748D02*
X126235000Y-101611252D01*
X124765000Y-101088748D02*
X124765000Y-101611252D01*
%TO.C,U4*%
X119630000Y-103250000D02*
X119630000Y-105250000D01*
X121870000Y-105250000D02*
X121870000Y-104250000D01*
%TO.C,R16*%
X136765000Y-116727064D02*
X136765000Y-116272936D01*
X138235000Y-116727064D02*
X138235000Y-116272936D01*
%TO.C,J1*%
X148060000Y-121660000D02*
X141940000Y-121660000D01*
X148060000Y-115440000D02*
X147140000Y-115440000D01*
X148060000Y-113840000D02*
X148060000Y-121660000D01*
X147300000Y-119400000D02*
X146300000Y-119400000D01*
X147300000Y-117800000D02*
X147300000Y-119400000D01*
X147140000Y-115440000D02*
X147140000Y-113840000D01*
X147140000Y-113840000D02*
X148060000Y-113840000D01*
X146860000Y-115440000D02*
X147140000Y-115440000D01*
X146860000Y-115440000D02*
X146860000Y-114225000D01*
X146800000Y-119400000D02*
X146800000Y-121660000D01*
X146300000Y-119400000D02*
X146300000Y-121660000D01*
X146300000Y-119400000D02*
X146300000Y-117800000D01*
X146300000Y-117800000D02*
X147300000Y-117800000D01*
X145500000Y-121660000D02*
X145500000Y-117300000D01*
X145500000Y-117300000D02*
X144500000Y-117300000D01*
X144500000Y-117300000D02*
X144500000Y-121660000D01*
X143700000Y-119400000D02*
X143700000Y-117800000D01*
X143700000Y-117800000D02*
X142700000Y-117800000D01*
X142860000Y-115440000D02*
X143140000Y-115440000D01*
X142860000Y-113840000D02*
X142860000Y-115440000D01*
X142700000Y-119400000D02*
X143700000Y-119400000D01*
X142700000Y-117800000D02*
X142700000Y-119400000D01*
X141940000Y-121660000D02*
X141940000Y-113840000D01*
X141940000Y-115440000D02*
X142860000Y-115440000D01*
X141940000Y-113840000D02*
X142860000Y-113840000D01*
%TO.C,SW2*%
X95400000Y-108000000D02*
X94200000Y-108000000D01*
X95400000Y-108000000D02*
X95400000Y-108100000D01*
X95400000Y-109500000D02*
X95400000Y-111500000D01*
X95400000Y-113000000D02*
X95400000Y-112900000D01*
X95400000Y-113000000D02*
X94200000Y-113000000D01*
%TO.C,R2*%
X133735000Y-108772936D02*
X133735000Y-109227064D01*
X132265000Y-108772936D02*
X132265000Y-109227064D01*
%TO.C,R18*%
X151977064Y-114985000D02*
X151522936Y-114985000D01*
X151977064Y-113515000D02*
X151522936Y-113515000D01*
%TO.C,U3*%
X118810000Y-117440000D02*
X118385000Y-117440000D01*
X118810000Y-117865000D02*
X118810000Y-117440000D01*
X115690000Y-117865000D02*
X115690000Y-117440000D01*
X118810000Y-120135000D02*
X118810000Y-120560000D01*
X115690000Y-120135000D02*
X115690000Y-120560000D01*
X118810000Y-120560000D02*
X118385000Y-120560000D01*
X115690000Y-120560000D02*
X116115000Y-120560000D01*
%TO.C,C14*%
X98652500Y-103562500D02*
X98652500Y-104350000D01*
X98258750Y-103956250D02*
X99046250Y-103956250D01*
X102845563Y-104590000D02*
X101560000Y-104590000D01*
X102845563Y-104590000D02*
X103910000Y-105654437D01*
X98154437Y-104590000D02*
X99440000Y-104590000D01*
X98154437Y-104590000D02*
X97090000Y-105654437D01*
X103910000Y-105654437D02*
X103910000Y-111410000D01*
X97090000Y-105654437D02*
X97090000Y-111410000D01*
X103910000Y-111410000D02*
X101560000Y-111410000D01*
X97090000Y-111410000D02*
X99440000Y-111410000D01*
%TO.C,R10*%
X126723737Y-120855000D02*
X125276263Y-120855000D01*
X126723737Y-118145000D02*
X125276263Y-118145000D01*
%TO.C,U6*%
X105940000Y-99950000D02*
X105140000Y-99950000D01*
X105940000Y-100550000D02*
X105940000Y-99950000D01*
X103940000Y-100550000D02*
X103940000Y-99950000D01*
X105940000Y-103550000D02*
X105940000Y-102950000D01*
X105240000Y-103550000D02*
X105940000Y-103550000D01*
X103940000Y-103550000D02*
X103940000Y-102950000D01*
X103940000Y-103550000D02*
X104640000Y-103550000D01*
%TO.C,D4*%
X136540000Y-121685000D02*
X136540000Y-119000000D01*
X138460000Y-121685000D02*
X136540000Y-121685000D01*
X138460000Y-119000000D02*
X138460000Y-121685000D01*
%TO.C,R14*%
X145512742Y-108227500D02*
X145987258Y-108227500D01*
X145512742Y-109272500D02*
X145987258Y-109272500D01*
%TO.C,TP5*%
X116950000Y-109500000D02*
G75*
G03*
X116950000Y-109500000I-700000J0D01*
G01*
%TO.C,J3*%
X154350000Y-102330000D02*
X155500000Y-102330000D01*
X152250000Y-102330000D02*
X150450000Y-102330000D01*
X154350000Y-111670000D02*
X155500000Y-111670000D01*
X152250000Y-111670000D02*
X150450000Y-111670000D01*
%TO.C,D6*%
X155710000Y-112565000D02*
X155710000Y-115250000D01*
X153790000Y-112565000D02*
X155710000Y-112565000D01*
X153790000Y-115250000D02*
X153790000Y-112565000D01*
%TO.C,C11*%
X108265000Y-102261252D02*
X108265000Y-101738748D01*
X109735000Y-102261252D02*
X109735000Y-101738748D01*
%TO.C,C4*%
X125288748Y-114640000D02*
X126711252Y-114640000D01*
X125288748Y-117360000D02*
X126711252Y-117360000D01*
%TO.C,C12*%
X104597500Y-120937500D02*
X104597500Y-120150000D01*
X104991250Y-120543750D02*
X104203750Y-120543750D01*
X100404437Y-119910000D02*
X101690000Y-119910000D01*
X100404437Y-119910000D02*
X99340000Y-118845563D01*
X105095563Y-119910000D02*
X103810000Y-119910000D01*
X105095563Y-119910000D02*
X106160000Y-118845563D01*
X99340000Y-118845563D02*
X99340000Y-113090000D01*
X106160000Y-118845563D02*
X106160000Y-113090000D01*
X99340000Y-113090000D02*
X101690000Y-113090000D01*
X106160000Y-113090000D02*
X103810000Y-113090000D01*
%TO.C,TP8*%
X123700000Y-106000000D02*
G75*
G03*
X123700000Y-106000000I-700000J0D01*
G01*
%TO.C,L2*%
X118390000Y-116390000D02*
X113110000Y-116390000D01*
X118390000Y-115445000D02*
X118390000Y-116390000D01*
X118390000Y-112055000D02*
X118390000Y-111110000D01*
X118390000Y-111110000D02*
X113110000Y-111110000D01*
X113110000Y-116390000D02*
X113110000Y-115445000D01*
X113110000Y-111110000D02*
X113110000Y-112055000D01*
%TO.C,J2*%
X135460000Y-121660000D02*
X129340000Y-121660000D01*
X135460000Y-115440000D02*
X134540000Y-115440000D01*
X135460000Y-113840000D02*
X135460000Y-121660000D01*
X134700000Y-119400000D02*
X133700000Y-119400000D01*
X134700000Y-117800000D02*
X134700000Y-119400000D01*
X134540000Y-115440000D02*
X134540000Y-113840000D01*
X134540000Y-113840000D02*
X135460000Y-113840000D01*
X134260000Y-115440000D02*
X134540000Y-115440000D01*
X134260000Y-115440000D02*
X134260000Y-114225000D01*
X134200000Y-119400000D02*
X134200000Y-121660000D01*
X133700000Y-119400000D02*
X133700000Y-121660000D01*
X133700000Y-119400000D02*
X133700000Y-117800000D01*
X133700000Y-117800000D02*
X134700000Y-117800000D01*
X132900000Y-121660000D02*
X132900000Y-117300000D01*
X132900000Y-117300000D02*
X131900000Y-117300000D01*
X131900000Y-117300000D02*
X131900000Y-121660000D01*
X131100000Y-119400000D02*
X131100000Y-117800000D01*
X131100000Y-117800000D02*
X130100000Y-117800000D01*
X130260000Y-115440000D02*
X130540000Y-115440000D01*
X130260000Y-113840000D02*
X130260000Y-115440000D01*
X130100000Y-119400000D02*
X131100000Y-119400000D01*
X130100000Y-117800000D02*
X130100000Y-119400000D01*
X129340000Y-121660000D02*
X129340000Y-113840000D01*
X129340000Y-115440000D02*
X130260000Y-115440000D01*
X129340000Y-113840000D02*
X130260000Y-113840000D01*
%TO.C,C7*%
X121761252Y-120735000D02*
X121238748Y-120735000D01*
X121761252Y-119265000D02*
X121238748Y-119265000D01*
%TO.C,R19*%
X151977064Y-100485000D02*
X151522936Y-100485000D01*
X151977064Y-99015000D02*
X151522936Y-99015000D01*
%TO.C,R4*%
X136765000Y-109227064D02*
X136765000Y-108772936D01*
X138235000Y-109227064D02*
X138235000Y-108772936D01*
%TO.C,SW1*%
X94570000Y-106450000D02*
X93780000Y-106450000D01*
X92770000Y-105850000D02*
X92770000Y-100150000D01*
X95620000Y-104600000D02*
X95620000Y-102900000D01*
X95620000Y-101600000D02*
X95620000Y-101400000D01*
X93780000Y-99550000D02*
X94570000Y-99550000D01*
%TD*%
M02*
