%TF.GenerationSoftware,KiCad,Pcbnew,7.0.7*%
%TF.CreationDate,2023-09-20T17:31:38+03:00*%
%TF.ProjectId,picoups,7069636f-7570-4732-9e6b-696361645f70,1.2.0*%
%TF.SameCoordinates,Original*%
%TF.FileFunction,Soldermask,Top*%
%TF.FilePolarity,Negative*%
%FSLAX46Y46*%
G04 Gerber Fmt 4.6, Leading zero omitted, Abs format (unit mm)*
G04 Created by KiCad (PCBNEW 7.0.7) date 2023-09-20 17:31:38*
%MOMM*%
%LPD*%
G01*
G04 APERTURE LIST*
G04 Aperture macros list*
%AMRoundRect*
0 Rectangle with rounded corners*
0 $1 Rounding radius*
0 $2 $3 $4 $5 $6 $7 $8 $9 X,Y pos of 4 corners*
0 Add a 4 corners polygon primitive as box body*
4,1,4,$2,$3,$4,$5,$6,$7,$8,$9,$2,$3,0*
0 Add four circle primitives for the rounded corners*
1,1,$1+$1,$2,$3*
1,1,$1+$1,$4,$5*
1,1,$1+$1,$6,$7*
1,1,$1+$1,$8,$9*
0 Add four rect primitives between the rounded corners*
20,1,$1+$1,$2,$3,$4,$5,0*
20,1,$1+$1,$4,$5,$6,$7,0*
20,1,$1+$1,$6,$7,$8,$9,0*
20,1,$1+$1,$8,$9,$2,$3,0*%
%AMOutline5P*
0 Free polygon, 5 corners , with rotation*
0 The origin of the aperture is its center*
0 number of corners: always 5*
0 $1 to $10 corner X, Y*
0 $11 Rotation angle, in degrees counterclockwise*
0 create outline with 5 corners*
4,1,5,$1,$2,$3,$4,$5,$6,$7,$8,$9,$10,$1,$2,$11*%
%AMOutline6P*
0 Free polygon, 6 corners , with rotation*
0 The origin of the aperture is its center*
0 number of corners: always 6*
0 $1 to $12 corner X, Y*
0 $13 Rotation angle, in degrees counterclockwise*
0 create outline with 6 corners*
4,1,6,$1,$2,$3,$4,$5,$6,$7,$8,$9,$10,$11,$12,$1,$2,$13*%
%AMOutline7P*
0 Free polygon, 7 corners , with rotation*
0 The origin of the aperture is its center*
0 number of corners: always 7*
0 $1 to $14 corner X, Y*
0 $15 Rotation angle, in degrees counterclockwise*
0 create outline with 7 corners*
4,1,7,$1,$2,$3,$4,$5,$6,$7,$8,$9,$10,$11,$12,$13,$14,$1,$2,$15*%
%AMOutline8P*
0 Free polygon, 8 corners , with rotation*
0 The origin of the aperture is its center*
0 number of corners: always 8*
0 $1 to $16 corner X, Y*
0 $17 Rotation angle, in degrees counterclockwise*
0 create outline with 8 corners*
4,1,8,$1,$2,$3,$4,$5,$6,$7,$8,$9,$10,$11,$12,$13,$14,$15,$16,$1,$2,$17*%
%AMFreePoly0*
4,1,19,0.500000,-0.750000,0.000000,-0.750000,0.000000,-0.744911,-0.071157,-0.744911,-0.207708,-0.704816,-0.327430,-0.627875,-0.420627,-0.520320,-0.479746,-0.390866,-0.500000,-0.250000,-0.500000,0.250000,-0.479746,0.390866,-0.420627,0.520320,-0.327430,0.627875,-0.207708,0.704816,-0.071157,0.744911,0.000000,0.744911,0.000000,0.750000,0.500000,0.750000,0.500000,-0.750000,0.500000,-0.750000,
$1*%
%AMFreePoly1*
4,1,19,0.000000,0.744911,0.071157,0.744911,0.207708,0.704816,0.327430,0.627875,0.420627,0.520320,0.479746,0.390866,0.500000,0.250000,0.500000,-0.250000,0.479746,-0.390866,0.420627,-0.520320,0.327430,-0.627875,0.207708,-0.704816,0.071157,-0.744911,0.000000,-0.744911,0.000000,-0.750000,-0.500000,-0.750000,-0.500000,0.750000,0.000000,0.750000,0.000000,0.744911,0.000000,0.744911,
$1*%
G04 Aperture macros list end*
%ADD10FreePoly0,180.000000*%
%ADD11FreePoly1,180.000000*%
%ADD12FreePoly0,270.000000*%
%ADD13FreePoly1,270.000000*%
%ADD14Outline5P,-0.850000X0.425000X-0.425000X0.850000X0.850000X0.850000X0.850000X-0.850000X-0.850000X-0.850000X90.000000*%
%ADD15C,1.700000*%
%ADD16O,1.700000X1.700000*%
%ADD17C,5.400000*%
%ADD18C,2.000000*%
%ADD19FreePoly0,0.000000*%
%ADD20FreePoly1,0.000000*%
%ADD21RoundRect,0.250000X0.350000X0.625000X-0.350000X0.625000X-0.350000X-0.625000X0.350000X-0.625000X0*%
%ADD22O,1.200000X1.750000*%
%ADD23C,0.700000*%
%ADD24C,0.650000*%
%ADD25O,1.800000X1.000000*%
%ADD26O,2.100000X1.000000*%
%ADD27C,0.900000*%
G04 APERTURE END LIST*
D10*
%TO.C,JP1*%
X95150000Y-114000000D03*
D11*
X93850000Y-114000000D03*
%TD*%
D12*
%TO.C,JP3*%
X140000000Y-119350000D03*
D13*
X140000000Y-120650000D03*
%TD*%
D14*
%TO.C,J4*%
X99400000Y-96750000D03*
D15*
X99400000Y-94210000D03*
D16*
X101940000Y-96750000D03*
X101940000Y-94210000D03*
X104480000Y-96750000D03*
X104480000Y-94210000D03*
X107020000Y-96750000D03*
X107020000Y-94210000D03*
X109560000Y-96750000D03*
X109560000Y-94210000D03*
X112100000Y-96750000D03*
X112100000Y-94210000D03*
X114640000Y-96750000D03*
X114640000Y-94210000D03*
X117180000Y-96750000D03*
X117180000Y-94210000D03*
X119720000Y-96750000D03*
X119720000Y-94210000D03*
X122260000Y-96750000D03*
X122260000Y-94210000D03*
X124800000Y-96750000D03*
X124800000Y-94210000D03*
X127340000Y-96750000D03*
X127340000Y-94210000D03*
X129880000Y-96750000D03*
X129880000Y-94210000D03*
X132420000Y-96750000D03*
X132420000Y-94210000D03*
X134960000Y-96750000D03*
X134960000Y-94210000D03*
X137500000Y-96750000D03*
X137500000Y-94210000D03*
X140040000Y-96750000D03*
X140040000Y-94210000D03*
X142580000Y-96750000D03*
X142580000Y-94210000D03*
X145120000Y-96750000D03*
X145120000Y-94210000D03*
X147660000Y-96750000D03*
X147660000Y-94210000D03*
%TD*%
D12*
%TO.C,JP2*%
X137400000Y-119350000D03*
D13*
X137400000Y-120650000D03*
%TD*%
D17*
%TO.C,REF\u002A\u002A*%
X94500000Y-118500000D03*
%TD*%
%TO.C,REF\u002A\u002A*%
X152500000Y-95500000D03*
%TD*%
D18*
%TO.C,TP2*%
X146250000Y-108750000D03*
%TD*%
%TO.C,TP1*%
X146250000Y-105250000D03*
%TD*%
D19*
%TO.C,JP4*%
X151100000Y-113750000D03*
D20*
X152400000Y-113750000D03*
%TD*%
D17*
%TO.C,REF\u002A\u002A*%
X94500000Y-95500000D03*
%TD*%
%TO.C,REF\u002A\u002A*%
X152500000Y-118500000D03*
%TD*%
D19*
%TO.C,JP5*%
X151100000Y-100250000D03*
D20*
X152400000Y-100250000D03*
%TD*%
D21*
%TO.C,J1*%
X146000000Y-115300000D03*
D22*
X144000000Y-115300000D03*
%TD*%
D23*
%TO.C,SW2*%
X94000000Y-109650000D03*
X94000000Y-111350000D03*
%TD*%
D24*
%TO.C,J3*%
X149645000Y-104110000D03*
X149645000Y-109890000D03*
D25*
X153325000Y-102680000D03*
D26*
X149145000Y-102680000D03*
D25*
X153325000Y-111320000D03*
D26*
X149145000Y-111320000D03*
%TD*%
D21*
%TO.C,J2*%
X133400000Y-115300000D03*
D22*
X131400000Y-115300000D03*
%TD*%
D27*
%TO.C,SW1*%
X94170000Y-104500000D03*
X94170000Y-101500000D03*
%TD*%
M02*
