%TF.GenerationSoftware,KiCad,Pcbnew,7.0.7*%
%TF.CreationDate,2023-09-16T21:48:38+03:00*%
%TF.ProjectId,picoups,7069636f-7570-4732-9e6b-696361645f70,1.1.0*%
%TF.SameCoordinates,Original*%
%TF.FileFunction,Legend,Top*%
%TF.FilePolarity,Positive*%
%FSLAX46Y46*%
G04 Gerber Fmt 4.6, Leading zero omitted, Abs format (unit mm)*
G04 Created by KiCad (PCBNEW 7.0.7) date 2023-09-16 21:48:38*
%MOMM*%
%LPD*%
G01*
G04 APERTURE LIST*
%ADD10C,0.000000*%
%ADD11C,0.150000*%
%ADD12C,0.400000*%
%ADD13C,0.600000*%
%ADD14C,0.120000*%
G04 APERTURE END LIST*
D10*
G36*
X140500000Y-118750000D02*
G01*
X140400000Y-118685673D01*
X139900000Y-118620000D01*
X139400000Y-118680769D01*
X139250000Y-118750000D01*
X139250000Y-112600000D01*
X139400000Y-112600000D01*
X139400000Y-118300000D01*
X139900000Y-118300000D01*
X140450000Y-118300000D01*
X140450000Y-112600000D01*
X139400000Y-112600000D01*
X139250000Y-112600000D01*
X139250000Y-112500000D01*
X140500000Y-112500000D01*
X140500000Y-118750000D01*
G37*
G36*
X103600000Y-114600000D02*
G01*
X95800000Y-114600000D01*
X95864327Y-114500000D01*
X95930000Y-114000000D01*
X96150000Y-114000000D01*
X96150000Y-114450000D01*
X103350000Y-114450000D01*
X103350000Y-113500000D01*
X96150000Y-113500000D01*
X96150000Y-114000000D01*
X95930000Y-114000000D01*
X95869231Y-113500000D01*
X95800000Y-113350000D01*
X103600000Y-113350000D01*
X103600000Y-114600000D01*
G37*
G36*
X150920000Y-112780000D02*
G01*
X150555025Y-112955025D01*
X150350000Y-113250000D01*
X150350000Y-113800000D01*
X150190000Y-113800000D01*
X150190000Y-112690000D01*
X151750000Y-112690000D01*
X150920000Y-112780000D01*
G37*
G36*
X150350000Y-100750000D02*
G01*
X150555025Y-101044975D01*
X150920000Y-101220000D01*
X151750000Y-101310000D01*
X150190000Y-101310000D01*
X150190000Y-100200000D01*
X150350000Y-100200000D01*
X150350000Y-100750000D01*
G37*
G36*
X138100000Y-118750000D02*
G01*
X138000000Y-118685673D01*
X137500000Y-118620000D01*
X137000000Y-118680769D01*
X136850000Y-118750000D01*
X136850000Y-114150000D01*
X137000000Y-114150000D01*
X137000000Y-118400000D01*
X137500000Y-118400000D01*
X138050000Y-118400000D01*
X138050000Y-114150000D01*
X137000000Y-114150000D01*
X136850000Y-114150000D01*
X136850000Y-113950000D01*
X138100000Y-113950000D01*
X138100000Y-118750000D01*
G37*
D11*
X147902657Y-110208207D02*
X147931228Y-110132017D01*
X147931228Y-110132017D02*
X147931228Y-110017731D01*
X147931228Y-110017731D02*
X147902657Y-109903445D01*
X147902657Y-109903445D02*
X147845514Y-109827255D01*
X147845514Y-109827255D02*
X147788371Y-109789160D01*
X147788371Y-109789160D02*
X147674085Y-109751064D01*
X147674085Y-109751064D02*
X147588371Y-109751064D01*
X147588371Y-109751064D02*
X147474085Y-109789160D01*
X147474085Y-109789160D02*
X147416942Y-109827255D01*
X147416942Y-109827255D02*
X147359800Y-109903445D01*
X147359800Y-109903445D02*
X147331228Y-110017731D01*
X147331228Y-110017731D02*
X147331228Y-110093922D01*
X147331228Y-110093922D02*
X147359800Y-110208207D01*
X147359800Y-110208207D02*
X147388371Y-110246303D01*
X147388371Y-110246303D02*
X147588371Y-110246303D01*
X147588371Y-110246303D02*
X147588371Y-110093922D01*
G36*
X147040670Y-113329878D02*
G01*
X146795294Y-113329878D01*
X146917982Y-113053830D01*
X147040670Y-113329878D01*
G37*
G36*
X148024440Y-112971328D02*
G01*
X148053179Y-112992882D01*
X148081077Y-113034728D01*
X148081077Y-113096454D01*
X148053179Y-113138301D01*
X148024437Y-113159857D01*
X147952000Y-113187021D01*
X147659649Y-113187021D01*
X147659649Y-112944164D01*
X147952000Y-112944164D01*
X148024440Y-112971328D01*
G37*
G36*
X150241843Y-113801307D02*
G01*
X144450125Y-113801307D01*
X144450125Y-113297735D01*
X144557268Y-113297735D01*
X144557828Y-113299273D01*
X144561117Y-113321452D01*
X144608736Y-113464309D01*
X144610747Y-113466843D01*
X144617483Y-113482194D01*
X144665102Y-113553623D01*
X144665645Y-113554022D01*
X144682506Y-113572021D01*
X144777744Y-113643450D01*
X144779616Y-113644017D01*
X144780765Y-113645601D01*
X144804554Y-113656211D01*
X144947411Y-113691925D01*
X144950859Y-113691564D01*
X144965601Y-113694164D01*
X145060839Y-113694164D01*
X145064096Y-113692978D01*
X145079029Y-113691925D01*
X145221886Y-113656211D01*
X145223506Y-113655116D01*
X145225461Y-113655223D01*
X145248697Y-113643450D01*
X145281077Y-113619164D01*
X145604887Y-113619164D01*
X145622434Y-113667373D01*
X145666863Y-113693025D01*
X145717387Y-113684116D01*
X145750364Y-113644816D01*
X145754887Y-113619164D01*
X145754887Y-113301307D01*
X146176315Y-113301307D01*
X146176315Y-113619164D01*
X146193862Y-113667373D01*
X146238291Y-113693025D01*
X146288815Y-113684116D01*
X146321792Y-113644816D01*
X146322662Y-113639884D01*
X146512568Y-113639884D01*
X146542750Y-113681370D01*
X146592537Y-113693748D01*
X146638633Y-113671228D01*
X146653185Y-113649624D01*
X146728628Y-113479878D01*
X147107336Y-113479878D01*
X147182779Y-113649624D01*
X147218393Y-113686552D01*
X147269411Y-113691949D01*
X147311962Y-113663288D01*
X147324646Y-113619164D01*
X147509649Y-113619164D01*
X147527196Y-113667373D01*
X147571625Y-113693025D01*
X147622149Y-113684116D01*
X147655126Y-113644816D01*
X147659649Y-113619164D01*
X147659649Y-113337021D01*
X147790153Y-113337021D01*
X148101248Y-113670337D01*
X148146969Y-113693608D01*
X148196952Y-113682047D01*
X148227809Y-113641060D01*
X148225102Y-113589829D01*
X148210906Y-113567990D01*
X147991035Y-113332413D01*
X147991935Y-113332246D01*
X148083965Y-113297735D01*
X148462030Y-113297735D01*
X148462590Y-113299273D01*
X148465879Y-113321452D01*
X148513498Y-113464309D01*
X148515509Y-113466843D01*
X148522245Y-113482194D01*
X148569864Y-113553623D01*
X148570407Y-113554022D01*
X148587268Y-113572021D01*
X148682506Y-113643450D01*
X148684378Y-113644017D01*
X148685527Y-113645601D01*
X148709316Y-113656211D01*
X148852173Y-113691925D01*
X148855621Y-113691564D01*
X148870363Y-113694164D01*
X148965601Y-113694164D01*
X148968858Y-113692978D01*
X148983791Y-113691925D01*
X149126648Y-113656211D01*
X149128268Y-113655116D01*
X149130223Y-113655223D01*
X149153459Y-113643450D01*
X149185839Y-113619164D01*
X149509649Y-113619164D01*
X149516312Y-113637472D01*
X149519697Y-113656664D01*
X149524881Y-113661014D01*
X149527196Y-113667373D01*
X149544069Y-113677115D01*
X149558997Y-113689641D01*
X149568739Y-113691358D01*
X149571625Y-113693025D01*
X149574907Y-113692446D01*
X149584649Y-113694164D01*
X150060839Y-113694164D01*
X150109048Y-113676617D01*
X150134700Y-113632188D01*
X150125791Y-113581664D01*
X150086491Y-113548687D01*
X150060839Y-113544164D01*
X149659649Y-113544164D01*
X149659649Y-113301307D01*
X149917982Y-113301307D01*
X149966191Y-113283760D01*
X149991843Y-113239331D01*
X149982934Y-113188807D01*
X149943634Y-113155830D01*
X149917982Y-113151307D01*
X149659649Y-113151307D01*
X149659649Y-112944164D01*
X150060839Y-112944164D01*
X150109048Y-112926617D01*
X150134700Y-112882188D01*
X150125791Y-112831664D01*
X150086491Y-112798687D01*
X150060839Y-112794164D01*
X149584649Y-112794164D01*
X149566340Y-112800827D01*
X149547149Y-112804212D01*
X149542798Y-112809396D01*
X149536440Y-112811711D01*
X149526697Y-112828584D01*
X149514172Y-112843512D01*
X149512454Y-112853254D01*
X149510788Y-112856140D01*
X149511366Y-112859422D01*
X149509649Y-112869164D01*
X149509649Y-113619164D01*
X149185839Y-113619164D01*
X149201077Y-113607735D01*
X149212781Y-113589800D01*
X149226554Y-113573387D01*
X149227687Y-113566960D01*
X149229116Y-113564771D01*
X149228692Y-113561257D01*
X149231077Y-113547735D01*
X149231077Y-113297735D01*
X149224413Y-113279426D01*
X149221029Y-113260235D01*
X149215844Y-113255884D01*
X149213530Y-113249526D01*
X149196656Y-113239783D01*
X149181729Y-113227258D01*
X149171986Y-113225540D01*
X149169101Y-113223874D01*
X149165818Y-113224452D01*
X149156077Y-113222735D01*
X148965601Y-113222735D01*
X148917392Y-113240282D01*
X148891740Y-113284711D01*
X148900649Y-113335235D01*
X148939949Y-113368212D01*
X148965601Y-113372735D01*
X149081077Y-113372735D01*
X149081077Y-113510235D01*
X149075573Y-113514362D01*
X148956367Y-113544164D01*
X148879597Y-113544164D01*
X148760389Y-113514362D01*
X148687545Y-113459729D01*
X148652624Y-113407347D01*
X148612030Y-113285564D01*
X148612030Y-113202762D01*
X148652623Y-113080982D01*
X148687546Y-113028597D01*
X148760389Y-112973965D01*
X148879597Y-112944164D01*
X148999619Y-112944164D01*
X149082124Y-112975103D01*
X149133424Y-112975600D01*
X149173043Y-112943007D01*
X149182441Y-112892572D01*
X149157223Y-112847895D01*
X149134792Y-112834653D01*
X149039554Y-112798939D01*
X149039167Y-112798935D01*
X149038872Y-112798687D01*
X149013220Y-112794164D01*
X148870363Y-112794164D01*
X148867105Y-112795349D01*
X148852173Y-112796403D01*
X148709316Y-112832117D01*
X148707695Y-112833211D01*
X148705741Y-112833105D01*
X148682506Y-112844878D01*
X148587268Y-112916307D01*
X148586900Y-112916870D01*
X148569864Y-112934704D01*
X148522245Y-113006132D01*
X148521478Y-113009279D01*
X148513498Y-113024018D01*
X148465879Y-113166875D01*
X148465923Y-113168509D01*
X148462030Y-113190592D01*
X148462030Y-113297735D01*
X148083965Y-113297735D01*
X148087173Y-113296532D01*
X148089369Y-113294651D01*
X148105840Y-113286307D01*
X148153458Y-113250592D01*
X148153825Y-113250028D01*
X148170862Y-113232195D01*
X148218481Y-113160767D01*
X148220653Y-113151847D01*
X148226554Y-113144816D01*
X148231077Y-113119164D01*
X148231077Y-113012021D01*
X148227937Y-113003396D01*
X148228947Y-112994272D01*
X148218481Y-112970419D01*
X148170862Y-112898990D01*
X148170318Y-112898590D01*
X148153458Y-112880592D01*
X148105839Y-112844878D01*
X148103072Y-112844038D01*
X148087173Y-112834653D01*
X147991935Y-112798939D01*
X147991548Y-112798935D01*
X147991253Y-112798687D01*
X147965601Y-112794164D01*
X147584649Y-112794164D01*
X147566340Y-112800827D01*
X147547149Y-112804212D01*
X147542798Y-112809396D01*
X147536440Y-112811711D01*
X147526697Y-112828584D01*
X147514172Y-112843512D01*
X147512454Y-112853254D01*
X147510788Y-112856140D01*
X147511366Y-112859422D01*
X147509649Y-112869164D01*
X147509649Y-113619164D01*
X147324646Y-113619164D01*
X147326136Y-113613982D01*
X147319851Y-113588704D01*
X146986518Y-112838704D01*
X146972100Y-112823754D01*
X146959881Y-112806959D01*
X146954647Y-112805657D01*
X146950904Y-112801776D01*
X146930246Y-112799590D01*
X146910094Y-112794580D01*
X146905250Y-112796946D01*
X146899886Y-112796379D01*
X146882655Y-112807985D01*
X146863998Y-112817100D01*
X146859741Y-112823418D01*
X146857335Y-112825040D01*
X146856356Y-112828445D01*
X146849446Y-112838704D01*
X146516113Y-113588704D01*
X146512568Y-113639884D01*
X146322662Y-113639884D01*
X146326315Y-113619164D01*
X146326315Y-112869164D01*
X146308768Y-112820955D01*
X146264339Y-112795303D01*
X146213815Y-112804212D01*
X146180838Y-112843512D01*
X146176315Y-112869164D01*
X146176315Y-113151307D01*
X145754887Y-113151307D01*
X145754887Y-112869164D01*
X145737340Y-112820955D01*
X145692911Y-112795303D01*
X145642387Y-112804212D01*
X145609410Y-112843512D01*
X145604887Y-112869164D01*
X145604887Y-113619164D01*
X145281077Y-113619164D01*
X145296315Y-113607735D01*
X145324354Y-113564771D01*
X145318218Y-113513837D01*
X145280776Y-113478764D01*
X145229550Y-113475963D01*
X145206314Y-113487736D01*
X145170811Y-113514362D01*
X145051605Y-113544164D01*
X144974835Y-113544164D01*
X144855627Y-113514362D01*
X144782783Y-113459729D01*
X144747862Y-113407347D01*
X144707268Y-113285564D01*
X144707268Y-113202762D01*
X144747861Y-113080982D01*
X144782784Y-113028597D01*
X144855627Y-112973965D01*
X144974835Y-112944164D01*
X145051605Y-112944164D01*
X145170813Y-112973965D01*
X145206316Y-113000592D01*
X145255411Y-113015480D01*
X145302590Y-112995328D01*
X145325777Y-112949563D01*
X145314123Y-112899602D01*
X145296315Y-112880592D01*
X145248696Y-112844878D01*
X145246825Y-112844310D01*
X145245676Y-112842727D01*
X145221886Y-112832117D01*
X145079029Y-112796403D01*
X145075580Y-112796763D01*
X145060839Y-112794164D01*
X144965601Y-112794164D01*
X144962343Y-112795349D01*
X144947411Y-112796403D01*
X144804554Y-112832117D01*
X144802933Y-112833211D01*
X144800979Y-112833105D01*
X144777744Y-112844878D01*
X144682506Y-112916307D01*
X144682138Y-112916870D01*
X144665102Y-112934704D01*
X144617483Y-113006132D01*
X144616716Y-113009279D01*
X144608736Y-113024018D01*
X144561117Y-113166875D01*
X144561161Y-113168509D01*
X144557268Y-113190592D01*
X144557268Y-113297735D01*
X144450125Y-113297735D01*
X144450125Y-112687021D01*
X150241843Y-112687021D01*
X150241843Y-113801307D01*
G37*
G36*
X149837479Y-100483965D02*
G01*
X149910322Y-100538597D01*
X149945246Y-100590983D01*
X149985839Y-100712762D01*
X149985839Y-100795564D01*
X149945245Y-100917346D01*
X149910323Y-100969729D01*
X149837479Y-101024362D01*
X149718272Y-101054164D01*
X149564411Y-101054164D01*
X149564411Y-100454164D01*
X149718272Y-100454164D01*
X149837479Y-100483965D01*
G37*
G36*
X147929202Y-100481328D02*
G01*
X147957941Y-100502882D01*
X147985839Y-100544728D01*
X147985839Y-100606454D01*
X147957941Y-100648301D01*
X147929199Y-100669857D01*
X147856762Y-100697021D01*
X147564411Y-100697021D01*
X147564411Y-100454164D01*
X147856762Y-100454164D01*
X147929202Y-100481328D01*
G37*
G36*
X145786345Y-100481328D02*
G01*
X145815084Y-100502882D01*
X145842982Y-100544728D01*
X145842982Y-100606454D01*
X145815084Y-100648301D01*
X145786342Y-100669857D01*
X145713905Y-100697021D01*
X145421554Y-100697021D01*
X145421554Y-100454164D01*
X145713905Y-100454164D01*
X145786345Y-100481328D01*
G37*
G36*
X150242982Y-101311307D02*
G01*
X145164411Y-101311307D01*
X145164411Y-101129164D01*
X145271554Y-101129164D01*
X145289101Y-101177373D01*
X145333530Y-101203025D01*
X145384054Y-101194116D01*
X145417031Y-101154816D01*
X145421554Y-101129164D01*
X145421554Y-100847021D01*
X145727506Y-100847021D01*
X145727868Y-100846889D01*
X145728233Y-100847018D01*
X145753840Y-100842246D01*
X145849078Y-100806532D01*
X145851274Y-100804651D01*
X145867745Y-100796307D01*
X145915363Y-100760592D01*
X145915730Y-100760028D01*
X145932767Y-100742195D01*
X145980386Y-100670767D01*
X145982558Y-100661847D01*
X145988459Y-100654816D01*
X145992982Y-100629164D01*
X145992982Y-100522021D01*
X145989842Y-100513396D01*
X145990852Y-100504272D01*
X145980386Y-100480419D01*
X145932767Y-100408990D01*
X145932223Y-100408590D01*
X145915363Y-100390592D01*
X145895959Y-100376039D01*
X146176381Y-100376039D01*
X146179832Y-100401857D01*
X146417927Y-101151858D01*
X146419112Y-101153396D01*
X146419127Y-101155340D01*
X146434647Y-101173560D01*
X146449238Y-101192497D01*
X146451133Y-101192913D01*
X146452395Y-101194394D01*
X146475986Y-101198372D01*
X146499346Y-101203504D01*
X146501068Y-101202602D01*
X146502985Y-101202926D01*
X146523611Y-101190811D01*
X146544806Y-101179725D01*
X146545546Y-101177928D01*
X146547222Y-101176944D01*
X146560077Y-101154290D01*
X146679887Y-100817324D01*
X146799697Y-101154290D01*
X146800935Y-101155788D01*
X146801016Y-101157729D01*
X146817139Y-101175394D01*
X146832380Y-101193835D01*
X146834290Y-101194186D01*
X146835601Y-101195622D01*
X146859307Y-101198790D01*
X146882836Y-101203120D01*
X146884526Y-101202160D01*
X146886452Y-101202418D01*
X146906646Y-101189608D01*
X146927456Y-101177800D01*
X146928134Y-101175978D01*
X146929775Y-101174938D01*
X146941847Y-101151858D01*
X146949051Y-101129164D01*
X147414411Y-101129164D01*
X147431958Y-101177373D01*
X147476387Y-101203025D01*
X147526911Y-101194116D01*
X147559888Y-101154816D01*
X147564411Y-101129164D01*
X147564411Y-100847021D01*
X147694915Y-100847021D01*
X148006010Y-101180337D01*
X148051731Y-101203608D01*
X148101714Y-101192047D01*
X148132571Y-101151060D01*
X148129864Y-101099829D01*
X148115668Y-101077990D01*
X147895797Y-100842413D01*
X147896697Y-100842246D01*
X147988727Y-100807735D01*
X148366792Y-100807735D01*
X148367352Y-100809273D01*
X148370641Y-100831452D01*
X148418260Y-100974309D01*
X148420271Y-100976843D01*
X148427007Y-100992194D01*
X148474626Y-101063623D01*
X148475169Y-101064022D01*
X148492030Y-101082021D01*
X148587268Y-101153450D01*
X148589140Y-101154017D01*
X148590289Y-101155601D01*
X148614078Y-101166211D01*
X148756935Y-101201925D01*
X148760383Y-101201564D01*
X148775125Y-101204164D01*
X148870363Y-101204164D01*
X148873620Y-101202978D01*
X148888553Y-101201925D01*
X149031410Y-101166211D01*
X149033030Y-101165116D01*
X149034985Y-101165223D01*
X149058221Y-101153450D01*
X149090601Y-101129164D01*
X149414411Y-101129164D01*
X149421074Y-101147472D01*
X149424459Y-101166664D01*
X149429643Y-101171014D01*
X149431958Y-101177373D01*
X149448831Y-101187115D01*
X149463759Y-101199641D01*
X149473501Y-101201358D01*
X149476387Y-101203025D01*
X149479669Y-101202446D01*
X149489411Y-101204164D01*
X149727506Y-101204164D01*
X149730763Y-101202978D01*
X149745696Y-101201925D01*
X149888553Y-101166211D01*
X149890173Y-101165116D01*
X149892128Y-101165223D01*
X149915363Y-101153450D01*
X150010601Y-101082021D01*
X150010970Y-101081454D01*
X150028005Y-101063623D01*
X150075624Y-100992194D01*
X150076390Y-100989046D01*
X150084371Y-100974309D01*
X150131990Y-100831453D01*
X150131945Y-100829817D01*
X150135839Y-100807735D01*
X150135839Y-100700592D01*
X150135279Y-100699054D01*
X150131990Y-100676874D01*
X150084371Y-100534018D01*
X150082359Y-100531483D01*
X150075624Y-100516132D01*
X150028005Y-100444704D01*
X150027458Y-100444302D01*
X150010601Y-100426307D01*
X149915363Y-100354878D01*
X149913492Y-100354310D01*
X149912343Y-100352727D01*
X149888553Y-100342117D01*
X149745696Y-100306403D01*
X149742247Y-100306763D01*
X149727506Y-100304164D01*
X149489411Y-100304164D01*
X149471102Y-100310827D01*
X149451911Y-100314212D01*
X149447560Y-100319396D01*
X149441202Y-100321711D01*
X149431459Y-100338584D01*
X149418934Y-100353512D01*
X149417216Y-100363254D01*
X149415550Y-100366140D01*
X149416128Y-100369422D01*
X149414411Y-100379164D01*
X149414411Y-101129164D01*
X149090601Y-101129164D01*
X149105839Y-101117735D01*
X149117543Y-101099800D01*
X149131316Y-101083387D01*
X149132449Y-101076960D01*
X149133878Y-101074771D01*
X149133454Y-101071257D01*
X149135839Y-101057735D01*
X149135839Y-100807735D01*
X149129175Y-100789426D01*
X149125791Y-100770235D01*
X149120606Y-100765884D01*
X149118292Y-100759526D01*
X149101418Y-100749783D01*
X149086491Y-100737258D01*
X149076748Y-100735540D01*
X149073863Y-100733874D01*
X149070580Y-100734452D01*
X149060839Y-100732735D01*
X148870363Y-100732735D01*
X148822154Y-100750282D01*
X148796502Y-100794711D01*
X148805411Y-100845235D01*
X148844711Y-100878212D01*
X148870363Y-100882735D01*
X148985839Y-100882735D01*
X148985839Y-101020235D01*
X148980335Y-101024362D01*
X148861129Y-101054164D01*
X148784359Y-101054164D01*
X148665151Y-101024362D01*
X148592307Y-100969729D01*
X148557386Y-100917347D01*
X148516792Y-100795564D01*
X148516792Y-100712762D01*
X148557385Y-100590982D01*
X148592308Y-100538597D01*
X148665151Y-100483965D01*
X148784359Y-100454164D01*
X148904381Y-100454164D01*
X148986886Y-100485103D01*
X149038186Y-100485600D01*
X149077805Y-100453007D01*
X149087203Y-100402572D01*
X149061985Y-100357895D01*
X149039554Y-100344653D01*
X148944316Y-100308939D01*
X148943929Y-100308935D01*
X148943634Y-100308687D01*
X148917982Y-100304164D01*
X148775125Y-100304164D01*
X148771867Y-100305349D01*
X148756935Y-100306403D01*
X148614078Y-100342117D01*
X148612457Y-100343211D01*
X148610503Y-100343105D01*
X148587268Y-100354878D01*
X148492030Y-100426307D01*
X148491662Y-100426870D01*
X148474626Y-100444704D01*
X148427007Y-100516132D01*
X148426240Y-100519279D01*
X148418260Y-100534018D01*
X148370641Y-100676875D01*
X148370685Y-100678509D01*
X148366792Y-100700592D01*
X148366792Y-100807735D01*
X147988727Y-100807735D01*
X147991935Y-100806532D01*
X147994131Y-100804651D01*
X148010602Y-100796307D01*
X148058220Y-100760592D01*
X148058587Y-100760028D01*
X148075624Y-100742195D01*
X148123243Y-100670767D01*
X148125415Y-100661847D01*
X148131316Y-100654816D01*
X148135839Y-100629164D01*
X148135839Y-100522021D01*
X148132699Y-100513396D01*
X148133709Y-100504272D01*
X148123243Y-100480419D01*
X148075624Y-100408990D01*
X148075080Y-100408590D01*
X148058220Y-100390592D01*
X148010601Y-100354878D01*
X148007834Y-100354038D01*
X147991935Y-100344653D01*
X147896697Y-100308939D01*
X147896310Y-100308935D01*
X147896015Y-100308687D01*
X147870363Y-100304164D01*
X147489411Y-100304164D01*
X147471102Y-100310827D01*
X147451911Y-100314212D01*
X147447560Y-100319396D01*
X147441202Y-100321711D01*
X147431459Y-100338584D01*
X147418934Y-100353512D01*
X147417216Y-100363254D01*
X147415550Y-100366140D01*
X147416128Y-100369422D01*
X147414411Y-100379164D01*
X147414411Y-101129164D01*
X146949051Y-101129164D01*
X147179943Y-100401858D01*
X147177806Y-100350599D01*
X147143221Y-100312706D01*
X147092370Y-100305910D01*
X147049047Y-100333390D01*
X147036975Y-100356471D01*
X146866338Y-100893972D01*
X146750553Y-100568324D01*
X146750175Y-100567867D01*
X146750171Y-100567274D01*
X146733859Y-100548125D01*
X146717870Y-100528779D01*
X146717287Y-100528671D01*
X146716903Y-100528220D01*
X146692108Y-100524038D01*
X146667414Y-100519494D01*
X146666898Y-100519786D01*
X146666314Y-100519688D01*
X146644657Y-100532407D01*
X146622794Y-100544814D01*
X146622586Y-100545369D01*
X146622076Y-100545670D01*
X146609221Y-100568324D01*
X146493435Y-100893972D01*
X146322800Y-100356471D01*
X146291489Y-100315831D01*
X146241381Y-100304824D01*
X146195921Y-100328603D01*
X146176381Y-100376039D01*
X145895959Y-100376039D01*
X145867744Y-100354878D01*
X145864977Y-100354038D01*
X145849078Y-100344653D01*
X145753840Y-100308939D01*
X145753453Y-100308935D01*
X145753158Y-100308687D01*
X145727506Y-100304164D01*
X145346554Y-100304164D01*
X145328245Y-100310827D01*
X145309054Y-100314212D01*
X145304703Y-100319396D01*
X145298345Y-100321711D01*
X145288602Y-100338584D01*
X145276077Y-100353512D01*
X145274359Y-100363254D01*
X145272693Y-100366140D01*
X145273271Y-100369422D01*
X145271554Y-100379164D01*
X145271554Y-101129164D01*
X145164411Y-101129164D01*
X145164411Y-100197021D01*
X150242982Y-100197021D01*
X150242982Y-101311307D01*
G37*
G36*
X140235835Y-116102000D02*
G01*
X140208670Y-116174439D01*
X140187114Y-116203180D01*
X140145270Y-116231077D01*
X140083544Y-116231077D01*
X140041697Y-116203179D01*
X140020141Y-116174437D01*
X139992978Y-116102000D01*
X139992978Y-115809649D01*
X140235835Y-115809649D01*
X140235835Y-116102000D01*
G37*
G36*
X140126168Y-115067982D02*
G01*
X139850121Y-115190669D01*
X139850121Y-114945294D01*
X140126168Y-115067982D01*
G37*
G36*
X140492978Y-118391843D02*
G01*
X139378692Y-118391843D01*
X139378692Y-118210839D01*
X139485835Y-118210839D01*
X139503382Y-118259048D01*
X139547811Y-118284700D01*
X139598335Y-118275791D01*
X139631312Y-118236491D01*
X139635835Y-118210839D01*
X139635835Y-117809649D01*
X139878692Y-117809649D01*
X139878692Y-118067982D01*
X139896239Y-118116191D01*
X139940668Y-118141843D01*
X139991192Y-118132934D01*
X140024169Y-118093634D01*
X140028692Y-118067982D01*
X140028692Y-117809649D01*
X140235835Y-117809649D01*
X140235835Y-118210839D01*
X140253382Y-118259048D01*
X140297811Y-118284700D01*
X140348335Y-118275791D01*
X140381312Y-118236491D01*
X140385835Y-118210839D01*
X140385835Y-117734649D01*
X140379171Y-117716340D01*
X140375787Y-117697149D01*
X140370602Y-117692798D01*
X140368288Y-117686440D01*
X140351414Y-117676697D01*
X140336487Y-117664172D01*
X140326744Y-117662454D01*
X140323859Y-117660788D01*
X140320576Y-117661366D01*
X140310835Y-117659649D01*
X139560835Y-117659649D01*
X139542526Y-117666312D01*
X139523335Y-117669697D01*
X139518984Y-117674881D01*
X139512626Y-117677196D01*
X139502883Y-117694069D01*
X139490358Y-117708997D01*
X139488640Y-117718739D01*
X139486974Y-117721625D01*
X139487552Y-117724907D01*
X139485835Y-117734649D01*
X139485835Y-118210839D01*
X139378692Y-118210839D01*
X139378692Y-117115601D01*
X139485835Y-117115601D01*
X139487020Y-117118858D01*
X139488074Y-117133792D01*
X139523789Y-117276649D01*
X139524883Y-117278269D01*
X139524777Y-117280222D01*
X139536550Y-117303458D01*
X139572264Y-117351077D01*
X139590200Y-117362782D01*
X139606612Y-117376554D01*
X139613037Y-117377686D01*
X139615227Y-117379116D01*
X139618741Y-117378692D01*
X139632264Y-117381077D01*
X139882264Y-117381077D01*
X139900572Y-117374413D01*
X139919764Y-117371029D01*
X139924114Y-117365844D01*
X139930473Y-117363530D01*
X139940215Y-117346656D01*
X139952741Y-117331729D01*
X139954458Y-117321986D01*
X139956125Y-117319101D01*
X139955546Y-117315818D01*
X139957264Y-117306077D01*
X139957264Y-117115601D01*
X139939717Y-117067392D01*
X139895288Y-117041740D01*
X139844764Y-117050649D01*
X139811787Y-117089949D01*
X139807264Y-117115601D01*
X139807264Y-117231077D01*
X139669764Y-117231077D01*
X139665637Y-117225575D01*
X139635835Y-117106365D01*
X139635835Y-117029598D01*
X139665637Y-116910388D01*
X139720270Y-116837545D01*
X139772652Y-116802623D01*
X139894434Y-116762030D01*
X139977237Y-116762030D01*
X140099016Y-116802623D01*
X140151401Y-116837546D01*
X140206033Y-116910389D01*
X140235835Y-117029596D01*
X140235835Y-117149619D01*
X140204896Y-117232124D01*
X140204399Y-117283425D01*
X140236992Y-117323043D01*
X140287427Y-117332442D01*
X140332104Y-117307223D01*
X140345346Y-117284792D01*
X140381060Y-117189554D01*
X140381063Y-117189167D01*
X140381312Y-117188872D01*
X140385835Y-117163220D01*
X140385835Y-117020363D01*
X140384649Y-117017105D01*
X140383596Y-117002173D01*
X140347882Y-116859316D01*
X140346787Y-116857695D01*
X140346894Y-116855741D01*
X140335121Y-116832506D01*
X140263692Y-116737268D01*
X140263128Y-116736900D01*
X140245295Y-116719864D01*
X140173867Y-116672245D01*
X140170719Y-116671478D01*
X140155981Y-116663498D01*
X140013124Y-116615879D01*
X140011489Y-116615923D01*
X139989407Y-116612030D01*
X139882264Y-116612030D01*
X139880726Y-116612589D01*
X139858546Y-116615879D01*
X139715690Y-116663498D01*
X139713154Y-116665510D01*
X139697805Y-116672245D01*
X139626376Y-116719864D01*
X139625978Y-116720404D01*
X139607978Y-116737268D01*
X139536550Y-116832506D01*
X139535982Y-116834376D01*
X139534399Y-116835526D01*
X139523789Y-116859315D01*
X139488074Y-117002172D01*
X139488434Y-117005620D01*
X139485835Y-117020363D01*
X139485835Y-117115601D01*
X139378692Y-117115601D01*
X139378692Y-116296970D01*
X139486390Y-116296970D01*
X139497952Y-116346952D01*
X139538938Y-116377809D01*
X139590170Y-116375102D01*
X139612009Y-116360906D01*
X139847585Y-116141034D01*
X139847753Y-116141935D01*
X139883467Y-116237173D01*
X139885347Y-116239369D01*
X139893692Y-116255840D01*
X139929407Y-116303458D01*
X139929970Y-116303825D01*
X139947804Y-116320862D01*
X140019232Y-116368481D01*
X140028151Y-116370653D01*
X140035183Y-116376554D01*
X140060835Y-116381077D01*
X140167978Y-116381077D01*
X140176602Y-116377937D01*
X140185728Y-116378947D01*
X140209580Y-116368481D01*
X140281009Y-116320862D01*
X140281406Y-116320321D01*
X140299407Y-116303458D01*
X140335121Y-116255838D01*
X140335959Y-116253073D01*
X140345346Y-116237173D01*
X140381060Y-116141935D01*
X140381063Y-116141548D01*
X140381312Y-116141253D01*
X140385835Y-116115601D01*
X140385835Y-115734649D01*
X140379171Y-115716340D01*
X140375787Y-115697149D01*
X140370602Y-115692798D01*
X140368288Y-115686440D01*
X140351414Y-115676697D01*
X140336487Y-115664172D01*
X140326744Y-115662454D01*
X140323859Y-115660788D01*
X140320576Y-115661366D01*
X140310835Y-115659649D01*
X139560835Y-115659649D01*
X139512626Y-115677196D01*
X139486974Y-115721625D01*
X139495883Y-115772149D01*
X139535183Y-115805126D01*
X139560835Y-115809649D01*
X139842978Y-115809649D01*
X139842978Y-115940152D01*
X139509661Y-116251248D01*
X139486390Y-116296970D01*
X139378692Y-116296970D01*
X139378692Y-114742537D01*
X139486251Y-114742537D01*
X139508771Y-114788633D01*
X139530375Y-114803185D01*
X139700121Y-114878627D01*
X139700121Y-115257336D01*
X139530375Y-115332779D01*
X139493447Y-115368393D01*
X139488050Y-115419411D01*
X139516711Y-115461962D01*
X139566017Y-115476136D01*
X139591295Y-115469851D01*
X140341295Y-115136518D01*
X140356244Y-115122100D01*
X140373040Y-115109881D01*
X140374341Y-115104647D01*
X140378223Y-115100904D01*
X140380408Y-115080246D01*
X140385419Y-115060094D01*
X140383052Y-115055250D01*
X140383620Y-115049886D01*
X140372013Y-115032655D01*
X140362899Y-115013998D01*
X140356580Y-115009741D01*
X140354959Y-115007335D01*
X140351553Y-115006356D01*
X140341295Y-114999446D01*
X139591295Y-114666113D01*
X139540115Y-114662568D01*
X139498629Y-114692750D01*
X139486251Y-114742537D01*
X139378692Y-114742537D01*
X139378692Y-114388291D01*
X139486974Y-114388291D01*
X139495883Y-114438815D01*
X139535183Y-114471792D01*
X139560835Y-114476315D01*
X140310835Y-114476315D01*
X140359044Y-114458768D01*
X140384696Y-114414339D01*
X140375787Y-114363815D01*
X140336487Y-114330838D01*
X140310835Y-114326315D01*
X140028692Y-114326315D01*
X140028692Y-113904887D01*
X140310835Y-113904887D01*
X140359044Y-113887340D01*
X140384696Y-113842911D01*
X140375787Y-113792387D01*
X140336487Y-113759410D01*
X140310835Y-113754887D01*
X139560835Y-113754887D01*
X139512626Y-113772434D01*
X139486974Y-113816863D01*
X139495883Y-113867387D01*
X139535183Y-113900364D01*
X139560835Y-113904887D01*
X139878692Y-113904887D01*
X139878692Y-114326315D01*
X139560835Y-114326315D01*
X139512626Y-114343862D01*
X139486974Y-114388291D01*
X139378692Y-114388291D01*
X139378692Y-113210839D01*
X139485835Y-113210839D01*
X139487020Y-113214096D01*
X139488074Y-113229030D01*
X139523789Y-113371887D01*
X139524883Y-113373507D01*
X139524777Y-113375460D01*
X139536550Y-113398696D01*
X139572264Y-113446315D01*
X139615227Y-113474354D01*
X139666161Y-113468219D01*
X139701235Y-113430777D01*
X139704037Y-113379551D01*
X139692264Y-113356316D01*
X139665637Y-113320813D01*
X139635835Y-113201603D01*
X139635835Y-113124836D01*
X139665637Y-113005626D01*
X139720270Y-112932783D01*
X139772652Y-112897861D01*
X139894434Y-112857268D01*
X139977237Y-112857268D01*
X140099016Y-112897861D01*
X140151401Y-112932784D01*
X140206033Y-113005627D01*
X140235835Y-113124834D01*
X140235835Y-113201605D01*
X140206033Y-113320813D01*
X140179407Y-113356315D01*
X140164519Y-113405411D01*
X140184671Y-113452590D01*
X140230436Y-113475777D01*
X140280398Y-113464123D01*
X140299407Y-113446315D01*
X140335121Y-113398695D01*
X140335688Y-113396824D01*
X140337272Y-113395675D01*
X140347882Y-113371886D01*
X140383596Y-113229029D01*
X140383235Y-113225580D01*
X140385835Y-113210839D01*
X140385835Y-113115601D01*
X140384649Y-113112343D01*
X140383596Y-113097411D01*
X140347882Y-112954554D01*
X140346787Y-112952933D01*
X140346894Y-112950979D01*
X140335121Y-112927744D01*
X140263692Y-112832506D01*
X140263128Y-112832138D01*
X140245295Y-112815102D01*
X140173867Y-112767483D01*
X140170719Y-112766716D01*
X140155981Y-112758736D01*
X140013124Y-112711117D01*
X140011489Y-112711161D01*
X139989407Y-112707268D01*
X139882264Y-112707268D01*
X139880726Y-112707827D01*
X139858546Y-112711117D01*
X139715690Y-112758736D01*
X139713154Y-112760748D01*
X139697805Y-112767483D01*
X139626376Y-112815102D01*
X139625978Y-112815642D01*
X139607978Y-112832506D01*
X139536550Y-112927744D01*
X139535982Y-112929614D01*
X139534399Y-112930764D01*
X139523789Y-112954553D01*
X139488074Y-113097410D01*
X139488434Y-113100858D01*
X139485835Y-113115601D01*
X139485835Y-113210839D01*
X139378692Y-113210839D01*
X139378692Y-112600125D01*
X140492978Y-112600125D01*
X140492978Y-118391843D01*
G37*
G36*
X146511220Y-119145078D02*
G01*
X146539959Y-119166632D01*
X146567857Y-119208478D01*
X146567857Y-119270204D01*
X146539959Y-119312051D01*
X146511217Y-119333607D01*
X146438780Y-119360771D01*
X146146429Y-119360771D01*
X146146429Y-119117914D01*
X146438780Y-119117914D01*
X146511220Y-119145078D01*
G37*
G36*
X144296933Y-117937578D02*
G01*
X144364828Y-117988500D01*
X144401190Y-118097583D01*
X144401190Y-118323244D01*
X144364828Y-118432327D01*
X144296933Y-118483249D01*
X144224494Y-118510414D01*
X144061220Y-118510414D01*
X143988780Y-118483249D01*
X143920885Y-118432328D01*
X143884524Y-118323243D01*
X143884524Y-118097584D01*
X143920885Y-117988499D01*
X143988780Y-117937578D01*
X144061220Y-117910414D01*
X144224494Y-117910414D01*
X144296933Y-117937578D01*
G37*
G36*
X146027450Y-118296128D02*
G01*
X145782074Y-118296128D01*
X145904762Y-118020080D01*
X146027450Y-118296128D01*
G37*
G36*
X147011220Y-117937578D02*
G01*
X147039959Y-117959132D01*
X147067857Y-118000978D01*
X147067857Y-118062704D01*
X147039959Y-118104551D01*
X147011217Y-118126107D01*
X146938780Y-118153271D01*
X146646429Y-118153271D01*
X146646429Y-117910414D01*
X146938780Y-117910414D01*
X147011220Y-117937578D01*
G37*
G36*
X147825000Y-119975057D02*
G01*
X142080901Y-119975057D01*
X142080901Y-119779890D01*
X142188044Y-119779890D01*
X142196953Y-119830414D01*
X142236253Y-119863391D01*
X142261905Y-119867914D01*
X142357143Y-119867914D01*
X142360400Y-119866728D01*
X142375333Y-119865675D01*
X142518190Y-119829961D01*
X142519810Y-119828866D01*
X142521765Y-119828973D01*
X142545000Y-119817200D01*
X142640238Y-119745771D01*
X142643636Y-119740563D01*
X142649222Y-119737835D01*
X142663774Y-119716231D01*
X142711393Y-119609089D01*
X142711581Y-119606368D01*
X142713334Y-119604280D01*
X142717857Y-119578628D01*
X142717857Y-119257200D01*
X142996429Y-119257200D01*
X142999568Y-119265824D01*
X142998559Y-119274950D01*
X143009025Y-119298803D01*
X143056644Y-119370231D01*
X143057187Y-119370630D01*
X143074048Y-119388628D01*
X143121668Y-119424342D01*
X143124434Y-119425180D01*
X143140332Y-119434567D01*
X143235570Y-119470281D01*
X143238889Y-119470313D01*
X143248083Y-119473772D01*
X143432148Y-119508284D01*
X143511217Y-119537934D01*
X143539959Y-119559490D01*
X143567857Y-119601337D01*
X143567857Y-119627347D01*
X143539959Y-119669194D01*
X143511217Y-119690750D01*
X143438780Y-119717914D01*
X143223520Y-119717914D01*
X143089619Y-119684439D01*
X143038594Y-119689770D01*
X143002932Y-119726651D01*
X142999321Y-119777827D01*
X143029450Y-119819351D01*
X143053239Y-119829961D01*
X143196096Y-119865675D01*
X143199544Y-119865314D01*
X143214286Y-119867914D01*
X143452381Y-119867914D01*
X143452743Y-119867782D01*
X143453108Y-119867911D01*
X143478715Y-119863139D01*
X143573953Y-119827425D01*
X143576149Y-119825544D01*
X143592620Y-119817200D01*
X143640238Y-119781485D01*
X143640605Y-119780921D01*
X143657642Y-119763088D01*
X143705261Y-119691660D01*
X143707433Y-119682740D01*
X143713334Y-119675709D01*
X143717857Y-119650057D01*
X143717857Y-119578628D01*
X143714717Y-119570003D01*
X143715727Y-119560878D01*
X143705261Y-119537025D01*
X143657642Y-119465597D01*
X143657095Y-119465195D01*
X143640238Y-119447200D01*
X143592620Y-119411485D01*
X143589851Y-119410645D01*
X143573953Y-119401260D01*
X143478715Y-119365546D01*
X143475392Y-119365513D01*
X143466202Y-119362056D01*
X143282138Y-119327544D01*
X143203065Y-119297890D01*
X143174326Y-119276336D01*
X143146429Y-119234490D01*
X143146429Y-119208478D01*
X143174325Y-119166634D01*
X143203066Y-119145078D01*
X143275506Y-119117914D01*
X143490766Y-119117914D01*
X143624667Y-119151389D01*
X143675693Y-119146058D01*
X143711354Y-119109177D01*
X143714965Y-119058001D01*
X143694569Y-119029890D01*
X143854711Y-119029890D01*
X143863620Y-119080414D01*
X143902920Y-119113391D01*
X143928572Y-119117914D01*
X144139286Y-119117914D01*
X144139286Y-119792914D01*
X144156833Y-119841123D01*
X144201262Y-119866775D01*
X144251786Y-119857866D01*
X144284763Y-119818566D01*
X144289286Y-119792914D01*
X145996429Y-119792914D01*
X146013976Y-119841123D01*
X146058405Y-119866775D01*
X146108929Y-119857866D01*
X146141906Y-119818566D01*
X146146429Y-119792914D01*
X146996429Y-119792914D01*
X147013976Y-119841123D01*
X147058405Y-119866775D01*
X147108929Y-119857866D01*
X147141906Y-119818566D01*
X147146429Y-119792914D01*
X147146429Y-119475057D01*
X147567857Y-119475057D01*
X147567857Y-119792914D01*
X147585404Y-119841123D01*
X147629833Y-119866775D01*
X147680357Y-119857866D01*
X147713334Y-119818566D01*
X147717857Y-119792914D01*
X147717857Y-119042914D01*
X147700310Y-118994705D01*
X147655881Y-118969053D01*
X147605357Y-118977962D01*
X147572380Y-119017262D01*
X147567857Y-119042914D01*
X147567857Y-119325057D01*
X147146429Y-119325057D01*
X147146429Y-119042914D01*
X147128882Y-118994705D01*
X147084453Y-118969053D01*
X147033929Y-118977962D01*
X147000952Y-119017262D01*
X146996429Y-119042914D01*
X146996429Y-119792914D01*
X146146429Y-119792914D01*
X146146429Y-119510771D01*
X146452381Y-119510771D01*
X146452743Y-119510639D01*
X146453108Y-119510768D01*
X146478715Y-119505996D01*
X146573953Y-119470282D01*
X146576149Y-119468401D01*
X146592620Y-119460057D01*
X146640238Y-119424342D01*
X146640605Y-119423778D01*
X146657642Y-119405945D01*
X146705261Y-119334517D01*
X146707433Y-119325597D01*
X146713334Y-119318566D01*
X146717857Y-119292914D01*
X146717857Y-119185771D01*
X146714717Y-119177146D01*
X146715727Y-119168022D01*
X146705261Y-119144169D01*
X146657642Y-119072740D01*
X146657098Y-119072340D01*
X146640238Y-119054342D01*
X146592619Y-119018628D01*
X146589852Y-119017788D01*
X146573953Y-119008403D01*
X146478715Y-118972689D01*
X146478328Y-118972685D01*
X146478033Y-118972437D01*
X146452381Y-118967914D01*
X146071429Y-118967914D01*
X146053120Y-118974577D01*
X146033929Y-118977962D01*
X146029578Y-118983146D01*
X146023220Y-118985461D01*
X146013477Y-119002334D01*
X146000952Y-119017262D01*
X145999234Y-119027004D01*
X145997568Y-119029890D01*
X145998146Y-119033172D01*
X145996429Y-119042914D01*
X145996429Y-119792914D01*
X144289286Y-119792914D01*
X144289286Y-119494176D01*
X144759473Y-119494176D01*
X144768382Y-119544700D01*
X144807682Y-119577677D01*
X144833334Y-119582200D01*
X145595239Y-119582200D01*
X145643448Y-119564653D01*
X145669100Y-119520224D01*
X145660191Y-119469700D01*
X145620891Y-119436723D01*
X145595239Y-119432200D01*
X144833334Y-119432200D01*
X144785125Y-119449747D01*
X144759473Y-119494176D01*
X144289286Y-119494176D01*
X144289286Y-119117914D01*
X144500000Y-119117914D01*
X144548209Y-119100367D01*
X144573861Y-119055938D01*
X144564952Y-119005414D01*
X144525652Y-118972437D01*
X144500000Y-118967914D01*
X143928572Y-118967914D01*
X143880363Y-118985461D01*
X143854711Y-119029890D01*
X143694569Y-119029890D01*
X143684837Y-119016477D01*
X143661047Y-119005867D01*
X143518190Y-118970153D01*
X143514741Y-118970513D01*
X143500000Y-118967914D01*
X143261905Y-118967914D01*
X143261542Y-118968045D01*
X143261178Y-118967917D01*
X143235571Y-118972689D01*
X143140333Y-119008403D01*
X143138134Y-119010284D01*
X143121668Y-119018628D01*
X143074048Y-119054342D01*
X143073678Y-119054908D01*
X143056644Y-119072740D01*
X143009025Y-119144169D01*
X143006852Y-119153086D01*
X143000952Y-119160119D01*
X142996429Y-119185771D01*
X142996429Y-119257200D01*
X142717857Y-119257200D01*
X142717857Y-119042914D01*
X142700310Y-118994705D01*
X142655881Y-118969053D01*
X142605357Y-118977962D01*
X142572380Y-119017262D01*
X142567857Y-119042914D01*
X142567857Y-119562712D01*
X142534627Y-119637479D01*
X142467116Y-119688112D01*
X142347909Y-119717914D01*
X142261905Y-119717914D01*
X142213696Y-119735461D01*
X142188044Y-119779890D01*
X142080901Y-119779890D01*
X142080901Y-118049700D01*
X142782143Y-118049700D01*
X142785282Y-118058324D01*
X142784273Y-118067450D01*
X142794739Y-118091303D01*
X142842358Y-118162731D01*
X142842901Y-118163130D01*
X142859762Y-118181128D01*
X142907382Y-118216842D01*
X142910148Y-118217680D01*
X142926046Y-118227067D01*
X143021284Y-118262781D01*
X143024603Y-118262813D01*
X143033797Y-118266272D01*
X143217862Y-118300784D01*
X143296931Y-118330434D01*
X143325673Y-118351990D01*
X143353571Y-118393837D01*
X143353571Y-118419847D01*
X143325673Y-118461694D01*
X143296931Y-118483250D01*
X143224494Y-118510414D01*
X143009234Y-118510414D01*
X142875333Y-118476939D01*
X142824308Y-118482270D01*
X142788646Y-118519151D01*
X142785035Y-118570327D01*
X142815164Y-118611851D01*
X142838953Y-118622461D01*
X142981810Y-118658175D01*
X142985258Y-118657814D01*
X143000000Y-118660414D01*
X143238095Y-118660414D01*
X143238457Y-118660282D01*
X143238822Y-118660411D01*
X143264429Y-118655639D01*
X143359667Y-118619925D01*
X143361863Y-118618044D01*
X143378334Y-118609700D01*
X143425952Y-118573985D01*
X143426319Y-118573421D01*
X143443356Y-118555588D01*
X143490975Y-118484160D01*
X143493147Y-118475240D01*
X143499048Y-118468209D01*
X143503571Y-118442557D01*
X143503571Y-118371128D01*
X143500431Y-118362503D01*
X143501441Y-118353378D01*
X143493559Y-118335414D01*
X143734524Y-118335414D01*
X143735084Y-118336952D01*
X143738373Y-118359131D01*
X143785992Y-118501988D01*
X143792101Y-118509686D01*
X143794335Y-118519261D01*
X143812143Y-118538271D01*
X143907381Y-118609700D01*
X143910147Y-118610539D01*
X143926047Y-118619925D01*
X144021285Y-118655639D01*
X144021671Y-118655642D01*
X144021967Y-118655891D01*
X144047619Y-118660414D01*
X144238095Y-118660414D01*
X144238457Y-118660282D01*
X144238822Y-118660411D01*
X144264429Y-118655639D01*
X144359667Y-118619925D01*
X144361864Y-118618044D01*
X144378333Y-118609700D01*
X144410714Y-118585414D01*
X144829762Y-118585414D01*
X144836425Y-118603722D01*
X144839810Y-118622914D01*
X144844994Y-118627264D01*
X144847309Y-118633623D01*
X144864182Y-118643365D01*
X144879110Y-118655891D01*
X144888852Y-118657608D01*
X144891738Y-118659275D01*
X144895020Y-118658696D01*
X144904762Y-118660414D01*
X145380952Y-118660414D01*
X145429161Y-118642867D01*
X145450370Y-118606134D01*
X145499348Y-118606134D01*
X145529530Y-118647620D01*
X145579317Y-118659998D01*
X145625413Y-118637478D01*
X145639965Y-118615874D01*
X145715408Y-118446128D01*
X146094116Y-118446128D01*
X146169559Y-118615874D01*
X146205173Y-118652802D01*
X146256191Y-118658199D01*
X146298742Y-118629538D01*
X146311426Y-118585414D01*
X146496429Y-118585414D01*
X146513976Y-118633623D01*
X146558405Y-118659275D01*
X146608929Y-118650366D01*
X146641906Y-118611066D01*
X146646429Y-118585414D01*
X146646429Y-118303271D01*
X146776933Y-118303271D01*
X147088028Y-118636587D01*
X147133749Y-118659858D01*
X147183732Y-118648297D01*
X147214589Y-118607310D01*
X147211882Y-118556079D01*
X147197686Y-118534240D01*
X146977815Y-118298663D01*
X146978715Y-118298496D01*
X147073953Y-118262782D01*
X147076149Y-118260901D01*
X147092620Y-118252557D01*
X147140238Y-118216842D01*
X147140605Y-118216278D01*
X147157642Y-118198445D01*
X147205261Y-118127017D01*
X147207433Y-118118097D01*
X147213334Y-118111066D01*
X147217857Y-118085414D01*
X147217857Y-117978271D01*
X147214717Y-117969646D01*
X147215727Y-117960522D01*
X147205261Y-117936669D01*
X147157642Y-117865240D01*
X147157098Y-117864840D01*
X147140238Y-117846842D01*
X147092619Y-117811128D01*
X147089852Y-117810288D01*
X147073953Y-117800903D01*
X146978715Y-117765189D01*
X146978328Y-117765185D01*
X146978033Y-117764937D01*
X146952381Y-117760414D01*
X146571429Y-117760414D01*
X146553120Y-117767077D01*
X146533929Y-117770462D01*
X146529578Y-117775646D01*
X146523220Y-117777961D01*
X146513477Y-117794834D01*
X146500952Y-117809762D01*
X146499234Y-117819504D01*
X146497568Y-117822390D01*
X146498146Y-117825672D01*
X146496429Y-117835414D01*
X146496429Y-118585414D01*
X146311426Y-118585414D01*
X146312916Y-118580232D01*
X146306631Y-118554954D01*
X145973298Y-117804954D01*
X145958880Y-117790004D01*
X145946661Y-117773209D01*
X145941427Y-117771907D01*
X145937684Y-117768026D01*
X145917026Y-117765840D01*
X145896874Y-117760830D01*
X145892030Y-117763196D01*
X145886666Y-117762629D01*
X145869435Y-117774235D01*
X145850778Y-117783350D01*
X145846521Y-117789668D01*
X145844115Y-117791290D01*
X145843136Y-117794695D01*
X145836226Y-117804954D01*
X145502893Y-118554954D01*
X145499348Y-118606134D01*
X145450370Y-118606134D01*
X145454813Y-118598438D01*
X145445904Y-118547914D01*
X145406604Y-118514937D01*
X145380952Y-118510414D01*
X144979762Y-118510414D01*
X144979762Y-117835414D01*
X144962215Y-117787205D01*
X144917786Y-117761553D01*
X144867262Y-117770462D01*
X144834285Y-117809762D01*
X144829762Y-117835414D01*
X144829762Y-118585414D01*
X144410714Y-118585414D01*
X144473571Y-118538271D01*
X144478943Y-118530038D01*
X144487319Y-118524893D01*
X144499722Y-118501988D01*
X144547341Y-118359132D01*
X144547296Y-118357496D01*
X144551190Y-118335414D01*
X144551190Y-118085414D01*
X144550630Y-118083876D01*
X144547341Y-118061696D01*
X144499722Y-117918840D01*
X144493612Y-117911141D01*
X144491379Y-117901567D01*
X144473571Y-117882557D01*
X144378333Y-117811128D01*
X144375566Y-117810288D01*
X144359667Y-117800903D01*
X144264429Y-117765189D01*
X144264042Y-117765185D01*
X144263747Y-117764937D01*
X144238095Y-117760414D01*
X144047619Y-117760414D01*
X144047256Y-117760545D01*
X144046892Y-117760417D01*
X144021285Y-117765189D01*
X143926047Y-117800903D01*
X143923849Y-117802783D01*
X143907381Y-117811128D01*
X143812143Y-117882557D01*
X143806770Y-117890788D01*
X143798394Y-117895935D01*
X143785992Y-117918840D01*
X143738373Y-118061697D01*
X143738417Y-118063331D01*
X143734524Y-118085414D01*
X143734524Y-118335414D01*
X143493559Y-118335414D01*
X143490975Y-118329525D01*
X143443356Y-118258097D01*
X143442809Y-118257695D01*
X143425952Y-118239700D01*
X143378334Y-118203985D01*
X143375565Y-118203145D01*
X143359667Y-118193760D01*
X143264429Y-118158046D01*
X143261106Y-118158013D01*
X143251916Y-118154556D01*
X143067852Y-118120044D01*
X142988779Y-118090390D01*
X142960040Y-118068836D01*
X142932143Y-118026990D01*
X142932143Y-118000978D01*
X142960039Y-117959134D01*
X142988780Y-117937578D01*
X143061220Y-117910414D01*
X143276480Y-117910414D01*
X143410381Y-117943889D01*
X143461407Y-117938558D01*
X143497068Y-117901677D01*
X143500679Y-117850501D01*
X143470551Y-117808977D01*
X143446761Y-117798367D01*
X143303904Y-117762653D01*
X143300455Y-117763013D01*
X143285714Y-117760414D01*
X143047619Y-117760414D01*
X143047256Y-117760545D01*
X143046892Y-117760417D01*
X143021285Y-117765189D01*
X142926047Y-117800903D01*
X142923848Y-117802784D01*
X142907382Y-117811128D01*
X142859762Y-117846842D01*
X142859392Y-117847408D01*
X142842358Y-117865240D01*
X142794739Y-117936669D01*
X142792566Y-117945586D01*
X142786666Y-117952619D01*
X142782143Y-117978271D01*
X142782143Y-118049700D01*
X142080901Y-118049700D01*
X142080901Y-117079176D01*
X143545187Y-117079176D01*
X143554096Y-117129700D01*
X143593396Y-117162677D01*
X143619048Y-117167200D01*
X144380953Y-117167200D01*
X144429162Y-117149653D01*
X144454814Y-117105224D01*
X144450221Y-117079176D01*
X145545187Y-117079176D01*
X145554096Y-117129700D01*
X145593396Y-117162677D01*
X145619048Y-117167200D01*
X145925000Y-117167200D01*
X145925000Y-117377914D01*
X145942547Y-117426123D01*
X145986976Y-117451775D01*
X146037500Y-117442866D01*
X146070477Y-117403566D01*
X146075000Y-117377914D01*
X146075000Y-117167200D01*
X146380953Y-117167200D01*
X146429162Y-117149653D01*
X146454814Y-117105224D01*
X146445905Y-117054700D01*
X146406605Y-117021723D01*
X146380953Y-117017200D01*
X146075000Y-117017200D01*
X146075000Y-116806485D01*
X146057453Y-116758276D01*
X146013024Y-116732624D01*
X145962500Y-116741533D01*
X145929523Y-116780833D01*
X145925000Y-116806485D01*
X145925000Y-117017200D01*
X145619048Y-117017200D01*
X145570839Y-117034747D01*
X145545187Y-117079176D01*
X144450221Y-117079176D01*
X144445905Y-117054700D01*
X144406605Y-117021723D01*
X144380953Y-117017200D01*
X143619048Y-117017200D01*
X143570839Y-117034747D01*
X143545187Y-117079176D01*
X142080901Y-117079176D01*
X142080901Y-116625481D01*
X147825000Y-116625481D01*
X147825000Y-119975057D01*
G37*
G36*
X133911220Y-119145078D02*
G01*
X133939959Y-119166632D01*
X133967857Y-119208478D01*
X133967857Y-119270204D01*
X133939959Y-119312051D01*
X133911217Y-119333607D01*
X133838780Y-119360771D01*
X133546429Y-119360771D01*
X133546429Y-119117914D01*
X133838780Y-119117914D01*
X133911220Y-119145078D01*
G37*
G36*
X131390926Y-118297358D02*
G01*
X131416149Y-118316275D01*
X131444047Y-118358121D01*
X131444047Y-118419847D01*
X131416149Y-118461694D01*
X131387407Y-118483250D01*
X131314970Y-118510414D01*
X131022619Y-118510414D01*
X131022619Y-118267557D01*
X131271718Y-118267557D01*
X131390926Y-118297358D01*
G37*
G36*
X131339791Y-117937578D02*
G01*
X131368530Y-117959132D01*
X131396428Y-118000978D01*
X131396428Y-118026990D01*
X131368529Y-118068837D01*
X131339789Y-118090392D01*
X131267350Y-118117557D01*
X131022619Y-118117557D01*
X131022619Y-117910414D01*
X131267351Y-117910414D01*
X131339791Y-117937578D01*
G37*
G36*
X132260783Y-118296128D02*
G01*
X132015407Y-118296128D01*
X132138095Y-118020080D01*
X132260783Y-118296128D01*
G37*
G36*
X135225000Y-119975057D02*
G01*
X129480901Y-119975057D01*
X129480901Y-119779890D01*
X129588044Y-119779890D01*
X129596953Y-119830414D01*
X129636253Y-119863391D01*
X129661905Y-119867914D01*
X129757143Y-119867914D01*
X129760400Y-119866728D01*
X129775333Y-119865675D01*
X129918190Y-119829961D01*
X129919810Y-119828866D01*
X129921765Y-119828973D01*
X129945000Y-119817200D01*
X130040238Y-119745771D01*
X130043636Y-119740563D01*
X130049222Y-119737835D01*
X130063774Y-119716231D01*
X130111393Y-119609089D01*
X130111581Y-119606368D01*
X130113334Y-119604280D01*
X130117857Y-119578628D01*
X130117857Y-119257200D01*
X130396429Y-119257200D01*
X130399568Y-119265824D01*
X130398559Y-119274950D01*
X130409025Y-119298803D01*
X130456644Y-119370231D01*
X130457187Y-119370630D01*
X130474048Y-119388628D01*
X130521668Y-119424342D01*
X130524434Y-119425180D01*
X130540332Y-119434567D01*
X130635570Y-119470281D01*
X130638889Y-119470313D01*
X130648083Y-119473772D01*
X130832148Y-119508284D01*
X130911217Y-119537934D01*
X130939959Y-119559490D01*
X130967856Y-119601337D01*
X130967856Y-119627347D01*
X130939959Y-119669194D01*
X130911217Y-119690750D01*
X130838780Y-119717914D01*
X130623520Y-119717914D01*
X130489619Y-119684439D01*
X130438594Y-119689770D01*
X130402932Y-119726651D01*
X130399321Y-119777827D01*
X130429450Y-119819351D01*
X130453239Y-119829961D01*
X130596096Y-119865675D01*
X130599544Y-119865314D01*
X130614286Y-119867914D01*
X130852381Y-119867914D01*
X130852743Y-119867782D01*
X130853108Y-119867911D01*
X130878715Y-119863139D01*
X130973953Y-119827425D01*
X130976149Y-119825544D01*
X130992620Y-119817200D01*
X131040238Y-119781485D01*
X131040605Y-119780921D01*
X131057642Y-119763088D01*
X131105261Y-119691660D01*
X131107433Y-119682740D01*
X131113334Y-119675709D01*
X131117857Y-119650057D01*
X131117857Y-119578628D01*
X131114717Y-119570003D01*
X131115727Y-119560878D01*
X131105261Y-119537025D01*
X131057642Y-119465597D01*
X131057095Y-119465195D01*
X131040238Y-119447200D01*
X130992620Y-119411485D01*
X130989851Y-119410645D01*
X130973953Y-119401260D01*
X130878715Y-119365546D01*
X130875392Y-119365513D01*
X130866202Y-119362056D01*
X130682138Y-119327544D01*
X130603065Y-119297890D01*
X130574326Y-119276336D01*
X130546429Y-119234490D01*
X130546429Y-119208478D01*
X130574325Y-119166634D01*
X130603066Y-119145078D01*
X130675506Y-119117914D01*
X130890766Y-119117914D01*
X131024667Y-119151389D01*
X131075693Y-119146058D01*
X131111354Y-119109177D01*
X131114965Y-119058001D01*
X131094569Y-119029890D01*
X131254711Y-119029890D01*
X131263620Y-119080414D01*
X131302920Y-119113391D01*
X131328572Y-119117914D01*
X131539286Y-119117914D01*
X131539286Y-119792914D01*
X131556833Y-119841123D01*
X131601262Y-119866775D01*
X131651786Y-119857866D01*
X131684763Y-119818566D01*
X131689286Y-119792914D01*
X133396429Y-119792914D01*
X133413976Y-119841123D01*
X133458405Y-119866775D01*
X133508929Y-119857866D01*
X133541906Y-119818566D01*
X133546429Y-119792914D01*
X134396429Y-119792914D01*
X134413976Y-119841123D01*
X134458405Y-119866775D01*
X134508929Y-119857866D01*
X134541906Y-119818566D01*
X134546429Y-119792914D01*
X134546429Y-119475057D01*
X134967857Y-119475057D01*
X134967857Y-119792914D01*
X134985404Y-119841123D01*
X135029833Y-119866775D01*
X135080357Y-119857866D01*
X135113334Y-119818566D01*
X135117857Y-119792914D01*
X135117857Y-119042914D01*
X135100310Y-118994705D01*
X135055881Y-118969053D01*
X135005357Y-118977962D01*
X134972380Y-119017262D01*
X134967857Y-119042914D01*
X134967857Y-119325057D01*
X134546429Y-119325057D01*
X134546429Y-119042914D01*
X134528882Y-118994705D01*
X134484453Y-118969053D01*
X134433929Y-118977962D01*
X134400952Y-119017262D01*
X134396429Y-119042914D01*
X134396429Y-119792914D01*
X133546429Y-119792914D01*
X133546429Y-119510771D01*
X133852381Y-119510771D01*
X133852743Y-119510639D01*
X133853108Y-119510768D01*
X133878715Y-119505996D01*
X133973953Y-119470282D01*
X133976149Y-119468401D01*
X133992620Y-119460057D01*
X134040238Y-119424342D01*
X134040605Y-119423778D01*
X134057642Y-119405945D01*
X134105261Y-119334517D01*
X134107433Y-119325597D01*
X134113334Y-119318566D01*
X134117857Y-119292914D01*
X134117857Y-119185771D01*
X134114717Y-119177146D01*
X134115727Y-119168022D01*
X134105261Y-119144169D01*
X134057642Y-119072740D01*
X134057098Y-119072340D01*
X134040238Y-119054342D01*
X133992619Y-119018628D01*
X133989852Y-119017788D01*
X133973953Y-119008403D01*
X133878715Y-118972689D01*
X133878328Y-118972685D01*
X133878033Y-118972437D01*
X133852381Y-118967914D01*
X133471429Y-118967914D01*
X133453120Y-118974577D01*
X133433929Y-118977962D01*
X133429578Y-118983146D01*
X133423220Y-118985461D01*
X133413477Y-119002334D01*
X133400952Y-119017262D01*
X133399234Y-119027004D01*
X133397568Y-119029890D01*
X133398146Y-119033172D01*
X133396429Y-119042914D01*
X133396429Y-119792914D01*
X131689286Y-119792914D01*
X131689286Y-119494176D01*
X132159473Y-119494176D01*
X132168382Y-119544700D01*
X132207682Y-119577677D01*
X132233334Y-119582200D01*
X132995239Y-119582200D01*
X133043448Y-119564653D01*
X133069100Y-119520224D01*
X133060191Y-119469700D01*
X133020891Y-119436723D01*
X132995239Y-119432200D01*
X132233334Y-119432200D01*
X132185125Y-119449747D01*
X132159473Y-119494176D01*
X131689286Y-119494176D01*
X131689286Y-119117914D01*
X131900000Y-119117914D01*
X131948209Y-119100367D01*
X131973861Y-119055938D01*
X131964952Y-119005414D01*
X131925652Y-118972437D01*
X131900000Y-118967914D01*
X131328572Y-118967914D01*
X131280363Y-118985461D01*
X131254711Y-119029890D01*
X131094569Y-119029890D01*
X131084837Y-119016477D01*
X131061047Y-119005867D01*
X130918190Y-118970153D01*
X130914741Y-118970513D01*
X130900000Y-118967914D01*
X130661905Y-118967914D01*
X130661542Y-118968045D01*
X130661178Y-118967917D01*
X130635571Y-118972689D01*
X130540333Y-119008403D01*
X130538134Y-119010284D01*
X130521668Y-119018628D01*
X130474048Y-119054342D01*
X130473678Y-119054908D01*
X130456644Y-119072740D01*
X130409025Y-119144169D01*
X130406852Y-119153086D01*
X130400952Y-119160119D01*
X130396429Y-119185771D01*
X130396429Y-119257200D01*
X130117857Y-119257200D01*
X130117857Y-119042914D01*
X130100310Y-118994705D01*
X130055881Y-118969053D01*
X130005357Y-118977962D01*
X129972380Y-119017262D01*
X129967857Y-119042914D01*
X129967857Y-119562712D01*
X129934627Y-119637479D01*
X129867116Y-119688112D01*
X129747909Y-119717914D01*
X129661905Y-119717914D01*
X129613696Y-119735461D01*
X129588044Y-119779890D01*
X129480901Y-119779890D01*
X129480901Y-118585414D01*
X130872619Y-118585414D01*
X130879282Y-118603722D01*
X130882667Y-118622914D01*
X130887851Y-118627264D01*
X130890166Y-118633623D01*
X130907039Y-118643365D01*
X130921967Y-118655891D01*
X130931709Y-118657608D01*
X130934595Y-118659275D01*
X130937877Y-118658696D01*
X130947619Y-118660414D01*
X131328571Y-118660414D01*
X131328933Y-118660282D01*
X131329298Y-118660411D01*
X131354905Y-118655639D01*
X131450143Y-118619925D01*
X131452339Y-118618044D01*
X131468810Y-118609700D01*
X131473564Y-118606134D01*
X131732681Y-118606134D01*
X131762863Y-118647620D01*
X131812650Y-118659998D01*
X131858746Y-118637478D01*
X131873298Y-118615874D01*
X131948741Y-118446128D01*
X132327449Y-118446128D01*
X132402892Y-118615874D01*
X132438506Y-118652802D01*
X132489524Y-118658199D01*
X132532075Y-118629538D01*
X132546249Y-118580232D01*
X132539964Y-118554954D01*
X132214380Y-117822390D01*
X132588044Y-117822390D01*
X132596953Y-117872914D01*
X132636253Y-117905891D01*
X132661905Y-117910414D01*
X132872619Y-117910414D01*
X132872619Y-118585414D01*
X132890166Y-118633623D01*
X132934595Y-118659275D01*
X132985119Y-118650366D01*
X133018096Y-118611066D01*
X133022619Y-118585414D01*
X133022619Y-117910414D01*
X133233333Y-117910414D01*
X133281542Y-117892867D01*
X133307194Y-117848438D01*
X133302601Y-117822390D01*
X133349949Y-117822390D01*
X133358858Y-117872914D01*
X133398158Y-117905891D01*
X133423810Y-117910414D01*
X133634524Y-117910414D01*
X133634524Y-118585414D01*
X133652071Y-118633623D01*
X133696500Y-118659275D01*
X133747024Y-118650366D01*
X133780001Y-118611066D01*
X133784524Y-118585414D01*
X133784524Y-117910414D01*
X133995238Y-117910414D01*
X134043447Y-117892867D01*
X134069099Y-117848438D01*
X134060190Y-117797914D01*
X134020890Y-117764937D01*
X133995238Y-117760414D01*
X133423810Y-117760414D01*
X133375601Y-117777961D01*
X133349949Y-117822390D01*
X133302601Y-117822390D01*
X133298285Y-117797914D01*
X133258985Y-117764937D01*
X133233333Y-117760414D01*
X132661905Y-117760414D01*
X132613696Y-117777961D01*
X132588044Y-117822390D01*
X132214380Y-117822390D01*
X132206631Y-117804954D01*
X132192213Y-117790004D01*
X132179994Y-117773209D01*
X132174760Y-117771907D01*
X132171017Y-117768026D01*
X132150359Y-117765840D01*
X132130207Y-117760830D01*
X132125363Y-117763196D01*
X132119999Y-117762629D01*
X132102768Y-117774235D01*
X132084111Y-117783350D01*
X132079854Y-117789668D01*
X132077448Y-117791290D01*
X132076469Y-117794695D01*
X132069559Y-117804954D01*
X131736226Y-118554954D01*
X131732681Y-118606134D01*
X131473564Y-118606134D01*
X131516428Y-118573985D01*
X131516795Y-118573421D01*
X131533832Y-118555588D01*
X131581451Y-118484160D01*
X131583623Y-118475240D01*
X131589524Y-118468209D01*
X131594047Y-118442557D01*
X131594047Y-118335414D01*
X131590907Y-118326789D01*
X131591917Y-118317665D01*
X131581451Y-118293812D01*
X131533832Y-118222383D01*
X131533288Y-118221983D01*
X131516428Y-118203985D01*
X131475865Y-118173563D01*
X131486213Y-118162731D01*
X131533832Y-118091303D01*
X131536004Y-118082383D01*
X131541905Y-118075352D01*
X131546428Y-118049700D01*
X131546428Y-117978271D01*
X131543288Y-117969646D01*
X131544298Y-117960522D01*
X131533832Y-117936669D01*
X131486213Y-117865240D01*
X131485669Y-117864840D01*
X131468809Y-117846842D01*
X131421190Y-117811128D01*
X131418423Y-117810288D01*
X131402524Y-117800903D01*
X131307286Y-117765189D01*
X131306899Y-117765185D01*
X131306604Y-117764937D01*
X131280952Y-117760414D01*
X130947619Y-117760414D01*
X130929310Y-117767077D01*
X130910119Y-117770462D01*
X130905768Y-117775646D01*
X130899410Y-117777961D01*
X130889667Y-117794834D01*
X130877142Y-117809762D01*
X130875424Y-117819504D01*
X130873758Y-117822390D01*
X130874336Y-117825672D01*
X130872619Y-117835414D01*
X130872619Y-118585414D01*
X129480901Y-118585414D01*
X129480901Y-117079176D01*
X130945187Y-117079176D01*
X130954096Y-117129700D01*
X130993396Y-117162677D01*
X131019048Y-117167200D01*
X131780953Y-117167200D01*
X131829162Y-117149653D01*
X131854814Y-117105224D01*
X131850221Y-117079176D01*
X132945187Y-117079176D01*
X132954096Y-117129700D01*
X132993396Y-117162677D01*
X133019048Y-117167200D01*
X133325000Y-117167200D01*
X133325000Y-117377914D01*
X133342547Y-117426123D01*
X133386976Y-117451775D01*
X133437500Y-117442866D01*
X133470477Y-117403566D01*
X133475000Y-117377914D01*
X133475000Y-117167200D01*
X133780953Y-117167200D01*
X133829162Y-117149653D01*
X133854814Y-117105224D01*
X133845905Y-117054700D01*
X133806605Y-117021723D01*
X133780953Y-117017200D01*
X133475000Y-117017200D01*
X133475000Y-116806485D01*
X133457453Y-116758276D01*
X133413024Y-116732624D01*
X133362500Y-116741533D01*
X133329523Y-116780833D01*
X133325000Y-116806485D01*
X133325000Y-117017200D01*
X133019048Y-117017200D01*
X132970839Y-117034747D01*
X132945187Y-117079176D01*
X131850221Y-117079176D01*
X131845905Y-117054700D01*
X131806605Y-117021723D01*
X131780953Y-117017200D01*
X131019048Y-117017200D01*
X130970839Y-117034747D01*
X130945187Y-117079176D01*
X129480901Y-117079176D01*
X129480901Y-116625481D01*
X135225000Y-116625481D01*
X135225000Y-119975057D01*
G37*
G36*
X137726168Y-115353695D02*
G01*
X137450121Y-115476383D01*
X137450121Y-115231008D01*
X137726168Y-115353695D01*
G37*
G36*
X138092978Y-118487081D02*
G01*
X136978692Y-118487081D01*
X136978692Y-118007339D01*
X137086974Y-118007339D01*
X137095883Y-118057863D01*
X137135183Y-118090840D01*
X137160835Y-118095363D01*
X137835835Y-118095363D01*
X137835835Y-118306077D01*
X137853382Y-118354286D01*
X137897811Y-118379938D01*
X137948335Y-118371029D01*
X137981312Y-118331729D01*
X137985835Y-118306077D01*
X137985835Y-117734649D01*
X137968288Y-117686440D01*
X137923859Y-117660788D01*
X137873335Y-117669697D01*
X137840358Y-117708997D01*
X137835835Y-117734649D01*
X137835835Y-117945363D01*
X137160835Y-117945363D01*
X137112626Y-117962910D01*
X137086974Y-118007339D01*
X136978692Y-118007339D01*
X136978692Y-117544172D01*
X137085835Y-117544172D01*
X137103382Y-117592381D01*
X137147811Y-117618033D01*
X137198335Y-117609124D01*
X137231312Y-117569824D01*
X137235835Y-117544172D01*
X137235835Y-117142982D01*
X137910835Y-117142982D01*
X137959044Y-117125435D01*
X137984696Y-117081006D01*
X137975787Y-117030482D01*
X137936487Y-116997505D01*
X137910835Y-116992982D01*
X137160835Y-116992982D01*
X137142526Y-116999645D01*
X137123335Y-117003030D01*
X137118984Y-117008214D01*
X137112626Y-117010529D01*
X137102883Y-117027402D01*
X137090358Y-117042330D01*
X137088640Y-117052072D01*
X137086974Y-117054958D01*
X137087552Y-117058240D01*
X137085835Y-117067982D01*
X137085835Y-117544172D01*
X136978692Y-117544172D01*
X136978692Y-116401315D01*
X137085835Y-116401315D01*
X137085966Y-116401677D01*
X137085838Y-116402043D01*
X137090610Y-116427650D01*
X137126325Y-116522887D01*
X137128206Y-116525085D01*
X137136550Y-116541553D01*
X137172264Y-116589172D01*
X137172827Y-116589539D01*
X137190661Y-116606576D01*
X137262089Y-116654195D01*
X137271008Y-116656367D01*
X137278040Y-116662268D01*
X137303692Y-116666791D01*
X137910835Y-116666791D01*
X137959044Y-116649244D01*
X137984696Y-116604815D01*
X137975787Y-116554291D01*
X137936487Y-116521314D01*
X137910835Y-116516791D01*
X137326401Y-116516791D01*
X137284554Y-116488892D01*
X137262999Y-116460152D01*
X137235835Y-116387713D01*
X137235835Y-116224440D01*
X137262999Y-116152001D01*
X137284554Y-116123261D01*
X137326401Y-116095363D01*
X137910835Y-116095363D01*
X137959044Y-116077816D01*
X137984696Y-116033387D01*
X137975787Y-115982863D01*
X137936487Y-115949886D01*
X137910835Y-115945363D01*
X137303692Y-115945363D01*
X137295067Y-115948502D01*
X137285942Y-115947493D01*
X137262089Y-115957959D01*
X137190661Y-116005578D01*
X137190259Y-116006124D01*
X137172264Y-116022982D01*
X137136550Y-116070601D01*
X137135710Y-116073370D01*
X137126325Y-116089267D01*
X137090610Y-116184504D01*
X137090606Y-116184891D01*
X137090358Y-116185187D01*
X137085835Y-116210839D01*
X137085835Y-116401315D01*
X136978692Y-116401315D01*
X136978692Y-115028251D01*
X137086251Y-115028251D01*
X137108771Y-115074347D01*
X137130375Y-115088899D01*
X137300121Y-115164341D01*
X137300121Y-115543050D01*
X137130375Y-115618493D01*
X137093447Y-115654107D01*
X137088050Y-115705125D01*
X137116711Y-115747676D01*
X137166017Y-115761850D01*
X137191295Y-115755565D01*
X137941295Y-115422232D01*
X137956244Y-115407814D01*
X137973040Y-115395595D01*
X137974341Y-115390361D01*
X137978223Y-115386618D01*
X137980408Y-115365960D01*
X137985419Y-115345808D01*
X137983052Y-115340964D01*
X137983620Y-115335600D01*
X137972013Y-115318369D01*
X137962899Y-115299712D01*
X137956580Y-115295455D01*
X137954959Y-115293049D01*
X137951553Y-115292070D01*
X137941295Y-115285160D01*
X137191295Y-114951827D01*
X137140115Y-114948282D01*
X137098629Y-114978464D01*
X137086251Y-115028251D01*
X136978692Y-115028251D01*
X136978692Y-114293053D01*
X137086974Y-114293053D01*
X137095883Y-114343577D01*
X137135183Y-114376554D01*
X137160835Y-114381077D01*
X137478692Y-114381077D01*
X137478692Y-114639410D01*
X137496239Y-114687619D01*
X137540668Y-114713271D01*
X137591192Y-114704362D01*
X137624169Y-114665062D01*
X137628692Y-114639410D01*
X137628692Y-114381077D01*
X137835835Y-114381077D01*
X137835835Y-114782267D01*
X137853382Y-114830476D01*
X137897811Y-114856128D01*
X137948335Y-114847219D01*
X137981312Y-114807919D01*
X137985835Y-114782267D01*
X137985835Y-114306077D01*
X137979171Y-114287768D01*
X137975787Y-114268577D01*
X137970602Y-114264226D01*
X137968288Y-114257868D01*
X137951414Y-114248125D01*
X137936487Y-114235600D01*
X137926744Y-114233882D01*
X137923859Y-114232216D01*
X137920576Y-114232794D01*
X137910835Y-114231077D01*
X137160835Y-114231077D01*
X137112626Y-114248624D01*
X137086974Y-114293053D01*
X136978692Y-114293053D01*
X136978692Y-114123934D01*
X138092978Y-114123934D01*
X138092978Y-118487081D01*
G37*
X147931228Y-103791792D02*
X147331228Y-104058459D01*
X147331228Y-104058459D02*
X147931228Y-104325125D01*
G36*
X153558009Y-109095238D02*
G01*
X153155895Y-109229276D01*
X153155895Y-108961199D01*
X153558009Y-109095238D01*
G37*
G36*
X153578528Y-106689812D02*
G01*
X153655515Y-106728306D01*
X153685922Y-106758713D01*
X153720180Y-106827228D01*
X153720180Y-106887057D01*
X153685922Y-106955572D01*
X153655514Y-106985980D01*
X153578528Y-107024473D01*
X153404994Y-107067857D01*
X153185367Y-107067857D01*
X153011833Y-107024473D01*
X152934846Y-106985980D01*
X152904438Y-106955572D01*
X152870180Y-106887055D01*
X152870180Y-106827230D01*
X152904438Y-106758713D01*
X152934845Y-106728306D01*
X153011832Y-106689812D01*
X153185367Y-106646429D01*
X153404994Y-106646429D01*
X153578528Y-106689812D01*
G37*
G36*
X154013037Y-109646400D02*
G01*
X152577323Y-109646400D01*
X152577323Y-109439572D01*
X152720991Y-109439572D01*
X152745420Y-109484686D01*
X152793131Y-109503543D01*
X152818897Y-109499722D01*
X153818897Y-109166389D01*
X153820588Y-109165046D01*
X153822746Y-109164988D01*
X153840498Y-109149246D01*
X153859083Y-109134498D01*
X153859515Y-109132383D01*
X153861132Y-109130950D01*
X153864611Y-109107481D01*
X153869369Y-109084237D01*
X153868340Y-109082337D01*
X153868657Y-109080202D01*
X153856236Y-109059984D01*
X153844940Y-109039123D01*
X153842932Y-109038329D01*
X153841802Y-109036489D01*
X153818897Y-109024087D01*
X152818897Y-108690754D01*
X152767613Y-108692155D01*
X152729228Y-108726192D01*
X152721703Y-108776941D01*
X152748558Y-108820653D01*
X152771463Y-108833056D01*
X153005895Y-108911199D01*
X153005895Y-109279276D01*
X152771463Y-109357420D01*
X152731277Y-109389311D01*
X152720991Y-109439572D01*
X152577323Y-109439572D01*
X152577323Y-108415548D01*
X152721319Y-108415548D01*
X152730228Y-108466072D01*
X152769528Y-108499049D01*
X152795180Y-108503572D01*
X153318990Y-108503572D01*
X153323203Y-108502038D01*
X153327564Y-108503080D01*
X153352531Y-108495654D01*
X153447769Y-108448035D01*
X153455488Y-108439881D01*
X153465793Y-108435415D01*
X153481310Y-108414494D01*
X153528929Y-108319255D01*
X153529441Y-108314801D01*
X153532324Y-108311366D01*
X153536847Y-108285714D01*
X153536847Y-108142857D01*
X153535313Y-108138643D01*
X153536355Y-108134282D01*
X153528929Y-108109316D01*
X153481310Y-108014078D01*
X153473156Y-108006358D01*
X153470573Y-108000398D01*
X153481310Y-107985922D01*
X153528929Y-107890684D01*
X153529441Y-107886230D01*
X153532324Y-107882795D01*
X153536847Y-107857143D01*
X153536847Y-107714286D01*
X153535313Y-107710072D01*
X153536355Y-107705711D01*
X153528929Y-107680745D01*
X153504084Y-107631055D01*
X153510056Y-107628882D01*
X153535708Y-107584453D01*
X153526799Y-107533929D01*
X153487499Y-107500952D01*
X153461847Y-107496429D01*
X152795180Y-107496429D01*
X152746971Y-107513976D01*
X152721319Y-107558405D01*
X152730228Y-107608929D01*
X152769528Y-107641906D01*
X152795180Y-107646429D01*
X153335543Y-107646429D01*
X153352588Y-107663474D01*
X153386847Y-107731990D01*
X153386847Y-107839437D01*
X153358326Y-107896479D01*
X153301285Y-107925000D01*
X152795180Y-107925000D01*
X152746971Y-107942547D01*
X152721319Y-107986976D01*
X152730228Y-108037500D01*
X152769528Y-108070477D01*
X152795180Y-108075000D01*
X153301285Y-108075000D01*
X153358326Y-108103520D01*
X153386847Y-108160561D01*
X153386847Y-108268009D01*
X153358326Y-108325051D01*
X153301285Y-108353572D01*
X152795180Y-108353572D01*
X152746971Y-108371119D01*
X152721319Y-108415548D01*
X152577323Y-108415548D01*
X152577323Y-106904762D01*
X152720180Y-106904762D01*
X152721713Y-106908975D01*
X152720672Y-106913337D01*
X152728098Y-106938304D01*
X152775718Y-107033542D01*
X152776909Y-107034669D01*
X152789767Y-107053033D01*
X152837386Y-107100652D01*
X152838867Y-107101343D01*
X152856878Y-107114701D01*
X152952116Y-107162320D01*
X152955644Y-107162726D01*
X152967467Y-107167999D01*
X153157943Y-107215618D01*
X153161391Y-107215257D01*
X153176133Y-107217857D01*
X153414228Y-107217857D01*
X153417485Y-107216671D01*
X153432418Y-107215618D01*
X153622894Y-107167999D01*
X153625838Y-107166010D01*
X153638245Y-107162320D01*
X153733483Y-107114701D01*
X153734608Y-107113511D01*
X153752975Y-107100652D01*
X153800594Y-107053033D01*
X153801285Y-107051551D01*
X153814643Y-107033541D01*
X153862262Y-106938303D01*
X153862774Y-106933849D01*
X153865657Y-106930414D01*
X153870180Y-106904762D01*
X153870180Y-106809524D01*
X153868646Y-106805310D01*
X153869688Y-106800949D01*
X153862262Y-106775983D01*
X153814643Y-106680745D01*
X153813453Y-106679619D01*
X153800594Y-106661253D01*
X153752975Y-106613634D01*
X153751493Y-106612943D01*
X153733483Y-106599585D01*
X153638245Y-106551966D01*
X153634716Y-106551559D01*
X153622894Y-106546287D01*
X153432418Y-106498668D01*
X153428969Y-106499028D01*
X153414228Y-106496429D01*
X153176133Y-106496429D01*
X153172875Y-106497614D01*
X153157943Y-106498668D01*
X152967467Y-106546287D01*
X152964522Y-106548275D01*
X152952116Y-106551966D01*
X152856878Y-106599585D01*
X152855752Y-106600774D01*
X152837386Y-106613634D01*
X152789767Y-106661253D01*
X152789075Y-106662735D01*
X152775718Y-106680744D01*
X152728098Y-106775982D01*
X152727585Y-106780436D01*
X152724703Y-106783872D01*
X152720180Y-106809524D01*
X152720180Y-106904762D01*
X152577323Y-106904762D01*
X152577323Y-106000000D01*
X152720180Y-106000000D01*
X152721713Y-106004213D01*
X152720672Y-106008575D01*
X152728098Y-106033542D01*
X152775718Y-106128780D01*
X152776909Y-106129907D01*
X152789767Y-106148271D01*
X152837386Y-106195890D01*
X152838867Y-106196581D01*
X152856878Y-106209939D01*
X152952116Y-106257558D01*
X152956569Y-106258070D01*
X152960005Y-106260953D01*
X152985657Y-106265476D01*
X153223752Y-106265476D01*
X153227965Y-106263942D01*
X153232326Y-106264984D01*
X153257293Y-106257558D01*
X153352531Y-106209939D01*
X153353656Y-106208749D01*
X153372023Y-106195890D01*
X153419642Y-106148271D01*
X153420333Y-106146789D01*
X153433691Y-106128779D01*
X153481310Y-106033541D01*
X153481822Y-106029087D01*
X153484705Y-106025652D01*
X153489228Y-106000000D01*
X153489228Y-105761905D01*
X153487694Y-105757691D01*
X153488736Y-105753330D01*
X153481310Y-105728364D01*
X153471989Y-105709722D01*
X153720180Y-105734541D01*
X153720180Y-106142857D01*
X153737727Y-106191066D01*
X153782156Y-106216718D01*
X153832680Y-106207809D01*
X153865657Y-106168509D01*
X153870180Y-106142857D01*
X153870180Y-105666667D01*
X153864732Y-105651699D01*
X153863541Y-105635816D01*
X153856218Y-105628309D01*
X153852633Y-105618458D01*
X153838839Y-105610494D01*
X153827717Y-105599092D01*
X153810896Y-105594360D01*
X153808204Y-105592806D01*
X153806461Y-105593113D01*
X153802643Y-105592039D01*
X153326453Y-105544420D01*
X153325972Y-105544542D01*
X153325526Y-105544334D01*
X153301166Y-105550860D01*
X153276737Y-105557083D01*
X153276449Y-105557483D01*
X153275972Y-105557611D01*
X153261523Y-105578245D01*
X153246791Y-105598739D01*
X153246828Y-105599232D01*
X153246545Y-105599637D01*
X153248741Y-105624740D01*
X153250629Y-105649899D01*
X153250974Y-105650252D01*
X153251017Y-105650744D01*
X153265957Y-105672081D01*
X153304970Y-105711094D01*
X153339228Y-105779610D01*
X153339228Y-105982295D01*
X153304970Y-106050810D01*
X153274562Y-106081218D01*
X153206047Y-106115476D01*
X153003362Y-106115476D01*
X152934846Y-106081217D01*
X152904438Y-106050810D01*
X152870180Y-105982293D01*
X152870180Y-105779611D01*
X152904438Y-105711094D01*
X152943452Y-105672081D01*
X152965133Y-105625585D01*
X152951856Y-105576030D01*
X152909830Y-105546604D01*
X152858723Y-105551075D01*
X152837386Y-105566015D01*
X152789767Y-105613634D01*
X152789075Y-105615116D01*
X152775718Y-105633125D01*
X152728098Y-105728363D01*
X152727585Y-105732817D01*
X152724703Y-105736253D01*
X152720180Y-105761905D01*
X152720180Y-106000000D01*
X152577323Y-106000000D01*
X152577323Y-104866025D01*
X152720708Y-104866025D01*
X152743840Y-104911817D01*
X152765636Y-104926079D01*
X153765636Y-105354650D01*
X153774481Y-105355144D01*
X153782156Y-105359575D01*
X153799390Y-105356535D01*
X153816859Y-105357512D01*
X153823952Y-105352204D01*
X153832680Y-105350666D01*
X153843928Y-105337260D01*
X153857938Y-105326780D01*
X153859960Y-105318154D01*
X153865657Y-105311366D01*
X153870180Y-105285714D01*
X153870180Y-104619048D01*
X153852633Y-104570839D01*
X153808204Y-104545187D01*
X153757680Y-104554096D01*
X153724703Y-104593396D01*
X153720180Y-104619048D01*
X153720180Y-105171973D01*
X152824724Y-104788207D01*
X152773501Y-104785345D01*
X152732421Y-104816077D01*
X152720708Y-104866025D01*
X152577323Y-104866025D01*
X152577323Y-104402330D01*
X154013037Y-104402330D01*
X154013037Y-109646400D01*
G37*
G36*
X101346753Y-114051108D02*
G01*
X101371976Y-114070025D01*
X101399874Y-114111871D01*
X101399874Y-114173597D01*
X101371976Y-114215444D01*
X101343234Y-114237000D01*
X101270797Y-114264164D01*
X100978446Y-114264164D01*
X100978446Y-114021307D01*
X101227545Y-114021307D01*
X101346753Y-114051108D01*
G37*
G36*
X101295618Y-113691328D02*
G01*
X101324357Y-113712882D01*
X101352255Y-113754728D01*
X101352255Y-113780740D01*
X101324356Y-113822587D01*
X101295616Y-113844142D01*
X101223177Y-113871307D01*
X100978446Y-113871307D01*
X100978446Y-113664164D01*
X101223178Y-113664164D01*
X101295618Y-113691328D01*
G37*
G36*
X99581332Y-113691328D02*
G01*
X99610071Y-113712882D01*
X99637969Y-113754728D01*
X99637969Y-113816454D01*
X99610071Y-113858301D01*
X99581329Y-113879857D01*
X99508892Y-113907021D01*
X99216541Y-113907021D01*
X99216541Y-113664164D01*
X99508892Y-113664164D01*
X99581332Y-113691328D01*
G37*
G36*
X103418922Y-114521307D02*
G01*
X96054636Y-114521307D01*
X96054636Y-114196307D01*
X96161779Y-114196307D01*
X96164918Y-114204931D01*
X96163909Y-114214057D01*
X96174375Y-114237910D01*
X96221994Y-114309338D01*
X96222540Y-114309739D01*
X96239397Y-114327735D01*
X96287016Y-114363449D01*
X96289781Y-114364287D01*
X96305683Y-114373675D01*
X96400921Y-114409389D01*
X96401307Y-114409392D01*
X96401603Y-114409641D01*
X96427255Y-114414164D01*
X96617731Y-114414164D01*
X96618093Y-114414032D01*
X96618458Y-114414161D01*
X96644065Y-114409389D01*
X96739303Y-114373675D01*
X96741499Y-114371794D01*
X96757970Y-114363450D01*
X96805588Y-114327735D01*
X96805955Y-114327171D01*
X96822992Y-114309338D01*
X96870611Y-114237910D01*
X96872783Y-114228990D01*
X96878684Y-114221959D01*
X96883207Y-114196307D01*
X96883207Y-113803450D01*
X97161779Y-113803450D01*
X97164918Y-113812074D01*
X97163909Y-113821200D01*
X97174375Y-113845053D01*
X97221994Y-113916481D01*
X97222537Y-113916880D01*
X97239398Y-113934878D01*
X97287018Y-113970592D01*
X97289784Y-113971430D01*
X97305682Y-113980817D01*
X97400920Y-114016531D01*
X97404239Y-114016563D01*
X97413433Y-114020022D01*
X97597498Y-114054534D01*
X97676567Y-114084184D01*
X97705309Y-114105740D01*
X97733207Y-114147587D01*
X97733207Y-114173597D01*
X97705309Y-114215444D01*
X97676567Y-114237000D01*
X97604130Y-114264164D01*
X97388870Y-114264164D01*
X97254969Y-114230689D01*
X97203944Y-114236020D01*
X97168282Y-114272901D01*
X97164671Y-114324077D01*
X97194800Y-114365601D01*
X97218589Y-114376211D01*
X97361446Y-114411925D01*
X97364894Y-114411564D01*
X97379636Y-114414164D01*
X97617731Y-114414164D01*
X97618093Y-114414032D01*
X97618458Y-114414161D01*
X97644065Y-114409389D01*
X97739303Y-114373675D01*
X97741499Y-114371794D01*
X97757970Y-114363450D01*
X97790350Y-114339164D01*
X98161779Y-114339164D01*
X98168442Y-114357472D01*
X98171827Y-114376664D01*
X98177011Y-114381014D01*
X98179326Y-114387373D01*
X98196199Y-114397115D01*
X98211127Y-114409641D01*
X98220869Y-114411358D01*
X98223755Y-114413025D01*
X98227037Y-114412446D01*
X98236779Y-114414164D01*
X98712969Y-114414164D01*
X98761178Y-114396617D01*
X98786830Y-114352188D01*
X98784533Y-114339164D01*
X99066541Y-114339164D01*
X99084088Y-114387373D01*
X99128517Y-114413025D01*
X99179041Y-114404116D01*
X99212018Y-114364816D01*
X99216541Y-114339164D01*
X99216541Y-114057021D01*
X99347045Y-114057021D01*
X99658140Y-114390337D01*
X99703861Y-114413608D01*
X99753844Y-114402047D01*
X99784701Y-114361060D01*
X99783544Y-114339164D01*
X100828446Y-114339164D01*
X100835109Y-114357472D01*
X100838494Y-114376664D01*
X100843678Y-114381014D01*
X100845993Y-114387373D01*
X100862866Y-114397115D01*
X100877794Y-114409641D01*
X100887536Y-114411358D01*
X100890422Y-114413025D01*
X100893704Y-114412446D01*
X100903446Y-114414164D01*
X101284398Y-114414164D01*
X101284760Y-114414032D01*
X101285125Y-114414161D01*
X101310732Y-114409389D01*
X101405970Y-114373675D01*
X101408166Y-114371794D01*
X101424637Y-114363450D01*
X101472255Y-114327735D01*
X101472622Y-114327171D01*
X101489659Y-114309338D01*
X101537278Y-114237910D01*
X101539450Y-114228990D01*
X101545351Y-114221959D01*
X101549874Y-114196307D01*
X101549874Y-114089164D01*
X101546734Y-114080539D01*
X101547744Y-114071415D01*
X101537278Y-114047562D01*
X101489659Y-113976133D01*
X101489115Y-113975733D01*
X101472255Y-113957735D01*
X101431692Y-113927313D01*
X101442040Y-113916481D01*
X101489659Y-113845053D01*
X101491831Y-113836133D01*
X101497732Y-113829102D01*
X101502255Y-113803450D01*
X101502255Y-113732021D01*
X101499115Y-113723396D01*
X101500125Y-113714272D01*
X101489659Y-113690419D01*
X101442040Y-113618990D01*
X101441496Y-113618590D01*
X101424636Y-113600592D01*
X101392033Y-113576140D01*
X101686728Y-113576140D01*
X101695637Y-113626664D01*
X101734937Y-113659641D01*
X101760589Y-113664164D01*
X101971303Y-113664164D01*
X101971303Y-114339164D01*
X101988850Y-114387373D01*
X102033279Y-114413025D01*
X102083803Y-114404116D01*
X102116780Y-114364816D01*
X102121303Y-114339164D01*
X102590351Y-114339164D01*
X102607898Y-114387373D01*
X102652327Y-114413025D01*
X102702851Y-114404116D01*
X102735828Y-114364816D01*
X102740351Y-114339164D01*
X102740351Y-113811354D01*
X103177122Y-114384617D01*
X103178688Y-114385622D01*
X103179326Y-114387373D01*
X103200114Y-114399375D01*
X103220296Y-114412330D01*
X103222141Y-114412093D01*
X103223755Y-114413025D01*
X103247378Y-114408859D01*
X103271182Y-114405809D01*
X103272445Y-114404439D01*
X103274279Y-114404116D01*
X103289703Y-114385733D01*
X103305971Y-114368102D01*
X103306058Y-114366243D01*
X103307256Y-114364816D01*
X103311779Y-114339164D01*
X103311779Y-113589164D01*
X103294232Y-113540955D01*
X103249803Y-113515303D01*
X103199279Y-113524212D01*
X103166302Y-113563512D01*
X103161779Y-113589164D01*
X103161779Y-114116973D01*
X102725008Y-113543711D01*
X102723441Y-113542705D01*
X102722804Y-113540955D01*
X102702015Y-113528952D01*
X102681834Y-113515998D01*
X102679988Y-113516234D01*
X102678375Y-113515303D01*
X102654751Y-113519468D01*
X102630948Y-113522519D01*
X102629684Y-113523888D01*
X102627851Y-113524212D01*
X102612426Y-113542594D01*
X102596159Y-113560226D01*
X102596071Y-113562084D01*
X102594874Y-113563512D01*
X102590351Y-113589164D01*
X102590351Y-114339164D01*
X102121303Y-114339164D01*
X102121303Y-113664164D01*
X102332017Y-113664164D01*
X102380226Y-113646617D01*
X102405878Y-113602188D01*
X102396969Y-113551664D01*
X102357669Y-113518687D01*
X102332017Y-113514164D01*
X101760589Y-113514164D01*
X101712380Y-113531711D01*
X101686728Y-113576140D01*
X101392033Y-113576140D01*
X101377017Y-113564878D01*
X101374250Y-113564038D01*
X101358351Y-113554653D01*
X101263113Y-113518939D01*
X101262726Y-113518935D01*
X101262431Y-113518687D01*
X101236779Y-113514164D01*
X100903446Y-113514164D01*
X100885137Y-113520827D01*
X100865946Y-113524212D01*
X100861595Y-113529396D01*
X100855237Y-113531711D01*
X100845494Y-113548584D01*
X100832969Y-113563512D01*
X100831251Y-113573254D01*
X100829585Y-113576140D01*
X100830163Y-113579422D01*
X100828446Y-113589164D01*
X100828446Y-114339164D01*
X99783544Y-114339164D01*
X99781994Y-114309829D01*
X99767798Y-114287990D01*
X99547927Y-114052413D01*
X99548827Y-114052246D01*
X99644065Y-114016532D01*
X99646261Y-114014651D01*
X99662732Y-114006307D01*
X99710350Y-113970592D01*
X99710717Y-113970028D01*
X99727754Y-113952195D01*
X99775373Y-113880767D01*
X99777545Y-113871847D01*
X99783446Y-113864816D01*
X99787969Y-113839164D01*
X99787969Y-113732021D01*
X99784829Y-113723396D01*
X99785839Y-113714272D01*
X99775373Y-113690419D01*
X99727754Y-113618990D01*
X99727210Y-113618590D01*
X99710350Y-113600592D01*
X99662731Y-113564878D01*
X99659964Y-113564038D01*
X99644065Y-113554653D01*
X99548827Y-113518939D01*
X99548440Y-113518935D01*
X99548145Y-113518687D01*
X99522493Y-113514164D01*
X99141541Y-113514164D01*
X99123232Y-113520827D01*
X99104041Y-113524212D01*
X99099690Y-113529396D01*
X99093332Y-113531711D01*
X99083589Y-113548584D01*
X99071064Y-113563512D01*
X99069346Y-113573254D01*
X99067680Y-113576140D01*
X99068258Y-113579422D01*
X99066541Y-113589164D01*
X99066541Y-114339164D01*
X98784533Y-114339164D01*
X98777921Y-114301664D01*
X98738621Y-114268687D01*
X98712969Y-114264164D01*
X98311779Y-114264164D01*
X98311779Y-114021307D01*
X98570112Y-114021307D01*
X98618321Y-114003760D01*
X98643973Y-113959331D01*
X98635064Y-113908807D01*
X98595764Y-113875830D01*
X98570112Y-113871307D01*
X98311779Y-113871307D01*
X98311779Y-113664164D01*
X98712969Y-113664164D01*
X98761178Y-113646617D01*
X98786830Y-113602188D01*
X98777921Y-113551664D01*
X98738621Y-113518687D01*
X98712969Y-113514164D01*
X98236779Y-113514164D01*
X98218470Y-113520827D01*
X98199279Y-113524212D01*
X98194928Y-113529396D01*
X98188570Y-113531711D01*
X98178827Y-113548584D01*
X98166302Y-113563512D01*
X98164584Y-113573254D01*
X98162918Y-113576140D01*
X98163496Y-113579422D01*
X98161779Y-113589164D01*
X98161779Y-114339164D01*
X97790350Y-114339164D01*
X97805588Y-114327735D01*
X97805955Y-114327171D01*
X97822992Y-114309338D01*
X97870611Y-114237910D01*
X97872783Y-114228990D01*
X97878684Y-114221959D01*
X97883207Y-114196307D01*
X97883207Y-114124878D01*
X97880067Y-114116253D01*
X97881077Y-114107128D01*
X97870611Y-114083275D01*
X97822992Y-114011847D01*
X97822445Y-114011445D01*
X97805588Y-113993450D01*
X97757970Y-113957735D01*
X97755201Y-113956895D01*
X97739303Y-113947510D01*
X97644065Y-113911796D01*
X97640742Y-113911763D01*
X97631552Y-113908306D01*
X97447488Y-113873794D01*
X97368415Y-113844140D01*
X97339676Y-113822586D01*
X97311779Y-113780740D01*
X97311779Y-113754728D01*
X97339675Y-113712884D01*
X97368416Y-113691328D01*
X97440856Y-113664164D01*
X97656116Y-113664164D01*
X97790017Y-113697639D01*
X97841043Y-113692308D01*
X97876704Y-113655427D01*
X97880315Y-113604251D01*
X97850187Y-113562727D01*
X97826397Y-113552117D01*
X97683540Y-113516403D01*
X97680091Y-113516763D01*
X97665350Y-113514164D01*
X97427255Y-113514164D01*
X97426892Y-113514295D01*
X97426528Y-113514167D01*
X97400921Y-113518939D01*
X97305683Y-113554653D01*
X97303484Y-113556534D01*
X97287018Y-113564878D01*
X97239398Y-113600592D01*
X97239028Y-113601158D01*
X97221994Y-113618990D01*
X97174375Y-113690419D01*
X97172202Y-113699336D01*
X97166302Y-113706369D01*
X97161779Y-113732021D01*
X97161779Y-113803450D01*
X96883207Y-113803450D01*
X96883207Y-113589164D01*
X96865660Y-113540955D01*
X96821231Y-113515303D01*
X96770707Y-113524212D01*
X96737730Y-113563512D01*
X96733207Y-113589164D01*
X96733207Y-114173597D01*
X96705309Y-114215444D01*
X96676567Y-114237000D01*
X96604130Y-114264164D01*
X96440856Y-114264164D01*
X96368416Y-114236999D01*
X96339675Y-114215443D01*
X96311779Y-114173597D01*
X96311779Y-113589164D01*
X96294232Y-113540955D01*
X96249803Y-113515303D01*
X96199279Y-113524212D01*
X96166302Y-113563512D01*
X96161779Y-113589164D01*
X96161779Y-114196307D01*
X96054636Y-114196307D01*
X96054636Y-113407021D01*
X103418922Y-113407021D01*
X103418922Y-114521307D01*
G37*
D12*
X119659119Y-114675888D02*
X118742514Y-115754948D01*
X118742514Y-115754948D02*
X120135310Y-115500674D01*
X119885371Y-117734435D02*
X119313943Y-116744692D01*
X119599657Y-117239563D02*
X121331708Y-116239563D01*
X121331708Y-116239563D02*
X120989034Y-116217463D01*
X120989034Y-116217463D02*
X120728838Y-116147744D01*
X120728838Y-116147744D02*
X120551122Y-116030406D01*
X120478900Y-118381505D02*
X120444040Y-118511602D01*
X120444040Y-118511602D02*
X120313943Y-118476743D01*
X120313943Y-118476743D02*
X120348802Y-118346645D01*
X120348802Y-118346645D02*
X120478900Y-118381505D01*
X120478900Y-118381505D02*
X120313943Y-118476743D01*
X121313943Y-120208794D02*
X120742514Y-119219050D01*
X121028228Y-119713922D02*
X122760279Y-118713922D01*
X122760279Y-118713922D02*
X122417605Y-118691822D01*
X122417605Y-118691822D02*
X122157410Y-118622103D01*
X122157410Y-118622103D02*
X121979693Y-118504765D01*
D13*
X115003671Y-102193394D02*
X117601748Y-100693394D01*
X117601748Y-100693394D02*
X118173176Y-101683137D01*
X118173176Y-101683137D02*
X118192315Y-102002002D01*
X118192315Y-102002002D02*
X118140026Y-102197148D01*
X118140026Y-102197148D02*
X117964019Y-102463723D01*
X117964019Y-102463723D02*
X117592865Y-102678009D01*
X117592865Y-102678009D02*
X117274001Y-102697148D01*
X117274001Y-102697148D02*
X117078854Y-102644859D01*
X117078854Y-102644859D02*
X116812279Y-102468852D01*
X116812279Y-102468852D02*
X116240850Y-101479108D01*
X116503671Y-104791470D02*
X118235722Y-103791470D01*
X119101748Y-103291470D02*
X118906601Y-103239181D01*
X118906601Y-103239181D02*
X118854312Y-103434327D01*
X118854312Y-103434327D02*
X119049458Y-103486617D01*
X119049458Y-103486617D02*
X119101748Y-103291470D01*
X119101748Y-103291470D02*
X118854312Y-103434327D01*
X117984532Y-107070682D02*
X117717957Y-106894674D01*
X117717957Y-106894674D02*
X117432243Y-106399803D01*
X117432243Y-106399803D02*
X117413103Y-106080938D01*
X117413103Y-106080938D02*
X117465393Y-105885792D01*
X117465393Y-105885792D02*
X117641400Y-105619217D01*
X117641400Y-105619217D02*
X118383707Y-105190645D01*
X118383707Y-105190645D02*
X118702572Y-105171506D01*
X118702572Y-105171506D02*
X118897718Y-105223796D01*
X118897718Y-105223796D02*
X119164293Y-105399803D01*
X119164293Y-105399803D02*
X119450008Y-105894674D01*
X119450008Y-105894674D02*
X119469147Y-106213539D01*
X118717957Y-108626726D02*
X118698818Y-108307861D01*
X118698818Y-108307861D02*
X118751107Y-108112715D01*
X118751107Y-108112715D02*
X118927114Y-107846140D01*
X118927114Y-107846140D02*
X119669422Y-107417568D01*
X119669422Y-107417568D02*
X119988286Y-107398429D01*
X119988286Y-107398429D02*
X120183433Y-107450718D01*
X120183433Y-107450718D02*
X120450008Y-107626726D01*
X120450008Y-107626726D02*
X120664294Y-107997879D01*
X120664294Y-107997879D02*
X120683433Y-108316744D01*
X120683433Y-108316744D02*
X120631143Y-108511890D01*
X120631143Y-108511890D02*
X120455136Y-108778465D01*
X120455136Y-108778465D02*
X119712829Y-109207037D01*
X119712829Y-109207037D02*
X119393964Y-109226176D01*
X119393964Y-109226176D02*
X119198818Y-109173887D01*
X119198818Y-109173887D02*
X118932243Y-108997879D01*
X118932243Y-108997879D02*
X118717957Y-108626726D01*
X122458891Y-109106213D02*
X120355686Y-110320498D01*
X120355686Y-110320498D02*
X120179679Y-110587073D01*
X120179679Y-110587073D02*
X120127389Y-110782220D01*
X120127389Y-110782220D02*
X120146529Y-111101084D01*
X120146529Y-111101084D02*
X120432243Y-111595956D01*
X120432243Y-111595956D02*
X120698818Y-111771963D01*
X120698818Y-111771963D02*
X120893964Y-111824252D01*
X120893964Y-111824252D02*
X121212829Y-111805113D01*
X121212829Y-111805113D02*
X123316033Y-110590828D01*
X121432243Y-113328007D02*
X124030319Y-111828007D01*
X124030319Y-111828007D02*
X124601748Y-112817750D01*
X124601748Y-112817750D02*
X124620887Y-113136614D01*
X124620887Y-113136614D02*
X124568597Y-113331761D01*
X124568597Y-113331761D02*
X124392590Y-113598336D01*
X124392590Y-113598336D02*
X124021436Y-113812622D01*
X124021436Y-113812622D02*
X123702572Y-113831761D01*
X123702572Y-113831761D02*
X123507426Y-113779471D01*
X123507426Y-113779471D02*
X123240851Y-113603464D01*
X123240851Y-113603464D02*
X122669422Y-112613721D01*
X122984532Y-115730936D02*
X123075100Y-116173519D01*
X123075100Y-116173519D02*
X123432243Y-116792108D01*
X123432243Y-116792108D02*
X123698818Y-116968115D01*
X123698818Y-116968115D02*
X123893964Y-117020405D01*
X123893964Y-117020405D02*
X124212829Y-117001266D01*
X124212829Y-117001266D02*
X124460265Y-116858408D01*
X124460265Y-116858408D02*
X124636272Y-116591833D01*
X124636272Y-116591833D02*
X124688561Y-116396687D01*
X124688561Y-116396687D02*
X124669422Y-116077822D01*
X124669422Y-116077822D02*
X124507426Y-115511522D01*
X124507426Y-115511522D02*
X124488286Y-115192658D01*
X124488286Y-115192658D02*
X124540576Y-114997511D01*
X124540576Y-114997511D02*
X124716583Y-114730936D01*
X124716583Y-114730936D02*
X124964019Y-114588079D01*
X124964019Y-114588079D02*
X125282883Y-114568940D01*
X125282883Y-114568940D02*
X125478030Y-114621229D01*
X125478030Y-114621229D02*
X125744605Y-114797237D01*
X125744605Y-114797237D02*
X126101748Y-115415826D01*
X126101748Y-115415826D02*
X126192315Y-115858408D01*
D14*
%TO.C,JP1*%
X95900000Y-113700000D02*
X95900000Y-114300000D01*
X95200000Y-115000000D02*
X93800000Y-115000000D01*
X93800000Y-113000000D02*
X95200000Y-113000000D01*
X93100000Y-114300000D02*
X93100000Y-113700000D01*
X95200000Y-115000000D02*
G75*
G03*
X95900000Y-114300000I1J699999D01*
G01*
X95900000Y-113700000D02*
G75*
G03*
X95200000Y-113000000I-699999J1D01*
G01*
X93100000Y-114300000D02*
G75*
G03*
X93800000Y-115000000I700000J0D01*
G01*
X93800000Y-113000000D02*
G75*
G03*
X93100000Y-113700000I0J-700000D01*
G01*
%TO.C,G\u002A\u002A\u002A*%
G36*
X100433398Y-102655263D02*
G01*
X100398496Y-102715565D01*
X100355665Y-102789609D01*
X100307502Y-102872903D01*
X100256604Y-102960956D01*
X100205568Y-103049274D01*
X100156991Y-103133366D01*
X100152207Y-103141650D01*
X100088856Y-103249918D01*
X100034734Y-103339345D01*
X99989803Y-103409994D01*
X99954020Y-103461929D01*
X99927347Y-103495212D01*
X99927138Y-103495438D01*
X99852706Y-103564441D01*
X99761752Y-103630332D01*
X99658797Y-103690882D01*
X99548362Y-103743861D01*
X99434966Y-103787041D01*
X99323132Y-103818191D01*
X99244350Y-103832146D01*
X99140591Y-103837991D01*
X99045178Y-103828555D01*
X98959937Y-103804560D01*
X98886694Y-103766724D01*
X98827276Y-103715767D01*
X98783508Y-103652409D01*
X98782342Y-103650096D01*
X98761119Y-103587349D01*
X98756260Y-103521337D01*
X98768265Y-103459456D01*
X98769272Y-103456722D01*
X98776822Y-103441473D01*
X98793911Y-103409852D01*
X98819504Y-103363691D01*
X98852564Y-103304824D01*
X98892056Y-103235085D01*
X98936944Y-103156308D01*
X98986191Y-103070326D01*
X99038763Y-102978971D01*
X99059202Y-102943564D01*
X99336771Y-102463158D01*
X99940704Y-102463158D01*
X100544637Y-102463158D01*
X100433398Y-102655263D01*
G37*
G36*
X104040175Y-100026318D02*
G01*
X104434076Y-100026325D01*
X104807980Y-100026338D01*
X105162422Y-100026361D01*
X105497934Y-100026393D01*
X105815048Y-100026438D01*
X106114297Y-100026496D01*
X106396215Y-100026571D01*
X106661334Y-100026662D01*
X106910187Y-100026772D01*
X107143306Y-100026903D01*
X107361225Y-100027057D01*
X107564476Y-100027235D01*
X107753592Y-100027439D01*
X107929106Y-100027671D01*
X108091550Y-100027933D01*
X108241458Y-100028226D01*
X108379362Y-100028552D01*
X108505796Y-100028912D01*
X108621291Y-100029310D01*
X108726380Y-100029745D01*
X108821598Y-100030221D01*
X108907475Y-100030739D01*
X108984545Y-100031300D01*
X109053342Y-100031906D01*
X109114396Y-100032560D01*
X109168243Y-100033262D01*
X109215413Y-100034015D01*
X109256441Y-100034820D01*
X109291858Y-100035680D01*
X109322198Y-100036595D01*
X109347994Y-100037568D01*
X109369777Y-100038600D01*
X109388082Y-100039693D01*
X109403441Y-100040849D01*
X109416386Y-100042070D01*
X109427450Y-100043357D01*
X109437167Y-100044712D01*
X109441810Y-100045436D01*
X109679664Y-100093609D01*
X109906908Y-100159964D01*
X110123536Y-100244500D01*
X110329541Y-100347213D01*
X110524918Y-100468100D01*
X110709662Y-100607158D01*
X110883767Y-100764385D01*
X110897808Y-100778320D01*
X111007857Y-100895356D01*
X111111798Y-101019523D01*
X111203699Y-101143650D01*
X111220500Y-101168421D01*
X111230217Y-101184217D01*
X111250065Y-101217598D01*
X111279662Y-101267904D01*
X111318630Y-101334478D01*
X111366586Y-101416659D01*
X111423152Y-101513790D01*
X111487946Y-101625211D01*
X111560588Y-101750264D01*
X111640699Y-101888290D01*
X111727896Y-102038629D01*
X111821801Y-102200623D01*
X111922032Y-102373614D01*
X112028209Y-102556942D01*
X112139952Y-102749948D01*
X112256881Y-102951974D01*
X112378615Y-103162360D01*
X112504773Y-103380449D01*
X112634976Y-103605580D01*
X112768843Y-103837096D01*
X112905993Y-104074337D01*
X113046046Y-104316644D01*
X113188622Y-104563360D01*
X113333341Y-104813823D01*
X113479821Y-105067377D01*
X113627683Y-105323362D01*
X113776546Y-105581119D01*
X113926030Y-105839990D01*
X114075754Y-106099315D01*
X114225338Y-106358435D01*
X114374402Y-106616693D01*
X114522566Y-106873428D01*
X114669448Y-107127982D01*
X114814668Y-107379697D01*
X114957847Y-107627913D01*
X115098603Y-107871972D01*
X115236557Y-108111214D01*
X115371327Y-108344982D01*
X115502534Y-108572615D01*
X115629797Y-108793455D01*
X115752736Y-109006844D01*
X115870970Y-109212122D01*
X115984119Y-109408631D01*
X116091803Y-109595711D01*
X116193641Y-109772704D01*
X116289253Y-109938952D01*
X116378258Y-110093794D01*
X116460276Y-110236573D01*
X116534927Y-110366629D01*
X116601830Y-110483304D01*
X116660605Y-110585939D01*
X116710871Y-110673874D01*
X116752249Y-110746452D01*
X116784357Y-110803013D01*
X116806815Y-110842898D01*
X116819244Y-110865449D01*
X116820800Y-110868421D01*
X116914422Y-111073324D01*
X116989132Y-111283744D01*
X117045828Y-111502488D01*
X117075450Y-111663158D01*
X117084266Y-111737679D01*
X117090510Y-111827889D01*
X117094189Y-111928581D01*
X117095308Y-112034550D01*
X117093875Y-112140589D01*
X117089893Y-112241491D01*
X117083371Y-112332052D01*
X117074595Y-112405263D01*
X117030365Y-112630247D01*
X116968736Y-112845259D01*
X116888722Y-113053517D01*
X116850782Y-113136842D01*
X116841728Y-113153929D01*
X116822475Y-113188649D01*
X116793366Y-113240410D01*
X116754740Y-113308618D01*
X116706940Y-113392680D01*
X116650306Y-113492002D01*
X116585180Y-113605991D01*
X116511901Y-113734054D01*
X116430812Y-113875596D01*
X116342253Y-114030025D01*
X116246565Y-114196746D01*
X116144090Y-114375168D01*
X116035168Y-114564696D01*
X115920140Y-114764736D01*
X115799348Y-114974697D01*
X115673132Y-115193983D01*
X115541833Y-115422001D01*
X115405793Y-115658159D01*
X115265352Y-115901862D01*
X115120852Y-116152518D01*
X114972633Y-116409532D01*
X114821037Y-116672312D01*
X114666404Y-116940264D01*
X114509076Y-117212795D01*
X114390335Y-117418421D01*
X111987508Y-121578947D01*
X111726673Y-121578947D01*
X111655059Y-121578765D01*
X111590958Y-121578253D01*
X111537203Y-121577462D01*
X111496626Y-121576443D01*
X111472061Y-121575248D01*
X111465838Y-121574223D01*
X111471050Y-121564891D01*
X111486468Y-121537895D01*
X111511767Y-121493799D01*
X111546618Y-121433171D01*
X111590697Y-121356576D01*
X111643676Y-121264580D01*
X111705228Y-121157749D01*
X111775027Y-121036650D01*
X111852747Y-120901847D01*
X111938061Y-120753908D01*
X112030643Y-120593397D01*
X112130165Y-120420882D01*
X112236302Y-120236927D01*
X112348726Y-120042100D01*
X112467112Y-119836965D01*
X112591132Y-119622090D01*
X112720460Y-119398039D01*
X112854770Y-119165379D01*
X112993734Y-118924677D01*
X113137027Y-118676497D01*
X113284322Y-118421406D01*
X113435293Y-118159969D01*
X113589612Y-117892754D01*
X113746953Y-117620326D01*
X113906990Y-117343250D01*
X113921020Y-117318960D01*
X114081897Y-117040397D01*
X114240344Y-116765954D01*
X114396024Y-116496218D01*
X114548598Y-116231777D01*
X114697730Y-115973218D01*
X114843080Y-115721129D01*
X114984312Y-115476098D01*
X115121088Y-115238711D01*
X115253070Y-115009558D01*
X115379919Y-114789224D01*
X115501299Y-114578298D01*
X115616872Y-114377368D01*
X115726299Y-114187020D01*
X115829243Y-114007843D01*
X115925366Y-113840424D01*
X116014331Y-113685350D01*
X116095799Y-113543210D01*
X116169433Y-113414590D01*
X116234896Y-113300078D01*
X116291848Y-113200263D01*
X116339953Y-113115731D01*
X116378873Y-113047069D01*
X116408269Y-112994866D01*
X116427805Y-112959710D01*
X116437142Y-112942187D01*
X116437182Y-112942105D01*
X116517404Y-112752074D01*
X116577936Y-112556191D01*
X116618791Y-112356039D01*
X116639983Y-112153201D01*
X116641526Y-111949258D01*
X116623434Y-111745794D01*
X116585720Y-111544392D01*
X116528399Y-111346634D01*
X116451484Y-111154102D01*
X116420983Y-111090335D01*
X116411777Y-111073318D01*
X116392436Y-111038782D01*
X116363342Y-110987387D01*
X116324874Y-110919791D01*
X116277412Y-110836651D01*
X116221337Y-110738628D01*
X116157027Y-110626378D01*
X116084864Y-110500560D01*
X116005227Y-110361833D01*
X115918496Y-110210855D01*
X115825051Y-110048284D01*
X115725273Y-109874779D01*
X115619541Y-109690998D01*
X115508235Y-109497600D01*
X115391735Y-109295243D01*
X115270421Y-109084584D01*
X115144674Y-108866284D01*
X115014873Y-108640999D01*
X114881398Y-108409389D01*
X114744629Y-108172112D01*
X114604947Y-107929825D01*
X114462731Y-107683189D01*
X114318361Y-107432860D01*
X114172218Y-107179497D01*
X114024680Y-106923759D01*
X113876129Y-106666304D01*
X113726945Y-106407791D01*
X113577507Y-106148877D01*
X113428195Y-105890221D01*
X113279389Y-105632482D01*
X113131470Y-105376318D01*
X112984817Y-105122387D01*
X112839810Y-104871347D01*
X112696830Y-104623858D01*
X112556256Y-104380577D01*
X112418468Y-104142163D01*
X112283847Y-103909273D01*
X112152772Y-103682568D01*
X112025623Y-103462704D01*
X111902781Y-103250341D01*
X111784626Y-103046136D01*
X111671536Y-102850748D01*
X111563894Y-102664836D01*
X111462077Y-102489057D01*
X111366467Y-102324071D01*
X111277443Y-102170535D01*
X111195386Y-102029108D01*
X111120675Y-101900448D01*
X111053691Y-101785214D01*
X110994813Y-101684064D01*
X110944422Y-101597656D01*
X110902897Y-101526649D01*
X110870618Y-101471701D01*
X110847966Y-101433471D01*
X110835321Y-101412616D01*
X110833449Y-101409719D01*
X110729295Y-101270339D01*
X110610636Y-101136016D01*
X110482678Y-101012235D01*
X110361887Y-100912885D01*
X110184251Y-100791624D01*
X109999701Y-100690230D01*
X109807912Y-100608578D01*
X109608560Y-100546545D01*
X109401320Y-100504008D01*
X109232261Y-100484145D01*
X109213070Y-100483219D01*
X109178917Y-100482346D01*
X109129551Y-100481527D01*
X109064723Y-100480761D01*
X108984182Y-100480047D01*
X108887678Y-100479386D01*
X108774959Y-100478776D01*
X108645776Y-100478218D01*
X108499878Y-100477712D01*
X108337015Y-100477256D01*
X108156935Y-100476851D01*
X107959389Y-100476496D01*
X107744126Y-100476191D01*
X107510896Y-100475935D01*
X107259447Y-100475729D01*
X106989531Y-100475571D01*
X106700895Y-100475462D01*
X106393290Y-100475401D01*
X106066465Y-100475388D01*
X105720169Y-100475422D01*
X105354153Y-100475504D01*
X104968165Y-100475632D01*
X104561956Y-100475807D01*
X104135274Y-100476028D01*
X103687870Y-100476295D01*
X103525705Y-100476399D01*
X97960241Y-100480054D01*
X97844403Y-100502068D01*
X97698294Y-100533034D01*
X97566784Y-100568185D01*
X97443521Y-100609568D01*
X97322152Y-100659232D01*
X97244154Y-100695521D01*
X97073803Y-100789217D01*
X96910052Y-100901196D01*
X96755539Y-101029067D01*
X96612902Y-101170437D01*
X96484778Y-101322913D01*
X96373804Y-101484102D01*
X96372493Y-101486233D01*
X96358307Y-101509881D01*
X96334766Y-101549798D01*
X96303020Y-101604008D01*
X96264222Y-101670532D01*
X96219521Y-101747393D01*
X96170067Y-101832614D01*
X96117013Y-101924218D01*
X96061507Y-102020228D01*
X96030646Y-102073684D01*
X95872274Y-102348134D01*
X95714378Y-102621739D01*
X95557309Y-102893892D01*
X95401420Y-103163982D01*
X95247062Y-103431401D01*
X95094587Y-103695539D01*
X94944346Y-103955788D01*
X94796693Y-104211538D01*
X94651978Y-104462181D01*
X94510553Y-104707107D01*
X94372771Y-104945707D01*
X94238983Y-105177372D01*
X94109541Y-105401492D01*
X93984797Y-105617460D01*
X93865103Y-105824665D01*
X93750810Y-106022499D01*
X93642271Y-106210352D01*
X93539837Y-106387616D01*
X93443861Y-106553680D01*
X93354693Y-106707937D01*
X93272687Y-106849777D01*
X93198193Y-106978592D01*
X93131564Y-107093770D01*
X93073152Y-107194705D01*
X93023308Y-107280787D01*
X92982384Y-107351405D01*
X92950733Y-107405953D01*
X92928705Y-107443820D01*
X92916653Y-107464397D01*
X92914399Y-107468132D01*
X92910956Y-107470546D01*
X92908119Y-107465669D01*
X92905841Y-107451885D01*
X92904072Y-107427579D01*
X92902766Y-107391135D01*
X92901872Y-107340940D01*
X92901343Y-107275377D01*
X92901131Y-107192832D01*
X92901186Y-107091689D01*
X92901305Y-107031289D01*
X92902361Y-106573684D01*
X94430886Y-103929665D01*
X94557837Y-103710105D01*
X94682428Y-103494701D01*
X94804222Y-103284205D01*
X94922782Y-103079370D01*
X95037671Y-102880948D01*
X95148454Y-102689693D01*
X95254692Y-102506355D01*
X95355950Y-102331689D01*
X95451790Y-102166446D01*
X95541775Y-102011378D01*
X95625470Y-101867240D01*
X95702436Y-101734782D01*
X95772238Y-101614758D01*
X95834439Y-101507919D01*
X95888601Y-101415020D01*
X95934288Y-101336811D01*
X95971064Y-101274046D01*
X95998491Y-101227476D01*
X96016132Y-101197856D01*
X96022456Y-101187560D01*
X96143877Y-101016703D01*
X96283064Y-100853245D01*
X96437251Y-100699896D01*
X96603673Y-100559367D01*
X96779563Y-100434368D01*
X96812397Y-100413488D01*
X97012323Y-100300979D01*
X97223113Y-100206199D01*
X97443643Y-100129569D01*
X97672788Y-100071509D01*
X97782486Y-100050866D01*
X97928649Y-100026316D01*
X103625747Y-100026316D01*
X104040175Y-100026318D01*
G37*
G36*
X99624088Y-101036842D02*
G01*
X103120274Y-101036842D01*
X103496406Y-101036844D01*
X103852058Y-101036853D01*
X104187812Y-101036870D01*
X104504250Y-101036898D01*
X104801952Y-101036939D01*
X105081501Y-101036996D01*
X105343479Y-101037070D01*
X105588467Y-101037165D01*
X105817046Y-101037282D01*
X106029798Y-101037423D01*
X106227305Y-101037592D01*
X106410148Y-101037790D01*
X106578909Y-101038020D01*
X106734170Y-101038284D01*
X106876512Y-101038584D01*
X107006517Y-101038923D01*
X107124767Y-101039302D01*
X107231842Y-101039725D01*
X107328325Y-101040193D01*
X107414797Y-101040710D01*
X107491840Y-101041276D01*
X107560036Y-101041895D01*
X107619966Y-101042569D01*
X107672211Y-101043300D01*
X107717354Y-101044090D01*
X107755975Y-101044942D01*
X107788657Y-101045858D01*
X107815982Y-101046840D01*
X107838530Y-101047892D01*
X107856883Y-101049014D01*
X107871623Y-101050209D01*
X107883332Y-101051480D01*
X107892592Y-101052829D01*
X107899983Y-101054258D01*
X107906087Y-101055770D01*
X107906468Y-101055875D01*
X108027022Y-101099638D01*
X108136473Y-101159813D01*
X108233645Y-101234595D01*
X108317361Y-101322182D01*
X108386445Y-101420772D01*
X108439720Y-101528561D01*
X108476012Y-101643746D01*
X108494143Y-101764524D01*
X108492937Y-101889092D01*
X108486036Y-101944273D01*
X108477708Y-101989223D01*
X108466972Y-102032105D01*
X108452566Y-102075757D01*
X108433229Y-102123016D01*
X108407701Y-102176719D01*
X108374720Y-102239702D01*
X108333025Y-102314803D01*
X108281355Y-102404859D01*
X108281121Y-102405263D01*
X108265978Y-102431426D01*
X108240689Y-102475166D01*
X108205634Y-102535824D01*
X108161194Y-102612742D01*
X108107748Y-102705262D01*
X108045677Y-102812725D01*
X107975361Y-102934473D01*
X107897180Y-103069849D01*
X107811514Y-103218193D01*
X107718743Y-103378847D01*
X107619247Y-103551153D01*
X107513406Y-103734453D01*
X107401601Y-103928088D01*
X107284212Y-104131400D01*
X107161618Y-104343732D01*
X107034200Y-104564424D01*
X106902338Y-104792818D01*
X106766411Y-105028256D01*
X106626801Y-105270079D01*
X106483887Y-105517630D01*
X106338050Y-105770250D01*
X106189668Y-106027281D01*
X106039124Y-106288065D01*
X105995775Y-106363158D01*
X105845388Y-106623626D01*
X105697341Y-106879955D01*
X105551998Y-107131514D01*
X105409726Y-107377674D01*
X105270889Y-107617803D01*
X105135854Y-107851271D01*
X105004986Y-108077449D01*
X104878650Y-108295706D01*
X104757213Y-108505411D01*
X104641039Y-108705935D01*
X104530494Y-108896646D01*
X104425945Y-109076916D01*
X104327755Y-109246113D01*
X104236292Y-109403608D01*
X104151921Y-109548769D01*
X104075006Y-109680968D01*
X104005914Y-109799573D01*
X103945011Y-109903954D01*
X103892661Y-109993481D01*
X103849231Y-110067524D01*
X103815086Y-110125452D01*
X103790591Y-110166635D01*
X103776113Y-110190444D01*
X103773358Y-110194737D01*
X103640201Y-110375456D01*
X103492931Y-110540845D01*
X103332434Y-110690353D01*
X103159597Y-110823427D01*
X102975307Y-110939516D01*
X102780450Y-111038069D01*
X102575913Y-111118533D01*
X102362584Y-111180357D01*
X102141348Y-111222990D01*
X102114594Y-111226751D01*
X102103119Y-111227985D01*
X102087080Y-111229151D01*
X102065908Y-111230251D01*
X102039037Y-111231288D01*
X102005898Y-111232263D01*
X101965926Y-111233177D01*
X101918552Y-111234034D01*
X101863209Y-111234834D01*
X101799329Y-111235579D01*
X101726346Y-111236272D01*
X101643691Y-111236914D01*
X101550798Y-111237507D01*
X101447099Y-111238053D01*
X101332027Y-111238553D01*
X101205014Y-111239010D01*
X101065493Y-111239425D01*
X100912896Y-111239801D01*
X100746657Y-111240138D01*
X100566208Y-111240439D01*
X100370981Y-111240707D01*
X100160409Y-111240941D01*
X99933925Y-111241145D01*
X99690961Y-111241321D01*
X99430950Y-111241469D01*
X99153325Y-111241593D01*
X98857518Y-111241693D01*
X98542961Y-111241772D01*
X98209088Y-111241831D01*
X97855332Y-111241872D01*
X97481124Y-111241898D01*
X97452135Y-111241900D01*
X92900249Y-111242105D01*
X92900449Y-109923684D01*
X92900648Y-108605263D01*
X94040833Y-106631579D01*
X94161453Y-106422775D01*
X94285869Y-106207383D01*
X94413119Y-105987070D01*
X94542241Y-105763502D01*
X94672272Y-105538346D01*
X94700046Y-105490251D01*
X95639768Y-105490251D01*
X95640769Y-105547189D01*
X95659101Y-105597247D01*
X95659607Y-105598084D01*
X95687802Y-105629079D01*
X95727392Y-105653563D01*
X95734972Y-105656711D01*
X95743461Y-105659516D01*
X95754036Y-105661995D01*
X95767878Y-105664163D01*
X95786164Y-105666039D01*
X95810075Y-105667638D01*
X95840789Y-105668977D01*
X95879485Y-105670073D01*
X95927343Y-105670942D01*
X95985541Y-105671602D01*
X96055259Y-105672067D01*
X96137675Y-105672357D01*
X96233969Y-105672486D01*
X96345319Y-105672471D01*
X96472906Y-105672330D01*
X96617907Y-105672078D01*
X96781502Y-105671733D01*
X96964871Y-105671311D01*
X96982894Y-105671268D01*
X98191916Y-105668421D01*
X98249834Y-105643875D01*
X98327007Y-105603725D01*
X98862394Y-105603725D01*
X98871575Y-105634421D01*
X98884308Y-105650155D01*
X98920733Y-105671891D01*
X98975215Y-105686572D01*
X99045812Y-105693751D01*
X99076493Y-105694418D01*
X99175719Y-105689665D01*
X99261376Y-105673666D01*
X99336557Y-105644665D01*
X99404354Y-105600908D01*
X99467859Y-105540639D01*
X99530165Y-105462103D01*
X99558165Y-105421053D01*
X99613135Y-105331541D01*
X99652406Y-105254045D01*
X99676556Y-105187221D01*
X99686165Y-105129723D01*
X99686374Y-105122987D01*
X99685882Y-105086839D01*
X99681487Y-105064619D01*
X99670781Y-105049253D01*
X99657495Y-105038223D01*
X99644404Y-105029548D01*
X99629461Y-105023440D01*
X99608910Y-105019454D01*
X99578996Y-105017148D01*
X99535963Y-105016075D01*
X99476057Y-105015791D01*
X99467942Y-105015789D01*
X99405781Y-105015996D01*
X99360254Y-105016994D01*
X99326935Y-105019353D01*
X99301397Y-105023642D01*
X99279214Y-105030429D01*
X99255961Y-105040283D01*
X99247769Y-105044084D01*
X99208043Y-105064544D01*
X99169916Y-105087166D01*
X99149992Y-105100878D01*
X99113465Y-105134961D01*
X99071640Y-105184112D01*
X99027379Y-105243990D01*
X98983545Y-105310254D01*
X98942997Y-105378564D01*
X98908600Y-105444578D01*
X98883213Y-105503956D01*
X98881958Y-105507441D01*
X98865873Y-105562453D01*
X98862394Y-105603725D01*
X98327007Y-105603725D01*
X98364981Y-105583969D01*
X98467736Y-105507059D01*
X98503382Y-105473544D01*
X98561358Y-105407458D01*
X98605052Y-105340469D01*
X98634132Y-105274700D01*
X98648266Y-105212272D01*
X98647121Y-105155308D01*
X98630366Y-105105931D01*
X98597666Y-105066263D01*
X98570055Y-105047900D01*
X98563433Y-105044577D01*
X98556166Y-105041614D01*
X98547072Y-105038990D01*
X98534970Y-105036684D01*
X98518679Y-105034677D01*
X98497017Y-105032947D01*
X98468805Y-105031474D01*
X98432861Y-105030237D01*
X98388003Y-105029215D01*
X98333051Y-105028388D01*
X98266824Y-105027736D01*
X98188140Y-105027237D01*
X98095819Y-105026871D01*
X97988678Y-105026618D01*
X97865538Y-105026456D01*
X97725218Y-105026366D01*
X97566535Y-105026326D01*
X97388309Y-105026316D01*
X97333665Y-105026316D01*
X96138433Y-105026316D01*
X96061269Y-105051582D01*
X95981944Y-105084207D01*
X95906989Y-105127586D01*
X95838025Y-105179514D01*
X95776672Y-105237787D01*
X95724550Y-105300202D01*
X95683279Y-105364554D01*
X95654478Y-105428638D01*
X95639768Y-105490251D01*
X94700046Y-105490251D01*
X94802250Y-105313270D01*
X94931212Y-105089939D01*
X95058196Y-104870022D01*
X95182239Y-104655184D01*
X95302379Y-104447093D01*
X95417653Y-104247415D01*
X95527100Y-104057818D01*
X95629756Y-103879968D01*
X95724659Y-103715532D01*
X95810847Y-103566177D01*
X95879396Y-103447368D01*
X95965299Y-103298518D01*
X96048978Y-103153612D01*
X96129760Y-103013817D01*
X96138433Y-102998818D01*
X96206967Y-102880296D01*
X96279927Y-102754214D01*
X96347962Y-102636736D01*
X96410399Y-102529026D01*
X96466561Y-102432248D01*
X96515775Y-102347568D01*
X96542706Y-102301321D01*
X97492138Y-102301321D01*
X97498178Y-102353398D01*
X97509824Y-102380178D01*
X97530368Y-102403412D01*
X97561135Y-102426357D01*
X97575641Y-102434434D01*
X97586613Y-102439646D01*
X97597815Y-102444035D01*
X97611087Y-102447684D01*
X97628268Y-102450676D01*
X97651200Y-102453092D01*
X97681723Y-102455017D01*
X97721676Y-102456534D01*
X97772901Y-102457724D01*
X97837237Y-102458672D01*
X97916524Y-102459460D01*
X98012604Y-102460170D01*
X98127317Y-102460887D01*
X98168222Y-102461131D01*
X98273134Y-102461855D01*
X98371406Y-102462731D01*
X98461078Y-102463727D01*
X98540190Y-102464812D01*
X98606783Y-102465954D01*
X98658897Y-102467122D01*
X98694571Y-102468286D01*
X98711847Y-102469414D01*
X98713184Y-102469803D01*
X98708159Y-102480201D01*
X98694182Y-102505856D01*
X98672897Y-102543831D01*
X98645950Y-102591193D01*
X98614988Y-102645003D01*
X98614692Y-102645514D01*
X98529647Y-102792546D01*
X98454471Y-102922576D01*
X98388505Y-103036835D01*
X98331086Y-103136553D01*
X98281554Y-103222961D01*
X98239247Y-103297288D01*
X98203503Y-103360765D01*
X98173663Y-103414622D01*
X98149063Y-103460089D01*
X98129043Y-103498397D01*
X98112943Y-103530776D01*
X98100099Y-103558456D01*
X98089852Y-103582667D01*
X98081539Y-103604640D01*
X98074500Y-103625604D01*
X98068073Y-103646791D01*
X98061597Y-103669429D01*
X98058594Y-103680052D01*
X98041036Y-103766512D01*
X98033976Y-103859727D01*
X98037434Y-103952123D01*
X98051431Y-104036127D01*
X98057617Y-104058332D01*
X98099005Y-104157112D01*
X98157961Y-104245431D01*
X98233089Y-104321989D01*
X98322996Y-104385490D01*
X98426288Y-104434633D01*
X98481584Y-104453143D01*
X98542587Y-104466404D01*
X98618993Y-104475980D01*
X98705441Y-104481713D01*
X98796569Y-104483444D01*
X98887017Y-104481015D01*
X98971423Y-104474269D01*
X99012515Y-104468789D01*
X99190058Y-104431603D01*
X99371527Y-104375628D01*
X99467942Y-104336833D01*
X99554300Y-104302084D01*
X99735759Y-104212192D01*
X99913284Y-104107174D01*
X100084253Y-103988250D01*
X100145357Y-103940943D01*
X100207246Y-103888690D01*
X100274326Y-103827040D01*
X100342534Y-103760146D01*
X100407808Y-103692156D01*
X100466087Y-103627224D01*
X100513309Y-103569499D01*
X100527290Y-103550624D01*
X100542426Y-103527646D01*
X100566903Y-103488267D01*
X100599628Y-103434368D01*
X100639505Y-103367835D01*
X100685438Y-103290549D01*
X100736333Y-103204394D01*
X100791094Y-103111255D01*
X100848626Y-103013013D01*
X100907834Y-102911554D01*
X100967623Y-102808759D01*
X101026897Y-102706512D01*
X101084561Y-102606697D01*
X101139521Y-102511196D01*
X101190680Y-102421895D01*
X101236943Y-102340675D01*
X101277216Y-102269420D01*
X101310403Y-102210014D01*
X101335408Y-102164340D01*
X101351138Y-102134281D01*
X101352319Y-102131876D01*
X101378722Y-102062392D01*
X101388495Y-101998677D01*
X101381980Y-101942782D01*
X101359519Y-101896755D01*
X101321452Y-101862646D01*
X101306134Y-101854630D01*
X101299824Y-101852265D01*
X101291170Y-101850118D01*
X101279184Y-101848179D01*
X101262876Y-101846437D01*
X101241258Y-101844881D01*
X101213340Y-101843502D01*
X101178135Y-101842289D01*
X101134651Y-101841231D01*
X101081902Y-101840317D01*
X101018897Y-101839539D01*
X100944648Y-101838884D01*
X100858165Y-101838342D01*
X100758460Y-101837904D01*
X100644545Y-101837558D01*
X100515429Y-101837295D01*
X100370124Y-101837103D01*
X100207641Y-101836972D01*
X100026990Y-101836892D01*
X99827184Y-101836852D01*
X99624088Y-101836842D01*
X99406125Y-101836850D01*
X99208214Y-101836883D01*
X99029344Y-101836952D01*
X98868506Y-101837068D01*
X98724691Y-101837244D01*
X98596889Y-101837489D01*
X98484089Y-101837816D01*
X98385283Y-101838237D01*
X98299460Y-101838762D01*
X98225611Y-101839403D01*
X98162726Y-101840172D01*
X98109795Y-101841080D01*
X98065808Y-101842138D01*
X98029756Y-101843359D01*
X98000630Y-101844752D01*
X97977418Y-101846331D01*
X97959112Y-101848106D01*
X97944702Y-101850089D01*
X97933178Y-101852291D01*
X97923530Y-101854723D01*
X97918568Y-101856191D01*
X97873211Y-101872063D01*
X97826059Y-101891419D01*
X97802730Y-101902377D01*
X97731596Y-101945040D01*
X97666754Y-101996769D01*
X97609781Y-102054990D01*
X97562256Y-102117129D01*
X97525755Y-102180613D01*
X97501856Y-102242868D01*
X97492138Y-102301321D01*
X96542706Y-102301321D01*
X96557364Y-102276149D01*
X96590654Y-102219156D01*
X96614969Y-102177755D01*
X96629634Y-102153108D01*
X96631901Y-102149398D01*
X96716676Y-102022365D01*
X96810710Y-101901322D01*
X96918745Y-101780260D01*
X96943952Y-101753965D01*
X97105784Y-101600647D01*
X97276122Y-101466031D01*
X97455844Y-101349660D01*
X97645826Y-101251075D01*
X97846944Y-101169818D01*
X98060074Y-101105431D01*
X98270896Y-101060101D01*
X98402529Y-101036842D01*
X99624088Y-101036842D01*
G37*
%TO.C,JP3*%
X139700000Y-118600000D02*
X140300000Y-118600000D01*
X141000000Y-119300000D02*
X141000000Y-120700000D01*
X139000000Y-120700000D02*
X139000000Y-119300000D01*
X140300000Y-121400000D02*
X139700000Y-121400000D01*
X141000000Y-119300000D02*
G75*
G03*
X140300000Y-118600000I-699999J1D01*
G01*
X139700000Y-118600000D02*
G75*
G03*
X139000000Y-119300000I-1J-699999D01*
G01*
X140300000Y-121400000D02*
G75*
G03*
X141000000Y-120700000I0J700000D01*
G01*
X139000000Y-120700000D02*
G75*
G03*
X139700000Y-121400000I700000J0D01*
G01*
%TO.C,J4*%
X147660000Y-98274000D02*
X99400000Y-98274000D01*
X97876000Y-96750000D02*
X97876000Y-94210000D01*
X149184000Y-94210000D02*
X149184000Y-96750000D01*
X99400000Y-92686000D02*
X147660000Y-92686000D01*
X97876000Y-96750000D02*
G75*
G03*
X99400000Y-98274000I1523999J-1D01*
G01*
X147660000Y-98274000D02*
G75*
G03*
X149184000Y-96750000I1J1523999D01*
G01*
X99400000Y-92686000D02*
G75*
G03*
X97876000Y-94210000I0J-1524000D01*
G01*
X149184000Y-94210000D02*
G75*
G03*
X147660000Y-92686000I-1523999J1D01*
G01*
%TO.C,G\u002A\u002A\u002A*%
G36*
X110446206Y-116224011D02*
G01*
X110518872Y-116237456D01*
X110581327Y-116266609D01*
X110630403Y-116309899D01*
X110637265Y-116318656D01*
X110646648Y-116333360D01*
X110665724Y-116365008D01*
X110693726Y-116412267D01*
X110729886Y-116473808D01*
X110773439Y-116548299D01*
X110823617Y-116634411D01*
X110879655Y-116730812D01*
X110940784Y-116836172D01*
X111006240Y-116949160D01*
X111075254Y-117068445D01*
X111147061Y-117192697D01*
X111220893Y-117320586D01*
X111295984Y-117450780D01*
X111371568Y-117581949D01*
X111446878Y-117712762D01*
X111521146Y-117841889D01*
X111593607Y-117967998D01*
X111663494Y-118089761D01*
X111730039Y-118205844D01*
X111792477Y-118314919D01*
X111850041Y-118415654D01*
X111901963Y-118506719D01*
X111947479Y-118586783D01*
X111985819Y-118654515D01*
X112016219Y-118708585D01*
X112037912Y-118747663D01*
X112050130Y-118770416D01*
X112051750Y-118773684D01*
X112087588Y-118860431D01*
X112110098Y-118943903D01*
X112121197Y-119032720D01*
X112123191Y-119094737D01*
X112118089Y-119202810D01*
X112100601Y-119299885D01*
X112069047Y-119393095D01*
X112036561Y-119462030D01*
X112024672Y-119483861D01*
X112002979Y-119522604D01*
X111972231Y-119576951D01*
X111933177Y-119645597D01*
X111886567Y-119727232D01*
X111833149Y-119820551D01*
X111773673Y-119924246D01*
X111708887Y-120037009D01*
X111639542Y-120157535D01*
X111566385Y-120284514D01*
X111490167Y-120416641D01*
X111411636Y-120552608D01*
X111402752Y-120567979D01*
X110818399Y-121578947D01*
X110432504Y-121578947D01*
X110046609Y-121578947D01*
X109446496Y-120539474D01*
X109367309Y-120402254D01*
X109290719Y-120269418D01*
X109217426Y-120142188D01*
X109148130Y-120021783D01*
X109083531Y-119909425D01*
X109024330Y-119806335D01*
X108971228Y-119713734D01*
X108924925Y-119632842D01*
X108886121Y-119564881D01*
X108855517Y-119511071D01*
X108833814Y-119472634D01*
X108821712Y-119450789D01*
X108819913Y-119447368D01*
X108780735Y-119355011D01*
X108756082Y-119260188D01*
X108744238Y-119155829D01*
X108743203Y-119131579D01*
X108742495Y-119078236D01*
X108743547Y-119027102D01*
X108746127Y-118985230D01*
X108748586Y-118965930D01*
X108767836Y-118887104D01*
X108795781Y-118807002D01*
X108817831Y-118757895D01*
X108828206Y-118738658D01*
X108848162Y-118702982D01*
X108876934Y-118652182D01*
X108913762Y-118587576D01*
X108957882Y-118510478D01*
X109008533Y-118422206D01*
X109064952Y-118324075D01*
X109126376Y-118217402D01*
X109192044Y-118103504D01*
X109261193Y-117983696D01*
X109333060Y-117859295D01*
X109406883Y-117731616D01*
X109481900Y-117601977D01*
X109557349Y-117471694D01*
X109632466Y-117342082D01*
X109706490Y-117214459D01*
X109778659Y-117090139D01*
X109848209Y-116970441D01*
X109914379Y-116856679D01*
X109976406Y-116750171D01*
X110033529Y-116652231D01*
X110084983Y-116564178D01*
X110130008Y-116487327D01*
X110167840Y-116422993D01*
X110197718Y-116372495D01*
X110218879Y-116337147D01*
X110230560Y-116318266D01*
X110232270Y-116315789D01*
X110258243Y-116290097D01*
X110294029Y-116263587D01*
X110318522Y-116249157D01*
X110353739Y-116232532D01*
X110383235Y-116224335D01*
X110417006Y-116222596D01*
X110446206Y-116224011D01*
G37*
G36*
X114595721Y-109163757D02*
G01*
X114655927Y-109191868D01*
X114706716Y-109236231D01*
X114708305Y-109238114D01*
X114717121Y-109251441D01*
X114735673Y-109281696D01*
X114763195Y-109327557D01*
X114798921Y-109387703D01*
X114842084Y-109460814D01*
X114891919Y-109545568D01*
X114947657Y-109640645D01*
X115008535Y-109744723D01*
X115073784Y-109856482D01*
X115142639Y-109974601D01*
X115214333Y-110097758D01*
X115288100Y-110224633D01*
X115363174Y-110353905D01*
X115438789Y-110484253D01*
X115514177Y-110614356D01*
X115588573Y-110742892D01*
X115661211Y-110868542D01*
X115731323Y-110989983D01*
X115798145Y-111105896D01*
X115860908Y-111214959D01*
X115918848Y-111315851D01*
X115971197Y-111407251D01*
X116017190Y-111487839D01*
X116056060Y-111556293D01*
X116087040Y-111611292D01*
X116109365Y-111651516D01*
X116121265Y-111673684D01*
X116168346Y-111787281D01*
X116196863Y-111907780D01*
X116206658Y-112031844D01*
X116197571Y-112156141D01*
X116169443Y-112277335D01*
X116152366Y-112325362D01*
X116144713Y-112340579D01*
X116127254Y-112372686D01*
X116100749Y-112420363D01*
X116065958Y-112482289D01*
X116023641Y-112557143D01*
X115974559Y-112643606D01*
X115919473Y-112740355D01*
X115859141Y-112846071D01*
X115794325Y-112959433D01*
X115725785Y-113079119D01*
X115654282Y-113203810D01*
X115580574Y-113332183D01*
X115505423Y-113462920D01*
X115429589Y-113594699D01*
X115353832Y-113726199D01*
X115278913Y-113856100D01*
X115205591Y-113983080D01*
X115134627Y-114105820D01*
X115066781Y-114222998D01*
X115002814Y-114333294D01*
X114943485Y-114435387D01*
X114889556Y-114527956D01*
X114841786Y-114609680D01*
X114800935Y-114679240D01*
X114767764Y-114735314D01*
X114743033Y-114776581D01*
X114727503Y-114801720D01*
X114723072Y-114808309D01*
X114673830Y-114856915D01*
X114610914Y-114891957D01*
X114561091Y-114906995D01*
X114491521Y-114911150D01*
X114423860Y-114895454D01*
X114362005Y-114861014D01*
X114342608Y-114844885D01*
X114333582Y-114834650D01*
X114320104Y-114816171D01*
X114301726Y-114788692D01*
X114278002Y-114751460D01*
X114248482Y-114703721D01*
X114212719Y-114644719D01*
X114170265Y-114573700D01*
X114120672Y-114489911D01*
X114063493Y-114392596D01*
X113998279Y-114281001D01*
X113924583Y-114154372D01*
X113841957Y-114011955D01*
X113749952Y-113852994D01*
X113648122Y-113676736D01*
X113612945Y-113615789D01*
X113528178Y-113468807D01*
X113445968Y-113326088D01*
X113366971Y-113188779D01*
X113291839Y-113058023D01*
X113221229Y-112934966D01*
X113155794Y-112820753D01*
X113096190Y-112716529D01*
X113043071Y-112623437D01*
X112997091Y-112542624D01*
X112958905Y-112475234D01*
X112929167Y-112422412D01*
X112908533Y-112385302D01*
X112897657Y-112365050D01*
X112896726Y-112363158D01*
X112857685Y-112258732D01*
X112833368Y-112145106D01*
X112824386Y-112028270D01*
X112831351Y-111914213D01*
X112844065Y-111847031D01*
X112859022Y-111796238D01*
X112878893Y-111741311D01*
X112894458Y-111704926D01*
X112903645Y-111687488D01*
X112922717Y-111652976D01*
X112951016Y-111602541D01*
X112987884Y-111537333D01*
X113032665Y-111458503D01*
X113084701Y-111367202D01*
X113143333Y-111264581D01*
X113207904Y-111151791D01*
X113277757Y-111029982D01*
X113352233Y-110900306D01*
X113430676Y-110763913D01*
X113512427Y-110621954D01*
X113596829Y-110475580D01*
X113613109Y-110447368D01*
X113718482Y-110264913D01*
X113813878Y-110100011D01*
X113899740Y-109951920D01*
X113976507Y-109819897D01*
X114044622Y-109703199D01*
X114104525Y-109601082D01*
X114156657Y-109512804D01*
X114201459Y-109437621D01*
X114239373Y-109374791D01*
X114270839Y-109323569D01*
X114296300Y-109283214D01*
X114316195Y-109252982D01*
X114330966Y-109232130D01*
X114341054Y-109219914D01*
X114342732Y-109218273D01*
X114399603Y-109179155D01*
X114463459Y-109157177D01*
X114530198Y-109152119D01*
X114595721Y-109163757D01*
G37*
G36*
X112537718Y-112695261D02*
G01*
X112591409Y-112713041D01*
X112638715Y-112745470D01*
X112657216Y-112763080D01*
X112666243Y-112775990D01*
X112684994Y-112805851D01*
X112712709Y-112851353D01*
X112748629Y-112911188D01*
X112791993Y-112984048D01*
X112842043Y-113068623D01*
X112898018Y-113163605D01*
X112959158Y-113267685D01*
X113024704Y-113379555D01*
X113093897Y-113497905D01*
X113165975Y-113621428D01*
X113240180Y-113748814D01*
X113315751Y-113878755D01*
X113391930Y-114009941D01*
X113467956Y-114141066D01*
X113543069Y-114270818D01*
X113616510Y-114397891D01*
X113687519Y-114520975D01*
X113755336Y-114638761D01*
X113819201Y-114749942D01*
X113878355Y-114853207D01*
X113932038Y-114947249D01*
X113979490Y-115030759D01*
X114019951Y-115102427D01*
X114052662Y-115160946D01*
X114076863Y-115205007D01*
X114091794Y-115233301D01*
X114094459Y-115238747D01*
X114139071Y-115357457D01*
X114163145Y-115479777D01*
X114166616Y-115604378D01*
X114149420Y-115729929D01*
X114122986Y-115823724D01*
X114114856Y-115843043D01*
X114099677Y-115874066D01*
X114077142Y-115917336D01*
X114046947Y-115973397D01*
X114008785Y-116042793D01*
X113962349Y-116126068D01*
X113907335Y-116223764D01*
X113843436Y-116336427D01*
X113770345Y-116464599D01*
X113687758Y-116608825D01*
X113595368Y-116769647D01*
X113492869Y-116947611D01*
X113397317Y-117113197D01*
X113311964Y-117260870D01*
X113229127Y-117403935D01*
X113149455Y-117541286D01*
X113073597Y-117671816D01*
X113002199Y-117794417D01*
X112935912Y-117907984D01*
X112875382Y-118011408D01*
X112821258Y-118103582D01*
X112774189Y-118183400D01*
X112734822Y-118249755D01*
X112703806Y-118301538D01*
X112681788Y-118337644D01*
X112669419Y-118356966D01*
X112667598Y-118359429D01*
X112617729Y-118403483D01*
X112558116Y-118431659D01*
X112492941Y-118443873D01*
X112426383Y-118440041D01*
X112362625Y-118420079D01*
X112305847Y-118383905D01*
X112288035Y-118367018D01*
X112278620Y-118353562D01*
X112259502Y-118323144D01*
X112231440Y-118277073D01*
X112195194Y-118216659D01*
X112151520Y-118143211D01*
X112101179Y-118058040D01*
X112044928Y-117962454D01*
X111983526Y-117857765D01*
X111917732Y-117745281D01*
X111848304Y-117626312D01*
X111776000Y-117502168D01*
X111701581Y-117374158D01*
X111625803Y-117243593D01*
X111549426Y-117111782D01*
X111473207Y-116980034D01*
X111397907Y-116849660D01*
X111324283Y-116721969D01*
X111253093Y-116598271D01*
X111185098Y-116479875D01*
X111121054Y-116368091D01*
X111061720Y-116264229D01*
X111007856Y-116169599D01*
X110960220Y-116085510D01*
X110919569Y-116013272D01*
X110886664Y-115954195D01*
X110862262Y-115909588D01*
X110847122Y-115880762D01*
X110843091Y-115872278D01*
X110808221Y-115768262D01*
X110787608Y-115655622D01*
X110781907Y-115541045D01*
X110791778Y-115431221D01*
X110797068Y-115403845D01*
X110809485Y-115356322D01*
X110826122Y-115304339D01*
X110836840Y-115275612D01*
X110845136Y-115258947D01*
X110863153Y-115225577D01*
X110890141Y-115176808D01*
X110925347Y-115113945D01*
X110968020Y-115038292D01*
X111017408Y-114951155D01*
X111072759Y-114853838D01*
X111133321Y-114747646D01*
X111198341Y-114633884D01*
X111267070Y-114513857D01*
X111338753Y-114388870D01*
X111412641Y-114260228D01*
X111487980Y-114129236D01*
X111564019Y-113997197D01*
X111640006Y-113865419D01*
X111715189Y-113735204D01*
X111788817Y-113607858D01*
X111860137Y-113484687D01*
X111928398Y-113366995D01*
X111992847Y-113256086D01*
X112052734Y-113153266D01*
X112107305Y-113059839D01*
X112155810Y-112977111D01*
X112197496Y-112906386D01*
X112231612Y-112848969D01*
X112257405Y-112806166D01*
X112274124Y-112779280D01*
X112280513Y-112770051D01*
X112303193Y-112749904D01*
X112334855Y-112727143D01*
X112350415Y-112717419D01*
X112381705Y-112701437D01*
X112412338Y-112692939D01*
X112451276Y-112689875D01*
X112471518Y-112689712D01*
X112537718Y-112695261D01*
G37*
G36*
X106416756Y-109159078D02*
G01*
X106480542Y-109185398D01*
X106519002Y-109213035D01*
X106527966Y-109223269D01*
X106542231Y-109243200D01*
X106562199Y-109273504D01*
X106588272Y-109314860D01*
X106620854Y-109367945D01*
X106660345Y-109433437D01*
X106707149Y-109512013D01*
X106761667Y-109604352D01*
X106824303Y-109711130D01*
X106895458Y-109833026D01*
X106975534Y-109970717D01*
X107064935Y-110124882D01*
X107164062Y-110296197D01*
X107239239Y-110426316D01*
X107323871Y-110572936D01*
X107406080Y-110715481D01*
X107485196Y-110852781D01*
X107560550Y-110983671D01*
X107631471Y-111106981D01*
X107697290Y-111221546D01*
X107757336Y-111326196D01*
X107810941Y-111419766D01*
X107857434Y-111501087D01*
X107896146Y-111568991D01*
X107926406Y-111622312D01*
X107947545Y-111659881D01*
X107958893Y-111680532D01*
X107959564Y-111681816D01*
X107996384Y-111763888D01*
X108020758Y-111845867D01*
X108034168Y-111934354D01*
X108038101Y-112031579D01*
X108033823Y-112132543D01*
X108019997Y-112220687D01*
X107995137Y-112302642D01*
X107959669Y-112381342D01*
X107948402Y-112402109D01*
X107927624Y-112439229D01*
X107898100Y-112491378D01*
X107860594Y-112557237D01*
X107815870Y-112635482D01*
X107764692Y-112724792D01*
X107707825Y-112823846D01*
X107646032Y-112931322D01*
X107580077Y-113045898D01*
X107510726Y-113166252D01*
X107438741Y-113291063D01*
X107364887Y-113419009D01*
X107289929Y-113548769D01*
X107214629Y-113679020D01*
X107139753Y-113808440D01*
X107066065Y-113935709D01*
X106994328Y-114059505D01*
X106925307Y-114178505D01*
X106859767Y-114291389D01*
X106798470Y-114396834D01*
X106742182Y-114493518D01*
X106691666Y-114580121D01*
X106647686Y-114655320D01*
X106611008Y-114717794D01*
X106582394Y-114766220D01*
X106562609Y-114799278D01*
X106552417Y-114815645D01*
X106551655Y-114816723D01*
X106518770Y-114848474D01*
X106472975Y-114877980D01*
X106422298Y-114900747D01*
X106382882Y-114911210D01*
X106323694Y-114911090D01*
X106261809Y-114894533D01*
X106204034Y-114863888D01*
X106173206Y-114838792D01*
X106163635Y-114827613D01*
X106149409Y-114807839D01*
X106130090Y-114778729D01*
X106105237Y-114739542D01*
X106074412Y-114689538D01*
X106037174Y-114627977D01*
X105993084Y-114554118D01*
X105941704Y-114467221D01*
X105882592Y-114366545D01*
X105815310Y-114251350D01*
X105739419Y-114120895D01*
X105654478Y-113974441D01*
X105560048Y-113811247D01*
X105455690Y-113630571D01*
X105444122Y-113610526D01*
X105359615Y-113464041D01*
X105277696Y-113321940D01*
X105199016Y-113185362D01*
X105124228Y-113055443D01*
X105053986Y-112933320D01*
X104988942Y-112820131D01*
X104929748Y-112717012D01*
X104877057Y-112625101D01*
X104831522Y-112545535D01*
X104793795Y-112479451D01*
X104764530Y-112427986D01*
X104744378Y-112392277D01*
X104733993Y-112373462D01*
X104733226Y-112371986D01*
X104701096Y-112292919D01*
X104676723Y-112201375D01*
X104661252Y-112104635D01*
X104655829Y-112009983D01*
X104661602Y-111924701D01*
X104662207Y-111920806D01*
X104678535Y-111843619D01*
X104701813Y-111766697D01*
X104729042Y-111699743D01*
X104733061Y-111691595D01*
X104746326Y-111666750D01*
X104768962Y-111625935D01*
X104800212Y-111570453D01*
X104839315Y-111501613D01*
X104885514Y-111420719D01*
X104938049Y-111329076D01*
X104996161Y-111227992D01*
X105059092Y-111118771D01*
X105126082Y-111002719D01*
X105196373Y-110881143D01*
X105269206Y-110755347D01*
X105343821Y-110626638D01*
X105419461Y-110496321D01*
X105495365Y-110365703D01*
X105570776Y-110236088D01*
X105644934Y-110108784D01*
X105717080Y-109985094D01*
X105786456Y-109866326D01*
X105852302Y-109753785D01*
X105913860Y-109648777D01*
X105970371Y-109552607D01*
X106021076Y-109466582D01*
X106065216Y-109392007D01*
X106102032Y-109330187D01*
X106130765Y-109282429D01*
X106150656Y-109250039D01*
X106160947Y-109234322D01*
X106161792Y-109233288D01*
X106217973Y-109188239D01*
X106281705Y-109160712D01*
X106349222Y-109150921D01*
X106416756Y-109159078D01*
G37*
G36*
X110501233Y-109159709D02*
G01*
X110565911Y-109188707D01*
X110619966Y-109233288D01*
X110628247Y-109245503D01*
X110646280Y-109274656D01*
X110673308Y-109319440D01*
X110708571Y-109378551D01*
X110751311Y-109450683D01*
X110800769Y-109534531D01*
X110856187Y-109628788D01*
X110916805Y-109732150D01*
X110981865Y-109843310D01*
X111050608Y-109960964D01*
X111122275Y-110083805D01*
X111196109Y-110210529D01*
X111271349Y-110339829D01*
X111347238Y-110470400D01*
X111423017Y-110600936D01*
X111497926Y-110730133D01*
X111571208Y-110856683D01*
X111642104Y-110979283D01*
X111709854Y-111096626D01*
X111773701Y-111207406D01*
X111832885Y-111310319D01*
X111886647Y-111404059D01*
X111934230Y-111487319D01*
X111974875Y-111558795D01*
X112007821Y-111617182D01*
X112032312Y-111661172D01*
X112047588Y-111689462D01*
X112049487Y-111693153D01*
X112090038Y-111794922D01*
X112114826Y-111906152D01*
X112123855Y-112022346D01*
X112117131Y-112139007D01*
X112094660Y-112251640D01*
X112056446Y-112355749D01*
X112048689Y-112371677D01*
X112040068Y-112387445D01*
X112021566Y-112420306D01*
X111993835Y-112469122D01*
X111957530Y-112532756D01*
X111913302Y-112610070D01*
X111861804Y-112699927D01*
X111803690Y-112801189D01*
X111739612Y-112912718D01*
X111670223Y-113033378D01*
X111596176Y-113162031D01*
X111518123Y-113297539D01*
X111436719Y-113438765D01*
X111352615Y-113584571D01*
X111337637Y-113610526D01*
X111232209Y-113793083D01*
X111136756Y-113958081D01*
X111050838Y-114106260D01*
X110974016Y-114238362D01*
X110905849Y-114355127D01*
X110845899Y-114457295D01*
X110793726Y-114545606D01*
X110748891Y-114620802D01*
X110710953Y-114683621D01*
X110679474Y-114734806D01*
X110654014Y-114775095D01*
X110634134Y-114805230D01*
X110619393Y-114825951D01*
X110609353Y-114837998D01*
X110608552Y-114838792D01*
X110556757Y-114877003D01*
X110496625Y-114902588D01*
X110434961Y-114913196D01*
X110398877Y-114911210D01*
X110350172Y-114897283D01*
X110299791Y-114872945D01*
X110255762Y-114842692D01*
X110230105Y-114816723D01*
X110220382Y-114801698D01*
X110200991Y-114769748D01*
X110172692Y-114722195D01*
X110136247Y-114660358D01*
X110092415Y-114585559D01*
X110041957Y-114499118D01*
X109985635Y-114402356D01*
X109924209Y-114296594D01*
X109858439Y-114183152D01*
X109789087Y-114063350D01*
X109716913Y-113938510D01*
X109642678Y-113809953D01*
X109567142Y-113678998D01*
X109491066Y-113546966D01*
X109415212Y-113415179D01*
X109340339Y-113284957D01*
X109267208Y-113157620D01*
X109196581Y-113034489D01*
X109129217Y-112916885D01*
X109065878Y-112806129D01*
X109007324Y-112703541D01*
X108954316Y-112610441D01*
X108907615Y-112528151D01*
X108867981Y-112457991D01*
X108836175Y-112401282D01*
X108812958Y-112359344D01*
X108799090Y-112333498D01*
X108795564Y-112326241D01*
X108762336Y-112220597D01*
X108743906Y-112106226D01*
X108740867Y-111989943D01*
X108753811Y-111878563D01*
X108755789Y-111868971D01*
X108768243Y-111820102D01*
X108784359Y-111768797D01*
X108796983Y-111735244D01*
X108805583Y-111718174D01*
X108824032Y-111684129D01*
X108851625Y-111634352D01*
X108887654Y-111570085D01*
X108931413Y-111492570D01*
X108982196Y-111403051D01*
X109039296Y-111302769D01*
X109102005Y-111192967D01*
X109169619Y-111074889D01*
X109241430Y-110949775D01*
X109316732Y-110818869D01*
X109394818Y-110683414D01*
X109413826Y-110650484D01*
X109494389Y-110510948D01*
X109573700Y-110373573D01*
X109650922Y-110239812D01*
X109725215Y-110111119D01*
X109795740Y-109988947D01*
X109861659Y-109874749D01*
X109922131Y-109769979D01*
X109976320Y-109676089D01*
X110023385Y-109594534D01*
X110062488Y-109526767D01*
X110092791Y-109474240D01*
X110113453Y-109438408D01*
X110114355Y-109436842D01*
X110159109Y-109360590D01*
X110196493Y-109300783D01*
X110228607Y-109255060D01*
X110257551Y-109221063D01*
X110285425Y-109196430D01*
X110314328Y-109178802D01*
X110346362Y-109165819D01*
X110359083Y-109161823D01*
X110431554Y-109150546D01*
X110501233Y-109159709D01*
G37*
G36*
X110452871Y-102085884D02*
G01*
X110522984Y-102097753D01*
X110580824Y-102125668D01*
X110629392Y-102171180D01*
X110637234Y-102181165D01*
X110646046Y-102194981D01*
X110664581Y-102225735D01*
X110692073Y-102272105D01*
X110727762Y-102332770D01*
X110770882Y-102406408D01*
X110820671Y-102491699D01*
X110876367Y-102587322D01*
X110937204Y-102691955D01*
X111002421Y-102804277D01*
X111071254Y-102922967D01*
X111142940Y-103046703D01*
X111216716Y-103174166D01*
X111291818Y-103304033D01*
X111367483Y-103434983D01*
X111442948Y-103565695D01*
X111517450Y-103694849D01*
X111590226Y-103821122D01*
X111660512Y-103943194D01*
X111727545Y-104059744D01*
X111790562Y-104169450D01*
X111848800Y-104270991D01*
X111901496Y-104363046D01*
X111947885Y-104444295D01*
X111987206Y-104513415D01*
X112018695Y-104569085D01*
X112041588Y-104609985D01*
X112055123Y-104634794D01*
X112058290Y-104641075D01*
X112097083Y-104750262D01*
X112119963Y-104866031D01*
X112126063Y-104982255D01*
X112118786Y-105068152D01*
X112105041Y-105136542D01*
X112085006Y-105207779D01*
X112061193Y-105274035D01*
X112036113Y-105327478D01*
X112034950Y-105329535D01*
X111994973Y-105399417D01*
X111947982Y-105481349D01*
X111894720Y-105574051D01*
X111835927Y-105676240D01*
X111772346Y-105786635D01*
X111704718Y-105903956D01*
X111633785Y-106026919D01*
X111560288Y-106154245D01*
X111484969Y-106284650D01*
X111408570Y-106416855D01*
X111331832Y-106549576D01*
X111255497Y-106681534D01*
X111180307Y-106811446D01*
X111107003Y-106938031D01*
X111036326Y-107060007D01*
X110969019Y-107176093D01*
X110905823Y-107285008D01*
X110847479Y-107385469D01*
X110794730Y-107476196D01*
X110748317Y-107555907D01*
X110708981Y-107623321D01*
X110677464Y-107677155D01*
X110654509Y-107716129D01*
X110640855Y-107738961D01*
X110637347Y-107744502D01*
X110612975Y-107770089D01*
X110579657Y-107796556D01*
X110562475Y-107807660D01*
X110532007Y-107823579D01*
X110503320Y-107832473D01*
X110468048Y-107836240D01*
X110433831Y-107836842D01*
X110388624Y-107835595D01*
X110356032Y-107830588D01*
X110327689Y-107819924D01*
X110305187Y-107807660D01*
X110270913Y-107783884D01*
X110240299Y-107756666D01*
X110229465Y-107744328D01*
X110219191Y-107728621D01*
X110199308Y-107696051D01*
X110170571Y-107647933D01*
X110133739Y-107585583D01*
X110089568Y-107510318D01*
X110038816Y-107423453D01*
X109982240Y-107326305D01*
X109920597Y-107220189D01*
X109854645Y-107106423D01*
X109785141Y-106986322D01*
X109712843Y-106861202D01*
X109638506Y-106732379D01*
X109562889Y-106601170D01*
X109486749Y-106468890D01*
X109410844Y-106336856D01*
X109335929Y-106206384D01*
X109262764Y-106078790D01*
X109192104Y-105955390D01*
X109124708Y-105837500D01*
X109061332Y-105726437D01*
X109002734Y-105623516D01*
X108949671Y-105530054D01*
X108902900Y-105447367D01*
X108863179Y-105376770D01*
X108831265Y-105319581D01*
X108807914Y-105277114D01*
X108793885Y-105250687D01*
X108790127Y-105242742D01*
X108763621Y-105153604D01*
X108746533Y-105055946D01*
X108739566Y-104957136D01*
X108743426Y-104864547D01*
X108749841Y-104821844D01*
X108776407Y-104723110D01*
X108815984Y-104624936D01*
X108823029Y-104610526D01*
X108837225Y-104583685D01*
X108860755Y-104540995D01*
X108892858Y-104483769D01*
X108932771Y-104413315D01*
X108979731Y-104330944D01*
X109032975Y-104237965D01*
X109091740Y-104135690D01*
X109155265Y-104025428D01*
X109222786Y-103908490D01*
X109293541Y-103786185D01*
X109366767Y-103659823D01*
X109441701Y-103530716D01*
X109517582Y-103400172D01*
X109593645Y-103269502D01*
X109669129Y-103140016D01*
X109743271Y-103013025D01*
X109815308Y-102889838D01*
X109884478Y-102771765D01*
X109950018Y-102660117D01*
X110011165Y-102556204D01*
X110067156Y-102461336D01*
X110117230Y-102376822D01*
X110160623Y-102303974D01*
X110196573Y-102244101D01*
X110224317Y-102198514D01*
X110243093Y-102168522D01*
X110252137Y-102155436D01*
X110252219Y-102155350D01*
X110300614Y-102116090D01*
X110355450Y-102093183D01*
X110420974Y-102085160D01*
X110452871Y-102085884D01*
G37*
G36*
X108454823Y-105625664D02*
G01*
X108517816Y-105650174D01*
X108572693Y-105691525D01*
X108577063Y-105696042D01*
X108585900Y-105708902D01*
X108604463Y-105738714D01*
X108631993Y-105784167D01*
X108667731Y-105843955D01*
X108710919Y-105916769D01*
X108760799Y-106001302D01*
X108816611Y-106096244D01*
X108877596Y-106200288D01*
X108942998Y-106312126D01*
X109012055Y-106430449D01*
X109084011Y-106553949D01*
X109158107Y-106681319D01*
X109233583Y-106811250D01*
X109309682Y-106942433D01*
X109385644Y-107073561D01*
X109460711Y-107203326D01*
X109534124Y-107330420D01*
X109605126Y-107453534D01*
X109672956Y-107571360D01*
X109736857Y-107682590D01*
X109796069Y-107785915D01*
X109849835Y-107880029D01*
X109897396Y-107963622D01*
X109937992Y-108035387D01*
X109970866Y-108094014D01*
X109995259Y-108138197D01*
X110010412Y-108166627D01*
X110013898Y-108173684D01*
X110056976Y-108290308D01*
X110080236Y-108411491D01*
X110083718Y-108534776D01*
X110067461Y-108657707D01*
X110031504Y-108777824D01*
X110003194Y-108842105D01*
X109994447Y-108858279D01*
X109975811Y-108891538D01*
X109947942Y-108940739D01*
X109911494Y-109004741D01*
X109867122Y-109082405D01*
X109815480Y-109172587D01*
X109757223Y-109274149D01*
X109693005Y-109385947D01*
X109623482Y-109506842D01*
X109549307Y-109635691D01*
X109471136Y-109771355D01*
X109389624Y-109912691D01*
X109305424Y-110058559D01*
X109290666Y-110084112D01*
X109177149Y-110280449D01*
X109073820Y-110458726D01*
X108980520Y-110619217D01*
X108897085Y-110762195D01*
X108823353Y-110887934D01*
X108759163Y-110996709D01*
X108704352Y-111088792D01*
X108658757Y-111164458D01*
X108622217Y-111223981D01*
X108594569Y-111267634D01*
X108575652Y-111295692D01*
X108566044Y-111307752D01*
X108520201Y-111341009D01*
X108463662Y-111365829D01*
X108406203Y-111378237D01*
X108390879Y-111378947D01*
X108334408Y-111370732D01*
X108276208Y-111348706D01*
X108225890Y-111316797D01*
X108214979Y-111307071D01*
X108195177Y-111283753D01*
X108168232Y-111246299D01*
X108137072Y-111199060D01*
X108104625Y-111146389D01*
X108089347Y-111120273D01*
X108073002Y-111091864D01*
X108046901Y-111046564D01*
X108011818Y-110985717D01*
X107968527Y-110910663D01*
X107917803Y-110822745D01*
X107860420Y-110723305D01*
X107797153Y-110613684D01*
X107728776Y-110495225D01*
X107656063Y-110369270D01*
X107579790Y-110237159D01*
X107500730Y-110100236D01*
X107419658Y-109959842D01*
X107387429Y-109904035D01*
X107289083Y-109733745D01*
X107200704Y-109580623D01*
X107121754Y-109443590D01*
X107051693Y-109321567D01*
X106989984Y-109213476D01*
X106936088Y-109118239D01*
X106889467Y-109034775D01*
X106849580Y-108962007D01*
X106815891Y-108898857D01*
X106787860Y-108844244D01*
X106764949Y-108797091D01*
X106746619Y-108756319D01*
X106732332Y-108720850D01*
X106721548Y-108689604D01*
X106713730Y-108661503D01*
X106708339Y-108635468D01*
X106704835Y-108610420D01*
X106702682Y-108585282D01*
X106701339Y-108558974D01*
X106700268Y-108530417D01*
X106700164Y-108527636D01*
X106700001Y-108445446D01*
X106705795Y-108375414D01*
X106710676Y-108347368D01*
X106730744Y-108268272D01*
X106755923Y-108198667D01*
X106782823Y-108141355D01*
X106796336Y-108116123D01*
X106819204Y-108074956D01*
X106850665Y-108019164D01*
X106889958Y-107950056D01*
X106936320Y-107868941D01*
X106988992Y-107777128D01*
X107047212Y-107675926D01*
X107110218Y-107566645D01*
X107177250Y-107450595D01*
X107247546Y-107329083D01*
X107320344Y-107203419D01*
X107394884Y-107074913D01*
X107470404Y-106944874D01*
X107546143Y-106814610D01*
X107621340Y-106685432D01*
X107695234Y-106558648D01*
X107767062Y-106435567D01*
X107836065Y-106317500D01*
X107901480Y-106205754D01*
X107962547Y-106101639D01*
X108018504Y-106006465D01*
X108068590Y-105921540D01*
X108112044Y-105848174D01*
X108148104Y-105787676D01*
X108176009Y-105741356D01*
X108194998Y-105710521D01*
X108204310Y-105696482D01*
X108204690Y-105696042D01*
X108258647Y-105653185D01*
X108321088Y-105627169D01*
X108387863Y-105617995D01*
X108454823Y-105625664D01*
G37*
G36*
X112552890Y-105628360D02*
G01*
X112614320Y-105656913D01*
X112665867Y-105701727D01*
X112667565Y-105703729D01*
X112676677Y-105717404D01*
X112695647Y-105748226D01*
X112723828Y-105795091D01*
X112760575Y-105856896D01*
X112805243Y-105932540D01*
X112857187Y-106020920D01*
X112915761Y-106120933D01*
X112980319Y-106231477D01*
X113050218Y-106351449D01*
X113124810Y-106479747D01*
X113203451Y-106615267D01*
X113285496Y-106756909D01*
X113370298Y-106903568D01*
X113402488Y-106959304D01*
X113504992Y-107136848D01*
X113597507Y-107297164D01*
X113680567Y-107441264D01*
X113754702Y-107570158D01*
X113820443Y-107684858D01*
X113878322Y-107786376D01*
X113928869Y-107875723D01*
X113972616Y-107953910D01*
X114010093Y-108021949D01*
X114041833Y-108080851D01*
X114068365Y-108131627D01*
X114090222Y-108175289D01*
X114107934Y-108212847D01*
X114122033Y-108245314D01*
X114133050Y-108273701D01*
X114141515Y-108299019D01*
X114147960Y-108322279D01*
X114152917Y-108344493D01*
X114156916Y-108366673D01*
X114160488Y-108389828D01*
X114163073Y-108407528D01*
X114168544Y-108501065D01*
X114160204Y-108602270D01*
X114139167Y-108703952D01*
X114106544Y-108798922D01*
X114100354Y-108812947D01*
X114089697Y-108833841D01*
X114069450Y-108871092D01*
X114040371Y-108923390D01*
X114003219Y-108989427D01*
X113958752Y-109067893D01*
X113907731Y-109157480D01*
X113850912Y-109256878D01*
X113789055Y-109364778D01*
X113722919Y-109479873D01*
X113653262Y-109600851D01*
X113580843Y-109726405D01*
X113506421Y-109855226D01*
X113430754Y-109986004D01*
X113354602Y-110117431D01*
X113278722Y-110248197D01*
X113203874Y-110376994D01*
X113130817Y-110502512D01*
X113060309Y-110623442D01*
X112993108Y-110738476D01*
X112929974Y-110846305D01*
X112871665Y-110945619D01*
X112818940Y-111035109D01*
X112772558Y-111113467D01*
X112733277Y-111179384D01*
X112701856Y-111231550D01*
X112679054Y-111268656D01*
X112665630Y-111289394D01*
X112662859Y-111293028D01*
X112605965Y-111338935D01*
X112541991Y-111366717D01*
X112474433Y-111376235D01*
X112406791Y-111367353D01*
X112342563Y-111339934D01*
X112298888Y-111307261D01*
X112289658Y-111296582D01*
X112275405Y-111276675D01*
X112255712Y-111246838D01*
X112230162Y-111206368D01*
X112198340Y-111154562D01*
X112159826Y-111090718D01*
X112114206Y-111014132D01*
X112061062Y-110924101D01*
X111999978Y-110819923D01*
X111930536Y-110700895D01*
X111852320Y-110566313D01*
X111764913Y-110415476D01*
X111667898Y-110247680D01*
X111570505Y-110078947D01*
X111485927Y-109932273D01*
X111403981Y-109790080D01*
X111325316Y-109653495D01*
X111250576Y-109523643D01*
X111180410Y-109401651D01*
X111115462Y-109288644D01*
X111056380Y-109185749D01*
X111003811Y-109094091D01*
X110958400Y-109014797D01*
X110920794Y-108948992D01*
X110891640Y-108897803D01*
X110871584Y-108862355D01*
X110861273Y-108843775D01*
X110860397Y-108842105D01*
X110825497Y-108761323D01*
X110802259Y-108677461D01*
X110789207Y-108584186D01*
X110785652Y-108521053D01*
X110785350Y-108434211D01*
X110790371Y-108364964D01*
X110796126Y-108331579D01*
X110808807Y-108284856D01*
X110825649Y-108233534D01*
X110836360Y-108205263D01*
X110844290Y-108189573D01*
X110862020Y-108156990D01*
X110888789Y-108108834D01*
X110923838Y-108046426D01*
X110966406Y-107971090D01*
X111015734Y-107884145D01*
X111071060Y-107786914D01*
X111131627Y-107680717D01*
X111196672Y-107566877D01*
X111265436Y-107446714D01*
X111337160Y-107321550D01*
X111411082Y-107192707D01*
X111486443Y-107061505D01*
X111562482Y-106929267D01*
X111638440Y-106797314D01*
X111713557Y-106666966D01*
X111787072Y-106539547D01*
X111858226Y-106416376D01*
X111926258Y-106298776D01*
X111990408Y-106188068D01*
X112049916Y-106085573D01*
X112104022Y-105992613D01*
X112151966Y-105910509D01*
X112192988Y-105840582D01*
X112226327Y-105784155D01*
X112251225Y-105742548D01*
X112266919Y-105717083D01*
X112271487Y-105710256D01*
X112294188Y-105687403D01*
X112327325Y-105662501D01*
X112351569Y-105647756D01*
X112417288Y-105623033D01*
X112485804Y-105616817D01*
X112552890Y-105628360D01*
G37*
G36*
X108479522Y-112701267D02*
G01*
X108541657Y-112733284D01*
X108563571Y-112750647D01*
X108573342Y-112762504D01*
X108590263Y-112787220D01*
X108614609Y-112825257D01*
X108646652Y-112877078D01*
X108686667Y-112943144D01*
X108734928Y-113023919D01*
X108791708Y-113119864D01*
X108857281Y-113231442D01*
X108931922Y-113359116D01*
X109015904Y-113503348D01*
X109109500Y-113664599D01*
X109212986Y-113843334D01*
X109303529Y-114000000D01*
X109408919Y-114182457D01*
X109504322Y-114347652D01*
X109590233Y-114496583D01*
X109667150Y-114630247D01*
X109735570Y-114749640D01*
X109795990Y-114855760D01*
X109848907Y-114949603D01*
X109894818Y-115032166D01*
X109934221Y-115104447D01*
X109967613Y-115167442D01*
X109995490Y-115222148D01*
X110018349Y-115269562D01*
X110036688Y-115310681D01*
X110051005Y-115346503D01*
X110061795Y-115378022D01*
X110069556Y-115406238D01*
X110074785Y-115432146D01*
X110077980Y-115456744D01*
X110079636Y-115481029D01*
X110080253Y-115505997D01*
X110080325Y-115532646D01*
X110080333Y-115557895D01*
X110078247Y-115644249D01*
X110070293Y-115717052D01*
X110054990Y-115783345D01*
X110030858Y-115850166D01*
X110008412Y-115900000D01*
X109996522Y-115922938D01*
X109975134Y-115962063D01*
X109945008Y-116016064D01*
X109906905Y-116083629D01*
X109861585Y-116163447D01*
X109809809Y-116254206D01*
X109752339Y-116354596D01*
X109689934Y-116463306D01*
X109623356Y-116579023D01*
X109553365Y-116700436D01*
X109480722Y-116826235D01*
X109406188Y-116955108D01*
X109330524Y-117085743D01*
X109254489Y-117216830D01*
X109178846Y-117347057D01*
X109104354Y-117475112D01*
X109031775Y-117599684D01*
X108961869Y-117719463D01*
X108895397Y-117833137D01*
X108833120Y-117939394D01*
X108775798Y-118036923D01*
X108724192Y-118124413D01*
X108679063Y-118200552D01*
X108641172Y-118264030D01*
X108611279Y-118313535D01*
X108590146Y-118347755D01*
X108578532Y-118365380D01*
X108577134Y-118367116D01*
X108522098Y-118410469D01*
X108456374Y-118436529D01*
X108390879Y-118444210D01*
X108318047Y-118434635D01*
X108253326Y-118406705D01*
X108204637Y-118367116D01*
X108195691Y-118354147D01*
X108177021Y-118324231D01*
X108149389Y-118278680D01*
X108113555Y-118218803D01*
X108070280Y-118145915D01*
X108020325Y-118061324D01*
X107964450Y-117966344D01*
X107903417Y-117862285D01*
X107837986Y-117750460D01*
X107768919Y-117632179D01*
X107696976Y-117508754D01*
X107622917Y-117381496D01*
X107547504Y-117251717D01*
X107471498Y-117120729D01*
X107395659Y-116989843D01*
X107320749Y-116860370D01*
X107247527Y-116733622D01*
X107176756Y-116610910D01*
X107109195Y-116493546D01*
X107045606Y-116382842D01*
X106986749Y-116280108D01*
X106933385Y-116186656D01*
X106886276Y-116103798D01*
X106846182Y-116032845D01*
X106813863Y-115975109D01*
X106790081Y-115931902D01*
X106775597Y-115904533D01*
X106773365Y-115900000D01*
X106752951Y-115853226D01*
X106734013Y-115803146D01*
X106721392Y-115763158D01*
X106711479Y-115712262D01*
X106704375Y-115648610D01*
X106700425Y-115579685D01*
X106699973Y-115512969D01*
X106703362Y-115455943D01*
X106706293Y-115435102D01*
X106714915Y-115398138D01*
X106728580Y-115351105D01*
X106744509Y-115303483D01*
X106746410Y-115298260D01*
X106756245Y-115276726D01*
X106775772Y-115238755D01*
X106804237Y-115185649D01*
X106840889Y-115118711D01*
X106884973Y-115039245D01*
X106935739Y-114948552D01*
X106992433Y-114847936D01*
X107054302Y-114738699D01*
X107120593Y-114622145D01*
X107190555Y-114499576D01*
X107263435Y-114372294D01*
X107338479Y-114241604D01*
X107414936Y-114108807D01*
X107492052Y-113975207D01*
X107569075Y-113842106D01*
X107645252Y-113710808D01*
X107719830Y-113582614D01*
X107792058Y-113458828D01*
X107861182Y-113340753D01*
X107926449Y-113229691D01*
X107987107Y-113126946D01*
X108042404Y-113033819D01*
X108091586Y-112951615D01*
X108133901Y-112881635D01*
X108168597Y-112825183D01*
X108194920Y-112783561D01*
X108212118Y-112758073D01*
X108218188Y-112750647D01*
X108277031Y-112711685D01*
X108343005Y-112690468D01*
X108411903Y-112686995D01*
X108479522Y-112701267D01*
G37*
%TO.C,JP2*%
X137100000Y-118600000D02*
X137700000Y-118600000D01*
X138400000Y-119300000D02*
X138400000Y-120700000D01*
X136400000Y-120700000D02*
X136400000Y-119300000D01*
X137700000Y-121400000D02*
X137100000Y-121400000D01*
X138400000Y-119300000D02*
G75*
G03*
X137700000Y-118600000I-699999J1D01*
G01*
X137100000Y-118600000D02*
G75*
G03*
X136400000Y-119300000I-1J-699999D01*
G01*
X137700000Y-121400000D02*
G75*
G03*
X138400000Y-120700000I0J700000D01*
G01*
X136400000Y-120700000D02*
G75*
G03*
X137100000Y-121400000I700000J0D01*
G01*
%TO.C,TP2*%
X147450000Y-108750000D02*
G75*
G03*
X147450000Y-108750000I-1200000J0D01*
G01*
%TO.C,TP1*%
X147450000Y-105250000D02*
G75*
G03*
X147450000Y-105250000I-1200000J0D01*
G01*
%TO.C,JP4*%
X150350000Y-114050000D02*
X150350000Y-113450000D01*
X151050000Y-112750000D02*
X152450000Y-112750000D01*
X152450000Y-114750000D02*
X151050000Y-114750000D01*
X153150000Y-113450000D02*
X153150000Y-114050000D01*
X151050000Y-112750000D02*
G75*
G03*
X150350000Y-113450000I-1J-699999D01*
G01*
X150350000Y-114050000D02*
G75*
G03*
X151050000Y-114750000I699999J-1D01*
G01*
X153150000Y-113450000D02*
G75*
G03*
X152450000Y-112750000I-700000J0D01*
G01*
X152450000Y-114750000D02*
G75*
G03*
X153150000Y-114050000I0J700000D01*
G01*
%TO.C,JP5*%
X150350000Y-100550000D02*
X150350000Y-99950000D01*
X151050000Y-99250000D02*
X152450000Y-99250000D01*
X152450000Y-101250000D02*
X151050000Y-101250000D01*
X153150000Y-99950000D02*
X153150000Y-100550000D01*
X151050000Y-99250000D02*
G75*
G03*
X150350000Y-99950000I-1J-699999D01*
G01*
X150350000Y-100550000D02*
G75*
G03*
X151050000Y-101250000I699999J-1D01*
G01*
X153150000Y-99950000D02*
G75*
G03*
X152450000Y-99250000I-700000J0D01*
G01*
X152450000Y-101250000D02*
G75*
G03*
X153150000Y-100550000I0J700000D01*
G01*
%TD*%
M02*
