M48
; DRILL file {KiCad 7.0.1} date Τρι 02 Μαΐ 2023 06:46:28 μμ EEST
; FORMAT={-:-/ absolute / inch / decimal}
; #@! TF.CreationDate,2023-05-02T18:46:28+03:00
; #@! TF.GenerationSoftware,Kicad,Pcbnew,7.0.1
; #@! TF.FileFunction,Plated,1,4,PTH
FMAT,2
INCH
; #@! TA.AperFunction,Plated,PTH,ViaDrill
T1C0.0157
; #@! TA.AperFunction,Plated,PTH,ComponentDrill
T2C0.0295
; #@! TA.AperFunction,Plated,PTH,ComponentDrill
T3C0.0394
; #@! TA.AperFunction,Plated,PTH,ComponentDrill
T4C0.1063
%
G90
G05
T1
X3.6417Y-4.2224
X3.6811Y-3.9764
X3.874Y-4.2323
X3.9331Y-4.6772
X3.9764Y-3.9488
X3.9961Y-4.6352
X4.0079Y-3.9488
X4.023Y-4.6037
X4.0394Y-3.9488
X4.0748Y-4.2953
X4.0748Y-4.4778
X4.1024Y-3.9488
X4.1339Y-3.9488
X4.1339Y-4.3031
X4.1535Y-4.7677
X4.1654Y-3.9488
X4.2047Y-4.4409
X4.2047Y-4.5906
X4.2362Y-4.4409
X4.2362Y-4.5906
X4.2441Y-4.7677
X4.2677Y-4.4409
X4.2677Y-4.5906
X4.2874Y-4.378
X4.4193Y-4.2224
X4.4193Y-4.4193
X4.4587Y-4.5374
X4.4685Y-4.2224
X4.498Y-4.4193
X4.5866Y-4.0945
T2
X3.8563Y-4.0157
X3.8563Y-4.0945
X3.8583Y-4.3307
X3.8583Y-4.4094
X4.626Y-4.7047
X4.7047Y-4.7047
T3
X3.9134Y-3.7091
X3.9134Y-3.8091
X4.0134Y-3.7091
X4.0134Y-3.8091
X4.1134Y-3.7091
X4.1134Y-3.8091
X4.2134Y-3.7091
X4.2134Y-3.8091
X4.3134Y-3.7091
X4.3134Y-3.8091
X4.4134Y-3.7091
X4.4134Y-3.8091
X4.5134Y-3.7091
X4.5134Y-3.8091
X4.6134Y-3.7091
X4.6134Y-3.8091
X4.7134Y-3.7091
X4.7134Y-3.8091
X4.8134Y-3.7091
X4.8134Y-3.8091
X4.9134Y-3.7091
X4.9134Y-3.8091
X5.0134Y-3.7091
X5.0134Y-3.8091
X5.1134Y-3.7091
X5.1134Y-3.8091
X5.2134Y-3.7091
X5.2134Y-3.8091
X5.3134Y-3.7091
X5.3134Y-3.8091
X5.4134Y-3.7091
X5.4134Y-3.8091
X5.5134Y-3.7091
X5.5134Y-3.8091
X5.6134Y-3.7091
X5.6134Y-3.8091
X5.7134Y-3.7091
X5.7134Y-3.8091
X5.8134Y-3.7091
X5.8134Y-3.8091
T4
X3.7205Y-3.7598
X3.7205Y-4.6654
X6.0039Y-3.7598
X6.0039Y-4.6654
T0
M30
