  0
SECTION
  2
HEADER
  9
$ANGBASE
  50
0.0
  9
$ANGDIR
  70
1
  9
$MEASUREMENT
  70
0
  0
ENDSEC
  0
SECTION
  2
TABLES
  0
TABLE
  2
LTYPE
  70
4
  0
LTYPE
  5
40F
  2
CONTINUOUS
  70
0
  3
Solid line
  72
65
  73
0
  40
0.0
  0
LTYPE
  5
410
  2
DASHDOT
 70
0
  3
Dash Dot ____ _ ____ _
 72
65
 73
4
 40
2.0
 49
1.25
 49
-0.25
 49
0.25
 49
-0.25
  0
LTYPE
  5
411
  2
DASHED
 70
0
  3
Dashed __ __ __ __ __
 72
65
 73
2
 40
0.75
 49
0.5
 49
-0.25
  0
LTYPE
  5
43B
  2
DOTTED
 70
0
  3
Dotted .  .  .  .
 72
65
 73
2
 40
0.2
 49
0.0
 49
-0.2
  0
ENDTAB
  0
TABLE
  2
STYLE
  70
4
  0
STYLE
  2
KICAD
  70
0
  40
0
  41
1
  42
1
  50
0
  71
0
  3
isocp.shx
  0
STYLE
  2
KICADB
  70
0
  40
0
  41
1
  42
1
  50
0
  71
0
  3
isocp.shx
  0
STYLE
  2
KICADI
  70
0
  40
0
  41
1
  42
1
  50
15
  71
0
  3
isocp.shx
  0
STYLE
  2
KICADBI
  70
0
  40
0
  41
1
  42
1
  50
15
  71
0
  3
isocp.shx
  0
ENDTAB
  0
TABLE
  2
LAYER
  70
1
  0
LAYER
  2
BLACK
  70
0
  62
7
  6
CONTINUOUS
  0
ENDTAB
  0
ENDSEC
  0
SECTION
  2
ENTITIES
0
ARC
8
BLACK
10
5.28346
20
-4.43504
40
0.0295276
50
-90
51
90
0
LINE
8
BLACK
6
CONTINUOUS
10
5.2126
20
-4.40551
11
5.14173
21
-4.40551
0
LINE
8
BLACK
6
CONTINUOUS
10
3.58268
20
-4.68504
11
3.58268
21
-4.52756
0
ARC
8
BLACK
10
6.02362
20
-4.68504
40
0.11811
50
-90
51
-0
0
LINE
8
BLACK
6
CONTINUOUS
10
5.2126
20
-4.40551
11
5.28346
21
-4.40551
0
LINE
8
BLACK
6
CONTINUOUS
10
5.2126
20
-4.46457
11
5.14173
21
-4.46457
0
LINE
8
BLACK
6
CONTINUOUS
10
3.58268
20
-3.89764
11
3.64173
21
-3.95669
0
LINE
8
BLACK
6
CONTINUOUS
10
6.14173
20
-4.68504
11
6.14173
21
-3.74016
0
LINE
8
BLACK
6
CONTINUOUS
10
3.58268
20
-4.52756
11
3.64173
21
-4.4685
0
LINE
8
BLACK
6
CONTINUOUS
10
3.58268
20
-3.74016
11
3.58268
21
-3.89764
0
LINE
8
BLACK
6
CONTINUOUS
10
5.2126
20
-4.46457
11
5.28346
21
-4.46457
0
ARC
8
BLACK
10
6.02362
20
-3.74016
40
0.11811
50
-0
51
90
0
ARC
8
BLACK
10
3.70079
20
-3.74016
40
0.11811
50
90
51
180
0
ARC
8
BLACK
10
3.70079
20
-4.68504
40
0.11811
50
-180
51
-90
0
LINE
8
BLACK
6
CONTINUOUS
10
3.64173
20
-4.4685
11
3.64173
21
-3.95669
0
LINE
8
BLACK
6
CONTINUOUS
10
3.70079
20
-4.80315
11
6.02362
21
-4.80315
0
LINE
8
BLACK
6
CONTINUOUS
10
6.02362
20
-3.62205
11
3.70079
21
-3.62205
0
ARC
8
BLACK
10
5.14173
20
-4.43504
40
0.0295276
50
-270
51
-90
0
LINE
8
BLACK
6
CONTINUOUS
10
4.42323
20
-3.98031
11
4.4311
21
-3.98819
0
LINE
8
BLACK
6
CONTINUOUS
10
4.4311
20
-3.98031
11
4.42323
21
-3.98819
0
LINE
8
BLACK
6
CONTINUOUS
10
4.42323
20
-4.01181
11
4.4311
21
-4.01969
0
LINE
8
BLACK
6
CONTINUOUS
10
4.4311
20
-4.01181
11
4.42323
21
-4.01969
0
LINE
8
BLACK
6
CONTINUOUS
10
4.42323
20
-4.04331
11
4.4311
21
-4.05118
0
LINE
8
BLACK
6
CONTINUOUS
10
4.4311
20
-4.04331
11
4.42323
21
-4.05118
0
LINE
8
BLACK
6
CONTINUOUS
10
4.45472
20
-3.98031
11
4.4626
21
-3.98819
0
LINE
8
BLACK
6
CONTINUOUS
10
4.4626
20
-3.98031
11
4.45472
21
-3.98819
0
LINE
8
BLACK
6
CONTINUOUS
10
4.45472
20
-4.01181
11
4.4626
21
-4.01969
0
LINE
8
BLACK
6
CONTINUOUS
10
4.4626
20
-4.01181
11
4.45472
21
-4.01969
0
LINE
8
BLACK
6
CONTINUOUS
10
4.45472
20
-4.04331
11
4.4626
21
-4.05118
0
LINE
8
BLACK
6
CONTINUOUS
10
4.4626
20
-4.04331
11
4.45472
21
-4.05118
0
LINE
8
BLACK
6
CONTINUOUS
10
4.48622
20
-3.98031
11
4.49409
21
-3.98819
0
LINE
8
BLACK
6
CONTINUOUS
10
4.49409
20
-3.98031
11
4.48622
21
-3.98819
0
LINE
8
BLACK
6
CONTINUOUS
10
4.48622
20
-4.01181
11
4.49409
21
-4.01969
0
LINE
8
BLACK
6
CONTINUOUS
10
4.49409
20
-4.01181
11
4.48622
21
-4.01969
0
LINE
8
BLACK
6
CONTINUOUS
10
4.48622
20
-4.04331
11
4.49409
21
-4.05118
0
LINE
8
BLACK
6
CONTINUOUS
10
4.49409
20
-4.04331
11
4.48622
21
-4.05118
0
LINE
8
BLACK
6
CONTINUOUS
10
4.73031
20
-4.12008
11
4.73819
21
-4.12795
0
LINE
8
BLACK
6
CONTINUOUS
10
4.73819
20
-4.12008
11
4.73031
21
-4.12795
0
LINE
8
BLACK
6
CONTINUOUS
10
4.76969
20
-4.12008
11
4.77756
21
-4.12795
0
LINE
8
BLACK
6
CONTINUOUS
10
4.77756
20
-4.12008
11
4.76969
21
-4.12795
0
LINE
8
BLACK
6
CONTINUOUS
10
5.38976
20
-4.07087
11
5.39764
21
-4.07874
0
LINE
8
BLACK
6
CONTINUOUS
10
5.39764
20
-4.07087
11
5.38976
21
-4.07874
0
LINE
8
BLACK
6
CONTINUOUS
10
5.38976
20
-4.11024
11
5.39764
21
-4.11811
0
LINE
8
BLACK
6
CONTINUOUS
10
5.39764
20
-4.11024
11
5.38976
21
-4.11811
0
LINE
8
BLACK
6
CONTINUOUS
10
5.38976
20
-4.14961
11
5.39764
21
-4.15748
0
LINE
8
BLACK
6
CONTINUOUS
10
5.39764
20
-4.14961
11
5.38976
21
-4.15748
0
LINE
8
BLACK
6
CONTINUOUS
10
5.42913
20
-4.07087
11
5.43701
21
-4.07874
0
LINE
8
BLACK
6
CONTINUOUS
10
5.43701
20
-4.07087
11
5.42913
21
-4.07874
0
LINE
8
BLACK
6
CONTINUOUS
10
5.42913
20
-4.11024
11
5.43701
21
-4.11811
0
LINE
8
BLACK
6
CONTINUOUS
10
5.43701
20
-4.11024
11
5.42913
21
-4.11811
0
LINE
8
BLACK
6
CONTINUOUS
10
5.42913
20
-4.14961
11
5.43701
21
-4.15748
0
LINE
8
BLACK
6
CONTINUOUS
10
5.43701
20
-4.14961
11
5.42913
21
-4.15748
0
CIRCLE
8
BLACK
10
3.70472
20
-4.22835
40
0.00590551
0
CIRCLE
8
BLACK
10
3.74606
20
-4.48819
40
0.00590551
0
CIRCLE
8
BLACK
10
3.79035
20
-4.07579
40
0.00590551
0
CIRCLE
8
BLACK
10
3.8189
20
-3.65157
40
0.00590551
0
CIRCLE
8
BLACK
10
3.82677
20
-4.15748
40
0.00590551
0
CIRCLE
8
BLACK
10
3.86811
20
-3.8878
40
0.00590551
0
CIRCLE
8
BLACK
10
3.90553
20
-4.0748
40
0.00590551
0
CIRCLE
8
BLACK
10
4.11339
20
-4.15748
40
0.00590551
0
CIRCLE
8
BLACK
10
4.14961
20
-3.86811
40
0.00590551
0
CIRCLE
8
BLACK
10
4.17323
20
-3.92911
40
0.00590551
0
CIRCLE
8
BLACK
10
4.1811
20
-3.97638
40
0.00590551
0
CIRCLE
8
BLACK
10
4.25197
20
-4.34646
40
0.00590551
0
CIRCLE
8
BLACK
10
4.26378
20
-4.47244
40
0.00590551
0
CIRCLE
8
BLACK
10
4.26772
20
-4.37402
40
0.00590551
0
CIRCLE
8
BLACK
10
4.31496
20
-4.1811
40
0.00590551
0
CIRCLE
8
BLACK
10
4.34244
20
-3.9764
40
0.00590551
0
CIRCLE
8
BLACK
10
4.38533
20
-4.08907
40
0.00590551
0
CIRCLE
8
BLACK
10
4.38829
20
-4.70472
40
0.00590551
0
CIRCLE
8
BLACK
10
4.44587
20
-4.15748
40
0.00590551
0
CIRCLE
8
BLACK
10
4.48358
20
-4.18571
40
0.00590551
0
CIRCLE
8
BLACK
10
4.53199
20
-4.12402
40
0.00590551
0
CIRCLE
8
BLACK
10
4.56693
20
-4.12402
40
0.00590551
0
CIRCLE
8
BLACK
10
4.57677
20
-4.34646
40
0.00590551
0
CIRCLE
8
BLACK
10
4.65943
20
-4.73919
40
0.00590551
0
CIRCLE
8
BLACK
10
4.6752
20
-4.62598
40
0.00590551
0
CIRCLE
8
BLACK
10
4.6902
20
-4.6752
40
0.00590551
0
CIRCLE
8
BLACK
10
4.7655
20
-4.19624
40
0.00590551
0
CIRCLE
8
BLACK
10
4.83169
20
-4.10531
40
0.00590551
0
CIRCLE
8
BLACK
10
4.90305
20
-4.70472
40
0.00590551
0
CIRCLE
8
BLACK
10
4.99506
20
-4.29134
40
0.00590551
0
CIRCLE
8
BLACK
10
5.01821
20
-4.70472
40
0.00590551
0
CIRCLE
8
BLACK
10
5.40945
20
-4.75
40
0.00590551
0
CIRCLE
8
BLACK
10
5.51181
20
-4.75
40
0.00590551
0
CIRCLE
8
BLACK
10
5.55118
20
-4.24604
40
0.00590551
0
CIRCLE
8
BLACK
10
5.55553
20
-4.32648
40
0.00590551
0
LINE
8
BLACK
6
CONTINUOUS
10
3.62205
20
-3.88976
11
3.62205
21
-3.90551
0
LINE
8
BLACK
6
CONTINUOUS
10
3.61417
20
-3.89764
11
3.62992
21
-3.89764
0
LINE
8
BLACK
6
CONTINUOUS
10
3.62205
20
-4.51969
11
3.62205
21
-4.53543
0
LINE
8
BLACK
6
CONTINUOUS
10
3.61417
20
-4.52756
11
3.62992
21
-4.52756
0
LINE
8
BLACK
6
CONTINUOUS
10
3.72047
20
-4.04724
11
3.72047
21
-4.06299
0
LINE
8
BLACK
6
CONTINUOUS
10
3.7126
20
-4.05512
11
3.72835
21
-4.05512
0
LINE
8
BLACK
6
CONTINUOUS
10
3.85827
20
-4.75591
11
3.85827
21
-4.77165
0
LINE
8
BLACK
6
CONTINUOUS
10
3.85039
20
-4.76378
11
3.86614
21
-4.76378
0
LINE
8
BLACK
6
CONTINUOUS
10
3.89764
20
-4.67717
11
3.89764
21
-4.69291
0
LINE
8
BLACK
6
CONTINUOUS
10
3.88976
20
-4.68504
11
3.90551
21
-4.68504
0
LINE
8
BLACK
6
CONTINUOUS
10
3.93701
20
-4.41142
11
3.93701
21
-4.42717
0
LINE
8
BLACK
6
CONTINUOUS
10
3.92913
20
-4.41929
11
3.94488
21
-4.41929
0
LINE
8
BLACK
6
CONTINUOUS
10
3.93701
20
-4.75591
11
3.93701
21
-4.77165
0
LINE
8
BLACK
6
CONTINUOUS
10
3.92913
20
-4.76378
11
3.94488
21
-4.76378
0
LINE
8
BLACK
6
CONTINUOUS
10
3.95669
20
-4.39173
11
3.95669
21
-4.40748
0
LINE
8
BLACK
6
CONTINUOUS
10
3.94882
20
-4.39961
11
3.96457
21
-4.39961
0
LINE
8
BLACK
6
CONTINUOUS
10
3.97638
20
-4.41142
11
3.97638
21
-4.42717
0
LINE
8
BLACK
6
CONTINUOUS
10
3.9685
20
-4.41929
11
3.98425
21
-4.41929
0
LINE
8
BLACK
6
CONTINUOUS
10
4.01575
20
-3.92913
11
4.01575
21
-3.94488
0
LINE
8
BLACK
6
CONTINUOUS
10
4.00787
20
-3.93701
11
4.02362
21
-3.93701
0
LINE
8
BLACK
6
CONTINUOUS
10
4.02559
20
-4.41142
11
4.02559
21
-4.42717
0
LINE
8
BLACK
6
CONTINUOUS
10
4.01772
20
-4.41929
11
4.03346
21
-4.41929
0
LINE
8
BLACK
6
CONTINUOUS
10
4.04528
20
-4.44094
11
4.04528
21
-4.45669
0
LINE
8
BLACK
6
CONTINUOUS
10
4.0374
20
-4.44882
11
4.05315
21
-4.44882
0
LINE
8
BLACK
6
CONTINUOUS
10
4.06496
20
-4.41142
11
4.06496
21
-4.42717
0
LINE
8
BLACK
6
CONTINUOUS
10
4.05709
20
-4.41929
11
4.07283
21
-4.41929
0
LINE
8
BLACK
6
CONTINUOUS
10
4.19291
20
-4.59843
11
4.19291
21
-4.61417
0
LINE
8
BLACK
6
CONTINUOUS
10
4.18504
20
-4.6063
11
4.20079
21
-4.6063
0
LINE
8
BLACK
6
CONTINUOUS
10
4.19291
20
-4.67717
11
4.19291
21
-4.69291
0
LINE
8
BLACK
6
CONTINUOUS
10
4.18504
20
-4.68504
11
4.20079
21
-4.68504
0
LINE
8
BLACK
6
CONTINUOUS
10
4.29134
20
-3.92126
11
4.29134
21
-3.93701
0
LINE
8
BLACK
6
CONTINUOUS
10
4.28346
20
-3.92913
11
4.29921
21
-3.92913
0
LINE
8
BLACK
6
CONTINUOUS
10
4.29134
20
-4.04528
11
4.29134
21
-4.06102
0
LINE
8
BLACK
6
CONTINUOUS
10
4.28346
20
-4.05315
11
4.29921
21
-4.05315
0
LINE
8
BLACK
6
CONTINUOUS
10
4.38533
20
-3.93455
11
4.38533
21
-3.9503
0
LINE
8
BLACK
6
CONTINUOUS
10
4.37746
20
-3.94242
11
4.39321
21
-3.94242
0
LINE
8
BLACK
6
CONTINUOUS
10
4.53543
20
-4.64173
11
4.53543
21
-4.65748
0
LINE
8
BLACK
6
CONTINUOUS
10
4.52756
20
-4.64961
11
4.54331
21
-4.64961
0
LINE
8
BLACK
6
CONTINUOUS
10
4.59646
20
-4.08465
11
4.59646
21
-4.10039
0
LINE
8
BLACK
6
CONTINUOUS
10
4.58858
20
-4.09252
11
4.60433
21
-4.09252
0
LINE
8
BLACK
6
CONTINUOUS
10
4.59646
20
-4.14764
11
4.59646
21
-4.16339
0
LINE
8
BLACK
6
CONTINUOUS
10
4.58858
20
-4.15551
11
4.60433
21
-4.15551
0
LINE
8
BLACK
6
CONTINUOUS
10
4.73425
20
-3.89565
11
4.73425
21
-3.9114
0
LINE
8
BLACK
6
CONTINUOUS
10
4.72638
20
-3.90352
11
4.74213
21
-3.90352
0
LINE
8
BLACK
6
CONTINUOUS
10
4.74409
20
-4.34252
11
4.74409
21
-4.35827
0
LINE
8
BLACK
6
CONTINUOUS
10
4.73622
20
-4.35039
11
4.75197
21
-4.35039
0
LINE
8
BLACK
6
CONTINUOUS
10
4.74409
20
-4.50984
11
4.74409
21
-4.52559
0
LINE
8
BLACK
6
CONTINUOUS
10
4.73622
20
-4.51772
11
4.75197
21
-4.51772
0
LINE
8
BLACK
6
CONTINUOUS
10
4.74409
20
-4.71654
11
4.74409
21
-4.73228
0
LINE
8
BLACK
6
CONTINUOUS
10
4.73622
20
-4.72441
11
4.75197
21
-4.72441
0
LINE
8
BLACK
6
CONTINUOUS
10
4.80906
20
-3.89565
11
4.80906
21
-3.9114
0
LINE
8
BLACK
6
CONTINUOUS
10
4.80118
20
-3.90352
11
4.81693
21
-3.90352
0
LINE
8
BLACK
6
CONTINUOUS
10
4.83415
20
-4.30315
11
4.83415
21
-4.3189
0
LINE
8
BLACK
6
CONTINUOUS
10
4.82628
20
-4.31102
11
4.84203
21
-4.31102
0
LINE
8
BLACK
6
CONTINUOUS
10
4.87205
20
-4.02756
11
4.87205
21
-4.04331
0
LINE
8
BLACK
6
CONTINUOUS
10
4.86417
20
-4.03543
11
4.87992
21
-4.03543
0
LINE
8
BLACK
6
CONTINUOUS
10
4.87205
20
-4.08661
11
4.87205
21
-4.10236
0
LINE
8
BLACK
6
CONTINUOUS
10
4.86417
20
-4.09449
11
4.87992
21
-4.09449
0
LINE
8
BLACK
6
CONTINUOUS
10
4.94931
20
-4.30315
11
4.94931
21
-4.3189
0
LINE
8
BLACK
6
CONTINUOUS
10
4.94144
20
-4.31102
11
4.95719
21
-4.31102
0
LINE
8
BLACK
6
CONTINUOUS
10
4.98031
20
-4.05709
11
4.98031
21
-4.07283
0
LINE
8
BLACK
6
CONTINUOUS
10
4.97244
20
-4.06496
11
4.98819
21
-4.06496
0
LINE
8
BLACK
6
CONTINUOUS
10
5.00984
20
-4.00787
11
5.00984
21
-4.02362
0
LINE
8
BLACK
6
CONTINUOUS
10
5.00197
20
-4.01575
11
5.01772
21
-4.01575
0
LINE
8
BLACK
6
CONTINUOUS
10
5.0689
20
-4.00787
11
5.0689
21
-4.02362
0
LINE
8
BLACK
6
CONTINUOUS
10
5.06102
20
-4.01575
11
5.07677
21
-4.01575
0
LINE
8
BLACK
6
CONTINUOUS
10
5.0689
20
-4.40157
11
5.0689
21
-4.41732
0
LINE
8
BLACK
6
CONTINUOUS
10
5.06102
20
-4.40945
11
5.07677
21
-4.40945
0
LINE
8
BLACK
6
CONTINUOUS
10
5.0689
20
-4.4311
11
5.0689
21
-4.44685
0
LINE
8
BLACK
6
CONTINUOUS
10
5.06102
20
-4.43898
11
5.07677
21
-4.43898
0
LINE
8
BLACK
6
CONTINUOUS
10
5.0689
20
-4.46063
11
5.0689
21
-4.47638
0
LINE
8
BLACK
6
CONTINUOUS
10
5.06102
20
-4.4685
11
5.07677
21
-4.4685
0
LINE
8
BLACK
6
CONTINUOUS
10
5.0689
20
-4.52953
11
5.0689
21
-4.54528
0
LINE
8
BLACK
6
CONTINUOUS
10
5.06102
20
-4.5374
11
5.07677
21
-4.5374
0
LINE
8
BLACK
6
CONTINUOUS
10
5.0689
20
-4.55906
11
5.0689
21
-4.5748
0
LINE
8
BLACK
6
CONTINUOUS
10
5.06102
20
-4.56693
11
5.07677
21
-4.56693
0
LINE
8
BLACK
6
CONTINUOUS
10
5.0689
20
-4.58858
11
5.0689
21
-4.60433
0
LINE
8
BLACK
6
CONTINUOUS
10
5.06102
20
-4.59646
11
5.07677
21
-4.59646
0
LINE
8
BLACK
6
CONTINUOUS
10
5.12795
20
-4.00787
11
5.12795
21
-4.02362
0
LINE
8
BLACK
6
CONTINUOUS
10
5.12008
20
-4.01575
11
5.13583
21
-4.01575
0
LINE
8
BLACK
6
CONTINUOUS
10
5.13386
20
-4.75591
11
5.13386
21
-4.77165
0
LINE
8
BLACK
6
CONTINUOUS
10
5.12598
20
-4.76378
11
5.14173
21
-4.76378
0
LINE
8
BLACK
6
CONTINUOUS
10
5.18701
20
-4.00787
11
5.18701
21
-4.02362
0
LINE
8
BLACK
6
CONTINUOUS
10
5.17913
20
-4.01575
11
5.19488
21
-4.01575
0
LINE
8
BLACK
6
CONTINUOUS
10
5.2126
20
-4.75591
11
5.2126
21
-4.77165
0
LINE
8
BLACK
6
CONTINUOUS
10
5.20472
20
-4.76378
11
5.22047
21
-4.76378
0
LINE
8
BLACK
6
CONTINUOUS
10
5.24606
20
-4.00787
11
5.24606
21
-4.02362
0
LINE
8
BLACK
6
CONTINUOUS
10
5.23819
20
-4.01575
11
5.25394
21
-4.01575
0
LINE
8
BLACK
6
CONTINUOUS
10
5.27657
20
-4.06791
11
5.27657
21
-4.08366
0
LINE
8
BLACK
6
CONTINUOUS
10
5.2687
20
-4.07579
11
5.28445
21
-4.07579
0
LINE
8
BLACK
6
CONTINUOUS
10
5.29134
20
-4.75591
11
5.29134
21
-4.77165
0
LINE
8
BLACK
6
CONTINUOUS
10
5.28346
20
-4.76378
11
5.29921
21
-4.76378
0
LINE
8
BLACK
6
CONTINUOUS
10
5.38386
20
-4.42323
11
5.38386
21
-4.43898
0
LINE
8
BLACK
6
CONTINUOUS
10
5.37598
20
-4.4311
11
5.39173
21
-4.4311
0
LINE
8
BLACK
6
CONTINUOUS
10
5.41122
20
-3.99803
11
5.41122
21
-4.01378
0
LINE
8
BLACK
6
CONTINUOUS
10
5.40334
20
-4.00591
11
5.41909
21
-4.00591
0
LINE
8
BLACK
6
CONTINUOUS
10
5.48602
20
-3.89961
11
5.48602
21
-3.91535
0
LINE
8
BLACK
6
CONTINUOUS
10
5.47815
20
-3.90748
11
5.49389
21
-3.90748
0
LINE
8
BLACK
6
CONTINUOUS
10
5.55118
20
-4.28346
11
5.55118
21
-4.29921
0
LINE
8
BLACK
6
CONTINUOUS
10
5.54331
20
-4.29134
11
5.55906
21
-4.29134
0
LINE
8
BLACK
6
CONTINUOUS
10
5.56102
20
-4.06693
11
5.56102
21
-4.08268
0
LINE
8
BLACK
6
CONTINUOUS
10
5.55315
20
-4.0748
11
5.5689
21
-4.0748
0
LINE
8
BLACK
6
CONTINUOUS
10
5.62992
20
-4.65748
11
5.62992
21
-4.67323
0
LINE
8
BLACK
6
CONTINUOUS
10
5.62205
20
-4.66535
11
5.6378
21
-4.66535
0
LINE
8
BLACK
6
CONTINUOUS
10
5.62992
20
-4.75591
11
5.62992
21
-4.77165
0
LINE
8
BLACK
6
CONTINUOUS
10
5.62205
20
-4.76378
11
5.6378
21
-4.76378
0
LINE
8
BLACK
6
CONTINUOUS
10
5.63976
20
-3.93898
11
5.63976
21
-3.95472
0
LINE
8
BLACK
6
CONTINUOUS
10
5.63189
20
-3.94685
11
5.64764
21
-3.94685
0
LINE
8
BLACK
6
CONTINUOUS
10
5.65945
20
-4.15551
11
5.65945
21
-4.17126
0
LINE
8
BLACK
6
CONTINUOUS
10
5.65157
20
-4.16339
11
5.66732
21
-4.16339
0
LINE
8
BLACK
6
CONTINUOUS
10
5.65945
20
-4.27362
11
5.65945
21
-4.28937
0
LINE
8
BLACK
6
CONTINUOUS
10
5.65157
20
-4.2815
11
5.66732
21
-4.2815
0
LINE
8
BLACK
6
CONTINUOUS
10
5.70866
20
-4.65748
11
5.70866
21
-4.67323
0
LINE
8
BLACK
6
CONTINUOUS
10
5.70079
20
-4.66535
11
5.71654
21
-4.66535
0
LINE
8
BLACK
6
CONTINUOUS
10
5.70866
20
-4.75591
11
5.70866
21
-4.77165
0
LINE
8
BLACK
6
CONTINUOUS
10
5.70079
20
-4.76378
11
5.71654
21
-4.76378
0
LINE
8
BLACK
6
CONTINUOUS
10
5.74409
20
-3.99803
11
5.74409
21
-4.01378
0
LINE
8
BLACK
6
CONTINUOUS
10
5.73622
20
-4.00591
11
5.75197
21
-4.00591
0
LINE
8
BLACK
6
CONTINUOUS
10
5.7874
20
-4.65748
11
5.7874
21
-4.67323
0
LINE
8
BLACK
6
CONTINUOUS
10
5.77953
20
-4.66535
11
5.79528
21
-4.66535
0
LINE
8
BLACK
6
CONTINUOUS
10
5.7874
20
-4.75591
11
5.7874
21
-4.77165
0
LINE
8
BLACK
6
CONTINUOUS
10
5.77953
20
-4.76378
11
5.79528
21
-4.76378
0
LINE
8
BLACK
6
CONTINUOUS
10
5.80709
20
-4.05709
11
5.80709
21
-4.07283
0
LINE
8
BLACK
6
CONTINUOUS
10
5.79921
20
-4.06496
11
5.81496
21
-4.06496
0
LINE
8
BLACK
6
CONTINUOUS
10
5.80709
20
-4.35236
11
5.80709
21
-4.36811
0
LINE
8
BLACK
6
CONTINUOUS
10
5.79921
20
-4.36024
11
5.81496
21
-4.36024
0
LINE
8
BLACK
6
CONTINUOUS
10
5.86614
20
-4.55906
11
5.86614
21
-4.5748
0
LINE
8
BLACK
6
CONTINUOUS
10
5.85827
20
-4.56693
11
5.87402
21
-4.56693
0
LINE
8
BLACK
6
CONTINUOUS
10
5.86614
20
-4.75591
11
5.86614
21
-4.77165
0
LINE
8
BLACK
6
CONTINUOUS
10
5.85827
20
-4.76378
11
5.87402
21
-4.76378
0
LINE
8
BLACK
6
CONTINUOUS
10
5.88583
20
-3.87008
11
5.88583
21
-3.88583
0
LINE
8
BLACK
6
CONTINUOUS
10
5.87795
20
-3.87795
11
5.8937
21
-3.87795
0
LINE
8
BLACK
6
CONTINUOUS
10
5.98425
20
-4.08661
11
5.98425
21
-4.10236
0
LINE
8
BLACK
6
CONTINUOUS
10
5.97638
20
-4.09449
11
5.99213
21
-4.09449
0
LINE
8
BLACK
6
CONTINUOUS
10
5.98425
20
-4.20472
11
5.98425
21
-4.22047
0
LINE
8
BLACK
6
CONTINUOUS
10
5.97638
20
-4.2126
11
5.99213
21
-4.2126
0
LINE
8
BLACK
6
CONTINUOUS
10
5.98425
20
-4.32283
11
5.98425
21
-4.33858
0
LINE
8
BLACK
6
CONTINUOUS
10
5.97638
20
-4.33071
11
5.99213
21
-4.33071
0
LINE
8
BLACK
6
CONTINUOUS
10
6.09252
20
-3.9562
11
6.09252
21
-3.97195
0
LINE
8
BLACK
6
CONTINUOUS
10
6.08465
20
-3.96407
11
6.10039
21
-3.96407
0
LINE
8
BLACK
6
CONTINUOUS
10
6.09252
20
-4.45325
11
6.09252
21
-4.469
0
LINE
8
BLACK
6
CONTINUOUS
10
6.08465
20
-4.46112
11
6.10039
21
-4.46112
0
LINE
8
BLACK
6
CONTINUOUS
10
6.10236
20
-4.08661
11
6.10236
21
-4.10236
0
LINE
8
BLACK
6
CONTINUOUS
10
6.09449
20
-4.09449
11
6.11024
21
-4.09449
0
LINE
8
BLACK
6
CONTINUOUS
10
6.10236
20
-4.14567
11
6.10236
21
-4.16142
0
LINE
8
BLACK
6
CONTINUOUS
10
6.09449
20
-4.15354
11
6.11024
21
-4.15354
0
LINE
8
BLACK
6
CONTINUOUS
10
6.10236
20
-4.20472
11
6.10236
21
-4.22047
0
LINE
8
BLACK
6
CONTINUOUS
10
6.09449
20
-4.2126
11
6.11024
21
-4.2126
0
LINE
8
BLACK
6
CONTINUOUS
10
6.10236
20
-4.26378
11
6.10236
21
-4.27953
0
LINE
8
BLACK
6
CONTINUOUS
10
6.09449
20
-4.27165
11
6.11024
21
-4.27165
0
LINE
8
BLACK
6
CONTINUOUS
10
6.10236
20
-4.32283
11
6.10236
21
-4.33858
0
LINE
8
BLACK
6
CONTINUOUS
10
6.09449
20
-4.33071
11
6.11024
21
-4.33071
0
LINE
8
BLACK
6
CONTINUOUS
10
5.8802
20
-4.05087
11
5.8802
21
-4.03417
0
LINE
8
BLACK
6
CONTINUOUS
10
5.8802
20
-4.03417
11
5.8635
21
-4.03417
0
LINE
8
BLACK
6
CONTINUOUS
10
5.8635
20
-4.03417
11
5.8635
21
-4.05087
0
LINE
8
BLACK
6
CONTINUOUS
10
5.8635
20
-4.05087
11
5.8802
21
-4.05087
0
LINE
8
BLACK
6
CONTINUOUS
10
5.8935
20
-4.03071
11
5.8502
21
-4.03071
0
ARC
8
BLACK
10
5.8502
20
-4.04252
40
0.011811
50
450
51
630
0
LINE
8
BLACK
6
CONTINUOUS
10
5.8502
20
-4.05433
11
5.8935
21
-4.05433
0
ARC
8
BLACK
10
5.8935
20
-4.04252
40
0.011811
50
270
51
450
0
LINE
8
BLACK
6
CONTINUOUS
10
5.8802
20
-4.39103
11
5.8802
21
-4.37433
0
LINE
8
BLACK
6
CONTINUOUS
10
5.8802
20
-4.37433
11
5.8635
21
-4.37433
0
LINE
8
BLACK
6
CONTINUOUS
10
5.8635
20
-4.37433
11
5.8635
21
-4.39103
0
LINE
8
BLACK
6
CONTINUOUS
10
5.8635
20
-4.39103
11
5.8802
21
-4.39103
0
LINE
8
BLACK
6
CONTINUOUS
10
5.8935
20
-4.37087
11
5.8502
21
-4.37087
0
ARC
8
BLACK
10
5.8502
20
-4.38268
40
0.011811
50
450
51
630
0
LINE
8
BLACK
6
CONTINUOUS
10
5.8502
20
-4.39449
11
5.8935
21
-4.39449
0
ARC
8
BLACK
10
5.8935
20
-4.38268
40
0.011811
50
270
51
450
0
LINE
8
BLACK
6
CONTINUOUS
10
6.04477
20
-4.05087
11
6.04477
21
-4.03417
0
LINE
8
BLACK
6
CONTINUOUS
10
6.04477
20
-4.03417
11
6.02807
21
-4.03417
0
LINE
8
BLACK
6
CONTINUOUS
10
6.02807
20
-4.03417
11
6.02807
21
-4.05087
0
LINE
8
BLACK
6
CONTINUOUS
10
6.02807
20
-4.05087
11
6.04477
21
-4.05087
0
LINE
8
BLACK
6
CONTINUOUS
10
6.05217
20
-4.03071
11
6.02067
21
-4.03071
0
ARC
8
BLACK
10
6.02067
20
-4.04252
40
0.011811
50
450
51
630
0
LINE
8
BLACK
6
CONTINUOUS
10
6.02067
20
-4.05433
11
6.05217
21
-4.05433
0
ARC
8
BLACK
10
6.05217
20
-4.04252
40
0.011811
50
270
51
450
0
LINE
8
BLACK
6
CONTINUOUS
10
6.04477
20
-4.39103
11
6.04477
21
-4.37433
0
LINE
8
BLACK
6
CONTINUOUS
10
6.04477
20
-4.37433
11
6.02807
21
-4.37433
0
LINE
8
BLACK
6
CONTINUOUS
10
6.02807
20
-4.37433
11
6.02807
21
-4.39103
0
LINE
8
BLACK
6
CONTINUOUS
10
6.02807
20
-4.39103
11
6.04477
21
-4.39103
0
LINE
8
BLACK
6
CONTINUOUS
10
6.05217
20
-4.37087
11
6.02067
21
-4.37087
0
ARC
8
BLACK
10
6.02067
20
-4.38268
40
0.011811
50
450
51
630
0
LINE
8
BLACK
6
CONTINUOUS
10
6.02067
20
-4.39449
11
6.05217
21
-4.39449
0
ARC
8
BLACK
10
6.05217
20
-4.38268
40
0.011811
50
270
51
450
0
LINE
8
BLACK
6
CONTINUOUS
10
5.17323
20
-4.55413
11
5.18799
21
-4.53937
0
LINE
8
BLACK
6
CONTINUOUS
10
5.18799
20
-4.53937
11
5.17323
21
-4.52461
0
LINE
8
BLACK
6
CONTINUOUS
10
5.17323
20
-4.52461
11
5.15846
21
-4.53937
0
LINE
8
BLACK
6
CONTINUOUS
10
5.15846
20
-4.53937
11
5.17323
21
-4.55413
0
LINE
8
BLACK
6
CONTINUOUS
10
5.25197
20
-4.55413
11
5.26673
21
-4.53937
0
LINE
8
BLACK
6
CONTINUOUS
10
5.26673
20
-4.53937
11
5.25197
21
-4.52461
0
LINE
8
BLACK
6
CONTINUOUS
10
5.25197
20
-4.52461
11
5.2372
21
-4.53937
0
LINE
8
BLACK
6
CONTINUOUS
10
5.2372
20
-4.53937
11
5.25197
21
-4.55413
0
LINE
8
BLACK
6
CONTINUOUS
10
5.66929
20
-4.55413
11
5.68406
21
-4.53937
0
LINE
8
BLACK
6
CONTINUOUS
10
5.68406
20
-4.53937
11
5.66929
21
-4.52461
0
LINE
8
BLACK
6
CONTINUOUS
10
5.66929
20
-4.52461
11
5.65453
21
-4.53937
0
LINE
8
BLACK
6
CONTINUOUS
10
5.65453
20
-4.53937
11
5.66929
21
-4.55413
0
LINE
8
BLACK
6
CONTINUOUS
10
5.74803
20
-4.55413
11
5.7628
21
-4.53937
0
LINE
8
BLACK
6
CONTINUOUS
10
5.7628
20
-4.53937
11
5.74803
21
-4.52461
0
LINE
8
BLACK
6
CONTINUOUS
10
5.74803
20
-4.52461
11
5.73327
21
-4.53937
0
LINE
8
BLACK
6
CONTINUOUS
10
5.73327
20
-4.53937
11
5.74803
21
-4.55413
0
LINE
8
BLACK
6
CONTINUOUS
10
3.8937
20
-3.68937
11
3.93307
21
-3.72874
0
LINE
8
BLACK
6
CONTINUOUS
10
3.93307
20
-3.68937
11
3.8937
21
-3.72874
0
CIRCLE
8
BLACK
10
3.91339
20
-3.70906
40
0.019685
0
LINE
8
BLACK
6
CONTINUOUS
10
3.8937
20
-3.78937
11
3.93307
21
-3.82874
0
LINE
8
BLACK
6
CONTINUOUS
10
3.93307
20
-3.78937
11
3.8937
21
-3.82874
0
CIRCLE
8
BLACK
10
3.91339
20
-3.80906
40
0.019685
0
LINE
8
BLACK
6
CONTINUOUS
10
3.9937
20
-3.68937
11
4.03307
21
-3.72874
0
LINE
8
BLACK
6
CONTINUOUS
10
4.03307
20
-3.68937
11
3.9937
21
-3.72874
0
CIRCLE
8
BLACK
10
4.01339
20
-3.70906
40
0.019685
0
LINE
8
BLACK
6
CONTINUOUS
10
3.9937
20
-3.78937
11
4.03307
21
-3.82874
0
LINE
8
BLACK
6
CONTINUOUS
10
4.03307
20
-3.78937
11
3.9937
21
-3.82874
0
CIRCLE
8
BLACK
10
4.01339
20
-3.80906
40
0.019685
0
LINE
8
BLACK
6
CONTINUOUS
10
4.0937
20
-3.68937
11
4.13307
21
-3.72874
0
LINE
8
BLACK
6
CONTINUOUS
10
4.13307
20
-3.68937
11
4.0937
21
-3.72874
0
CIRCLE
8
BLACK
10
4.11339
20
-3.70906
40
0.019685
0
LINE
8
BLACK
6
CONTINUOUS
10
4.0937
20
-3.78937
11
4.13307
21
-3.82874
0
LINE
8
BLACK
6
CONTINUOUS
10
4.13307
20
-3.78937
11
4.0937
21
-3.82874
0
CIRCLE
8
BLACK
10
4.11339
20
-3.80906
40
0.019685
0
LINE
8
BLACK
6
CONTINUOUS
10
4.1937
20
-3.68937
11
4.23307
21
-3.72874
0
LINE
8
BLACK
6
CONTINUOUS
10
4.23307
20
-3.68937
11
4.1937
21
-3.72874
0
CIRCLE
8
BLACK
10
4.21339
20
-3.70906
40
0.019685
0
LINE
8
BLACK
6
CONTINUOUS
10
4.1937
20
-3.78937
11
4.23307
21
-3.82874
0
LINE
8
BLACK
6
CONTINUOUS
10
4.23307
20
-3.78937
11
4.1937
21
-3.82874
0
CIRCLE
8
BLACK
10
4.21339
20
-3.80906
40
0.019685
0
LINE
8
BLACK
6
CONTINUOUS
10
4.2937
20
-3.68937
11
4.33307
21
-3.72874
0
LINE
8
BLACK
6
CONTINUOUS
10
4.33307
20
-3.68937
11
4.2937
21
-3.72874
0
CIRCLE
8
BLACK
10
4.31339
20
-3.70906
40
0.019685
0
LINE
8
BLACK
6
CONTINUOUS
10
4.2937
20
-3.78937
11
4.33307
21
-3.82874
0
LINE
8
BLACK
6
CONTINUOUS
10
4.33307
20
-3.78937
11
4.2937
21
-3.82874
0
CIRCLE
8
BLACK
10
4.31339
20
-3.80906
40
0.019685
0
LINE
8
BLACK
6
CONTINUOUS
10
4.3937
20
-3.68937
11
4.43307
21
-3.72874
0
LINE
8
BLACK
6
CONTINUOUS
10
4.43307
20
-3.68937
11
4.3937
21
-3.72874
0
CIRCLE
8
BLACK
10
4.41339
20
-3.70906
40
0.019685
0
LINE
8
BLACK
6
CONTINUOUS
10
4.3937
20
-3.78937
11
4.43307
21
-3.82874
0
LINE
8
BLACK
6
CONTINUOUS
10
4.43307
20
-3.78937
11
4.3937
21
-3.82874
0
CIRCLE
8
BLACK
10
4.41339
20
-3.80906
40
0.019685
0
LINE
8
BLACK
6
CONTINUOUS
10
4.4937
20
-3.68937
11
4.53307
21
-3.72874
0
LINE
8
BLACK
6
CONTINUOUS
10
4.53307
20
-3.68937
11
4.4937
21
-3.72874
0
CIRCLE
8
BLACK
10
4.51339
20
-3.70906
40
0.019685
0
LINE
8
BLACK
6
CONTINUOUS
10
4.4937
20
-3.78937
11
4.53307
21
-3.82874
0
LINE
8
BLACK
6
CONTINUOUS
10
4.53307
20
-3.78937
11
4.4937
21
-3.82874
0
CIRCLE
8
BLACK
10
4.51339
20
-3.80906
40
0.019685
0
LINE
8
BLACK
6
CONTINUOUS
10
4.5937
20
-3.68937
11
4.63307
21
-3.72874
0
LINE
8
BLACK
6
CONTINUOUS
10
4.63307
20
-3.68937
11
4.5937
21
-3.72874
0
CIRCLE
8
BLACK
10
4.61339
20
-3.70906
40
0.019685
0
LINE
8
BLACK
6
CONTINUOUS
10
4.5937
20
-3.78937
11
4.63307
21
-3.82874
0
LINE
8
BLACK
6
CONTINUOUS
10
4.63307
20
-3.78937
11
4.5937
21
-3.82874
0
CIRCLE
8
BLACK
10
4.61339
20
-3.80906
40
0.019685
0
LINE
8
BLACK
6
CONTINUOUS
10
4.6937
20
-3.68937
11
4.73307
21
-3.72874
0
LINE
8
BLACK
6
CONTINUOUS
10
4.73307
20
-3.68937
11
4.6937
21
-3.72874
0
CIRCLE
8
BLACK
10
4.71339
20
-3.70906
40
0.019685
0
LINE
8
BLACK
6
CONTINUOUS
10
4.6937
20
-3.78937
11
4.73307
21
-3.82874
0
LINE
8
BLACK
6
CONTINUOUS
10
4.73307
20
-3.78937
11
4.6937
21
-3.82874
0
CIRCLE
8
BLACK
10
4.71339
20
-3.80906
40
0.019685
0
LINE
8
BLACK
6
CONTINUOUS
10
4.7937
20
-3.68937
11
4.83307
21
-3.72874
0
LINE
8
BLACK
6
CONTINUOUS
10
4.83307
20
-3.68937
11
4.7937
21
-3.72874
0
CIRCLE
8
BLACK
10
4.81339
20
-3.70906
40
0.019685
0
LINE
8
BLACK
6
CONTINUOUS
10
4.7937
20
-3.78937
11
4.83307
21
-3.82874
0
LINE
8
BLACK
6
CONTINUOUS
10
4.83307
20
-3.78937
11
4.7937
21
-3.82874
0
CIRCLE
8
BLACK
10
4.81339
20
-3.80906
40
0.019685
0
LINE
8
BLACK
6
CONTINUOUS
10
4.8937
20
-3.68937
11
4.93307
21
-3.72874
0
LINE
8
BLACK
6
CONTINUOUS
10
4.93307
20
-3.68937
11
4.8937
21
-3.72874
0
CIRCLE
8
BLACK
10
4.91339
20
-3.70906
40
0.019685
0
LINE
8
BLACK
6
CONTINUOUS
10
4.8937
20
-3.78937
11
4.93307
21
-3.82874
0
LINE
8
BLACK
6
CONTINUOUS
10
4.93307
20
-3.78937
11
4.8937
21
-3.82874
0
CIRCLE
8
BLACK
10
4.91339
20
-3.80906
40
0.019685
0
LINE
8
BLACK
6
CONTINUOUS
10
4.9937
20
-3.68937
11
5.03307
21
-3.72874
0
LINE
8
BLACK
6
CONTINUOUS
10
5.03307
20
-3.68937
11
4.9937
21
-3.72874
0
CIRCLE
8
BLACK
10
5.01339
20
-3.70906
40
0.019685
0
LINE
8
BLACK
6
CONTINUOUS
10
4.9937
20
-3.78937
11
5.03307
21
-3.82874
0
LINE
8
BLACK
6
CONTINUOUS
10
5.03307
20
-3.78937
11
4.9937
21
-3.82874
0
CIRCLE
8
BLACK
10
5.01339
20
-3.80906
40
0.019685
0
LINE
8
BLACK
6
CONTINUOUS
10
5.0937
20
-3.68937
11
5.13307
21
-3.72874
0
LINE
8
BLACK
6
CONTINUOUS
10
5.13307
20
-3.68937
11
5.0937
21
-3.72874
0
CIRCLE
8
BLACK
10
5.11339
20
-3.70906
40
0.019685
0
LINE
8
BLACK
6
CONTINUOUS
10
5.0937
20
-3.78937
11
5.13307
21
-3.82874
0
LINE
8
BLACK
6
CONTINUOUS
10
5.13307
20
-3.78937
11
5.0937
21
-3.82874
0
CIRCLE
8
BLACK
10
5.11339
20
-3.80906
40
0.019685
0
LINE
8
BLACK
6
CONTINUOUS
10
5.1937
20
-3.68937
11
5.23307
21
-3.72874
0
LINE
8
BLACK
6
CONTINUOUS
10
5.23307
20
-3.68937
11
5.1937
21
-3.72874
0
CIRCLE
8
BLACK
10
5.21339
20
-3.70906
40
0.019685
0
LINE
8
BLACK
6
CONTINUOUS
10
5.1937
20
-3.78937
11
5.23307
21
-3.82874
0
LINE
8
BLACK
6
CONTINUOUS
10
5.23307
20
-3.78937
11
5.1937
21
-3.82874
0
CIRCLE
8
BLACK
10
5.21339
20
-3.80906
40
0.019685
0
LINE
8
BLACK
6
CONTINUOUS
10
5.2937
20
-3.68937
11
5.33307
21
-3.72874
0
LINE
8
BLACK
6
CONTINUOUS
10
5.33307
20
-3.68937
11
5.2937
21
-3.72874
0
CIRCLE
8
BLACK
10
5.31339
20
-3.70906
40
0.019685
0
LINE
8
BLACK
6
CONTINUOUS
10
5.2937
20
-3.78937
11
5.33307
21
-3.82874
0
LINE
8
BLACK
6
CONTINUOUS
10
5.33307
20
-3.78937
11
5.2937
21
-3.82874
0
CIRCLE
8
BLACK
10
5.31339
20
-3.80906
40
0.019685
0
LINE
8
BLACK
6
CONTINUOUS
10
5.3937
20
-3.68937
11
5.43307
21
-3.72874
0
LINE
8
BLACK
6
CONTINUOUS
10
5.43307
20
-3.68937
11
5.3937
21
-3.72874
0
CIRCLE
8
BLACK
10
5.41339
20
-3.70906
40
0.019685
0
LINE
8
BLACK
6
CONTINUOUS
10
5.3937
20
-3.78937
11
5.43307
21
-3.82874
0
LINE
8
BLACK
6
CONTINUOUS
10
5.43307
20
-3.78937
11
5.3937
21
-3.82874
0
CIRCLE
8
BLACK
10
5.41339
20
-3.80906
40
0.019685
0
LINE
8
BLACK
6
CONTINUOUS
10
5.4937
20
-3.68937
11
5.53307
21
-3.72874
0
LINE
8
BLACK
6
CONTINUOUS
10
5.53307
20
-3.68937
11
5.4937
21
-3.72874
0
CIRCLE
8
BLACK
10
5.51339
20
-3.70906
40
0.019685
0
LINE
8
BLACK
6
CONTINUOUS
10
5.4937
20
-3.78937
11
5.53307
21
-3.82874
0
LINE
8
BLACK
6
CONTINUOUS
10
5.53307
20
-3.78937
11
5.4937
21
-3.82874
0
CIRCLE
8
BLACK
10
5.51339
20
-3.80906
40
0.019685
0
LINE
8
BLACK
6
CONTINUOUS
10
5.5937
20
-3.68937
11
5.63307
21
-3.72874
0
LINE
8
BLACK
6
CONTINUOUS
10
5.63307
20
-3.68937
11
5.5937
21
-3.72874
0
CIRCLE
8
BLACK
10
5.61339
20
-3.70906
40
0.019685
0
LINE
8
BLACK
6
CONTINUOUS
10
5.5937
20
-3.78937
11
5.63307
21
-3.82874
0
LINE
8
BLACK
6
CONTINUOUS
10
5.63307
20
-3.78937
11
5.5937
21
-3.82874
0
CIRCLE
8
BLACK
10
5.61339
20
-3.80906
40
0.019685
0
LINE
8
BLACK
6
CONTINUOUS
10
5.6937
20
-3.68937
11
5.73307
21
-3.72874
0
LINE
8
BLACK
6
CONTINUOUS
10
5.73307
20
-3.68937
11
5.6937
21
-3.72874
0
CIRCLE
8
BLACK
10
5.71339
20
-3.70906
40
0.019685
0
LINE
8
BLACK
6
CONTINUOUS
10
5.6937
20
-3.78937
11
5.73307
21
-3.82874
0
LINE
8
BLACK
6
CONTINUOUS
10
5.73307
20
-3.78937
11
5.6937
21
-3.82874
0
CIRCLE
8
BLACK
10
5.71339
20
-3.80906
40
0.019685
0
LINE
8
BLACK
6
CONTINUOUS
10
5.7937
20
-3.68937
11
5.83307
21
-3.72874
0
LINE
8
BLACK
6
CONTINUOUS
10
5.83307
20
-3.68937
11
5.7937
21
-3.72874
0
CIRCLE
8
BLACK
10
5.81339
20
-3.70906
40
0.019685
0
LINE
8
BLACK
6
CONTINUOUS
10
5.7937
20
-3.78937
11
5.83307
21
-3.82874
0
LINE
8
BLACK
6
CONTINUOUS
10
5.83307
20
-3.78937
11
5.7937
21
-3.82874
0
CIRCLE
8
BLACK
10
5.81339
20
-3.80906
40
0.019685
0
LINE
8
BLACK
6
CONTINUOUS
10
3.68338
20
-4.92775
11
3.68338
21
-4.84901
0
LINE
8
BLACK
6
CONTINUOUS
10
3.68338
20
-4.84901
11
3.70212
21
-4.84901
0
LINE
8
BLACK
6
CONTINUOUS
10
3.70212
20
-4.84901
11
3.71337
21
-4.85276
0
LINE
8
BLACK
6
CONTINUOUS
10
3.71337
20
-4.85276
11
3.72087
21
-4.86026
0
LINE
8
BLACK
6
CONTINUOUS
10
3.72087
20
-4.86026
11
3.72462
21
-4.86776
0
LINE
8
BLACK
6
CONTINUOUS
10
3.72462
20
-4.86776
11
3.72837
21
-4.88276
0
LINE
8
BLACK
6
CONTINUOUS
10
3.72837
20
-4.88276
11
3.72837
21
-4.894
0
LINE
8
BLACK
6
CONTINUOUS
10
3.72837
20
-4.894
11
3.72462
21
-4.909
0
LINE
8
BLACK
6
CONTINUOUS
10
3.72462
20
-4.909
11
3.72087
21
-4.9165
0
LINE
8
BLACK
6
CONTINUOUS
10
3.72087
20
-4.9165
11
3.71337
21
-4.924
0
LINE
8
BLACK
6
CONTINUOUS
10
3.71337
20
-4.924
11
3.70212
21
-4.92775
0
LINE
8
BLACK
6
CONTINUOUS
10
3.70212
20
-4.92775
11
3.68338
21
-4.92775
0
LINE
8
BLACK
6
CONTINUOUS
10
3.76212
20
-4.92775
11
3.76212
21
-4.87526
0
LINE
8
BLACK
6
CONTINUOUS
10
3.76212
20
-4.89025
11
3.76587
21
-4.88276
0
LINE
8
BLACK
6
CONTINUOUS
10
3.76587
20
-4.88276
11
3.76962
21
-4.87901
0
LINE
8
BLACK
6
CONTINUOUS
10
3.76962
20
-4.87901
11
3.77711
21
-4.87526
0
LINE
8
BLACK
6
CONTINUOUS
10
3.77711
20
-4.87526
11
3.78461
21
-4.87526
0
LINE
8
BLACK
6
CONTINUOUS
10
3.81086
20
-4.92775
11
3.81086
21
-4.87526
0
LINE
8
BLACK
6
CONTINUOUS
10
3.81086
20
-4.84901
11
3.80711
21
-4.85276
0
LINE
8
BLACK
6
CONTINUOUS
10
3.80711
20
-4.85276
11
3.81086
21
-4.85651
0
LINE
8
BLACK
6
CONTINUOUS
10
3.81086
20
-4.85651
11
3.81461
21
-4.85276
0
LINE
8
BLACK
6
CONTINUOUS
10
3.81461
20
-4.85276
11
3.81086
21
-4.84901
0
LINE
8
BLACK
6
CONTINUOUS
10
3.81086
20
-4.84901
11
3.81086
21
-4.85651
0
LINE
8
BLACK
6
CONTINUOUS
10
3.8596
20
-4.92775
11
3.85211
21
-4.924
0
LINE
8
BLACK
6
CONTINUOUS
10
3.85211
20
-4.924
11
3.84836
21
-4.9165
0
LINE
8
BLACK
6
CONTINUOUS
10
3.84836
20
-4.9165
11
3.84836
21
-4.84901
0
LINE
8
BLACK
6
CONTINUOUS
10
3.90085
20
-4.92775
11
3.89335
21
-4.924
0
LINE
8
BLACK
6
CONTINUOUS
10
3.89335
20
-4.924
11
3.8896
21
-4.9165
0
LINE
8
BLACK
6
CONTINUOUS
10
3.8896
20
-4.9165
11
3.8896
21
-4.84901
0
LINE
8
BLACK
6
CONTINUOUS
10
3.99084
20
-4.92775
11
3.99084
21
-4.84901
0
LINE
8
BLACK
6
CONTINUOUS
10
3.99084
20
-4.84901
11
4.01708
21
-4.90525
0
LINE
8
BLACK
6
CONTINUOUS
10
4.01708
20
-4.90525
11
4.04333
21
-4.84901
0
LINE
8
BLACK
6
CONTINUOUS
10
4.04333
20
-4.84901
11
4.04333
21
-4.92775
0
LINE
8
BLACK
6
CONTINUOUS
10
4.11457
20
-4.92775
11
4.11457
21
-4.8865
0
LINE
8
BLACK
6
CONTINUOUS
10
4.11457
20
-4.8865
11
4.11082
21
-4.87901
0
LINE
8
BLACK
6
CONTINUOUS
10
4.11082
20
-4.87901
11
4.10332
21
-4.87526
0
LINE
8
BLACK
6
CONTINUOUS
10
4.10332
20
-4.87526
11
4.08833
21
-4.87526
0
LINE
8
BLACK
6
CONTINUOUS
10
4.08833
20
-4.87526
11
4.08083
21
-4.87901
0
LINE
8
BLACK
6
CONTINUOUS
10
4.11457
20
-4.924
11
4.10707
21
-4.92775
0
LINE
8
BLACK
6
CONTINUOUS
10
4.10707
20
-4.92775
11
4.08833
21
-4.92775
0
LINE
8
BLACK
6
CONTINUOUS
10
4.08833
20
-4.92775
11
4.08083
21
-4.924
0
LINE
8
BLACK
6
CONTINUOUS
10
4.08083
20
-4.924
11
4.07708
21
-4.9165
0
LINE
8
BLACK
6
CONTINUOUS
10
4.07708
20
-4.9165
11
4.07708
21
-4.909
0
LINE
8
BLACK
6
CONTINUOUS
10
4.07708
20
-4.909
11
4.08083
21
-4.9015
0
LINE
8
BLACK
6
CONTINUOUS
10
4.08083
20
-4.9015
11
4.08833
21
-4.89775
0
LINE
8
BLACK
6
CONTINUOUS
10
4.08833
20
-4.89775
11
4.10707
21
-4.89775
0
LINE
8
BLACK
6
CONTINUOUS
10
4.10707
20
-4.89775
11
4.11457
21
-4.894
0
LINE
8
BLACK
6
CONTINUOUS
10
4.15207
20
-4.87526
11
4.15207
21
-4.954
0
LINE
8
BLACK
6
CONTINUOUS
10
4.15207
20
-4.87901
11
4.15957
21
-4.87526
0
LINE
8
BLACK
6
CONTINUOUS
10
4.15957
20
-4.87526
11
4.17457
21
-4.87526
0
LINE
8
BLACK
6
CONTINUOUS
10
4.17457
20
-4.87526
11
4.18206
21
-4.87901
0
LINE
8
BLACK
6
CONTINUOUS
10
4.18206
20
-4.87901
11
4.18581
21
-4.88276
0
LINE
8
BLACK
6
CONTINUOUS
10
4.18581
20
-4.88276
11
4.18956
21
-4.89025
0
LINE
8
BLACK
6
CONTINUOUS
10
4.18956
20
-4.89025
11
4.18956
21
-4.91275
0
LINE
8
BLACK
6
CONTINUOUS
10
4.18956
20
-4.91275
11
4.18581
21
-4.92025
0
LINE
8
BLACK
6
CONTINUOUS
10
4.18581
20
-4.92025
11
4.18206
21
-4.924
0
LINE
8
BLACK
6
CONTINUOUS
10
4.18206
20
-4.924
11
4.17457
21
-4.92775
0
LINE
8
BLACK
6
CONTINUOUS
10
4.17457
20
-4.92775
11
4.15957
21
-4.92775
0
LINE
8
BLACK
6
CONTINUOUS
10
4.15957
20
-4.92775
11
4.15207
21
-4.924
0
LINE
8
BLACK
6
CONTINUOUS
10
4.22331
20
-4.92025
11
4.22706
21
-4.924
0
LINE
8
BLACK
6
CONTINUOUS
10
4.22706
20
-4.924
11
4.22331
21
-4.92775
0
LINE
8
BLACK
6
CONTINUOUS
10
4.22331
20
-4.92775
11
4.21956
21
-4.924
0
LINE
8
BLACK
6
CONTINUOUS
10
4.21956
20
-4.924
11
4.22331
21
-4.92025
0
LINE
8
BLACK
6
CONTINUOUS
10
4.22331
20
-4.92025
11
4.22331
21
-4.92775
0
LINE
8
BLACK
6
CONTINUOUS
10
4.22331
20
-4.87901
11
4.22706
21
-4.88276
0
LINE
8
BLACK
6
CONTINUOUS
10
4.22706
20
-4.88276
11
4.22331
21
-4.8865
0
LINE
8
BLACK
6
CONTINUOUS
10
4.22331
20
-4.8865
11
4.21956
21
-4.88276
0
LINE
8
BLACK
6
CONTINUOUS
10
4.21956
20
-4.88276
11
4.22331
21
-4.87901
0
LINE
8
BLACK
6
CONTINUOUS
10
4.22331
20
-4.87901
11
4.22331
21
-4.8865
0
LINE
8
BLACK
6
CONTINUOUS
10
3.57283
20
-5.05315
11
3.58071
21
-5.06102
0
LINE
8
BLACK
6
CONTINUOUS
10
3.58071
20
-5.05315
11
3.57283
21
-5.06102
0
LINE
8
BLACK
6
CONTINUOUS
10
3.69837
20
-5.01436
11
3.70587
21
-5.01436
0
LINE
8
BLACK
6
CONTINUOUS
10
3.70587
20
-5.01436
11
3.71337
21
-5.01811
0
LINE
8
BLACK
6
CONTINUOUS
10
3.71337
20
-5.01811
11
3.71712
21
-5.02186
0
LINE
8
BLACK
6
CONTINUOUS
10
3.71712
20
-5.02186
11
3.72087
21
-5.02936
0
LINE
8
BLACK
6
CONTINUOUS
10
3.72087
20
-5.02936
11
3.72462
21
-5.04436
0
LINE
8
BLACK
6
CONTINUOUS
10
3.72462
20
-5.04436
11
3.72462
21
-5.06311
0
LINE
8
BLACK
6
CONTINUOUS
10
3.72462
20
-5.06311
11
3.72087
21
-5.07811
0
LINE
8
BLACK
6
CONTINUOUS
10
3.72087
20
-5.07811
11
3.71712
21
-5.0856
0
LINE
8
BLACK
6
CONTINUOUS
10
3.71712
20
-5.0856
11
3.71337
21
-5.08935
0
LINE
8
BLACK
6
CONTINUOUS
10
3.71337
20
-5.08935
11
3.70587
21
-5.0931
0
LINE
8
BLACK
6
CONTINUOUS
10
3.70587
20
-5.0931
11
3.69837
21
-5.0931
0
LINE
8
BLACK
6
CONTINUOUS
10
3.69837
20
-5.0931
11
3.69088
21
-5.08935
0
LINE
8
BLACK
6
CONTINUOUS
10
3.69088
20
-5.08935
11
3.68713
21
-5.0856
0
LINE
8
BLACK
6
CONTINUOUS
10
3.68713
20
-5.0856
11
3.68338
21
-5.07811
0
LINE
8
BLACK
6
CONTINUOUS
10
3.68338
20
-5.07811
11
3.67963
21
-5.06311
0
LINE
8
BLACK
6
CONTINUOUS
10
3.67963
20
-5.06311
11
3.67963
21
-5.04436
0
LINE
8
BLACK
6
CONTINUOUS
10
3.67963
20
-5.04436
11
3.68338
21
-5.02936
0
LINE
8
BLACK
6
CONTINUOUS
10
3.68338
20
-5.02936
11
3.68713
21
-5.02186
0
LINE
8
BLACK
6
CONTINUOUS
10
3.68713
20
-5.02186
11
3.69088
21
-5.01811
0
LINE
8
BLACK
6
CONTINUOUS
10
3.69088
20
-5.01811
11
3.69837
21
-5.01436
0
LINE
8
BLACK
6
CONTINUOUS
10
3.75837
20
-5.0856
11
3.76212
21
-5.08935
0
LINE
8
BLACK
6
CONTINUOUS
10
3.76212
20
-5.08935
11
3.75837
21
-5.0931
0
LINE
8
BLACK
6
CONTINUOUS
10
3.75837
20
-5.0931
11
3.75462
21
-5.08935
0
LINE
8
BLACK
6
CONTINUOUS
10
3.75462
20
-5.08935
11
3.75837
21
-5.0856
0
LINE
8
BLACK
6
CONTINUOUS
10
3.75837
20
-5.0856
11
3.75837
21
-5.0931
0
LINE
8
BLACK
6
CONTINUOUS
10
3.79211
20
-5.02186
11
3.79586
21
-5.01811
0
LINE
8
BLACK
6
CONTINUOUS
10
3.79586
20
-5.01811
11
3.80336
21
-5.01436
0
LINE
8
BLACK
6
CONTINUOUS
10
3.80336
20
-5.01436
11
3.82211
21
-5.01436
0
LINE
8
BLACK
6
CONTINUOUS
10
3.82211
20
-5.01436
11
3.82961
21
-5.01811
0
LINE
8
BLACK
6
CONTINUOUS
10
3.82961
20
-5.01811
11
3.83336
21
-5.02186
0
LINE
8
BLACK
6
CONTINUOUS
10
3.83336
20
-5.02186
11
3.83711
21
-5.02936
0
LINE
8
BLACK
6
CONTINUOUS
10
3.83711
20
-5.02936
11
3.83711
21
-5.03686
0
LINE
8
BLACK
6
CONTINUOUS
10
3.83711
20
-5.03686
11
3.83336
21
-5.04811
0
LINE
8
BLACK
6
CONTINUOUS
10
3.83336
20
-5.04811
11
3.78836
21
-5.0931
0
LINE
8
BLACK
6
CONTINUOUS
10
3.78836
20
-5.0931
11
3.83711
21
-5.0931
0
LINE
8
BLACK
6
CONTINUOUS
10
3.88585
20
-5.01436
11
3.89335
21
-5.01436
0
LINE
8
BLACK
6
CONTINUOUS
10
3.89335
20
-5.01436
11
3.90085
21
-5.01811
0
LINE
8
BLACK
6
CONTINUOUS
10
3.90085
20
-5.01811
11
3.9046
21
-5.02186
0
LINE
8
BLACK
6
CONTINUOUS
10
3.9046
20
-5.02186
11
3.90835
21
-5.02936
0
LINE
8
BLACK
6
CONTINUOUS
10
3.90835
20
-5.02936
11
3.9121
21
-5.04436
0
LINE
8
BLACK
6
CONTINUOUS
10
3.9121
20
-5.04436
11
3.9121
21
-5.06311
0
LINE
8
BLACK
6
CONTINUOUS
10
3.9121
20
-5.06311
11
3.90835
21
-5.07811
0
LINE
8
BLACK
6
CONTINUOUS
10
3.90835
20
-5.07811
11
3.9046
21
-5.0856
0
LINE
8
BLACK
6
CONTINUOUS
10
3.9046
20
-5.0856
11
3.90085
21
-5.08935
0
LINE
8
BLACK
6
CONTINUOUS
10
3.90085
20
-5.08935
11
3.89335
21
-5.0931
0
LINE
8
BLACK
6
CONTINUOUS
10
3.89335
20
-5.0931
11
3.88585
21
-5.0931
0
LINE
8
BLACK
6
CONTINUOUS
10
3.88585
20
-5.0931
11
3.87835
21
-5.08935
0
LINE
8
BLACK
6
CONTINUOUS
10
3.87835
20
-5.08935
11
3.8746
21
-5.0856
0
LINE
8
BLACK
6
CONTINUOUS
10
3.8746
20
-5.0856
11
3.87085
21
-5.07811
0
LINE
8
BLACK
6
CONTINUOUS
10
3.87085
20
-5.07811
11
3.8671
21
-5.06311
0
LINE
8
BLACK
6
CONTINUOUS
10
3.8671
20
-5.06311
11
3.8671
21
-5.04436
0
LINE
8
BLACK
6
CONTINUOUS
10
3.8671
20
-5.04436
11
3.87085
21
-5.02936
0
LINE
8
BLACK
6
CONTINUOUS
10
3.87085
20
-5.02936
11
3.8746
21
-5.02186
0
LINE
8
BLACK
6
CONTINUOUS
10
3.8746
20
-5.02186
11
3.87835
21
-5.01811
0
LINE
8
BLACK
6
CONTINUOUS
10
3.87835
20
-5.01811
11
3.88585
21
-5.01436
0
LINE
8
BLACK
6
CONTINUOUS
10
3.96084
20
-5.01436
11
3.96834
21
-5.01436
0
LINE
8
BLACK
6
CONTINUOUS
10
3.96834
20
-5.01436
11
3.97584
21
-5.01811
0
LINE
8
BLACK
6
CONTINUOUS
10
3.97584
20
-5.01811
11
3.97959
21
-5.02186
0
LINE
8
BLACK
6
CONTINUOUS
10
3.97959
20
-5.02186
11
3.98334
21
-5.02936
0
LINE
8
BLACK
6
CONTINUOUS
10
3.98334
20
-5.02936
11
3.98709
21
-5.04436
0
LINE
8
BLACK
6
CONTINUOUS
10
3.98709
20
-5.04436
11
3.98709
21
-5.06311
0
LINE
8
BLACK
6
CONTINUOUS
10
3.98709
20
-5.06311
11
3.98334
21
-5.07811
0
LINE
8
BLACK
6
CONTINUOUS
10
3.98334
20
-5.07811
11
3.97959
21
-5.0856
0
LINE
8
BLACK
6
CONTINUOUS
10
3.97959
20
-5.0856
11
3.97584
21
-5.08935
0
LINE
8
BLACK
6
CONTINUOUS
10
3.97584
20
-5.08935
11
3.96834
21
-5.0931
0
LINE
8
BLACK
6
CONTINUOUS
10
3.96834
20
-5.0931
11
3.96084
21
-5.0931
0
LINE
8
BLACK
6
CONTINUOUS
10
3.96084
20
-5.0931
11
3.95334
21
-5.08935
0
LINE
8
BLACK
6
CONTINUOUS
10
3.95334
20
-5.08935
11
3.94959
21
-5.0856
0
LINE
8
BLACK
6
CONTINUOUS
10
3.94959
20
-5.0856
11
3.94584
21
-5.07811
0
LINE
8
BLACK
6
CONTINUOUS
10
3.94584
20
-5.07811
11
3.94209
21
-5.06311
0
LINE
8
BLACK
6
CONTINUOUS
10
3.94209
20
-5.06311
11
3.94209
21
-5.04436
0
LINE
8
BLACK
6
CONTINUOUS
10
3.94209
20
-5.04436
11
3.94584
21
-5.02936
0
LINE
8
BLACK
6
CONTINUOUS
10
3.94584
20
-5.02936
11
3.94959
21
-5.02186
0
LINE
8
BLACK
6
CONTINUOUS
10
3.94959
20
-5.02186
11
3.95334
21
-5.01811
0
LINE
8
BLACK
6
CONTINUOUS
10
3.95334
20
-5.01811
11
3.96084
21
-5.01436
0
LINE
8
BLACK
6
CONTINUOUS
10
4.02083
20
-5.0931
11
4.02083
21
-5.04061
0
LINE
8
BLACK
6
CONTINUOUS
10
4.02083
20
-5.04811
11
4.02458
21
-5.04436
0
LINE
8
BLACK
6
CONTINUOUS
10
4.02458
20
-5.04436
11
4.03208
21
-5.04061
0
LINE
8
BLACK
6
CONTINUOUS
10
4.03208
20
-5.04061
11
4.04333
21
-5.04061
0
LINE
8
BLACK
6
CONTINUOUS
10
4.04333
20
-5.04061
11
4.05083
21
-5.04436
0
LINE
8
BLACK
6
CONTINUOUS
10
4.05083
20
-5.04436
11
4.05458
21
-5.05186
0
LINE
8
BLACK
6
CONTINUOUS
10
4.05458
20
-5.05186
11
4.05458
21
-5.0931
0
LINE
8
BLACK
6
CONTINUOUS
10
4.05458
20
-5.05186
11
4.05833
21
-5.04436
0
LINE
8
BLACK
6
CONTINUOUS
10
4.05833
20
-5.04436
11
4.06583
21
-5.04061
0
LINE
8
BLACK
6
CONTINUOUS
10
4.06583
20
-5.04061
11
4.07708
21
-5.04061
0
LINE
8
BLACK
6
CONTINUOUS
10
4.07708
20
-5.04061
11
4.08458
21
-5.04436
0
LINE
8
BLACK
6
CONTINUOUS
10
4.08458
20
-5.04436
11
4.08833
21
-5.05186
0
LINE
8
BLACK
6
CONTINUOUS
10
4.08833
20
-5.05186
11
4.08833
21
-5.0931
0
LINE
8
BLACK
6
CONTINUOUS
10
4.12582
20
-5.0931
11
4.12582
21
-5.04061
0
LINE
8
BLACK
6
CONTINUOUS
10
4.12582
20
-5.04811
11
4.12957
21
-5.04436
0
LINE
8
BLACK
6
CONTINUOUS
10
4.12957
20
-5.04436
11
4.13707
21
-5.04061
0
LINE
8
BLACK
6
CONTINUOUS
10
4.13707
20
-5.04061
11
4.14832
21
-5.04061
0
LINE
8
BLACK
6
CONTINUOUS
10
4.14832
20
-5.04061
11
4.15582
21
-5.04436
0
LINE
8
BLACK
6
CONTINUOUS
10
4.15582
20
-5.04436
11
4.15957
21
-5.05186
0
LINE
8
BLACK
6
CONTINUOUS
10
4.15957
20
-5.05186
11
4.15957
21
-5.0931
0
LINE
8
BLACK
6
CONTINUOUS
10
4.15957
20
-5.05186
11
4.16332
21
-5.04436
0
LINE
8
BLACK
6
CONTINUOUS
10
4.16332
20
-5.04436
11
4.17082
21
-5.04061
0
LINE
8
BLACK
6
CONTINUOUS
10
4.17082
20
-5.04061
11
4.18206
21
-5.04061
0
LINE
8
BLACK
6
CONTINUOUS
10
4.18206
20
-5.04061
11
4.18956
21
-5.04436
0
LINE
8
BLACK
6
CONTINUOUS
10
4.18956
20
-5.04436
11
4.19331
21
-5.05186
0
LINE
8
BLACK
6
CONTINUOUS
10
4.19331
20
-5.05186
11
4.19331
21
-5.0931
0
LINE
8
BLACK
6
CONTINUOUS
10
4.34704
20
-5.01061
11
4.27955
21
-5.11185
0
LINE
8
BLACK
6
CONTINUOUS
10
4.44828
20
-5.01436
11
4.45578
21
-5.01436
0
LINE
8
BLACK
6
CONTINUOUS
10
4.45578
20
-5.01436
11
4.46328
21
-5.01811
0
LINE
8
BLACK
6
CONTINUOUS
10
4.46328
20
-5.01811
11
4.46703
21
-5.02186
0
LINE
8
BLACK
6
CONTINUOUS
10
4.46703
20
-5.02186
11
4.47078
21
-5.02936
0
LINE
8
BLACK
6
CONTINUOUS
10
4.47078
20
-5.02936
11
4.47453
21
-5.04436
0
LINE
8
BLACK
6
CONTINUOUS
10
4.47453
20
-5.04436
11
4.47453
21
-5.06311
0
LINE
8
BLACK
6
CONTINUOUS
10
4.47453
20
-5.06311
11
4.47078
21
-5.07811
0
LINE
8
BLACK
6
CONTINUOUS
10
4.47078
20
-5.07811
11
4.46703
21
-5.0856
0
LINE
8
BLACK
6
CONTINUOUS
10
4.46703
20
-5.0856
11
4.46328
21
-5.08935
0
LINE
8
BLACK
6
CONTINUOUS
10
4.46328
20
-5.08935
11
4.45578
21
-5.0931
0
LINE
8
BLACK
6
CONTINUOUS
10
4.45578
20
-5.0931
11
4.44828
21
-5.0931
0
LINE
8
BLACK
6
CONTINUOUS
10
4.44828
20
-5.0931
11
4.44078
21
-5.08935
0
LINE
8
BLACK
6
CONTINUOUS
10
4.44078
20
-5.08935
11
4.43703
21
-5.0856
0
LINE
8
BLACK
6
CONTINUOUS
10
4.43703
20
-5.0856
11
4.43328
21
-5.07811
0
LINE
8
BLACK
6
CONTINUOUS
10
4.43328
20
-5.07811
11
4.42953
21
-5.06311
0
LINE
8
BLACK
6
CONTINUOUS
10
4.42953
20
-5.06311
11
4.42953
21
-5.04436
0
LINE
8
BLACK
6
CONTINUOUS
10
4.42953
20
-5.04436
11
4.43328
21
-5.02936
0
LINE
8
BLACK
6
CONTINUOUS
10
4.43328
20
-5.02936
11
4.43703
21
-5.02186
0
LINE
8
BLACK
6
CONTINUOUS
10
4.43703
20
-5.02186
11
4.44078
21
-5.01811
0
LINE
8
BLACK
6
CONTINUOUS
10
4.44078
20
-5.01811
11
4.44828
21
-5.01436
0
LINE
8
BLACK
6
CONTINUOUS
10
4.50827
20
-5.0856
11
4.51202
21
-5.08935
0
LINE
8
BLACK
6
CONTINUOUS
10
4.51202
20
-5.08935
11
4.50827
21
-5.0931
0
LINE
8
BLACK
6
CONTINUOUS
10
4.50827
20
-5.0931
11
4.50452
21
-5.08935
0
LINE
8
BLACK
6
CONTINUOUS
10
4.50452
20
-5.08935
11
4.50827
21
-5.0856
0
LINE
8
BLACK
6
CONTINUOUS
10
4.50827
20
-5.0856
11
4.50827
21
-5.0931
0
LINE
8
BLACK
6
CONTINUOUS
10
4.56077
20
-5.01436
11
4.56827
21
-5.01436
0
LINE
8
BLACK
6
CONTINUOUS
10
4.56827
20
-5.01436
11
4.57577
21
-5.01811
0
LINE
8
BLACK
6
CONTINUOUS
10
4.57577
20
-5.01811
11
4.57951
21
-5.02186
0
LINE
8
BLACK
6
CONTINUOUS
10
4.57951
20
-5.02186
11
4.58326
21
-5.02936
0
LINE
8
BLACK
6
CONTINUOUS
10
4.58326
20
-5.02936
11
4.58701
21
-5.04436
0
LINE
8
BLACK
6
CONTINUOUS
10
4.58701
20
-5.04436
11
4.58701
21
-5.06311
0
LINE
8
BLACK
6
CONTINUOUS
10
4.58701
20
-5.06311
11
4.58326
21
-5.07811
0
LINE
8
BLACK
6
CONTINUOUS
10
4.58326
20
-5.07811
11
4.57951
21
-5.0856
0
LINE
8
BLACK
6
CONTINUOUS
10
4.57951
20
-5.0856
11
4.57577
21
-5.08935
0
LINE
8
BLACK
6
CONTINUOUS
10
4.57577
20
-5.08935
11
4.56827
21
-5.0931
0
LINE
8
BLACK
6
CONTINUOUS
10
4.56827
20
-5.0931
11
4.56077
21
-5.0931
0
LINE
8
BLACK
6
CONTINUOUS
10
4.56077
20
-5.0931
11
4.55327
21
-5.08935
0
LINE
8
BLACK
6
CONTINUOUS
10
4.55327
20
-5.08935
11
4.54952
21
-5.0856
0
LINE
8
BLACK
6
CONTINUOUS
10
4.54952
20
-5.0856
11
4.54577
21
-5.07811
0
LINE
8
BLACK
6
CONTINUOUS
10
4.54577
20
-5.07811
11
4.54202
21
-5.06311
0
LINE
8
BLACK
6
CONTINUOUS
10
4.54202
20
-5.06311
11
4.54202
21
-5.04436
0
LINE
8
BLACK
6
CONTINUOUS
10
4.54202
20
-5.04436
11
4.54577
21
-5.02936
0
LINE
8
BLACK
6
CONTINUOUS
10
4.54577
20
-5.02936
11
4.54952
21
-5.02186
0
LINE
8
BLACK
6
CONTINUOUS
10
4.54952
20
-5.02186
11
4.55327
21
-5.01811
0
LINE
8
BLACK
6
CONTINUOUS
10
4.55327
20
-5.01811
11
4.56077
21
-5.01436
0
LINE
8
BLACK
6
CONTINUOUS
10
4.63576
20
-5.01436
11
4.64326
21
-5.01436
0
LINE
8
BLACK
6
CONTINUOUS
10
4.64326
20
-5.01436
11
4.65076
21
-5.01811
0
LINE
8
BLACK
6
CONTINUOUS
10
4.65076
20
-5.01811
11
4.65451
21
-5.02186
0
LINE
8
BLACK
6
CONTINUOUS
10
4.65451
20
-5.02186
11
4.65825
21
-5.02936
0
LINE
8
BLACK
6
CONTINUOUS
10
4.65825
20
-5.02936
11
4.662
21
-5.04436
0
LINE
8
BLACK
6
CONTINUOUS
10
4.662
20
-5.04436
11
4.662
21
-5.06311
0
LINE
8
BLACK
6
CONTINUOUS
10
4.662
20
-5.06311
11
4.65825
21
-5.07811
0
LINE
8
BLACK
6
CONTINUOUS
10
4.65825
20
-5.07811
11
4.65451
21
-5.0856
0
LINE
8
BLACK
6
CONTINUOUS
10
4.65451
20
-5.0856
11
4.65076
21
-5.08935
0
LINE
8
BLACK
6
CONTINUOUS
10
4.65076
20
-5.08935
11
4.64326
21
-5.0931
0
LINE
8
BLACK
6
CONTINUOUS
10
4.64326
20
-5.0931
11
4.63576
21
-5.0931
0
LINE
8
BLACK
6
CONTINUOUS
10
4.63576
20
-5.0931
11
4.62826
21
-5.08935
0
LINE
8
BLACK
6
CONTINUOUS
10
4.62826
20
-5.08935
11
4.62451
21
-5.0856
0
LINE
8
BLACK
6
CONTINUOUS
10
4.62451
20
-5.0856
11
4.62076
21
-5.07811
0
LINE
8
BLACK
6
CONTINUOUS
10
4.62076
20
-5.07811
11
4.61701
21
-5.06311
0
LINE
8
BLACK
6
CONTINUOUS
10
4.61701
20
-5.06311
11
4.61701
21
-5.04436
0
LINE
8
BLACK
6
CONTINUOUS
10
4.61701
20
-5.04436
11
4.62076
21
-5.02936
0
LINE
8
BLACK
6
CONTINUOUS
10
4.62076
20
-5.02936
11
4.62451
21
-5.02186
0
LINE
8
BLACK
6
CONTINUOUS
10
4.62451
20
-5.02186
11
4.62826
21
-5.01811
0
LINE
8
BLACK
6
CONTINUOUS
10
4.62826
20
-5.01811
11
4.63576
21
-5.01436
0
LINE
8
BLACK
6
CONTINUOUS
10
4.68825
20
-5.01436
11
4.74074
21
-5.01436
0
LINE
8
BLACK
6
CONTINUOUS
10
4.74074
20
-5.01436
11
4.707
21
-5.0931
0
LINE
8
BLACK
6
CONTINUOUS
10
4.77449
20
-5.0931
11
4.78949
21
-5.0931
0
LINE
8
BLACK
6
CONTINUOUS
10
4.78949
20
-5.0931
11
4.79699
21
-5.08935
0
LINE
8
BLACK
6
CONTINUOUS
10
4.79699
20
-5.08935
11
4.80074
21
-5.0856
0
LINE
8
BLACK
6
CONTINUOUS
10
4.80074
20
-5.0856
11
4.80824
21
-5.07436
0
LINE
8
BLACK
6
CONTINUOUS
10
4.80824
20
-5.07436
11
4.81199
21
-5.05936
0
LINE
8
BLACK
6
CONTINUOUS
10
4.81199
20
-5.05936
11
4.81199
21
-5.02936
0
LINE
8
BLACK
6
CONTINUOUS
10
4.81199
20
-5.02936
11
4.80824
21
-5.02186
0
LINE
8
BLACK
6
CONTINUOUS
10
4.80824
20
-5.02186
11
4.80449
21
-5.01811
0
LINE
8
BLACK
6
CONTINUOUS
10
4.80449
20
-5.01811
11
4.79699
21
-5.01436
0
LINE
8
BLACK
6
CONTINUOUS
10
4.79699
20
-5.01436
11
4.78199
21
-5.01436
0
LINE
8
BLACK
6
CONTINUOUS
10
4.78199
20
-5.01436
11
4.77449
21
-5.01811
0
LINE
8
BLACK
6
CONTINUOUS
10
4.77449
20
-5.01811
11
4.77074
21
-5.02186
0
LINE
8
BLACK
6
CONTINUOUS
10
4.77074
20
-5.02186
11
4.76699
21
-5.02936
0
LINE
8
BLACK
6
CONTINUOUS
10
4.76699
20
-5.02936
11
4.76699
21
-5.04811
0
LINE
8
BLACK
6
CONTINUOUS
10
4.76699
20
-5.04811
11
4.77074
21
-5.05561
0
LINE
8
BLACK
6
CONTINUOUS
10
4.77074
20
-5.05561
11
4.77449
21
-5.05936
0
LINE
8
BLACK
6
CONTINUOUS
10
4.77449
20
-5.05936
11
4.78199
21
-5.06311
0
LINE
8
BLACK
6
CONTINUOUS
10
4.78199
20
-5.06311
11
4.79699
21
-5.06311
0
LINE
8
BLACK
6
CONTINUOUS
10
4.79699
20
-5.06311
11
4.80449
21
-5.05936
0
LINE
8
BLACK
6
CONTINUOUS
10
4.80449
20
-5.05936
11
4.80824
21
-5.05561
0
LINE
8
BLACK
6
CONTINUOUS
10
4.80824
20
-5.05561
11
4.81199
21
-5.04811
0
LINE
8
BLACK
6
CONTINUOUS
10
4.84198
20
-5.01436
11
4.84198
21
-5.02936
0
LINE
8
BLACK
6
CONTINUOUS
10
4.87198
20
-5.01436
11
4.87198
21
-5.02936
0
LINE
8
BLACK
6
CONTINUOUS
10
4.98821
20
-5.1231
11
4.98446
21
-5.11935
0
LINE
8
BLACK
6
CONTINUOUS
10
4.98446
20
-5.11935
11
4.97697
21
-5.1081
0
LINE
8
BLACK
6
CONTINUOUS
10
4.97697
20
-5.1081
11
4.97322
21
-5.1006
0
LINE
8
BLACK
6
CONTINUOUS
10
4.97322
20
-5.1006
11
4.96947
21
-5.08935
0
LINE
8
BLACK
6
CONTINUOUS
10
4.96947
20
-5.08935
11
4.96572
21
-5.07061
0
LINE
8
BLACK
6
CONTINUOUS
10
4.96572
20
-5.07061
11
4.96572
21
-5.05561
0
LINE
8
BLACK
6
CONTINUOUS
10
4.96572
20
-5.05561
11
4.96947
21
-5.03686
0
LINE
8
BLACK
6
CONTINUOUS
10
4.96947
20
-5.03686
11
4.97322
21
-5.02561
0
LINE
8
BLACK
6
CONTINUOUS
10
4.97322
20
-5.02561
11
4.97697
21
-5.01811
0
LINE
8
BLACK
6
CONTINUOUS
10
4.97697
20
-5.01811
11
4.98446
21
-5.00686
0
LINE
8
BLACK
6
CONTINUOUS
10
4.98446
20
-5.00686
11
4.98821
21
-5.00312
0
LINE
8
BLACK
6
CONTINUOUS
10
5.05945
20
-5.0931
11
5.01446
21
-5.0931
0
LINE
8
BLACK
6
CONTINUOUS
10
5.03696
20
-5.0931
11
5.03696
21
-5.01436
0
LINE
8
BLACK
6
CONTINUOUS
10
5.03696
20
-5.01436
11
5.02946
21
-5.02561
0
LINE
8
BLACK
6
CONTINUOUS
10
5.02946
20
-5.02561
11
5.02196
21
-5.03311
0
LINE
8
BLACK
6
CONTINUOUS
10
5.02196
20
-5.03311
11
5.01446
21
-5.03686
0
LINE
8
BLACK
6
CONTINUOUS
10
5.0857
20
-5.01436
11
5.13819
21
-5.01436
0
LINE
8
BLACK
6
CONTINUOUS
10
5.13819
20
-5.01436
11
5.10445
21
-5.0931
0
LINE
8
BLACK
6
CONTINUOUS
10
5.22818
20
-5.0931
11
5.22818
21
-5.01436
0
LINE
8
BLACK
6
CONTINUOUS
10
5.26193
20
-5.0931
11
5.26193
21
-5.05186
0
LINE
8
BLACK
6
CONTINUOUS
10
5.26193
20
-5.05186
11
5.25818
21
-5.04436
0
LINE
8
BLACK
6
CONTINUOUS
10
5.25818
20
-5.04436
11
5.25068
21
-5.04061
0
LINE
8
BLACK
6
CONTINUOUS
10
5.25068
20
-5.04061
11
5.23943
21
-5.04061
0
LINE
8
BLACK
6
CONTINUOUS
10
5.23943
20
-5.04061
11
5.23193
21
-5.04436
0
LINE
8
BLACK
6
CONTINUOUS
10
5.23193
20
-5.04436
11
5.22818
21
-5.04811
0
LINE
8
BLACK
6
CONTINUOUS
10
5.31067
20
-5.0931
11
5.30317
21
-5.08935
0
LINE
8
BLACK
6
CONTINUOUS
10
5.30317
20
-5.08935
11
5.29942
21
-5.0856
0
LINE
8
BLACK
6
CONTINUOUS
10
5.29942
20
-5.0856
11
5.29568
21
-5.07811
0
LINE
8
BLACK
6
CONTINUOUS
10
5.29568
20
-5.07811
11
5.29568
21
-5.05561
0
LINE
8
BLACK
6
CONTINUOUS
10
5.29568
20
-5.05561
11
5.29942
21
-5.04811
0
LINE
8
BLACK
6
CONTINUOUS
10
5.29942
20
-5.04811
11
5.30317
21
-5.04436
0
LINE
8
BLACK
6
CONTINUOUS
10
5.30317
20
-5.04436
11
5.31067
21
-5.04061
0
LINE
8
BLACK
6
CONTINUOUS
10
5.31067
20
-5.04061
11
5.32192
21
-5.04061
0
LINE
8
BLACK
6
CONTINUOUS
10
5.32192
20
-5.04061
11
5.32942
21
-5.04436
0
LINE
8
BLACK
6
CONTINUOUS
10
5.32942
20
-5.04436
11
5.33317
21
-5.04811
0
LINE
8
BLACK
6
CONTINUOUS
10
5.33317
20
-5.04811
11
5.33692
21
-5.05561
0
LINE
8
BLACK
6
CONTINUOUS
10
5.33692
20
-5.05561
11
5.33692
21
-5.07811
0
LINE
8
BLACK
6
CONTINUOUS
10
5.33692
20
-5.07811
11
5.33317
21
-5.0856
0
LINE
8
BLACK
6
CONTINUOUS
10
5.33317
20
-5.0856
11
5.32942
21
-5.08935
0
LINE
8
BLACK
6
CONTINUOUS
10
5.32942
20
-5.08935
11
5.32192
21
-5.0931
0
LINE
8
BLACK
6
CONTINUOUS
10
5.32192
20
-5.0931
11
5.31067
21
-5.0931
0
LINE
8
BLACK
6
CONTINUOUS
10
5.38191
20
-5.0931
11
5.37442
21
-5.08935
0
LINE
8
BLACK
6
CONTINUOUS
10
5.37442
20
-5.08935
11
5.37067
21
-5.08186
0
LINE
8
BLACK
6
CONTINUOUS
10
5.37067
20
-5.08186
11
5.37067
21
-5.01436
0
LINE
8
BLACK
6
CONTINUOUS
10
5.44191
20
-5.08935
11
5.43441
21
-5.0931
0
LINE
8
BLACK
6
CONTINUOUS
10
5.43441
20
-5.0931
11
5.41941
21
-5.0931
0
LINE
8
BLACK
6
CONTINUOUS
10
5.41941
20
-5.0931
11
5.41191
21
-5.08935
0
LINE
8
BLACK
6
CONTINUOUS
10
5.41191
20
-5.08935
11
5.40816
21
-5.08186
0
LINE
8
BLACK
6
CONTINUOUS
10
5.40816
20
-5.08186
11
5.40816
21
-5.05186
0
LINE
8
BLACK
6
CONTINUOUS
10
5.40816
20
-5.05186
11
5.41191
21
-5.04436
0
LINE
8
BLACK
6
CONTINUOUS
10
5.41191
20
-5.04436
11
5.41941
21
-5.04061
0
LINE
8
BLACK
6
CONTINUOUS
10
5.41941
20
-5.04061
11
5.43441
21
-5.04061
0
LINE
8
BLACK
6
CONTINUOUS
10
5.43441
20
-5.04061
11
5.44191
21
-5.04436
0
LINE
8
BLACK
6
CONTINUOUS
10
5.44191
20
-5.04436
11
5.44566
21
-5.05186
0
LINE
8
BLACK
6
CONTINUOUS
10
5.44566
20
-5.05186
11
5.44566
21
-5.05936
0
LINE
8
BLACK
6
CONTINUOUS
10
5.44566
20
-5.05936
11
5.40816
21
-5.06686
0
LINE
8
BLACK
6
CONTINUOUS
10
5.47565
20
-5.08935
11
5.48315
21
-5.0931
0
LINE
8
BLACK
6
CONTINUOUS
10
5.48315
20
-5.0931
11
5.49815
21
-5.0931
0
LINE
8
BLACK
6
CONTINUOUS
10
5.49815
20
-5.0931
11
5.50565
21
-5.08935
0
LINE
8
BLACK
6
CONTINUOUS
10
5.50565
20
-5.08935
11
5.5094
21
-5.08186
0
LINE
8
BLACK
6
CONTINUOUS
10
5.5094
20
-5.08186
11
5.5094
21
-5.07811
0
LINE
8
BLACK
6
CONTINUOUS
10
5.5094
20
-5.07811
11
5.50565
21
-5.07061
0
LINE
8
BLACK
6
CONTINUOUS
10
5.50565
20
-5.07061
11
5.49815
21
-5.06686
0
LINE
8
BLACK
6
CONTINUOUS
10
5.49815
20
-5.06686
11
5.4869
21
-5.06686
0
LINE
8
BLACK
6
CONTINUOUS
10
5.4869
20
-5.06686
11
5.4794
21
-5.06311
0
LINE
8
BLACK
6
CONTINUOUS
10
5.4794
20
-5.06311
11
5.47565
21
-5.05561
0
LINE
8
BLACK
6
CONTINUOUS
10
5.47565
20
-5.05561
11
5.47565
21
-5.05186
0
LINE
8
BLACK
6
CONTINUOUS
10
5.47565
20
-5.05186
11
5.4794
21
-5.04436
0
LINE
8
BLACK
6
CONTINUOUS
10
5.4794
20
-5.04436
11
5.4869
21
-5.04061
0
LINE
8
BLACK
6
CONTINUOUS
10
5.4869
20
-5.04061
11
5.49815
21
-5.04061
0
LINE
8
BLACK
6
CONTINUOUS
10
5.49815
20
-5.04061
11
5.50565
21
-5.04436
0
LINE
8
BLACK
6
CONTINUOUS
10
5.53565
20
-5.1231
11
5.53939
21
-5.11935
0
LINE
8
BLACK
6
CONTINUOUS
10
5.53939
20
-5.11935
11
5.54689
21
-5.1081
0
LINE
8
BLACK
6
CONTINUOUS
10
5.54689
20
-5.1081
11
5.55064
21
-5.1006
0
LINE
8
BLACK
6
CONTINUOUS
10
5.55064
20
-5.1006
11
5.55439
21
-5.08935
0
LINE
8
BLACK
6
CONTINUOUS
10
5.55439
20
-5.08935
11
5.55814
21
-5.07061
0
LINE
8
BLACK
6
CONTINUOUS
10
5.55814
20
-5.07061
11
5.55814
21
-5.05561
0
LINE
8
BLACK
6
CONTINUOUS
10
5.55814
20
-5.05561
11
5.55439
21
-5.03686
0
LINE
8
BLACK
6
CONTINUOUS
10
5.55439
20
-5.03686
11
5.55064
21
-5.02561
0
LINE
8
BLACK
6
CONTINUOUS
10
5.55064
20
-5.02561
11
5.54689
21
-5.01811
0
LINE
8
BLACK
6
CONTINUOUS
10
5.54689
20
-5.01811
11
5.53939
21
-5.00686
0
LINE
8
BLACK
6
CONTINUOUS
10
5.53939
20
-5.00686
11
5.53565
21
-5.00312
0
CIRCLE
8
BLACK
10
3.5748
20
-5.16102
40
0.00590551
0
LINE
8
BLACK
6
CONTINUOUS
10
3.69837
20
-5.1183
11
3.70587
21
-5.1183
0
LINE
8
BLACK
6
CONTINUOUS
10
3.70587
20
-5.1183
11
3.71337
21
-5.12205
0
LINE
8
BLACK
6
CONTINUOUS
10
3.71337
20
-5.12205
11
3.71712
21
-5.1258
0
LINE
8
BLACK
6
CONTINUOUS
10
3.71712
20
-5.1258
11
3.72087
21
-5.1333
0
LINE
8
BLACK
6
CONTINUOUS
10
3.72087
20
-5.1333
11
3.72462
21
-5.1483
0
LINE
8
BLACK
6
CONTINUOUS
10
3.72462
20
-5.1483
11
3.72462
21
-5.16704
0
LINE
8
BLACK
6
CONTINUOUS
10
3.72462
20
-5.16704
11
3.72087
21
-5.18204
0
LINE
8
BLACK
6
CONTINUOUS
10
3.72087
20
-5.18204
11
3.71712
21
-5.18954
0
LINE
8
BLACK
6
CONTINUOUS
10
3.71712
20
-5.18954
11
3.71337
21
-5.19329
0
LINE
8
BLACK
6
CONTINUOUS
10
3.71337
20
-5.19329
11
3.70587
21
-5.19704
0
LINE
8
BLACK
6
CONTINUOUS
10
3.70587
20
-5.19704
11
3.69837
21
-5.19704
0
LINE
8
BLACK
6
CONTINUOUS
10
3.69837
20
-5.19704
11
3.69088
21
-5.19329
0
LINE
8
BLACK
6
CONTINUOUS
10
3.69088
20
-5.19329
11
3.68713
21
-5.18954
0
LINE
8
BLACK
6
CONTINUOUS
10
3.68713
20
-5.18954
11
3.68338
21
-5.18204
0
LINE
8
BLACK
6
CONTINUOUS
10
3.68338
20
-5.18204
11
3.67963
21
-5.16704
0
LINE
8
BLACK
6
CONTINUOUS
10
3.67963
20
-5.16704
11
3.67963
21
-5.1483
0
LINE
8
BLACK
6
CONTINUOUS
10
3.67963
20
-5.1483
11
3.68338
21
-5.1333
0
LINE
8
BLACK
6
CONTINUOUS
10
3.68338
20
-5.1333
11
3.68713
21
-5.1258
0
LINE
8
BLACK
6
CONTINUOUS
10
3.68713
20
-5.1258
11
3.69088
21
-5.12205
0
LINE
8
BLACK
6
CONTINUOUS
10
3.69088
20
-5.12205
11
3.69837
21
-5.1183
0
LINE
8
BLACK
6
CONTINUOUS
10
3.75837
20
-5.18954
11
3.76212
21
-5.19329
0
LINE
8
BLACK
6
CONTINUOUS
10
3.76212
20
-5.19329
11
3.75837
21
-5.19704
0
LINE
8
BLACK
6
CONTINUOUS
10
3.75837
20
-5.19704
11
3.75462
21
-5.19329
0
LINE
8
BLACK
6
CONTINUOUS
10
3.75462
20
-5.19329
11
3.75837
21
-5.18954
0
LINE
8
BLACK
6
CONTINUOUS
10
3.75837
20
-5.18954
11
3.75837
21
-5.19704
0
LINE
8
BLACK
6
CONTINUOUS
10
3.78836
20
-5.1183
11
3.83711
21
-5.1183
0
LINE
8
BLACK
6
CONTINUOUS
10
3.83711
20
-5.1183
11
3.81086
21
-5.1483
0
LINE
8
BLACK
6
CONTINUOUS
10
3.81086
20
-5.1483
11
3.82211
21
-5.1483
0
LINE
8
BLACK
6
CONTINUOUS
10
3.82211
20
-5.1483
11
3.82961
21
-5.15205
0
LINE
8
BLACK
6
CONTINUOUS
10
3.82961
20
-5.15205
11
3.83336
21
-5.1558
0
LINE
8
BLACK
6
CONTINUOUS
10
3.83336
20
-5.1558
11
3.83711
21
-5.1633
0
LINE
8
BLACK
6
CONTINUOUS
10
3.83711
20
-5.1633
11
3.83711
21
-5.18204
0
LINE
8
BLACK
6
CONTINUOUS
10
3.83711
20
-5.18204
11
3.83336
21
-5.18954
0
LINE
8
BLACK
6
CONTINUOUS
10
3.83336
20
-5.18954
11
3.82961
21
-5.19329
0
LINE
8
BLACK
6
CONTINUOUS
10
3.82961
20
-5.19329
11
3.82211
21
-5.19704
0
LINE
8
BLACK
6
CONTINUOUS
10
3.82211
20
-5.19704
11
3.79961
21
-5.19704
0
LINE
8
BLACK
6
CONTINUOUS
10
3.79961
20
-5.19704
11
3.79211
21
-5.19329
0
LINE
8
BLACK
6
CONTINUOUS
10
3.79211
20
-5.19329
11
3.78836
21
-5.18954
0
LINE
8
BLACK
6
CONTINUOUS
10
3.88585
20
-5.1183
11
3.89335
21
-5.1183
0
LINE
8
BLACK
6
CONTINUOUS
10
3.89335
20
-5.1183
11
3.90085
21
-5.12205
0
LINE
8
BLACK
6
CONTINUOUS
10
3.90085
20
-5.12205
11
3.9046
21
-5.1258
0
LINE
8
BLACK
6
CONTINUOUS
10
3.9046
20
-5.1258
11
3.90835
21
-5.1333
0
LINE
8
BLACK
6
CONTINUOUS
10
3.90835
20
-5.1333
11
3.9121
21
-5.1483
0
LINE
8
BLACK
6
CONTINUOUS
10
3.9121
20
-5.1483
11
3.9121
21
-5.16704
0
LINE
8
BLACK
6
CONTINUOUS
10
3.9121
20
-5.16704
11
3.90835
21
-5.18204
0
LINE
8
BLACK
6
CONTINUOUS
10
3.90835
20
-5.18204
11
3.9046
21
-5.18954
0
LINE
8
BLACK
6
CONTINUOUS
10
3.9046
20
-5.18954
11
3.90085
21
-5.19329
0
LINE
8
BLACK
6
CONTINUOUS
10
3.90085
20
-5.19329
11
3.89335
21
-5.19704
0
LINE
8
BLACK
6
CONTINUOUS
10
3.89335
20
-5.19704
11
3.88585
21
-5.19704
0
LINE
8
BLACK
6
CONTINUOUS
10
3.88585
20
-5.19704
11
3.87835
21
-5.19329
0
LINE
8
BLACK
6
CONTINUOUS
10
3.87835
20
-5.19329
11
3.8746
21
-5.18954
0
LINE
8
BLACK
6
CONTINUOUS
10
3.8746
20
-5.18954
11
3.87085
21
-5.18204
0
LINE
8
BLACK
6
CONTINUOUS
10
3.87085
20
-5.18204
11
3.8671
21
-5.16704
0
LINE
8
BLACK
6
CONTINUOUS
10
3.8671
20
-5.16704
11
3.8671
21
-5.1483
0
LINE
8
BLACK
6
CONTINUOUS
10
3.8671
20
-5.1483
11
3.87085
21
-5.1333
0
LINE
8
BLACK
6
CONTINUOUS
10
3.87085
20
-5.1333
11
3.8746
21
-5.1258
0
LINE
8
BLACK
6
CONTINUOUS
10
3.8746
20
-5.1258
11
3.87835
21
-5.12205
0
LINE
8
BLACK
6
CONTINUOUS
10
3.87835
20
-5.12205
11
3.88585
21
-5.1183
0
LINE
8
BLACK
6
CONTINUOUS
10
3.96084
20
-5.1183
11
3.96834
21
-5.1183
0
LINE
8
BLACK
6
CONTINUOUS
10
3.96834
20
-5.1183
11
3.97584
21
-5.12205
0
LINE
8
BLACK
6
CONTINUOUS
10
3.97584
20
-5.12205
11
3.97959
21
-5.1258
0
LINE
8
BLACK
6
CONTINUOUS
10
3.97959
20
-5.1258
11
3.98334
21
-5.1333
0
LINE
8
BLACK
6
CONTINUOUS
10
3.98334
20
-5.1333
11
3.98709
21
-5.1483
0
LINE
8
BLACK
6
CONTINUOUS
10
3.98709
20
-5.1483
11
3.98709
21
-5.16704
0
LINE
8
BLACK
6
CONTINUOUS
10
3.98709
20
-5.16704
11
3.98334
21
-5.18204
0
LINE
8
BLACK
6
CONTINUOUS
10
3.98334
20
-5.18204
11
3.97959
21
-5.18954
0
LINE
8
BLACK
6
CONTINUOUS
10
3.97959
20
-5.18954
11
3.97584
21
-5.19329
0
LINE
8
BLACK
6
CONTINUOUS
10
3.97584
20
-5.19329
11
3.96834
21
-5.19704
0
LINE
8
BLACK
6
CONTINUOUS
10
3.96834
20
-5.19704
11
3.96084
21
-5.19704
0
LINE
8
BLACK
6
CONTINUOUS
10
3.96084
20
-5.19704
11
3.95334
21
-5.19329
0
LINE
8
BLACK
6
CONTINUOUS
10
3.95334
20
-5.19329
11
3.94959
21
-5.18954
0
LINE
8
BLACK
6
CONTINUOUS
10
3.94959
20
-5.18954
11
3.94584
21
-5.18204
0
LINE
8
BLACK
6
CONTINUOUS
10
3.94584
20
-5.18204
11
3.94209
21
-5.16704
0
LINE
8
BLACK
6
CONTINUOUS
10
3.94209
20
-5.16704
11
3.94209
21
-5.1483
0
LINE
8
BLACK
6
CONTINUOUS
10
3.94209
20
-5.1483
11
3.94584
21
-5.1333
0
LINE
8
BLACK
6
CONTINUOUS
10
3.94584
20
-5.1333
11
3.94959
21
-5.1258
0
LINE
8
BLACK
6
CONTINUOUS
10
3.94959
20
-5.1258
11
3.95334
21
-5.12205
0
LINE
8
BLACK
6
CONTINUOUS
10
3.95334
20
-5.12205
11
3.96084
21
-5.1183
0
LINE
8
BLACK
6
CONTINUOUS
10
4.02083
20
-5.19704
11
4.02083
21
-5.14455
0
LINE
8
BLACK
6
CONTINUOUS
10
4.02083
20
-5.15205
11
4.02458
21
-5.1483
0
LINE
8
BLACK
6
CONTINUOUS
10
4.02458
20
-5.1483
11
4.03208
21
-5.14455
0
LINE
8
BLACK
6
CONTINUOUS
10
4.03208
20
-5.14455
11
4.04333
21
-5.14455
0
LINE
8
BLACK
6
CONTINUOUS
10
4.04333
20
-5.14455
11
4.05083
21
-5.1483
0
LINE
8
BLACK
6
CONTINUOUS
10
4.05083
20
-5.1483
11
4.05458
21
-5.1558
0
LINE
8
BLACK
6
CONTINUOUS
10
4.05458
20
-5.1558
11
4.05458
21
-5.19704
0
LINE
8
BLACK
6
CONTINUOUS
10
4.05458
20
-5.1558
11
4.05833
21
-5.1483
0
LINE
8
BLACK
6
CONTINUOUS
10
4.05833
20
-5.1483
11
4.06583
21
-5.14455
0
LINE
8
BLACK
6
CONTINUOUS
10
4.06583
20
-5.14455
11
4.07708
21
-5.14455
0
LINE
8
BLACK
6
CONTINUOUS
10
4.07708
20
-5.14455
11
4.08458
21
-5.1483
0
LINE
8
BLACK
6
CONTINUOUS
10
4.08458
20
-5.1483
11
4.08833
21
-5.1558
0
LINE
8
BLACK
6
CONTINUOUS
10
4.08833
20
-5.1558
11
4.08833
21
-5.19704
0
LINE
8
BLACK
6
CONTINUOUS
10
4.12582
20
-5.19704
11
4.12582
21
-5.14455
0
LINE
8
BLACK
6
CONTINUOUS
10
4.12582
20
-5.15205
11
4.12957
21
-5.1483
0
LINE
8
BLACK
6
CONTINUOUS
10
4.12957
20
-5.1483
11
4.13707
21
-5.14455
0
LINE
8
BLACK
6
CONTINUOUS
10
4.13707
20
-5.14455
11
4.14832
21
-5.14455
0
LINE
8
BLACK
6
CONTINUOUS
10
4.14832
20
-5.14455
11
4.15582
21
-5.1483
0
LINE
8
BLACK
6
CONTINUOUS
10
4.15582
20
-5.1483
11
4.15957
21
-5.1558
0
LINE
8
BLACK
6
CONTINUOUS
10
4.15957
20
-5.1558
11
4.15957
21
-5.19704
0
LINE
8
BLACK
6
CONTINUOUS
10
4.15957
20
-5.1558
11
4.16332
21
-5.1483
0
LINE
8
BLACK
6
CONTINUOUS
10
4.16332
20
-5.1483
11
4.17082
21
-5.14455
0
LINE
8
BLACK
6
CONTINUOUS
10
4.17082
20
-5.14455
11
4.18206
21
-5.14455
0
LINE
8
BLACK
6
CONTINUOUS
10
4.18206
20
-5.14455
11
4.18956
21
-5.1483
0
LINE
8
BLACK
6
CONTINUOUS
10
4.18956
20
-5.1483
11
4.19331
21
-5.1558
0
LINE
8
BLACK
6
CONTINUOUS
10
4.19331
20
-5.1558
11
4.19331
21
-5.19704
0
LINE
8
BLACK
6
CONTINUOUS
10
4.34704
20
-5.11455
11
4.27955
21
-5.21579
0
LINE
8
BLACK
6
CONTINUOUS
10
4.44828
20
-5.1183
11
4.45578
21
-5.1183
0
LINE
8
BLACK
6
CONTINUOUS
10
4.45578
20
-5.1183
11
4.46328
21
-5.12205
0
LINE
8
BLACK
6
CONTINUOUS
10
4.46328
20
-5.12205
11
4.46703
21
-5.1258
0
LINE
8
BLACK
6
CONTINUOUS
10
4.46703
20
-5.1258
11
4.47078
21
-5.1333
0
LINE
8
BLACK
6
CONTINUOUS
10
4.47078
20
-5.1333
11
4.47453
21
-5.1483
0
LINE
8
BLACK
6
CONTINUOUS
10
4.47453
20
-5.1483
11
4.47453
21
-5.16704
0
LINE
8
BLACK
6
CONTINUOUS
10
4.47453
20
-5.16704
11
4.47078
21
-5.18204
0
LINE
8
BLACK
6
CONTINUOUS
10
4.47078
20
-5.18204
11
4.46703
21
-5.18954
0
LINE
8
BLACK
6
CONTINUOUS
10
4.46703
20
-5.18954
11
4.46328
21
-5.19329
0
LINE
8
BLACK
6
CONTINUOUS
10
4.46328
20
-5.19329
11
4.45578
21
-5.19704
0
LINE
8
BLACK
6
CONTINUOUS
10
4.45578
20
-5.19704
11
4.44828
21
-5.19704
0
LINE
8
BLACK
6
CONTINUOUS
10
4.44828
20
-5.19704
11
4.44078
21
-5.19329
0
LINE
8
BLACK
6
CONTINUOUS
10
4.44078
20
-5.19329
11
4.43703
21
-5.18954
0
LINE
8
BLACK
6
CONTINUOUS
10
4.43703
20
-5.18954
11
4.43328
21
-5.18204
0
LINE
8
BLACK
6
CONTINUOUS
10
4.43328
20
-5.18204
11
4.42953
21
-5.16704
0
LINE
8
BLACK
6
CONTINUOUS
10
4.42953
20
-5.16704
11
4.42953
21
-5.1483
0
LINE
8
BLACK
6
CONTINUOUS
10
4.42953
20
-5.1483
11
4.43328
21
-5.1333
0
LINE
8
BLACK
6
CONTINUOUS
10
4.43328
20
-5.1333
11
4.43703
21
-5.1258
0
LINE
8
BLACK
6
CONTINUOUS
10
4.43703
20
-5.1258
11
4.44078
21
-5.12205
0
LINE
8
BLACK
6
CONTINUOUS
10
4.44078
20
-5.12205
11
4.44828
21
-5.1183
0
LINE
8
BLACK
6
CONTINUOUS
10
4.50827
20
-5.18954
11
4.51202
21
-5.19329
0
LINE
8
BLACK
6
CONTINUOUS
10
4.51202
20
-5.19329
11
4.50827
21
-5.19704
0
LINE
8
BLACK
6
CONTINUOUS
10
4.50827
20
-5.19704
11
4.50452
21
-5.19329
0
LINE
8
BLACK
6
CONTINUOUS
10
4.50452
20
-5.19329
11
4.50827
21
-5.18954
0
LINE
8
BLACK
6
CONTINUOUS
10
4.50827
20
-5.18954
11
4.50827
21
-5.19704
0
LINE
8
BLACK
6
CONTINUOUS
10
4.56077
20
-5.1183
11
4.56827
21
-5.1183
0
LINE
8
BLACK
6
CONTINUOUS
10
4.56827
20
-5.1183
11
4.57577
21
-5.12205
0
LINE
8
BLACK
6
CONTINUOUS
10
4.57577
20
-5.12205
11
4.57951
21
-5.1258
0
LINE
8
BLACK
6
CONTINUOUS
10
4.57951
20
-5.1258
11
4.58326
21
-5.1333
0
LINE
8
BLACK
6
CONTINUOUS
10
4.58326
20
-5.1333
11
4.58701
21
-5.1483
0
LINE
8
BLACK
6
CONTINUOUS
10
4.58701
20
-5.1483
11
4.58701
21
-5.16704
0
LINE
8
BLACK
6
CONTINUOUS
10
4.58701
20
-5.16704
11
4.58326
21
-5.18204
0
LINE
8
BLACK
6
CONTINUOUS
10
4.58326
20
-5.18204
11
4.57951
21
-5.18954
0
LINE
8
BLACK
6
CONTINUOUS
10
4.57951
20
-5.18954
11
4.57577
21
-5.19329
0
LINE
8
BLACK
6
CONTINUOUS
10
4.57577
20
-5.19329
11
4.56827
21
-5.19704
0
LINE
8
BLACK
6
CONTINUOUS
10
4.56827
20
-5.19704
11
4.56077
21
-5.19704
0
LINE
8
BLACK
6
CONTINUOUS
10
4.56077
20
-5.19704
11
4.55327
21
-5.19329
0
LINE
8
BLACK
6
CONTINUOUS
10
4.55327
20
-5.19329
11
4.54952
21
-5.18954
0
LINE
8
BLACK
6
CONTINUOUS
10
4.54952
20
-5.18954
11
4.54577
21
-5.18204
0
LINE
8
BLACK
6
CONTINUOUS
10
4.54577
20
-5.18204
11
4.54202
21
-5.16704
0
LINE
8
BLACK
6
CONTINUOUS
10
4.54202
20
-5.16704
11
4.54202
21
-5.1483
0
LINE
8
BLACK
6
CONTINUOUS
10
4.54202
20
-5.1483
11
4.54577
21
-5.1333
0
LINE
8
BLACK
6
CONTINUOUS
10
4.54577
20
-5.1333
11
4.54952
21
-5.1258
0
LINE
8
BLACK
6
CONTINUOUS
10
4.54952
20
-5.1258
11
4.55327
21
-5.12205
0
LINE
8
BLACK
6
CONTINUOUS
10
4.55327
20
-5.12205
11
4.56077
21
-5.1183
0
LINE
8
BLACK
6
CONTINUOUS
10
4.662
20
-5.19704
11
4.61701
21
-5.19704
0
LINE
8
BLACK
6
CONTINUOUS
10
4.63951
20
-5.19704
11
4.63951
21
-5.1183
0
LINE
8
BLACK
6
CONTINUOUS
10
4.63951
20
-5.1183
11
4.63201
21
-5.12955
0
LINE
8
BLACK
6
CONTINUOUS
10
4.63201
20
-5.12955
11
4.62451
21
-5.13705
0
LINE
8
BLACK
6
CONTINUOUS
10
4.62451
20
-5.13705
11
4.61701
21
-5.1408
0
LINE
8
BLACK
6
CONTINUOUS
10
4.737
20
-5.19704
11
4.692
21
-5.19704
0
LINE
8
BLACK
6
CONTINUOUS
10
4.7145
20
-5.19704
11
4.7145
21
-5.1183
0
LINE
8
BLACK
6
CONTINUOUS
10
4.7145
20
-5.1183
11
4.707
21
-5.12955
0
LINE
8
BLACK
6
CONTINUOUS
10
4.707
20
-5.12955
11
4.6995
21
-5.13705
0
LINE
8
BLACK
6
CONTINUOUS
10
4.6995
20
-5.13705
11
4.692
21
-5.1408
0
LINE
8
BLACK
6
CONTINUOUS
10
4.78199
20
-5.15205
11
4.77449
21
-5.1483
0
LINE
8
BLACK
6
CONTINUOUS
10
4.77449
20
-5.1483
11
4.77074
21
-5.14455
0
LINE
8
BLACK
6
CONTINUOUS
10
4.77074
20
-5.14455
11
4.76699
21
-5.13705
0
LINE
8
BLACK
6
CONTINUOUS
10
4.76699
20
-5.13705
11
4.76699
21
-5.1333
0
LINE
8
BLACK
6
CONTINUOUS
10
4.76699
20
-5.1333
11
4.77074
21
-5.1258
0
LINE
8
BLACK
6
CONTINUOUS
10
4.77074
20
-5.1258
11
4.77449
21
-5.12205
0
LINE
8
BLACK
6
CONTINUOUS
10
4.77449
20
-5.12205
11
4.78199
21
-5.1183
0
LINE
8
BLACK
6
CONTINUOUS
10
4.78199
20
-5.1183
11
4.79699
21
-5.1183
0
LINE
8
BLACK
6
CONTINUOUS
10
4.79699
20
-5.1183
11
4.80449
21
-5.12205
0
LINE
8
BLACK
6
CONTINUOUS
10
4.80449
20
-5.12205
11
4.80824
21
-5.1258
0
LINE
8
BLACK
6
CONTINUOUS
10
4.80824
20
-5.1258
11
4.81199
21
-5.1333
0
LINE
8
BLACK
6
CONTINUOUS
10
4.81199
20
-5.1333
11
4.81199
21
-5.13705
0
LINE
8
BLACK
6
CONTINUOUS
10
4.81199
20
-5.13705
11
4.80824
21
-5.14455
0
LINE
8
BLACK
6
CONTINUOUS
10
4.80824
20
-5.14455
11
4.80449
21
-5.1483
0
LINE
8
BLACK
6
CONTINUOUS
10
4.80449
20
-5.1483
11
4.79699
21
-5.15205
0
LINE
8
BLACK
6
CONTINUOUS
10
4.79699
20
-5.15205
11
4.78199
21
-5.15205
0
LINE
8
BLACK
6
CONTINUOUS
10
4.78199
20
-5.15205
11
4.77449
21
-5.1558
0
LINE
8
BLACK
6
CONTINUOUS
10
4.77449
20
-5.1558
11
4.77074
21
-5.15955
0
LINE
8
BLACK
6
CONTINUOUS
10
4.77074
20
-5.15955
11
4.76699
21
-5.16704
0
LINE
8
BLACK
6
CONTINUOUS
10
4.76699
20
-5.16704
11
4.76699
21
-5.18204
0
LINE
8
BLACK
6
CONTINUOUS
10
4.76699
20
-5.18204
11
4.77074
21
-5.18954
0
LINE
8
BLACK
6
CONTINUOUS
10
4.77074
20
-5.18954
11
4.77449
21
-5.19329
0
LINE
8
BLACK
6
CONTINUOUS
10
4.77449
20
-5.19329
11
4.78199
21
-5.19704
0
LINE
8
BLACK
6
CONTINUOUS
10
4.78199
20
-5.19704
11
4.79699
21
-5.19704
0
LINE
8
BLACK
6
CONTINUOUS
10
4.79699
20
-5.19704
11
4.80449
21
-5.19329
0
LINE
8
BLACK
6
CONTINUOUS
10
4.80449
20
-5.19329
11
4.80824
21
-5.18954
0
LINE
8
BLACK
6
CONTINUOUS
10
4.80824
20
-5.18954
11
4.81199
21
-5.18204
0
LINE
8
BLACK
6
CONTINUOUS
10
4.81199
20
-5.18204
11
4.81199
21
-5.16704
0
LINE
8
BLACK
6
CONTINUOUS
10
4.81199
20
-5.16704
11
4.80824
21
-5.15955
0
LINE
8
BLACK
6
CONTINUOUS
10
4.80824
20
-5.15955
11
4.80449
21
-5.1558
0
LINE
8
BLACK
6
CONTINUOUS
10
4.80449
20
-5.1558
11
4.79699
21
-5.15205
0
LINE
8
BLACK
6
CONTINUOUS
10
4.84198
20
-5.1183
11
4.84198
21
-5.1333
0
LINE
8
BLACK
6
CONTINUOUS
10
4.87198
20
-5.1183
11
4.87198
21
-5.1333
0
LINE
8
BLACK
6
CONTINUOUS
10
4.98821
20
-5.22704
11
4.98446
21
-5.22329
0
LINE
8
BLACK
6
CONTINUOUS
10
4.98446
20
-5.22329
11
4.97697
21
-5.21204
0
LINE
8
BLACK
6
CONTINUOUS
10
4.97697
20
-5.21204
11
4.97322
21
-5.20454
0
LINE
8
BLACK
6
CONTINUOUS
10
4.97322
20
-5.20454
11
4.96947
21
-5.19329
0
LINE
8
BLACK
6
CONTINUOUS
10
4.96947
20
-5.19329
11
4.96572
21
-5.17454
0
LINE
8
BLACK
6
CONTINUOUS
10
4.96572
20
-5.17454
11
4.96572
21
-5.15955
0
LINE
8
BLACK
6
CONTINUOUS
10
4.96572
20
-5.15955
11
4.96947
21
-5.1408
0
LINE
8
BLACK
6
CONTINUOUS
10
4.96947
20
-5.1408
11
4.97322
21
-5.12955
0
LINE
8
BLACK
6
CONTINUOUS
10
4.97322
20
-5.12955
11
4.97697
21
-5.12205
0
LINE
8
BLACK
6
CONTINUOUS
10
4.97697
20
-5.12205
11
4.98446
21
-5.1108
0
LINE
8
BLACK
6
CONTINUOUS
10
4.98446
20
-5.1108
11
4.98821
21
-5.10705
0
LINE
8
BLACK
6
CONTINUOUS
10
5.01071
20
-5.1183
11
5.05945
21
-5.1183
0
LINE
8
BLACK
6
CONTINUOUS
10
5.05945
20
-5.1183
11
5.03321
21
-5.1483
0
LINE
8
BLACK
6
CONTINUOUS
10
5.03321
20
-5.1483
11
5.04446
21
-5.1483
0
LINE
8
BLACK
6
CONTINUOUS
10
5.04446
20
-5.1483
11
5.05196
21
-5.15205
0
LINE
8
BLACK
6
CONTINUOUS
10
5.05196
20
-5.15205
11
5.05571
21
-5.1558
0
LINE
8
BLACK
6
CONTINUOUS
10
5.05571
20
-5.1558
11
5.05945
21
-5.1633
0
LINE
8
BLACK
6
CONTINUOUS
10
5.05945
20
-5.1633
11
5.05945
21
-5.18204
0
LINE
8
BLACK
6
CONTINUOUS
10
5.05945
20
-5.18204
11
5.05571
21
-5.18954
0
LINE
8
BLACK
6
CONTINUOUS
10
5.05571
20
-5.18954
11
5.05196
21
-5.19329
0
LINE
8
BLACK
6
CONTINUOUS
10
5.05196
20
-5.19329
11
5.04446
21
-5.19704
0
LINE
8
BLACK
6
CONTINUOUS
10
5.04446
20
-5.19704
11
5.02196
21
-5.19704
0
LINE
8
BLACK
6
CONTINUOUS
10
5.02196
20
-5.19704
11
5.01446
21
-5.19329
0
LINE
8
BLACK
6
CONTINUOUS
10
5.01446
20
-5.19329
11
5.01071
21
-5.18954
0
LINE
8
BLACK
6
CONTINUOUS
10
5.1307
20
-5.1183
11
5.0932
21
-5.1183
0
LINE
8
BLACK
6
CONTINUOUS
10
5.0932
20
-5.1183
11
5.08945
21
-5.1558
0
LINE
8
BLACK
6
CONTINUOUS
10
5.08945
20
-5.1558
11
5.0932
21
-5.15205
0
LINE
8
BLACK
6
CONTINUOUS
10
5.0932
20
-5.15205
11
5.1007
21
-5.1483
0
LINE
8
BLACK
6
CONTINUOUS
10
5.1007
20
-5.1483
11
5.11945
21
-5.1483
0
LINE
8
BLACK
6
CONTINUOUS
10
5.11945
20
-5.1483
11
5.12695
21
-5.15205
0
LINE
8
BLACK
6
CONTINUOUS
10
5.12695
20
-5.15205
11
5.1307
21
-5.1558
0
LINE
8
BLACK
6
CONTINUOUS
10
5.1307
20
-5.1558
11
5.13445
21
-5.1633
0
LINE
8
BLACK
6
CONTINUOUS
10
5.13445
20
-5.1633
11
5.13445
21
-5.18204
0
LINE
8
BLACK
6
CONTINUOUS
10
5.13445
20
-5.18204
11
5.1307
21
-5.18954
0
LINE
8
BLACK
6
CONTINUOUS
10
5.1307
20
-5.18954
11
5.12695
21
-5.19329
0
LINE
8
BLACK
6
CONTINUOUS
10
5.12695
20
-5.19329
11
5.11945
21
-5.19704
0
LINE
8
BLACK
6
CONTINUOUS
10
5.11945
20
-5.19704
11
5.1007
21
-5.19704
0
LINE
8
BLACK
6
CONTINUOUS
10
5.1007
20
-5.19704
11
5.0932
21
-5.19329
0
LINE
8
BLACK
6
CONTINUOUS
10
5.0932
20
-5.19329
11
5.08945
21
-5.18954
0
LINE
8
BLACK
6
CONTINUOUS
10
5.22818
20
-5.19704
11
5.22818
21
-5.1183
0
LINE
8
BLACK
6
CONTINUOUS
10
5.26193
20
-5.19704
11
5.26193
21
-5.1558
0
LINE
8
BLACK
6
CONTINUOUS
10
5.26193
20
-5.1558
11
5.25818
21
-5.1483
0
LINE
8
BLACK
6
CONTINUOUS
10
5.25818
20
-5.1483
11
5.25068
21
-5.14455
0
LINE
8
BLACK
6
CONTINUOUS
10
5.25068
20
-5.14455
11
5.23943
21
-5.14455
0
LINE
8
BLACK
6
CONTINUOUS
10
5.23943
20
-5.14455
11
5.23193
21
-5.1483
0
LINE
8
BLACK
6
CONTINUOUS
10
5.23193
20
-5.1483
11
5.22818
21
-5.15205
0
LINE
8
BLACK
6
CONTINUOUS
10
5.31067
20
-5.19704
11
5.30317
21
-5.19329
0
LINE
8
BLACK
6
CONTINUOUS
10
5.30317
20
-5.19329
11
5.29942
21
-5.18954
0
LINE
8
BLACK
6
CONTINUOUS
10
5.29942
20
-5.18954
11
5.29568
21
-5.18204
0
LINE
8
BLACK
6
CONTINUOUS
10
5.29568
20
-5.18204
11
5.29568
21
-5.15955
0
LINE
8
BLACK
6
CONTINUOUS
10
5.29568
20
-5.15955
11
5.29942
21
-5.15205
0
LINE
8
BLACK
6
CONTINUOUS
10
5.29942
20
-5.15205
11
5.30317
21
-5.1483
0
LINE
8
BLACK
6
CONTINUOUS
10
5.30317
20
-5.1483
11
5.31067
21
-5.14455
0
LINE
8
BLACK
6
CONTINUOUS
10
5.31067
20
-5.14455
11
5.32192
21
-5.14455
0
LINE
8
BLACK
6
CONTINUOUS
10
5.32192
20
-5.14455
11
5.32942
21
-5.1483
0
LINE
8
BLACK
6
CONTINUOUS
10
5.32942
20
-5.1483
11
5.33317
21
-5.15205
0
LINE
8
BLACK
6
CONTINUOUS
10
5.33317
20
-5.15205
11
5.33692
21
-5.15955
0
LINE
8
BLACK
6
CONTINUOUS
10
5.33692
20
-5.15955
11
5.33692
21
-5.18204
0
LINE
8
BLACK
6
CONTINUOUS
10
5.33692
20
-5.18204
11
5.33317
21
-5.18954
0
LINE
8
BLACK
6
CONTINUOUS
10
5.33317
20
-5.18954
11
5.32942
21
-5.19329
0
LINE
8
BLACK
6
CONTINUOUS
10
5.32942
20
-5.19329
11
5.32192
21
-5.19704
0
LINE
8
BLACK
6
CONTINUOUS
10
5.32192
20
-5.19704
11
5.31067
21
-5.19704
0
LINE
8
BLACK
6
CONTINUOUS
10
5.38191
20
-5.19704
11
5.37442
21
-5.19329
0
LINE
8
BLACK
6
CONTINUOUS
10
5.37442
20
-5.19329
11
5.37067
21
-5.18579
0
LINE
8
BLACK
6
CONTINUOUS
10
5.37067
20
-5.18579
11
5.37067
21
-5.1183
0
LINE
8
BLACK
6
CONTINUOUS
10
5.44191
20
-5.19329
11
5.43441
21
-5.19704
0
LINE
8
BLACK
6
CONTINUOUS
10
5.43441
20
-5.19704
11
5.41941
21
-5.19704
0
LINE
8
BLACK
6
CONTINUOUS
10
5.41941
20
-5.19704
11
5.41191
21
-5.19329
0
LINE
8
BLACK
6
CONTINUOUS
10
5.41191
20
-5.19329
11
5.40816
21
-5.18579
0
LINE
8
BLACK
6
CONTINUOUS
10
5.40816
20
-5.18579
11
5.40816
21
-5.1558
0
LINE
8
BLACK
6
CONTINUOUS
10
5.40816
20
-5.1558
11
5.41191
21
-5.1483
0
LINE
8
BLACK
6
CONTINUOUS
10
5.41191
20
-5.1483
11
5.41941
21
-5.14455
0
LINE
8
BLACK
6
CONTINUOUS
10
5.41941
20
-5.14455
11
5.43441
21
-5.14455
0
LINE
8
BLACK
6
CONTINUOUS
10
5.43441
20
-5.14455
11
5.44191
21
-5.1483
0
LINE
8
BLACK
6
CONTINUOUS
10
5.44191
20
-5.1483
11
5.44566
21
-5.1558
0
LINE
8
BLACK
6
CONTINUOUS
10
5.44566
20
-5.1558
11
5.44566
21
-5.1633
0
LINE
8
BLACK
6
CONTINUOUS
10
5.44566
20
-5.1633
11
5.40816
21
-5.17079
0
LINE
8
BLACK
6
CONTINUOUS
10
5.47565
20
-5.19329
11
5.48315
21
-5.19704
0
LINE
8
BLACK
6
CONTINUOUS
10
5.48315
20
-5.19704
11
5.49815
21
-5.19704
0
LINE
8
BLACK
6
CONTINUOUS
10
5.49815
20
-5.19704
11
5.50565
21
-5.19329
0
LINE
8
BLACK
6
CONTINUOUS
10
5.50565
20
-5.19329
11
5.5094
21
-5.18579
0
LINE
8
BLACK
6
CONTINUOUS
10
5.5094
20
-5.18579
11
5.5094
21
-5.18204
0
LINE
8
BLACK
6
CONTINUOUS
10
5.5094
20
-5.18204
11
5.50565
21
-5.17454
0
LINE
8
BLACK
6
CONTINUOUS
10
5.50565
20
-5.17454
11
5.49815
21
-5.17079
0
LINE
8
BLACK
6
CONTINUOUS
10
5.49815
20
-5.17079
11
5.4869
21
-5.17079
0
LINE
8
BLACK
6
CONTINUOUS
10
5.4869
20
-5.17079
11
5.4794
21
-5.16704
0
LINE
8
BLACK
6
CONTINUOUS
10
5.4794
20
-5.16704
11
5.47565
21
-5.15955
0
LINE
8
BLACK
6
CONTINUOUS
10
5.47565
20
-5.15955
11
5.47565
21
-5.1558
0
LINE
8
BLACK
6
CONTINUOUS
10
5.47565
20
-5.1558
11
5.4794
21
-5.1483
0
LINE
8
BLACK
6
CONTINUOUS
10
5.4794
20
-5.1483
11
5.4869
21
-5.14455
0
LINE
8
BLACK
6
CONTINUOUS
10
5.4869
20
-5.14455
11
5.49815
21
-5.14455
0
LINE
8
BLACK
6
CONTINUOUS
10
5.49815
20
-5.14455
11
5.50565
21
-5.1483
0
LINE
8
BLACK
6
CONTINUOUS
10
5.53565
20
-5.22704
11
5.53939
21
-5.22329
0
LINE
8
BLACK
6
CONTINUOUS
10
5.53939
20
-5.22329
11
5.54689
21
-5.21204
0
LINE
8
BLACK
6
CONTINUOUS
10
5.54689
20
-5.21204
11
5.55064
21
-5.20454
0
LINE
8
BLACK
6
CONTINUOUS
10
5.55064
20
-5.20454
11
5.55439
21
-5.19329
0
LINE
8
BLACK
6
CONTINUOUS
10
5.55439
20
-5.19329
11
5.55814
21
-5.17454
0
LINE
8
BLACK
6
CONTINUOUS
10
5.55814
20
-5.17454
11
5.55814
21
-5.15955
0
LINE
8
BLACK
6
CONTINUOUS
10
5.55814
20
-5.15955
11
5.55439
21
-5.1408
0
LINE
8
BLACK
6
CONTINUOUS
10
5.55439
20
-5.1408
11
5.55064
21
-5.12955
0
LINE
8
BLACK
6
CONTINUOUS
10
5.55064
20
-5.12955
11
5.54689
21
-5.12205
0
LINE
8
BLACK
6
CONTINUOUS
10
5.54689
20
-5.12205
11
5.53939
21
-5.1108
0
LINE
8
BLACK
6
CONTINUOUS
10
5.53939
20
-5.1108
11
5.53565
21
-5.10705
0
LINE
8
BLACK
6
CONTINUOUS
10
3.57283
20
-5.25709
11
3.57283
21
-5.27283
0
LINE
8
BLACK
6
CONTINUOUS
10
3.56496
20
-5.26496
11
3.58071
21
-5.26496
0
LINE
8
BLACK
6
CONTINUOUS
10
3.69837
20
-5.22224
11
3.70587
21
-5.22224
0
LINE
8
BLACK
6
CONTINUOUS
10
3.70587
20
-5.22224
11
3.71337
21
-5.22599
0
LINE
8
BLACK
6
CONTINUOUS
10
3.71337
20
-5.22599
11
3.71712
21
-5.22974
0
LINE
8
BLACK
6
CONTINUOUS
10
3.71712
20
-5.22974
11
3.72087
21
-5.23724
0
LINE
8
BLACK
6
CONTINUOUS
10
3.72087
20
-5.23724
11
3.72462
21
-5.25223
0
LINE
8
BLACK
6
CONTINUOUS
10
3.72462
20
-5.25223
11
3.72462
21
-5.27098
0
LINE
8
BLACK
6
CONTINUOUS
10
3.72462
20
-5.27098
11
3.72087
21
-5.28598
0
LINE
8
BLACK
6
CONTINUOUS
10
3.72087
20
-5.28598
11
3.71712
21
-5.29348
0
LINE
8
BLACK
6
CONTINUOUS
10
3.71712
20
-5.29348
11
3.71337
21
-5.29723
0
LINE
8
BLACK
6
CONTINUOUS
10
3.71337
20
-5.29723
11
3.70587
21
-5.30098
0
LINE
8
BLACK
6
CONTINUOUS
10
3.70587
20
-5.30098
11
3.69837
21
-5.30098
0
LINE
8
BLACK
6
CONTINUOUS
10
3.69837
20
-5.30098
11
3.69088
21
-5.29723
0
LINE
8
BLACK
6
CONTINUOUS
10
3.69088
20
-5.29723
11
3.68713
21
-5.29348
0
LINE
8
BLACK
6
CONTINUOUS
10
3.68713
20
-5.29348
11
3.68338
21
-5.28598
0
LINE
8
BLACK
6
CONTINUOUS
10
3.68338
20
-5.28598
11
3.67963
21
-5.27098
0
LINE
8
BLACK
6
CONTINUOUS
10
3.67963
20
-5.27098
11
3.67963
21
-5.25223
0
LINE
8
BLACK
6
CONTINUOUS
10
3.67963
20
-5.25223
11
3.68338
21
-5.23724
0
LINE
8
BLACK
6
CONTINUOUS
10
3.68338
20
-5.23724
11
3.68713
21
-5.22974
0
LINE
8
BLACK
6
CONTINUOUS
10
3.68713
20
-5.22974
11
3.69088
21
-5.22599
0
LINE
8
BLACK
6
CONTINUOUS
10
3.69088
20
-5.22599
11
3.69837
21
-5.22224
0
LINE
8
BLACK
6
CONTINUOUS
10
3.75837
20
-5.29348
11
3.76212
21
-5.29723
0
LINE
8
BLACK
6
CONTINUOUS
10
3.76212
20
-5.29723
11
3.75837
21
-5.30098
0
LINE
8
BLACK
6
CONTINUOUS
10
3.75837
20
-5.30098
11
3.75462
21
-5.29723
0
LINE
8
BLACK
6
CONTINUOUS
10
3.75462
20
-5.29723
11
3.75837
21
-5.29348
0
LINE
8
BLACK
6
CONTINUOUS
10
3.75837
20
-5.29348
11
3.75837
21
-5.30098
0
LINE
8
BLACK
6
CONTINUOUS
10
3.82961
20
-5.24848
11
3.82961
21
-5.30098
0
LINE
8
BLACK
6
CONTINUOUS
10
3.81086
20
-5.21849
11
3.79211
21
-5.27473
0
LINE
8
BLACK
6
CONTINUOUS
10
3.79211
20
-5.27473
11
3.84086
21
-5.27473
0
LINE
8
BLACK
6
CONTINUOUS
10
3.88585
20
-5.22224
11
3.89335
21
-5.22224
0
LINE
8
BLACK
6
CONTINUOUS
10
3.89335
20
-5.22224
11
3.90085
21
-5.22599
0
LINE
8
BLACK
6
CONTINUOUS
10
3.90085
20
-5.22599
11
3.9046
21
-5.22974
0
LINE
8
BLACK
6
CONTINUOUS
10
3.9046
20
-5.22974
11
3.90835
21
-5.23724
0
LINE
8
BLACK
6
CONTINUOUS
10
3.90835
20
-5.23724
11
3.9121
21
-5.25223
0
LINE
8
BLACK
6
CONTINUOUS
10
3.9121
20
-5.25223
11
3.9121
21
-5.27098
0
LINE
8
BLACK
6
CONTINUOUS
10
3.9121
20
-5.27098
11
3.90835
21
-5.28598
0
LINE
8
BLACK
6
CONTINUOUS
10
3.90835
20
-5.28598
11
3.9046
21
-5.29348
0
LINE
8
BLACK
6
CONTINUOUS
10
3.9046
20
-5.29348
11
3.90085
21
-5.29723
0
LINE
8
BLACK
6
CONTINUOUS
10
3.90085
20
-5.29723
11
3.89335
21
-5.30098
0
LINE
8
BLACK
6
CONTINUOUS
10
3.89335
20
-5.30098
11
3.88585
21
-5.30098
0
LINE
8
BLACK
6
CONTINUOUS
10
3.88585
20
-5.30098
11
3.87835
21
-5.29723
0
LINE
8
BLACK
6
CONTINUOUS
10
3.87835
20
-5.29723
11
3.8746
21
-5.29348
0
LINE
8
BLACK
6
CONTINUOUS
10
3.8746
20
-5.29348
11
3.87085
21
-5.28598
0
LINE
8
BLACK
6
CONTINUOUS
10
3.87085
20
-5.28598
11
3.8671
21
-5.27098
0
LINE
8
BLACK
6
CONTINUOUS
10
3.8671
20
-5.27098
11
3.8671
21
-5.25223
0
LINE
8
BLACK
6
CONTINUOUS
10
3.8671
20
-5.25223
11
3.87085
21
-5.23724
0
LINE
8
BLACK
6
CONTINUOUS
10
3.87085
20
-5.23724
11
3.8746
21
-5.22974
0
LINE
8
BLACK
6
CONTINUOUS
10
3.8746
20
-5.22974
11
3.87835
21
-5.22599
0
LINE
8
BLACK
6
CONTINUOUS
10
3.87835
20
-5.22599
11
3.88585
21
-5.22224
0
LINE
8
BLACK
6
CONTINUOUS
10
3.96084
20
-5.22224
11
3.96834
21
-5.22224
0
LINE
8
BLACK
6
CONTINUOUS
10
3.96834
20
-5.22224
11
3.97584
21
-5.22599
0
LINE
8
BLACK
6
CONTINUOUS
10
3.97584
20
-5.22599
11
3.97959
21
-5.22974
0
LINE
8
BLACK
6
CONTINUOUS
10
3.97959
20
-5.22974
11
3.98334
21
-5.23724
0
LINE
8
BLACK
6
CONTINUOUS
10
3.98334
20
-5.23724
11
3.98709
21
-5.25223
0
LINE
8
BLACK
6
CONTINUOUS
10
3.98709
20
-5.25223
11
3.98709
21
-5.27098
0
LINE
8
BLACK
6
CONTINUOUS
10
3.98709
20
-5.27098
11
3.98334
21
-5.28598
0
LINE
8
BLACK
6
CONTINUOUS
10
3.98334
20
-5.28598
11
3.97959
21
-5.29348
0
LINE
8
BLACK
6
CONTINUOUS
10
3.97959
20
-5.29348
11
3.97584
21
-5.29723
0
LINE
8
BLACK
6
CONTINUOUS
10
3.97584
20
-5.29723
11
3.96834
21
-5.30098
0
LINE
8
BLACK
6
CONTINUOUS
10
3.96834
20
-5.30098
11
3.96084
21
-5.30098
0
LINE
8
BLACK
6
CONTINUOUS
10
3.96084
20
-5.30098
11
3.95334
21
-5.29723
0
LINE
8
BLACK
6
CONTINUOUS
10
3.95334
20
-5.29723
11
3.94959
21
-5.29348
0
LINE
8
BLACK
6
CONTINUOUS
10
3.94959
20
-5.29348
11
3.94584
21
-5.28598
0
LINE
8
BLACK
6
CONTINUOUS
10
3.94584
20
-5.28598
11
3.94209
21
-5.27098
0
LINE
8
BLACK
6
CONTINUOUS
10
3.94209
20
-5.27098
11
3.94209
21
-5.25223
0
LINE
8
BLACK
6
CONTINUOUS
10
3.94209
20
-5.25223
11
3.94584
21
-5.23724
0
LINE
8
BLACK
6
CONTINUOUS
10
3.94584
20
-5.23724
11
3.94959
21
-5.22974
0
LINE
8
BLACK
6
CONTINUOUS
10
3.94959
20
-5.22974
11
3.95334
21
-5.22599
0
LINE
8
BLACK
6
CONTINUOUS
10
3.95334
20
-5.22599
11
3.96084
21
-5.22224
0
LINE
8
BLACK
6
CONTINUOUS
10
4.02083
20
-5.30098
11
4.02083
21
-5.24848
0
LINE
8
BLACK
6
CONTINUOUS
10
4.02083
20
-5.25598
11
4.02458
21
-5.25223
0
LINE
8
BLACK
6
CONTINUOUS
10
4.02458
20
-5.25223
11
4.03208
21
-5.24848
0
LINE
8
BLACK
6
CONTINUOUS
10
4.03208
20
-5.24848
11
4.04333
21
-5.24848
0
LINE
8
BLACK
6
CONTINUOUS
10
4.04333
20
-5.24848
11
4.05083
21
-5.25223
0
LINE
8
BLACK
6
CONTINUOUS
10
4.05083
20
-5.25223
11
4.05458
21
-5.25973
0
LINE
8
BLACK
6
CONTINUOUS
10
4.05458
20
-5.25973
11
4.05458
21
-5.30098
0
LINE
8
BLACK
6
CONTINUOUS
10
4.05458
20
-5.25973
11
4.05833
21
-5.25223
0
LINE
8
BLACK
6
CONTINUOUS
10
4.05833
20
-5.25223
11
4.06583
21
-5.24848
0
LINE
8
BLACK
6
CONTINUOUS
10
4.06583
20
-5.24848
11
4.07708
21
-5.24848
0
LINE
8
BLACK
6
CONTINUOUS
10
4.07708
20
-5.24848
11
4.08458
21
-5.25223
0
LINE
8
BLACK
6
CONTINUOUS
10
4.08458
20
-5.25223
11
4.08833
21
-5.25973
0
LINE
8
BLACK
6
CONTINUOUS
10
4.08833
20
-5.25973
11
4.08833
21
-5.30098
0
LINE
8
BLACK
6
CONTINUOUS
10
4.12582
20
-5.30098
11
4.12582
21
-5.24848
0
LINE
8
BLACK
6
CONTINUOUS
10
4.12582
20
-5.25598
11
4.12957
21
-5.25223
0
LINE
8
BLACK
6
CONTINUOUS
10
4.12957
20
-5.25223
11
4.13707
21
-5.24848
0
LINE
8
BLACK
6
CONTINUOUS
10
4.13707
20
-5.24848
11
4.14832
21
-5.24848
0
LINE
8
BLACK
6
CONTINUOUS
10
4.14832
20
-5.24848
11
4.15582
21
-5.25223
0
LINE
8
BLACK
6
CONTINUOUS
10
4.15582
20
-5.25223
11
4.15957
21
-5.25973
0
LINE
8
BLACK
6
CONTINUOUS
10
4.15957
20
-5.25973
11
4.15957
21
-5.30098
0
LINE
8
BLACK
6
CONTINUOUS
10
4.15957
20
-5.25973
11
4.16332
21
-5.25223
0
LINE
8
BLACK
6
CONTINUOUS
10
4.16332
20
-5.25223
11
4.17082
21
-5.24848
0
LINE
8
BLACK
6
CONTINUOUS
10
4.17082
20
-5.24848
11
4.18206
21
-5.24848
0
LINE
8
BLACK
6
CONTINUOUS
10
4.18206
20
-5.24848
11
4.18956
21
-5.25223
0
LINE
8
BLACK
6
CONTINUOUS
10
4.18956
20
-5.25223
11
4.19331
21
-5.25973
0
LINE
8
BLACK
6
CONTINUOUS
10
4.19331
20
-5.25973
11
4.19331
21
-5.30098
0
LINE
8
BLACK
6
CONTINUOUS
10
4.34704
20
-5.21849
11
4.27955
21
-5.31973
0
LINE
8
BLACK
6
CONTINUOUS
10
4.44828
20
-5.22224
11
4.45578
21
-5.22224
0
LINE
8
BLACK
6
CONTINUOUS
10
4.45578
20
-5.22224
11
4.46328
21
-5.22599
0
LINE
8
BLACK
6
CONTINUOUS
10
4.46328
20
-5.22599
11
4.46703
21
-5.22974
0
LINE
8
BLACK
6
CONTINUOUS
10
4.46703
20
-5.22974
11
4.47078
21
-5.23724
0
LINE
8
BLACK
6
CONTINUOUS
10
4.47078
20
-5.23724
11
4.47453
21
-5.25223
0
LINE
8
BLACK
6
CONTINUOUS
10
4.47453
20
-5.25223
11
4.47453
21
-5.27098
0
LINE
8
BLACK
6
CONTINUOUS
10
4.47453
20
-5.27098
11
4.47078
21
-5.28598
0
LINE
8
BLACK
6
CONTINUOUS
10
4.47078
20
-5.28598
11
4.46703
21
-5.29348
0
LINE
8
BLACK
6
CONTINUOUS
10
4.46703
20
-5.29348
11
4.46328
21
-5.29723
0
LINE
8
BLACK
6
CONTINUOUS
10
4.46328
20
-5.29723
11
4.45578
21
-5.30098
0
LINE
8
BLACK
6
CONTINUOUS
10
4.45578
20
-5.30098
11
4.44828
21
-5.30098
0
LINE
8
BLACK
6
CONTINUOUS
10
4.44828
20
-5.30098
11
4.44078
21
-5.29723
0
LINE
8
BLACK
6
CONTINUOUS
10
4.44078
20
-5.29723
11
4.43703
21
-5.29348
0
LINE
8
BLACK
6
CONTINUOUS
10
4.43703
20
-5.29348
11
4.43328
21
-5.28598
0
LINE
8
BLACK
6
CONTINUOUS
10
4.43328
20
-5.28598
11
4.42953
21
-5.27098
0
LINE
8
BLACK
6
CONTINUOUS
10
4.42953
20
-5.27098
11
4.42953
21
-5.25223
0
LINE
8
BLACK
6
CONTINUOUS
10
4.42953
20
-5.25223
11
4.43328
21
-5.23724
0
LINE
8
BLACK
6
CONTINUOUS
10
4.43328
20
-5.23724
11
4.43703
21
-5.22974
0
LINE
8
BLACK
6
CONTINUOUS
10
4.43703
20
-5.22974
11
4.44078
21
-5.22599
0
LINE
8
BLACK
6
CONTINUOUS
10
4.44078
20
-5.22599
11
4.44828
21
-5.22224
0
LINE
8
BLACK
6
CONTINUOUS
10
4.50827
20
-5.29348
11
4.51202
21
-5.29723
0
LINE
8
BLACK
6
CONTINUOUS
10
4.51202
20
-5.29723
11
4.50827
21
-5.30098
0
LINE
8
BLACK
6
CONTINUOUS
10
4.50827
20
-5.30098
11
4.50452
21
-5.29723
0
LINE
8
BLACK
6
CONTINUOUS
10
4.50452
20
-5.29723
11
4.50827
21
-5.29348
0
LINE
8
BLACK
6
CONTINUOUS
10
4.50827
20
-5.29348
11
4.50827
21
-5.30098
0
LINE
8
BLACK
6
CONTINUOUS
10
4.56077
20
-5.22224
11
4.56827
21
-5.22224
0
LINE
8
BLACK
6
CONTINUOUS
10
4.56827
20
-5.22224
11
4.57577
21
-5.22599
0
LINE
8
BLACK
6
CONTINUOUS
10
4.57577
20
-5.22599
11
4.57951
21
-5.22974
0
LINE
8
BLACK
6
CONTINUOUS
10
4.57951
20
-5.22974
11
4.58326
21
-5.23724
0
LINE
8
BLACK
6
CONTINUOUS
10
4.58326
20
-5.23724
11
4.58701
21
-5.25223
0
LINE
8
BLACK
6
CONTINUOUS
10
4.58701
20
-5.25223
11
4.58701
21
-5.27098
0
LINE
8
BLACK
6
CONTINUOUS
10
4.58701
20
-5.27098
11
4.58326
21
-5.28598
0
LINE
8
BLACK
6
CONTINUOUS
10
4.58326
20
-5.28598
11
4.57951
21
-5.29348
0
LINE
8
BLACK
6
CONTINUOUS
10
4.57951
20
-5.29348
11
4.57577
21
-5.29723
0
LINE
8
BLACK
6
CONTINUOUS
10
4.57577
20
-5.29723
11
4.56827
21
-5.30098
0
LINE
8
BLACK
6
CONTINUOUS
10
4.56827
20
-5.30098
11
4.56077
21
-5.30098
0
LINE
8
BLACK
6
CONTINUOUS
10
4.56077
20
-5.30098
11
4.55327
21
-5.29723
0
LINE
8
BLACK
6
CONTINUOUS
10
4.55327
20
-5.29723
11
4.54952
21
-5.29348
0
LINE
8
BLACK
6
CONTINUOUS
10
4.54952
20
-5.29348
11
4.54577
21
-5.28598
0
LINE
8
BLACK
6
CONTINUOUS
10
4.54577
20
-5.28598
11
4.54202
21
-5.27098
0
LINE
8
BLACK
6
CONTINUOUS
10
4.54202
20
-5.27098
11
4.54202
21
-5.25223
0
LINE
8
BLACK
6
CONTINUOUS
10
4.54202
20
-5.25223
11
4.54577
21
-5.23724
0
LINE
8
BLACK
6
CONTINUOUS
10
4.54577
20
-5.23724
11
4.54952
21
-5.22974
0
LINE
8
BLACK
6
CONTINUOUS
10
4.54952
20
-5.22974
11
4.55327
21
-5.22599
0
LINE
8
BLACK
6
CONTINUOUS
10
4.55327
20
-5.22599
11
4.56077
21
-5.22224
0
LINE
8
BLACK
6
CONTINUOUS
10
4.662
20
-5.30098
11
4.61701
21
-5.30098
0
LINE
8
BLACK
6
CONTINUOUS
10
4.63951
20
-5.30098
11
4.63951
21
-5.22224
0
LINE
8
BLACK
6
CONTINUOUS
10
4.63951
20
-5.22224
11
4.63201
21
-5.23349
0
LINE
8
BLACK
6
CONTINUOUS
10
4.63201
20
-5.23349
11
4.62451
21
-5.24099
0
LINE
8
BLACK
6
CONTINUOUS
10
4.62451
20
-5.24099
11
4.61701
21
-5.24473
0
LINE
8
BLACK
6
CONTINUOUS
10
4.73325
20
-5.22224
11
4.69575
21
-5.22224
0
LINE
8
BLACK
6
CONTINUOUS
10
4.69575
20
-5.22224
11
4.692
21
-5.25973
0
LINE
8
BLACK
6
CONTINUOUS
10
4.692
20
-5.25973
11
4.69575
21
-5.25598
0
LINE
8
BLACK
6
CONTINUOUS
10
4.69575
20
-5.25598
11
4.70325
21
-5.25223
0
LINE
8
BLACK
6
CONTINUOUS
10
4.70325
20
-5.25223
11
4.722
21
-5.25223
0
LINE
8
BLACK
6
CONTINUOUS
10
4.722
20
-5.25223
11
4.7295
21
-5.25598
0
LINE
8
BLACK
6
CONTINUOUS
10
4.7295
20
-5.25598
11
4.73325
21
-5.25973
0
LINE
8
BLACK
6
CONTINUOUS
10
4.73325
20
-5.25973
11
4.737
21
-5.26723
0
LINE
8
BLACK
6
CONTINUOUS
10
4.737
20
-5.26723
11
4.737
21
-5.28598
0
LINE
8
BLACK
6
CONTINUOUS
10
4.737
20
-5.28598
11
4.73325
21
-5.29348
0
LINE
8
BLACK
6
CONTINUOUS
10
4.73325
20
-5.29348
11
4.7295
21
-5.29723
0
LINE
8
BLACK
6
CONTINUOUS
10
4.7295
20
-5.29723
11
4.722
21
-5.30098
0
LINE
8
BLACK
6
CONTINUOUS
10
4.722
20
-5.30098
11
4.70325
21
-5.30098
0
LINE
8
BLACK
6
CONTINUOUS
10
4.70325
20
-5.30098
11
4.69575
21
-5.29723
0
LINE
8
BLACK
6
CONTINUOUS
10
4.69575
20
-5.29723
11
4.692
21
-5.29348
0
LINE
8
BLACK
6
CONTINUOUS
10
4.76324
20
-5.22224
11
4.81574
21
-5.22224
0
LINE
8
BLACK
6
CONTINUOUS
10
4.81574
20
-5.22224
11
4.78199
21
-5.30098
0
LINE
8
BLACK
6
CONTINUOUS
10
4.84198
20
-5.22224
11
4.84198
21
-5.23724
0
LINE
8
BLACK
6
CONTINUOUS
10
4.87198
20
-5.22224
11
4.87198
21
-5.23724
0
LINE
8
BLACK
6
CONTINUOUS
10
4.98821
20
-5.33097
11
4.98446
21
-5.32722
0
LINE
8
BLACK
6
CONTINUOUS
10
4.98446
20
-5.32722
11
4.97697
21
-5.31598
0
LINE
8
BLACK
6
CONTINUOUS
10
4.97697
20
-5.31598
11
4.97322
21
-5.30848
0
LINE
8
BLACK
6
CONTINUOUS
10
4.97322
20
-5.30848
11
4.96947
21
-5.29723
0
LINE
8
BLACK
6
CONTINUOUS
10
4.96947
20
-5.29723
11
4.96572
21
-5.27848
0
LINE
8
BLACK
6
CONTINUOUS
10
4.96572
20
-5.27848
11
4.96572
21
-5.26348
0
LINE
8
BLACK
6
CONTINUOUS
10
4.96572
20
-5.26348
11
4.96947
21
-5.24473
0
LINE
8
BLACK
6
CONTINUOUS
10
4.96947
20
-5.24473
11
4.97322
21
-5.23349
0
LINE
8
BLACK
6
CONTINUOUS
10
4.97322
20
-5.23349
11
4.97697
21
-5.22599
0
LINE
8
BLACK
6
CONTINUOUS
10
4.97697
20
-5.22599
11
4.98446
21
-5.21474
0
LINE
8
BLACK
6
CONTINUOUS
10
4.98446
20
-5.21474
11
4.98821
21
-5.21099
0
LINE
8
BLACK
6
CONTINUOUS
10
5.01071
20
-5.22224
11
5.0632
21
-5.22224
0
LINE
8
BLACK
6
CONTINUOUS
10
5.0632
20
-5.22224
11
5.02946
21
-5.30098
0
LINE
8
BLACK
6
CONTINUOUS
10
5.12695
20
-5.22224
11
5.11195
21
-5.22224
0
LINE
8
BLACK
6
CONTINUOUS
10
5.11195
20
-5.22224
11
5.10445
21
-5.22599
0
LINE
8
BLACK
6
CONTINUOUS
10
5.10445
20
-5.22599
11
5.1007
21
-5.22974
0
LINE
8
BLACK
6
CONTINUOUS
10
5.1007
20
-5.22974
11
5.0932
21
-5.24099
0
LINE
8
BLACK
6
CONTINUOUS
10
5.0932
20
-5.24099
11
5.08945
21
-5.25598
0
LINE
8
BLACK
6
CONTINUOUS
10
5.08945
20
-5.25598
11
5.08945
21
-5.28598
0
LINE
8
BLACK
6
CONTINUOUS
10
5.08945
20
-5.28598
11
5.0932
21
-5.29348
0
LINE
8
BLACK
6
CONTINUOUS
10
5.0932
20
-5.29348
11
5.09695
21
-5.29723
0
LINE
8
BLACK
6
CONTINUOUS
10
5.09695
20
-5.29723
11
5.10445
21
-5.30098
0
LINE
8
BLACK
6
CONTINUOUS
10
5.10445
20
-5.30098
11
5.11945
21
-5.30098
0
LINE
8
BLACK
6
CONTINUOUS
10
5.11945
20
-5.30098
11
5.12695
21
-5.29723
0
LINE
8
BLACK
6
CONTINUOUS
10
5.12695
20
-5.29723
11
5.1307
21
-5.29348
0
LINE
8
BLACK
6
CONTINUOUS
10
5.1307
20
-5.29348
11
5.13445
21
-5.28598
0
LINE
8
BLACK
6
CONTINUOUS
10
5.13445
20
-5.28598
11
5.13445
21
-5.26723
0
LINE
8
BLACK
6
CONTINUOUS
10
5.13445
20
-5.26723
11
5.1307
21
-5.25973
0
LINE
8
BLACK
6
CONTINUOUS
10
5.1307
20
-5.25973
11
5.12695
21
-5.25598
0
LINE
8
BLACK
6
CONTINUOUS
10
5.12695
20
-5.25598
11
5.11945
21
-5.25223
0
LINE
8
BLACK
6
CONTINUOUS
10
5.11945
20
-5.25223
11
5.10445
21
-5.25223
0
LINE
8
BLACK
6
CONTINUOUS
10
5.10445
20
-5.25223
11
5.09695
21
-5.25598
0
LINE
8
BLACK
6
CONTINUOUS
10
5.09695
20
-5.25598
11
5.0932
21
-5.25973
0
LINE
8
BLACK
6
CONTINUOUS
10
5.0932
20
-5.25973
11
5.08945
21
-5.26723
0
LINE
8
BLACK
6
CONTINUOUS
10
5.22818
20
-5.30098
11
5.22818
21
-5.22224
0
LINE
8
BLACK
6
CONTINUOUS
10
5.26193
20
-5.30098
11
5.26193
21
-5.25973
0
LINE
8
BLACK
6
CONTINUOUS
10
5.26193
20
-5.25973
11
5.25818
21
-5.25223
0
LINE
8
BLACK
6
CONTINUOUS
10
5.25818
20
-5.25223
11
5.25068
21
-5.24848
0
LINE
8
BLACK
6
CONTINUOUS
10
5.25068
20
-5.24848
11
5.23943
21
-5.24848
0
LINE
8
BLACK
6
CONTINUOUS
10
5.23943
20
-5.24848
11
5.23193
21
-5.25223
0
LINE
8
BLACK
6
CONTINUOUS
10
5.23193
20
-5.25223
11
5.22818
21
-5.25598
0
LINE
8
BLACK
6
CONTINUOUS
10
5.31067
20
-5.30098
11
5.30317
21
-5.29723
0
LINE
8
BLACK
6
CONTINUOUS
10
5.30317
20
-5.29723
11
5.29942
21
-5.29348
0
LINE
8
BLACK
6
CONTINUOUS
10
5.29942
20
-5.29348
11
5.29568
21
-5.28598
0
LINE
8
BLACK
6
CONTINUOUS
10
5.29568
20
-5.28598
11
5.29568
21
-5.26348
0
LINE
8
BLACK
6
CONTINUOUS
10
5.29568
20
-5.26348
11
5.29942
21
-5.25598
0
LINE
8
BLACK
6
CONTINUOUS
10
5.29942
20
-5.25598
11
5.30317
21
-5.25223
0
LINE
8
BLACK
6
CONTINUOUS
10
5.30317
20
-5.25223
11
5.31067
21
-5.24848
0
LINE
8
BLACK
6
CONTINUOUS
10
5.31067
20
-5.24848
11
5.32192
21
-5.24848
0
LINE
8
BLACK
6
CONTINUOUS
10
5.32192
20
-5.24848
11
5.32942
21
-5.25223
0
LINE
8
BLACK
6
CONTINUOUS
10
5.32942
20
-5.25223
11
5.33317
21
-5.25598
0
LINE
8
BLACK
6
CONTINUOUS
10
5.33317
20
-5.25598
11
5.33692
21
-5.26348
0
LINE
8
BLACK
6
CONTINUOUS
10
5.33692
20
-5.26348
11
5.33692
21
-5.28598
0
LINE
8
BLACK
6
CONTINUOUS
10
5.33692
20
-5.28598
11
5.33317
21
-5.29348
0
LINE
8
BLACK
6
CONTINUOUS
10
5.33317
20
-5.29348
11
5.32942
21
-5.29723
0
LINE
8
BLACK
6
CONTINUOUS
10
5.32942
20
-5.29723
11
5.32192
21
-5.30098
0
LINE
8
BLACK
6
CONTINUOUS
10
5.32192
20
-5.30098
11
5.31067
21
-5.30098
0
LINE
8
BLACK
6
CONTINUOUS
10
5.38191
20
-5.30098
11
5.37442
21
-5.29723
0
LINE
8
BLACK
6
CONTINUOUS
10
5.37442
20
-5.29723
11
5.37067
21
-5.28973
0
LINE
8
BLACK
6
CONTINUOUS
10
5.37067
20
-5.28973
11
5.37067
21
-5.22224
0
LINE
8
BLACK
6
CONTINUOUS
10
5.44191
20
-5.29723
11
5.43441
21
-5.30098
0
LINE
8
BLACK
6
CONTINUOUS
10
5.43441
20
-5.30098
11
5.41941
21
-5.30098
0
LINE
8
BLACK
6
CONTINUOUS
10
5.41941
20
-5.30098
11
5.41191
21
-5.29723
0
LINE
8
BLACK
6
CONTINUOUS
10
5.41191
20
-5.29723
11
5.40816
21
-5.28973
0
LINE
8
BLACK
6
CONTINUOUS
10
5.40816
20
-5.28973
11
5.40816
21
-5.25973
0
LINE
8
BLACK
6
CONTINUOUS
10
5.40816
20
-5.25973
11
5.41191
21
-5.25223
0
LINE
8
BLACK
6
CONTINUOUS
10
5.41191
20
-5.25223
11
5.41941
21
-5.24848
0
LINE
8
BLACK
6
CONTINUOUS
10
5.41941
20
-5.24848
11
5.43441
21
-5.24848
0
LINE
8
BLACK
6
CONTINUOUS
10
5.43441
20
-5.24848
11
5.44191
21
-5.25223
0
LINE
8
BLACK
6
CONTINUOUS
10
5.44191
20
-5.25223
11
5.44566
21
-5.25973
0
LINE
8
BLACK
6
CONTINUOUS
10
5.44566
20
-5.25973
11
5.44566
21
-5.26723
0
LINE
8
BLACK
6
CONTINUOUS
10
5.44566
20
-5.26723
11
5.40816
21
-5.27473
0
LINE
8
BLACK
6
CONTINUOUS
10
5.47565
20
-5.29723
11
5.48315
21
-5.30098
0
LINE
8
BLACK
6
CONTINUOUS
10
5.48315
20
-5.30098
11
5.49815
21
-5.30098
0
LINE
8
BLACK
6
CONTINUOUS
10
5.49815
20
-5.30098
11
5.50565
21
-5.29723
0
LINE
8
BLACK
6
CONTINUOUS
10
5.50565
20
-5.29723
11
5.5094
21
-5.28973
0
LINE
8
BLACK
6
CONTINUOUS
10
5.5094
20
-5.28973
11
5.5094
21
-5.28598
0
LINE
8
BLACK
6
CONTINUOUS
10
5.5094
20
-5.28598
11
5.50565
21
-5.27848
0
LINE
8
BLACK
6
CONTINUOUS
10
5.50565
20
-5.27848
11
5.49815
21
-5.27473
0
LINE
8
BLACK
6
CONTINUOUS
10
5.49815
20
-5.27473
11
5.4869
21
-5.27473
0
LINE
8
BLACK
6
CONTINUOUS
10
5.4869
20
-5.27473
11
5.4794
21
-5.27098
0
LINE
8
BLACK
6
CONTINUOUS
10
5.4794
20
-5.27098
11
5.47565
21
-5.26348
0
LINE
8
BLACK
6
CONTINUOUS
10
5.47565
20
-5.26348
11
5.47565
21
-5.25973
0
LINE
8
BLACK
6
CONTINUOUS
10
5.47565
20
-5.25973
11
5.4794
21
-5.25223
0
LINE
8
BLACK
6
CONTINUOUS
10
5.4794
20
-5.25223
11
5.4869
21
-5.24848
0
LINE
8
BLACK
6
CONTINUOUS
10
5.4869
20
-5.24848
11
5.49815
21
-5.24848
0
LINE
8
BLACK
6
CONTINUOUS
10
5.49815
20
-5.24848
11
5.50565
21
-5.25223
0
LINE
8
BLACK
6
CONTINUOUS
10
5.53565
20
-5.33097
11
5.53939
21
-5.32722
0
LINE
8
BLACK
6
CONTINUOUS
10
5.53939
20
-5.32722
11
5.54689
21
-5.31598
0
LINE
8
BLACK
6
CONTINUOUS
10
5.54689
20
-5.31598
11
5.55064
21
-5.30848
0
LINE
8
BLACK
6
CONTINUOUS
10
5.55064
20
-5.30848
11
5.55439
21
-5.29723
0
LINE
8
BLACK
6
CONTINUOUS
10
5.55439
20
-5.29723
11
5.55814
21
-5.27848
0
LINE
8
BLACK
6
CONTINUOUS
10
5.55814
20
-5.27848
11
5.55814
21
-5.26348
0
LINE
8
BLACK
6
CONTINUOUS
10
5.55814
20
-5.26348
11
5.55439
21
-5.24473
0
LINE
8
BLACK
6
CONTINUOUS
10
5.55439
20
-5.24473
11
5.55064
21
-5.23349
0
LINE
8
BLACK
6
CONTINUOUS
10
5.55064
20
-5.23349
11
5.54689
21
-5.22599
0
LINE
8
BLACK
6
CONTINUOUS
10
5.54689
20
-5.22599
11
5.53939
21
-5.21474
0
LINE
8
BLACK
6
CONTINUOUS
10
5.53939
20
-5.21474
11
5.53565
21
-5.21099
0
LINE
8
BLACK
6
CONTINUOUS
10
3.57725
20
-5.37725
11
3.57725
21
-5.36055
0
LINE
8
BLACK
6
CONTINUOUS
10
3.57725
20
-5.36055
11
3.56055
21
-5.36055
0
LINE
8
BLACK
6
CONTINUOUS
10
3.56055
20
-5.36055
11
3.56055
21
-5.37725
0
LINE
8
BLACK
6
CONTINUOUS
10
3.56055
20
-5.37725
11
3.57725
21
-5.37725
0
LINE
8
BLACK
6
CONTINUOUS
10
3.69837
20
-5.32617
11
3.70587
21
-5.32617
0
LINE
8
BLACK
6
CONTINUOUS
10
3.70587
20
-5.32617
11
3.71337
21
-5.32992
0
LINE
8
BLACK
6
CONTINUOUS
10
3.71337
20
-5.32992
11
3.71712
21
-5.33367
0
LINE
8
BLACK
6
CONTINUOUS
10
3.71712
20
-5.33367
11
3.72087
21
-5.34117
0
LINE
8
BLACK
6
CONTINUOUS
10
3.72087
20
-5.34117
11
3.72462
21
-5.35617
0
LINE
8
BLACK
6
CONTINUOUS
10
3.72462
20
-5.35617
11
3.72462
21
-5.37492
0
LINE
8
BLACK
6
CONTINUOUS
10
3.72462
20
-5.37492
11
3.72087
21
-5.38992
0
LINE
8
BLACK
6
CONTINUOUS
10
3.72087
20
-5.38992
11
3.71712
21
-5.39742
0
LINE
8
BLACK
6
CONTINUOUS
10
3.71712
20
-5.39742
11
3.71337
21
-5.40117
0
LINE
8
BLACK
6
CONTINUOUS
10
3.71337
20
-5.40117
11
3.70587
21
-5.40491
0
LINE
8
BLACK
6
CONTINUOUS
10
3.70587
20
-5.40491
11
3.69837
21
-5.40491
0
LINE
8
BLACK
6
CONTINUOUS
10
3.69837
20
-5.40491
11
3.69088
21
-5.40117
0
LINE
8
BLACK
6
CONTINUOUS
10
3.69088
20
-5.40117
11
3.68713
21
-5.39742
0
LINE
8
BLACK
6
CONTINUOUS
10
3.68713
20
-5.39742
11
3.68338
21
-5.38992
0
LINE
8
BLACK
6
CONTINUOUS
10
3.68338
20
-5.38992
11
3.67963
21
-5.37492
0
LINE
8
BLACK
6
CONTINUOUS
10
3.67963
20
-5.37492
11
3.67963
21
-5.35617
0
LINE
8
BLACK
6
CONTINUOUS
10
3.67963
20
-5.35617
11
3.68338
21
-5.34117
0
LINE
8
BLACK
6
CONTINUOUS
10
3.68338
20
-5.34117
11
3.68713
21
-5.33367
0
LINE
8
BLACK
6
CONTINUOUS
10
3.68713
20
-5.33367
11
3.69088
21
-5.32992
0
LINE
8
BLACK
6
CONTINUOUS
10
3.69088
20
-5.32992
11
3.69837
21
-5.32617
0
LINE
8
BLACK
6
CONTINUOUS
10
3.75837
20
-5.39742
11
3.76212
21
-5.40117
0
LINE
8
BLACK
6
CONTINUOUS
10
3.76212
20
-5.40117
11
3.75837
21
-5.40491
0
LINE
8
BLACK
6
CONTINUOUS
10
3.75837
20
-5.40491
11
3.75462
21
-5.40117
0
LINE
8
BLACK
6
CONTINUOUS
10
3.75462
20
-5.40117
11
3.75837
21
-5.39742
0
LINE
8
BLACK
6
CONTINUOUS
10
3.75837
20
-5.39742
11
3.75837
21
-5.40491
0
LINE
8
BLACK
6
CONTINUOUS
10
3.82961
20
-5.32617
11
3.81461
21
-5.32617
0
LINE
8
BLACK
6
CONTINUOUS
10
3.81461
20
-5.32617
11
3.80711
21
-5.32992
0
LINE
8
BLACK
6
CONTINUOUS
10
3.80711
20
-5.32992
11
3.80336
21
-5.33367
0
LINE
8
BLACK
6
CONTINUOUS
10
3.80336
20
-5.33367
11
3.79586
21
-5.34492
0
LINE
8
BLACK
6
CONTINUOUS
10
3.79586
20
-5.34492
11
3.79211
21
-5.35992
0
LINE
8
BLACK
6
CONTINUOUS
10
3.79211
20
-5.35992
11
3.79211
21
-5.38992
0
LINE
8
BLACK
6
CONTINUOUS
10
3.79211
20
-5.38992
11
3.79586
21
-5.39742
0
LINE
8
BLACK
6
CONTINUOUS
10
3.79586
20
-5.39742
11
3.79961
21
-5.40117
0
LINE
8
BLACK
6
CONTINUOUS
10
3.79961
20
-5.40117
11
3.80711
21
-5.40491
0
LINE
8
BLACK
6
CONTINUOUS
10
3.80711
20
-5.40491
11
3.82211
21
-5.40491
0
LINE
8
BLACK
6
CONTINUOUS
10
3.82211
20
-5.40491
11
3.82961
21
-5.40117
0
LINE
8
BLACK
6
CONTINUOUS
10
3.82961
20
-5.40117
11
3.83336
21
-5.39742
0
LINE
8
BLACK
6
CONTINUOUS
10
3.83336
20
-5.39742
11
3.83711
21
-5.38992
0
LINE
8
BLACK
6
CONTINUOUS
10
3.83711
20
-5.38992
11
3.83711
21
-5.37117
0
LINE
8
BLACK
6
CONTINUOUS
10
3.83711
20
-5.37117
11
3.83336
21
-5.36367
0
LINE
8
BLACK
6
CONTINUOUS
10
3.83336
20
-5.36367
11
3.82961
21
-5.35992
0
LINE
8
BLACK
6
CONTINUOUS
10
3.82961
20
-5.35992
11
3.82211
21
-5.35617
0
LINE
8
BLACK
6
CONTINUOUS
10
3.82211
20
-5.35617
11
3.80711
21
-5.35617
0
LINE
8
BLACK
6
CONTINUOUS
10
3.80711
20
-5.35617
11
3.79961
21
-5.35992
0
LINE
8
BLACK
6
CONTINUOUS
10
3.79961
20
-5.35992
11
3.79586
21
-5.36367
0
LINE
8
BLACK
6
CONTINUOUS
10
3.79586
20
-5.36367
11
3.79211
21
-5.37117
0
LINE
8
BLACK
6
CONTINUOUS
10
3.88585
20
-5.32617
11
3.89335
21
-5.32617
0
LINE
8
BLACK
6
CONTINUOUS
10
3.89335
20
-5.32617
11
3.90085
21
-5.32992
0
LINE
8
BLACK
6
CONTINUOUS
10
3.90085
20
-5.32992
11
3.9046
21
-5.33367
0
LINE
8
BLACK
6
CONTINUOUS
10
3.9046
20
-5.33367
11
3.90835
21
-5.34117
0
LINE
8
BLACK
6
CONTINUOUS
10
3.90835
20
-5.34117
11
3.9121
21
-5.35617
0
LINE
8
BLACK
6
CONTINUOUS
10
3.9121
20
-5.35617
11
3.9121
21
-5.37492
0
LINE
8
BLACK
6
CONTINUOUS
10
3.9121
20
-5.37492
11
3.90835
21
-5.38992
0
LINE
8
BLACK
6
CONTINUOUS
10
3.90835
20
-5.38992
11
3.9046
21
-5.39742
0
LINE
8
BLACK
6
CONTINUOUS
10
3.9046
20
-5.39742
11
3.90085
21
-5.40117
0
LINE
8
BLACK
6
CONTINUOUS
10
3.90085
20
-5.40117
11
3.89335
21
-5.40491
0
LINE
8
BLACK
6
CONTINUOUS
10
3.89335
20
-5.40491
11
3.88585
21
-5.40491
0
LINE
8
BLACK
6
CONTINUOUS
10
3.88585
20
-5.40491
11
3.87835
21
-5.40117
0
LINE
8
BLACK
6
CONTINUOUS
10
3.87835
20
-5.40117
11
3.8746
21
-5.39742
0
LINE
8
BLACK
6
CONTINUOUS
10
3.8746
20
-5.39742
11
3.87085
21
-5.38992
0
LINE
8
BLACK
6
CONTINUOUS
10
3.87085
20
-5.38992
11
3.8671
21
-5.37492
0
LINE
8
BLACK
6
CONTINUOUS
10
3.8671
20
-5.37492
11
3.8671
21
-5.35617
0
LINE
8
BLACK
6
CONTINUOUS
10
3.8671
20
-5.35617
11
3.87085
21
-5.34117
0
LINE
8
BLACK
6
CONTINUOUS
10
3.87085
20
-5.34117
11
3.8746
21
-5.33367
0
LINE
8
BLACK
6
CONTINUOUS
10
3.8746
20
-5.33367
11
3.87835
21
-5.32992
0
LINE
8
BLACK
6
CONTINUOUS
10
3.87835
20
-5.32992
11
3.88585
21
-5.32617
0
LINE
8
BLACK
6
CONTINUOUS
10
3.96084
20
-5.32617
11
3.96834
21
-5.32617
0
LINE
8
BLACK
6
CONTINUOUS
10
3.96834
20
-5.32617
11
3.97584
21
-5.32992
0
LINE
8
BLACK
6
CONTINUOUS
10
3.97584
20
-5.32992
11
3.97959
21
-5.33367
0
LINE
8
BLACK
6
CONTINUOUS
10
3.97959
20
-5.33367
11
3.98334
21
-5.34117
0
LINE
8
BLACK
6
CONTINUOUS
10
3.98334
20
-5.34117
11
3.98709
21
-5.35617
0
LINE
8
BLACK
6
CONTINUOUS
10
3.98709
20
-5.35617
11
3.98709
21
-5.37492
0
LINE
8
BLACK
6
CONTINUOUS
10
3.98709
20
-5.37492
11
3.98334
21
-5.38992
0
LINE
8
BLACK
6
CONTINUOUS
10
3.98334
20
-5.38992
11
3.97959
21
-5.39742
0
LINE
8
BLACK
6
CONTINUOUS
10
3.97959
20
-5.39742
11
3.97584
21
-5.40117
0
LINE
8
BLACK
6
CONTINUOUS
10
3.97584
20
-5.40117
11
3.96834
21
-5.40491
0
LINE
8
BLACK
6
CONTINUOUS
10
3.96834
20
-5.40491
11
3.96084
21
-5.40491
0
LINE
8
BLACK
6
CONTINUOUS
10
3.96084
20
-5.40491
11
3.95334
21
-5.40117
0
LINE
8
BLACK
6
CONTINUOUS
10
3.95334
20
-5.40117
11
3.94959
21
-5.39742
0
LINE
8
BLACK
6
CONTINUOUS
10
3.94959
20
-5.39742
11
3.94584
21
-5.38992
0
LINE
8
BLACK
6
CONTINUOUS
10
3.94584
20
-5.38992
11
3.94209
21
-5.37492
0
LINE
8
BLACK
6
CONTINUOUS
10
3.94209
20
-5.37492
11
3.94209
21
-5.35617
0
LINE
8
BLACK
6
CONTINUOUS
10
3.94209
20
-5.35617
11
3.94584
21
-5.34117
0
LINE
8
BLACK
6
CONTINUOUS
10
3.94584
20
-5.34117
11
3.94959
21
-5.33367
0
LINE
8
BLACK
6
CONTINUOUS
10
3.94959
20
-5.33367
11
3.95334
21
-5.32992
0
LINE
8
BLACK
6
CONTINUOUS
10
3.95334
20
-5.32992
11
3.96084
21
-5.32617
0
LINE
8
BLACK
6
CONTINUOUS
10
4.02083
20
-5.40491
11
4.02083
21
-5.35242
0
LINE
8
BLACK
6
CONTINUOUS
10
4.02083
20
-5.35992
11
4.02458
21
-5.35617
0
LINE
8
BLACK
6
CONTINUOUS
10
4.02458
20
-5.35617
11
4.03208
21
-5.35242
0
LINE
8
BLACK
6
CONTINUOUS
10
4.03208
20
-5.35242
11
4.04333
21
-5.35242
0
LINE
8
BLACK
6
CONTINUOUS
10
4.04333
20
-5.35242
11
4.05083
21
-5.35617
0
LINE
8
BLACK
6
CONTINUOUS
10
4.05083
20
-5.35617
11
4.05458
21
-5.36367
0
LINE
8
BLACK
6
CONTINUOUS
10
4.05458
20
-5.36367
11
4.05458
21
-5.40491
0
LINE
8
BLACK
6
CONTINUOUS
10
4.05458
20
-5.36367
11
4.05833
21
-5.35617
0
LINE
8
BLACK
6
CONTINUOUS
10
4.05833
20
-5.35617
11
4.06583
21
-5.35242
0
LINE
8
BLACK
6
CONTINUOUS
10
4.06583
20
-5.35242
11
4.07708
21
-5.35242
0
LINE
8
BLACK
6
CONTINUOUS
10
4.07708
20
-5.35242
11
4.08458
21
-5.35617
0
LINE
8
BLACK
6
CONTINUOUS
10
4.08458
20
-5.35617
11
4.08833
21
-5.36367
0
LINE
8
BLACK
6
CONTINUOUS
10
4.08833
20
-5.36367
11
4.08833
21
-5.40491
0
LINE
8
BLACK
6
CONTINUOUS
10
4.12582
20
-5.40491
11
4.12582
21
-5.35242
0
LINE
8
BLACK
6
CONTINUOUS
10
4.12582
20
-5.35992
11
4.12957
21
-5.35617
0
LINE
8
BLACK
6
CONTINUOUS
10
4.12957
20
-5.35617
11
4.13707
21
-5.35242
0
LINE
8
BLACK
6
CONTINUOUS
10
4.13707
20
-5.35242
11
4.14832
21
-5.35242
0
LINE
8
BLACK
6
CONTINUOUS
10
4.14832
20
-5.35242
11
4.15582
21
-5.35617
0
LINE
8
BLACK
6
CONTINUOUS
10
4.15582
20
-5.35617
11
4.15957
21
-5.36367
0
LINE
8
BLACK
6
CONTINUOUS
10
4.15957
20
-5.36367
11
4.15957
21
-5.40491
0
LINE
8
BLACK
6
CONTINUOUS
10
4.15957
20
-5.36367
11
4.16332
21
-5.35617
0
LINE
8
BLACK
6
CONTINUOUS
10
4.16332
20
-5.35617
11
4.17082
21
-5.35242
0
LINE
8
BLACK
6
CONTINUOUS
10
4.17082
20
-5.35242
11
4.18206
21
-5.35242
0
LINE
8
BLACK
6
CONTINUOUS
10
4.18206
20
-5.35242
11
4.18956
21
-5.35617
0
LINE
8
BLACK
6
CONTINUOUS
10
4.18956
20
-5.35617
11
4.19331
21
-5.36367
0
LINE
8
BLACK
6
CONTINUOUS
10
4.19331
20
-5.36367
11
4.19331
21
-5.40491
0
LINE
8
BLACK
6
CONTINUOUS
10
4.34704
20
-5.32243
11
4.27955
21
-5.42366
0
LINE
8
BLACK
6
CONTINUOUS
10
4.44828
20
-5.32617
11
4.45578
21
-5.32617
0
LINE
8
BLACK
6
CONTINUOUS
10
4.45578
20
-5.32617
11
4.46328
21
-5.32992
0
LINE
8
BLACK
6
CONTINUOUS
10
4.46328
20
-5.32992
11
4.46703
21
-5.33367
0
LINE
8
BLACK
6
CONTINUOUS
10
4.46703
20
-5.33367
11
4.47078
21
-5.34117
0
LINE
8
BLACK
6
CONTINUOUS
10
4.47078
20
-5.34117
11
4.47453
21
-5.35617
0
LINE
8
BLACK
6
CONTINUOUS
10
4.47453
20
-5.35617
11
4.47453
21
-5.37492
0
LINE
8
BLACK
6
CONTINUOUS
10
4.47453
20
-5.37492
11
4.47078
21
-5.38992
0
LINE
8
BLACK
6
CONTINUOUS
10
4.47078
20
-5.38992
11
4.46703
21
-5.39742
0
LINE
8
BLACK
6
CONTINUOUS
10
4.46703
20
-5.39742
11
4.46328
21
-5.40117
0
LINE
8
BLACK
6
CONTINUOUS
10
4.46328
20
-5.40117
11
4.45578
21
-5.40491
0
LINE
8
BLACK
6
CONTINUOUS
10
4.45578
20
-5.40491
11
4.44828
21
-5.40491
0
LINE
8
BLACK
6
CONTINUOUS
10
4.44828
20
-5.40491
11
4.44078
21
-5.40117
0
LINE
8
BLACK
6
CONTINUOUS
10
4.44078
20
-5.40117
11
4.43703
21
-5.39742
0
LINE
8
BLACK
6
CONTINUOUS
10
4.43703
20
-5.39742
11
4.43328
21
-5.38992
0
LINE
8
BLACK
6
CONTINUOUS
10
4.43328
20
-5.38992
11
4.42953
21
-5.37492
0
LINE
8
BLACK
6
CONTINUOUS
10
4.42953
20
-5.37492
11
4.42953
21
-5.35617
0
LINE
8
BLACK
6
CONTINUOUS
10
4.42953
20
-5.35617
11
4.43328
21
-5.34117
0
LINE
8
BLACK
6
CONTINUOUS
10
4.43328
20
-5.34117
11
4.43703
21
-5.33367
0
LINE
8
BLACK
6
CONTINUOUS
10
4.43703
20
-5.33367
11
4.44078
21
-5.32992
0
LINE
8
BLACK
6
CONTINUOUS
10
4.44078
20
-5.32992
11
4.44828
21
-5.32617
0
LINE
8
BLACK
6
CONTINUOUS
10
4.50827
20
-5.39742
11
4.51202
21
-5.40117
0
LINE
8
BLACK
6
CONTINUOUS
10
4.51202
20
-5.40117
11
4.50827
21
-5.40491
0
LINE
8
BLACK
6
CONTINUOUS
10
4.50827
20
-5.40491
11
4.50452
21
-5.40117
0
LINE
8
BLACK
6
CONTINUOUS
10
4.50452
20
-5.40117
11
4.50827
21
-5.39742
0
LINE
8
BLACK
6
CONTINUOUS
10
4.50827
20
-5.39742
11
4.50827
21
-5.40491
0
LINE
8
BLACK
6
CONTINUOUS
10
4.56077
20
-5.32617
11
4.56827
21
-5.32617
0
LINE
8
BLACK
6
CONTINUOUS
10
4.56827
20
-5.32617
11
4.57577
21
-5.32992
0
LINE
8
BLACK
6
CONTINUOUS
10
4.57577
20
-5.32992
11
4.57951
21
-5.33367
0
LINE
8
BLACK
6
CONTINUOUS
10
4.57951
20
-5.33367
11
4.58326
21
-5.34117
0
LINE
8
BLACK
6
CONTINUOUS
10
4.58326
20
-5.34117
11
4.58701
21
-5.35617
0
LINE
8
BLACK
6
CONTINUOUS
10
4.58701
20
-5.35617
11
4.58701
21
-5.37492
0
LINE
8
BLACK
6
CONTINUOUS
10
4.58701
20
-5.37492
11
4.58326
21
-5.38992
0
LINE
8
BLACK
6
CONTINUOUS
10
4.58326
20
-5.38992
11
4.57951
21
-5.39742
0
LINE
8
BLACK
6
CONTINUOUS
10
4.57951
20
-5.39742
11
4.57577
21
-5.40117
0
LINE
8
BLACK
6
CONTINUOUS
10
4.57577
20
-5.40117
11
4.56827
21
-5.40491
0
LINE
8
BLACK
6
CONTINUOUS
10
4.56827
20
-5.40491
11
4.56077
21
-5.40491
0
LINE
8
BLACK
6
CONTINUOUS
10
4.56077
20
-5.40491
11
4.55327
21
-5.40117
0
LINE
8
BLACK
6
CONTINUOUS
10
4.55327
20
-5.40117
11
4.54952
21
-5.39742
0
LINE
8
BLACK
6
CONTINUOUS
10
4.54952
20
-5.39742
11
4.54577
21
-5.38992
0
LINE
8
BLACK
6
CONTINUOUS
10
4.54577
20
-5.38992
11
4.54202
21
-5.37492
0
LINE
8
BLACK
6
CONTINUOUS
10
4.54202
20
-5.37492
11
4.54202
21
-5.35617
0
LINE
8
BLACK
6
CONTINUOUS
10
4.54202
20
-5.35617
11
4.54577
21
-5.34117
0
LINE
8
BLACK
6
CONTINUOUS
10
4.54577
20
-5.34117
11
4.54952
21
-5.33367
0
LINE
8
BLACK
6
CONTINUOUS
10
4.54952
20
-5.33367
11
4.55327
21
-5.32992
0
LINE
8
BLACK
6
CONTINUOUS
10
4.55327
20
-5.32992
11
4.56077
21
-5.32617
0
LINE
8
BLACK
6
CONTINUOUS
10
4.61701
20
-5.33367
11
4.62076
21
-5.32992
0
LINE
8
BLACK
6
CONTINUOUS
10
4.62076
20
-5.32992
11
4.62826
21
-5.32617
0
LINE
8
BLACK
6
CONTINUOUS
10
4.62826
20
-5.32617
11
4.64701
21
-5.32617
0
LINE
8
BLACK
6
CONTINUOUS
10
4.64701
20
-5.32617
11
4.65451
21
-5.32992
0
LINE
8
BLACK
6
CONTINUOUS
10
4.65451
20
-5.32992
11
4.65825
21
-5.33367
0
LINE
8
BLACK
6
CONTINUOUS
10
4.65825
20
-5.33367
11
4.662
21
-5.34117
0
LINE
8
BLACK
6
CONTINUOUS
10
4.662
20
-5.34117
11
4.662
21
-5.34867
0
LINE
8
BLACK
6
CONTINUOUS
10
4.662
20
-5.34867
11
4.65825
21
-5.35992
0
LINE
8
BLACK
6
CONTINUOUS
10
4.65825
20
-5.35992
11
4.61326
21
-5.40491
0
LINE
8
BLACK
6
CONTINUOUS
10
4.61326
20
-5.40491
11
4.662
21
-5.40491
0
LINE
8
BLACK
6
CONTINUOUS
10
4.68825
20
-5.32617
11
4.737
21
-5.32617
0
LINE
8
BLACK
6
CONTINUOUS
10
4.737
20
-5.32617
11
4.71075
21
-5.35617
0
LINE
8
BLACK
6
CONTINUOUS
10
4.71075
20
-5.35617
11
4.722
21
-5.35617
0
LINE
8
BLACK
6
CONTINUOUS
10
4.722
20
-5.35617
11
4.7295
21
-5.35992
0
LINE
8
BLACK
6
CONTINUOUS
10
4.7295
20
-5.35992
11
4.73325
21
-5.36367
0
LINE
8
BLACK
6
CONTINUOUS
10
4.73325
20
-5.36367
11
4.737
21
-5.37117
0
LINE
8
BLACK
6
CONTINUOUS
10
4.737
20
-5.37117
11
4.737
21
-5.38992
0
LINE
8
BLACK
6
CONTINUOUS
10
4.737
20
-5.38992
11
4.73325
21
-5.39742
0
LINE
8
BLACK
6
CONTINUOUS
10
4.73325
20
-5.39742
11
4.7295
21
-5.40117
0
LINE
8
BLACK
6
CONTINUOUS
10
4.7295
20
-5.40117
11
4.722
21
-5.40491
0
LINE
8
BLACK
6
CONTINUOUS
10
4.722
20
-5.40491
11
4.6995
21
-5.40491
0
LINE
8
BLACK
6
CONTINUOUS
10
4.6995
20
-5.40491
11
4.692
21
-5.40117
0
LINE
8
BLACK
6
CONTINUOUS
10
4.692
20
-5.40117
11
4.68825
21
-5.39742
0
LINE
8
BLACK
6
CONTINUOUS
10
4.80449
20
-5.32617
11
4.78949
21
-5.32617
0
LINE
8
BLACK
6
CONTINUOUS
10
4.78949
20
-5.32617
11
4.78199
21
-5.32992
0
LINE
8
BLACK
6
CONTINUOUS
10
4.78199
20
-5.32992
11
4.77824
21
-5.33367
0
LINE
8
BLACK
6
CONTINUOUS
10
4.77824
20
-5.33367
11
4.77074
21
-5.34492
0
LINE
8
BLACK
6
CONTINUOUS
10
4.77074
20
-5.34492
11
4.76699
21
-5.35992
0
LINE
8
BLACK
6
CONTINUOUS
10
4.76699
20
-5.35992
11
4.76699
21
-5.38992
0
LINE
8
BLACK
6
CONTINUOUS
10
4.76699
20
-5.38992
11
4.77074
21
-5.39742
0
LINE
8
BLACK
6
CONTINUOUS
10
4.77074
20
-5.39742
11
4.77449
21
-5.40117
0
LINE
8
BLACK
6
CONTINUOUS
10
4.77449
20
-5.40117
11
4.78199
21
-5.40491
0
LINE
8
BLACK
6
CONTINUOUS
10
4.78199
20
-5.40491
11
4.79699
21
-5.40491
0
LINE
8
BLACK
6
CONTINUOUS
10
4.79699
20
-5.40491
11
4.80449
21
-5.40117
0
LINE
8
BLACK
6
CONTINUOUS
10
4.80449
20
-5.40117
11
4.80824
21
-5.39742
0
LINE
8
BLACK
6
CONTINUOUS
10
4.80824
20
-5.39742
11
4.81199
21
-5.38992
0
LINE
8
BLACK
6
CONTINUOUS
10
4.81199
20
-5.38992
11
4.81199
21
-5.37117
0
LINE
8
BLACK
6
CONTINUOUS
10
4.81199
20
-5.37117
11
4.80824
21
-5.36367
0
LINE
8
BLACK
6
CONTINUOUS
10
4.80824
20
-5.36367
11
4.80449
21
-5.35992
0
LINE
8
BLACK
6
CONTINUOUS
10
4.80449
20
-5.35992
11
4.79699
21
-5.35617
0
LINE
8
BLACK
6
CONTINUOUS
10
4.79699
20
-5.35617
11
4.78199
21
-5.35617
0
LINE
8
BLACK
6
CONTINUOUS
10
4.78199
20
-5.35617
11
4.77449
21
-5.35992
0
LINE
8
BLACK
6
CONTINUOUS
10
4.77449
20
-5.35992
11
4.77074
21
-5.36367
0
LINE
8
BLACK
6
CONTINUOUS
10
4.77074
20
-5.36367
11
4.76699
21
-5.37117
0
LINE
8
BLACK
6
CONTINUOUS
10
4.84198
20
-5.32617
11
4.84198
21
-5.34117
0
LINE
8
BLACK
6
CONTINUOUS
10
4.87198
20
-5.32617
11
4.87198
21
-5.34117
0
LINE
8
BLACK
6
CONTINUOUS
10
4.98821
20
-5.43491
11
4.98446
21
-5.43116
0
LINE
8
BLACK
6
CONTINUOUS
10
4.98446
20
-5.43116
11
4.97697
21
-5.41991
0
LINE
8
BLACK
6
CONTINUOUS
10
4.97697
20
-5.41991
11
4.97322
21
-5.41241
0
LINE
8
BLACK
6
CONTINUOUS
10
4.97322
20
-5.41241
11
4.96947
21
-5.40117
0
LINE
8
BLACK
6
CONTINUOUS
10
4.96947
20
-5.40117
11
4.96572
21
-5.38242
0
LINE
8
BLACK
6
CONTINUOUS
10
4.96572
20
-5.38242
11
4.96572
21
-5.36742
0
LINE
8
BLACK
6
CONTINUOUS
10
4.96572
20
-5.36742
11
4.96947
21
-5.34867
0
LINE
8
BLACK
6
CONTINUOUS
10
4.96947
20
-5.34867
11
4.97322
21
-5.33742
0
LINE
8
BLACK
6
CONTINUOUS
10
4.97322
20
-5.33742
11
4.97697
21
-5.32992
0
LINE
8
BLACK
6
CONTINUOUS
10
4.97697
20
-5.32992
11
4.98446
21
-5.31868
0
LINE
8
BLACK
6
CONTINUOUS
10
4.98446
20
-5.31868
11
4.98821
21
-5.31493
0
LINE
8
BLACK
6
CONTINUOUS
10
5.03321
20
-5.32617
11
5.04071
21
-5.32617
0
LINE
8
BLACK
6
CONTINUOUS
10
5.04071
20
-5.32617
11
5.04821
21
-5.32992
0
LINE
8
BLACK
6
CONTINUOUS
10
5.04821
20
-5.32992
11
5.05196
21
-5.33367
0
LINE
8
BLACK
6
CONTINUOUS
10
5.05196
20
-5.33367
11
5.05571
21
-5.34117
0
LINE
8
BLACK
6
CONTINUOUS
10
5.05571
20
-5.34117
11
5.05945
21
-5.35617
0
LINE
8
BLACK
6
CONTINUOUS
10
5.05945
20
-5.35617
11
5.05945
21
-5.37492
0
LINE
8
BLACK
6
CONTINUOUS
10
5.05945
20
-5.37492
11
5.05571
21
-5.38992
0
LINE
8
BLACK
6
CONTINUOUS
10
5.05571
20
-5.38992
11
5.05196
21
-5.39742
0
LINE
8
BLACK
6
CONTINUOUS
10
5.05196
20
-5.39742
11
5.04821
21
-5.40117
0
LINE
8
BLACK
6
CONTINUOUS
10
5.04821
20
-5.40117
11
5.04071
21
-5.40491
0
LINE
8
BLACK
6
CONTINUOUS
10
5.04071
20
-5.40491
11
5.03321
21
-5.40491
0
LINE
8
BLACK
6
CONTINUOUS
10
5.03321
20
-5.40491
11
5.02571
21
-5.40117
0
LINE
8
BLACK
6
CONTINUOUS
10
5.02571
20
-5.40117
11
5.02196
21
-5.39742
0
LINE
8
BLACK
6
CONTINUOUS
10
5.02196
20
-5.39742
11
5.01821
21
-5.38992
0
LINE
8
BLACK
6
CONTINUOUS
10
5.01821
20
-5.38992
11
5.01446
21
-5.37492
0
LINE
8
BLACK
6
CONTINUOUS
10
5.01446
20
-5.37492
11
5.01446
21
-5.35617
0
LINE
8
BLACK
6
CONTINUOUS
10
5.01446
20
-5.35617
11
5.01821
21
-5.34117
0
LINE
8
BLACK
6
CONTINUOUS
10
5.01821
20
-5.34117
11
5.02196
21
-5.33367
0
LINE
8
BLACK
6
CONTINUOUS
10
5.02196
20
-5.33367
11
5.02571
21
-5.32992
0
LINE
8
BLACK
6
CONTINUOUS
10
5.02571
20
-5.32992
11
5.03321
21
-5.32617
0
LINE
8
BLACK
6
CONTINUOUS
10
5.15319
20
-5.40491
11
5.15319
21
-5.32617
0
LINE
8
BLACK
6
CONTINUOUS
10
5.18694
20
-5.40491
11
5.18694
21
-5.36367
0
LINE
8
BLACK
6
CONTINUOUS
10
5.18694
20
-5.36367
11
5.18319
21
-5.35617
0
LINE
8
BLACK
6
CONTINUOUS
10
5.18319
20
-5.35617
11
5.17569
21
-5.35242
0
LINE
8
BLACK
6
CONTINUOUS
10
5.17569
20
-5.35242
11
5.16444
21
-5.35242
0
LINE
8
BLACK
6
CONTINUOUS
10
5.16444
20
-5.35242
11
5.15694
21
-5.35617
0
LINE
8
BLACK
6
CONTINUOUS
10
5.15694
20
-5.35617
11
5.15319
21
-5.35992
0
LINE
8
BLACK
6
CONTINUOUS
10
5.23568
20
-5.40491
11
5.22818
21
-5.40117
0
LINE
8
BLACK
6
CONTINUOUS
10
5.22818
20
-5.40117
11
5.22443
21
-5.39742
0
LINE
8
BLACK
6
CONTINUOUS
10
5.22443
20
-5.39742
11
5.22068
21
-5.38992
0
LINE
8
BLACK
6
CONTINUOUS
10
5.22068
20
-5.38992
11
5.22068
21
-5.36742
0
LINE
8
BLACK
6
CONTINUOUS
10
5.22068
20
-5.36742
11
5.22443
21
-5.35992
0
LINE
8
BLACK
6
CONTINUOUS
10
5.22443
20
-5.35992
11
5.22818
21
-5.35617
0
LINE
8
BLACK
6
CONTINUOUS
10
5.22818
20
-5.35617
11
5.23568
21
-5.35242
0
LINE
8
BLACK
6
CONTINUOUS
10
5.23568
20
-5.35242
11
5.24693
21
-5.35242
0
LINE
8
BLACK
6
CONTINUOUS
10
5.24693
20
-5.35242
11
5.25443
21
-5.35617
0
LINE
8
BLACK
6
CONTINUOUS
10
5.25443
20
-5.35617
11
5.25818
21
-5.35992
0
LINE
8
BLACK
6
CONTINUOUS
10
5.25818
20
-5.35992
11
5.26193
21
-5.36742
0
LINE
8
BLACK
6
CONTINUOUS
10
5.26193
20
-5.36742
11
5.26193
21
-5.38992
0
LINE
8
BLACK
6
CONTINUOUS
10
5.26193
20
-5.38992
11
5.25818
21
-5.39742
0
LINE
8
BLACK
6
CONTINUOUS
10
5.25818
20
-5.39742
11
5.25443
21
-5.40117
0
LINE
8
BLACK
6
CONTINUOUS
10
5.25443
20
-5.40117
11
5.24693
21
-5.40491
0
LINE
8
BLACK
6
CONTINUOUS
10
5.24693
20
-5.40491
11
5.23568
21
-5.40491
0
LINE
8
BLACK
6
CONTINUOUS
10
5.30692
20
-5.40491
11
5.29942
21
-5.40117
0
LINE
8
BLACK
6
CONTINUOUS
10
5.29942
20
-5.40117
11
5.29568
21
-5.39367
0
LINE
8
BLACK
6
CONTINUOUS
10
5.29568
20
-5.39367
11
5.29568
21
-5.32617
0
LINE
8
BLACK
6
CONTINUOUS
10
5.36692
20
-5.40117
11
5.35942
21
-5.40491
0
LINE
8
BLACK
6
CONTINUOUS
10
5.35942
20
-5.40491
11
5.34442
21
-5.40491
0
LINE
8
BLACK
6
CONTINUOUS
10
5.34442
20
-5.40491
11
5.33692
21
-5.40117
0
LINE
8
BLACK
6
CONTINUOUS
10
5.33692
20
-5.40117
11
5.33317
21
-5.39367
0
LINE
8
BLACK
6
CONTINUOUS
10
5.33317
20
-5.39367
11
5.33317
21
-5.36367
0
LINE
8
BLACK
6
CONTINUOUS
10
5.33317
20
-5.36367
11
5.33692
21
-5.35617
0
LINE
8
BLACK
6
CONTINUOUS
10
5.33692
20
-5.35617
11
5.34442
21
-5.35242
0
LINE
8
BLACK
6
CONTINUOUS
10
5.34442
20
-5.35242
11
5.35942
21
-5.35242
0
LINE
8
BLACK
6
CONTINUOUS
10
5.35942
20
-5.35242
11
5.36692
21
-5.35617
0
LINE
8
BLACK
6
CONTINUOUS
10
5.36692
20
-5.35617
11
5.37067
21
-5.36367
0
LINE
8
BLACK
6
CONTINUOUS
10
5.37067
20
-5.36367
11
5.37067
21
-5.37117
0
LINE
8
BLACK
6
CONTINUOUS
10
5.37067
20
-5.37117
11
5.33317
21
-5.37867
0
LINE
8
BLACK
6
CONTINUOUS
10
5.40066
20
-5.40117
11
5.40816
21
-5.40491
0
LINE
8
BLACK
6
CONTINUOUS
10
5.40816
20
-5.40491
11
5.42316
21
-5.40491
0
LINE
8
BLACK
6
CONTINUOUS
10
5.42316
20
-5.40491
11
5.43066
21
-5.40117
0
LINE
8
BLACK
6
CONTINUOUS
10
5.43066
20
-5.40117
11
5.43441
21
-5.39367
0
LINE
8
BLACK
6
CONTINUOUS
10
5.43441
20
-5.39367
11
5.43441
21
-5.38992
0
LINE
8
BLACK
6
CONTINUOUS
10
5.43441
20
-5.38992
11
5.43066
21
-5.38242
0
LINE
8
BLACK
6
CONTINUOUS
10
5.43066
20
-5.38242
11
5.42316
21
-5.37867
0
LINE
8
BLACK
6
CONTINUOUS
10
5.42316
20
-5.37867
11
5.41191
21
-5.37867
0
LINE
8
BLACK
6
CONTINUOUS
10
5.41191
20
-5.37867
11
5.40441
21
-5.37492
0
LINE
8
BLACK
6
CONTINUOUS
10
5.40441
20
-5.37492
11
5.40066
21
-5.36742
0
LINE
8
BLACK
6
CONTINUOUS
10
5.40066
20
-5.36742
11
5.40066
21
-5.36367
0
LINE
8
BLACK
6
CONTINUOUS
10
5.40066
20
-5.36367
11
5.40441
21
-5.35617
0
LINE
8
BLACK
6
CONTINUOUS
10
5.40441
20
-5.35617
11
5.41191
21
-5.35242
0
LINE
8
BLACK
6
CONTINUOUS
10
5.41191
20
-5.35242
11
5.42316
21
-5.35242
0
LINE
8
BLACK
6
CONTINUOUS
10
5.42316
20
-5.35242
11
5.43066
21
-5.35617
0
LINE
8
BLACK
6
CONTINUOUS
10
5.52815
20
-5.37492
11
5.58814
21
-5.37492
0
LINE
8
BLACK
6
CONTINUOUS
10
5.55814
20
-5.40491
11
5.55814
21
-5.34492
0
LINE
8
BLACK
6
CONTINUOUS
10
5.71937
20
-5.35242
11
5.71937
21
-5.40491
0
LINE
8
BLACK
6
CONTINUOUS
10
5.70062
20
-5.32243
11
5.68188
21
-5.37867
0
LINE
8
BLACK
6
CONTINUOUS
10
5.68188
20
-5.37867
11
5.73062
21
-5.37867
0
LINE
8
BLACK
6
CONTINUOUS
10
5.81686
20
-5.40117
11
5.82436
21
-5.40491
0
LINE
8
BLACK
6
CONTINUOUS
10
5.82436
20
-5.40491
11
5.83936
21
-5.40491
0
LINE
8
BLACK
6
CONTINUOUS
10
5.83936
20
-5.40491
11
5.84686
21
-5.40117
0
LINE
8
BLACK
6
CONTINUOUS
10
5.84686
20
-5.40117
11
5.85061
21
-5.39367
0
LINE
8
BLACK
6
CONTINUOUS
10
5.85061
20
-5.39367
11
5.85061
21
-5.38992
0
LINE
8
BLACK
6
CONTINUOUS
10
5.85061
20
-5.38992
11
5.84686
21
-5.38242
0
LINE
8
BLACK
6
CONTINUOUS
10
5.84686
20
-5.38242
11
5.83936
21
-5.37867
0
LINE
8
BLACK
6
CONTINUOUS
10
5.83936
20
-5.37867
11
5.82811
21
-5.37867
0
LINE
8
BLACK
6
CONTINUOUS
10
5.82811
20
-5.37867
11
5.82061
21
-5.37492
0
LINE
8
BLACK
6
CONTINUOUS
10
5.82061
20
-5.37492
11
5.81686
21
-5.36742
0
LINE
8
BLACK
6
CONTINUOUS
10
5.81686
20
-5.36742
11
5.81686
21
-5.36367
0
LINE
8
BLACK
6
CONTINUOUS
10
5.81686
20
-5.36367
11
5.82061
21
-5.35617
0
LINE
8
BLACK
6
CONTINUOUS
10
5.82061
20
-5.35617
11
5.82811
21
-5.35242
0
LINE
8
BLACK
6
CONTINUOUS
10
5.82811
20
-5.35242
11
5.83936
21
-5.35242
0
LINE
8
BLACK
6
CONTINUOUS
10
5.83936
20
-5.35242
11
5.84686
21
-5.35617
0
LINE
8
BLACK
6
CONTINUOUS
10
5.8956
20
-5.40491
11
5.8881
21
-5.40117
0
LINE
8
BLACK
6
CONTINUOUS
10
5.8881
20
-5.40117
11
5.88435
21
-5.39367
0
LINE
8
BLACK
6
CONTINUOUS
10
5.88435
20
-5.39367
11
5.88435
21
-5.32617
0
LINE
8
BLACK
6
CONTINUOUS
10
5.93685
20
-5.40491
11
5.92935
21
-5.40117
0
LINE
8
BLACK
6
CONTINUOUS
10
5.92935
20
-5.40117
11
5.9256
21
-5.39742
0
LINE
8
BLACK
6
CONTINUOUS
10
5.9256
20
-5.39742
11
5.92185
21
-5.38992
0
LINE
8
BLACK
6
CONTINUOUS
10
5.92185
20
-5.38992
11
5.92185
21
-5.36742
0
LINE
8
BLACK
6
CONTINUOUS
10
5.92185
20
-5.36742
11
5.9256
21
-5.35992
0
LINE
8
BLACK
6
CONTINUOUS
10
5.9256
20
-5.35992
11
5.92935
21
-5.35617
0
LINE
8
BLACK
6
CONTINUOUS
10
5.92935
20
-5.35617
11
5.93685
21
-5.35242
0
LINE
8
BLACK
6
CONTINUOUS
10
5.93685
20
-5.35242
11
5.94809
21
-5.35242
0
LINE
8
BLACK
6
CONTINUOUS
10
5.94809
20
-5.35242
11
5.95559
21
-5.35617
0
LINE
8
BLACK
6
CONTINUOUS
10
5.95559
20
-5.35617
11
5.95934
21
-5.35992
0
LINE
8
BLACK
6
CONTINUOUS
10
5.95934
20
-5.35992
11
5.96309
21
-5.36742
0
LINE
8
BLACK
6
CONTINUOUS
10
5.96309
20
-5.36742
11
5.96309
21
-5.38992
0
LINE
8
BLACK
6
CONTINUOUS
10
5.96309
20
-5.38992
11
5.95934
21
-5.39742
0
LINE
8
BLACK
6
CONTINUOUS
10
5.95934
20
-5.39742
11
5.95559
21
-5.40117
0
LINE
8
BLACK
6
CONTINUOUS
10
5.95559
20
-5.40117
11
5.94809
21
-5.40491
0
LINE
8
BLACK
6
CONTINUOUS
10
5.94809
20
-5.40491
11
5.93685
21
-5.40491
0
LINE
8
BLACK
6
CONTINUOUS
10
5.98559
20
-5.35242
11
6.01559
21
-5.35242
0
LINE
8
BLACK
6
CONTINUOUS
10
5.99684
20
-5.32617
11
5.99684
21
-5.39367
0
LINE
8
BLACK
6
CONTINUOUS
10
5.99684
20
-5.39367
11
6.00059
21
-5.40117
0
LINE
8
BLACK
6
CONTINUOUS
10
6.00059
20
-5.40117
11
6.00809
21
-5.40491
0
LINE
8
BLACK
6
CONTINUOUS
10
6.00809
20
-5.40491
11
6.01559
21
-5.40491
0
LINE
8
BLACK
6
CONTINUOUS
10
6.03808
20
-5.40117
11
6.04558
21
-5.40491
0
LINE
8
BLACK
6
CONTINUOUS
10
6.04558
20
-5.40491
11
6.06058
21
-5.40491
0
LINE
8
BLACK
6
CONTINUOUS
10
6.06058
20
-5.40491
11
6.06808
21
-5.40117
0
LINE
8
BLACK
6
CONTINUOUS
10
6.06808
20
-5.40117
11
6.07183
21
-5.39367
0
LINE
8
BLACK
6
CONTINUOUS
10
6.07183
20
-5.39367
11
6.07183
21
-5.38992
0
LINE
8
BLACK
6
CONTINUOUS
10
6.07183
20
-5.38992
11
6.06808
21
-5.38242
0
LINE
8
BLACK
6
CONTINUOUS
10
6.06808
20
-5.38242
11
6.06058
21
-5.37867
0
LINE
8
BLACK
6
CONTINUOUS
10
6.06058
20
-5.37867
11
6.04933
21
-5.37867
0
LINE
8
BLACK
6
CONTINUOUS
10
6.04933
20
-5.37867
11
6.04183
21
-5.37492
0
LINE
8
BLACK
6
CONTINUOUS
10
6.04183
20
-5.37492
11
6.03808
21
-5.36742
0
LINE
8
BLACK
6
CONTINUOUS
10
6.03808
20
-5.36742
11
6.03808
21
-5.36367
0
LINE
8
BLACK
6
CONTINUOUS
10
6.03808
20
-5.36367
11
6.04183
21
-5.35617
0
LINE
8
BLACK
6
CONTINUOUS
10
6.04183
20
-5.35617
11
6.04933
21
-5.35242
0
LINE
8
BLACK
6
CONTINUOUS
10
6.04933
20
-5.35242
11
6.06058
21
-5.35242
0
LINE
8
BLACK
6
CONTINUOUS
10
6.06058
20
-5.35242
11
6.06808
21
-5.35617
0
LINE
8
BLACK
6
CONTINUOUS
10
6.09808
20
-5.43491
11
6.10182
21
-5.43116
0
LINE
8
BLACK
6
CONTINUOUS
10
6.10182
20
-5.43116
11
6.10932
21
-5.41991
0
LINE
8
BLACK
6
CONTINUOUS
10
6.10932
20
-5.41991
11
6.11307
21
-5.41241
0
LINE
8
BLACK
6
CONTINUOUS
10
6.11307
20
-5.41241
11
6.11682
21
-5.40117
0
LINE
8
BLACK
6
CONTINUOUS
10
6.11682
20
-5.40117
11
6.12057
21
-5.38242
0
LINE
8
BLACK
6
CONTINUOUS
10
6.12057
20
-5.38242
11
6.12057
21
-5.36742
0
LINE
8
BLACK
6
CONTINUOUS
10
6.12057
20
-5.36742
11
6.11682
21
-5.34867
0
LINE
8
BLACK
6
CONTINUOUS
10
6.11682
20
-5.34867
11
6.11307
21
-5.33742
0
LINE
8
BLACK
6
CONTINUOUS
10
6.11307
20
-5.33742
11
6.10932
21
-5.32992
0
LINE
8
BLACK
6
CONTINUOUS
10
6.10932
20
-5.32992
11
6.10182
21
-5.31868
0
LINE
8
BLACK
6
CONTINUOUS
10
6.10182
20
-5.31868
11
6.09808
21
-5.31493
0
LINE
8
BLACK
6
CONTINUOUS
10
3.56594
20
-5.4876
11
3.58071
21
-5.47283
0
LINE
8
BLACK
6
CONTINUOUS
10
3.58071
20
-5.47283
11
3.56594
21
-5.45807
0
LINE
8
BLACK
6
CONTINUOUS
10
3.56594
20
-5.45807
11
3.55118
21
-5.47283
0
LINE
8
BLACK
6
CONTINUOUS
10
3.55118
20
-5.47283
11
3.56594
21
-5.4876
0
LINE
8
BLACK
6
CONTINUOUS
10
3.69837
20
-5.43011
11
3.70587
21
-5.43011
0
LINE
8
BLACK
6
CONTINUOUS
10
3.70587
20
-5.43011
11
3.71337
21
-5.43386
0
LINE
8
BLACK
6
CONTINUOUS
10
3.71337
20
-5.43386
11
3.71712
21
-5.43761
0
LINE
8
BLACK
6
CONTINUOUS
10
3.71712
20
-5.43761
11
3.72087
21
-5.44511
0
LINE
8
BLACK
6
CONTINUOUS
10
3.72087
20
-5.44511
11
3.72462
21
-5.46011
0
LINE
8
BLACK
6
CONTINUOUS
10
3.72462
20
-5.46011
11
3.72462
21
-5.47886
0
LINE
8
BLACK
6
CONTINUOUS
10
3.72462
20
-5.47886
11
3.72087
21
-5.49385
0
LINE
8
BLACK
6
CONTINUOUS
10
3.72087
20
-5.49385
11
3.71712
21
-5.50135
0
LINE
8
BLACK
6
CONTINUOUS
10
3.71712
20
-5.50135
11
3.71337
21
-5.5051
0
LINE
8
BLACK
6
CONTINUOUS
10
3.71337
20
-5.5051
11
3.70587
21
-5.50885
0
LINE
8
BLACK
6
CONTINUOUS
10
3.70587
20
-5.50885
11
3.69837
21
-5.50885
0
LINE
8
BLACK
6
CONTINUOUS
10
3.69837
20
-5.50885
11
3.69088
21
-5.5051
0
LINE
8
BLACK
6
CONTINUOUS
10
3.69088
20
-5.5051
11
3.68713
21
-5.50135
0
LINE
8
BLACK
6
CONTINUOUS
10
3.68713
20
-5.50135
11
3.68338
21
-5.49385
0
LINE
8
BLACK
6
CONTINUOUS
10
3.68338
20
-5.49385
11
3.67963
21
-5.47886
0
LINE
8
BLACK
6
CONTINUOUS
10
3.67963
20
-5.47886
11
3.67963
21
-5.46011
0
LINE
8
BLACK
6
CONTINUOUS
10
3.67963
20
-5.46011
11
3.68338
21
-5.44511
0
LINE
8
BLACK
6
CONTINUOUS
10
3.68338
20
-5.44511
11
3.68713
21
-5.43761
0
LINE
8
BLACK
6
CONTINUOUS
10
3.68713
20
-5.43761
11
3.69088
21
-5.43386
0
LINE
8
BLACK
6
CONTINUOUS
10
3.69088
20
-5.43386
11
3.69837
21
-5.43011
0
LINE
8
BLACK
6
CONTINUOUS
10
3.75837
20
-5.50135
11
3.76212
21
-5.5051
0
LINE
8
BLACK
6
CONTINUOUS
10
3.76212
20
-5.5051
11
3.75837
21
-5.50885
0
LINE
8
BLACK
6
CONTINUOUS
10
3.75837
20
-5.50885
11
3.75462
21
-5.5051
0
LINE
8
BLACK
6
CONTINUOUS
10
3.75462
20
-5.5051
11
3.75837
21
-5.50135
0
LINE
8
BLACK
6
CONTINUOUS
10
3.75837
20
-5.50135
11
3.75837
21
-5.50885
0
LINE
8
BLACK
6
CONTINUOUS
10
3.78836
20
-5.43011
11
3.84086
21
-5.43011
0
LINE
8
BLACK
6
CONTINUOUS
10
3.84086
20
-5.43011
11
3.80711
21
-5.50885
0
LINE
8
BLACK
6
CONTINUOUS
10
3.90835
20
-5.43011
11
3.87085
21
-5.43011
0
LINE
8
BLACK
6
CONTINUOUS
10
3.87085
20
-5.43011
11
3.8671
21
-5.46761
0
LINE
8
BLACK
6
CONTINUOUS
10
3.8671
20
-5.46761
11
3.87085
21
-5.46386
0
LINE
8
BLACK
6
CONTINUOUS
10
3.87085
20
-5.46386
11
3.87835
21
-5.46011
0
LINE
8
BLACK
6
CONTINUOUS
10
3.87835
20
-5.46011
11
3.8971
21
-5.46011
0
LINE
8
BLACK
6
CONTINUOUS
10
3.8971
20
-5.46011
11
3.9046
21
-5.46386
0
LINE
8
BLACK
6
CONTINUOUS
10
3.9046
20
-5.46386
11
3.90835
21
-5.46761
0
LINE
8
BLACK
6
CONTINUOUS
10
3.90835
20
-5.46761
11
3.9121
21
-5.47511
0
LINE
8
BLACK
6
CONTINUOUS
10
3.9121
20
-5.47511
11
3.9121
21
-5.49385
0
LINE
8
BLACK
6
CONTINUOUS
10
3.9121
20
-5.49385
11
3.90835
21
-5.50135
0
LINE
8
BLACK
6
CONTINUOUS
10
3.90835
20
-5.50135
11
3.9046
21
-5.5051
0
LINE
8
BLACK
6
CONTINUOUS
10
3.9046
20
-5.5051
11
3.8971
21
-5.50885
0
LINE
8
BLACK
6
CONTINUOUS
10
3.8971
20
-5.50885
11
3.87835
21
-5.50885
0
LINE
8
BLACK
6
CONTINUOUS
10
3.87835
20
-5.50885
11
3.87085
21
-5.5051
0
LINE
8
BLACK
6
CONTINUOUS
10
3.87085
20
-5.5051
11
3.8671
21
-5.50135
0
LINE
8
BLACK
6
CONTINUOUS
10
3.96084
20
-5.43011
11
3.96834
21
-5.43011
0
LINE
8
BLACK
6
CONTINUOUS
10
3.96834
20
-5.43011
11
3.97584
21
-5.43386
0
LINE
8
BLACK
6
CONTINUOUS
10
3.97584
20
-5.43386
11
3.97959
21
-5.43761
0
LINE
8
BLACK
6
CONTINUOUS
10
3.97959
20
-5.43761
11
3.98334
21
-5.44511
0
LINE
8
BLACK
6
CONTINUOUS
10
3.98334
20
-5.44511
11
3.98709
21
-5.46011
0
LINE
8
BLACK
6
CONTINUOUS
10
3.98709
20
-5.46011
11
3.98709
21
-5.47886
0
LINE
8
BLACK
6
CONTINUOUS
10
3.98709
20
-5.47886
11
3.98334
21
-5.49385
0
LINE
8
BLACK
6
CONTINUOUS
10
3.98334
20
-5.49385
11
3.97959
21
-5.50135
0
LINE
8
BLACK
6
CONTINUOUS
10
3.97959
20
-5.50135
11
3.97584
21
-5.5051
0
LINE
8
BLACK
6
CONTINUOUS
10
3.97584
20
-5.5051
11
3.96834
21
-5.50885
0
LINE
8
BLACK
6
CONTINUOUS
10
3.96834
20
-5.50885
11
3.96084
21
-5.50885
0
LINE
8
BLACK
6
CONTINUOUS
10
3.96084
20
-5.50885
11
3.95334
21
-5.5051
0
LINE
8
BLACK
6
CONTINUOUS
10
3.95334
20
-5.5051
11
3.94959
21
-5.50135
0
LINE
8
BLACK
6
CONTINUOUS
10
3.94959
20
-5.50135
11
3.94584
21
-5.49385
0
LINE
8
BLACK
6
CONTINUOUS
10
3.94584
20
-5.49385
11
3.94209
21
-5.47886
0
LINE
8
BLACK
6
CONTINUOUS
10
3.94209
20
-5.47886
11
3.94209
21
-5.46011
0
LINE
8
BLACK
6
CONTINUOUS
10
3.94209
20
-5.46011
11
3.94584
21
-5.44511
0
LINE
8
BLACK
6
CONTINUOUS
10
3.94584
20
-5.44511
11
3.94959
21
-5.43761
0
LINE
8
BLACK
6
CONTINUOUS
10
3.94959
20
-5.43761
11
3.95334
21
-5.43386
0
LINE
8
BLACK
6
CONTINUOUS
10
3.95334
20
-5.43386
11
3.96084
21
-5.43011
0
LINE
8
BLACK
6
CONTINUOUS
10
4.02083
20
-5.50885
11
4.02083
21
-5.45636
0
LINE
8
BLACK
6
CONTINUOUS
10
4.02083
20
-5.46386
11
4.02458
21
-5.46011
0
LINE
8
BLACK
6
CONTINUOUS
10
4.02458
20
-5.46011
11
4.03208
21
-5.45636
0
LINE
8
BLACK
6
CONTINUOUS
10
4.03208
20
-5.45636
11
4.04333
21
-5.45636
0
LINE
8
BLACK
6
CONTINUOUS
10
4.04333
20
-5.45636
11
4.05083
21
-5.46011
0
LINE
8
BLACK
6
CONTINUOUS
10
4.05083
20
-5.46011
11
4.05458
21
-5.46761
0
LINE
8
BLACK
6
CONTINUOUS
10
4.05458
20
-5.46761
11
4.05458
21
-5.50885
0
LINE
8
BLACK
6
CONTINUOUS
10
4.05458
20
-5.46761
11
4.05833
21
-5.46011
0
LINE
8
BLACK
6
CONTINUOUS
10
4.05833
20
-5.46011
11
4.06583
21
-5.45636
0
LINE
8
BLACK
6
CONTINUOUS
10
4.06583
20
-5.45636
11
4.07708
21
-5.45636
0
LINE
8
BLACK
6
CONTINUOUS
10
4.07708
20
-5.45636
11
4.08458
21
-5.46011
0
LINE
8
BLACK
6
CONTINUOUS
10
4.08458
20
-5.46011
11
4.08833
21
-5.46761
0
LINE
8
BLACK
6
CONTINUOUS
10
4.08833
20
-5.46761
11
4.08833
21
-5.50885
0
LINE
8
BLACK
6
CONTINUOUS
10
4.12582
20
-5.50885
11
4.12582
21
-5.45636
0
LINE
8
BLACK
6
CONTINUOUS
10
4.12582
20
-5.46386
11
4.12957
21
-5.46011
0
LINE
8
BLACK
6
CONTINUOUS
10
4.12957
20
-5.46011
11
4.13707
21
-5.45636
0
LINE
8
BLACK
6
CONTINUOUS
10
4.13707
20
-5.45636
11
4.14832
21
-5.45636
0
LINE
8
BLACK
6
CONTINUOUS
10
4.14832
20
-5.45636
11
4.15582
21
-5.46011
0
LINE
8
BLACK
6
CONTINUOUS
10
4.15582
20
-5.46011
11
4.15957
21
-5.46761
0
LINE
8
BLACK
6
CONTINUOUS
10
4.15957
20
-5.46761
11
4.15957
21
-5.50885
0
LINE
8
BLACK
6
CONTINUOUS
10
4.15957
20
-5.46761
11
4.16332
21
-5.46011
0
LINE
8
BLACK
6
CONTINUOUS
10
4.16332
20
-5.46011
11
4.17082
21
-5.45636
0
LINE
8
BLACK
6
CONTINUOUS
10
4.17082
20
-5.45636
11
4.18206
21
-5.45636
0
LINE
8
BLACK
6
CONTINUOUS
10
4.18206
20
-5.45636
11
4.18956
21
-5.46011
0
LINE
8
BLACK
6
CONTINUOUS
10
4.18956
20
-5.46011
11
4.19331
21
-5.46761
0
LINE
8
BLACK
6
CONTINUOUS
10
4.19331
20
-5.46761
11
4.19331
21
-5.50885
0
LINE
8
BLACK
6
CONTINUOUS
10
4.34704
20
-5.42636
11
4.27955
21
-5.5276
0
LINE
8
BLACK
6
CONTINUOUS
10
4.44828
20
-5.43011
11
4.45578
21
-5.43011
0
LINE
8
BLACK
6
CONTINUOUS
10
4.45578
20
-5.43011
11
4.46328
21
-5.43386
0
LINE
8
BLACK
6
CONTINUOUS
10
4.46328
20
-5.43386
11
4.46703
21
-5.43761
0
LINE
8
BLACK
6
CONTINUOUS
10
4.46703
20
-5.43761
11
4.47078
21
-5.44511
0
LINE
8
BLACK
6
CONTINUOUS
10
4.47078
20
-5.44511
11
4.47453
21
-5.46011
0
LINE
8
BLACK
6
CONTINUOUS
10
4.47453
20
-5.46011
11
4.47453
21
-5.47886
0
LINE
8
BLACK
6
CONTINUOUS
10
4.47453
20
-5.47886
11
4.47078
21
-5.49385
0
LINE
8
BLACK
6
CONTINUOUS
10
4.47078
20
-5.49385
11
4.46703
21
-5.50135
0
LINE
8
BLACK
6
CONTINUOUS
10
4.46703
20
-5.50135
11
4.46328
21
-5.5051
0
LINE
8
BLACK
6
CONTINUOUS
10
4.46328
20
-5.5051
11
4.45578
21
-5.50885
0
LINE
8
BLACK
6
CONTINUOUS
10
4.45578
20
-5.50885
11
4.44828
21
-5.50885
0
LINE
8
BLACK
6
CONTINUOUS
10
4.44828
20
-5.50885
11
4.44078
21
-5.5051
0
LINE
8
BLACK
6
CONTINUOUS
10
4.44078
20
-5.5051
11
4.43703
21
-5.50135
0
LINE
8
BLACK
6
CONTINUOUS
10
4.43703
20
-5.50135
11
4.43328
21
-5.49385
0
LINE
8
BLACK
6
CONTINUOUS
10
4.43328
20
-5.49385
11
4.42953
21
-5.47886
0
LINE
8
BLACK
6
CONTINUOUS
10
4.42953
20
-5.47886
11
4.42953
21
-5.46011
0
LINE
8
BLACK
6
CONTINUOUS
10
4.42953
20
-5.46011
11
4.43328
21
-5.44511
0
LINE
8
BLACK
6
CONTINUOUS
10
4.43328
20
-5.44511
11
4.43703
21
-5.43761
0
LINE
8
BLACK
6
CONTINUOUS
10
4.43703
20
-5.43761
11
4.44078
21
-5.43386
0
LINE
8
BLACK
6
CONTINUOUS
10
4.44078
20
-5.43386
11
4.44828
21
-5.43011
0
LINE
8
BLACK
6
CONTINUOUS
10
4.50827
20
-5.50135
11
4.51202
21
-5.5051
0
LINE
8
BLACK
6
CONTINUOUS
10
4.51202
20
-5.5051
11
4.50827
21
-5.50885
0
LINE
8
BLACK
6
CONTINUOUS
10
4.50827
20
-5.50885
11
4.50452
21
-5.5051
0
LINE
8
BLACK
6
CONTINUOUS
10
4.50452
20
-5.5051
11
4.50827
21
-5.50135
0
LINE
8
BLACK
6
CONTINUOUS
10
4.50827
20
-5.50135
11
4.50827
21
-5.50885
0
LINE
8
BLACK
6
CONTINUOUS
10
4.56077
20
-5.43011
11
4.56827
21
-5.43011
0
LINE
8
BLACK
6
CONTINUOUS
10
4.56827
20
-5.43011
11
4.57577
21
-5.43386
0
LINE
8
BLACK
6
CONTINUOUS
10
4.57577
20
-5.43386
11
4.57951
21
-5.43761
0
LINE
8
BLACK
6
CONTINUOUS
10
4.57951
20
-5.43761
11
4.58326
21
-5.44511
0
LINE
8
BLACK
6
CONTINUOUS
10
4.58326
20
-5.44511
11
4.58701
21
-5.46011
0
LINE
8
BLACK
6
CONTINUOUS
10
4.58701
20
-5.46011
11
4.58701
21
-5.47886
0
LINE
8
BLACK
6
CONTINUOUS
10
4.58701
20
-5.47886
11
4.58326
21
-5.49385
0
LINE
8
BLACK
6
CONTINUOUS
10
4.58326
20
-5.49385
11
4.57951
21
-5.50135
0
LINE
8
BLACK
6
CONTINUOUS
10
4.57951
20
-5.50135
11
4.57577
21
-5.5051
0
LINE
8
BLACK
6
CONTINUOUS
10
4.57577
20
-5.5051
11
4.56827
21
-5.50885
0
LINE
8
BLACK
6
CONTINUOUS
10
4.56827
20
-5.50885
11
4.56077
21
-5.50885
0
LINE
8
BLACK
6
CONTINUOUS
10
4.56077
20
-5.50885
11
4.55327
21
-5.5051
0
LINE
8
BLACK
6
CONTINUOUS
10
4.55327
20
-5.5051
11
4.54952
21
-5.50135
0
LINE
8
BLACK
6
CONTINUOUS
10
4.54952
20
-5.50135
11
4.54577
21
-5.49385
0
LINE
8
BLACK
6
CONTINUOUS
10
4.54577
20
-5.49385
11
4.54202
21
-5.47886
0
LINE
8
BLACK
6
CONTINUOUS
10
4.54202
20
-5.47886
11
4.54202
21
-5.46011
0
LINE
8
BLACK
6
CONTINUOUS
10
4.54202
20
-5.46011
11
4.54577
21
-5.44511
0
LINE
8
BLACK
6
CONTINUOUS
10
4.54577
20
-5.44511
11
4.54952
21
-5.43761
0
LINE
8
BLACK
6
CONTINUOUS
10
4.54952
20
-5.43761
11
4.55327
21
-5.43386
0
LINE
8
BLACK
6
CONTINUOUS
10
4.55327
20
-5.43386
11
4.56077
21
-5.43011
0
LINE
8
BLACK
6
CONTINUOUS
10
4.61701
20
-5.43761
11
4.62076
21
-5.43386
0
LINE
8
BLACK
6
CONTINUOUS
10
4.62076
20
-5.43386
11
4.62826
21
-5.43011
0
LINE
8
BLACK
6
CONTINUOUS
10
4.62826
20
-5.43011
11
4.64701
21
-5.43011
0
LINE
8
BLACK
6
CONTINUOUS
10
4.64701
20
-5.43011
11
4.65451
21
-5.43386
0
LINE
8
BLACK
6
CONTINUOUS
10
4.65451
20
-5.43386
11
4.65825
21
-5.43761
0
LINE
8
BLACK
6
CONTINUOUS
10
4.65825
20
-5.43761
11
4.662
21
-5.44511
0
LINE
8
BLACK
6
CONTINUOUS
10
4.662
20
-5.44511
11
4.662
21
-5.45261
0
LINE
8
BLACK
6
CONTINUOUS
10
4.662
20
-5.45261
11
4.65825
21
-5.46386
0
LINE
8
BLACK
6
CONTINUOUS
10
4.65825
20
-5.46386
11
4.61326
21
-5.50885
0
LINE
8
BLACK
6
CONTINUOUS
10
4.61326
20
-5.50885
11
4.662
21
-5.50885
0
LINE
8
BLACK
6
CONTINUOUS
10
4.6995
20
-5.50885
11
4.7145
21
-5.50885
0
LINE
8
BLACK
6
CONTINUOUS
10
4.7145
20
-5.50885
11
4.722
21
-5.5051
0
LINE
8
BLACK
6
CONTINUOUS
10
4.722
20
-5.5051
11
4.72575
21
-5.50135
0
LINE
8
BLACK
6
CONTINUOUS
10
4.72575
20
-5.50135
11
4.73325
21
-5.4901
0
LINE
8
BLACK
6
CONTINUOUS
10
4.73325
20
-5.4901
11
4.737
21
-5.47511
0
LINE
8
BLACK
6
CONTINUOUS
10
4.737
20
-5.47511
11
4.737
21
-5.44511
0
LINE
8
BLACK
6
CONTINUOUS
10
4.737
20
-5.44511
11
4.73325
21
-5.43761
0
LINE
8
BLACK
6
CONTINUOUS
10
4.73325
20
-5.43761
11
4.7295
21
-5.43386
0
LINE
8
BLACK
6
CONTINUOUS
10
4.7295
20
-5.43386
11
4.722
21
-5.43011
0
LINE
8
BLACK
6
CONTINUOUS
10
4.722
20
-5.43011
11
4.707
21
-5.43011
0
LINE
8
BLACK
6
CONTINUOUS
10
4.707
20
-5.43011
11
4.6995
21
-5.43386
0
LINE
8
BLACK
6
CONTINUOUS
10
4.6995
20
-5.43386
11
4.69575
21
-5.43761
0
LINE
8
BLACK
6
CONTINUOUS
10
4.69575
20
-5.43761
11
4.692
21
-5.44511
0
LINE
8
BLACK
6
CONTINUOUS
10
4.692
20
-5.44511
11
4.692
21
-5.46386
0
LINE
8
BLACK
6
CONTINUOUS
10
4.692
20
-5.46386
11
4.69575
21
-5.47136
0
LINE
8
BLACK
6
CONTINUOUS
10
4.69575
20
-5.47136
11
4.6995
21
-5.47511
0
LINE
8
BLACK
6
CONTINUOUS
10
4.6995
20
-5.47511
11
4.707
21
-5.47886
0
LINE
8
BLACK
6
CONTINUOUS
10
4.707
20
-5.47886
11
4.722
21
-5.47886
0
LINE
8
BLACK
6
CONTINUOUS
10
4.722
20
-5.47886
11
4.7295
21
-5.47511
0
LINE
8
BLACK
6
CONTINUOUS
10
4.7295
20
-5.47511
11
4.73325
21
-5.47136
0
LINE
8
BLACK
6
CONTINUOUS
10
4.73325
20
-5.47136
11
4.737
21
-5.46386
0
LINE
8
BLACK
6
CONTINUOUS
10
4.80824
20
-5.43011
11
4.77074
21
-5.43011
0
LINE
8
BLACK
6
CONTINUOUS
10
4.77074
20
-5.43011
11
4.76699
21
-5.46761
0
LINE
8
BLACK
6
CONTINUOUS
10
4.76699
20
-5.46761
11
4.77074
21
-5.46386
0
LINE
8
BLACK
6
CONTINUOUS
10
4.77074
20
-5.46386
11
4.77824
21
-5.46011
0
LINE
8
BLACK
6
CONTINUOUS
10
4.77824
20
-5.46011
11
4.79699
21
-5.46011
0
LINE
8
BLACK
6
CONTINUOUS
10
4.79699
20
-5.46011
11
4.80449
21
-5.46386
0
LINE
8
BLACK
6
CONTINUOUS
10
4.80449
20
-5.46386
11
4.80824
21
-5.46761
0
LINE
8
BLACK
6
CONTINUOUS
10
4.80824
20
-5.46761
11
4.81199
21
-5.47511
0
LINE
8
BLACK
6
CONTINUOUS
10
4.81199
20
-5.47511
11
4.81199
21
-5.49385
0
LINE
8
BLACK
6
CONTINUOUS
10
4.81199
20
-5.49385
11
4.80824
21
-5.50135
0
LINE
8
BLACK
6
CONTINUOUS
10
4.80824
20
-5.50135
11
4.80449
21
-5.5051
0
LINE
8
BLACK
6
CONTINUOUS
10
4.80449
20
-5.5051
11
4.79699
21
-5.50885
0
LINE
8
BLACK
6
CONTINUOUS
10
4.79699
20
-5.50885
11
4.77824
21
-5.50885
0
LINE
8
BLACK
6
CONTINUOUS
10
4.77824
20
-5.50885
11
4.77074
21
-5.5051
0
LINE
8
BLACK
6
CONTINUOUS
10
4.77074
20
-5.5051
11
4.76699
21
-5.50135
0
LINE
8
BLACK
6
CONTINUOUS
10
4.84198
20
-5.43011
11
4.84198
21
-5.44511
0
LINE
8
BLACK
6
CONTINUOUS
10
4.87198
20
-5.43011
11
4.87198
21
-5.44511
0
LINE
8
BLACK
6
CONTINUOUS
10
4.98821
20
-5.53885
11
4.98446
21
-5.5351
0
LINE
8
BLACK
6
CONTINUOUS
10
4.98446
20
-5.5351
11
4.97697
21
-5.52385
0
LINE
8
BLACK
6
CONTINUOUS
10
4.97697
20
-5.52385
11
4.97322
21
-5.51635
0
LINE
8
BLACK
6
CONTINUOUS
10
4.97322
20
-5.51635
11
4.96947
21
-5.5051
0
LINE
8
BLACK
6
CONTINUOUS
10
4.96947
20
-5.5051
11
4.96572
21
-5.48635
0
LINE
8
BLACK
6
CONTINUOUS
10
4.96572
20
-5.48635
11
4.96572
21
-5.47136
0
LINE
8
BLACK
6
CONTINUOUS
10
4.96572
20
-5.47136
11
4.96947
21
-5.45261
0
LINE
8
BLACK
6
CONTINUOUS
10
4.96947
20
-5.45261
11
4.97322
21
-5.44136
0
LINE
8
BLACK
6
CONTINUOUS
10
4.97322
20
-5.44136
11
4.97697
21
-5.43386
0
LINE
8
BLACK
6
CONTINUOUS
10
4.97697
20
-5.43386
11
4.98446
21
-5.42261
0
LINE
8
BLACK
6
CONTINUOUS
10
4.98446
20
-5.42261
11
4.98821
21
-5.41886
0
LINE
8
BLACK
6
CONTINUOUS
10
5.05196
20
-5.45636
11
5.05196
21
-5.50885
0
LINE
8
BLACK
6
CONTINUOUS
10
5.03321
20
-5.42636
11
5.01446
21
-5.48261
0
LINE
8
BLACK
6
CONTINUOUS
10
5.01446
20
-5.48261
11
5.0632
21
-5.48261
0
LINE
8
BLACK
6
CONTINUOUS
10
5.15319
20
-5.50885
11
5.15319
21
-5.43011
0
LINE
8
BLACK
6
CONTINUOUS
10
5.18694
20
-5.50885
11
5.18694
21
-5.46761
0
LINE
8
BLACK
6
CONTINUOUS
10
5.18694
20
-5.46761
11
5.18319
21
-5.46011
0
LINE
8
BLACK
6
CONTINUOUS
10
5.18319
20
-5.46011
11
5.17569
21
-5.45636
0
LINE
8
BLACK
6
CONTINUOUS
10
5.17569
20
-5.45636
11
5.16444
21
-5.45636
0
LINE
8
BLACK
6
CONTINUOUS
10
5.16444
20
-5.45636
11
5.15694
21
-5.46011
0
LINE
8
BLACK
6
CONTINUOUS
10
5.15694
20
-5.46011
11
5.15319
21
-5.46386
0
LINE
8
BLACK
6
CONTINUOUS
10
5.23568
20
-5.50885
11
5.22818
21
-5.5051
0
LINE
8
BLACK
6
CONTINUOUS
10
5.22818
20
-5.5051
11
5.22443
21
-5.50135
0
LINE
8
BLACK
6
CONTINUOUS
10
5.22443
20
-5.50135
11
5.22068
21
-5.49385
0
LINE
8
BLACK
6
CONTINUOUS
10
5.22068
20
-5.49385
11
5.22068
21
-5.47136
0
LINE
8
BLACK
6
CONTINUOUS
10
5.22068
20
-5.47136
11
5.22443
21
-5.46386
0
LINE
8
BLACK
6
CONTINUOUS
10
5.22443
20
-5.46386
11
5.22818
21
-5.46011
0
LINE
8
BLACK
6
CONTINUOUS
10
5.22818
20
-5.46011
11
5.23568
21
-5.45636
0
LINE
8
BLACK
6
CONTINUOUS
10
5.23568
20
-5.45636
11
5.24693
21
-5.45636
0
LINE
8
BLACK
6
CONTINUOUS
10
5.24693
20
-5.45636
11
5.25443
21
-5.46011
0
LINE
8
BLACK
6
CONTINUOUS
10
5.25443
20
-5.46011
11
5.25818
21
-5.46386
0
LINE
8
BLACK
6
CONTINUOUS
10
5.25818
20
-5.46386
11
5.26193
21
-5.47136
0
LINE
8
BLACK
6
CONTINUOUS
10
5.26193
20
-5.47136
11
5.26193
21
-5.49385
0
LINE
8
BLACK
6
CONTINUOUS
10
5.26193
20
-5.49385
11
5.25818
21
-5.50135
0
LINE
8
BLACK
6
CONTINUOUS
10
5.25818
20
-5.50135
11
5.25443
21
-5.5051
0
LINE
8
BLACK
6
CONTINUOUS
10
5.25443
20
-5.5051
11
5.24693
21
-5.50885
0
LINE
8
BLACK
6
CONTINUOUS
10
5.24693
20
-5.50885
11
5.23568
21
-5.50885
0
LINE
8
BLACK
6
CONTINUOUS
10
5.30692
20
-5.50885
11
5.29942
21
-5.5051
0
LINE
8
BLACK
6
CONTINUOUS
10
5.29942
20
-5.5051
11
5.29568
21
-5.4976
0
LINE
8
BLACK
6
CONTINUOUS
10
5.29568
20
-5.4976
11
5.29568
21
-5.43011
0
LINE
8
BLACK
6
CONTINUOUS
10
5.36692
20
-5.5051
11
5.35942
21
-5.50885
0
LINE
8
BLACK
6
CONTINUOUS
10
5.35942
20
-5.50885
11
5.34442
21
-5.50885
0
LINE
8
BLACK
6
CONTINUOUS
10
5.34442
20
-5.50885
11
5.33692
21
-5.5051
0
LINE
8
BLACK
6
CONTINUOUS
10
5.33692
20
-5.5051
11
5.33317
21
-5.4976
0
LINE
8
BLACK
6
CONTINUOUS
10
5.33317
20
-5.4976
11
5.33317
21
-5.46761
0
LINE
8
BLACK
6
CONTINUOUS
10
5.33317
20
-5.46761
11
5.33692
21
-5.46011
0
LINE
8
BLACK
6
CONTINUOUS
10
5.33692
20
-5.46011
11
5.34442
21
-5.45636
0
LINE
8
BLACK
6
CONTINUOUS
10
5.34442
20
-5.45636
11
5.35942
21
-5.45636
0
LINE
8
BLACK
6
CONTINUOUS
10
5.35942
20
-5.45636
11
5.36692
21
-5.46011
0
LINE
8
BLACK
6
CONTINUOUS
10
5.36692
20
-5.46011
11
5.37067
21
-5.46761
0
LINE
8
BLACK
6
CONTINUOUS
10
5.37067
20
-5.46761
11
5.37067
21
-5.47511
0
LINE
8
BLACK
6
CONTINUOUS
10
5.37067
20
-5.47511
11
5.33317
21
-5.48261
0
LINE
8
BLACK
6
CONTINUOUS
10
5.40066
20
-5.5051
11
5.40816
21
-5.50885
0
LINE
8
BLACK
6
CONTINUOUS
10
5.40816
20
-5.50885
11
5.42316
21
-5.50885
0
LINE
8
BLACK
6
CONTINUOUS
10
5.42316
20
-5.50885
11
5.43066
21
-5.5051
0
LINE
8
BLACK
6
CONTINUOUS
10
5.43066
20
-5.5051
11
5.43441
21
-5.4976
0
LINE
8
BLACK
6
CONTINUOUS
10
5.43441
20
-5.4976
11
5.43441
21
-5.49385
0
LINE
8
BLACK
6
CONTINUOUS
10
5.43441
20
-5.49385
11
5.43066
21
-5.48635
0
LINE
8
BLACK
6
CONTINUOUS
10
5.43066
20
-5.48635
11
5.42316
21
-5.48261
0
LINE
8
BLACK
6
CONTINUOUS
10
5.42316
20
-5.48261
11
5.41191
21
-5.48261
0
LINE
8
BLACK
6
CONTINUOUS
10
5.41191
20
-5.48261
11
5.40441
21
-5.47886
0
LINE
8
BLACK
6
CONTINUOUS
10
5.40441
20
-5.47886
11
5.40066
21
-5.47136
0
LINE
8
BLACK
6
CONTINUOUS
10
5.40066
20
-5.47136
11
5.40066
21
-5.46761
0
LINE
8
BLACK
6
CONTINUOUS
10
5.40066
20
-5.46761
11
5.40441
21
-5.46011
0
LINE
8
BLACK
6
CONTINUOUS
10
5.40441
20
-5.46011
11
5.41191
21
-5.45636
0
LINE
8
BLACK
6
CONTINUOUS
10
5.41191
20
-5.45636
11
5.42316
21
-5.45636
0
LINE
8
BLACK
6
CONTINUOUS
10
5.42316
20
-5.45636
11
5.43066
21
-5.46011
0
LINE
8
BLACK
6
CONTINUOUS
10
5.46065
20
-5.53885
11
5.4644
21
-5.5351
0
LINE
8
BLACK
6
CONTINUOUS
10
5.4644
20
-5.5351
11
5.4719
21
-5.52385
0
LINE
8
BLACK
6
CONTINUOUS
10
5.4719
20
-5.52385
11
5.47565
21
-5.51635
0
LINE
8
BLACK
6
CONTINUOUS
10
5.47565
20
-5.51635
11
5.4794
21
-5.5051
0
LINE
8
BLACK
6
CONTINUOUS
10
5.4794
20
-5.5051
11
5.48315
21
-5.48635
0
LINE
8
BLACK
6
CONTINUOUS
10
5.48315
20
-5.48635
11
5.48315
21
-5.47136
0
LINE
8
BLACK
6
CONTINUOUS
10
5.48315
20
-5.47136
11
5.4794
21
-5.45261
0
LINE
8
BLACK
6
CONTINUOUS
10
5.4794
20
-5.45261
11
5.47565
21
-5.44136
0
LINE
8
BLACK
6
CONTINUOUS
10
5.47565
20
-5.44136
11
5.4719
21
-5.43386
0
LINE
8
BLACK
6
CONTINUOUS
10
5.4719
20
-5.43386
11
5.4644
21
-5.42261
0
LINE
8
BLACK
6
CONTINUOUS
10
5.4644
20
-5.42261
11
5.46065
21
-5.41886
0
LINE
8
BLACK
6
CONTINUOUS
10
3.54134
20
-5.55709
11
3.58071
21
-5.59646
0
LINE
8
BLACK
6
CONTINUOUS
10
3.58071
20
-5.55709
11
3.54134
21
-5.59646
0
CIRCLE
8
BLACK
10
3.56102
20
-5.57677
40
0.019685
0
LINE
8
BLACK
6
CONTINUOUS
10
3.72462
20
-5.61279
11
3.67963
21
-5.61279
0
LINE
8
BLACK
6
CONTINUOUS
10
3.70212
20
-5.61279
11
3.70212
21
-5.53405
0
LINE
8
BLACK
6
CONTINUOUS
10
3.70212
20
-5.53405
11
3.69463
21
-5.5453
0
LINE
8
BLACK
6
CONTINUOUS
10
3.69463
20
-5.5453
11
3.68713
21
-5.5528
0
LINE
8
BLACK
6
CONTINUOUS
10
3.68713
20
-5.5528
11
3.67963
21
-5.55655
0
LINE
8
BLACK
6
CONTINUOUS
10
3.75837
20
-5.60529
11
3.76212
21
-5.60904
0
LINE
8
BLACK
6
CONTINUOUS
10
3.76212
20
-5.60904
11
3.75837
21
-5.61279
0
LINE
8
BLACK
6
CONTINUOUS
10
3.75837
20
-5.61279
11
3.75462
21
-5.60904
0
LINE
8
BLACK
6
CONTINUOUS
10
3.75462
20
-5.60904
11
3.75837
21
-5.60529
0
LINE
8
BLACK
6
CONTINUOUS
10
3.75837
20
-5.60529
11
3.75837
21
-5.61279
0
LINE
8
BLACK
6
CONTINUOUS
10
3.81086
20
-5.53405
11
3.81836
21
-5.53405
0
LINE
8
BLACK
6
CONTINUOUS
10
3.81836
20
-5.53405
11
3.82586
21
-5.5378
0
LINE
8
BLACK
6
CONTINUOUS
10
3.82586
20
-5.5378
11
3.82961
21
-5.54155
0
LINE
8
BLACK
6
CONTINUOUS
10
3.82961
20
-5.54155
11
3.83336
21
-5.54905
0
LINE
8
BLACK
6
CONTINUOUS
10
3.83336
20
-5.54905
11
3.83711
21
-5.56404
0
LINE
8
BLACK
6
CONTINUOUS
10
3.83711
20
-5.56404
11
3.83711
21
-5.58279
0
LINE
8
BLACK
6
CONTINUOUS
10
3.83711
20
-5.58279
11
3.83336
21
-5.59779
0
LINE
8
BLACK
6
CONTINUOUS
10
3.83336
20
-5.59779
11
3.82961
21
-5.60529
0
LINE
8
BLACK
6
CONTINUOUS
10
3.82961
20
-5.60529
11
3.82586
21
-5.60904
0
LINE
8
BLACK
6
CONTINUOUS
10
3.82586
20
-5.60904
11
3.81836
21
-5.61279
0
LINE
8
BLACK
6
CONTINUOUS
10
3.81836
20
-5.61279
11
3.81086
21
-5.61279
0
LINE
8
BLACK
6
CONTINUOUS
10
3.81086
20
-5.61279
11
3.80336
21
-5.60904
0
LINE
8
BLACK
6
CONTINUOUS
10
3.80336
20
-5.60904
11
3.79961
21
-5.60529
0
LINE
8
BLACK
6
CONTINUOUS
10
3.79961
20
-5.60529
11
3.79586
21
-5.59779
0
LINE
8
BLACK
6
CONTINUOUS
10
3.79586
20
-5.59779
11
3.79211
21
-5.58279
0
LINE
8
BLACK
6
CONTINUOUS
10
3.79211
20
-5.58279
11
3.79211
21
-5.56404
0
LINE
8
BLACK
6
CONTINUOUS
10
3.79211
20
-5.56404
11
3.79586
21
-5.54905
0
LINE
8
BLACK
6
CONTINUOUS
10
3.79586
20
-5.54905
11
3.79961
21
-5.54155
0
LINE
8
BLACK
6
CONTINUOUS
10
3.79961
20
-5.54155
11
3.80336
21
-5.5378
0
LINE
8
BLACK
6
CONTINUOUS
10
3.80336
20
-5.5378
11
3.81086
21
-5.53405
0
LINE
8
BLACK
6
CONTINUOUS
10
3.88585
20
-5.53405
11
3.89335
21
-5.53405
0
LINE
8
BLACK
6
CONTINUOUS
10
3.89335
20
-5.53405
11
3.90085
21
-5.5378
0
LINE
8
BLACK
6
CONTINUOUS
10
3.90085
20
-5.5378
11
3.9046
21
-5.54155
0
LINE
8
BLACK
6
CONTINUOUS
10
3.9046
20
-5.54155
11
3.90835
21
-5.54905
0
LINE
8
BLACK
6
CONTINUOUS
10
3.90835
20
-5.54905
11
3.9121
21
-5.56404
0
LINE
8
BLACK
6
CONTINUOUS
10
3.9121
20
-5.56404
11
3.9121
21
-5.58279
0
LINE
8
BLACK
6
CONTINUOUS
10
3.9121
20
-5.58279
11
3.90835
21
-5.59779
0
LINE
8
BLACK
6
CONTINUOUS
10
3.90835
20
-5.59779
11
3.9046
21
-5.60529
0
LINE
8
BLACK
6
CONTINUOUS
10
3.9046
20
-5.60529
11
3.90085
21
-5.60904
0
LINE
8
BLACK
6
CONTINUOUS
10
3.90085
20
-5.60904
11
3.89335
21
-5.61279
0
LINE
8
BLACK
6
CONTINUOUS
10
3.89335
20
-5.61279
11
3.88585
21
-5.61279
0
LINE
8
BLACK
6
CONTINUOUS
10
3.88585
20
-5.61279
11
3.87835
21
-5.60904
0
LINE
8
BLACK
6
CONTINUOUS
10
3.87835
20
-5.60904
11
3.8746
21
-5.60529
0
LINE
8
BLACK
6
CONTINUOUS
10
3.8746
20
-5.60529
11
3.87085
21
-5.59779
0
LINE
8
BLACK
6
CONTINUOUS
10
3.87085
20
-5.59779
11
3.8671
21
-5.58279
0
LINE
8
BLACK
6
CONTINUOUS
10
3.8671
20
-5.58279
11
3.8671
21
-5.56404
0
LINE
8
BLACK
6
CONTINUOUS
10
3.8671
20
-5.56404
11
3.87085
21
-5.54905
0
LINE
8
BLACK
6
CONTINUOUS
10
3.87085
20
-5.54905
11
3.8746
21
-5.54155
0
LINE
8
BLACK
6
CONTINUOUS
10
3.8746
20
-5.54155
11
3.87835
21
-5.5378
0
LINE
8
BLACK
6
CONTINUOUS
10
3.87835
20
-5.5378
11
3.88585
21
-5.53405
0
LINE
8
BLACK
6
CONTINUOUS
10
3.96084
20
-5.53405
11
3.96834
21
-5.53405
0
LINE
8
BLACK
6
CONTINUOUS
10
3.96834
20
-5.53405
11
3.97584
21
-5.5378
0
LINE
8
BLACK
6
CONTINUOUS
10
3.97584
20
-5.5378
11
3.97959
21
-5.54155
0
LINE
8
BLACK
6
CONTINUOUS
10
3.97959
20
-5.54155
11
3.98334
21
-5.54905
0
LINE
8
BLACK
6
CONTINUOUS
10
3.98334
20
-5.54905
11
3.98709
21
-5.56404
0
LINE
8
BLACK
6
CONTINUOUS
10
3.98709
20
-5.56404
11
3.98709
21
-5.58279
0
LINE
8
BLACK
6
CONTINUOUS
10
3.98709
20
-5.58279
11
3.98334
21
-5.59779
0
LINE
8
BLACK
6
CONTINUOUS
10
3.98334
20
-5.59779
11
3.97959
21
-5.60529
0
LINE
8
BLACK
6
CONTINUOUS
10
3.97959
20
-5.60529
11
3.97584
21
-5.60904
0
LINE
8
BLACK
6
CONTINUOUS
10
3.97584
20
-5.60904
11
3.96834
21
-5.61279
0
LINE
8
BLACK
6
CONTINUOUS
10
3.96834
20
-5.61279
11
3.96084
21
-5.61279
0
LINE
8
BLACK
6
CONTINUOUS
10
3.96084
20
-5.61279
11
3.95334
21
-5.60904
0
LINE
8
BLACK
6
CONTINUOUS
10
3.95334
20
-5.60904
11
3.94959
21
-5.60529
0
LINE
8
BLACK
6
CONTINUOUS
10
3.94959
20
-5.60529
11
3.94584
21
-5.59779
0
LINE
8
BLACK
6
CONTINUOUS
10
3.94584
20
-5.59779
11
3.94209
21
-5.58279
0
LINE
8
BLACK
6
CONTINUOUS
10
3.94209
20
-5.58279
11
3.94209
21
-5.56404
0
LINE
8
BLACK
6
CONTINUOUS
10
3.94209
20
-5.56404
11
3.94584
21
-5.54905
0
LINE
8
BLACK
6
CONTINUOUS
10
3.94584
20
-5.54905
11
3.94959
21
-5.54155
0
LINE
8
BLACK
6
CONTINUOUS
10
3.94959
20
-5.54155
11
3.95334
21
-5.5378
0
LINE
8
BLACK
6
CONTINUOUS
10
3.95334
20
-5.5378
11
3.96084
21
-5.53405
0
LINE
8
BLACK
6
CONTINUOUS
10
4.02083
20
-5.61279
11
4.02083
21
-5.5603
0
LINE
8
BLACK
6
CONTINUOUS
10
4.02083
20
-5.56779
11
4.02458
21
-5.56404
0
LINE
8
BLACK
6
CONTINUOUS
10
4.02458
20
-5.56404
11
4.03208
21
-5.5603
0
LINE
8
BLACK
6
CONTINUOUS
10
4.03208
20
-5.5603
11
4.04333
21
-5.5603
0
LINE
8
BLACK
6
CONTINUOUS
10
4.04333
20
-5.5603
11
4.05083
21
-5.56404
0
LINE
8
BLACK
6
CONTINUOUS
10
4.05083
20
-5.56404
11
4.05458
21
-5.57154
0
LINE
8
BLACK
6
CONTINUOUS
10
4.05458
20
-5.57154
11
4.05458
21
-5.61279
0
LINE
8
BLACK
6
CONTINUOUS
10
4.05458
20
-5.57154
11
4.05833
21
-5.56404
0
LINE
8
BLACK
6
CONTINUOUS
10
4.05833
20
-5.56404
11
4.06583
21
-5.5603
0
LINE
8
BLACK
6
CONTINUOUS
10
4.06583
20
-5.5603
11
4.07708
21
-5.5603
0
LINE
8
BLACK
6
CONTINUOUS
10
4.07708
20
-5.5603
11
4.08458
21
-5.56404
0
LINE
8
BLACK
6
CONTINUOUS
10
4.08458
20
-5.56404
11
4.08833
21
-5.57154
0
LINE
8
BLACK
6
CONTINUOUS
10
4.08833
20
-5.57154
11
4.08833
21
-5.61279
0
LINE
8
BLACK
6
CONTINUOUS
10
4.12582
20
-5.61279
11
4.12582
21
-5.5603
0
LINE
8
BLACK
6
CONTINUOUS
10
4.12582
20
-5.56779
11
4.12957
21
-5.56404
0
LINE
8
BLACK
6
CONTINUOUS
10
4.12957
20
-5.56404
11
4.13707
21
-5.5603
0
LINE
8
BLACK
6
CONTINUOUS
10
4.13707
20
-5.5603
11
4.14832
21
-5.5603
0
LINE
8
BLACK
6
CONTINUOUS
10
4.14832
20
-5.5603
11
4.15582
21
-5.56404
0
LINE
8
BLACK
6
CONTINUOUS
10
4.15582
20
-5.56404
11
4.15957
21
-5.57154
0
LINE
8
BLACK
6
CONTINUOUS
10
4.15957
20
-5.57154
11
4.15957
21
-5.61279
0
LINE
8
BLACK
6
CONTINUOUS
10
4.15957
20
-5.57154
11
4.16332
21
-5.56404
0
LINE
8
BLACK
6
CONTINUOUS
10
4.16332
20
-5.56404
11
4.17082
21
-5.5603
0
LINE
8
BLACK
6
CONTINUOUS
10
4.17082
20
-5.5603
11
4.18206
21
-5.5603
0
LINE
8
BLACK
6
CONTINUOUS
10
4.18206
20
-5.5603
11
4.18956
21
-5.56404
0
LINE
8
BLACK
6
CONTINUOUS
10
4.18956
20
-5.56404
11
4.19331
21
-5.57154
0
LINE
8
BLACK
6
CONTINUOUS
10
4.19331
20
-5.57154
11
4.19331
21
-5.61279
0
LINE
8
BLACK
6
CONTINUOUS
10
4.34704
20
-5.5303
11
4.27955
21
-5.63154
0
LINE
8
BLACK
6
CONTINUOUS
10
4.44828
20
-5.53405
11
4.45578
21
-5.53405
0
LINE
8
BLACK
6
CONTINUOUS
10
4.45578
20
-5.53405
11
4.46328
21
-5.5378
0
LINE
8
BLACK
6
CONTINUOUS
10
4.46328
20
-5.5378
11
4.46703
21
-5.54155
0
LINE
8
BLACK
6
CONTINUOUS
10
4.46703
20
-5.54155
11
4.47078
21
-5.54905
0
LINE
8
BLACK
6
CONTINUOUS
10
4.47078
20
-5.54905
11
4.47453
21
-5.56404
0
LINE
8
BLACK
6
CONTINUOUS
10
4.47453
20
-5.56404
11
4.47453
21
-5.58279
0
LINE
8
BLACK
6
CONTINUOUS
10
4.47453
20
-5.58279
11
4.47078
21
-5.59779
0
LINE
8
BLACK
6
CONTINUOUS
10
4.47078
20
-5.59779
11
4.46703
21
-5.60529
0
LINE
8
BLACK
6
CONTINUOUS
10
4.46703
20
-5.60529
11
4.46328
21
-5.60904
0
LINE
8
BLACK
6
CONTINUOUS
10
4.46328
20
-5.60904
11
4.45578
21
-5.61279
0
LINE
8
BLACK
6
CONTINUOUS
10
4.45578
20
-5.61279
11
4.44828
21
-5.61279
0
LINE
8
BLACK
6
CONTINUOUS
10
4.44828
20
-5.61279
11
4.44078
21
-5.60904
0
LINE
8
BLACK
6
CONTINUOUS
10
4.44078
20
-5.60904
11
4.43703
21
-5.60529
0
LINE
8
BLACK
6
CONTINUOUS
10
4.43703
20
-5.60529
11
4.43328
21
-5.59779
0
LINE
8
BLACK
6
CONTINUOUS
10
4.43328
20
-5.59779
11
4.42953
21
-5.58279
0
LINE
8
BLACK
6
CONTINUOUS
10
4.42953
20
-5.58279
11
4.42953
21
-5.56404
0
LINE
8
BLACK
6
CONTINUOUS
10
4.42953
20
-5.56404
11
4.43328
21
-5.54905
0
LINE
8
BLACK
6
CONTINUOUS
10
4.43328
20
-5.54905
11
4.43703
21
-5.54155
0
LINE
8
BLACK
6
CONTINUOUS
10
4.43703
20
-5.54155
11
4.44078
21
-5.5378
0
LINE
8
BLACK
6
CONTINUOUS
10
4.44078
20
-5.5378
11
4.44828
21
-5.53405
0
LINE
8
BLACK
6
CONTINUOUS
10
4.50827
20
-5.60529
11
4.51202
21
-5.60904
0
LINE
8
BLACK
6
CONTINUOUS
10
4.51202
20
-5.60904
11
4.50827
21
-5.61279
0
LINE
8
BLACK
6
CONTINUOUS
10
4.50827
20
-5.61279
11
4.50452
21
-5.60904
0
LINE
8
BLACK
6
CONTINUOUS
10
4.50452
20
-5.60904
11
4.50827
21
-5.60529
0
LINE
8
BLACK
6
CONTINUOUS
10
4.50827
20
-5.60529
11
4.50827
21
-5.61279
0
LINE
8
BLACK
6
CONTINUOUS
10
4.56077
20
-5.53405
11
4.56827
21
-5.53405
0
LINE
8
BLACK
6
CONTINUOUS
10
4.56827
20
-5.53405
11
4.57577
21
-5.5378
0
LINE
8
BLACK
6
CONTINUOUS
10
4.57577
20
-5.5378
11
4.57951
21
-5.54155
0
LINE
8
BLACK
6
CONTINUOUS
10
4.57951
20
-5.54155
11
4.58326
21
-5.54905
0
LINE
8
BLACK
6
CONTINUOUS
10
4.58326
20
-5.54905
11
4.58701
21
-5.56404
0
LINE
8
BLACK
6
CONTINUOUS
10
4.58701
20
-5.56404
11
4.58701
21
-5.58279
0
LINE
8
BLACK
6
CONTINUOUS
10
4.58701
20
-5.58279
11
4.58326
21
-5.59779
0
LINE
8
BLACK
6
CONTINUOUS
10
4.58326
20
-5.59779
11
4.57951
21
-5.60529
0
LINE
8
BLACK
6
CONTINUOUS
10
4.57951
20
-5.60529
11
4.57577
21
-5.60904
0
LINE
8
BLACK
6
CONTINUOUS
10
4.57577
20
-5.60904
11
4.56827
21
-5.61279
0
LINE
8
BLACK
6
CONTINUOUS
10
4.56827
20
-5.61279
11
4.56077
21
-5.61279
0
LINE
8
BLACK
6
CONTINUOUS
10
4.56077
20
-5.61279
11
4.55327
21
-5.60904
0
LINE
8
BLACK
6
CONTINUOUS
10
4.55327
20
-5.60904
11
4.54952
21
-5.60529
0
LINE
8
BLACK
6
CONTINUOUS
10
4.54952
20
-5.60529
11
4.54577
21
-5.59779
0
LINE
8
BLACK
6
CONTINUOUS
10
4.54577
20
-5.59779
11
4.54202
21
-5.58279
0
LINE
8
BLACK
6
CONTINUOUS
10
4.54202
20
-5.58279
11
4.54202
21
-5.56404
0
LINE
8
BLACK
6
CONTINUOUS
10
4.54202
20
-5.56404
11
4.54577
21
-5.54905
0
LINE
8
BLACK
6
CONTINUOUS
10
4.54577
20
-5.54905
11
4.54952
21
-5.54155
0
LINE
8
BLACK
6
CONTINUOUS
10
4.54952
20
-5.54155
11
4.55327
21
-5.5378
0
LINE
8
BLACK
6
CONTINUOUS
10
4.55327
20
-5.5378
11
4.56077
21
-5.53405
0
LINE
8
BLACK
6
CONTINUOUS
10
4.61326
20
-5.53405
11
4.662
21
-5.53405
0
LINE
8
BLACK
6
CONTINUOUS
10
4.662
20
-5.53405
11
4.63576
21
-5.56404
0
LINE
8
BLACK
6
CONTINUOUS
10
4.63576
20
-5.56404
11
4.64701
21
-5.56404
0
LINE
8
BLACK
6
CONTINUOUS
10
4.64701
20
-5.56404
11
4.65451
21
-5.56779
0
LINE
8
BLACK
6
CONTINUOUS
10
4.65451
20
-5.56779
11
4.65825
21
-5.57154
0
LINE
8
BLACK
6
CONTINUOUS
10
4.65825
20
-5.57154
11
4.662
21
-5.57904
0
LINE
8
BLACK
6
CONTINUOUS
10
4.662
20
-5.57904
11
4.662
21
-5.59779
0
LINE
8
BLACK
6
CONTINUOUS
10
4.662
20
-5.59779
11
4.65825
21
-5.60529
0
LINE
8
BLACK
6
CONTINUOUS
10
4.65825
20
-5.60529
11
4.65451
21
-5.60904
0
LINE
8
BLACK
6
CONTINUOUS
10
4.65451
20
-5.60904
11
4.64701
21
-5.61279
0
LINE
8
BLACK
6
CONTINUOUS
10
4.64701
20
-5.61279
11
4.62451
21
-5.61279
0
LINE
8
BLACK
6
CONTINUOUS
10
4.62451
20
-5.61279
11
4.61701
21
-5.60904
0
LINE
8
BLACK
6
CONTINUOUS
10
4.61701
20
-5.60904
11
4.61326
21
-5.60529
0
LINE
8
BLACK
6
CONTINUOUS
10
4.6995
20
-5.61279
11
4.7145
21
-5.61279
0
LINE
8
BLACK
6
CONTINUOUS
10
4.7145
20
-5.61279
11
4.722
21
-5.60904
0
LINE
8
BLACK
6
CONTINUOUS
10
4.722
20
-5.60904
11
4.72575
21
-5.60529
0
LINE
8
BLACK
6
CONTINUOUS
10
4.72575
20
-5.60529
11
4.73325
21
-5.59404
0
LINE
8
BLACK
6
CONTINUOUS
10
4.73325
20
-5.59404
11
4.737
21
-5.57904
0
LINE
8
BLACK
6
CONTINUOUS
10
4.737
20
-5.57904
11
4.737
21
-5.54905
0
LINE
8
BLACK
6
CONTINUOUS
10
4.737
20
-5.54905
11
4.73325
21
-5.54155
0
LINE
8
BLACK
6
CONTINUOUS
10
4.73325
20
-5.54155
11
4.7295
21
-5.5378
0
LINE
8
BLACK
6
CONTINUOUS
10
4.7295
20
-5.5378
11
4.722
21
-5.53405
0
LINE
8
BLACK
6
CONTINUOUS
10
4.722
20
-5.53405
11
4.707
21
-5.53405
0
LINE
8
BLACK
6
CONTINUOUS
10
4.707
20
-5.53405
11
4.6995
21
-5.5378
0
LINE
8
BLACK
6
CONTINUOUS
10
4.6995
20
-5.5378
11
4.69575
21
-5.54155
0
LINE
8
BLACK
6
CONTINUOUS
10
4.69575
20
-5.54155
11
4.692
21
-5.54905
0
LINE
8
BLACK
6
CONTINUOUS
10
4.692
20
-5.54905
11
4.692
21
-5.56779
0
LINE
8
BLACK
6
CONTINUOUS
10
4.692
20
-5.56779
11
4.69575
21
-5.57529
0
LINE
8
BLACK
6
CONTINUOUS
10
4.69575
20
-5.57529
11
4.6995
21
-5.57904
0
LINE
8
BLACK
6
CONTINUOUS
10
4.6995
20
-5.57904
11
4.707
21
-5.58279
0
LINE
8
BLACK
6
CONTINUOUS
10
4.707
20
-5.58279
11
4.722
21
-5.58279
0
LINE
8
BLACK
6
CONTINUOUS
10
4.722
20
-5.58279
11
4.7295
21
-5.57904
0
LINE
8
BLACK
6
CONTINUOUS
10
4.7295
20
-5.57904
11
4.73325
21
-5.57529
0
LINE
8
BLACK
6
CONTINUOUS
10
4.73325
20
-5.57529
11
4.737
21
-5.56779
0
LINE
8
BLACK
6
CONTINUOUS
10
4.80449
20
-5.5603
11
4.80449
21
-5.61279
0
LINE
8
BLACK
6
CONTINUOUS
10
4.78574
20
-5.5303
11
4.76699
21
-5.58654
0
LINE
8
BLACK
6
CONTINUOUS
10
4.76699
20
-5.58654
11
4.81574
21
-5.58654
0
LINE
8
BLACK
6
CONTINUOUS
10
4.84198
20
-5.53405
11
4.84198
21
-5.54905
0
LINE
8
BLACK
6
CONTINUOUS
10
4.87198
20
-5.53405
11
4.87198
21
-5.54905
0
LINE
8
BLACK
6
CONTINUOUS
10
4.98821
20
-5.64279
11
4.98446
21
-5.63904
0
LINE
8
BLACK
6
CONTINUOUS
10
4.98446
20
-5.63904
11
4.97697
21
-5.62779
0
LINE
8
BLACK
6
CONTINUOUS
10
4.97697
20
-5.62779
11
4.97322
21
-5.62029
0
LINE
8
BLACK
6
CONTINUOUS
10
4.97322
20
-5.62029
11
4.96947
21
-5.60904
0
LINE
8
BLACK
6
CONTINUOUS
10
4.96947
20
-5.60904
11
4.96572
21
-5.59029
0
LINE
8
BLACK
6
CONTINUOUS
10
4.96572
20
-5.59029
11
4.96572
21
-5.57529
0
LINE
8
BLACK
6
CONTINUOUS
10
4.96572
20
-5.57529
11
4.96947
21
-5.55655
0
LINE
8
BLACK
6
CONTINUOUS
10
4.96947
20
-5.55655
11
4.97322
21
-5.5453
0
LINE
8
BLACK
6
CONTINUOUS
10
4.97322
20
-5.5453
11
4.97697
21
-5.5378
0
LINE
8
BLACK
6
CONTINUOUS
10
4.97697
20
-5.5378
11
4.98446
21
-5.52655
0
LINE
8
BLACK
6
CONTINUOUS
10
4.98446
20
-5.52655
11
4.98821
21
-5.5228
0
LINE
8
BLACK
6
CONTINUOUS
10
5.05196
20
-5.5603
11
5.05196
21
-5.61279
0
LINE
8
BLACK
6
CONTINUOUS
10
5.03321
20
-5.5303
11
5.01446
21
-5.58654
0
LINE
8
BLACK
6
CONTINUOUS
10
5.01446
20
-5.58654
11
5.0632
21
-5.58654
0
LINE
8
BLACK
6
CONTINUOUS
10
5.1082
20
-5.53405
11
5.1157
21
-5.53405
0
LINE
8
BLACK
6
CONTINUOUS
10
5.1157
20
-5.53405
11
5.1232
21
-5.5378
0
LINE
8
BLACK
6
CONTINUOUS
10
5.1232
20
-5.5378
11
5.12695
21
-5.54155
0
LINE
8
BLACK
6
CONTINUOUS
10
5.12695
20
-5.54155
11
5.1307
21
-5.54905
0
LINE
8
BLACK
6
CONTINUOUS
10
5.1307
20
-5.54905
11
5.13445
21
-5.56404
0
LINE
8
BLACK
6
CONTINUOUS
10
5.13445
20
-5.56404
11
5.13445
21
-5.58279
0
LINE
8
BLACK
6
CONTINUOUS
10
5.13445
20
-5.58279
11
5.1307
21
-5.59779
0
LINE
8
BLACK
6
CONTINUOUS
10
5.1307
20
-5.59779
11
5.12695
21
-5.60529
0
LINE
8
BLACK
6
CONTINUOUS
10
5.12695
20
-5.60529
11
5.1232
21
-5.60904
0
LINE
8
BLACK
6
CONTINUOUS
10
5.1232
20
-5.60904
11
5.1157
21
-5.61279
0
LINE
8
BLACK
6
CONTINUOUS
10
5.1157
20
-5.61279
11
5.1082
21
-5.61279
0
LINE
8
BLACK
6
CONTINUOUS
10
5.1082
20
-5.61279
11
5.1007
21
-5.60904
0
LINE
8
BLACK
6
CONTINUOUS
10
5.1007
20
-5.60904
11
5.09695
21
-5.60529
0
LINE
8
BLACK
6
CONTINUOUS
10
5.09695
20
-5.60529
11
5.0932
21
-5.59779
0
LINE
8
BLACK
6
CONTINUOUS
10
5.0932
20
-5.59779
11
5.08945
21
-5.58279
0
LINE
8
BLACK
6
CONTINUOUS
10
5.08945
20
-5.58279
11
5.08945
21
-5.56404
0
LINE
8
BLACK
6
CONTINUOUS
10
5.08945
20
-5.56404
11
5.0932
21
-5.54905
0
LINE
8
BLACK
6
CONTINUOUS
10
5.0932
20
-5.54905
11
5.09695
21
-5.54155
0
LINE
8
BLACK
6
CONTINUOUS
10
5.09695
20
-5.54155
11
5.1007
21
-5.5378
0
LINE
8
BLACK
6
CONTINUOUS
10
5.1007
20
-5.5378
11
5.1082
21
-5.53405
0
LINE
8
BLACK
6
CONTINUOUS
10
5.22818
20
-5.61279
11
5.22818
21
-5.53405
0
LINE
8
BLACK
6
CONTINUOUS
10
5.26193
20
-5.61279
11
5.26193
21
-5.57154
0
LINE
8
BLACK
6
CONTINUOUS
10
5.26193
20
-5.57154
11
5.25818
21
-5.56404
0
LINE
8
BLACK
6
CONTINUOUS
10
5.25818
20
-5.56404
11
5.25068
21
-5.5603
0
LINE
8
BLACK
6
CONTINUOUS
10
5.25068
20
-5.5603
11
5.23943
21
-5.5603
0
LINE
8
BLACK
6
CONTINUOUS
10
5.23943
20
-5.5603
11
5.23193
21
-5.56404
0
LINE
8
BLACK
6
CONTINUOUS
10
5.23193
20
-5.56404
11
5.22818
21
-5.56779
0
LINE
8
BLACK
6
CONTINUOUS
10
5.31067
20
-5.61279
11
5.30317
21
-5.60904
0
LINE
8
BLACK
6
CONTINUOUS
10
5.30317
20
-5.60904
11
5.29942
21
-5.60529
0
LINE
8
BLACK
6
CONTINUOUS
10
5.29942
20
-5.60529
11
5.29568
21
-5.59779
0
LINE
8
BLACK
6
CONTINUOUS
10
5.29568
20
-5.59779
11
5.29568
21
-5.57529
0
LINE
8
BLACK
6
CONTINUOUS
10
5.29568
20
-5.57529
11
5.29942
21
-5.56779
0
LINE
8
BLACK
6
CONTINUOUS
10
5.29942
20
-5.56779
11
5.30317
21
-5.56404
0
LINE
8
BLACK
6
CONTINUOUS
10
5.30317
20
-5.56404
11
5.31067
21
-5.5603
0
LINE
8
BLACK
6
CONTINUOUS
10
5.31067
20
-5.5603
11
5.32192
21
-5.5603
0
LINE
8
BLACK
6
CONTINUOUS
10
5.32192
20
-5.5603
11
5.32942
21
-5.56404
0
LINE
8
BLACK
6
CONTINUOUS
10
5.32942
20
-5.56404
11
5.33317
21
-5.56779
0
LINE
8
BLACK
6
CONTINUOUS
10
5.33317
20
-5.56779
11
5.33692
21
-5.57529
0
LINE
8
BLACK
6
CONTINUOUS
10
5.33692
20
-5.57529
11
5.33692
21
-5.59779
0
LINE
8
BLACK
6
CONTINUOUS
10
5.33692
20
-5.59779
11
5.33317
21
-5.60529
0
LINE
8
BLACK
6
CONTINUOUS
10
5.33317
20
-5.60529
11
5.32942
21
-5.60904
0
LINE
8
BLACK
6
CONTINUOUS
10
5.32942
20
-5.60904
11
5.32192
21
-5.61279
0
LINE
8
BLACK
6
CONTINUOUS
10
5.32192
20
-5.61279
11
5.31067
21
-5.61279
0
LINE
8
BLACK
6
CONTINUOUS
10
5.38191
20
-5.61279
11
5.37442
21
-5.60904
0
LINE
8
BLACK
6
CONTINUOUS
10
5.37442
20
-5.60904
11
5.37067
21
-5.60154
0
LINE
8
BLACK
6
CONTINUOUS
10
5.37067
20
-5.60154
11
5.37067
21
-5.53405
0
LINE
8
BLACK
6
CONTINUOUS
10
5.44191
20
-5.60904
11
5.43441
21
-5.61279
0
LINE
8
BLACK
6
CONTINUOUS
10
5.43441
20
-5.61279
11
5.41941
21
-5.61279
0
LINE
8
BLACK
6
CONTINUOUS
10
5.41941
20
-5.61279
11
5.41191
21
-5.60904
0
LINE
8
BLACK
6
CONTINUOUS
10
5.41191
20
-5.60904
11
5.40816
21
-5.60154
0
LINE
8
BLACK
6
CONTINUOUS
10
5.40816
20
-5.60154
11
5.40816
21
-5.57154
0
LINE
8
BLACK
6
CONTINUOUS
10
5.40816
20
-5.57154
11
5.41191
21
-5.56404
0
LINE
8
BLACK
6
CONTINUOUS
10
5.41191
20
-5.56404
11
5.41941
21
-5.5603
0
LINE
8
BLACK
6
CONTINUOUS
10
5.41941
20
-5.5603
11
5.43441
21
-5.5603
0
LINE
8
BLACK
6
CONTINUOUS
10
5.43441
20
-5.5603
11
5.44191
21
-5.56404
0
LINE
8
BLACK
6
CONTINUOUS
10
5.44191
20
-5.56404
11
5.44566
21
-5.57154
0
LINE
8
BLACK
6
CONTINUOUS
10
5.44566
20
-5.57154
11
5.44566
21
-5.57904
0
LINE
8
BLACK
6
CONTINUOUS
10
5.44566
20
-5.57904
11
5.40816
21
-5.58654
0
LINE
8
BLACK
6
CONTINUOUS
10
5.47565
20
-5.60904
11
5.48315
21
-5.61279
0
LINE
8
BLACK
6
CONTINUOUS
10
5.48315
20
-5.61279
11
5.49815
21
-5.61279
0
LINE
8
BLACK
6
CONTINUOUS
10
5.49815
20
-5.61279
11
5.50565
21
-5.60904
0
LINE
8
BLACK
6
CONTINUOUS
10
5.50565
20
-5.60904
11
5.5094
21
-5.60154
0
LINE
8
BLACK
6
CONTINUOUS
10
5.5094
20
-5.60154
11
5.5094
21
-5.59779
0
LINE
8
BLACK
6
CONTINUOUS
10
5.5094
20
-5.59779
11
5.50565
21
-5.59029
0
LINE
8
BLACK
6
CONTINUOUS
10
5.50565
20
-5.59029
11
5.49815
21
-5.58654
0
LINE
8
BLACK
6
CONTINUOUS
10
5.49815
20
-5.58654
11
5.4869
21
-5.58654
0
LINE
8
BLACK
6
CONTINUOUS
10
5.4869
20
-5.58654
11
5.4794
21
-5.58279
0
LINE
8
BLACK
6
CONTINUOUS
10
5.4794
20
-5.58279
11
5.47565
21
-5.57529
0
LINE
8
BLACK
6
CONTINUOUS
10
5.47565
20
-5.57529
11
5.47565
21
-5.57154
0
LINE
8
BLACK
6
CONTINUOUS
10
5.47565
20
-5.57154
11
5.4794
21
-5.56404
0
LINE
8
BLACK
6
CONTINUOUS
10
5.4794
20
-5.56404
11
5.4869
21
-5.5603
0
LINE
8
BLACK
6
CONTINUOUS
10
5.4869
20
-5.5603
11
5.49815
21
-5.5603
0
LINE
8
BLACK
6
CONTINUOUS
10
5.49815
20
-5.5603
11
5.50565
21
-5.56404
0
LINE
8
BLACK
6
CONTINUOUS
10
5.53565
20
-5.64279
11
5.53939
21
-5.63904
0
LINE
8
BLACK
6
CONTINUOUS
10
5.53939
20
-5.63904
11
5.54689
21
-5.62779
0
LINE
8
BLACK
6
CONTINUOUS
10
5.54689
20
-5.62779
11
5.55064
21
-5.62029
0
LINE
8
BLACK
6
CONTINUOUS
10
5.55064
20
-5.62029
11
5.55439
21
-5.60904
0
LINE
8
BLACK
6
CONTINUOUS
10
5.55439
20
-5.60904
11
5.55814
21
-5.59029
0
LINE
8
BLACK
6
CONTINUOUS
10
5.55814
20
-5.59029
11
5.55814
21
-5.57529
0
LINE
8
BLACK
6
CONTINUOUS
10
5.55814
20
-5.57529
11
5.55439
21
-5.55655
0
LINE
8
BLACK
6
CONTINUOUS
10
5.55439
20
-5.55655
11
5.55064
21
-5.5453
0
LINE
8
BLACK
6
CONTINUOUS
10
5.55064
20
-5.5453
11
5.54689
21
-5.5378
0
LINE
8
BLACK
6
CONTINUOUS
10
5.54689
20
-5.5378
11
5.53939
21
-5.52655
0
LINE
8
BLACK
6
CONTINUOUS
10
5.53939
20
-5.52655
11
5.53565
21
-5.5228
  0
ENDSEC
  0
EOF
