%TF.GenerationSoftware,KiCad,Pcbnew,7.0.1*%
%TF.CreationDate,2023-05-02T18:46:26+03:00*%
%TF.ProjectId,picoups,7069636f-7570-4732-9e6b-696361645f70,rev?*%
%TF.SameCoordinates,Original*%
%TF.FileFunction,Soldermask,Top*%
%TF.FilePolarity,Negative*%
%FSLAX46Y46*%
G04 Gerber Fmt 4.6, Leading zero omitted, Abs format (unit mm)*
G04 Created by KiCad (PCBNEW 7.0.1) date 2023-05-02 18:46:26*
%MOMM*%
%LPD*%
G01*
G04 APERTURE LIST*
G04 Aperture macros list*
%AMRoundRect*
0 Rectangle with rounded corners*
0 $1 Rounding radius*
0 $2 $3 $4 $5 $6 $7 $8 $9 X,Y pos of 4 corners*
0 Add a 4 corners polygon primitive as box body*
4,1,4,$2,$3,$4,$5,$6,$7,$8,$9,$2,$3,0*
0 Add four circle primitives for the rounded corners*
1,1,$1+$1,$2,$3*
1,1,$1+$1,$4,$5*
1,1,$1+$1,$6,$7*
1,1,$1+$1,$8,$9*
0 Add four rect primitives between the rounded corners*
20,1,$1+$1,$2,$3,$4,$5,0*
20,1,$1+$1,$4,$5,$6,$7,0*
20,1,$1+$1,$6,$7,$8,$9,0*
20,1,$1+$1,$8,$9,$2,$3,0*%
%AMOutline5P*
0 Free polygon, 5 corners , with rotation*
0 The origin of the aperture is its center*
0 number of corners: always 5*
0 $1 to $10 corner X, Y*
0 $11 Rotation angle, in degrees counterclockwise*
0 create outline with 5 corners*
4,1,5,$1,$2,$3,$4,$5,$6,$7,$8,$9,$10,$1,$2,$11*%
%AMOutline6P*
0 Free polygon, 6 corners , with rotation*
0 The origin of the aperture is its center*
0 number of corners: always 6*
0 $1 to $12 corner X, Y*
0 $13 Rotation angle, in degrees counterclockwise*
0 create outline with 6 corners*
4,1,6,$1,$2,$3,$4,$5,$6,$7,$8,$9,$10,$11,$12,$1,$2,$13*%
%AMOutline7P*
0 Free polygon, 7 corners , with rotation*
0 The origin of the aperture is its center*
0 number of corners: always 7*
0 $1 to $14 corner X, Y*
0 $15 Rotation angle, in degrees counterclockwise*
0 create outline with 7 corners*
4,1,7,$1,$2,$3,$4,$5,$6,$7,$8,$9,$10,$11,$12,$13,$14,$1,$2,$15*%
%AMOutline8P*
0 Free polygon, 8 corners , with rotation*
0 The origin of the aperture is its center*
0 number of corners: always 8*
0 $1 to $16 corner X, Y*
0 $17 Rotation angle, in degrees counterclockwise*
0 create outline with 8 corners*
4,1,8,$1,$2,$3,$4,$5,$6,$7,$8,$9,$10,$11,$12,$13,$14,$15,$16,$1,$2,$17*%
G04 Aperture macros list end*
%ADD10C,0.264583*%
%ADD11R,4.000000X3.850000*%
%ADD12R,0.800000X0.800000*%
%ADD13R,1.100000X2.000000*%
%ADD14RoundRect,0.250000X-0.650000X0.325000X-0.650000X-0.325000X0.650000X-0.325000X0.650000X0.325000X0*%
%ADD15RoundRect,0.250000X-0.325000X-0.650000X0.325000X-0.650000X0.325000X0.650000X-0.325000X0.650000X0*%
%ADD16RoundRect,0.250000X-0.475000X0.250000X-0.475000X-0.250000X0.475000X-0.250000X0.475000X0.250000X0*%
%ADD17RoundRect,0.243750X0.456250X-0.243750X0.456250X0.243750X-0.456250X0.243750X-0.456250X-0.243750X0*%
%ADD18RoundRect,0.250000X-0.450000X0.262500X-0.450000X-0.262500X0.450000X-0.262500X0.450000X0.262500X0*%
%ADD19RoundRect,0.250000X0.250000X0.475000X-0.250000X0.475000X-0.250000X-0.475000X0.250000X-0.475000X0*%
%ADD20RoundRect,0.250000X0.350000X0.625000X-0.350000X0.625000X-0.350000X-0.625000X0.350000X-0.625000X0*%
%ADD21O,1.200000X1.750000*%
%ADD22RoundRect,0.250000X0.450000X-0.262500X0.450000X0.262500X-0.450000X0.262500X-0.450000X-0.262500X0*%
%ADD23C,5.400000*%
%ADD24C,2.000000*%
%ADD25RoundRect,0.250000X1.100000X-0.325000X1.100000X0.325000X-1.100000X0.325000X-1.100000X-0.325000X0*%
%ADD26RoundRect,0.243750X-0.456250X0.243750X-0.456250X-0.243750X0.456250X-0.243750X0.456250X0.243750X0*%
%ADD27R,1.650000X2.850000*%
%ADD28RoundRect,0.100000X-0.625000X-0.100000X0.625000X-0.100000X0.625000X0.100000X-0.625000X0.100000X0*%
%ADD29Outline5P,-0.850000X0.425000X-0.425000X0.850000X0.850000X0.850000X0.850000X-0.850000X-0.850000X-0.850000X90.000000*%
%ADD30C,1.700000*%
%ADD31O,1.700000X1.700000*%
%ADD32R,1.300000X1.300000*%
%ADD33R,2.000000X1.300000*%
%ADD34RoundRect,0.250000X0.625000X-0.350000X0.625000X0.350000X-0.625000X0.350000X-0.625000X-0.350000X0*%
%ADD35O,1.750000X1.200000*%
G04 APERTURE END LIST*
%TO.C,REF\u002A\u002A*%
G36*
X142251751Y-110425963D02*
G01*
X142675603Y-110425963D01*
X142675799Y-110436297D01*
X142676390Y-110446660D01*
X142677374Y-110457054D01*
X142678753Y-110467477D01*
X142680527Y-110477930D01*
X142682697Y-110488414D01*
X142685262Y-110498928D01*
X142688224Y-110509472D01*
X142691583Y-110520047D01*
X142695339Y-110530653D01*
X142699493Y-110541290D01*
X142704045Y-110551959D01*
X142708996Y-110562658D01*
X142714346Y-110573389D01*
X142720095Y-110584151D01*
X142726245Y-110594945D01*
X142732707Y-110605212D01*
X142739394Y-110615188D01*
X142746305Y-110624872D01*
X142753439Y-110634264D01*
X142760797Y-110643364D01*
X142768379Y-110652172D01*
X142776185Y-110660687D01*
X142784214Y-110668910D01*
X142792466Y-110676840D01*
X142800941Y-110684477D01*
X142809640Y-110691820D01*
X142818561Y-110698871D01*
X142827704Y-110705628D01*
X142837071Y-110712091D01*
X142846659Y-110718261D01*
X142856470Y-110724136D01*
X142866664Y-110729814D01*
X142876610Y-110734932D01*
X142886308Y-110739489D01*
X142895757Y-110743484D01*
X142904957Y-110746918D01*
X142913910Y-110749789D01*
X142922614Y-110752097D01*
X142931070Y-110753840D01*
X142939278Y-110755018D01*
X142947238Y-110755631D01*
X142954950Y-110755678D01*
X142962415Y-110755157D01*
X142969631Y-110754069D01*
X142976600Y-110752412D01*
X142983321Y-110750186D01*
X142989795Y-110747391D01*
X142995945Y-110743697D01*
X143001695Y-110739571D01*
X143007045Y-110735014D01*
X143011996Y-110730026D01*
X143016548Y-110724608D01*
X143020702Y-110718760D01*
X143024458Y-110712484D01*
X143027817Y-110705779D01*
X143030779Y-110698647D01*
X143033344Y-110691088D01*
X143035514Y-110683103D01*
X143037288Y-110674692D01*
X143038667Y-110665856D01*
X143039651Y-110656595D01*
X143040241Y-110646911D01*
X143040438Y-110636804D01*
X143040438Y-110036839D01*
X143592859Y-110355683D01*
X143613410Y-110367178D01*
X143633788Y-110377830D01*
X143653992Y-110387640D01*
X143674023Y-110396608D01*
X143693880Y-110404732D01*
X143713564Y-110412014D01*
X143733074Y-110418452D01*
X143752411Y-110424045D01*
X143771574Y-110428794D01*
X143790564Y-110432699D01*
X143809380Y-110435758D01*
X143828022Y-110437972D01*
X143846490Y-110439340D01*
X143864784Y-110439862D01*
X143882904Y-110439538D01*
X143900851Y-110438366D01*
X143918886Y-110436228D01*
X143936478Y-110433339D01*
X143953627Y-110429700D01*
X143970332Y-110425309D01*
X143986592Y-110420165D01*
X144002408Y-110414270D01*
X144017778Y-110407621D01*
X144032702Y-110400220D01*
X144047180Y-110392064D01*
X144061210Y-110383154D01*
X144074794Y-110373489D01*
X144087929Y-110363069D01*
X144100615Y-110351893D01*
X144112853Y-110339961D01*
X144124641Y-110327272D01*
X144135978Y-110313826D01*
X144146743Y-110299664D01*
X144156814Y-110284827D01*
X144166189Y-110269316D01*
X144174870Y-110253131D01*
X144182855Y-110236272D01*
X144190147Y-110218739D01*
X144196743Y-110200532D01*
X144200420Y-110188768D01*
X144535954Y-110188768D01*
X144535954Y-111500317D01*
X144536168Y-111510660D01*
X144536809Y-111521052D01*
X144537878Y-111531492D01*
X144539372Y-111541981D01*
X144541291Y-111552516D01*
X144543634Y-111563098D01*
X144546401Y-111573726D01*
X144549590Y-111584400D01*
X144553201Y-111595119D01*
X144557233Y-111605882D01*
X144561685Y-111616690D01*
X144566556Y-111627540D01*
X144571845Y-111638434D01*
X144577552Y-111649370D01*
X144583675Y-111660347D01*
X144590214Y-111671366D01*
X144597071Y-111681862D01*
X144604150Y-111692065D01*
X144611450Y-111701975D01*
X144618972Y-111711594D01*
X144626716Y-111720919D01*
X144634682Y-111729952D01*
X144642871Y-111738692D01*
X144651283Y-111747139D01*
X144659918Y-111755293D01*
X144668777Y-111763155D01*
X144677860Y-111770723D01*
X144687166Y-111777999D01*
X144696697Y-111784982D01*
X144706453Y-111791672D01*
X144716434Y-111798069D01*
X144726640Y-111804173D01*
X144736846Y-111809855D01*
X144746827Y-111814986D01*
X144756583Y-111819565D01*
X144766114Y-111823592D01*
X144775420Y-111827069D01*
X144784503Y-111829995D01*
X144793361Y-111832370D01*
X144801997Y-111834194D01*
X144810409Y-111835468D01*
X144818598Y-111836191D01*
X144826564Y-111836364D01*
X144834308Y-111835987D01*
X144841830Y-111835060D01*
X144849130Y-111833582D01*
X144856208Y-111831555D01*
X144863066Y-111828979D01*
X144869605Y-111825509D01*
X144875728Y-111821599D01*
X144881435Y-111817246D01*
X144886724Y-111812453D01*
X144891595Y-111807217D01*
X144896047Y-111801540D01*
X144900079Y-111795420D01*
X144903690Y-111788859D01*
X144906879Y-111781856D01*
X144909645Y-111774411D01*
X144911989Y-111766524D01*
X144913908Y-111758195D01*
X144915402Y-111749424D01*
X144916470Y-111740211D01*
X144917112Y-111730556D01*
X144917326Y-111720458D01*
X144917326Y-110408910D01*
X144917112Y-110398584D01*
X144916470Y-110388243D01*
X144915402Y-110377886D01*
X144913908Y-110367513D01*
X144911989Y-110357123D01*
X144909645Y-110346715D01*
X144906879Y-110336288D01*
X144903690Y-110325841D01*
X144900079Y-110315375D01*
X144896047Y-110304887D01*
X144891595Y-110294378D01*
X144886724Y-110283846D01*
X144881435Y-110273291D01*
X144875728Y-110262712D01*
X144869605Y-110252108D01*
X144863066Y-110241479D01*
X144856208Y-110230599D01*
X144849130Y-110220039D01*
X144841830Y-110209797D01*
X144834308Y-110199873D01*
X144826564Y-110190268D01*
X144818598Y-110180981D01*
X144810409Y-110172012D01*
X144801997Y-110163361D01*
X144793361Y-110155028D01*
X144784503Y-110147012D01*
X144775420Y-110139313D01*
X144766114Y-110131931D01*
X144756583Y-110124866D01*
X144746827Y-110118117D01*
X144736846Y-110111685D01*
X144726640Y-110105570D01*
X144716431Y-110099891D01*
X144711409Y-110097262D01*
X144706443Y-110094773D01*
X144701531Y-110092426D01*
X144696675Y-110090221D01*
X144691875Y-110088158D01*
X144687130Y-110086239D01*
X144682441Y-110084464D01*
X144677809Y-110082833D01*
X144673232Y-110081347D01*
X144668711Y-110080006D01*
X144664247Y-110078812D01*
X144659839Y-110077765D01*
X144655487Y-110076865D01*
X144651193Y-110076114D01*
X144646956Y-110075510D01*
X144642777Y-110075055D01*
X144638657Y-110074746D01*
X144634595Y-110074583D01*
X144630590Y-110074566D01*
X144626643Y-110074695D01*
X144622752Y-110074969D01*
X144618917Y-110075387D01*
X144615138Y-110075949D01*
X144611415Y-110076654D01*
X144607746Y-110077502D01*
X144604132Y-110078492D01*
X144600573Y-110079624D01*
X144597067Y-110080897D01*
X144593614Y-110082311D01*
X144590214Y-110083865D01*
X144583675Y-110086945D01*
X144577552Y-110090482D01*
X144571845Y-110094478D01*
X144566556Y-110098933D01*
X144561685Y-110103850D01*
X144557233Y-110109230D01*
X144553201Y-110115074D01*
X144549590Y-110121383D01*
X144546401Y-110128158D01*
X144543634Y-110135402D01*
X144541291Y-110143115D01*
X144539372Y-110151299D01*
X144537878Y-110159955D01*
X144536809Y-110169084D01*
X144536168Y-110178688D01*
X144535954Y-110188768D01*
X144200420Y-110188768D01*
X144202645Y-110181651D01*
X144207853Y-110162096D01*
X144212366Y-110141867D01*
X144216184Y-110120965D01*
X144219308Y-110099389D01*
X144221738Y-110077139D01*
X144223474Y-110054216D01*
X144224515Y-110030620D01*
X144224862Y-110006351D01*
X144224515Y-109981294D01*
X144223474Y-109956132D01*
X144221738Y-109930864D01*
X144219308Y-109905490D01*
X144216184Y-109880012D01*
X144212366Y-109854429D01*
X144207853Y-109828742D01*
X144202645Y-109802952D01*
X144196743Y-109777058D01*
X144190147Y-109751061D01*
X144182855Y-109724961D01*
X144174870Y-109698760D01*
X144166189Y-109672456D01*
X144156814Y-109646051D01*
X144148611Y-109624462D01*
X144146743Y-109619546D01*
X144135978Y-109592939D01*
X144124641Y-109566415D01*
X144123789Y-109564517D01*
X144526652Y-109564517D01*
X144526652Y-109624462D01*
X144526826Y-109635468D01*
X144527346Y-109646261D01*
X144528214Y-109656839D01*
X144529429Y-109667201D01*
X144530991Y-109677346D01*
X144532900Y-109687274D01*
X144535157Y-109696982D01*
X144537761Y-109706471D01*
X144540712Y-109715738D01*
X144544010Y-109724783D01*
X144547656Y-109733604D01*
X144551648Y-109742202D01*
X144555989Y-109750573D01*
X144560676Y-109758718D01*
X144565711Y-109766635D01*
X144571094Y-109774323D01*
X144576899Y-109781905D01*
X144583200Y-109789501D01*
X144589999Y-109797112D01*
X144597295Y-109804738D01*
X144605087Y-109812379D01*
X144613375Y-109820033D01*
X144622160Y-109827702D01*
X144631442Y-109835384D01*
X144641219Y-109843080D01*
X144651492Y-109850790D01*
X144662261Y-109858512D01*
X144673526Y-109866247D01*
X144685286Y-109873995D01*
X144697542Y-109881756D01*
X144723539Y-109897313D01*
X144736797Y-109904842D01*
X144749583Y-109911846D01*
X144761897Y-109918327D01*
X144773739Y-109924285D01*
X144785110Y-109929720D01*
X144796009Y-109934633D01*
X144806437Y-109939026D01*
X144816393Y-109942897D01*
X144825879Y-109946248D01*
X144834892Y-109949080D01*
X144843435Y-109951393D01*
X144851507Y-109953187D01*
X144859108Y-109954464D01*
X144866238Y-109955223D01*
X144872897Y-109955465D01*
X144879085Y-109955192D01*
X144884852Y-109953930D01*
X144890244Y-109952002D01*
X144892800Y-109950788D01*
X144895263Y-109949408D01*
X144899908Y-109946150D01*
X144904181Y-109942228D01*
X144908081Y-109937643D01*
X144911608Y-109932395D01*
X144914763Y-109926485D01*
X144917545Y-109919913D01*
X144919956Y-109912682D01*
X144921996Y-109904790D01*
X144923664Y-109896239D01*
X144924961Y-109887029D01*
X144925887Y-109877161D01*
X144926442Y-109866637D01*
X144926627Y-109855455D01*
X144926627Y-109795511D01*
X144926454Y-109784505D01*
X144925933Y-109773712D01*
X144925066Y-109763134D01*
X144923851Y-109752772D01*
X144922289Y-109742627D01*
X144920379Y-109732699D01*
X144918123Y-109722991D01*
X144915519Y-109713502D01*
X144912568Y-109704235D01*
X144909270Y-109695190D01*
X144905624Y-109686368D01*
X144901631Y-109677771D01*
X144897291Y-109669400D01*
X144892603Y-109661255D01*
X144887568Y-109653337D01*
X144882186Y-109645649D01*
X144876369Y-109638064D01*
X144870033Y-109630455D01*
X144863176Y-109622822D01*
X144855798Y-109615164D01*
X144847900Y-109607481D01*
X144839482Y-109599771D01*
X144830542Y-109592035D01*
X144821082Y-109584272D01*
X144811101Y-109576481D01*
X144800598Y-109568661D01*
X144789575Y-109560812D01*
X144778031Y-109552933D01*
X144765965Y-109545024D01*
X144753378Y-109537084D01*
X144726640Y-109521110D01*
X144714138Y-109514026D01*
X144702032Y-109507442D01*
X144690322Y-109501356D01*
X144679008Y-109495770D01*
X144668090Y-109490684D01*
X144657569Y-109486099D01*
X144647445Y-109482015D01*
X144637717Y-109478432D01*
X144628386Y-109475352D01*
X144619453Y-109472773D01*
X144610916Y-109470698D01*
X144602777Y-109469126D01*
X144595035Y-109468058D01*
X144587690Y-109467494D01*
X144580743Y-109467436D01*
X144574194Y-109467882D01*
X144568428Y-109468760D01*
X144565685Y-109469459D01*
X144563036Y-109470331D01*
X144560480Y-109471376D01*
X144558017Y-109472593D01*
X144555647Y-109473983D01*
X144553371Y-109475546D01*
X144551188Y-109477281D01*
X144549099Y-109479188D01*
X144545199Y-109483520D01*
X144541672Y-109488539D01*
X144538517Y-109494245D01*
X144535734Y-109500637D01*
X144533323Y-109507714D01*
X144531284Y-109515476D01*
X144529616Y-109523921D01*
X144528319Y-109533049D01*
X144527393Y-109542858D01*
X144526837Y-109553347D01*
X144526652Y-109564517D01*
X144123789Y-109564517D01*
X144112853Y-109540156D01*
X144100615Y-109514162D01*
X144087929Y-109488431D01*
X144074794Y-109462965D01*
X144061210Y-109437763D01*
X144047180Y-109412824D01*
X144032702Y-109388149D01*
X144017778Y-109363737D01*
X144002408Y-109339587D01*
X143986592Y-109315701D01*
X143970332Y-109292076D01*
X143953627Y-109268714D01*
X143936478Y-109245614D01*
X143918886Y-109222775D01*
X143900851Y-109200198D01*
X143882904Y-109178299D01*
X143864784Y-109157038D01*
X143846490Y-109136415D01*
X143828022Y-109116432D01*
X143809380Y-109097089D01*
X143790564Y-109078387D01*
X143771574Y-109060327D01*
X143752411Y-109042910D01*
X143733074Y-109026137D01*
X143713564Y-109010009D01*
X143693880Y-108994526D01*
X143674023Y-108979690D01*
X143653992Y-108965502D01*
X143633788Y-108951962D01*
X143613410Y-108939071D01*
X143592859Y-108926830D01*
X142869389Y-108509285D01*
X142859157Y-108503596D01*
X142854108Y-108500955D01*
X142849104Y-108498450D01*
X142844147Y-108496082D01*
X142839237Y-108493853D01*
X142834374Y-108491761D01*
X142829561Y-108489810D01*
X142824797Y-108487999D01*
X142820083Y-108486328D01*
X142815421Y-108484800D01*
X142810811Y-108483414D01*
X142806254Y-108482171D01*
X142801750Y-108481073D01*
X142797301Y-108480120D01*
X142792908Y-108479312D01*
X142788566Y-108478648D01*
X142784273Y-108478124D01*
X142780028Y-108477740D01*
X142775833Y-108477496D01*
X142771685Y-108477393D01*
X142767587Y-108477430D01*
X142763539Y-108477607D01*
X142759539Y-108477925D01*
X142755590Y-108478382D01*
X142751690Y-108478980D01*
X142747840Y-108479718D01*
X142744040Y-108480597D01*
X142740290Y-108481616D01*
X142736591Y-108482775D01*
X142732943Y-108484074D01*
X142729346Y-108485514D01*
X142722812Y-108488599D01*
X142716705Y-108492153D01*
X142711024Y-108496174D01*
X142705768Y-108500662D01*
X142700936Y-108505618D01*
X142696528Y-108511042D01*
X142692543Y-108516932D01*
X142688980Y-108523289D01*
X142685839Y-108530113D01*
X142683119Y-108537403D01*
X142680820Y-108545160D01*
X142678940Y-108553383D01*
X142677479Y-108562072D01*
X142676436Y-108571227D01*
X142675811Y-108580848D01*
X142675603Y-108590934D01*
X142675603Y-110425963D01*
X142251751Y-110425963D01*
X142235431Y-110356657D01*
X142220537Y-110267536D01*
X142211494Y-110177039D01*
X142208448Y-110085416D01*
X142208448Y-104793749D01*
X142209090Y-104769485D01*
X142211003Y-104745408D01*
X142214166Y-104721564D01*
X142218560Y-104697998D01*
X142224165Y-104674755D01*
X142230960Y-104651880D01*
X142238925Y-104629418D01*
X142248041Y-104607414D01*
X142258288Y-104585914D01*
X142269644Y-104564961D01*
X142282091Y-104544601D01*
X142295608Y-104524880D01*
X142310176Y-104505842D01*
X142325773Y-104487532D01*
X142342381Y-104469995D01*
X142359979Y-104453277D01*
X142378436Y-104437513D01*
X142397604Y-104422818D01*
X142417436Y-104409209D01*
X142437886Y-104396699D01*
X142458906Y-104385306D01*
X142480449Y-104375043D01*
X142502469Y-104365926D01*
X142524918Y-104357970D01*
X142547751Y-104351191D01*
X142570919Y-104345604D01*
X142594377Y-104341224D01*
X142618076Y-104338066D01*
X142641971Y-104336146D01*
X142666015Y-104335479D01*
X142690160Y-104336079D01*
X142714360Y-104337963D01*
X142726320Y-104339376D01*
X142738224Y-104341100D01*
X142750066Y-104343134D01*
X142761841Y-104345475D01*
X142773543Y-104348122D01*
X142785166Y-104351073D01*
X142796704Y-104354326D01*
X142808150Y-104357879D01*
X142819500Y-104361730D01*
X142830747Y-104365877D01*
X142841886Y-104370319D01*
X142852910Y-104375053D01*
X142863814Y-104380077D01*
X142874591Y-104385390D01*
X142885237Y-104390990D01*
X142895744Y-104396874D01*
X147478354Y-107042675D01*
X147556167Y-107091123D01*
X147630008Y-107144201D01*
X147699731Y-107201660D01*
X147765193Y-107263249D01*
X147826248Y-107328717D01*
X147882753Y-107397815D01*
X147934562Y-107470291D01*
X147981532Y-107545896D01*
X148023517Y-107624380D01*
X148060373Y-107705492D01*
X148091956Y-107788981D01*
X148118121Y-107874598D01*
X148138722Y-107962092D01*
X148153617Y-108051212D01*
X148162660Y-108141709D01*
X148165706Y-108233333D01*
X148165706Y-113524999D01*
X148165449Y-113540306D01*
X148164687Y-113555531D01*
X148163425Y-113570662D01*
X148161669Y-113585688D01*
X148159426Y-113600600D01*
X148156702Y-113615387D01*
X148153502Y-113630038D01*
X148149833Y-113644544D01*
X148145700Y-113658893D01*
X148141110Y-113673075D01*
X148136068Y-113687081D01*
X148130582Y-113700898D01*
X148124655Y-113714518D01*
X148118296Y-113727929D01*
X148111509Y-113741121D01*
X148104302Y-113754084D01*
X148096678Y-113766807D01*
X148088646Y-113779280D01*
X148080211Y-113791493D01*
X148071378Y-113803434D01*
X148062154Y-113815094D01*
X148052545Y-113826462D01*
X148042557Y-113837527D01*
X148032196Y-113848280D01*
X148021468Y-113858710D01*
X148010379Y-113868806D01*
X147998934Y-113878558D01*
X147987141Y-113887956D01*
X147975005Y-113896989D01*
X147962532Y-113905646D01*
X147949728Y-113913918D01*
X147936599Y-113921793D01*
X147909650Y-113936182D01*
X147882027Y-113948653D01*
X147853826Y-113959206D01*
X147825142Y-113967842D01*
X147796073Y-113974560D01*
X147766714Y-113979360D01*
X147737163Y-113982242D01*
X147707515Y-113983206D01*
X147677866Y-113982252D01*
X147648314Y-113979381D01*
X147618953Y-113974591D01*
X147589882Y-113967884D01*
X147561196Y-113959258D01*
X147532990Y-113948715D01*
X147505363Y-113936253D01*
X147478410Y-113921874D01*
X143284196Y-111500317D01*
X142895799Y-111276073D01*
X142817987Y-111227625D01*
X142744146Y-111174547D01*
X142674423Y-111117088D01*
X142608961Y-111055500D01*
X142547906Y-110990031D01*
X142491401Y-110920934D01*
X142439591Y-110848457D01*
X142392622Y-110772852D01*
X142350636Y-110694368D01*
X142313780Y-110613257D01*
X142282198Y-110529768D01*
X142256033Y-110444151D01*
X142251751Y-110425963D01*
G37*
G36*
X150715954Y-103410395D02*
G01*
X150745511Y-103413273D01*
X150774876Y-103418070D01*
X150803952Y-103424785D01*
X150832642Y-103433419D01*
X150860850Y-103443972D01*
X150888480Y-103456443D01*
X150915435Y-103470833D01*
X152290250Y-104264583D01*
X152290251Y-104264583D01*
X152298898Y-104269966D01*
X152307103Y-104275863D01*
X152314851Y-104282247D01*
X152322125Y-104289091D01*
X152328909Y-104296365D01*
X152335188Y-104304042D01*
X152340945Y-104312095D01*
X152346165Y-104320496D01*
X152350830Y-104329216D01*
X152354925Y-104338228D01*
X152358435Y-104347505D01*
X152361342Y-104357017D01*
X152363632Y-104366738D01*
X152365287Y-104376640D01*
X152366291Y-104386695D01*
X152366630Y-104396874D01*
X152366545Y-104401978D01*
X152366291Y-104407054D01*
X152365871Y-104412099D01*
X152365287Y-104417109D01*
X152364539Y-104422080D01*
X152363631Y-104427010D01*
X152362565Y-104431895D01*
X152361342Y-104436731D01*
X152359965Y-104441516D01*
X152358435Y-104446244D01*
X152356754Y-104450914D01*
X152354925Y-104455520D01*
X152352950Y-104460061D01*
X152350830Y-104464533D01*
X152348567Y-104468931D01*
X152346164Y-104473253D01*
X152343623Y-104477495D01*
X152340945Y-104481653D01*
X152338132Y-104485725D01*
X152335188Y-104489706D01*
X152332112Y-104493594D01*
X152328909Y-104497384D01*
X152325579Y-104501073D01*
X152322124Y-104504658D01*
X152318547Y-104508135D01*
X152314850Y-104511501D01*
X152311034Y-104514753D01*
X152307102Y-104517886D01*
X152303056Y-104520897D01*
X152298897Y-104523783D01*
X152294628Y-104526541D01*
X152290250Y-104529166D01*
X150915435Y-105322916D01*
X150888480Y-105337306D01*
X150860850Y-105349777D01*
X150832642Y-105360329D01*
X150803952Y-105368963D01*
X150774876Y-105375679D01*
X150745511Y-105380475D01*
X150715954Y-105383353D01*
X150686300Y-105384312D01*
X150656646Y-105383353D01*
X150627088Y-105380475D01*
X150597723Y-105375679D01*
X150568647Y-105368963D01*
X150539957Y-105360329D01*
X150511749Y-105349777D01*
X150484119Y-105337306D01*
X150457164Y-105322916D01*
X149082348Y-104529166D01*
X149073702Y-104523783D01*
X149065496Y-104517886D01*
X149057749Y-104511501D01*
X149050474Y-104504658D01*
X149043690Y-104497384D01*
X149037411Y-104489706D01*
X149031654Y-104481653D01*
X149026435Y-104473253D01*
X149021769Y-104464533D01*
X149017674Y-104455520D01*
X149014164Y-104446244D01*
X149011257Y-104436731D01*
X149008968Y-104427010D01*
X149007313Y-104417109D01*
X149006308Y-104407054D01*
X149005969Y-104396874D01*
X149006054Y-104391771D01*
X149006308Y-104386695D01*
X149006728Y-104381650D01*
X149007313Y-104376640D01*
X149008060Y-104371668D01*
X149008968Y-104366738D01*
X149010034Y-104361854D01*
X149011257Y-104357017D01*
X149012634Y-104352233D01*
X149014164Y-104347505D01*
X149015845Y-104342835D01*
X149017674Y-104338228D01*
X149019649Y-104333687D01*
X149021769Y-104329216D01*
X149024032Y-104324818D01*
X149026435Y-104320496D01*
X149028976Y-104316254D01*
X149031654Y-104312095D01*
X149034466Y-104308024D01*
X149037411Y-104304042D01*
X149040486Y-104300155D01*
X149043690Y-104296365D01*
X149047020Y-104292675D01*
X149050474Y-104289091D01*
X149054051Y-104285613D01*
X149057749Y-104282247D01*
X149061564Y-104278996D01*
X149065496Y-104275863D01*
X149069543Y-104272852D01*
X149073702Y-104269966D01*
X149077971Y-104267208D01*
X149082348Y-104264583D01*
X150457164Y-103470833D01*
X150484119Y-103456443D01*
X150511749Y-103443972D01*
X150539957Y-103433419D01*
X150568647Y-103424785D01*
X150597723Y-103418070D01*
X150627088Y-103413273D01*
X150656646Y-103410395D01*
X150686300Y-103409436D01*
X150715954Y-103410395D01*
G37*
G36*
X150715954Y-101029146D02*
G01*
X150745511Y-101032024D01*
X150774876Y-101036820D01*
X150803952Y-101043536D01*
X150832642Y-101052169D01*
X150860850Y-101062722D01*
X150888480Y-101075193D01*
X150915435Y-101089583D01*
X152290251Y-101883333D01*
X152298898Y-101888716D01*
X152307103Y-101894613D01*
X152314851Y-101900998D01*
X152322125Y-101907841D01*
X152328909Y-101915115D01*
X152335188Y-101922792D01*
X152340945Y-101930845D01*
X152346165Y-101939246D01*
X152350830Y-101947966D01*
X152354925Y-101956978D01*
X152358435Y-101966255D01*
X152361342Y-101975767D01*
X152363632Y-101985489D01*
X152365287Y-101995390D01*
X152366291Y-102005445D01*
X152366630Y-102015625D01*
X152366545Y-102020728D01*
X152366291Y-102025804D01*
X152365871Y-102030849D01*
X152365287Y-102035859D01*
X152364539Y-102040830D01*
X152363631Y-102045760D01*
X152362565Y-102050645D01*
X152361342Y-102055482D01*
X152359965Y-102060266D01*
X152358435Y-102064994D01*
X152356754Y-102069664D01*
X152354925Y-102074271D01*
X152352950Y-102078811D01*
X152350830Y-102083283D01*
X152348567Y-102087681D01*
X152346164Y-102092003D01*
X152343623Y-102096245D01*
X152340945Y-102100404D01*
X152338132Y-102104475D01*
X152335188Y-102108457D01*
X152332112Y-102112344D01*
X152328909Y-102116134D01*
X152325579Y-102119823D01*
X152322124Y-102123408D01*
X152318547Y-102126885D01*
X152314850Y-102130251D01*
X152311034Y-102133503D01*
X152307102Y-102136636D01*
X152303056Y-102139647D01*
X152298897Y-102142533D01*
X152294628Y-102145291D01*
X152290250Y-102147916D01*
X150915435Y-102941666D01*
X150888480Y-102956056D01*
X150860850Y-102968527D01*
X150832642Y-102979080D01*
X150803952Y-102987714D01*
X150774876Y-102994429D01*
X150745511Y-102999226D01*
X150715953Y-103002104D01*
X150686299Y-103003063D01*
X150656645Y-103002104D01*
X150627087Y-102999226D01*
X150597722Y-102994429D01*
X150568647Y-102987714D01*
X150539957Y-102979080D01*
X150511748Y-102968527D01*
X150484118Y-102956056D01*
X150457163Y-102941666D01*
X149082347Y-102147916D01*
X149073701Y-102142533D01*
X149065495Y-102136636D01*
X149057748Y-102130251D01*
X149050474Y-102123408D01*
X149043689Y-102116134D01*
X149037410Y-102108457D01*
X149031653Y-102100404D01*
X149026434Y-102092003D01*
X149021768Y-102083283D01*
X149017673Y-102074271D01*
X149014163Y-102064994D01*
X149011256Y-102055482D01*
X149008967Y-102045760D01*
X149007312Y-102035859D01*
X149006307Y-102025804D01*
X149005968Y-102015625D01*
X149006053Y-102010521D01*
X149006307Y-102005445D01*
X149006727Y-102000400D01*
X149007312Y-101995390D01*
X149008059Y-101990419D01*
X149008967Y-101985489D01*
X149010033Y-101980604D01*
X149011256Y-101975767D01*
X149012634Y-101970983D01*
X149014163Y-101966255D01*
X149015844Y-101961585D01*
X149017673Y-101956978D01*
X149019648Y-101952438D01*
X149021768Y-101947966D01*
X149024031Y-101943568D01*
X149026434Y-101939246D01*
X149028975Y-101935004D01*
X149031653Y-101930845D01*
X149034465Y-101926774D01*
X149037410Y-101922792D01*
X149040485Y-101918905D01*
X149043689Y-101915115D01*
X149047019Y-101911426D01*
X149050474Y-101907841D01*
X149054050Y-101904363D01*
X149057748Y-101900998D01*
X149061563Y-101897746D01*
X149065495Y-101894613D01*
X149069542Y-101891602D01*
X149073701Y-101888716D01*
X149077970Y-101885958D01*
X149082347Y-101883333D01*
X150457163Y-101089583D01*
X150457164Y-101089583D01*
X150484119Y-101075193D01*
X150511749Y-101062722D01*
X150539957Y-101052169D01*
X150568647Y-101043536D01*
X150597723Y-101036820D01*
X150627088Y-101032024D01*
X150656646Y-101029146D01*
X150686300Y-101028186D01*
X150715954Y-101029146D01*
G37*
G36*
X148653731Y-99838521D02*
G01*
X148683289Y-99841399D01*
X148712654Y-99846195D01*
X148741730Y-99852910D01*
X148770420Y-99861544D01*
X148798628Y-99872097D01*
X148826258Y-99884568D01*
X148853213Y-99898958D01*
X150228029Y-100692708D01*
X150236675Y-100698091D01*
X150244880Y-100703988D01*
X150252628Y-100710373D01*
X150259902Y-100717216D01*
X150266687Y-100724490D01*
X150272966Y-100732167D01*
X150278723Y-100740220D01*
X150283942Y-100748621D01*
X150288607Y-100757341D01*
X150292703Y-100766353D01*
X150296212Y-100775630D01*
X150299120Y-100785142D01*
X150301409Y-100794864D01*
X150303064Y-100804765D01*
X150304069Y-100814820D01*
X150304407Y-100825000D01*
X150304322Y-100830103D01*
X150304069Y-100835179D01*
X150303649Y-100840224D01*
X150303064Y-100845234D01*
X150302317Y-100850205D01*
X150301409Y-100855135D01*
X150300343Y-100860020D01*
X150299120Y-100864857D01*
X150297742Y-100869641D01*
X150296212Y-100874369D01*
X150294532Y-100879039D01*
X150292703Y-100883646D01*
X150290727Y-100888186D01*
X150288607Y-100892658D01*
X150286345Y-100897056D01*
X150283942Y-100901378D01*
X150281400Y-100905620D01*
X150278722Y-100909779D01*
X150275910Y-100913850D01*
X150272965Y-100917832D01*
X150269890Y-100921719D01*
X150266686Y-100925509D01*
X150263356Y-100929198D01*
X150259902Y-100932783D01*
X150256325Y-100936260D01*
X150252627Y-100939626D01*
X150248812Y-100942878D01*
X150244880Y-100946011D01*
X150240833Y-100949022D01*
X150236674Y-100951908D01*
X150232405Y-100954666D01*
X150228028Y-100957291D01*
X148853212Y-101751041D01*
X148826257Y-101765431D01*
X148798627Y-101777902D01*
X148770418Y-101788455D01*
X148741728Y-101797089D01*
X148712652Y-101803804D01*
X148683288Y-101808601D01*
X148653730Y-101811479D01*
X148624076Y-101812438D01*
X148594422Y-101811479D01*
X148564864Y-101808601D01*
X148535499Y-101803804D01*
X148506424Y-101797089D01*
X148477734Y-101788455D01*
X148449525Y-101777902D01*
X148421896Y-101765431D01*
X148394941Y-101751041D01*
X147020125Y-100957291D01*
X147020126Y-100957291D01*
X147011479Y-100951908D01*
X147003274Y-100946011D01*
X146995526Y-100939626D01*
X146988252Y-100932783D01*
X146981468Y-100925509D01*
X146975189Y-100917832D01*
X146969432Y-100909779D01*
X146964213Y-100901378D01*
X146959547Y-100892658D01*
X146955452Y-100883646D01*
X146951942Y-100874369D01*
X146949035Y-100864857D01*
X146946745Y-100855135D01*
X146945090Y-100845234D01*
X146944085Y-100835179D01*
X146943747Y-100825000D01*
X146943832Y-100819896D01*
X146944085Y-100814820D01*
X146944506Y-100809775D01*
X146945090Y-100804765D01*
X146945838Y-100799794D01*
X146946745Y-100794864D01*
X146947812Y-100789979D01*
X146949035Y-100785142D01*
X146950412Y-100780358D01*
X146951942Y-100775630D01*
X146953623Y-100770960D01*
X146955452Y-100766353D01*
X146957427Y-100761813D01*
X146959547Y-100757341D01*
X146961810Y-100752943D01*
X146964213Y-100748621D01*
X146966754Y-100744379D01*
X146969432Y-100740220D01*
X146972244Y-100736149D01*
X146975189Y-100732167D01*
X146978264Y-100728280D01*
X146981468Y-100724490D01*
X146984798Y-100720801D01*
X146988252Y-100717216D01*
X146991829Y-100713739D01*
X146995526Y-100710373D01*
X146999342Y-100707121D01*
X147003274Y-100703988D01*
X147007320Y-100700977D01*
X147011479Y-100698091D01*
X147015748Y-100695333D01*
X147020126Y-100692708D01*
X148394942Y-99898958D01*
X148421897Y-99884568D01*
X148449526Y-99872097D01*
X148477735Y-99861544D01*
X148506425Y-99852910D01*
X148535501Y-99846195D01*
X148564865Y-99841399D01*
X148594423Y-99838521D01*
X148624077Y-99837561D01*
X148653731Y-99838521D01*
G37*
G36*
X148653730Y-102219770D02*
G01*
X148683288Y-102222648D01*
X148712652Y-102227445D01*
X148741728Y-102234160D01*
X148770418Y-102242794D01*
X148798627Y-102253347D01*
X148826257Y-102265818D01*
X148853212Y-102280208D01*
X150228028Y-103073958D01*
X150232405Y-103076583D01*
X150236674Y-103079341D01*
X150240833Y-103082227D01*
X150244880Y-103085238D01*
X150248812Y-103088371D01*
X150252627Y-103091623D01*
X150256325Y-103094989D01*
X150259902Y-103098466D01*
X150263356Y-103102051D01*
X150266686Y-103105740D01*
X150269890Y-103109530D01*
X150272965Y-103113417D01*
X150275910Y-103117399D01*
X150278722Y-103121470D01*
X150281400Y-103125629D01*
X150283942Y-103129871D01*
X150286345Y-103134193D01*
X150288607Y-103138591D01*
X150290727Y-103143062D01*
X150292703Y-103147603D01*
X150294532Y-103152210D01*
X150296212Y-103156880D01*
X150297742Y-103161608D01*
X150299120Y-103166392D01*
X150300343Y-103171228D01*
X150301409Y-103176113D01*
X150302317Y-103181043D01*
X150303064Y-103186015D01*
X150303649Y-103191025D01*
X150304069Y-103196070D01*
X150304322Y-103201146D01*
X150304407Y-103206249D01*
X150304069Y-103216429D01*
X150303064Y-103226484D01*
X150301409Y-103236385D01*
X150299120Y-103246107D01*
X150296212Y-103255619D01*
X150292703Y-103264896D01*
X150288607Y-103273908D01*
X150283942Y-103282628D01*
X150278722Y-103291029D01*
X150272965Y-103299082D01*
X150266686Y-103306759D01*
X150259902Y-103314033D01*
X150252627Y-103320876D01*
X150244880Y-103327261D01*
X150236674Y-103333158D01*
X150228028Y-103338541D01*
X148853213Y-104132291D01*
X148826258Y-104146681D01*
X148798628Y-104159152D01*
X148770420Y-104169705D01*
X148741730Y-104178338D01*
X148712654Y-104185054D01*
X148683289Y-104189850D01*
X148653731Y-104192728D01*
X148624077Y-104193688D01*
X148594423Y-104192728D01*
X148564865Y-104189850D01*
X148535501Y-104185054D01*
X148506425Y-104178338D01*
X148477735Y-104169705D01*
X148449526Y-104159152D01*
X148421897Y-104146681D01*
X148394942Y-104132291D01*
X147020126Y-103338541D01*
X147015748Y-103335916D01*
X147011479Y-103333158D01*
X147007320Y-103330272D01*
X147003274Y-103327261D01*
X146999342Y-103324128D01*
X146995526Y-103320876D01*
X146991829Y-103317510D01*
X146988252Y-103314033D01*
X146984798Y-103310448D01*
X146981468Y-103306759D01*
X146978264Y-103302969D01*
X146975189Y-103299082D01*
X146972244Y-103295100D01*
X146969432Y-103291029D01*
X146966754Y-103286870D01*
X146964213Y-103282628D01*
X146961810Y-103278306D01*
X146959547Y-103273908D01*
X146957427Y-103269436D01*
X146955452Y-103264896D01*
X146953623Y-103260289D01*
X146951942Y-103255619D01*
X146950412Y-103250891D01*
X146949035Y-103246107D01*
X146947812Y-103241270D01*
X146946745Y-103236385D01*
X146945838Y-103231455D01*
X146945090Y-103226484D01*
X146944506Y-103221474D01*
X146944085Y-103216429D01*
X146943832Y-103211353D01*
X146943747Y-103206249D01*
X146944085Y-103196070D01*
X146945090Y-103186015D01*
X146946745Y-103176113D01*
X146949035Y-103166392D01*
X146951942Y-103156880D01*
X146955452Y-103147603D01*
X146959547Y-103138591D01*
X146964213Y-103129871D01*
X146969432Y-103121470D01*
X146975189Y-103113417D01*
X146981468Y-103105740D01*
X146988252Y-103098466D01*
X146995526Y-103091623D01*
X147003274Y-103085238D01*
X147011479Y-103079341D01*
X147020126Y-103073958D01*
X147020125Y-103073958D01*
X148394941Y-102280208D01*
X148421896Y-102265818D01*
X148449525Y-102253347D01*
X148477734Y-102242794D01*
X148506424Y-102234160D01*
X148535499Y-102227445D01*
X148564864Y-102222648D01*
X148594422Y-102219770D01*
X148624076Y-102218811D01*
X148653730Y-102219770D01*
G37*
G36*
X152778177Y-102219771D02*
G01*
X152807734Y-102222648D01*
X152837099Y-102227445D01*
X152866175Y-102234160D01*
X152894865Y-102242794D01*
X152923073Y-102253347D01*
X152950703Y-102265818D01*
X152977658Y-102280208D01*
X154352473Y-103073958D01*
X154356850Y-103076583D01*
X154361119Y-103079341D01*
X154365278Y-103082227D01*
X154369325Y-103085238D01*
X154373257Y-103088371D01*
X154377072Y-103091623D01*
X154380770Y-103094989D01*
X154384347Y-103098466D01*
X154387801Y-103102051D01*
X154391131Y-103105740D01*
X154394335Y-103109530D01*
X154397410Y-103113417D01*
X154400355Y-103117399D01*
X154403167Y-103121470D01*
X154405845Y-103125629D01*
X154408387Y-103129871D01*
X154410790Y-103134193D01*
X154413052Y-103138591D01*
X154415172Y-103143062D01*
X154417148Y-103147603D01*
X154418977Y-103152210D01*
X154420657Y-103156880D01*
X154422187Y-103161608D01*
X154423565Y-103166392D01*
X154424788Y-103171228D01*
X154425854Y-103176113D01*
X154426762Y-103181043D01*
X154427509Y-103186015D01*
X154428094Y-103191025D01*
X154428514Y-103196070D01*
X154428767Y-103201146D01*
X154428852Y-103206249D01*
X154428514Y-103216429D01*
X154427509Y-103226484D01*
X154425854Y-103236385D01*
X154423565Y-103246107D01*
X154420657Y-103255619D01*
X154417148Y-103264896D01*
X154413052Y-103273908D01*
X154408387Y-103282628D01*
X154403167Y-103291029D01*
X154397410Y-103299082D01*
X154391131Y-103306759D01*
X154384347Y-103314033D01*
X154377072Y-103320876D01*
X154369325Y-103327261D01*
X154361119Y-103333158D01*
X154352473Y-103338541D01*
X152977658Y-104132291D01*
X152950703Y-104146681D01*
X152923073Y-104159152D01*
X152894865Y-104169705D01*
X152866175Y-104178338D01*
X152837099Y-104185054D01*
X152807734Y-104189850D01*
X152778177Y-104192728D01*
X152748522Y-104193688D01*
X152718868Y-104192728D01*
X152689311Y-104189850D01*
X152659946Y-104185054D01*
X152630870Y-104178338D01*
X152602180Y-104169705D01*
X152573971Y-104159152D01*
X152546342Y-104146681D01*
X152519387Y-104132291D01*
X151144572Y-103338541D01*
X151140194Y-103335916D01*
X151135925Y-103333158D01*
X151131766Y-103330272D01*
X151127720Y-103327261D01*
X151123788Y-103324128D01*
X151119972Y-103320876D01*
X151116275Y-103317510D01*
X151112698Y-103314033D01*
X151109244Y-103310448D01*
X151105914Y-103306759D01*
X151102710Y-103302969D01*
X151099635Y-103299082D01*
X151096690Y-103295100D01*
X151093878Y-103291029D01*
X151091200Y-103286870D01*
X151088659Y-103282628D01*
X151086256Y-103278306D01*
X151083993Y-103273908D01*
X151081873Y-103269436D01*
X151079898Y-103264896D01*
X151078069Y-103260289D01*
X151076388Y-103255619D01*
X151074858Y-103250891D01*
X151073481Y-103246107D01*
X151072258Y-103241270D01*
X151071191Y-103236385D01*
X151070283Y-103231455D01*
X151069536Y-103226484D01*
X151068951Y-103221474D01*
X151068531Y-103216429D01*
X151068278Y-103211353D01*
X151068193Y-103206249D01*
X151068531Y-103196070D01*
X151069536Y-103186015D01*
X151071191Y-103176113D01*
X151073481Y-103166392D01*
X151076388Y-103156880D01*
X151079898Y-103147603D01*
X151083993Y-103138591D01*
X151088659Y-103129871D01*
X151093878Y-103121470D01*
X151099635Y-103113417D01*
X151105914Y-103105740D01*
X151112698Y-103098466D01*
X151119972Y-103091623D01*
X151127720Y-103085238D01*
X151135925Y-103079341D01*
X151144572Y-103073958D01*
X152519387Y-102280208D01*
X152546342Y-102265818D01*
X152573971Y-102253347D01*
X152602180Y-102242794D01*
X152630870Y-102234160D01*
X152659946Y-102227445D01*
X152689311Y-102222648D01*
X152718868Y-102219771D01*
X152748522Y-102218811D01*
X152778177Y-102219771D01*
G37*
G36*
X148653730Y-104601020D02*
G01*
X148683288Y-104603898D01*
X148712653Y-104608695D01*
X148741729Y-104615410D01*
X148770419Y-104624044D01*
X148798627Y-104634597D01*
X148826257Y-104647068D01*
X148853212Y-104661458D01*
X150228028Y-105455208D01*
X150236674Y-105460591D01*
X150244880Y-105466488D01*
X150252627Y-105472872D01*
X150259901Y-105479716D01*
X150266686Y-105486990D01*
X150272964Y-105494667D01*
X150278721Y-105502720D01*
X150283941Y-105511121D01*
X150288606Y-105519841D01*
X150292701Y-105528853D01*
X150296211Y-105538129D01*
X150299118Y-105547642D01*
X150301407Y-105557363D01*
X150303062Y-105567265D01*
X150304067Y-105577320D01*
X150304406Y-105587499D01*
X150304321Y-105592603D01*
X150304067Y-105597679D01*
X150303647Y-105602723D01*
X150303062Y-105607733D01*
X150302315Y-105612705D01*
X150301407Y-105617635D01*
X150300341Y-105622520D01*
X150299118Y-105627356D01*
X150297740Y-105632141D01*
X150296210Y-105636869D01*
X150294530Y-105641539D01*
X150292701Y-105646145D01*
X150290726Y-105650686D01*
X150288606Y-105655158D01*
X150286343Y-105659556D01*
X150283940Y-105663878D01*
X150281399Y-105668120D01*
X150278721Y-105672279D01*
X150275909Y-105676350D01*
X150272964Y-105680331D01*
X150269889Y-105684219D01*
X150266685Y-105688009D01*
X150263355Y-105691698D01*
X150259900Y-105695283D01*
X150256324Y-105698760D01*
X150252626Y-105702126D01*
X150248811Y-105705377D01*
X150244879Y-105708510D01*
X150240832Y-105711522D01*
X150236673Y-105714408D01*
X150232404Y-105717166D01*
X150228027Y-105719791D01*
X148853212Y-106513541D01*
X148826257Y-106527931D01*
X148798627Y-106540402D01*
X148770419Y-106550954D01*
X148741729Y-106559588D01*
X148712653Y-106566304D01*
X148683288Y-106571100D01*
X148653730Y-106573978D01*
X148624076Y-106574938D01*
X148594422Y-106573978D01*
X148564864Y-106571100D01*
X148535499Y-106566304D01*
X148506423Y-106559588D01*
X148477733Y-106550954D01*
X148449525Y-106540402D01*
X148421895Y-106527931D01*
X148394940Y-106513541D01*
X147020125Y-105719791D01*
X147011478Y-105714408D01*
X147003273Y-105708510D01*
X146995526Y-105702126D01*
X146988251Y-105695283D01*
X146981467Y-105688009D01*
X146975188Y-105680331D01*
X146969431Y-105672279D01*
X146964212Y-105663878D01*
X146959546Y-105655158D01*
X146955451Y-105646145D01*
X146951941Y-105636869D01*
X146949034Y-105627356D01*
X146946744Y-105617635D01*
X146945089Y-105607733D01*
X146944084Y-105597679D01*
X146943746Y-105587499D01*
X146943831Y-105582395D01*
X146944084Y-105577320D01*
X146944505Y-105572275D01*
X146945089Y-105567265D01*
X146945837Y-105562293D01*
X146946744Y-105557363D01*
X146947811Y-105552478D01*
X146949034Y-105547642D01*
X146950411Y-105542858D01*
X146951941Y-105538129D01*
X146953622Y-105533460D01*
X146955451Y-105528853D01*
X146957426Y-105524312D01*
X146959546Y-105519841D01*
X146961809Y-105515443D01*
X146964212Y-105511121D01*
X146966753Y-105506879D01*
X146969431Y-105502720D01*
X146972243Y-105498649D01*
X146975188Y-105494667D01*
X146978263Y-105490780D01*
X146981467Y-105486990D01*
X146984797Y-105483301D01*
X146988251Y-105479716D01*
X146991828Y-105476238D01*
X146995526Y-105472872D01*
X146999341Y-105469621D01*
X147003273Y-105466488D01*
X147007320Y-105463477D01*
X147011478Y-105460591D01*
X147015747Y-105457833D01*
X147020125Y-105455208D01*
X148394941Y-104661458D01*
X148421896Y-104647068D01*
X148449526Y-104634597D01*
X148477734Y-104624044D01*
X148506424Y-104615410D01*
X148535500Y-104608695D01*
X148564864Y-104603898D01*
X148594422Y-104601020D01*
X148624076Y-104600061D01*
X148653730Y-104601020D01*
G37*
G36*
X146591508Y-103410395D02*
G01*
X146621065Y-103413273D01*
X146650430Y-103418070D01*
X146679506Y-103424785D01*
X146708196Y-103433419D01*
X146736404Y-103443972D01*
X146764034Y-103456443D01*
X146790989Y-103470833D01*
X148165804Y-104264583D01*
X148174451Y-104269966D01*
X148182656Y-104275863D01*
X148190404Y-104282247D01*
X148197678Y-104289091D01*
X148204462Y-104296365D01*
X148210741Y-104304042D01*
X148216498Y-104312095D01*
X148221718Y-104320496D01*
X148226383Y-104329216D01*
X148230479Y-104338228D01*
X148233988Y-104347505D01*
X148236895Y-104357017D01*
X148239185Y-104366738D01*
X148240840Y-104376640D01*
X148241845Y-104386695D01*
X148242183Y-104396874D01*
X148242098Y-104401978D01*
X148241845Y-104407054D01*
X148241424Y-104412099D01*
X148240840Y-104417109D01*
X148240092Y-104422080D01*
X148239185Y-104427010D01*
X148238118Y-104431895D01*
X148236895Y-104436731D01*
X148235518Y-104441516D01*
X148233988Y-104446244D01*
X148232308Y-104450914D01*
X148230479Y-104455520D01*
X148228503Y-104460061D01*
X148226383Y-104464533D01*
X148224121Y-104468931D01*
X148221718Y-104473253D01*
X148219176Y-104477495D01*
X148216498Y-104481653D01*
X148213686Y-104485725D01*
X148210741Y-104489706D01*
X148207666Y-104493594D01*
X148204462Y-104497384D01*
X148201132Y-104501073D01*
X148197678Y-104504658D01*
X148194101Y-104508135D01*
X148190404Y-104511501D01*
X148186588Y-104514753D01*
X148182656Y-104517886D01*
X148178610Y-104520897D01*
X148174451Y-104523783D01*
X148170182Y-104526541D01*
X148165804Y-104529166D01*
X146790989Y-105322916D01*
X146764034Y-105337306D01*
X146736404Y-105349777D01*
X146708196Y-105360329D01*
X146679506Y-105368963D01*
X146650430Y-105375679D01*
X146621065Y-105380475D01*
X146591508Y-105383353D01*
X146561854Y-105384312D01*
X146532199Y-105383353D01*
X146502642Y-105380475D01*
X146473277Y-105375679D01*
X146444201Y-105368963D01*
X146415511Y-105360329D01*
X146387303Y-105349777D01*
X146359673Y-105337306D01*
X146332718Y-105322916D01*
X144957902Y-104529166D01*
X144949255Y-104523783D01*
X144941050Y-104517886D01*
X144933303Y-104511501D01*
X144926029Y-104504658D01*
X144919244Y-104497384D01*
X144912965Y-104489706D01*
X144907208Y-104481653D01*
X144901989Y-104473253D01*
X144897324Y-104464533D01*
X144893228Y-104455520D01*
X144889719Y-104446244D01*
X144886811Y-104436731D01*
X144884522Y-104427010D01*
X144882867Y-104417109D01*
X144881862Y-104407054D01*
X144881523Y-104396874D01*
X144881608Y-104391771D01*
X144881862Y-104386695D01*
X144882282Y-104381650D01*
X144882867Y-104376640D01*
X144883614Y-104371668D01*
X144884522Y-104366738D01*
X144885588Y-104361854D01*
X144886811Y-104357017D01*
X144888189Y-104352233D01*
X144889719Y-104347505D01*
X144891399Y-104342835D01*
X144893228Y-104338228D01*
X144895204Y-104333687D01*
X144897324Y-104329216D01*
X144899586Y-104324818D01*
X144901989Y-104320496D01*
X144904530Y-104316254D01*
X144907208Y-104312095D01*
X144910021Y-104308024D01*
X144912965Y-104304042D01*
X144916040Y-104300155D01*
X144919244Y-104296365D01*
X144922574Y-104292675D01*
X144926029Y-104289091D01*
X144929605Y-104285613D01*
X144933303Y-104282247D01*
X144937118Y-104278996D01*
X144941050Y-104275863D01*
X144945097Y-104272852D01*
X144949255Y-104269966D01*
X144953524Y-104267208D01*
X144957902Y-104264583D01*
X146332718Y-103470833D01*
X146359673Y-103456443D01*
X146387303Y-103443972D01*
X146415511Y-103433419D01*
X146444201Y-103424785D01*
X146473277Y-103418070D01*
X146502642Y-103413273D01*
X146532200Y-103410395D01*
X146561854Y-103409436D01*
X146591508Y-103410395D01*
G37*
G36*
X146591508Y-101029146D02*
G01*
X146621065Y-101032024D01*
X146650430Y-101036820D01*
X146679506Y-101043535D01*
X146708196Y-101052169D01*
X146736404Y-101062722D01*
X146764034Y-101075193D01*
X146790989Y-101089583D01*
X148165804Y-101883333D01*
X148174451Y-101888716D01*
X148182656Y-101894613D01*
X148190404Y-101900997D01*
X148197678Y-101907841D01*
X148204462Y-101915115D01*
X148210741Y-101922792D01*
X148216498Y-101930845D01*
X148221718Y-101939246D01*
X148226383Y-101947966D01*
X148230479Y-101956978D01*
X148233988Y-101966255D01*
X148236895Y-101975767D01*
X148239185Y-101985489D01*
X148240840Y-101995390D01*
X148241845Y-102005445D01*
X148242183Y-102015625D01*
X148242098Y-102020728D01*
X148241845Y-102025804D01*
X148241424Y-102030849D01*
X148240840Y-102035859D01*
X148240092Y-102040830D01*
X148239185Y-102045760D01*
X148238118Y-102050645D01*
X148236895Y-102055482D01*
X148235518Y-102060266D01*
X148233988Y-102064994D01*
X148232308Y-102069664D01*
X148230479Y-102074271D01*
X148228503Y-102078812D01*
X148226383Y-102083283D01*
X148224121Y-102087681D01*
X148221718Y-102092003D01*
X148219176Y-102096245D01*
X148216498Y-102100404D01*
X148213686Y-102104475D01*
X148210741Y-102108457D01*
X148207666Y-102112344D01*
X148204462Y-102116134D01*
X148201132Y-102119823D01*
X148197678Y-102123408D01*
X148194101Y-102126885D01*
X148190404Y-102130251D01*
X148186588Y-102133503D01*
X148182656Y-102136636D01*
X148178610Y-102139647D01*
X148174451Y-102142533D01*
X148170182Y-102145291D01*
X148165804Y-102147916D01*
X146790989Y-102941666D01*
X146764034Y-102956056D01*
X146736404Y-102968527D01*
X146708196Y-102979080D01*
X146679506Y-102987714D01*
X146650430Y-102994429D01*
X146621065Y-102999226D01*
X146591508Y-103002104D01*
X146561854Y-103003063D01*
X146532199Y-103002104D01*
X146502642Y-102999226D01*
X146473277Y-102994429D01*
X146444201Y-102987714D01*
X146415511Y-102979080D01*
X146387303Y-102968527D01*
X146359673Y-102956056D01*
X146332718Y-102941666D01*
X144957902Y-102147916D01*
X144949255Y-102142533D01*
X144941050Y-102136636D01*
X144933303Y-102130251D01*
X144926029Y-102123408D01*
X144919244Y-102116134D01*
X144912965Y-102108457D01*
X144907208Y-102100404D01*
X144901989Y-102092003D01*
X144897324Y-102083283D01*
X144893228Y-102074271D01*
X144889719Y-102064994D01*
X144886811Y-102055482D01*
X144884522Y-102045760D01*
X144882867Y-102035859D01*
X144881862Y-102025804D01*
X144881523Y-102015625D01*
X144881608Y-102010521D01*
X144881862Y-102005445D01*
X144882282Y-102000400D01*
X144882867Y-101995390D01*
X144883614Y-101990419D01*
X144884522Y-101985489D01*
X144885588Y-101980604D01*
X144886811Y-101975767D01*
X144888189Y-101970983D01*
X144889719Y-101966255D01*
X144891399Y-101961585D01*
X144893228Y-101956978D01*
X144895204Y-101952438D01*
X144897324Y-101947966D01*
X144899586Y-101943568D01*
X144901989Y-101939246D01*
X144904530Y-101935004D01*
X144907208Y-101930845D01*
X144910021Y-101926774D01*
X144912965Y-101922792D01*
X144916040Y-101918905D01*
X144919244Y-101915115D01*
X144922574Y-101911426D01*
X144926029Y-101907841D01*
X144929605Y-101904364D01*
X144933303Y-101900998D01*
X144937118Y-101897746D01*
X144941050Y-101894613D01*
X144945097Y-101891602D01*
X144949255Y-101888716D01*
X144953524Y-101885958D01*
X144957902Y-101883333D01*
X146332718Y-101089583D01*
X146359673Y-101075193D01*
X146387303Y-101062722D01*
X146415511Y-101052169D01*
X146444201Y-101043535D01*
X146473277Y-101036820D01*
X146502642Y-101032024D01*
X146532200Y-101029146D01*
X146561854Y-101028186D01*
X146591508Y-101029146D01*
G37*
G36*
X144529285Y-102219771D02*
G01*
X144558843Y-102222648D01*
X144588207Y-102227445D01*
X144617283Y-102234160D01*
X144645973Y-102242794D01*
X144674181Y-102253347D01*
X144701811Y-102265818D01*
X144728766Y-102280208D01*
X146103582Y-103073958D01*
X146107960Y-103076583D01*
X146112229Y-103079341D01*
X146116387Y-103082227D01*
X146120434Y-103085238D01*
X146124366Y-103088371D01*
X146128181Y-103091623D01*
X146131879Y-103094989D01*
X146135455Y-103098466D01*
X146138910Y-103102051D01*
X146142240Y-103105740D01*
X146145444Y-103109530D01*
X146148519Y-103113417D01*
X146151464Y-103117399D01*
X146154276Y-103121470D01*
X146156954Y-103125629D01*
X146159495Y-103129871D01*
X146161898Y-103134193D01*
X146164160Y-103138591D01*
X146166280Y-103143062D01*
X146168256Y-103147603D01*
X146170085Y-103152210D01*
X146171765Y-103156880D01*
X146173295Y-103161608D01*
X146174673Y-103166392D01*
X146175896Y-103171228D01*
X146176962Y-103176113D01*
X146177870Y-103181043D01*
X146178617Y-103186015D01*
X146179202Y-103191025D01*
X146179622Y-103196070D01*
X146179876Y-103201146D01*
X146179961Y-103206249D01*
X146179622Y-103216429D01*
X146178617Y-103226484D01*
X146176962Y-103236385D01*
X146174673Y-103246107D01*
X146171765Y-103255619D01*
X146168256Y-103264896D01*
X146164160Y-103273908D01*
X146159495Y-103282628D01*
X146154276Y-103291029D01*
X146148519Y-103299082D01*
X146142240Y-103306759D01*
X146135455Y-103314033D01*
X146128181Y-103320876D01*
X146120434Y-103327261D01*
X146112229Y-103333158D01*
X146103582Y-103338541D01*
X144728766Y-104132291D01*
X144701811Y-104146681D01*
X144674182Y-104159152D01*
X144645973Y-104169705D01*
X144617283Y-104178338D01*
X144588208Y-104185054D01*
X144558843Y-104189850D01*
X144529285Y-104192728D01*
X144499631Y-104193688D01*
X144469977Y-104192728D01*
X144440419Y-104189850D01*
X144411054Y-104185054D01*
X144381978Y-104178338D01*
X144353288Y-104169705D01*
X144325080Y-104159152D01*
X144297450Y-104146681D01*
X144270495Y-104132291D01*
X142895679Y-103338541D01*
X142891302Y-103335916D01*
X142887033Y-103333158D01*
X142882874Y-103330272D01*
X142878828Y-103327261D01*
X142874896Y-103324128D01*
X142871080Y-103320876D01*
X142867383Y-103317510D01*
X142863806Y-103314033D01*
X142860352Y-103310448D01*
X142857022Y-103306759D01*
X142853818Y-103302969D01*
X142850743Y-103299082D01*
X142847798Y-103295100D01*
X142844986Y-103291029D01*
X142842308Y-103286870D01*
X142839766Y-103282628D01*
X142837363Y-103278306D01*
X142835101Y-103273908D01*
X142832981Y-103269436D01*
X142831005Y-103264896D01*
X142829176Y-103260289D01*
X142827496Y-103255619D01*
X142825966Y-103250891D01*
X142824589Y-103246107D01*
X142823366Y-103241270D01*
X142822299Y-103236385D01*
X142821391Y-103231455D01*
X142820644Y-103226484D01*
X142820059Y-103221474D01*
X142819639Y-103216429D01*
X142819386Y-103211353D01*
X142819301Y-103206249D01*
X142819639Y-103196070D01*
X142820644Y-103186015D01*
X142822299Y-103176113D01*
X142824589Y-103166392D01*
X142827496Y-103156880D01*
X142831005Y-103147603D01*
X142835101Y-103138591D01*
X142839766Y-103129871D01*
X142844986Y-103121470D01*
X142850743Y-103113417D01*
X142857022Y-103105740D01*
X142863806Y-103098466D01*
X142871080Y-103091623D01*
X142878828Y-103085238D01*
X142887033Y-103079341D01*
X142895679Y-103073958D01*
X144270495Y-102280208D01*
X144297450Y-102265818D01*
X144325080Y-102253347D01*
X144353288Y-102242794D01*
X144381978Y-102234160D01*
X144411054Y-102227445D01*
X144440419Y-102222648D01*
X144469977Y-102219771D01*
X144499631Y-102218811D01*
X144529285Y-102219771D01*
G37*
G36*
X143592859Y-109292183D02*
G01*
X143600391Y-109296730D01*
X143607906Y-109301665D01*
X143615401Y-109306986D01*
X143622877Y-109312694D01*
X143630333Y-109318786D01*
X143637766Y-109325263D01*
X143645177Y-109332124D01*
X143652564Y-109339369D01*
X143659926Y-109346996D01*
X143667263Y-109355004D01*
X143674572Y-109363394D01*
X143681854Y-109372165D01*
X143689107Y-109381315D01*
X143696329Y-109390844D01*
X143703521Y-109400753D01*
X143710682Y-109411038D01*
X143724664Y-109431514D01*
X143738040Y-109452631D01*
X143750813Y-109474393D01*
X143762986Y-109496801D01*
X143774564Y-109519857D01*
X143785551Y-109543565D01*
X143795950Y-109567925D01*
X143805766Y-109592939D01*
X143810381Y-109605573D01*
X143814702Y-109618129D01*
X143818727Y-109630611D01*
X143822457Y-109643017D01*
X143825890Y-109655348D01*
X143829027Y-109667605D01*
X143831868Y-109679788D01*
X143834411Y-109691898D01*
X143836657Y-109703936D01*
X143838604Y-109715902D01*
X143840253Y-109727795D01*
X143841603Y-109739618D01*
X143842654Y-109751370D01*
X143843405Y-109763053D01*
X143843856Y-109774665D01*
X143844006Y-109786209D01*
X143843856Y-109797210D01*
X143843405Y-109807986D01*
X143842654Y-109818540D01*
X143841603Y-109828870D01*
X143840253Y-109838978D01*
X143838604Y-109848863D01*
X143836657Y-109858527D01*
X143834411Y-109867968D01*
X143831868Y-109877188D01*
X143829027Y-109886187D01*
X143825890Y-109894965D01*
X143822457Y-109903523D01*
X143818727Y-109911860D01*
X143814702Y-109919978D01*
X143810381Y-109927876D01*
X143805766Y-109935554D01*
X143800931Y-109942575D01*
X143795950Y-109949292D01*
X143790824Y-109955704D01*
X143785551Y-109961811D01*
X143780131Y-109967612D01*
X143774564Y-109973106D01*
X143768849Y-109978293D01*
X143762986Y-109983171D01*
X143756974Y-109987740D01*
X143750813Y-109991999D01*
X143744501Y-109995948D01*
X143738040Y-109999585D01*
X143731428Y-110002909D01*
X143724664Y-110005921D01*
X143717749Y-110008618D01*
X143710682Y-110011002D01*
X143703521Y-110013021D01*
X143696329Y-110014629D01*
X143689107Y-110015825D01*
X143681854Y-110016610D01*
X143674572Y-110016983D01*
X143667263Y-110016944D01*
X143659926Y-110016494D01*
X143652564Y-110015633D01*
X143645177Y-110014361D01*
X143637766Y-110012677D01*
X143630333Y-110010583D01*
X143622877Y-110008078D01*
X143615401Y-110005162D01*
X143607906Y-110001835D01*
X143600391Y-109998097D01*
X143592859Y-109993949D01*
X143040438Y-109675105D01*
X143040438Y-108972822D01*
X143592859Y-109292183D01*
G37*
D10*
X155498153Y-110349999D02*
X155495106Y-110441616D01*
X155498153Y-104000000D02*
X155498153Y-110349999D01*
X155497388Y-103954066D02*
X155498153Y-104000000D01*
X155495106Y-110441616D02*
X155486063Y-110532107D01*
X155495106Y-103908383D02*
X155497388Y-103954066D01*
X155491325Y-103862981D02*
X155495106Y-103908383D01*
X155486063Y-110532107D02*
X155471167Y-110621223D01*
X155486063Y-103817892D02*
X155491325Y-103862981D01*
X155479337Y-103773146D02*
X155486063Y-103817892D01*
X155471167Y-110621223D02*
X155450563Y-110708713D01*
X155471167Y-103728776D02*
X155479337Y-103773146D01*
X155461569Y-103684812D02*
X155471167Y-103728776D01*
X155450563Y-110708713D02*
X155424396Y-110794327D01*
X155450563Y-103641286D02*
X155461569Y-103684812D01*
X155438166Y-103598229D02*
X155450563Y-103641286D01*
X155424396Y-110794327D02*
X155392811Y-110877814D01*
X155424396Y-103555672D02*
X155438166Y-103598229D01*
X155409272Y-103513647D02*
X155424396Y-103555672D01*
X155392811Y-110877814D02*
X155355951Y-110958924D01*
X155392811Y-103472184D02*
X155409272Y-103513647D01*
X155375031Y-103431317D02*
X155392811Y-103472184D01*
X155355951Y-110958924D02*
X155313963Y-111037407D01*
X155355951Y-103391074D02*
X155375031Y-103431317D01*
X155335589Y-103351489D02*
X155355951Y-103391074D01*
X155313963Y-111037407D02*
X155266989Y-111113011D01*
X155313963Y-103312592D02*
X155335589Y-103351489D01*
X155291090Y-103274414D02*
X155313963Y-103312592D01*
X155266989Y-111113011D02*
X155215175Y-111185488D01*
X155266989Y-103236987D02*
X155291090Y-103274414D01*
X155241678Y-103200342D02*
X155266989Y-103236987D01*
X155215175Y-111185488D02*
X155158666Y-111254585D01*
X155215175Y-103164511D02*
X155241678Y-103200342D01*
X155187498Y-103129524D02*
X155215175Y-103164511D01*
X155158666Y-111254585D02*
X155097605Y-111320053D01*
X155158666Y-103095413D02*
X155187498Y-103129524D01*
X155128695Y-103062210D02*
X155158666Y-103095413D01*
X155097605Y-111320053D02*
X155032138Y-111381641D01*
X155097605Y-103029945D02*
X155128695Y-103062210D01*
X155065414Y-102998650D02*
X155097605Y-103029945D01*
X155032138Y-111381641D02*
X154962409Y-111439100D01*
X155032138Y-102968357D02*
X155065414Y-102998650D01*
X154997798Y-102939096D02*
X155032138Y-102968357D01*
X154962409Y-111439100D02*
X154888563Y-111492177D01*
X154962409Y-102910899D02*
X154997798Y-102939096D01*
X154925992Y-102883797D02*
X154962409Y-102910899D01*
X154888563Y-111492177D02*
X154810745Y-111540624D01*
X154888563Y-102857821D02*
X154925992Y-102883797D01*
X154850142Y-102833003D02*
X154888563Y-102857821D01*
X154810745Y-111540624D02*
X149311484Y-114715623D01*
X154810745Y-102809374D02*
X154850142Y-102833003D01*
X149311484Y-114715623D02*
X149230618Y-114758793D01*
X149311484Y-99634374D02*
X154810745Y-102809374D01*
X149230618Y-114758793D02*
X149147729Y-114796207D01*
X149230618Y-99591205D02*
X149311484Y-99634374D01*
X149147729Y-114796207D02*
X149063104Y-114827864D01*
X149147729Y-99553791D02*
X149230618Y-99591205D01*
X149063104Y-114827864D02*
X148977034Y-114853766D01*
X149063104Y-99522133D02*
X149147729Y-99553791D01*
X148977034Y-114853766D02*
X148889807Y-114873912D01*
X148977034Y-99496232D02*
X149063104Y-99522133D01*
X148889807Y-114873912D02*
X148801712Y-114888302D01*
X148889806Y-99476086D02*
X148977034Y-99496232D01*
X148801712Y-114888302D02*
X148713039Y-114896936D01*
X148801711Y-99461696D02*
X148889806Y-99476086D01*
X148713039Y-114896936D02*
X148624076Y-114899814D01*
X148713038Y-99453062D02*
X148801711Y-99461696D01*
X148624076Y-114899814D02*
X148535114Y-114896936D01*
X148624076Y-99450184D02*
X148713038Y-99453062D01*
X148535114Y-114896936D02*
X148446441Y-114888302D01*
X148535113Y-99453062D02*
X148624076Y-99450184D01*
X148446441Y-114888302D02*
X148358346Y-114873912D01*
X148446440Y-99461696D02*
X148535113Y-99453062D01*
X148358346Y-114873912D02*
X148271119Y-114853766D01*
X148358345Y-99476086D02*
X148446440Y-99461696D01*
X148271119Y-114853766D02*
X148185048Y-114827864D01*
X148271118Y-99496232D02*
X148358345Y-99476086D01*
X148185048Y-114827864D02*
X148100424Y-114796207D01*
X148185048Y-99522134D02*
X148271118Y-99496232D01*
X148100424Y-114796207D02*
X148017534Y-114758793D01*
X148100423Y-99553791D02*
X148185048Y-99522134D01*
X148017534Y-114758793D02*
X147936669Y-114715623D01*
X148017533Y-99591205D02*
X148100423Y-99553791D01*
X147936669Y-114715623D02*
X142437408Y-111540624D01*
X147936668Y-99634375D02*
X148017533Y-99591205D01*
X142437408Y-111540624D02*
X142398011Y-111516995D01*
X142437407Y-102809374D02*
X147936668Y-99634375D01*
X142398011Y-111516995D02*
X142359589Y-111492177D01*
X142359589Y-111492177D02*
X142322160Y-111466202D01*
X142359588Y-102857821D02*
X142437407Y-102809374D01*
X142322160Y-111466202D02*
X142285743Y-111439100D01*
X142285743Y-111439100D02*
X142250355Y-111410903D01*
X142285743Y-102910899D02*
X142359588Y-102857821D01*
X142250355Y-111410903D02*
X142216014Y-111381641D01*
X142216014Y-111381641D02*
X142182739Y-111351348D01*
X142216014Y-102968357D02*
X142285743Y-102910899D01*
X142182739Y-111351348D02*
X142150548Y-111320053D01*
X142150548Y-111320053D02*
X142119458Y-111287788D01*
X142150547Y-103029945D02*
X142216014Y-102968357D01*
X142119458Y-111287788D02*
X142089487Y-111254585D01*
X142089487Y-111254585D02*
X142060655Y-111220474D01*
X142089487Y-103095413D02*
X142150547Y-103029945D01*
X142060655Y-111220474D02*
X142032978Y-111185488D01*
X142032978Y-111185488D02*
X142006475Y-111149656D01*
X142032977Y-103164511D02*
X142089487Y-103095413D01*
X142006475Y-111149656D02*
X141981164Y-111113011D01*
X141981164Y-111113011D02*
X141957063Y-111075585D01*
X141981163Y-103236987D02*
X142032977Y-103164511D01*
X141957063Y-111075585D02*
X141934190Y-111037407D01*
X141934190Y-111037407D02*
X141912564Y-110998510D01*
X141934190Y-103312592D02*
X141981163Y-103236987D01*
X141912564Y-110998510D02*
X141892202Y-110958924D01*
X141892202Y-110958924D02*
X141873122Y-110918682D01*
X141892201Y-103391074D02*
X141934190Y-103312592D01*
X141873122Y-110918682D02*
X141855342Y-110877814D01*
X141855342Y-110877814D02*
X141838881Y-110836352D01*
X141855342Y-103472184D02*
X141892201Y-103391074D01*
X141838881Y-110836352D02*
X141823757Y-110794327D01*
X141823757Y-110794327D02*
X141809987Y-110751770D01*
X141823756Y-103555672D02*
X141855342Y-103472184D01*
X141809987Y-110751770D02*
X141797590Y-110708713D01*
X141797590Y-110708713D02*
X141786584Y-110665187D01*
X141797590Y-103641286D02*
X141823756Y-103555672D01*
X141786584Y-110665187D02*
X141776986Y-110621223D01*
X141776986Y-110621223D02*
X141768816Y-110576852D01*
X141776986Y-103728776D02*
X141797590Y-103641286D01*
X141768816Y-110576852D02*
X141762090Y-110532107D01*
X141762090Y-110532107D02*
X141756828Y-110487017D01*
X141762090Y-103817892D02*
X141776986Y-103728776D01*
X141756828Y-110487017D02*
X141753047Y-110441616D01*
X141753047Y-110441616D02*
X141750765Y-110395932D01*
X141753046Y-103908383D02*
X141762090Y-103817892D01*
X141750765Y-110395932D02*
X141750000Y-110349999D01*
X141750000Y-110349999D02*
X141750000Y-104000000D01*
X141750000Y-104000000D02*
X141753046Y-103908383D01*
%TD*%
D11*
%TO.C,L1*%
X116500000Y-109075000D03*
X116500000Y-101425000D03*
%TD*%
D12*
%TO.C,D5*%
X94000000Y-112270000D03*
D13*
X94000000Y-110370000D03*
%TD*%
D14*
%TO.C,C4*%
X107300000Y-108275000D03*
X107300000Y-111225000D03*
%TD*%
D15*
%TO.C,C1*%
X102025000Y-110900000D03*
X104975000Y-110900000D03*
%TD*%
D16*
%TO.C,C3*%
X105500000Y-118050000D03*
X105500000Y-119950000D03*
%TD*%
D17*
%TO.C,D4*%
X92400000Y-105737500D03*
X92400000Y-103862500D03*
%TD*%
D18*
%TO.C,R2*%
X112250000Y-118087500D03*
X112250000Y-119912500D03*
%TD*%
D19*
%TO.C,C2*%
X112300000Y-113750000D03*
X114200000Y-113750000D03*
%TD*%
D20*
%TO.C,J4*%
X119500000Y-119500000D03*
D21*
X117500000Y-119500000D03*
%TD*%
D22*
%TO.C,R6*%
X94800000Y-101912500D03*
X94800000Y-100087500D03*
%TD*%
D23*
%TO.C,REF\u002A\u002A*%
X152500000Y-118500000D03*
%TD*%
D24*
%TO.C,TP2*%
X100500000Y-107500000D03*
%TD*%
D25*
%TO.C,C6*%
X101750000Y-104475000D03*
X101750000Y-101525000D03*
%TD*%
D18*
%TO.C,R5*%
X94800000Y-103887500D03*
X94800000Y-105712500D03*
%TD*%
%TO.C,R3*%
X107750000Y-118087500D03*
X107750000Y-119912500D03*
%TD*%
D24*
%TO.C,TP1*%
X103500000Y-107400000D03*
%TD*%
D25*
%TO.C,C5*%
X105000000Y-101550000D03*
X105000000Y-104500000D03*
%TD*%
D26*
%TO.C,D3*%
X92400000Y-100062500D03*
X92400000Y-101937500D03*
%TD*%
D27*
%TO.C,U1*%
X107590000Y-114710000D03*
D28*
X109740000Y-113085000D03*
X109740000Y-113735000D03*
X109740000Y-114385000D03*
X109740000Y-115035000D03*
X109740000Y-115685000D03*
X109740000Y-116335000D03*
X105440000Y-116335000D03*
X105440000Y-115685000D03*
X105440000Y-115035000D03*
X105440000Y-114385000D03*
X105440000Y-113735000D03*
X105440000Y-113085000D03*
%TD*%
D23*
%TO.C,REF\u002A\u002A*%
X94500000Y-118500000D03*
%TD*%
D29*
%TO.C,J1*%
X99400000Y-96750000D03*
D30*
X99400000Y-94210000D03*
D31*
X101940000Y-96750000D03*
X101940000Y-94210000D03*
X104480000Y-96750000D03*
X104480000Y-94210000D03*
X107020000Y-96750000D03*
X107020000Y-94210000D03*
X109560000Y-96750000D03*
X109560000Y-94210000D03*
X112100000Y-96750000D03*
X112100000Y-94210000D03*
X114640000Y-96750000D03*
X114640000Y-94210000D03*
X117180000Y-96750000D03*
X117180000Y-94210000D03*
X119720000Y-96750000D03*
X119720000Y-94210000D03*
X122260000Y-96750000D03*
X122260000Y-94210000D03*
X124800000Y-96750000D03*
X124800000Y-94210000D03*
X127340000Y-96750000D03*
X127340000Y-94210000D03*
X129880000Y-96750000D03*
X129880000Y-94210000D03*
X132420000Y-96750000D03*
X132420000Y-94210000D03*
X134960000Y-96750000D03*
X134960000Y-94210000D03*
X137500000Y-96750000D03*
X137500000Y-94210000D03*
X140040000Y-96750000D03*
X140040000Y-94210000D03*
X142580000Y-96750000D03*
X142580000Y-94210000D03*
X145120000Y-96750000D03*
X145120000Y-94210000D03*
X147660000Y-96750000D03*
X147660000Y-94210000D03*
%TD*%
D32*
%TO.C,RV1*%
X102150000Y-120100000D03*
D33*
X101000000Y-114900000D03*
D32*
X99850000Y-120100000D03*
%TD*%
D23*
%TO.C,REF\u002A\u002A*%
X94500000Y-95500000D03*
%TD*%
D18*
%TO.C,R1*%
X109750000Y-101337500D03*
X109750000Y-103162500D03*
%TD*%
D23*
%TO.C,REF\u002A\u002A*%
X152500000Y-95500000D03*
%TD*%
D18*
%TO.C,R4*%
X110000000Y-118087500D03*
X110000000Y-119912500D03*
%TD*%
D34*
%TO.C,J3*%
X98000000Y-112000000D03*
D35*
X98000000Y-110000000D03*
%TD*%
D34*
%TO.C,J2*%
X97950000Y-104000000D03*
D35*
X97950000Y-102000000D03*
%TD*%
M02*
