%TF.GenerationSoftware,KiCad,Pcbnew,7.0.7*%
%TF.CreationDate,2023-09-20T17:31:38+03:00*%
%TF.ProjectId,picoups,7069636f-7570-4732-9e6b-696361645f70,1.2.0*%
%TF.SameCoordinates,Original*%
%TF.FileFunction,Copper,L3,Inr*%
%TF.FilePolarity,Positive*%
%FSLAX46Y46*%
G04 Gerber Fmt 4.6, Leading zero omitted, Abs format (unit mm)*
G04 Created by KiCad (PCBNEW 7.0.7) date 2023-09-20 17:31:38*
%MOMM*%
%LPD*%
G01*
G04 APERTURE LIST*
G04 Aperture macros list*
%AMRoundRect*
0 Rectangle with rounded corners*
0 $1 Rounding radius*
0 $2 $3 $4 $5 $6 $7 $8 $9 X,Y pos of 4 corners*
0 Add a 4 corners polygon primitive as box body*
4,1,4,$2,$3,$4,$5,$6,$7,$8,$9,$2,$3,0*
0 Add four circle primitives for the rounded corners*
1,1,$1+$1,$2,$3*
1,1,$1+$1,$4,$5*
1,1,$1+$1,$6,$7*
1,1,$1+$1,$8,$9*
0 Add four rect primitives between the rounded corners*
20,1,$1+$1,$2,$3,$4,$5,0*
20,1,$1+$1,$4,$5,$6,$7,0*
20,1,$1+$1,$6,$7,$8,$9,0*
20,1,$1+$1,$8,$9,$2,$3,0*%
%AMOutline5P*
0 Free polygon, 5 corners , with rotation*
0 The origin of the aperture is its center*
0 number of corners: always 5*
0 $1 to $10 corner X, Y*
0 $11 Rotation angle, in degrees counterclockwise*
0 create outline with 5 corners*
4,1,5,$1,$2,$3,$4,$5,$6,$7,$8,$9,$10,$1,$2,$11*%
%AMOutline6P*
0 Free polygon, 6 corners , with rotation*
0 The origin of the aperture is its center*
0 number of corners: always 6*
0 $1 to $12 corner X, Y*
0 $13 Rotation angle, in degrees counterclockwise*
0 create outline with 6 corners*
4,1,6,$1,$2,$3,$4,$5,$6,$7,$8,$9,$10,$11,$12,$1,$2,$13*%
%AMOutline7P*
0 Free polygon, 7 corners , with rotation*
0 The origin of the aperture is its center*
0 number of corners: always 7*
0 $1 to $14 corner X, Y*
0 $15 Rotation angle, in degrees counterclockwise*
0 create outline with 7 corners*
4,1,7,$1,$2,$3,$4,$5,$6,$7,$8,$9,$10,$11,$12,$13,$14,$1,$2,$15*%
%AMOutline8P*
0 Free polygon, 8 corners , with rotation*
0 The origin of the aperture is its center*
0 number of corners: always 8*
0 $1 to $16 corner X, Y*
0 $17 Rotation angle, in degrees counterclockwise*
0 create outline with 8 corners*
4,1,8,$1,$2,$3,$4,$5,$6,$7,$8,$9,$10,$11,$12,$13,$14,$15,$16,$1,$2,$17*%
G04 Aperture macros list end*
%TA.AperFunction,ComponentPad*%
%ADD10Outline5P,-0.850000X0.425000X-0.425000X0.850000X0.850000X0.850000X0.850000X-0.850000X-0.850000X-0.850000X90.000000*%
%TD*%
%TA.AperFunction,ComponentPad*%
%ADD11C,1.700000*%
%TD*%
%TA.AperFunction,ComponentPad*%
%ADD12O,1.700000X1.700000*%
%TD*%
%TA.AperFunction,ComponentPad*%
%ADD13C,0.500000*%
%TD*%
%TA.AperFunction,ComponentPad*%
%ADD14RoundRect,0.250000X0.350000X0.625000X-0.350000X0.625000X-0.350000X-0.625000X0.350000X-0.625000X0*%
%TD*%
%TA.AperFunction,ComponentPad*%
%ADD15O,1.200000X1.750000*%
%TD*%
%TA.AperFunction,ComponentPad*%
%ADD16O,1.800000X1.000000*%
%TD*%
%TA.AperFunction,ComponentPad*%
%ADD17O,2.100000X1.000000*%
%TD*%
%TA.AperFunction,ViaPad*%
%ADD18C,0.800000*%
%TD*%
%TA.AperFunction,ViaPad*%
%ADD19C,0.600000*%
%TD*%
G04 APERTURE END LIST*
D10*
%TO.N,unconnected-(J4-Pin_1-Pad1)*%
%TO.C,J4*%
X99400000Y-96750000D03*
D11*
%TO.N,5V*%
X99400000Y-94210000D03*
D12*
%TO.N,SDA*%
X101940000Y-96750000D03*
%TO.N,5V*%
X101940000Y-94210000D03*
%TO.N,SCL*%
X104480000Y-96750000D03*
%TO.N,GND*%
X104480000Y-94210000D03*
%TO.N,unconnected-(J4-Pin_7-Pad7)*%
X107020000Y-96750000D03*
%TO.N,unconnected-(J4-Pin_8-Pad8)*%
X107020000Y-94210000D03*
%TO.N,GND*%
X109560000Y-96750000D03*
%TO.N,unconnected-(J4-Pin_10-Pad10)*%
X109560000Y-94210000D03*
%TO.N,unconnected-(J4-Pin_11-Pad11)*%
X112100000Y-96750000D03*
%TO.N,unconnected-(J4-Pin_12-Pad12)*%
X112100000Y-94210000D03*
%TO.N,unconnected-(J4-Pin_13-Pad13)*%
X114640000Y-96750000D03*
%TO.N,GND*%
X114640000Y-94210000D03*
%TO.N,unconnected-(J4-Pin_15-Pad15)*%
X117180000Y-96750000D03*
%TO.N,unconnected-(J4-Pin_16-Pad16)*%
X117180000Y-94210000D03*
%TO.N,unconnected-(J4-Pin_17-Pad17)*%
X119720000Y-96750000D03*
%TO.N,unconnected-(J4-Pin_18-Pad18)*%
X119720000Y-94210000D03*
%TO.N,unconnected-(J4-Pin_19-Pad19)*%
X122260000Y-96750000D03*
%TO.N,GND*%
X122260000Y-94210000D03*
%TO.N,unconnected-(J4-Pin_21-Pad21)*%
X124800000Y-96750000D03*
%TO.N,unconnected-(J4-Pin_22-Pad22)*%
X124800000Y-94210000D03*
%TO.N,unconnected-(J4-Pin_23-Pad23)*%
X127340000Y-96750000D03*
%TO.N,unconnected-(J4-Pin_24-Pad24)*%
X127340000Y-94210000D03*
%TO.N,GND*%
X129880000Y-96750000D03*
%TO.N,unconnected-(J4-Pin_26-Pad26)*%
X129880000Y-94210000D03*
%TO.N,unconnected-(J4-Pin_27-Pad27)*%
X132420000Y-96750000D03*
%TO.N,unconnected-(J4-Pin_28-Pad28)*%
X132420000Y-94210000D03*
%TO.N,unconnected-(J4-Pin_29-Pad29)*%
X134960000Y-96750000D03*
%TO.N,GND*%
X134960000Y-94210000D03*
%TO.N,unconnected-(J4-Pin_31-Pad31)*%
X137500000Y-96750000D03*
%TO.N,unconnected-(J4-Pin_32-Pad32)*%
X137500000Y-94210000D03*
%TO.N,unconnected-(J4-Pin_33-Pad33)*%
X140040000Y-96750000D03*
%TO.N,GND*%
X140040000Y-94210000D03*
%TO.N,unconnected-(J4-Pin_35-Pad35)*%
X142580000Y-96750000D03*
%TO.N,unconnected-(J4-Pin_36-Pad36)*%
X142580000Y-94210000D03*
%TO.N,Net-(J4-Pin_37)*%
X145120000Y-96750000D03*
%TO.N,unconnected-(J4-Pin_38-Pad38)*%
X145120000Y-94210000D03*
%TO.N,GND*%
X147660000Y-96750000D03*
%TO.N,unconnected-(J4-Pin_40-Pad40)*%
X147660000Y-94210000D03*
%TD*%
D13*
%TO.N,GND*%
%TO.C,U1*%
X138000000Y-105500000D03*
X138000000Y-104500000D03*
X138000000Y-103500000D03*
X137000000Y-105500000D03*
X137000000Y-104500000D03*
X137000000Y-103500000D03*
%TD*%
%TO.N,GND*%
%TO.C,U5*%
X112450000Y-101200000D03*
X112450000Y-102000000D03*
X112450000Y-102800000D03*
X113250000Y-101200000D03*
X113250000Y-102000000D03*
X113250000Y-102800000D03*
X114050000Y-101200000D03*
X114050000Y-102000000D03*
X114050000Y-102800000D03*
%TD*%
%TO.N,GND*%
%TO.C,U4*%
X121250000Y-104750000D03*
X120250000Y-104750000D03*
%TD*%
D14*
%TO.N,Net-(J1-Pin_1)*%
%TO.C,J1*%
X146000000Y-115300000D03*
D15*
%TO.N,GND*%
X144000000Y-115300000D03*
%TD*%
D16*
%TO.N,unconnected-(J3-SHIELD-PadS1)*%
%TO.C,J3*%
X153325000Y-102680000D03*
D17*
X149145000Y-102680000D03*
D16*
X153325000Y-111320000D03*
D17*
X149145000Y-111320000D03*
%TD*%
D14*
%TO.N,VBAT-*%
%TO.C,J2*%
X133400000Y-115300000D03*
D15*
%TO.N,GND*%
X131400000Y-115300000D03*
%TD*%
D18*
%TO.N,GND*%
X145000000Y-118500000D03*
X122150000Y-99149500D03*
D19*
X126874500Y-109000000D03*
D18*
X100500000Y-111750000D03*
X128750000Y-116000000D03*
X101000000Y-112250000D03*
X134400000Y-121000000D03*
X155000000Y-107000000D03*
X99000000Y-119000000D03*
D19*
X116250000Y-110400000D03*
D18*
X120500000Y-114750000D03*
X133250000Y-102000000D03*
X102250000Y-112250000D03*
X130250000Y-102000000D03*
X109000000Y-99800000D03*
X147000000Y-118500000D03*
X120500000Y-110500000D03*
X141000000Y-109000000D03*
X123750000Y-102500000D03*
X127250000Y-102000000D03*
X147000000Y-121000000D03*
X100000000Y-121000000D03*
X152000000Y-110000000D03*
X132400000Y-121000000D03*
X152000000Y-104000000D03*
X100000000Y-112250000D03*
D19*
X119131186Y-118750000D03*
D18*
X120500000Y-120000000D03*
X143000000Y-118500000D03*
X137444916Y-101750000D03*
X115200000Y-118100000D03*
D19*
X94100000Y-107400000D03*
D18*
X147500000Y-103250000D03*
X145000000Y-121000000D03*
X120250000Y-99149500D03*
D19*
X97000000Y-92750000D03*
D18*
X149000000Y-116000000D03*
X155000000Y-108500000D03*
X143000000Y-121000000D03*
X130400000Y-121000000D03*
X128750000Y-112750000D03*
X139344916Y-99250000D03*
X103250000Y-112250000D03*
X128750000Y-113500000D03*
X136750000Y-112550000D03*
D19*
X118750000Y-117500000D03*
D18*
X155000000Y-104000000D03*
D19*
X108000000Y-110400000D03*
D18*
X147500000Y-110750000D03*
X152000000Y-107000000D03*
X106500000Y-119000000D03*
X92000000Y-99000000D03*
X128750000Y-115250000D03*
X128750000Y-116750000D03*
X145900000Y-101750000D03*
X98000000Y-121000000D03*
X128750000Y-102000000D03*
D19*
X106200000Y-101000000D03*
D18*
X94500000Y-103000000D03*
D19*
X108300000Y-113600000D03*
D18*
X149500000Y-98500000D03*
X106500000Y-117000000D03*
X149000000Y-121000000D03*
X155000000Y-110000000D03*
X143750000Y-105750000D03*
X92000000Y-115000000D03*
D19*
X108400000Y-111100000D03*
D18*
X143750000Y-108750000D03*
X111387500Y-100137500D03*
D19*
X111387500Y-103862500D03*
D18*
X116750000Y-105550000D03*
X102750000Y-113000000D03*
X116750000Y-103950000D03*
X155000000Y-105500000D03*
D19*
X98250000Y-98750000D03*
D18*
X128750000Y-112000000D03*
X131750000Y-102000000D03*
X123750000Y-104000000D03*
D19*
%TO.N,VBAT_SOL+*%
X115112500Y-104750000D03*
D18*
X125712500Y-109500000D03*
%TO.N,/Solar Panel Supply/BOOST*%
X134025000Y-103525000D03*
X126500000Y-103250000D03*
D19*
%TO.N,VBAT+*%
X104480000Y-105600000D03*
X112925000Y-105600000D03*
X124537500Y-119500000D03*
X96275000Y-103525000D03*
%TO.N,5V+*%
X111462500Y-119500000D03*
X110298000Y-101000500D03*
D18*
X109000000Y-102950000D03*
D19*
X109600000Y-106200000D03*
%TO.N,Net-(D4-K)*%
X137400000Y-120650000D03*
%TO.N,Net-(D5-K)*%
X140000000Y-120650000D03*
D18*
%TO.N,Net-(D6-K)*%
X154750000Y-113312500D03*
%TO.N,Net-(D7-K)*%
X154750000Y-100687500D03*
D19*
%TO.N,VBAT-*%
X113882843Y-106317157D03*
X127462500Y-119500000D03*
%TO.N,SDA*%
X105400000Y-98250000D03*
X106000000Y-99799500D03*
%TO.N,SCL*%
X95150000Y-114000000D03*
D18*
X102000000Y-100000000D03*
D19*
X99200500Y-103500000D03*
%TO.N,/Solar Panel Supply/FAULT*%
X141000000Y-107849500D03*
%TO.N,/Solar Panel Supply/CHRG*%
X141110393Y-109892702D03*
%TO.N,/Status LEDs/USB_CHRG*%
X121043606Y-106584583D03*
%TO.N,/Status LEDs/USB_PWRGD*%
X122725000Y-104275000D03*
%TO.N,Net-(SW1-C)*%
X97200000Y-105600000D03*
X118349500Y-120375500D03*
%TO.N,VBAT_SOL-*%
X116000000Y-104750000D03*
D18*
X122787500Y-109500000D03*
%TO.N,VIN_REG*%
X141250000Y-103500000D03*
X143250000Y-100250000D03*
%TD*%
%TA.AperFunction,Conductor*%
%TO.N,GND*%
G36*
X151426533Y-92269685D02*
G01*
X151472288Y-92322489D01*
X151482232Y-92391647D01*
X151453207Y-92455203D01*
X151406948Y-92488560D01*
X151292703Y-92535881D01*
X151109168Y-92611905D01*
X150794545Y-92785790D01*
X150501377Y-92993805D01*
X150233339Y-93233339D01*
X149993805Y-93501377D01*
X149785790Y-93794545D01*
X149611905Y-94109168D01*
X149489225Y-94405341D01*
X149483219Y-94419844D01*
X149474339Y-94441281D01*
X149374828Y-94786694D01*
X149374826Y-94786703D01*
X149314614Y-95141085D01*
X149314612Y-95141097D01*
X149294457Y-95500000D01*
X149314612Y-95858902D01*
X149314614Y-95858914D01*
X149374826Y-96213296D01*
X149374828Y-96213305D01*
X149474339Y-96558718D01*
X149474341Y-96558724D01*
X149523793Y-96678111D01*
X149611905Y-96890831D01*
X149785790Y-97205454D01*
X149993805Y-97498622D01*
X149993806Y-97498623D01*
X150233339Y-97766661D01*
X150501377Y-98006194D01*
X150794548Y-98214211D01*
X151109167Y-98388094D01*
X151441276Y-98525659D01*
X151786700Y-98625173D01*
X152141093Y-98685387D01*
X152410202Y-98700500D01*
X152410210Y-98700500D01*
X152589790Y-98700500D01*
X152589798Y-98700500D01*
X152858907Y-98685387D01*
X153213300Y-98625173D01*
X153558724Y-98525659D01*
X153890833Y-98388094D01*
X154205452Y-98214211D01*
X154498623Y-98006194D01*
X154766661Y-97766661D01*
X155006194Y-97498623D01*
X155214211Y-97205452D01*
X155388094Y-96890833D01*
X155511439Y-96593052D01*
X155555280Y-96538650D01*
X155621574Y-96516585D01*
X155689274Y-96533864D01*
X155736884Y-96585002D01*
X155750000Y-96640506D01*
X155750000Y-117359493D01*
X155730315Y-117426532D01*
X155677511Y-117472287D01*
X155608353Y-117482231D01*
X155544797Y-117453206D01*
X155511439Y-117406946D01*
X155388094Y-117109168D01*
X155388094Y-117109167D01*
X155214211Y-116794548D01*
X155110836Y-116648856D01*
X155006194Y-116501377D01*
X154924633Y-116410110D01*
X154766661Y-116233339D01*
X154498623Y-115993806D01*
X154487179Y-115985686D01*
X154205454Y-115785790D01*
X154048142Y-115698847D01*
X153890833Y-115611906D01*
X153862135Y-115600019D01*
X153759467Y-115557492D01*
X153558724Y-115474341D01*
X153558720Y-115474339D01*
X153558718Y-115474339D01*
X153213305Y-115374828D01*
X153213296Y-115374826D01*
X152858914Y-115314614D01*
X152858902Y-115314612D01*
X152693262Y-115305310D01*
X152589798Y-115299500D01*
X152410202Y-115299500D01*
X152311482Y-115305044D01*
X152141097Y-115314612D01*
X152141085Y-115314614D01*
X151786703Y-115374826D01*
X151786694Y-115374828D01*
X151441281Y-115474339D01*
X151109168Y-115611905D01*
X150794545Y-115785790D01*
X150501377Y-115993805D01*
X150233339Y-116233339D01*
X149993805Y-116501377D01*
X149785790Y-116794545D01*
X149611905Y-117109168D01*
X149474339Y-117441281D01*
X149374828Y-117786694D01*
X149374826Y-117786703D01*
X149314614Y-118141085D01*
X149314612Y-118141097D01*
X149294457Y-118500000D01*
X149314612Y-118858902D01*
X149314614Y-118858914D01*
X149374826Y-119213296D01*
X149374828Y-119213305D01*
X149474339Y-119558718D01*
X149474341Y-119558724D01*
X149509024Y-119642456D01*
X149611905Y-119890831D01*
X149785790Y-120205454D01*
X149907245Y-120376628D01*
X149993806Y-120498623D01*
X150233339Y-120766661D01*
X150355690Y-120876000D01*
X150501377Y-121006194D01*
X150537948Y-121032143D01*
X150794548Y-121214211D01*
X151109167Y-121388094D01*
X151406947Y-121511439D01*
X151461350Y-121555280D01*
X151483415Y-121621574D01*
X151466136Y-121689274D01*
X151414998Y-121736884D01*
X151359494Y-121750000D01*
X95640506Y-121750000D01*
X95573467Y-121730315D01*
X95527712Y-121677511D01*
X95517768Y-121608353D01*
X95546793Y-121544797D01*
X95593051Y-121511439D01*
X95890833Y-121388094D01*
X96205452Y-121214211D01*
X96498623Y-121006194D01*
X96766661Y-120766661D01*
X97006194Y-120498623D01*
X97093556Y-120375499D01*
X117843853Y-120375499D01*
X117864334Y-120517956D01*
X117918441Y-120636432D01*
X117924123Y-120648873D01*
X118018372Y-120757643D01*
X118139447Y-120835453D01*
X118139450Y-120835454D01*
X118139449Y-120835454D01*
X118277536Y-120875999D01*
X118277538Y-120876000D01*
X118277539Y-120876000D01*
X118421462Y-120876000D01*
X118421462Y-120875999D01*
X118559553Y-120835453D01*
X118680628Y-120757643D01*
X118773901Y-120649999D01*
X136894353Y-120649999D01*
X136914834Y-120792456D01*
X136934471Y-120835454D01*
X136974623Y-120923373D01*
X137068872Y-121032143D01*
X137189947Y-121109953D01*
X137189950Y-121109954D01*
X137189949Y-121109954D01*
X137328036Y-121150499D01*
X137328038Y-121150500D01*
X137328039Y-121150500D01*
X137471962Y-121150500D01*
X137471962Y-121150499D01*
X137610053Y-121109953D01*
X137731128Y-121032143D01*
X137825377Y-120923373D01*
X137885165Y-120792457D01*
X137905647Y-120650000D01*
X137905647Y-120649999D01*
X139494353Y-120649999D01*
X139514834Y-120792456D01*
X139534471Y-120835454D01*
X139574623Y-120923373D01*
X139668872Y-121032143D01*
X139789947Y-121109953D01*
X139789950Y-121109954D01*
X139789949Y-121109954D01*
X139928036Y-121150499D01*
X139928038Y-121150500D01*
X139928039Y-121150500D01*
X140071962Y-121150500D01*
X140071962Y-121150499D01*
X140210053Y-121109953D01*
X140331128Y-121032143D01*
X140425377Y-120923373D01*
X140485165Y-120792457D01*
X140505647Y-120650000D01*
X140485165Y-120507543D01*
X140425377Y-120376627D01*
X140331128Y-120267857D01*
X140210053Y-120190047D01*
X140210051Y-120190046D01*
X140210049Y-120190045D01*
X140210050Y-120190045D01*
X140071963Y-120149500D01*
X140071961Y-120149500D01*
X139928039Y-120149500D01*
X139928036Y-120149500D01*
X139789949Y-120190045D01*
X139668873Y-120267856D01*
X139574623Y-120376626D01*
X139574622Y-120376628D01*
X139514834Y-120507543D01*
X139494353Y-120649999D01*
X137905647Y-120649999D01*
X137885165Y-120507543D01*
X137825377Y-120376627D01*
X137731128Y-120267857D01*
X137610053Y-120190047D01*
X137610051Y-120190046D01*
X137610049Y-120190045D01*
X137610050Y-120190045D01*
X137471963Y-120149500D01*
X137471961Y-120149500D01*
X137328039Y-120149500D01*
X137328036Y-120149500D01*
X137189949Y-120190045D01*
X137068873Y-120267856D01*
X136974623Y-120376626D01*
X136974622Y-120376628D01*
X136914834Y-120507543D01*
X136894353Y-120649999D01*
X118773901Y-120649999D01*
X118774877Y-120648873D01*
X118834665Y-120517957D01*
X118855147Y-120375500D01*
X118834665Y-120233043D01*
X118774877Y-120102127D01*
X118680628Y-119993357D01*
X118559553Y-119915547D01*
X118559551Y-119915546D01*
X118559549Y-119915545D01*
X118559550Y-119915545D01*
X118421463Y-119875000D01*
X118421461Y-119875000D01*
X118277539Y-119875000D01*
X118277536Y-119875000D01*
X118139449Y-119915545D01*
X118018373Y-119993356D01*
X118018372Y-119993356D01*
X118018372Y-119993357D01*
X118012183Y-120000500D01*
X117924123Y-120102126D01*
X117924122Y-120102128D01*
X117864334Y-120233043D01*
X117843853Y-120375499D01*
X97093556Y-120375499D01*
X97214211Y-120205452D01*
X97388094Y-119890833D01*
X97525659Y-119558724D01*
X97542577Y-119499999D01*
X110956853Y-119499999D01*
X110977334Y-119642456D01*
X111037122Y-119773371D01*
X111037123Y-119773373D01*
X111131372Y-119882143D01*
X111252447Y-119959953D01*
X111252450Y-119959954D01*
X111252449Y-119959954D01*
X111359607Y-119991417D01*
X111366208Y-119993356D01*
X111390536Y-120000499D01*
X111390538Y-120000500D01*
X111390539Y-120000500D01*
X111534462Y-120000500D01*
X111534462Y-120000499D01*
X111672553Y-119959953D01*
X111793628Y-119882143D01*
X111887877Y-119773373D01*
X111947665Y-119642457D01*
X111968147Y-119500000D01*
X124031853Y-119500000D01*
X124052334Y-119642456D01*
X124112122Y-119773371D01*
X124112123Y-119773373D01*
X124206372Y-119882143D01*
X124327447Y-119959953D01*
X124327450Y-119959954D01*
X124327449Y-119959954D01*
X124434607Y-119991417D01*
X124441208Y-119993356D01*
X124465536Y-120000499D01*
X124465538Y-120000500D01*
X124465539Y-120000500D01*
X124609462Y-120000500D01*
X124609462Y-120000499D01*
X124747553Y-119959953D01*
X124868628Y-119882143D01*
X124962877Y-119773373D01*
X125022665Y-119642457D01*
X125043147Y-119500000D01*
X125043147Y-119499999D01*
X126956853Y-119499999D01*
X126977334Y-119642456D01*
X127037122Y-119773371D01*
X127037123Y-119773373D01*
X127131372Y-119882143D01*
X127252447Y-119959953D01*
X127252450Y-119959954D01*
X127252449Y-119959954D01*
X127359607Y-119991417D01*
X127366208Y-119993356D01*
X127390536Y-120000499D01*
X127390538Y-120000500D01*
X127390539Y-120000500D01*
X127534462Y-120000500D01*
X127534462Y-120000499D01*
X127672553Y-119959953D01*
X127793628Y-119882143D01*
X127887877Y-119773373D01*
X127947665Y-119642457D01*
X127968147Y-119500000D01*
X127947665Y-119357543D01*
X127887877Y-119226627D01*
X127793628Y-119117857D01*
X127672553Y-119040047D01*
X127672551Y-119040046D01*
X127672549Y-119040045D01*
X127672550Y-119040045D01*
X127534463Y-118999500D01*
X127534461Y-118999500D01*
X127390539Y-118999500D01*
X127390536Y-118999500D01*
X127252449Y-119040045D01*
X127131373Y-119117856D01*
X127037123Y-119226626D01*
X127037122Y-119226628D01*
X126977334Y-119357543D01*
X126956853Y-119499999D01*
X125043147Y-119499999D01*
X125022665Y-119357543D01*
X124962877Y-119226627D01*
X124868628Y-119117857D01*
X124747553Y-119040047D01*
X124747551Y-119040046D01*
X124747549Y-119040045D01*
X124747550Y-119040045D01*
X124609463Y-118999500D01*
X124609461Y-118999500D01*
X124465539Y-118999500D01*
X124465536Y-118999500D01*
X124327449Y-119040045D01*
X124206373Y-119117856D01*
X124112123Y-119226626D01*
X124112122Y-119226628D01*
X124052334Y-119357543D01*
X124031853Y-119500000D01*
X111968147Y-119500000D01*
X111947665Y-119357543D01*
X111887877Y-119226627D01*
X111793628Y-119117857D01*
X111672553Y-119040047D01*
X111672551Y-119040046D01*
X111672549Y-119040045D01*
X111672550Y-119040045D01*
X111534463Y-118999500D01*
X111534461Y-118999500D01*
X111390539Y-118999500D01*
X111390536Y-118999500D01*
X111252449Y-119040045D01*
X111131373Y-119117856D01*
X111037123Y-119226626D01*
X111037122Y-119226628D01*
X110977334Y-119357543D01*
X110956853Y-119499999D01*
X97542577Y-119499999D01*
X97625173Y-119213300D01*
X97685387Y-118858907D01*
X97705543Y-118500000D01*
X97685387Y-118141093D01*
X97625173Y-117786700D01*
X97525659Y-117441276D01*
X97388094Y-117109167D01*
X97214211Y-116794548D01*
X97110836Y-116648856D01*
X97006194Y-116501377D01*
X96924633Y-116410110D01*
X96766661Y-116233339D01*
X96498623Y-115993806D01*
X96487179Y-115985686D01*
X96205454Y-115785790D01*
X96048142Y-115698847D01*
X95890833Y-115611906D01*
X95862135Y-115600019D01*
X95759467Y-115557492D01*
X95558724Y-115474341D01*
X95558720Y-115474339D01*
X95558718Y-115474339D01*
X95213305Y-115374828D01*
X95213296Y-115374826D01*
X94858914Y-115314614D01*
X94858902Y-115314612D01*
X94693262Y-115305310D01*
X94589798Y-115299500D01*
X94410202Y-115299500D01*
X94311482Y-115305044D01*
X94141097Y-115314612D01*
X94141085Y-115314614D01*
X93786703Y-115374826D01*
X93786694Y-115374828D01*
X93441281Y-115474339D01*
X93109168Y-115611905D01*
X92794545Y-115785790D01*
X92501377Y-115993805D01*
X92233339Y-116233339D01*
X91993805Y-116501377D01*
X91785790Y-116794545D01*
X91611905Y-117109168D01*
X91488561Y-117406946D01*
X91444720Y-117461349D01*
X91378426Y-117483414D01*
X91310726Y-117466135D01*
X91263116Y-117414997D01*
X91250000Y-117359493D01*
X91250000Y-115051361D01*
X91250400Y-115049999D01*
X130299999Y-115049999D01*
X130300000Y-115050000D01*
X130911808Y-115050000D01*
X130978847Y-115069685D01*
X131024602Y-115122489D01*
X131034546Y-115191647D01*
X131032013Y-115204441D01*
X131031448Y-115206670D01*
X131021113Y-115331392D01*
X131021113Y-115331395D01*
X131021114Y-115331395D01*
X131032112Y-115374827D01*
X131037363Y-115395560D01*
X131034738Y-115465381D01*
X130994781Y-115522698D01*
X130930180Y-115549314D01*
X130917157Y-115550000D01*
X130300000Y-115550000D01*
X130300000Y-115627398D01*
X130314965Y-115784122D01*
X130314966Y-115784126D01*
X130374149Y-115985686D01*
X130470413Y-116172414D01*
X130600268Y-116337537D01*
X130600271Y-116337540D01*
X130759030Y-116475105D01*
X130759041Y-116475114D01*
X130940960Y-116580144D01*
X130940967Y-116580147D01*
X131139477Y-116648853D01*
X131139483Y-116648855D01*
X131149999Y-116650366D01*
X131149999Y-115784330D01*
X131169684Y-115717291D01*
X131222488Y-115671536D01*
X131291646Y-115661592D01*
X131314262Y-115667049D01*
X131337422Y-115675000D01*
X131337424Y-115675000D01*
X131431072Y-115675000D01*
X131431073Y-115675000D01*
X131505592Y-115662565D01*
X131574955Y-115670947D01*
X131628777Y-115715500D01*
X131649968Y-115782078D01*
X131650000Y-115784874D01*
X131650000Y-116646257D01*
X131761409Y-116619229D01*
X131952507Y-116531959D01*
X132123619Y-116410110D01*
X132123625Y-116410104D01*
X132268592Y-116258067D01*
X132382167Y-116081341D01*
X132390113Y-116061493D01*
X132433303Y-116006571D01*
X132499330Y-115983718D01*
X132567230Y-116000190D01*
X132615446Y-116050757D01*
X132622272Y-116066623D01*
X132647206Y-116137880D01*
X132647207Y-116137882D01*
X132727850Y-116247150D01*
X132837118Y-116327793D01*
X132879845Y-116342744D01*
X132965299Y-116372646D01*
X132995730Y-116375500D01*
X132995734Y-116375500D01*
X133804270Y-116375500D01*
X133834699Y-116372646D01*
X133834701Y-116372646D01*
X133898790Y-116350219D01*
X133962882Y-116327793D01*
X134072150Y-116247150D01*
X134152793Y-116137882D01*
X134183279Y-116050757D01*
X134197646Y-116009701D01*
X134197646Y-116009699D01*
X134199136Y-115993806D01*
X134200500Y-115979266D01*
X134200500Y-115627398D01*
X142900000Y-115627398D01*
X142914965Y-115784122D01*
X142914966Y-115784126D01*
X142974149Y-115985686D01*
X143070413Y-116172414D01*
X143200268Y-116337537D01*
X143200271Y-116337540D01*
X143359030Y-116475105D01*
X143359041Y-116475114D01*
X143540960Y-116580144D01*
X143540967Y-116580147D01*
X143739487Y-116648856D01*
X143750000Y-116650367D01*
X143750000Y-115784330D01*
X143769685Y-115717291D01*
X143822489Y-115671536D01*
X143891647Y-115661592D01*
X143914262Y-115667048D01*
X143937424Y-115675000D01*
X144031072Y-115675000D01*
X144031073Y-115675000D01*
X144105592Y-115662565D01*
X144174955Y-115670947D01*
X144228777Y-115715500D01*
X144249968Y-115782078D01*
X144250000Y-115784874D01*
X144250000Y-116646257D01*
X144361409Y-116619229D01*
X144552507Y-116531959D01*
X144723619Y-116410110D01*
X144723625Y-116410104D01*
X144868592Y-116258067D01*
X144982167Y-116081341D01*
X144990113Y-116061493D01*
X145033303Y-116006571D01*
X145099330Y-115983718D01*
X145167230Y-116000190D01*
X145215446Y-116050757D01*
X145222272Y-116066623D01*
X145247206Y-116137880D01*
X145247207Y-116137882D01*
X145327850Y-116247150D01*
X145437118Y-116327793D01*
X145479845Y-116342744D01*
X145565299Y-116372646D01*
X145595730Y-116375500D01*
X145595734Y-116375500D01*
X146404270Y-116375500D01*
X146434699Y-116372646D01*
X146434701Y-116372646D01*
X146498790Y-116350219D01*
X146562882Y-116327793D01*
X146672150Y-116247150D01*
X146752793Y-116137882D01*
X146783279Y-116050757D01*
X146797646Y-116009701D01*
X146797646Y-116009699D01*
X146800500Y-115979269D01*
X146800500Y-114620730D01*
X146797646Y-114590300D01*
X146797646Y-114590298D01*
X146752793Y-114462119D01*
X146752792Y-114462117D01*
X146751195Y-114459953D01*
X146672150Y-114352850D01*
X146562882Y-114272207D01*
X146562880Y-114272206D01*
X146434700Y-114227353D01*
X146404270Y-114224500D01*
X146404266Y-114224500D01*
X145595734Y-114224500D01*
X145595730Y-114224500D01*
X145565300Y-114227353D01*
X145565298Y-114227353D01*
X145437119Y-114272206D01*
X145437117Y-114272207D01*
X145327850Y-114352850D01*
X145247207Y-114462117D01*
X145247206Y-114462119D01*
X145221176Y-114536509D01*
X145180454Y-114593285D01*
X145115501Y-114619032D01*
X145046940Y-114605575D01*
X144996537Y-114557188D01*
X144993919Y-114552374D01*
X144929586Y-114427585D01*
X144799731Y-114262462D01*
X144799728Y-114262459D01*
X144640969Y-114124894D01*
X144640958Y-114124885D01*
X144459039Y-114019855D01*
X144459032Y-114019852D01*
X144260516Y-113951144D01*
X144250000Y-113949632D01*
X144250000Y-114815669D01*
X144230315Y-114882708D01*
X144177511Y-114928463D01*
X144108353Y-114938407D01*
X144085740Y-114932951D01*
X144062578Y-114925000D01*
X144062576Y-114925000D01*
X143968927Y-114925000D01*
X143968926Y-114925000D01*
X143894408Y-114937434D01*
X143825043Y-114929052D01*
X143771222Y-114884498D01*
X143750031Y-114817919D01*
X143750000Y-114815125D01*
X143750000Y-113953740D01*
X143749999Y-113953740D01*
X143638594Y-113980768D01*
X143638582Y-113980772D01*
X143447497Y-114068037D01*
X143447496Y-114068038D01*
X143276380Y-114189889D01*
X143276374Y-114189895D01*
X143131407Y-114341932D01*
X143017833Y-114518657D01*
X142939755Y-114713685D01*
X142900000Y-114919962D01*
X142900000Y-115050000D01*
X143511808Y-115050000D01*
X143578847Y-115069685D01*
X143624602Y-115122489D01*
X143634546Y-115191647D01*
X143632013Y-115204441D01*
X143631448Y-115206670D01*
X143621113Y-115331392D01*
X143621113Y-115331395D01*
X143621114Y-115331395D01*
X143632112Y-115374827D01*
X143637363Y-115395560D01*
X143634738Y-115465381D01*
X143594781Y-115522698D01*
X143530180Y-115549314D01*
X143517157Y-115550000D01*
X142900000Y-115550000D01*
X142900000Y-115627398D01*
X134200500Y-115627398D01*
X134200500Y-114620734D01*
X134197646Y-114590301D01*
X134197646Y-114590300D01*
X134197646Y-114590298D01*
X134152793Y-114462119D01*
X134152792Y-114462117D01*
X134151195Y-114459953D01*
X134072150Y-114352850D01*
X133962882Y-114272207D01*
X133962880Y-114272206D01*
X133834700Y-114227353D01*
X133804270Y-114224500D01*
X133804266Y-114224500D01*
X132995734Y-114224500D01*
X132995730Y-114224500D01*
X132965300Y-114227353D01*
X132965298Y-114227353D01*
X132837119Y-114272206D01*
X132837117Y-114272207D01*
X132727850Y-114352850D01*
X132647207Y-114462117D01*
X132647206Y-114462119D01*
X132621176Y-114536509D01*
X132580454Y-114593285D01*
X132515501Y-114619032D01*
X132446940Y-114605575D01*
X132396537Y-114557188D01*
X132393919Y-114552374D01*
X132329586Y-114427585D01*
X132199731Y-114262462D01*
X132199728Y-114262459D01*
X132040969Y-114124894D01*
X132040958Y-114124885D01*
X131859039Y-114019855D01*
X131859032Y-114019852D01*
X131660516Y-113951144D01*
X131649999Y-113949632D01*
X131649999Y-114815669D01*
X131630314Y-114882709D01*
X131577510Y-114928463D01*
X131508352Y-114938407D01*
X131485737Y-114932951D01*
X131462576Y-114925000D01*
X131368927Y-114925000D01*
X131368926Y-114925000D01*
X131294408Y-114937434D01*
X131225043Y-114929052D01*
X131171222Y-114884498D01*
X131150031Y-114817919D01*
X131150000Y-114815125D01*
X131149999Y-113953740D01*
X131038594Y-113980768D01*
X131038582Y-113980772D01*
X130847497Y-114068037D01*
X130847496Y-114068038D01*
X130676380Y-114189889D01*
X130676374Y-114189895D01*
X130531407Y-114341932D01*
X130417833Y-114518657D01*
X130339755Y-114713685D01*
X130300000Y-114919962D01*
X130299999Y-115049999D01*
X91250400Y-115049999D01*
X91269685Y-114984322D01*
X91286319Y-114963680D01*
X91867856Y-114382143D01*
X92249999Y-114000000D01*
X94644353Y-114000000D01*
X94664834Y-114142456D01*
X94719639Y-114262459D01*
X94724623Y-114273373D01*
X94818872Y-114382143D01*
X94939947Y-114459953D01*
X94939950Y-114459954D01*
X94939949Y-114459954D01*
X95078036Y-114500499D01*
X95078038Y-114500500D01*
X95078039Y-114500500D01*
X95221962Y-114500500D01*
X95221962Y-114500499D01*
X95329121Y-114469035D01*
X95360050Y-114459954D01*
X95360050Y-114459953D01*
X95360053Y-114459953D01*
X95481128Y-114382143D01*
X95575377Y-114273373D01*
X95635165Y-114142457D01*
X95655647Y-114000000D01*
X95635165Y-113857543D01*
X95575377Y-113726627D01*
X95481128Y-113617857D01*
X95360053Y-113540047D01*
X95360051Y-113540046D01*
X95360049Y-113540045D01*
X95360050Y-113540045D01*
X95221963Y-113499500D01*
X95221961Y-113499500D01*
X95078039Y-113499500D01*
X95078036Y-113499500D01*
X94939949Y-113540045D01*
X94818873Y-113617856D01*
X94724623Y-113726626D01*
X94724622Y-113726628D01*
X94664834Y-113857543D01*
X94644353Y-114000000D01*
X92249999Y-114000000D01*
X92750000Y-113500000D01*
X92750000Y-112650000D01*
X129647384Y-112650000D01*
X129668200Y-112848060D01*
X129668201Y-112848062D01*
X129668201Y-112848063D01*
X129729739Y-113037457D01*
X129729744Y-113037469D01*
X129829313Y-113209929D01*
X129829315Y-113209932D01*
X129962569Y-113357927D01*
X129962576Y-113357933D01*
X130123687Y-113474987D01*
X130123688Y-113474987D01*
X130123692Y-113474990D01*
X130269808Y-113540045D01*
X130305620Y-113555990D01*
X130305625Y-113555992D01*
X130500413Y-113597396D01*
X130500416Y-113597396D01*
X130500424Y-113597398D01*
X130600000Y-113600000D01*
X134200000Y-113600000D01*
X134299576Y-113597398D01*
X134299584Y-113597396D01*
X134299586Y-113597396D01*
X134371926Y-113582019D01*
X134494375Y-113555992D01*
X134676308Y-113474990D01*
X134837425Y-113357932D01*
X134878331Y-113312501D01*
X154144318Y-113312501D01*
X154164955Y-113469260D01*
X154164956Y-113469262D01*
X154219109Y-113600000D01*
X154225464Y-113615341D01*
X154321718Y-113740782D01*
X154447159Y-113837036D01*
X154593238Y-113897544D01*
X154671619Y-113907862D01*
X154749999Y-113918182D01*
X154750000Y-113918182D01*
X154750001Y-113918182D01*
X154802253Y-113911302D01*
X154906762Y-113897544D01*
X155052841Y-113837036D01*
X155178282Y-113740782D01*
X155274536Y-113615341D01*
X155335044Y-113469262D01*
X155355682Y-113312500D01*
X155335044Y-113155738D01*
X155274536Y-113009659D01*
X155178282Y-112884218D01*
X155052841Y-112787964D01*
X154906762Y-112727456D01*
X154906760Y-112727455D01*
X154750001Y-112706818D01*
X154749999Y-112706818D01*
X154593239Y-112727455D01*
X154593237Y-112727456D01*
X154447160Y-112787963D01*
X154321718Y-112884218D01*
X154225463Y-113009660D01*
X154164956Y-113155737D01*
X154164955Y-113155739D01*
X154144318Y-113312498D01*
X154144318Y-113312501D01*
X134878331Y-113312501D01*
X134970683Y-113209934D01*
X135001974Y-113155737D01*
X135070255Y-113037469D01*
X135070254Y-113037469D01*
X135070258Y-113037464D01*
X135131800Y-112848060D01*
X135152617Y-112650000D01*
X135131800Y-112451940D01*
X135070258Y-112262536D01*
X135070255Y-112262530D01*
X134970686Y-112090070D01*
X134970684Y-112090067D01*
X134837430Y-111942072D01*
X134837423Y-111942066D01*
X134676312Y-111825012D01*
X134676309Y-111825010D01*
X134676308Y-111825010D01*
X134610246Y-111795597D01*
X134494379Y-111744009D01*
X134494374Y-111744007D01*
X134299586Y-111702603D01*
X134299578Y-111702602D01*
X134200000Y-111700000D01*
X130600000Y-111700000D01*
X130500421Y-111702602D01*
X130500413Y-111702603D01*
X130305625Y-111744007D01*
X130305620Y-111744009D01*
X130123692Y-111825010D01*
X130123687Y-111825012D01*
X129962576Y-111942066D01*
X129962569Y-111942072D01*
X129829315Y-112090067D01*
X129829313Y-112090070D01*
X129729744Y-112262530D01*
X129729739Y-112262542D01*
X129668201Y-112451936D01*
X129668200Y-112451940D01*
X129647384Y-112650000D01*
X92750000Y-112650000D01*
X92750000Y-111435055D01*
X93299500Y-111435055D01*
X93340210Y-111600226D01*
X93419263Y-111750849D01*
X93419266Y-111750852D01*
X93532071Y-111878183D01*
X93622318Y-111940476D01*
X93672068Y-111974817D01*
X93672069Y-111974817D01*
X93672070Y-111974818D01*
X93831128Y-112035140D01*
X93907028Y-112044356D01*
X93957626Y-112050500D01*
X93957628Y-112050500D01*
X94042374Y-112050500D01*
X94084538Y-112045380D01*
X94168872Y-112035140D01*
X94327930Y-111974818D01*
X94467929Y-111878183D01*
X94580734Y-111750852D01*
X94596480Y-111720852D01*
X94659789Y-111600226D01*
X94659790Y-111600225D01*
X94700500Y-111435056D01*
X94700500Y-111405055D01*
X147894500Y-111405055D01*
X147935210Y-111570226D01*
X148014263Y-111720849D01*
X148014266Y-111720852D01*
X148127071Y-111848183D01*
X148217318Y-111910476D01*
X148267068Y-111944817D01*
X148267069Y-111944817D01*
X148267070Y-111944818D01*
X148426128Y-112005140D01*
X148502028Y-112014356D01*
X148552626Y-112020500D01*
X148552628Y-112020500D01*
X149737374Y-112020500D01*
X149779538Y-112015380D01*
X149863872Y-112005140D01*
X150022930Y-111944818D01*
X150162929Y-111848183D01*
X150275734Y-111720852D01*
X150285313Y-111702602D01*
X150339044Y-111600226D01*
X150354790Y-111570225D01*
X150395500Y-111405056D01*
X150395500Y-111405055D01*
X152224500Y-111405055D01*
X152265210Y-111570226D01*
X152344263Y-111720849D01*
X152344266Y-111720852D01*
X152457071Y-111848183D01*
X152547318Y-111910476D01*
X152597068Y-111944817D01*
X152597069Y-111944817D01*
X152597070Y-111944818D01*
X152756128Y-112005140D01*
X152832028Y-112014356D01*
X152882626Y-112020500D01*
X152882628Y-112020500D01*
X153767374Y-112020500D01*
X153809538Y-112015380D01*
X153893872Y-112005140D01*
X154052930Y-111944818D01*
X154192929Y-111848183D01*
X154305734Y-111720852D01*
X154315313Y-111702602D01*
X154369044Y-111600226D01*
X154384790Y-111570225D01*
X154425500Y-111405056D01*
X154425500Y-111234944D01*
X154384790Y-111069775D01*
X154384789Y-111069773D01*
X154305736Y-110919150D01*
X154286560Y-110897505D01*
X154192929Y-110791817D01*
X154143177Y-110757475D01*
X154052931Y-110695182D01*
X153893874Y-110634860D01*
X153893868Y-110634859D01*
X153767374Y-110619500D01*
X153767372Y-110619500D01*
X152882628Y-110619500D01*
X152882626Y-110619500D01*
X152756131Y-110634859D01*
X152756125Y-110634860D01*
X152597068Y-110695182D01*
X152457072Y-110791816D01*
X152344263Y-110919150D01*
X152265210Y-111069773D01*
X152224500Y-111234944D01*
X152224500Y-111405055D01*
X150395500Y-111405055D01*
X150395500Y-111234944D01*
X150354790Y-111069775D01*
X150354789Y-111069773D01*
X150275736Y-110919150D01*
X150256560Y-110897505D01*
X150162929Y-110791817D01*
X150113177Y-110757475D01*
X150022931Y-110695182D01*
X149888248Y-110644104D01*
X149832545Y-110601926D01*
X149808488Y-110536328D01*
X149823715Y-110468138D01*
X149873391Y-110419005D01*
X149884752Y-110413607D01*
X149935233Y-110392698D01*
X150055451Y-110300451D01*
X150147698Y-110180233D01*
X150205687Y-110040236D01*
X150225466Y-109890000D01*
X150205687Y-109739764D01*
X150147698Y-109599767D01*
X150055451Y-109479549D01*
X149935233Y-109387302D01*
X149935229Y-109387300D01*
X149828856Y-109343239D01*
X149795236Y-109329313D01*
X149781171Y-109327461D01*
X149682727Y-109314500D01*
X149682720Y-109314500D01*
X149607280Y-109314500D01*
X149607272Y-109314500D01*
X149494764Y-109329313D01*
X149494763Y-109329313D01*
X149354770Y-109387300D01*
X149354767Y-109387301D01*
X149354767Y-109387302D01*
X149338515Y-109399773D01*
X149234549Y-109479549D01*
X149142300Y-109599770D01*
X149084313Y-109739763D01*
X149084312Y-109739765D01*
X149064534Y-109889999D01*
X149064534Y-109890000D01*
X149084312Y-110040234D01*
X149084313Y-110040236D01*
X149136437Y-110166075D01*
X149142302Y-110180233D01*
X149234549Y-110300451D01*
X149354767Y-110392698D01*
X149354769Y-110392698D01*
X149360536Y-110397124D01*
X149401738Y-110453552D01*
X149405893Y-110523299D01*
X149371680Y-110584219D01*
X149309963Y-110616971D01*
X149285049Y-110619500D01*
X148552626Y-110619500D01*
X148426131Y-110634859D01*
X148426125Y-110634860D01*
X148267068Y-110695182D01*
X148127072Y-110791816D01*
X148014263Y-110919150D01*
X147935210Y-111069773D01*
X147894500Y-111234944D01*
X147894500Y-111405055D01*
X94700500Y-111405055D01*
X94700500Y-111264944D01*
X94659790Y-111099775D01*
X94644044Y-111069773D01*
X94580736Y-110949150D01*
X94554156Y-110919148D01*
X94467929Y-110821817D01*
X94418177Y-110787475D01*
X94327931Y-110725182D01*
X94168874Y-110664860D01*
X94168868Y-110664859D01*
X94042374Y-110649500D01*
X94042372Y-110649500D01*
X93957628Y-110649500D01*
X93957626Y-110649500D01*
X93831131Y-110664859D01*
X93831125Y-110664860D01*
X93672068Y-110725182D01*
X93532072Y-110821816D01*
X93419263Y-110949150D01*
X93340210Y-111099773D01*
X93299500Y-111264944D01*
X93299500Y-111435055D01*
X92750000Y-111435055D01*
X92750000Y-109564944D01*
X93299499Y-109564944D01*
X93299500Y-109564944D01*
X93299500Y-109735056D01*
X93300661Y-109739765D01*
X93340210Y-109900226D01*
X93419263Y-110050849D01*
X93419266Y-110050852D01*
X93532071Y-110178183D01*
X93622318Y-110240476D01*
X93672068Y-110274817D01*
X93672069Y-110274817D01*
X93672070Y-110274818D01*
X93831128Y-110335140D01*
X93907028Y-110344356D01*
X93957626Y-110350500D01*
X93957628Y-110350500D01*
X94042374Y-110350500D01*
X94084538Y-110345380D01*
X94168872Y-110335140D01*
X94327930Y-110274818D01*
X94467929Y-110178183D01*
X94580734Y-110050852D01*
X94588971Y-110035159D01*
X94659789Y-109900226D01*
X94659790Y-109900225D01*
X94700500Y-109735056D01*
X94700500Y-109564944D01*
X94684493Y-109500001D01*
X122181818Y-109500001D01*
X122202455Y-109656760D01*
X122202456Y-109656762D01*
X122262964Y-109802841D01*
X122359218Y-109928282D01*
X122484659Y-110024536D01*
X122630738Y-110085044D01*
X122709119Y-110095363D01*
X122787499Y-110105682D01*
X122787500Y-110105682D01*
X122787501Y-110105682D01*
X122839753Y-110098802D01*
X122944262Y-110085044D01*
X123090341Y-110024536D01*
X123215782Y-109928282D01*
X123312036Y-109802841D01*
X123372544Y-109656762D01*
X123393182Y-109500001D01*
X125106818Y-109500001D01*
X125127455Y-109656760D01*
X125127456Y-109656762D01*
X125187964Y-109802841D01*
X125284218Y-109928282D01*
X125409659Y-110024536D01*
X125555738Y-110085044D01*
X125634119Y-110095363D01*
X125712499Y-110105682D01*
X125712500Y-110105682D01*
X125712501Y-110105682D01*
X125764754Y-110098802D01*
X125869262Y-110085044D01*
X126015341Y-110024536D01*
X126140782Y-109928282D01*
X126168084Y-109892701D01*
X140604746Y-109892701D01*
X140625227Y-110035158D01*
X140648010Y-110085044D01*
X140685016Y-110166075D01*
X140779265Y-110274845D01*
X140900340Y-110352655D01*
X140900343Y-110352656D01*
X140900342Y-110352656D01*
X141038429Y-110393201D01*
X141038431Y-110393202D01*
X141038432Y-110393202D01*
X141182355Y-110393202D01*
X141182355Y-110393201D01*
X141320446Y-110352655D01*
X141441521Y-110274845D01*
X141535770Y-110166075D01*
X141595558Y-110035159D01*
X141616040Y-109892702D01*
X141595558Y-109750245D01*
X141535770Y-109619329D01*
X141441521Y-109510559D01*
X141320446Y-109432749D01*
X141320444Y-109432748D01*
X141320442Y-109432747D01*
X141320443Y-109432747D01*
X141182356Y-109392202D01*
X141182354Y-109392202D01*
X141038432Y-109392202D01*
X141038429Y-109392202D01*
X140900342Y-109432747D01*
X140779266Y-109510558D01*
X140685016Y-109619328D01*
X140685015Y-109619330D01*
X140625227Y-109750245D01*
X140604746Y-109892701D01*
X126168084Y-109892701D01*
X126237036Y-109802841D01*
X126297544Y-109656762D01*
X126318182Y-109500000D01*
X126297544Y-109343238D01*
X126237036Y-109197159D01*
X126140782Y-109071718D01*
X126015341Y-108975464D01*
X125989738Y-108964859D01*
X125869262Y-108914956D01*
X125869260Y-108914955D01*
X125712501Y-108894318D01*
X125712499Y-108894318D01*
X125555739Y-108914955D01*
X125555737Y-108914956D01*
X125409660Y-108975463D01*
X125284218Y-109071718D01*
X125187963Y-109197160D01*
X125127456Y-109343237D01*
X125127455Y-109343239D01*
X125106818Y-109499998D01*
X125106818Y-109500001D01*
X123393182Y-109500001D01*
X123393182Y-109500000D01*
X123372544Y-109343238D01*
X123312036Y-109197159D01*
X123215782Y-109071718D01*
X123090341Y-108975464D01*
X123064738Y-108964859D01*
X122944262Y-108914956D01*
X122944260Y-108914955D01*
X122787501Y-108894318D01*
X122787499Y-108894318D01*
X122630739Y-108914955D01*
X122630737Y-108914956D01*
X122484660Y-108975463D01*
X122359218Y-109071718D01*
X122262963Y-109197160D01*
X122202456Y-109343237D01*
X122202455Y-109343239D01*
X122181818Y-109499998D01*
X122181818Y-109500001D01*
X94684493Y-109500001D01*
X94659790Y-109399775D01*
X94653243Y-109387300D01*
X94580736Y-109249150D01*
X94534676Y-109197159D01*
X94467929Y-109121817D01*
X94395349Y-109071718D01*
X94327931Y-109025182D01*
X94168874Y-108964860D01*
X94168868Y-108964859D01*
X94042374Y-108949500D01*
X94042372Y-108949500D01*
X93957628Y-108949500D01*
X93957626Y-108949500D01*
X93831131Y-108964859D01*
X93831125Y-108964860D01*
X93672068Y-109025182D01*
X93532072Y-109121816D01*
X93419263Y-109249150D01*
X93340210Y-109399773D01*
X93299499Y-109564944D01*
X92750000Y-109564944D01*
X92750000Y-107849500D01*
X140494353Y-107849500D01*
X140514834Y-107991956D01*
X140574622Y-108122871D01*
X140574623Y-108122873D01*
X140668872Y-108231643D01*
X140789947Y-108309453D01*
X140789950Y-108309454D01*
X140789949Y-108309454D01*
X140928036Y-108349999D01*
X140928038Y-108350000D01*
X140928039Y-108350000D01*
X141071962Y-108350000D01*
X141071962Y-108349999D01*
X141210053Y-108309453D01*
X141331128Y-108231643D01*
X141425377Y-108122873D01*
X141485165Y-107991957D01*
X141505647Y-107849500D01*
X141485165Y-107707043D01*
X141425377Y-107576127D01*
X141331128Y-107467357D01*
X141210053Y-107389547D01*
X141210051Y-107389546D01*
X141210049Y-107389545D01*
X141210050Y-107389545D01*
X141071963Y-107349000D01*
X141071961Y-107349000D01*
X140928039Y-107349000D01*
X140928036Y-107349000D01*
X140789949Y-107389545D01*
X140668873Y-107467356D01*
X140574623Y-107576126D01*
X140574622Y-107576128D01*
X140514834Y-107707043D01*
X140494353Y-107849500D01*
X92750000Y-107849500D01*
X92750000Y-106199999D01*
X109094353Y-106199999D01*
X109114834Y-106342456D01*
X109160353Y-106442126D01*
X109174623Y-106473373D01*
X109268872Y-106582143D01*
X109389947Y-106659953D01*
X109389950Y-106659954D01*
X109389949Y-106659954D01*
X109528036Y-106700499D01*
X109528038Y-106700500D01*
X109528039Y-106700500D01*
X109671962Y-106700500D01*
X109671962Y-106700499D01*
X109810053Y-106659953D01*
X109931128Y-106582143D01*
X110025377Y-106473373D01*
X110085165Y-106342457D01*
X110105647Y-106200000D01*
X110085165Y-106057543D01*
X110025377Y-105926627D01*
X109931128Y-105817857D01*
X109810053Y-105740047D01*
X109810051Y-105740046D01*
X109810049Y-105740045D01*
X109810050Y-105740045D01*
X109671963Y-105699500D01*
X109671961Y-105699500D01*
X109528039Y-105699500D01*
X109528036Y-105699500D01*
X109389949Y-105740045D01*
X109268873Y-105817856D01*
X109174623Y-105926626D01*
X109174622Y-105926628D01*
X109114834Y-106057543D01*
X109094353Y-106199999D01*
X92750000Y-106199999D01*
X92750000Y-105599999D01*
X96694353Y-105599999D01*
X96714834Y-105742456D01*
X96748721Y-105816657D01*
X96774623Y-105873373D01*
X96868872Y-105982143D01*
X96989947Y-106059953D01*
X96989950Y-106059954D01*
X96989949Y-106059954D01*
X97128036Y-106100499D01*
X97128038Y-106100500D01*
X97128039Y-106100500D01*
X97271962Y-106100500D01*
X97271962Y-106100499D01*
X97410053Y-106059953D01*
X97531128Y-105982143D01*
X97625377Y-105873373D01*
X97685165Y-105742457D01*
X97705647Y-105600000D01*
X103974353Y-105600000D01*
X103994834Y-105742456D01*
X104028721Y-105816657D01*
X104054623Y-105873373D01*
X104148872Y-105982143D01*
X104269947Y-106059953D01*
X104269950Y-106059954D01*
X104269949Y-106059954D01*
X104408036Y-106100499D01*
X104408038Y-106100500D01*
X104408039Y-106100500D01*
X104551962Y-106100500D01*
X104551962Y-106100499D01*
X104690053Y-106059953D01*
X104811128Y-105982143D01*
X104905377Y-105873373D01*
X104965165Y-105742457D01*
X104985647Y-105600000D01*
X112419353Y-105600000D01*
X112439834Y-105742456D01*
X112473721Y-105816657D01*
X112499623Y-105873373D01*
X112593872Y-105982143D01*
X112714947Y-106059953D01*
X112714950Y-106059954D01*
X112714949Y-106059954D01*
X112853036Y-106100499D01*
X112853038Y-106100500D01*
X112853039Y-106100500D01*
X112996962Y-106100500D01*
X112996962Y-106100499D01*
X113135050Y-106059954D01*
X113135051Y-106059954D01*
X113143519Y-106054512D01*
X113225683Y-106001708D01*
X113292722Y-105982024D01*
X113359761Y-106001708D01*
X113405516Y-106054512D01*
X113415460Y-106123671D01*
X113405517Y-106157533D01*
X113397678Y-106174697D01*
X113397677Y-106174699D01*
X113377196Y-106317157D01*
X113397677Y-106459613D01*
X113453636Y-106582143D01*
X113457466Y-106590530D01*
X113551715Y-106699300D01*
X113672790Y-106777110D01*
X113672793Y-106777111D01*
X113672792Y-106777111D01*
X113810879Y-106817656D01*
X113810881Y-106817657D01*
X113810882Y-106817657D01*
X113954805Y-106817657D01*
X113954805Y-106817656D01*
X114092896Y-106777110D01*
X114213971Y-106699300D01*
X114308220Y-106590530D01*
X114310936Y-106584583D01*
X120537959Y-106584583D01*
X120558440Y-106727039D01*
X120581307Y-106777110D01*
X120618229Y-106857956D01*
X120712478Y-106966726D01*
X120833553Y-107044536D01*
X120833556Y-107044537D01*
X120833555Y-107044537D01*
X120971642Y-107085082D01*
X120971644Y-107085083D01*
X120971645Y-107085083D01*
X121115568Y-107085083D01*
X121115568Y-107085082D01*
X121253659Y-107044536D01*
X121374734Y-106966726D01*
X121468983Y-106857956D01*
X121528771Y-106727040D01*
X121549253Y-106584583D01*
X121528771Y-106442126D01*
X121468983Y-106311210D01*
X121374734Y-106202440D01*
X121340231Y-106180266D01*
X136673285Y-106180266D01*
X136832056Y-106235824D01*
X136999996Y-106254746D01*
X137000004Y-106254746D01*
X137167943Y-106235824D01*
X137326713Y-106180267D01*
X137326714Y-106180266D01*
X137673285Y-106180266D01*
X137832056Y-106235824D01*
X137999996Y-106254746D01*
X138000004Y-106254746D01*
X138167943Y-106235824D01*
X138326713Y-106180267D01*
X138326714Y-106180266D01*
X138000001Y-105853553D01*
X138000000Y-105853553D01*
X137673285Y-106180266D01*
X137326714Y-106180266D01*
X137000001Y-105853553D01*
X137000000Y-105853553D01*
X136673285Y-106180266D01*
X121340231Y-106180266D01*
X121253659Y-106124630D01*
X121253657Y-106124629D01*
X121253655Y-106124628D01*
X121253656Y-106124628D01*
X121115569Y-106084083D01*
X121115567Y-106084083D01*
X120971645Y-106084083D01*
X120971642Y-106084083D01*
X120833555Y-106124628D01*
X120712479Y-106202439D01*
X120618229Y-106311209D01*
X120618228Y-106311211D01*
X120558440Y-106442126D01*
X120537959Y-106584583D01*
X114310936Y-106584583D01*
X114368008Y-106459614D01*
X114388490Y-106317157D01*
X114368008Y-106174700D01*
X114308220Y-106043784D01*
X114213971Y-105935014D01*
X114092896Y-105857204D01*
X114092894Y-105857203D01*
X114092892Y-105857202D01*
X114092893Y-105857202D01*
X113954806Y-105816657D01*
X113954804Y-105816657D01*
X113810882Y-105816657D01*
X113810879Y-105816657D01*
X113672792Y-105857202D01*
X113582159Y-105915448D01*
X113515119Y-105935132D01*
X113448080Y-105915447D01*
X113402325Y-105862642D01*
X113392382Y-105793484D01*
X113402324Y-105759624D01*
X113410165Y-105742457D01*
X113430647Y-105600000D01*
X113410165Y-105457543D01*
X113397708Y-105430266D01*
X119923285Y-105430266D01*
X120082056Y-105485824D01*
X120249996Y-105504746D01*
X120250004Y-105504746D01*
X120417943Y-105485824D01*
X120576713Y-105430267D01*
X120576714Y-105430266D01*
X120923285Y-105430266D01*
X121082056Y-105485824D01*
X121249996Y-105504746D01*
X121250004Y-105504746D01*
X121292100Y-105500003D01*
X136245254Y-105500003D01*
X136264175Y-105667938D01*
X136264176Y-105667943D01*
X136319732Y-105826714D01*
X136613955Y-105532492D01*
X136900000Y-105532492D01*
X136938197Y-105585065D01*
X136984162Y-105600000D01*
X136984163Y-105600000D01*
X137015837Y-105600000D01*
X137015838Y-105600000D01*
X137061803Y-105585065D01*
X137100000Y-105532492D01*
X137100000Y-105500000D01*
X137353553Y-105500000D01*
X137500000Y-105646447D01*
X137613955Y-105532492D01*
X137900000Y-105532492D01*
X137938197Y-105585065D01*
X137984162Y-105600000D01*
X137984163Y-105600000D01*
X138015837Y-105600000D01*
X138015838Y-105600000D01*
X138061803Y-105585065D01*
X138100000Y-105532492D01*
X138100000Y-105500001D01*
X138353553Y-105500001D01*
X138680266Y-105826714D01*
X138680267Y-105826713D01*
X138735824Y-105667943D01*
X138754746Y-105500003D01*
X138754746Y-105499996D01*
X138735824Y-105332056D01*
X138680266Y-105173285D01*
X138353553Y-105499999D01*
X138353553Y-105500001D01*
X138100000Y-105500001D01*
X138100000Y-105467508D01*
X138061803Y-105414935D01*
X138061802Y-105414934D01*
X138015839Y-105400000D01*
X138015838Y-105400000D01*
X137984162Y-105400000D01*
X137984160Y-105400000D01*
X137938196Y-105414935D01*
X137907240Y-105457543D01*
X137900000Y-105467508D01*
X137900000Y-105532492D01*
X137613955Y-105532492D01*
X137646447Y-105500000D01*
X137500000Y-105353553D01*
X137353553Y-105500000D01*
X137100000Y-105500000D01*
X137100000Y-105467508D01*
X137061803Y-105414935D01*
X137061802Y-105414934D01*
X137015839Y-105400000D01*
X137015838Y-105400000D01*
X136984162Y-105400000D01*
X136984160Y-105400000D01*
X136938196Y-105414935D01*
X136907240Y-105457543D01*
X136900000Y-105467508D01*
X136900000Y-105532492D01*
X136613955Y-105532492D01*
X136646447Y-105500000D01*
X136646447Y-105499999D01*
X136319732Y-105173285D01*
X136264176Y-105332053D01*
X136264175Y-105332058D01*
X136245254Y-105499996D01*
X136245254Y-105500003D01*
X121292100Y-105500003D01*
X121417943Y-105485824D01*
X121576713Y-105430267D01*
X121576714Y-105430266D01*
X121250001Y-105103553D01*
X121250000Y-105103553D01*
X120923285Y-105430266D01*
X120576714Y-105430266D01*
X120250001Y-105103553D01*
X120250000Y-105103553D01*
X119923285Y-105430266D01*
X113397708Y-105430266D01*
X113350377Y-105326627D01*
X113256128Y-105217857D01*
X113135053Y-105140047D01*
X113135051Y-105140046D01*
X113135049Y-105140045D01*
X113135050Y-105140045D01*
X112996963Y-105099500D01*
X112996961Y-105099500D01*
X112853039Y-105099500D01*
X112853036Y-105099500D01*
X112714949Y-105140045D01*
X112593873Y-105217856D01*
X112499623Y-105326626D01*
X112499622Y-105326628D01*
X112439834Y-105457543D01*
X112419353Y-105600000D01*
X104985647Y-105600000D01*
X104965165Y-105457543D01*
X104905377Y-105326627D01*
X104811128Y-105217857D01*
X104690053Y-105140047D01*
X104690051Y-105140046D01*
X104690049Y-105140045D01*
X104690050Y-105140045D01*
X104551963Y-105099500D01*
X104551961Y-105099500D01*
X104408039Y-105099500D01*
X104408036Y-105099500D01*
X104269949Y-105140045D01*
X104148873Y-105217856D01*
X104054623Y-105326626D01*
X104054622Y-105326628D01*
X103994834Y-105457543D01*
X103974353Y-105600000D01*
X97705647Y-105600000D01*
X97685165Y-105457543D01*
X97625377Y-105326627D01*
X97531128Y-105217857D01*
X97410053Y-105140047D01*
X97410051Y-105140046D01*
X97410049Y-105140045D01*
X97410050Y-105140045D01*
X97271963Y-105099500D01*
X97271961Y-105099500D01*
X97128039Y-105099500D01*
X97128036Y-105099500D01*
X96989949Y-105140045D01*
X96868873Y-105217856D01*
X96774623Y-105326626D01*
X96774622Y-105326628D01*
X96714834Y-105457543D01*
X96694353Y-105599999D01*
X92750000Y-105599999D01*
X92750000Y-104585056D01*
X93469500Y-104585056D01*
X93476313Y-104612698D01*
X93510210Y-104750226D01*
X93589263Y-104900849D01*
X93589266Y-104900852D01*
X93702071Y-105028183D01*
X93772380Y-105076714D01*
X93842068Y-105124817D01*
X93842069Y-105124817D01*
X93842070Y-105124818D01*
X93861385Y-105132143D01*
X93969868Y-105173285D01*
X94001128Y-105185140D01*
X94077028Y-105194356D01*
X94127626Y-105200500D01*
X94127628Y-105200500D01*
X94212374Y-105200500D01*
X94254538Y-105195380D01*
X94338872Y-105185140D01*
X94497930Y-105124818D01*
X94637929Y-105028183D01*
X94750734Y-104900852D01*
X94753047Y-104896446D01*
X94812855Y-104782491D01*
X94829790Y-104750225D01*
X94829845Y-104750000D01*
X114606853Y-104750000D01*
X114609797Y-104770480D01*
X114627334Y-104892456D01*
X114638974Y-104917943D01*
X114687123Y-105023373D01*
X114781372Y-105132143D01*
X114902447Y-105209953D01*
X114902450Y-105209954D01*
X114902449Y-105209954D01*
X115040536Y-105250499D01*
X115040538Y-105250500D01*
X115040539Y-105250500D01*
X115184462Y-105250500D01*
X115184462Y-105250499D01*
X115322553Y-105209953D01*
X115443628Y-105132143D01*
X115462537Y-105110319D01*
X115521313Y-105072546D01*
X115591183Y-105072544D01*
X115649960Y-105110317D01*
X115668872Y-105132143D01*
X115789947Y-105209953D01*
X115789950Y-105209954D01*
X115789949Y-105209954D01*
X115928036Y-105250499D01*
X115928038Y-105250500D01*
X115928039Y-105250500D01*
X116071962Y-105250500D01*
X116071962Y-105250499D01*
X116210053Y-105209953D01*
X116331128Y-105132143D01*
X116425377Y-105023373D01*
X116485165Y-104892457D01*
X116505647Y-104750003D01*
X119495254Y-104750003D01*
X119514175Y-104917938D01*
X119514176Y-104917943D01*
X119569732Y-105076714D01*
X119863955Y-104782492D01*
X120150000Y-104782492D01*
X120177751Y-104820688D01*
X120182129Y-104826714D01*
X120188197Y-104835065D01*
X120234162Y-104850000D01*
X120234163Y-104850000D01*
X120265837Y-104850000D01*
X120265838Y-104850000D01*
X120311803Y-104835065D01*
X120350000Y-104782492D01*
X120350000Y-104749999D01*
X120603553Y-104749999D01*
X120750000Y-104896446D01*
X120863954Y-104782492D01*
X121150000Y-104782492D01*
X121177751Y-104820688D01*
X121182129Y-104826714D01*
X121188197Y-104835065D01*
X121234162Y-104850000D01*
X121234163Y-104850000D01*
X121265837Y-104850000D01*
X121265838Y-104850000D01*
X121311803Y-104835065D01*
X121350000Y-104782492D01*
X121350000Y-104750001D01*
X121603553Y-104750001D01*
X121930266Y-105076714D01*
X121930267Y-105076713D01*
X121957111Y-105000000D01*
X136853553Y-105000000D01*
X137000000Y-105146446D01*
X137146446Y-105000000D01*
X137853553Y-105000000D01*
X138000000Y-105146447D01*
X138146447Y-105000000D01*
X138146447Y-104999999D01*
X138000000Y-104853553D01*
X137853553Y-105000000D01*
X137146446Y-105000000D01*
X137146447Y-104999999D01*
X137000000Y-104853553D01*
X136853553Y-105000000D01*
X121957111Y-105000000D01*
X121985824Y-104917943D01*
X122004746Y-104750003D01*
X122004746Y-104749996D01*
X121985824Y-104582056D01*
X121930266Y-104423285D01*
X121603553Y-104749999D01*
X121603553Y-104750001D01*
X121350000Y-104750001D01*
X121350000Y-104717508D01*
X121311803Y-104664935D01*
X121287822Y-104657143D01*
X121265839Y-104650000D01*
X121265838Y-104650000D01*
X121234162Y-104650000D01*
X121234160Y-104650000D01*
X121188196Y-104664935D01*
X121173256Y-104685499D01*
X121150000Y-104717508D01*
X121150000Y-104782492D01*
X120863954Y-104782492D01*
X120896445Y-104750001D01*
X120896445Y-104750000D01*
X120750000Y-104603553D01*
X120603553Y-104749999D01*
X120350000Y-104749999D01*
X120350000Y-104717508D01*
X120311803Y-104664935D01*
X120287822Y-104657143D01*
X120265839Y-104650000D01*
X120265838Y-104650000D01*
X120234162Y-104650000D01*
X120234160Y-104650000D01*
X120188196Y-104664935D01*
X120173256Y-104685499D01*
X120150000Y-104717508D01*
X120150000Y-104782492D01*
X119863955Y-104782492D01*
X119896447Y-104750000D01*
X119569732Y-104423285D01*
X119514176Y-104582053D01*
X119514175Y-104582058D01*
X119495254Y-104749996D01*
X119495254Y-104750003D01*
X116505647Y-104750003D01*
X116505647Y-104750000D01*
X116485165Y-104607543D01*
X116425377Y-104476627D01*
X116331128Y-104367857D01*
X116210053Y-104290047D01*
X116210051Y-104290046D01*
X116210049Y-104290045D01*
X116210050Y-104290045D01*
X116071963Y-104249500D01*
X116071961Y-104249500D01*
X115928039Y-104249500D01*
X115928036Y-104249500D01*
X115789949Y-104290045D01*
X115668873Y-104367856D01*
X115668872Y-104367856D01*
X115668872Y-104367857D01*
X115649961Y-104389680D01*
X115591185Y-104427454D01*
X115521315Y-104427454D01*
X115462538Y-104389680D01*
X115443628Y-104367857D01*
X115322553Y-104290047D01*
X115322551Y-104290046D01*
X115322549Y-104290045D01*
X115322550Y-104290045D01*
X115184463Y-104249500D01*
X115184461Y-104249500D01*
X115040539Y-104249500D01*
X115040536Y-104249500D01*
X114902449Y-104290045D01*
X114781373Y-104367856D01*
X114687123Y-104476626D01*
X114687122Y-104476628D01*
X114627334Y-104607543D01*
X114606853Y-104749999D01*
X114606853Y-104750000D01*
X94829845Y-104750000D01*
X94870500Y-104585056D01*
X94870500Y-104414944D01*
X94829790Y-104249775D01*
X94775559Y-104146447D01*
X94750736Y-104099150D01*
X94724674Y-104069732D01*
X119923285Y-104069732D01*
X120250000Y-104396447D01*
X120250001Y-104396447D01*
X120576714Y-104069732D01*
X120923284Y-104069732D01*
X121249998Y-104396447D01*
X121249999Y-104396447D01*
X121371447Y-104274999D01*
X122219353Y-104274999D01*
X122239834Y-104417456D01*
X122277532Y-104500001D01*
X122299623Y-104548373D01*
X122393872Y-104657143D01*
X122514947Y-104734953D01*
X122514950Y-104734954D01*
X122514949Y-104734954D01*
X122653036Y-104775499D01*
X122653038Y-104775500D01*
X122653039Y-104775500D01*
X122796962Y-104775500D01*
X122796962Y-104775499D01*
X122935053Y-104734953D01*
X123056128Y-104657143D01*
X123150377Y-104548373D01*
X123172467Y-104500003D01*
X136245254Y-104500003D01*
X136264175Y-104667938D01*
X136264176Y-104667943D01*
X136319732Y-104826714D01*
X136613955Y-104532492D01*
X136900000Y-104532492D01*
X136927751Y-104570688D01*
X136938189Y-104585055D01*
X136938197Y-104585065D01*
X136984162Y-104600000D01*
X136984163Y-104600000D01*
X137015837Y-104600000D01*
X137015838Y-104600000D01*
X137061803Y-104585065D01*
X137100000Y-104532492D01*
X137100000Y-104500000D01*
X137353553Y-104500000D01*
X137500000Y-104646447D01*
X137613955Y-104532492D01*
X137900000Y-104532492D01*
X137927751Y-104570688D01*
X137938189Y-104585055D01*
X137938197Y-104585065D01*
X137984162Y-104600000D01*
X137984163Y-104600000D01*
X138015837Y-104600000D01*
X138015838Y-104600000D01*
X138061803Y-104585065D01*
X138100000Y-104532492D01*
X138100000Y-104500001D01*
X138353553Y-104500001D01*
X138680266Y-104826714D01*
X138680267Y-104826713D01*
X138735824Y-104667943D01*
X138754746Y-104500003D01*
X138754746Y-104499996D01*
X138735824Y-104332056D01*
X138680266Y-104173285D01*
X138353553Y-104499999D01*
X138353553Y-104500001D01*
X138100000Y-104500001D01*
X138100000Y-104467508D01*
X138061803Y-104414935D01*
X138061802Y-104414934D01*
X138015839Y-104400000D01*
X138015838Y-104400000D01*
X137984162Y-104400000D01*
X137984160Y-104400000D01*
X137938196Y-104414935D01*
X137929101Y-104427454D01*
X137900000Y-104467508D01*
X137900000Y-104532492D01*
X137613955Y-104532492D01*
X137646447Y-104500000D01*
X137500000Y-104353553D01*
X137353553Y-104500000D01*
X137100000Y-104500000D01*
X137100000Y-104467508D01*
X137061803Y-104414935D01*
X137061802Y-104414934D01*
X137015839Y-104400000D01*
X137015838Y-104400000D01*
X136984162Y-104400000D01*
X136984160Y-104400000D01*
X136938196Y-104414935D01*
X136929101Y-104427454D01*
X136900000Y-104467508D01*
X136900000Y-104532492D01*
X136613955Y-104532492D01*
X136646447Y-104500000D01*
X136646447Y-104499999D01*
X136319732Y-104173285D01*
X136264176Y-104332053D01*
X136264175Y-104332058D01*
X136245254Y-104499996D01*
X136245254Y-104500003D01*
X123172467Y-104500003D01*
X123210165Y-104417457D01*
X123230647Y-104275000D01*
X123210165Y-104132543D01*
X123150377Y-104001627D01*
X123056128Y-103892857D01*
X122935053Y-103815047D01*
X122935051Y-103815046D01*
X122935049Y-103815045D01*
X122935050Y-103815045D01*
X122796963Y-103774500D01*
X122796961Y-103774500D01*
X122653039Y-103774500D01*
X122653036Y-103774500D01*
X122514949Y-103815045D01*
X122393873Y-103892856D01*
X122299623Y-104001626D01*
X122299622Y-104001628D01*
X122239834Y-104132543D01*
X122219353Y-104274999D01*
X121371447Y-104274999D01*
X121576714Y-104069732D01*
X121417943Y-104014176D01*
X121417938Y-104014175D01*
X121250004Y-103995254D01*
X121249996Y-103995254D01*
X121082058Y-104014175D01*
X121082053Y-104014176D01*
X120923284Y-104069732D01*
X120576714Y-104069732D01*
X120417943Y-104014176D01*
X120417938Y-104014175D01*
X120250004Y-103995254D01*
X120249996Y-103995254D01*
X120082058Y-104014175D01*
X120082053Y-104014176D01*
X119923285Y-104069732D01*
X94724674Y-104069732D01*
X94637929Y-103971817D01*
X94574857Y-103928281D01*
X94497931Y-103875182D01*
X94338874Y-103814860D01*
X94338868Y-103814859D01*
X94212374Y-103799500D01*
X94212372Y-103799500D01*
X94127628Y-103799500D01*
X94127626Y-103799500D01*
X94001131Y-103814859D01*
X94001125Y-103814860D01*
X93842068Y-103875182D01*
X93702072Y-103971816D01*
X93589263Y-104099150D01*
X93510210Y-104249773D01*
X93489930Y-104332056D01*
X93469500Y-104414944D01*
X93469500Y-104585056D01*
X92750000Y-104585056D01*
X92750000Y-103525000D01*
X95769353Y-103525000D01*
X95789834Y-103667456D01*
X95804491Y-103699549D01*
X95849623Y-103798373D01*
X95943872Y-103907143D01*
X96064947Y-103984953D01*
X96064950Y-103984954D01*
X96064949Y-103984954D01*
X96203036Y-104025499D01*
X96203038Y-104025500D01*
X96203039Y-104025500D01*
X96346962Y-104025500D01*
X96346962Y-104025499D01*
X96485053Y-103984953D01*
X96606128Y-103907143D01*
X96700377Y-103798373D01*
X96760165Y-103667457D01*
X96780647Y-103525000D01*
X96777053Y-103500000D01*
X98694853Y-103500000D01*
X98697797Y-103520480D01*
X98715334Y-103642456D01*
X98733284Y-103681760D01*
X98775123Y-103773373D01*
X98869372Y-103882143D01*
X98990447Y-103959953D01*
X98990450Y-103959954D01*
X98990449Y-103959954D01*
X99097607Y-103991417D01*
X99126836Y-104000000D01*
X99128536Y-104000499D01*
X99128538Y-104000500D01*
X99128539Y-104000500D01*
X99272462Y-104000500D01*
X99272462Y-104000499D01*
X99410553Y-103959953D01*
X99531628Y-103882143D01*
X99625877Y-103773373D01*
X99685665Y-103642457D01*
X99706147Y-103500000D01*
X99685665Y-103357543D01*
X99625877Y-103226627D01*
X99531628Y-103117857D01*
X99410553Y-103040047D01*
X99410551Y-103040046D01*
X99410549Y-103040045D01*
X99410550Y-103040045D01*
X99272463Y-102999500D01*
X99272461Y-102999500D01*
X99128539Y-102999500D01*
X99128536Y-102999500D01*
X98990449Y-103040045D01*
X98869373Y-103117856D01*
X98775123Y-103226626D01*
X98775122Y-103226628D01*
X98715334Y-103357543D01*
X98694853Y-103499997D01*
X98694853Y-103500000D01*
X96777053Y-103500000D01*
X96760165Y-103382543D01*
X96700377Y-103251627D01*
X96606128Y-103142857D01*
X96485053Y-103065047D01*
X96485051Y-103065046D01*
X96485049Y-103065045D01*
X96485050Y-103065045D01*
X96346963Y-103024500D01*
X96346961Y-103024500D01*
X96203039Y-103024500D01*
X96203036Y-103024500D01*
X96064949Y-103065045D01*
X95943873Y-103142856D01*
X95849623Y-103251626D01*
X95849622Y-103251628D01*
X95789834Y-103382543D01*
X95769353Y-103525000D01*
X92750000Y-103525000D01*
X92750000Y-102950001D01*
X108394318Y-102950001D01*
X108414955Y-103106760D01*
X108414956Y-103106762D01*
X108474961Y-103251628D01*
X108475464Y-103252841D01*
X108571718Y-103378282D01*
X108697159Y-103474536D01*
X108843238Y-103535044D01*
X108900313Y-103542558D01*
X108999999Y-103555682D01*
X109000000Y-103555682D01*
X109000001Y-103555682D01*
X109052253Y-103548802D01*
X109156762Y-103535044D01*
X109289008Y-103480266D01*
X112123285Y-103480266D01*
X112282056Y-103535824D01*
X112449996Y-103554746D01*
X112450004Y-103554746D01*
X112617941Y-103535824D01*
X112781896Y-103478452D01*
X112780746Y-103477713D01*
X112915990Y-103477713D01*
X113082056Y-103535824D01*
X113249996Y-103554746D01*
X113250004Y-103554746D01*
X113417941Y-103535824D01*
X113581896Y-103478452D01*
X113580746Y-103477713D01*
X113715990Y-103477713D01*
X113882056Y-103535824D01*
X114049996Y-103554746D01*
X114050004Y-103554746D01*
X114217943Y-103535824D01*
X114376713Y-103480267D01*
X114376714Y-103480266D01*
X114146449Y-103250001D01*
X125894318Y-103250001D01*
X125914955Y-103406760D01*
X125914956Y-103406762D01*
X125974002Y-103549313D01*
X125975464Y-103552841D01*
X126071718Y-103678282D01*
X126197159Y-103774536D01*
X126343238Y-103835044D01*
X126421619Y-103845363D01*
X126499999Y-103855682D01*
X126500000Y-103855682D01*
X126500001Y-103855682D01*
X126552254Y-103848802D01*
X126656762Y-103835044D01*
X126802841Y-103774536D01*
X126928282Y-103678282D01*
X127024536Y-103552841D01*
X127036068Y-103525001D01*
X133419318Y-103525001D01*
X133439955Y-103681760D01*
X133439956Y-103681762D01*
X133497119Y-103819767D01*
X133500464Y-103827841D01*
X133596718Y-103953282D01*
X133722159Y-104049536D01*
X133868238Y-104110044D01*
X133946619Y-104120363D01*
X134024999Y-104130682D01*
X134025000Y-104130682D01*
X134025001Y-104130682D01*
X134077253Y-104123802D01*
X134181762Y-104110044D01*
X134327841Y-104049536D01*
X134392398Y-104000000D01*
X136853553Y-104000000D01*
X137000000Y-104146447D01*
X137146447Y-104000000D01*
X137853552Y-104000000D01*
X138000000Y-104146447D01*
X138146447Y-104000000D01*
X138146447Y-103999999D01*
X138000001Y-103853553D01*
X137853552Y-104000000D01*
X137146447Y-104000000D01*
X137000000Y-103853553D01*
X136853553Y-103999999D01*
X136853553Y-104000000D01*
X134392398Y-104000000D01*
X134453282Y-103953282D01*
X134549536Y-103827841D01*
X134610044Y-103681762D01*
X134627481Y-103549313D01*
X134630682Y-103525001D01*
X134630682Y-103524998D01*
X134627391Y-103500003D01*
X136245254Y-103500003D01*
X136264175Y-103667938D01*
X136264176Y-103667943D01*
X136319732Y-103826713D01*
X136319732Y-103826714D01*
X136613953Y-103532492D01*
X136900000Y-103532492D01*
X136938197Y-103585065D01*
X136984162Y-103600000D01*
X136984163Y-103600000D01*
X137015837Y-103600000D01*
X137015838Y-103600000D01*
X137061803Y-103585065D01*
X137100000Y-103532492D01*
X137100000Y-103499999D01*
X137353552Y-103499999D01*
X137500000Y-103646447D01*
X137613954Y-103532492D01*
X137900000Y-103532492D01*
X137938197Y-103585065D01*
X137984162Y-103600000D01*
X137984163Y-103600000D01*
X138015837Y-103600000D01*
X138015838Y-103600000D01*
X138061803Y-103585065D01*
X138100000Y-103532492D01*
X138100000Y-103499999D01*
X138353553Y-103499999D01*
X138680266Y-103826714D01*
X138680267Y-103826714D01*
X138735824Y-103667943D01*
X138754746Y-103500003D01*
X138754746Y-103500001D01*
X140644318Y-103500001D01*
X140664955Y-103656760D01*
X140664956Y-103656762D01*
X140675310Y-103681760D01*
X140725464Y-103802841D01*
X140821718Y-103928282D01*
X140947159Y-104024536D01*
X141093238Y-104085044D01*
X141171618Y-104095363D01*
X141249999Y-104105682D01*
X141250000Y-104105682D01*
X141250001Y-104105682D01*
X141302253Y-104098802D01*
X141406762Y-104085044D01*
X141552841Y-104024536D01*
X141678282Y-103928282D01*
X141774536Y-103802841D01*
X141835044Y-103656762D01*
X141855682Y-103500000D01*
X141855681Y-103499996D01*
X141835044Y-103343239D01*
X141835044Y-103343238D01*
X141774536Y-103197159D01*
X141678282Y-103071718D01*
X141552841Y-102975464D01*
X141406762Y-102914956D01*
X141406760Y-102914955D01*
X141250001Y-102894318D01*
X141249999Y-102894318D01*
X141093239Y-102914955D01*
X141093237Y-102914956D01*
X140947160Y-102975463D01*
X140821718Y-103071718D01*
X140725463Y-103197160D01*
X140664956Y-103343237D01*
X140664955Y-103343239D01*
X140644318Y-103499998D01*
X140644318Y-103500001D01*
X138754746Y-103500001D01*
X138754746Y-103499996D01*
X138735824Y-103332056D01*
X138680266Y-103173285D01*
X138680266Y-103173284D01*
X138353553Y-103499997D01*
X138353553Y-103499999D01*
X138100000Y-103499999D01*
X138100000Y-103467508D01*
X138061803Y-103414935D01*
X138061802Y-103414934D01*
X138015839Y-103400000D01*
X138015838Y-103400000D01*
X137984162Y-103400000D01*
X137984160Y-103400000D01*
X137938196Y-103414935D01*
X137910549Y-103452989D01*
X137900000Y-103467508D01*
X137900000Y-103532492D01*
X137613954Y-103532492D01*
X137646447Y-103499999D01*
X137500001Y-103353553D01*
X137353552Y-103499999D01*
X137100000Y-103499999D01*
X137100000Y-103467508D01*
X137061803Y-103414935D01*
X137061802Y-103414934D01*
X137015839Y-103400000D01*
X137015838Y-103400000D01*
X136984162Y-103400000D01*
X136984160Y-103400000D01*
X136938196Y-103414935D01*
X136910549Y-103452989D01*
X136900000Y-103467508D01*
X136900000Y-103532492D01*
X136613953Y-103532492D01*
X136646446Y-103499999D01*
X136646446Y-103499998D01*
X136319732Y-103173285D01*
X136264176Y-103332053D01*
X136264175Y-103332058D01*
X136245254Y-103499996D01*
X136245254Y-103500003D01*
X134627391Y-103500003D01*
X134614250Y-103400185D01*
X134610044Y-103368238D01*
X134549536Y-103222159D01*
X134453282Y-103096718D01*
X134327841Y-103000464D01*
X134267483Y-102975463D01*
X134181762Y-102939956D01*
X134181760Y-102939955D01*
X134025001Y-102919318D01*
X134024999Y-102919318D01*
X133868239Y-102939955D01*
X133868237Y-102939956D01*
X133722160Y-103000463D01*
X133596718Y-103096718D01*
X133500463Y-103222160D01*
X133439956Y-103368237D01*
X133439955Y-103368239D01*
X133419318Y-103524998D01*
X133419318Y-103525001D01*
X127036068Y-103525001D01*
X127085044Y-103406762D01*
X127105682Y-103250000D01*
X127098725Y-103197159D01*
X127085044Y-103093239D01*
X127085044Y-103093238D01*
X127024536Y-102947159D01*
X126928282Y-102821718D01*
X126925694Y-102819732D01*
X136673284Y-102819732D01*
X136999998Y-103146447D01*
X136999999Y-103146447D01*
X137326714Y-102819732D01*
X137673285Y-102819732D01*
X138000000Y-103146447D01*
X138000001Y-103146447D01*
X138326714Y-102819732D01*
X138170458Y-102765056D01*
X147894500Y-102765056D01*
X147903112Y-102799996D01*
X147935210Y-102930226D01*
X148014263Y-103080849D01*
X148014266Y-103080852D01*
X148127071Y-103208183D01*
X148190009Y-103251626D01*
X148267068Y-103304817D01*
X148267069Y-103304817D01*
X148267070Y-103304818D01*
X148338884Y-103332053D01*
X148415087Y-103360953D01*
X148426128Y-103365140D01*
X148502028Y-103374356D01*
X148552626Y-103380500D01*
X149285049Y-103380500D01*
X149352088Y-103400185D01*
X149397843Y-103452989D01*
X149407787Y-103522147D01*
X149378762Y-103585703D01*
X149360536Y-103602876D01*
X149354768Y-103607301D01*
X149354767Y-103607302D01*
X149234549Y-103699549D01*
X149145926Y-103815045D01*
X149142300Y-103819770D01*
X149084313Y-103959763D01*
X149084312Y-103959765D01*
X149064534Y-104109999D01*
X149064534Y-104110000D01*
X149084312Y-104260234D01*
X149084313Y-104260236D01*
X149140733Y-104396447D01*
X149142302Y-104400233D01*
X149234549Y-104520451D01*
X149354767Y-104612698D01*
X149494764Y-104670687D01*
X149607280Y-104685500D01*
X149607287Y-104685500D01*
X149682713Y-104685500D01*
X149682720Y-104685500D01*
X149795236Y-104670687D01*
X149935233Y-104612698D01*
X150055451Y-104520451D01*
X150147698Y-104400233D01*
X150205687Y-104260236D01*
X150225466Y-104110000D01*
X150222180Y-104085044D01*
X150212850Y-104014175D01*
X150205687Y-103959764D01*
X150147698Y-103819767D01*
X150055451Y-103699549D01*
X149935233Y-103607302D01*
X149935230Y-103607301D01*
X149935228Y-103607299D01*
X149884767Y-103586398D01*
X149830363Y-103542558D01*
X149808298Y-103476264D01*
X149825577Y-103408564D01*
X149876714Y-103360953D01*
X149888249Y-103355895D01*
X150022930Y-103304818D01*
X150162929Y-103208183D01*
X150275734Y-103080852D01*
X150284030Y-103065047D01*
X150334996Y-102967938D01*
X150354790Y-102930225D01*
X150395500Y-102765056D01*
X152224500Y-102765056D01*
X152233112Y-102799996D01*
X152265210Y-102930226D01*
X152344263Y-103080849D01*
X152344266Y-103080852D01*
X152457071Y-103208183D01*
X152520009Y-103251626D01*
X152597068Y-103304817D01*
X152597069Y-103304817D01*
X152597070Y-103304818D01*
X152668884Y-103332053D01*
X152745087Y-103360953D01*
X152756128Y-103365140D01*
X152832028Y-103374356D01*
X152882626Y-103380500D01*
X152882628Y-103380500D01*
X153767374Y-103380500D01*
X153809538Y-103375380D01*
X153893872Y-103365140D01*
X154052930Y-103304818D01*
X154192929Y-103208183D01*
X154305734Y-103080852D01*
X154314030Y-103065047D01*
X154364996Y-102967938D01*
X154384790Y-102930225D01*
X154425500Y-102765056D01*
X154425500Y-102594944D01*
X154384790Y-102429775D01*
X154350770Y-102364956D01*
X154305736Y-102279150D01*
X154222450Y-102185140D01*
X154192929Y-102151817D01*
X154096223Y-102085065D01*
X154052931Y-102055182D01*
X153893874Y-101994860D01*
X153893868Y-101994859D01*
X153767374Y-101979500D01*
X153767372Y-101979500D01*
X152882628Y-101979500D01*
X152882626Y-101979500D01*
X152756131Y-101994859D01*
X152756125Y-101994860D01*
X152597068Y-102055182D01*
X152457072Y-102151816D01*
X152344263Y-102279150D01*
X152265210Y-102429773D01*
X152256284Y-102465989D01*
X152224500Y-102594944D01*
X152224500Y-102765056D01*
X150395500Y-102765056D01*
X150395500Y-102594944D01*
X150354790Y-102429775D01*
X150320770Y-102364956D01*
X150275736Y-102279150D01*
X150192450Y-102185140D01*
X150162929Y-102151817D01*
X150066223Y-102085065D01*
X150022931Y-102055182D01*
X149863874Y-101994860D01*
X149863868Y-101994859D01*
X149737374Y-101979500D01*
X149737372Y-101979500D01*
X148552628Y-101979500D01*
X148552626Y-101979500D01*
X148426131Y-101994859D01*
X148426125Y-101994860D01*
X148267068Y-102055182D01*
X148127072Y-102151816D01*
X148014263Y-102279150D01*
X147935210Y-102429773D01*
X147926284Y-102465989D01*
X147894500Y-102594944D01*
X147894500Y-102765056D01*
X138170458Y-102765056D01*
X138167943Y-102764176D01*
X138167938Y-102764175D01*
X138000004Y-102745254D01*
X137999996Y-102745254D01*
X137832058Y-102764175D01*
X137832053Y-102764176D01*
X137673285Y-102819732D01*
X137326714Y-102819732D01*
X137167943Y-102764176D01*
X137167938Y-102764175D01*
X137000004Y-102745254D01*
X136999996Y-102745254D01*
X136832058Y-102764175D01*
X136832053Y-102764176D01*
X136673284Y-102819732D01*
X126925694Y-102819732D01*
X126802841Y-102725464D01*
X126656762Y-102664956D01*
X126656760Y-102664955D01*
X126500001Y-102644318D01*
X126499999Y-102644318D01*
X126343239Y-102664955D01*
X126343237Y-102664956D01*
X126197160Y-102725463D01*
X126071718Y-102821718D01*
X125975463Y-102947160D01*
X125914956Y-103093237D01*
X125914955Y-103093239D01*
X125894318Y-103249998D01*
X125894318Y-103250001D01*
X114146449Y-103250001D01*
X114050001Y-103153553D01*
X113737680Y-103465871D01*
X113715990Y-103477713D01*
X113580746Y-103477713D01*
X113562318Y-103465870D01*
X113250001Y-103153553D01*
X112937680Y-103465871D01*
X112915990Y-103477713D01*
X112780746Y-103477713D01*
X112762318Y-103465870D01*
X112450001Y-103153553D01*
X112450000Y-103153553D01*
X112123285Y-103480266D01*
X109289008Y-103480266D01*
X109302841Y-103474536D01*
X109428282Y-103378282D01*
X109524536Y-103252841D01*
X109585044Y-103106762D01*
X109603320Y-102967943D01*
X109605682Y-102950001D01*
X109605682Y-102949998D01*
X109585935Y-102800003D01*
X111695254Y-102800003D01*
X111714175Y-102967938D01*
X111714176Y-102967943D01*
X111769732Y-103126713D01*
X111769732Y-103126714D01*
X112063955Y-102832492D01*
X112350000Y-102832492D01*
X112388197Y-102885065D01*
X112434162Y-102900000D01*
X112434163Y-102900000D01*
X112465837Y-102900000D01*
X112465838Y-102900000D01*
X112511803Y-102885065D01*
X112550000Y-102832492D01*
X112550000Y-102800000D01*
X112803552Y-102800000D01*
X112849999Y-102846446D01*
X112863954Y-102832492D01*
X113150000Y-102832492D01*
X113188197Y-102885065D01*
X113234162Y-102900000D01*
X113234163Y-102900000D01*
X113265837Y-102900000D01*
X113265838Y-102900000D01*
X113311803Y-102885065D01*
X113350000Y-102832492D01*
X113350000Y-102800000D01*
X113603553Y-102800000D01*
X113650000Y-102846447D01*
X113663955Y-102832492D01*
X113950000Y-102832492D01*
X113988197Y-102885065D01*
X114034162Y-102900000D01*
X114034163Y-102900000D01*
X114065837Y-102900000D01*
X114065838Y-102900000D01*
X114111803Y-102885065D01*
X114150000Y-102832492D01*
X114150000Y-102800001D01*
X114403553Y-102800001D01*
X114730266Y-103126714D01*
X114730267Y-103126713D01*
X114785824Y-102967943D01*
X114804746Y-102800003D01*
X114804746Y-102799996D01*
X114785824Y-102632056D01*
X114728452Y-102468102D01*
X114715871Y-102487680D01*
X114403553Y-102800000D01*
X114403553Y-102800001D01*
X114150000Y-102800001D01*
X114150000Y-102767508D01*
X114111803Y-102714935D01*
X114111802Y-102714934D01*
X114065839Y-102700000D01*
X114065838Y-102700000D01*
X114034162Y-102700000D01*
X114034160Y-102700000D01*
X113988196Y-102714935D01*
X113950000Y-102767507D01*
X113950000Y-102767508D01*
X113950000Y-102832492D01*
X113663955Y-102832492D01*
X113696447Y-102800000D01*
X113650000Y-102753553D01*
X113603553Y-102800000D01*
X113350000Y-102800000D01*
X113350000Y-102767508D01*
X113311803Y-102714935D01*
X113311802Y-102714934D01*
X113265839Y-102700000D01*
X113265838Y-102700000D01*
X113234162Y-102700000D01*
X113234160Y-102700000D01*
X113188196Y-102714935D01*
X113150000Y-102767507D01*
X113150000Y-102767508D01*
X113150000Y-102832492D01*
X112863954Y-102832492D01*
X112896447Y-102800000D01*
X112896447Y-102799999D01*
X112849999Y-102753553D01*
X112803552Y-102800000D01*
X112550000Y-102800000D01*
X112550000Y-102767508D01*
X112511803Y-102714935D01*
X112511802Y-102714934D01*
X112465839Y-102700000D01*
X112465838Y-102700000D01*
X112434162Y-102700000D01*
X112434160Y-102700000D01*
X112388196Y-102714935D01*
X112350000Y-102767507D01*
X112350000Y-102767508D01*
X112350000Y-102832492D01*
X112063955Y-102832492D01*
X112096446Y-102800001D01*
X112096446Y-102799999D01*
X111784128Y-102487680D01*
X111772284Y-102465989D01*
X111714177Y-102632050D01*
X111714175Y-102632058D01*
X111695254Y-102799996D01*
X111695254Y-102800003D01*
X109585935Y-102800003D01*
X109585044Y-102793239D01*
X109585044Y-102793238D01*
X109524536Y-102647159D01*
X109428282Y-102521718D01*
X109302841Y-102425464D01*
X109241363Y-102399999D01*
X112403552Y-102399999D01*
X112449998Y-102446446D01*
X112496446Y-102400000D01*
X113203552Y-102400000D01*
X113249999Y-102446446D01*
X113296446Y-102400000D01*
X114003552Y-102400000D01*
X114050000Y-102446447D01*
X114096447Y-102400000D01*
X114050000Y-102353553D01*
X114003552Y-102400000D01*
X113296446Y-102400000D01*
X113250000Y-102353553D01*
X113203552Y-102399999D01*
X113203552Y-102400000D01*
X112496446Y-102400000D01*
X112450000Y-102353553D01*
X112403552Y-102399999D01*
X109241363Y-102399999D01*
X109156762Y-102364956D01*
X109156760Y-102364955D01*
X109000001Y-102344318D01*
X108999999Y-102344318D01*
X108843239Y-102364955D01*
X108843237Y-102364956D01*
X108697160Y-102425463D01*
X108571718Y-102521718D01*
X108475463Y-102647160D01*
X108414956Y-102793237D01*
X108414955Y-102793239D01*
X108394318Y-102949998D01*
X108394318Y-102950001D01*
X92750000Y-102950001D01*
X92750000Y-101585056D01*
X93469500Y-101585056D01*
X93473184Y-101600001D01*
X93510210Y-101750226D01*
X93589263Y-101900849D01*
X93589266Y-101900852D01*
X93702071Y-102028183D01*
X93741186Y-102055182D01*
X93842068Y-102124817D01*
X93842069Y-102124817D01*
X93842070Y-102124818D01*
X94001128Y-102185140D01*
X94077028Y-102194356D01*
X94127626Y-102200500D01*
X94127628Y-102200500D01*
X94212374Y-102200500D01*
X94254538Y-102195380D01*
X94338872Y-102185140D01*
X94497930Y-102124818D01*
X94637929Y-102028183D01*
X94662894Y-102000003D01*
X111695254Y-102000003D01*
X111714175Y-102167938D01*
X111714176Y-102167944D01*
X111771545Y-102331896D01*
X111784128Y-102312318D01*
X112063954Y-102032492D01*
X112350000Y-102032492D01*
X112388197Y-102085065D01*
X112434162Y-102100000D01*
X112434163Y-102100000D01*
X112465837Y-102100000D01*
X112465838Y-102100000D01*
X112511803Y-102085065D01*
X112550000Y-102032492D01*
X112550000Y-102000000D01*
X112803552Y-102000000D01*
X112849999Y-102046446D01*
X112863954Y-102032492D01*
X113150000Y-102032492D01*
X113188197Y-102085065D01*
X113234162Y-102100000D01*
X113234163Y-102100000D01*
X113265837Y-102100000D01*
X113265838Y-102100000D01*
X113311803Y-102085065D01*
X113350000Y-102032492D01*
X113350000Y-101999999D01*
X113603553Y-101999999D01*
X113650000Y-102046446D01*
X113663954Y-102032492D01*
X113950000Y-102032492D01*
X113988197Y-102085065D01*
X114034162Y-102100000D01*
X114034163Y-102100000D01*
X114065837Y-102100000D01*
X114065838Y-102100000D01*
X114111803Y-102085065D01*
X114150000Y-102032492D01*
X114150000Y-102000001D01*
X114403553Y-102000001D01*
X114715870Y-102312318D01*
X114727713Y-102334007D01*
X114785824Y-102167941D01*
X114804746Y-102000003D01*
X114804746Y-101999996D01*
X114785824Y-101832056D01*
X114728453Y-101668101D01*
X114715871Y-101687680D01*
X114403553Y-102000000D01*
X114403553Y-102000001D01*
X114150000Y-102000001D01*
X114150000Y-101967508D01*
X114111803Y-101914935D01*
X114111802Y-101914934D01*
X114065839Y-101900000D01*
X114065838Y-101900000D01*
X114034162Y-101900000D01*
X114034160Y-101900000D01*
X113988196Y-101914935D01*
X113960139Y-101953553D01*
X113950000Y-101967508D01*
X113950000Y-102032492D01*
X113663954Y-102032492D01*
X113696447Y-102000000D01*
X113650000Y-101953553D01*
X113603553Y-101999999D01*
X113350000Y-101999999D01*
X113350000Y-101967508D01*
X113311803Y-101914935D01*
X113311802Y-101914934D01*
X113265839Y-101900000D01*
X113265838Y-101900000D01*
X113234162Y-101900000D01*
X113234160Y-101900000D01*
X113188196Y-101914935D01*
X113160139Y-101953553D01*
X113150000Y-101967508D01*
X113150000Y-102032492D01*
X112863954Y-102032492D01*
X112896447Y-102000000D01*
X112896447Y-101999999D01*
X112849999Y-101953553D01*
X112803552Y-102000000D01*
X112550000Y-102000000D01*
X112550000Y-101967508D01*
X112511803Y-101914935D01*
X112511802Y-101914934D01*
X112465839Y-101900000D01*
X112465838Y-101900000D01*
X112434162Y-101900000D01*
X112434160Y-101900000D01*
X112388196Y-101914935D01*
X112360139Y-101953553D01*
X112350000Y-101967508D01*
X112350000Y-102032492D01*
X112063954Y-102032492D01*
X112096446Y-102000000D01*
X112096446Y-101999999D01*
X111784128Y-101687680D01*
X111772284Y-101665989D01*
X111714177Y-101832050D01*
X111714175Y-101832058D01*
X111695254Y-101999996D01*
X111695254Y-102000003D01*
X94662894Y-102000003D01*
X94750734Y-101900852D01*
X94751182Y-101900000D01*
X94829789Y-101750226D01*
X94829790Y-101750225D01*
X94866817Y-101600000D01*
X112403553Y-101600000D01*
X112449998Y-101646446D01*
X112449999Y-101646447D01*
X112496447Y-101600001D01*
X112496447Y-101600000D01*
X113203552Y-101600000D01*
X113249999Y-101646446D01*
X113296446Y-101600000D01*
X114003552Y-101600000D01*
X114050000Y-101646447D01*
X114096447Y-101600000D01*
X114050000Y-101553553D01*
X114003552Y-101600000D01*
X113296446Y-101600000D01*
X113250000Y-101553553D01*
X113203552Y-101599999D01*
X113203552Y-101600000D01*
X112496447Y-101600000D01*
X112450000Y-101553553D01*
X112403553Y-101600000D01*
X94866817Y-101600000D01*
X94870500Y-101585056D01*
X94870500Y-101414944D01*
X94829790Y-101249775D01*
X94809983Y-101212036D01*
X94750736Y-101099150D01*
X94731560Y-101077505D01*
X94663340Y-101000500D01*
X109792353Y-101000500D01*
X109812834Y-101142956D01*
X109860097Y-101246446D01*
X109872623Y-101273873D01*
X109966872Y-101382643D01*
X110087947Y-101460453D01*
X110087950Y-101460454D01*
X110087949Y-101460454D01*
X110226036Y-101500999D01*
X110226038Y-101501000D01*
X110226039Y-101501000D01*
X110369962Y-101501000D01*
X110369962Y-101500999D01*
X110508053Y-101460453D01*
X110629128Y-101382643D01*
X110723377Y-101273873D01*
X110757113Y-101200003D01*
X111695254Y-101200003D01*
X111714175Y-101367938D01*
X111714176Y-101367944D01*
X111771545Y-101531896D01*
X111784128Y-101512318D01*
X112063955Y-101232492D01*
X112350000Y-101232492D01*
X112388197Y-101285065D01*
X112434162Y-101300000D01*
X112434163Y-101300000D01*
X112465837Y-101300000D01*
X112465838Y-101300000D01*
X112511803Y-101285065D01*
X112550000Y-101232492D01*
X112550000Y-101199999D01*
X112803552Y-101199999D01*
X112849999Y-101246446D01*
X112863953Y-101232492D01*
X113150000Y-101232492D01*
X113188197Y-101285065D01*
X113234162Y-101300000D01*
X113234163Y-101300000D01*
X113265837Y-101300000D01*
X113265838Y-101300000D01*
X113311803Y-101285065D01*
X113350000Y-101232492D01*
X113350000Y-101199999D01*
X113603553Y-101199999D01*
X113650000Y-101246447D01*
X113663954Y-101232492D01*
X113950000Y-101232492D01*
X113988197Y-101285065D01*
X114034162Y-101300000D01*
X114034163Y-101300000D01*
X114065837Y-101300000D01*
X114065838Y-101300000D01*
X114111803Y-101285065D01*
X114150000Y-101232492D01*
X114150000Y-101199999D01*
X114403553Y-101199999D01*
X114715870Y-101512318D01*
X114727714Y-101534009D01*
X114785824Y-101367943D01*
X114804746Y-101200003D01*
X114804746Y-101199996D01*
X114785824Y-101032056D01*
X114730266Y-100873285D01*
X114403553Y-101199998D01*
X114403553Y-101199999D01*
X114150000Y-101199999D01*
X114150000Y-101167508D01*
X114111803Y-101114935D01*
X114111802Y-101114934D01*
X114065839Y-101100000D01*
X114065838Y-101100000D01*
X114034162Y-101100000D01*
X114034160Y-101100000D01*
X113988196Y-101114935D01*
X113960139Y-101153553D01*
X113950000Y-101167508D01*
X113950000Y-101232492D01*
X113663954Y-101232492D01*
X113696446Y-101199999D01*
X113650000Y-101153552D01*
X113603553Y-101199999D01*
X113350000Y-101199999D01*
X113350000Y-101167508D01*
X113311803Y-101114935D01*
X113311802Y-101114934D01*
X113265839Y-101100000D01*
X113265838Y-101100000D01*
X113234162Y-101100000D01*
X113234160Y-101100000D01*
X113188196Y-101114935D01*
X113160139Y-101153553D01*
X113150000Y-101167508D01*
X113150000Y-101232492D01*
X112863953Y-101232492D01*
X112896446Y-101199999D01*
X112849999Y-101153553D01*
X112803552Y-101199999D01*
X112550000Y-101199999D01*
X112550000Y-101167508D01*
X112511803Y-101114935D01*
X112511802Y-101114934D01*
X112465839Y-101100000D01*
X112465838Y-101100000D01*
X112434162Y-101100000D01*
X112434160Y-101100000D01*
X112388196Y-101114935D01*
X112360139Y-101153553D01*
X112350000Y-101167508D01*
X112350000Y-101232492D01*
X112063955Y-101232492D01*
X112096447Y-101200000D01*
X111769732Y-100873285D01*
X111714176Y-101032053D01*
X111714175Y-101032058D01*
X111695254Y-101199996D01*
X111695254Y-101200003D01*
X110757113Y-101200003D01*
X110783165Y-101142957D01*
X110803647Y-101000500D01*
X110783165Y-100858043D01*
X110723377Y-100727127D01*
X110629128Y-100618357D01*
X110508053Y-100540547D01*
X110508051Y-100540546D01*
X110508049Y-100540545D01*
X110508050Y-100540545D01*
X110437166Y-100519732D01*
X112123285Y-100519732D01*
X112449999Y-100846446D01*
X112762317Y-100534127D01*
X112784006Y-100522283D01*
X112781897Y-100521545D01*
X112918102Y-100521545D01*
X112937680Y-100534127D01*
X113249999Y-100846446D01*
X113562317Y-100534127D01*
X113584006Y-100522283D01*
X113581897Y-100521545D01*
X113718102Y-100521545D01*
X113737680Y-100534127D01*
X114050000Y-100846447D01*
X114050001Y-100846447D01*
X114376714Y-100519732D01*
X114217943Y-100464176D01*
X114217938Y-100464175D01*
X114050004Y-100445254D01*
X114049996Y-100445254D01*
X113882058Y-100464175D01*
X113882050Y-100464177D01*
X113718102Y-100521545D01*
X113581897Y-100521545D01*
X113417944Y-100464176D01*
X113417938Y-100464175D01*
X113250004Y-100445254D01*
X113249996Y-100445254D01*
X113082058Y-100464175D01*
X113082050Y-100464177D01*
X112918102Y-100521545D01*
X112781897Y-100521545D01*
X112617944Y-100464176D01*
X112617938Y-100464175D01*
X112450004Y-100445254D01*
X112449996Y-100445254D01*
X112282058Y-100464175D01*
X112282053Y-100464176D01*
X112123285Y-100519732D01*
X110437166Y-100519732D01*
X110369963Y-100500000D01*
X110369961Y-100500000D01*
X110226039Y-100500000D01*
X110226036Y-100500000D01*
X110087949Y-100540545D01*
X109966873Y-100618356D01*
X109872623Y-100727126D01*
X109872622Y-100727128D01*
X109812834Y-100858043D01*
X109792353Y-101000500D01*
X94663340Y-101000500D01*
X94637929Y-100971817D01*
X94588177Y-100937475D01*
X94497931Y-100875182D01*
X94338874Y-100814860D01*
X94338868Y-100814859D01*
X94212374Y-100799500D01*
X94212372Y-100799500D01*
X94127628Y-100799500D01*
X94127626Y-100799500D01*
X94001131Y-100814859D01*
X94001125Y-100814860D01*
X93842068Y-100875182D01*
X93702072Y-100971816D01*
X93589263Y-101099150D01*
X93510210Y-101249773D01*
X93481084Y-101367944D01*
X93469500Y-101414944D01*
X93469500Y-101585056D01*
X92750000Y-101585056D01*
X92750000Y-100500000D01*
X92250001Y-100000001D01*
X101394318Y-100000001D01*
X101414955Y-100156760D01*
X101414956Y-100156762D01*
X101453576Y-100250000D01*
X101475464Y-100302841D01*
X101571718Y-100428282D01*
X101697159Y-100524536D01*
X101843238Y-100585044D01*
X101921619Y-100595363D01*
X101999999Y-100605682D01*
X102000000Y-100605682D01*
X102000001Y-100605682D01*
X102052254Y-100598802D01*
X102156762Y-100585044D01*
X102302841Y-100524536D01*
X102428282Y-100428282D01*
X102524536Y-100302841D01*
X102585044Y-100156762D01*
X102605682Y-100000000D01*
X102598725Y-99947159D01*
X102585044Y-99843239D01*
X102585044Y-99843238D01*
X102566927Y-99799500D01*
X105494353Y-99799500D01*
X105514834Y-99941956D01*
X105541343Y-100000001D01*
X105574623Y-100072873D01*
X105668872Y-100181643D01*
X105789947Y-100259453D01*
X105789950Y-100259454D01*
X105789949Y-100259454D01*
X105928036Y-100299999D01*
X105928038Y-100300000D01*
X105928039Y-100300000D01*
X106071962Y-100300000D01*
X106071962Y-100299999D01*
X106210053Y-100259453D01*
X106224761Y-100250001D01*
X142644318Y-100250001D01*
X142664955Y-100406760D01*
X142664956Y-100406762D01*
X142720371Y-100540547D01*
X142725464Y-100552841D01*
X142821718Y-100678282D01*
X142947159Y-100774536D01*
X143093238Y-100835044D01*
X143163241Y-100844260D01*
X143249999Y-100855682D01*
X143250000Y-100855682D01*
X143250001Y-100855682D01*
X143320147Y-100846447D01*
X143406762Y-100835044D01*
X143552841Y-100774536D01*
X143666268Y-100687501D01*
X154144318Y-100687501D01*
X154164955Y-100844260D01*
X154164956Y-100844262D01*
X154177763Y-100875182D01*
X154225464Y-100990341D01*
X154321718Y-101115782D01*
X154447159Y-101212036D01*
X154593238Y-101272544D01*
X154671619Y-101282862D01*
X154749999Y-101293182D01*
X154750000Y-101293182D01*
X154750001Y-101293182D01*
X154811655Y-101285065D01*
X154906762Y-101272544D01*
X155052841Y-101212036D01*
X155178282Y-101115782D01*
X155274536Y-100990341D01*
X155335044Y-100844262D01*
X155355682Y-100687500D01*
X155354468Y-100678282D01*
X155335044Y-100530739D01*
X155335044Y-100530738D01*
X155274536Y-100384659D01*
X155178282Y-100259218D01*
X155052841Y-100162964D01*
X155037863Y-100156760D01*
X154906762Y-100102456D01*
X154906760Y-100102455D01*
X154750001Y-100081818D01*
X154749999Y-100081818D01*
X154593239Y-100102455D01*
X154593237Y-100102456D01*
X154447160Y-100162963D01*
X154321718Y-100259218D01*
X154225463Y-100384660D01*
X154164956Y-100530737D01*
X154164955Y-100530739D01*
X154144318Y-100687498D01*
X154144318Y-100687501D01*
X143666268Y-100687501D01*
X143678282Y-100678282D01*
X143774536Y-100552841D01*
X143835044Y-100406762D01*
X143854437Y-100259454D01*
X143855682Y-100250001D01*
X143855682Y-100249998D01*
X143841923Y-100145491D01*
X143835044Y-100093238D01*
X143774536Y-99947159D01*
X143678282Y-99821718D01*
X143552841Y-99725464D01*
X143406762Y-99664956D01*
X143406760Y-99664955D01*
X143250001Y-99644318D01*
X143249999Y-99644318D01*
X143093239Y-99664955D01*
X143093237Y-99664956D01*
X142947160Y-99725463D01*
X142821718Y-99821718D01*
X142725463Y-99947160D01*
X142664956Y-100093237D01*
X142664955Y-100093239D01*
X142644318Y-100249998D01*
X142644318Y-100250001D01*
X106224761Y-100250001D01*
X106331128Y-100181643D01*
X106425377Y-100072873D01*
X106485165Y-99941957D01*
X106505647Y-99799500D01*
X106485165Y-99657043D01*
X106425377Y-99526127D01*
X106331128Y-99417357D01*
X106210053Y-99339547D01*
X106210051Y-99339546D01*
X106210049Y-99339545D01*
X106210050Y-99339545D01*
X106071963Y-99299000D01*
X106071961Y-99299000D01*
X105928039Y-99299000D01*
X105928036Y-99299000D01*
X105789949Y-99339545D01*
X105668873Y-99417356D01*
X105574623Y-99526126D01*
X105574622Y-99526128D01*
X105514834Y-99657043D01*
X105494353Y-99799500D01*
X102566927Y-99799500D01*
X102524536Y-99697159D01*
X102428282Y-99571718D01*
X102302841Y-99475464D01*
X102156762Y-99414956D01*
X102156760Y-99414955D01*
X102000001Y-99394318D01*
X101999999Y-99394318D01*
X101843239Y-99414955D01*
X101843237Y-99414956D01*
X101697160Y-99475463D01*
X101571718Y-99571718D01*
X101475463Y-99697160D01*
X101414956Y-99843237D01*
X101414955Y-99843239D01*
X101394318Y-99999998D01*
X101394318Y-100000001D01*
X92250001Y-100000001D01*
X91286318Y-99036318D01*
X91252833Y-98974995D01*
X91250000Y-98948646D01*
X91249999Y-96640505D01*
X91269685Y-96573466D01*
X91322489Y-96527712D01*
X91391647Y-96517768D01*
X91455203Y-96546793D01*
X91488560Y-96593051D01*
X91515849Y-96658933D01*
X91611905Y-96890831D01*
X91785790Y-97205454D01*
X91993805Y-97498622D01*
X91993806Y-97498623D01*
X92233339Y-97766661D01*
X92501377Y-98006194D01*
X92794548Y-98214211D01*
X93109167Y-98388094D01*
X93441276Y-98525659D01*
X93786700Y-98625173D01*
X94141093Y-98685387D01*
X94410202Y-98700500D01*
X94410210Y-98700500D01*
X94589790Y-98700500D01*
X94589798Y-98700500D01*
X94858907Y-98685387D01*
X95213300Y-98625173D01*
X95558724Y-98525659D01*
X95890833Y-98388094D01*
X96205452Y-98214211D01*
X96498623Y-98006194D01*
X96766661Y-97766661D01*
X97006194Y-97498623D01*
X97214211Y-97205452D01*
X97220125Y-97194752D01*
X98349500Y-97194752D01*
X98357254Y-97233738D01*
X98361132Y-97253233D01*
X98394254Y-97302803D01*
X98394260Y-97302811D01*
X98847184Y-97755735D01*
X98847191Y-97755741D01*
X98896768Y-97788867D01*
X98955247Y-97800499D01*
X98955250Y-97800500D01*
X98955252Y-97800500D01*
X100269750Y-97800500D01*
X100269751Y-97800499D01*
X100284568Y-97797552D01*
X100328229Y-97788868D01*
X100328229Y-97788867D01*
X100328231Y-97788867D01*
X100394552Y-97744552D01*
X100438867Y-97678231D01*
X100438867Y-97678229D01*
X100438868Y-97678229D01*
X100448922Y-97627682D01*
X100450500Y-97619748D01*
X100450500Y-96750000D01*
X100884417Y-96750000D01*
X100904699Y-96955932D01*
X100904700Y-96955934D01*
X100964768Y-97153954D01*
X101062315Y-97336450D01*
X101062317Y-97336452D01*
X101193589Y-97496410D01*
X101259510Y-97550509D01*
X101353550Y-97627685D01*
X101536046Y-97725232D01*
X101734066Y-97785300D01*
X101734065Y-97785300D01*
X101752529Y-97787118D01*
X101940000Y-97805583D01*
X102145934Y-97785300D01*
X102343954Y-97725232D01*
X102526450Y-97627685D01*
X102686410Y-97496410D01*
X102817685Y-97336450D01*
X102915232Y-97153954D01*
X102975300Y-96955934D01*
X102995583Y-96750000D01*
X102975300Y-96544066D01*
X102915232Y-96346046D01*
X102817685Y-96163550D01*
X102742897Y-96072420D01*
X102686410Y-96003589D01*
X102536121Y-95880252D01*
X102526450Y-95872315D01*
X102343954Y-95774768D01*
X102145934Y-95714700D01*
X102145932Y-95714699D01*
X102145934Y-95714699D01*
X101958463Y-95696235D01*
X101940000Y-95694417D01*
X101939999Y-95694417D01*
X101734067Y-95714699D01*
X101599736Y-95755448D01*
X101536050Y-95774767D01*
X101536043Y-95774769D01*
X101448114Y-95821769D01*
X101353550Y-95872315D01*
X101353548Y-95872316D01*
X101353547Y-95872317D01*
X101193589Y-96003589D01*
X101062317Y-96163547D01*
X100964769Y-96346043D01*
X100904699Y-96544067D01*
X100884417Y-96750000D01*
X100450500Y-96750000D01*
X100450500Y-95880252D01*
X100450500Y-95880251D01*
X100450500Y-95880249D01*
X100450499Y-95880247D01*
X100438868Y-95821770D01*
X100438867Y-95821769D01*
X100394552Y-95755447D01*
X100328230Y-95711132D01*
X100328229Y-95711131D01*
X100269752Y-95699500D01*
X100269748Y-95699500D01*
X98530252Y-95699500D01*
X98530247Y-95699500D01*
X98471770Y-95711131D01*
X98471769Y-95711132D01*
X98405447Y-95755447D01*
X98361132Y-95821769D01*
X98361131Y-95821770D01*
X98349500Y-95880247D01*
X98349500Y-95880251D01*
X98349500Y-95880252D01*
X98349500Y-97194752D01*
X97220125Y-97194752D01*
X97388094Y-96890833D01*
X97525659Y-96558724D01*
X97625173Y-96213300D01*
X97685387Y-95858907D01*
X97705543Y-95500000D01*
X97685387Y-95141093D01*
X97625173Y-94786700D01*
X97525659Y-94441276D01*
X97429860Y-94209999D01*
X98344417Y-94209999D01*
X98364699Y-94415932D01*
X98386867Y-94489010D01*
X98424768Y-94613954D01*
X98522315Y-94796450D01*
X98522317Y-94796452D01*
X98653589Y-94956410D01*
X98707314Y-95000500D01*
X98813550Y-95087685D01*
X98996046Y-95185232D01*
X99194066Y-95245300D01*
X99194065Y-95245300D01*
X99214348Y-95247297D01*
X99400000Y-95265583D01*
X99605934Y-95245300D01*
X99803954Y-95185232D01*
X99986450Y-95087685D01*
X100146410Y-94956410D01*
X100277685Y-94796450D01*
X100375232Y-94613954D01*
X100435300Y-94415934D01*
X100455583Y-94210000D01*
X100884417Y-94210000D01*
X100904699Y-94415932D01*
X100926867Y-94489010D01*
X100964768Y-94613954D01*
X101062315Y-94796450D01*
X101062317Y-94796452D01*
X101193589Y-94956410D01*
X101247314Y-95000500D01*
X101353550Y-95087685D01*
X101536046Y-95185232D01*
X101734066Y-95245300D01*
X101734065Y-95245300D01*
X101752529Y-95247118D01*
X101940000Y-95265583D01*
X102145934Y-95245300D01*
X102343954Y-95185232D01*
X102526450Y-95087685D01*
X102686410Y-94956410D01*
X102817685Y-94796450D01*
X102915232Y-94613954D01*
X102935406Y-94547446D01*
X102973702Y-94489010D01*
X103037514Y-94460553D01*
X103106581Y-94471112D01*
X103158975Y-94517336D01*
X103173841Y-94551349D01*
X103206567Y-94673486D01*
X103206570Y-94673492D01*
X103306399Y-94887578D01*
X103441894Y-95081082D01*
X103608917Y-95248105D01*
X103802421Y-95383600D01*
X104016507Y-95483429D01*
X104016516Y-95483433D01*
X104138649Y-95516158D01*
X104198310Y-95552523D01*
X104228839Y-95615369D01*
X104220545Y-95684745D01*
X104176059Y-95738623D01*
X104142552Y-95754593D01*
X104076046Y-95774767D01*
X103988112Y-95821770D01*
X103893550Y-95872315D01*
X103893548Y-95872316D01*
X103893547Y-95872317D01*
X103733589Y-96003589D01*
X103602317Y-96163547D01*
X103504769Y-96346043D01*
X103444699Y-96544067D01*
X103424417Y-96749999D01*
X103444699Y-96955932D01*
X103444700Y-96955934D01*
X103504768Y-97153954D01*
X103602315Y-97336450D01*
X103602317Y-97336452D01*
X103733589Y-97496410D01*
X103799510Y-97550509D01*
X103893550Y-97627685D01*
X104076046Y-97725232D01*
X104274066Y-97785300D01*
X104274065Y-97785300D01*
X104294348Y-97787297D01*
X104480000Y-97805583D01*
X104685934Y-97785300D01*
X104883954Y-97725232D01*
X104883956Y-97725230D01*
X104889784Y-97723463D01*
X104890444Y-97725640D01*
X104949795Y-97719234D01*
X105012288Y-97750482D01*
X105047966Y-97810555D01*
X105045502Y-97880382D01*
X105021545Y-97922475D01*
X104974623Y-97976626D01*
X104974622Y-97976628D01*
X104914834Y-98107543D01*
X104894353Y-98249999D01*
X104914834Y-98392456D01*
X104974622Y-98523371D01*
X104974623Y-98523373D01*
X105068872Y-98632143D01*
X105189947Y-98709953D01*
X105189950Y-98709954D01*
X105189949Y-98709954D01*
X105328036Y-98750499D01*
X105328038Y-98750500D01*
X105328039Y-98750500D01*
X105471962Y-98750500D01*
X105471962Y-98750499D01*
X105610053Y-98709953D01*
X105731128Y-98632143D01*
X105825377Y-98523373D01*
X105885165Y-98392457D01*
X105905647Y-98250000D01*
X105885165Y-98107543D01*
X105825377Y-97976627D01*
X105731128Y-97867857D01*
X105610053Y-97790047D01*
X105610051Y-97790046D01*
X105610049Y-97790045D01*
X105610050Y-97790045D01*
X105471963Y-97749500D01*
X105471961Y-97749500D01*
X105328039Y-97749500D01*
X105274086Y-97765341D01*
X105204216Y-97765340D01*
X105145439Y-97727564D01*
X105116415Y-97664008D01*
X105126360Y-97594850D01*
X105160487Y-97550510D01*
X105226410Y-97496410D01*
X105357685Y-97336450D01*
X105455232Y-97153954D01*
X105515300Y-96955934D01*
X105535583Y-96750000D01*
X105964417Y-96750000D01*
X105984699Y-96955932D01*
X105984700Y-96955934D01*
X106044768Y-97153954D01*
X106142315Y-97336450D01*
X106142317Y-97336452D01*
X106273589Y-97496410D01*
X106339510Y-97550509D01*
X106433550Y-97627685D01*
X106616046Y-97725232D01*
X106814066Y-97785300D01*
X106814065Y-97785300D01*
X106832529Y-97787118D01*
X107020000Y-97805583D01*
X107225934Y-97785300D01*
X107423954Y-97725232D01*
X107606450Y-97627685D01*
X107766410Y-97496410D01*
X107897685Y-97336450D01*
X107995232Y-97153954D01*
X108015406Y-97087446D01*
X108053702Y-97029010D01*
X108117514Y-97000553D01*
X108186581Y-97011112D01*
X108238975Y-97057336D01*
X108253841Y-97091349D01*
X108286567Y-97213486D01*
X108286570Y-97213492D01*
X108386399Y-97427578D01*
X108521894Y-97621082D01*
X108688917Y-97788105D01*
X108882421Y-97923600D01*
X109096507Y-98023429D01*
X109096516Y-98023433D01*
X109309999Y-98080633D01*
X109309999Y-97362301D01*
X109329683Y-97295262D01*
X109382487Y-97249507D01*
X109451646Y-97239563D01*
X109458380Y-97240531D01*
X109524237Y-97250000D01*
X109524238Y-97250000D01*
X109595762Y-97250000D01*
X109595763Y-97250000D01*
X109668353Y-97239563D01*
X109737512Y-97249507D01*
X109790315Y-97295262D01*
X109810000Y-97362301D01*
X109810000Y-98080633D01*
X110023483Y-98023433D01*
X110023492Y-98023429D01*
X110237578Y-97923600D01*
X110431082Y-97788105D01*
X110598105Y-97621082D01*
X110733600Y-97427578D01*
X110833429Y-97213492D01*
X110833433Y-97213483D01*
X110866158Y-97091350D01*
X110902522Y-97031690D01*
X110965369Y-97001160D01*
X111034745Y-97009454D01*
X111088623Y-97053939D01*
X111104593Y-97087447D01*
X111124768Y-97153954D01*
X111222315Y-97336450D01*
X111222317Y-97336452D01*
X111353589Y-97496410D01*
X111419510Y-97550509D01*
X111513550Y-97627685D01*
X111696046Y-97725232D01*
X111894066Y-97785300D01*
X111894065Y-97785300D01*
X111912529Y-97787118D01*
X112100000Y-97805583D01*
X112305934Y-97785300D01*
X112503954Y-97725232D01*
X112686450Y-97627685D01*
X112846410Y-97496410D01*
X112977685Y-97336450D01*
X113075232Y-97153954D01*
X113135300Y-96955934D01*
X113155583Y-96750000D01*
X113135300Y-96544066D01*
X113075232Y-96346046D01*
X112977685Y-96163550D01*
X112902897Y-96072420D01*
X112846410Y-96003589D01*
X112696121Y-95880252D01*
X112686450Y-95872315D01*
X112503954Y-95774768D01*
X112305934Y-95714700D01*
X112305932Y-95714699D01*
X112305934Y-95714699D01*
X112100000Y-95694417D01*
X111894067Y-95714699D01*
X111759736Y-95755448D01*
X111696050Y-95774767D01*
X111696043Y-95774769D01*
X111608114Y-95821769D01*
X111513550Y-95872315D01*
X111513548Y-95872316D01*
X111513547Y-95872317D01*
X111353589Y-96003589D01*
X111222317Y-96163547D01*
X111124767Y-96346046D01*
X111104593Y-96412552D01*
X111066296Y-96470990D01*
X111002483Y-96499447D01*
X110933416Y-96488886D01*
X110881023Y-96442661D01*
X110866158Y-96408649D01*
X110833433Y-96286516D01*
X110833429Y-96286507D01*
X110733600Y-96072422D01*
X110733599Y-96072420D01*
X110598113Y-95878926D01*
X110598108Y-95878920D01*
X110431082Y-95711894D01*
X110237578Y-95576399D01*
X110023492Y-95476570D01*
X110023486Y-95476567D01*
X109901349Y-95443841D01*
X109841689Y-95407476D01*
X109811160Y-95344629D01*
X109819455Y-95275253D01*
X109863940Y-95221375D01*
X109897444Y-95205407D01*
X109963954Y-95185232D01*
X110146450Y-95087685D01*
X110306410Y-94956410D01*
X110437685Y-94796450D01*
X110535232Y-94613954D01*
X110595300Y-94415934D01*
X110615583Y-94210000D01*
X111044417Y-94210000D01*
X111064699Y-94415932D01*
X111086867Y-94489010D01*
X111124768Y-94613954D01*
X111222315Y-94796450D01*
X111222317Y-94796452D01*
X111353589Y-94956410D01*
X111407314Y-95000500D01*
X111513550Y-95087685D01*
X111696046Y-95185232D01*
X111894066Y-95245300D01*
X111894065Y-95245300D01*
X111914347Y-95247297D01*
X112100000Y-95265583D01*
X112305934Y-95245300D01*
X112503954Y-95185232D01*
X112686450Y-95087685D01*
X112846410Y-94956410D01*
X112977685Y-94796450D01*
X113075232Y-94613954D01*
X113095406Y-94547446D01*
X113133702Y-94489010D01*
X113197514Y-94460553D01*
X113266581Y-94471112D01*
X113318975Y-94517336D01*
X113333841Y-94551349D01*
X113366567Y-94673486D01*
X113366570Y-94673492D01*
X113466399Y-94887578D01*
X113601894Y-95081082D01*
X113768917Y-95248105D01*
X113962421Y-95383600D01*
X114176507Y-95483429D01*
X114176516Y-95483433D01*
X114298649Y-95516158D01*
X114358310Y-95552523D01*
X114388839Y-95615369D01*
X114380545Y-95684745D01*
X114336059Y-95738623D01*
X114302552Y-95754593D01*
X114236046Y-95774767D01*
X114148112Y-95821770D01*
X114053550Y-95872315D01*
X114053548Y-95872316D01*
X114053547Y-95872317D01*
X113893589Y-96003589D01*
X113762317Y-96163547D01*
X113664769Y-96346043D01*
X113604699Y-96544067D01*
X113584417Y-96749999D01*
X113604699Y-96955932D01*
X113604700Y-96955934D01*
X113664768Y-97153954D01*
X113762315Y-97336450D01*
X113762317Y-97336452D01*
X113893589Y-97496410D01*
X113959510Y-97550509D01*
X114053550Y-97627685D01*
X114236046Y-97725232D01*
X114434066Y-97785300D01*
X114434065Y-97785300D01*
X114452529Y-97787118D01*
X114640000Y-97805583D01*
X114845934Y-97785300D01*
X115043954Y-97725232D01*
X115226450Y-97627685D01*
X115386410Y-97496410D01*
X115517685Y-97336450D01*
X115615232Y-97153954D01*
X115675300Y-96955934D01*
X115695583Y-96750000D01*
X115695583Y-96749999D01*
X116124417Y-96749999D01*
X116144699Y-96955932D01*
X116144700Y-96955934D01*
X116204768Y-97153954D01*
X116302315Y-97336450D01*
X116302317Y-97336452D01*
X116433589Y-97496410D01*
X116499510Y-97550509D01*
X116593550Y-97627685D01*
X116776046Y-97725232D01*
X116974066Y-97785300D01*
X116974065Y-97785300D01*
X116994347Y-97787297D01*
X117180000Y-97805583D01*
X117385934Y-97785300D01*
X117583954Y-97725232D01*
X117766450Y-97627685D01*
X117926410Y-97496410D01*
X118057685Y-97336450D01*
X118155232Y-97153954D01*
X118215300Y-96955934D01*
X118235583Y-96750000D01*
X118664417Y-96750000D01*
X118684699Y-96955932D01*
X118684700Y-96955934D01*
X118744768Y-97153954D01*
X118842315Y-97336450D01*
X118842317Y-97336452D01*
X118973589Y-97496410D01*
X119039510Y-97550509D01*
X119133550Y-97627685D01*
X119316046Y-97725232D01*
X119514066Y-97785300D01*
X119514065Y-97785300D01*
X119532529Y-97787118D01*
X119720000Y-97805583D01*
X119925934Y-97785300D01*
X120123954Y-97725232D01*
X120306450Y-97627685D01*
X120466410Y-97496410D01*
X120597685Y-97336450D01*
X120695232Y-97153954D01*
X120755300Y-96955934D01*
X120775583Y-96750000D01*
X120755300Y-96544066D01*
X120695232Y-96346046D01*
X120597685Y-96163550D01*
X120522897Y-96072420D01*
X120466410Y-96003589D01*
X120316121Y-95880252D01*
X120306450Y-95872315D01*
X120123954Y-95774768D01*
X119925934Y-95714700D01*
X119925932Y-95714699D01*
X119925934Y-95714699D01*
X119720000Y-95694417D01*
X119514067Y-95714699D01*
X119379736Y-95755448D01*
X119316050Y-95774767D01*
X119316043Y-95774769D01*
X119228114Y-95821769D01*
X119133550Y-95872315D01*
X119133548Y-95872316D01*
X119133547Y-95872317D01*
X118973589Y-96003589D01*
X118842317Y-96163547D01*
X118744769Y-96346043D01*
X118684699Y-96544067D01*
X118664417Y-96750000D01*
X118235583Y-96750000D01*
X118215300Y-96544066D01*
X118155232Y-96346046D01*
X118057685Y-96163550D01*
X117982897Y-96072420D01*
X117926410Y-96003589D01*
X117776121Y-95880252D01*
X117766450Y-95872315D01*
X117583954Y-95774768D01*
X117385934Y-95714700D01*
X117385932Y-95714699D01*
X117385934Y-95714699D01*
X117198463Y-95696235D01*
X117180000Y-95694417D01*
X117179999Y-95694417D01*
X116974067Y-95714699D01*
X116839736Y-95755448D01*
X116776050Y-95774767D01*
X116776043Y-95774769D01*
X116688114Y-95821769D01*
X116593550Y-95872315D01*
X116593548Y-95872316D01*
X116593547Y-95872317D01*
X116433589Y-96003589D01*
X116302317Y-96163547D01*
X116204769Y-96346043D01*
X116144699Y-96544067D01*
X116124417Y-96749999D01*
X115695583Y-96749999D01*
X115675300Y-96544066D01*
X115615232Y-96346046D01*
X115517685Y-96163550D01*
X115442897Y-96072420D01*
X115386410Y-96003589D01*
X115236121Y-95880252D01*
X115226450Y-95872315D01*
X115043954Y-95774768D01*
X114977447Y-95754593D01*
X114919009Y-95716296D01*
X114890553Y-95652484D01*
X114901113Y-95583417D01*
X114947337Y-95531023D01*
X114981350Y-95516158D01*
X115103483Y-95483433D01*
X115103492Y-95483429D01*
X115317578Y-95383600D01*
X115511082Y-95248105D01*
X115678105Y-95081082D01*
X115813600Y-94887578D01*
X115913429Y-94673492D01*
X115913433Y-94673483D01*
X115946158Y-94551350D01*
X115982522Y-94491690D01*
X116045369Y-94461160D01*
X116114745Y-94469454D01*
X116168623Y-94513939D01*
X116184593Y-94547447D01*
X116204768Y-94613954D01*
X116302315Y-94796450D01*
X116302317Y-94796452D01*
X116433589Y-94956410D01*
X116487314Y-95000500D01*
X116593550Y-95087685D01*
X116776046Y-95185232D01*
X116974066Y-95245300D01*
X116974065Y-95245300D01*
X116992529Y-95247118D01*
X117180000Y-95265583D01*
X117385934Y-95245300D01*
X117583954Y-95185232D01*
X117766450Y-95087685D01*
X117926410Y-94956410D01*
X118057685Y-94796450D01*
X118155232Y-94613954D01*
X118215300Y-94415934D01*
X118235583Y-94210000D01*
X118664417Y-94210000D01*
X118684699Y-94415932D01*
X118706867Y-94489010D01*
X118744768Y-94613954D01*
X118842315Y-94796450D01*
X118842317Y-94796452D01*
X118973589Y-94956410D01*
X119027314Y-95000500D01*
X119133550Y-95087685D01*
X119316046Y-95185232D01*
X119514066Y-95245300D01*
X119514065Y-95245300D01*
X119534348Y-95247297D01*
X119720000Y-95265583D01*
X119925934Y-95245300D01*
X120123954Y-95185232D01*
X120306450Y-95087685D01*
X120466410Y-94956410D01*
X120597685Y-94796450D01*
X120695232Y-94613954D01*
X120715406Y-94547446D01*
X120753702Y-94489010D01*
X120817514Y-94460553D01*
X120886581Y-94471112D01*
X120938975Y-94517336D01*
X120953841Y-94551349D01*
X120986567Y-94673486D01*
X120986570Y-94673492D01*
X121086399Y-94887578D01*
X121221894Y-95081082D01*
X121388917Y-95248105D01*
X121582421Y-95383600D01*
X121796507Y-95483429D01*
X121796516Y-95483433D01*
X121918649Y-95516158D01*
X121978310Y-95552523D01*
X122008839Y-95615369D01*
X122000545Y-95684745D01*
X121956059Y-95738623D01*
X121922552Y-95754593D01*
X121856046Y-95774767D01*
X121768112Y-95821770D01*
X121673550Y-95872315D01*
X121673548Y-95872316D01*
X121673547Y-95872317D01*
X121513589Y-96003589D01*
X121382317Y-96163547D01*
X121284769Y-96346043D01*
X121224699Y-96544067D01*
X121204417Y-96749999D01*
X121224699Y-96955932D01*
X121224700Y-96955934D01*
X121284768Y-97153954D01*
X121382315Y-97336450D01*
X121382317Y-97336452D01*
X121513589Y-97496410D01*
X121579510Y-97550509D01*
X121673550Y-97627685D01*
X121856046Y-97725232D01*
X122054066Y-97785300D01*
X122054065Y-97785300D01*
X122072529Y-97787118D01*
X122260000Y-97805583D01*
X122465934Y-97785300D01*
X122663954Y-97725232D01*
X122846450Y-97627685D01*
X123006410Y-97496410D01*
X123137685Y-97336450D01*
X123235232Y-97153954D01*
X123295300Y-96955934D01*
X123315583Y-96750000D01*
X123315583Y-96749999D01*
X123744417Y-96749999D01*
X123764699Y-96955932D01*
X123764700Y-96955934D01*
X123824768Y-97153954D01*
X123922315Y-97336450D01*
X123922317Y-97336452D01*
X124053589Y-97496410D01*
X124119510Y-97550509D01*
X124213550Y-97627685D01*
X124396046Y-97725232D01*
X124594066Y-97785300D01*
X124594065Y-97785300D01*
X124612529Y-97787118D01*
X124800000Y-97805583D01*
X125005934Y-97785300D01*
X125203954Y-97725232D01*
X125386450Y-97627685D01*
X125546410Y-97496410D01*
X125677685Y-97336450D01*
X125775232Y-97153954D01*
X125835300Y-96955934D01*
X125855583Y-96750000D01*
X126284417Y-96750000D01*
X126304699Y-96955932D01*
X126304700Y-96955934D01*
X126364768Y-97153954D01*
X126462315Y-97336450D01*
X126462317Y-97336452D01*
X126593589Y-97496410D01*
X126659510Y-97550509D01*
X126753550Y-97627685D01*
X126936046Y-97725232D01*
X127134066Y-97785300D01*
X127134065Y-97785300D01*
X127154348Y-97787297D01*
X127340000Y-97805583D01*
X127545934Y-97785300D01*
X127743954Y-97725232D01*
X127926450Y-97627685D01*
X128086410Y-97496410D01*
X128217685Y-97336450D01*
X128315232Y-97153954D01*
X128335406Y-97087446D01*
X128373702Y-97029010D01*
X128437514Y-97000553D01*
X128506581Y-97011112D01*
X128558975Y-97057336D01*
X128573841Y-97091349D01*
X128606567Y-97213486D01*
X128606570Y-97213492D01*
X128706399Y-97427578D01*
X128841894Y-97621082D01*
X129008917Y-97788105D01*
X129202421Y-97923600D01*
X129416507Y-98023429D01*
X129416516Y-98023433D01*
X129629999Y-98080634D01*
X129629999Y-97362301D01*
X129649683Y-97295262D01*
X129702487Y-97249507D01*
X129771646Y-97239563D01*
X129778380Y-97240531D01*
X129844237Y-97250000D01*
X129844238Y-97250000D01*
X129915762Y-97250000D01*
X129915763Y-97250000D01*
X129988353Y-97239563D01*
X130057512Y-97249507D01*
X130110315Y-97295262D01*
X130130000Y-97362301D01*
X130130000Y-98080633D01*
X130343483Y-98023433D01*
X130343492Y-98023429D01*
X130557578Y-97923600D01*
X130751082Y-97788105D01*
X130918105Y-97621082D01*
X131053600Y-97427578D01*
X131153429Y-97213492D01*
X131153433Y-97213483D01*
X131186158Y-97091350D01*
X131222522Y-97031690D01*
X131285369Y-97001160D01*
X131354745Y-97009454D01*
X131408623Y-97053939D01*
X131424593Y-97087447D01*
X131444768Y-97153954D01*
X131542315Y-97336450D01*
X131542317Y-97336452D01*
X131673589Y-97496410D01*
X131739510Y-97550509D01*
X131833550Y-97627685D01*
X132016046Y-97725232D01*
X132214066Y-97785300D01*
X132214065Y-97785300D01*
X132234348Y-97787297D01*
X132420000Y-97805583D01*
X132625934Y-97785300D01*
X132823954Y-97725232D01*
X133006450Y-97627685D01*
X133166410Y-97496410D01*
X133297685Y-97336450D01*
X133395232Y-97153954D01*
X133455300Y-96955934D01*
X133475583Y-96750000D01*
X133455300Y-96544066D01*
X133395232Y-96346046D01*
X133297685Y-96163550D01*
X133222897Y-96072420D01*
X133166410Y-96003589D01*
X133016121Y-95880252D01*
X133006450Y-95872315D01*
X132823954Y-95774768D01*
X132625934Y-95714700D01*
X132625932Y-95714699D01*
X132625934Y-95714699D01*
X132420000Y-95694417D01*
X132214067Y-95714699D01*
X132079736Y-95755448D01*
X132016050Y-95774767D01*
X132016043Y-95774769D01*
X131928114Y-95821769D01*
X131833550Y-95872315D01*
X131833548Y-95872316D01*
X131833547Y-95872317D01*
X131673589Y-96003589D01*
X131542317Y-96163547D01*
X131444767Y-96346046D01*
X131424593Y-96412552D01*
X131386296Y-96470990D01*
X131322483Y-96499447D01*
X131253416Y-96488886D01*
X131201023Y-96442661D01*
X131186158Y-96408649D01*
X131153433Y-96286516D01*
X131153429Y-96286507D01*
X131053600Y-96072422D01*
X131053599Y-96072420D01*
X130918113Y-95878926D01*
X130918108Y-95878920D01*
X130751082Y-95711894D01*
X130557578Y-95576399D01*
X130343492Y-95476570D01*
X130343486Y-95476567D01*
X130221349Y-95443841D01*
X130161689Y-95407476D01*
X130131160Y-95344629D01*
X130139455Y-95275253D01*
X130183940Y-95221375D01*
X130217444Y-95205407D01*
X130283954Y-95185232D01*
X130466450Y-95087685D01*
X130626410Y-94956410D01*
X130757685Y-94796450D01*
X130855232Y-94613954D01*
X130915300Y-94415934D01*
X130935583Y-94210000D01*
X130935583Y-94209999D01*
X131364417Y-94209999D01*
X131384699Y-94415932D01*
X131406867Y-94489010D01*
X131444768Y-94613954D01*
X131542315Y-94796450D01*
X131542317Y-94796452D01*
X131673589Y-94956410D01*
X131727314Y-95000500D01*
X131833550Y-95087685D01*
X132016046Y-95185232D01*
X132214066Y-95245300D01*
X132214065Y-95245300D01*
X132234347Y-95247297D01*
X132420000Y-95265583D01*
X132625934Y-95245300D01*
X132823954Y-95185232D01*
X133006450Y-95087685D01*
X133166410Y-94956410D01*
X133297685Y-94796450D01*
X133395232Y-94613954D01*
X133415406Y-94547446D01*
X133453702Y-94489010D01*
X133517514Y-94460553D01*
X133586581Y-94471112D01*
X133638975Y-94517336D01*
X133653841Y-94551349D01*
X133686567Y-94673486D01*
X133686570Y-94673492D01*
X133786399Y-94887578D01*
X133921894Y-95081082D01*
X134088917Y-95248105D01*
X134282421Y-95383600D01*
X134496507Y-95483429D01*
X134496516Y-95483433D01*
X134618649Y-95516158D01*
X134678310Y-95552523D01*
X134708839Y-95615369D01*
X134700545Y-95684745D01*
X134656059Y-95738623D01*
X134622552Y-95754593D01*
X134556046Y-95774767D01*
X134468112Y-95821770D01*
X134373550Y-95872315D01*
X134373548Y-95872316D01*
X134373547Y-95872317D01*
X134213589Y-96003589D01*
X134082317Y-96163547D01*
X133984769Y-96346043D01*
X133924699Y-96544067D01*
X133904417Y-96749999D01*
X133924699Y-96955932D01*
X133924700Y-96955934D01*
X133984768Y-97153954D01*
X134082315Y-97336450D01*
X134082317Y-97336452D01*
X134213589Y-97496410D01*
X134279510Y-97550509D01*
X134373550Y-97627685D01*
X134556046Y-97725232D01*
X134754066Y-97785300D01*
X134754065Y-97785300D01*
X134772529Y-97787118D01*
X134960000Y-97805583D01*
X135165934Y-97785300D01*
X135363954Y-97725232D01*
X135546450Y-97627685D01*
X135706410Y-97496410D01*
X135837685Y-97336450D01*
X135935232Y-97153954D01*
X135995300Y-96955934D01*
X136015583Y-96750000D01*
X136444417Y-96750000D01*
X136464699Y-96955932D01*
X136464700Y-96955934D01*
X136524768Y-97153954D01*
X136622315Y-97336450D01*
X136622317Y-97336452D01*
X136753589Y-97496410D01*
X136819510Y-97550509D01*
X136913550Y-97627685D01*
X137096046Y-97725232D01*
X137294066Y-97785300D01*
X137294065Y-97785300D01*
X137312529Y-97787118D01*
X137500000Y-97805583D01*
X137705934Y-97785300D01*
X137903954Y-97725232D01*
X138086450Y-97627685D01*
X138246410Y-97496410D01*
X138377685Y-97336450D01*
X138475232Y-97153954D01*
X138535300Y-96955934D01*
X138555583Y-96750000D01*
X138535300Y-96544066D01*
X138475232Y-96346046D01*
X138377685Y-96163550D01*
X138302897Y-96072420D01*
X138246410Y-96003589D01*
X138096121Y-95880252D01*
X138086450Y-95872315D01*
X137903954Y-95774768D01*
X137705934Y-95714700D01*
X137705932Y-95714699D01*
X137705934Y-95714699D01*
X137518463Y-95696235D01*
X137500000Y-95694417D01*
X137499999Y-95694417D01*
X137294067Y-95714699D01*
X137159736Y-95755448D01*
X137096050Y-95774767D01*
X137096043Y-95774769D01*
X137008114Y-95821769D01*
X136913550Y-95872315D01*
X136913548Y-95872316D01*
X136913547Y-95872317D01*
X136753589Y-96003589D01*
X136622317Y-96163547D01*
X136524769Y-96346043D01*
X136464699Y-96544067D01*
X136444417Y-96750000D01*
X136015583Y-96750000D01*
X135995300Y-96544066D01*
X135935232Y-96346046D01*
X135837685Y-96163550D01*
X135762897Y-96072420D01*
X135706410Y-96003589D01*
X135556121Y-95880252D01*
X135546450Y-95872315D01*
X135363954Y-95774768D01*
X135297447Y-95754593D01*
X135239009Y-95716296D01*
X135210553Y-95652484D01*
X135221113Y-95583417D01*
X135267337Y-95531023D01*
X135301350Y-95516158D01*
X135423483Y-95483433D01*
X135423492Y-95483429D01*
X135637578Y-95383600D01*
X135831082Y-95248105D01*
X135998105Y-95081082D01*
X136133600Y-94887578D01*
X136233429Y-94673492D01*
X136233433Y-94673483D01*
X136266158Y-94551350D01*
X136302522Y-94491690D01*
X136365369Y-94461160D01*
X136434745Y-94469454D01*
X136488623Y-94513939D01*
X136504593Y-94547447D01*
X136524768Y-94613954D01*
X136622315Y-94796450D01*
X136622317Y-94796452D01*
X136753589Y-94956410D01*
X136807314Y-95000500D01*
X136913550Y-95087685D01*
X137096046Y-95185232D01*
X137294066Y-95245300D01*
X137294065Y-95245300D01*
X137312529Y-95247118D01*
X137500000Y-95265583D01*
X137705934Y-95245300D01*
X137903954Y-95185232D01*
X138086450Y-95087685D01*
X138246410Y-94956410D01*
X138377685Y-94796450D01*
X138475232Y-94613954D01*
X138495406Y-94547446D01*
X138533702Y-94489010D01*
X138597514Y-94460553D01*
X138666581Y-94471112D01*
X138718975Y-94517336D01*
X138733841Y-94551349D01*
X138766567Y-94673486D01*
X138766570Y-94673492D01*
X138866399Y-94887578D01*
X139001894Y-95081082D01*
X139168917Y-95248105D01*
X139362421Y-95383600D01*
X139576507Y-95483429D01*
X139576516Y-95483433D01*
X139698649Y-95516158D01*
X139758310Y-95552523D01*
X139788839Y-95615369D01*
X139780545Y-95684745D01*
X139736059Y-95738623D01*
X139702552Y-95754593D01*
X139636046Y-95774767D01*
X139548112Y-95821770D01*
X139453550Y-95872315D01*
X139453548Y-95872316D01*
X139453547Y-95872317D01*
X139293589Y-96003589D01*
X139162317Y-96163547D01*
X139064769Y-96346043D01*
X139004699Y-96544067D01*
X138984417Y-96749999D01*
X139004699Y-96955932D01*
X139004700Y-96955934D01*
X139064768Y-97153954D01*
X139162315Y-97336450D01*
X139162317Y-97336452D01*
X139293589Y-97496410D01*
X139359510Y-97550509D01*
X139453550Y-97627685D01*
X139636046Y-97725232D01*
X139834066Y-97785300D01*
X139834065Y-97785300D01*
X139854348Y-97787297D01*
X140040000Y-97805583D01*
X140245934Y-97785300D01*
X140443954Y-97725232D01*
X140626450Y-97627685D01*
X140786410Y-97496410D01*
X140917685Y-97336450D01*
X141015232Y-97153954D01*
X141075300Y-96955934D01*
X141095583Y-96750000D01*
X141095583Y-96749999D01*
X141524417Y-96749999D01*
X141544699Y-96955932D01*
X141544700Y-96955934D01*
X141604768Y-97153954D01*
X141702315Y-97336450D01*
X141702317Y-97336452D01*
X141833589Y-97496410D01*
X141899510Y-97550509D01*
X141993550Y-97627685D01*
X142176046Y-97725232D01*
X142374066Y-97785300D01*
X142374065Y-97785300D01*
X142392529Y-97787118D01*
X142580000Y-97805583D01*
X142785934Y-97785300D01*
X142983954Y-97725232D01*
X143166450Y-97627685D01*
X143326410Y-97496410D01*
X143457685Y-97336450D01*
X143555232Y-97153954D01*
X143615300Y-96955934D01*
X143635583Y-96750000D01*
X144064417Y-96750000D01*
X144084699Y-96955932D01*
X144084700Y-96955934D01*
X144144768Y-97153954D01*
X144242315Y-97336450D01*
X144242317Y-97336452D01*
X144373589Y-97496410D01*
X144439510Y-97550509D01*
X144533550Y-97627685D01*
X144716046Y-97725232D01*
X144914066Y-97785300D01*
X144914065Y-97785300D01*
X144932529Y-97787118D01*
X145120000Y-97805583D01*
X145325934Y-97785300D01*
X145523954Y-97725232D01*
X145706450Y-97627685D01*
X145866410Y-97496410D01*
X145997685Y-97336450D01*
X146095232Y-97153954D01*
X146115406Y-97087446D01*
X146153702Y-97029010D01*
X146217514Y-97000553D01*
X146286581Y-97011112D01*
X146338975Y-97057336D01*
X146353841Y-97091349D01*
X146386567Y-97213486D01*
X146386570Y-97213492D01*
X146486399Y-97427578D01*
X146621894Y-97621082D01*
X146788917Y-97788105D01*
X146982421Y-97923600D01*
X147196507Y-98023429D01*
X147196516Y-98023433D01*
X147410000Y-98080634D01*
X147410000Y-97362301D01*
X147429685Y-97295262D01*
X147482489Y-97249507D01*
X147551647Y-97239563D01*
X147624237Y-97250000D01*
X147624238Y-97250000D01*
X147695762Y-97250000D01*
X147695763Y-97250000D01*
X147768353Y-97239563D01*
X147837512Y-97249507D01*
X147890315Y-97295262D01*
X147910000Y-97362301D01*
X147910000Y-98080633D01*
X148123483Y-98023433D01*
X148123492Y-98023429D01*
X148337578Y-97923600D01*
X148531082Y-97788105D01*
X148698105Y-97621082D01*
X148833600Y-97427578D01*
X148933429Y-97213492D01*
X148933432Y-97213486D01*
X148990636Y-97000000D01*
X148273347Y-97000000D01*
X148206308Y-96980315D01*
X148160553Y-96927511D01*
X148150609Y-96858353D01*
X148154369Y-96841067D01*
X148160000Y-96821888D01*
X148160000Y-96678111D01*
X148154369Y-96658933D01*
X148154370Y-96589064D01*
X148192145Y-96530286D01*
X148255701Y-96501262D01*
X148273347Y-96500000D01*
X148990636Y-96500000D01*
X148990635Y-96499999D01*
X148933432Y-96286513D01*
X148933429Y-96286507D01*
X148833600Y-96072422D01*
X148833599Y-96072420D01*
X148698113Y-95878926D01*
X148698108Y-95878920D01*
X148531082Y-95711894D01*
X148337578Y-95576399D01*
X148123492Y-95476570D01*
X148123486Y-95476567D01*
X148001349Y-95443841D01*
X147941689Y-95407476D01*
X147911160Y-95344629D01*
X147919455Y-95275253D01*
X147963940Y-95221375D01*
X147997444Y-95205407D01*
X148063954Y-95185232D01*
X148246450Y-95087685D01*
X148406410Y-94956410D01*
X148537685Y-94796450D01*
X148635232Y-94613954D01*
X148695300Y-94415934D01*
X148715583Y-94210000D01*
X148695300Y-94004066D01*
X148635232Y-93806046D01*
X148537685Y-93623550D01*
X148436496Y-93500250D01*
X148406410Y-93463589D01*
X148284532Y-93363568D01*
X148246450Y-93332315D01*
X148063954Y-93234768D01*
X147865934Y-93174700D01*
X147865932Y-93174699D01*
X147865934Y-93174699D01*
X147660000Y-93154417D01*
X147454067Y-93174699D01*
X147256043Y-93234769D01*
X147145897Y-93293643D01*
X147073550Y-93332315D01*
X147073548Y-93332316D01*
X147073547Y-93332317D01*
X146913589Y-93463589D01*
X146803219Y-93598078D01*
X146782315Y-93623550D01*
X146760300Y-93664737D01*
X146684769Y-93806043D01*
X146624699Y-94004067D01*
X146604417Y-94210000D01*
X146624699Y-94415932D01*
X146646867Y-94489010D01*
X146684768Y-94613954D01*
X146782315Y-94796450D01*
X146782317Y-94796452D01*
X146913589Y-94956410D01*
X146967314Y-95000500D01*
X147073550Y-95087685D01*
X147256046Y-95185232D01*
X147322551Y-95205405D01*
X147380989Y-95243702D01*
X147409446Y-95307514D01*
X147398887Y-95376581D01*
X147352663Y-95428975D01*
X147318650Y-95443841D01*
X147196514Y-95476567D01*
X147196507Y-95476570D01*
X146982422Y-95576399D01*
X146982420Y-95576400D01*
X146788926Y-95711886D01*
X146788920Y-95711891D01*
X146621891Y-95878920D01*
X146621886Y-95878926D01*
X146486400Y-96072420D01*
X146486399Y-96072422D01*
X146386570Y-96286507D01*
X146386567Y-96286514D01*
X146353841Y-96408650D01*
X146317476Y-96468310D01*
X146254629Y-96498839D01*
X146185253Y-96490544D01*
X146131375Y-96446059D01*
X146115406Y-96412552D01*
X146095232Y-96346046D01*
X145997685Y-96163550D01*
X145922897Y-96072420D01*
X145866410Y-96003589D01*
X145716121Y-95880252D01*
X145706450Y-95872315D01*
X145523954Y-95774768D01*
X145325934Y-95714700D01*
X145325932Y-95714699D01*
X145325934Y-95714699D01*
X145120000Y-95694417D01*
X144914067Y-95714699D01*
X144779736Y-95755448D01*
X144716050Y-95774767D01*
X144716043Y-95774769D01*
X144628114Y-95821769D01*
X144533550Y-95872315D01*
X144533548Y-95872316D01*
X144533547Y-95872317D01*
X144373589Y-96003589D01*
X144242317Y-96163547D01*
X144144769Y-96346043D01*
X144084699Y-96544067D01*
X144064417Y-96750000D01*
X143635583Y-96750000D01*
X143615300Y-96544066D01*
X143555232Y-96346046D01*
X143457685Y-96163550D01*
X143382897Y-96072420D01*
X143326410Y-96003589D01*
X143176121Y-95880252D01*
X143166450Y-95872315D01*
X142983954Y-95774768D01*
X142785934Y-95714700D01*
X142785932Y-95714699D01*
X142785934Y-95714699D01*
X142580000Y-95694417D01*
X142374067Y-95714699D01*
X142239736Y-95755448D01*
X142176050Y-95774767D01*
X142176043Y-95774769D01*
X142088114Y-95821769D01*
X141993550Y-95872315D01*
X141993548Y-95872316D01*
X141993547Y-95872317D01*
X141833589Y-96003589D01*
X141702317Y-96163547D01*
X141604769Y-96346043D01*
X141544699Y-96544067D01*
X141524417Y-96749999D01*
X141095583Y-96749999D01*
X141075300Y-96544066D01*
X141015232Y-96346046D01*
X140917685Y-96163550D01*
X140842897Y-96072420D01*
X140786410Y-96003589D01*
X140636121Y-95880252D01*
X140626450Y-95872315D01*
X140443954Y-95774768D01*
X140377447Y-95754593D01*
X140319009Y-95716296D01*
X140290553Y-95652484D01*
X140301113Y-95583417D01*
X140347337Y-95531023D01*
X140381350Y-95516158D01*
X140503483Y-95483433D01*
X140503492Y-95483429D01*
X140717578Y-95383600D01*
X140911082Y-95248105D01*
X141078105Y-95081082D01*
X141213600Y-94887578D01*
X141313429Y-94673492D01*
X141313433Y-94673483D01*
X141346158Y-94551350D01*
X141382522Y-94491690D01*
X141445369Y-94461160D01*
X141514745Y-94469454D01*
X141568623Y-94513939D01*
X141584593Y-94547447D01*
X141604768Y-94613954D01*
X141702315Y-94796450D01*
X141702317Y-94796452D01*
X141833589Y-94956410D01*
X141887314Y-95000500D01*
X141993550Y-95087685D01*
X142176046Y-95185232D01*
X142374066Y-95245300D01*
X142374065Y-95245300D01*
X142394348Y-95247297D01*
X142580000Y-95265583D01*
X142785934Y-95245300D01*
X142983954Y-95185232D01*
X143166450Y-95087685D01*
X143326410Y-94956410D01*
X143457685Y-94796450D01*
X143555232Y-94613954D01*
X143615300Y-94415934D01*
X143635583Y-94210000D01*
X144064417Y-94210000D01*
X144084699Y-94415932D01*
X144106867Y-94489010D01*
X144144768Y-94613954D01*
X144242315Y-94796450D01*
X144242317Y-94796452D01*
X144373589Y-94956410D01*
X144427314Y-95000500D01*
X144533550Y-95087685D01*
X144716046Y-95185232D01*
X144914066Y-95245300D01*
X144914065Y-95245300D01*
X144932529Y-95247118D01*
X145120000Y-95265583D01*
X145325934Y-95245300D01*
X145523954Y-95185232D01*
X145706450Y-95087685D01*
X145866410Y-94956410D01*
X145997685Y-94796450D01*
X146095232Y-94613954D01*
X146155300Y-94415934D01*
X146175583Y-94210000D01*
X146155300Y-94004066D01*
X146095232Y-93806046D01*
X145997685Y-93623550D01*
X145896496Y-93500250D01*
X145866410Y-93463589D01*
X145744532Y-93363568D01*
X145706450Y-93332315D01*
X145523954Y-93234768D01*
X145325934Y-93174700D01*
X145325932Y-93174699D01*
X145325934Y-93174699D01*
X145120000Y-93154417D01*
X144914067Y-93174699D01*
X144716043Y-93234769D01*
X144605897Y-93293643D01*
X144533550Y-93332315D01*
X144533548Y-93332316D01*
X144533547Y-93332317D01*
X144373589Y-93463589D01*
X144263219Y-93598078D01*
X144242315Y-93623550D01*
X144220300Y-93664737D01*
X144144769Y-93806043D01*
X144084699Y-94004067D01*
X144064417Y-94210000D01*
X143635583Y-94210000D01*
X143615300Y-94004066D01*
X143555232Y-93806046D01*
X143457685Y-93623550D01*
X143356496Y-93500250D01*
X143326410Y-93463589D01*
X143204532Y-93363568D01*
X143166450Y-93332315D01*
X142983954Y-93234768D01*
X142785934Y-93174700D01*
X142785932Y-93174699D01*
X142785934Y-93174699D01*
X142580000Y-93154417D01*
X142374067Y-93174699D01*
X142176043Y-93234769D01*
X142065897Y-93293643D01*
X141993550Y-93332315D01*
X141993548Y-93332316D01*
X141993547Y-93332317D01*
X141833589Y-93463589D01*
X141723219Y-93598078D01*
X141702315Y-93623550D01*
X141680300Y-93664737D01*
X141604767Y-93806046D01*
X141584593Y-93872552D01*
X141546296Y-93930990D01*
X141482483Y-93959447D01*
X141413416Y-93948886D01*
X141361023Y-93902661D01*
X141346158Y-93868649D01*
X141313433Y-93746516D01*
X141313429Y-93746507D01*
X141213600Y-93532422D01*
X141213599Y-93532420D01*
X141078113Y-93338926D01*
X141078108Y-93338920D01*
X140911082Y-93171894D01*
X140717578Y-93036399D01*
X140503492Y-92936570D01*
X140503486Y-92936567D01*
X140290000Y-92879364D01*
X140290000Y-93597698D01*
X140270315Y-93664737D01*
X140217511Y-93710492D01*
X140148355Y-93720436D01*
X140075766Y-93710000D01*
X140075763Y-93710000D01*
X140004237Y-93710000D01*
X140004233Y-93710000D01*
X139931645Y-93720436D01*
X139862487Y-93710492D01*
X139809684Y-93664736D01*
X139790000Y-93597698D01*
X139790000Y-92879364D01*
X139789999Y-92879364D01*
X139576513Y-92936567D01*
X139576507Y-92936570D01*
X139362422Y-93036399D01*
X139362420Y-93036400D01*
X139168926Y-93171886D01*
X139168920Y-93171891D01*
X139001891Y-93338920D01*
X139001886Y-93338926D01*
X138866400Y-93532420D01*
X138866399Y-93532422D01*
X138766570Y-93746507D01*
X138766567Y-93746514D01*
X138733841Y-93868650D01*
X138697476Y-93928310D01*
X138634629Y-93958839D01*
X138565253Y-93950544D01*
X138511375Y-93906059D01*
X138495406Y-93872552D01*
X138475232Y-93806046D01*
X138377685Y-93623550D01*
X138276496Y-93500250D01*
X138246410Y-93463589D01*
X138124532Y-93363568D01*
X138086450Y-93332315D01*
X137903954Y-93234768D01*
X137705934Y-93174700D01*
X137705932Y-93174699D01*
X137705934Y-93174699D01*
X137500000Y-93154417D01*
X137294067Y-93174699D01*
X137096043Y-93234769D01*
X136985897Y-93293643D01*
X136913550Y-93332315D01*
X136913548Y-93332316D01*
X136913547Y-93332317D01*
X136753589Y-93463589D01*
X136643219Y-93598078D01*
X136622315Y-93623550D01*
X136600300Y-93664737D01*
X136524767Y-93806046D01*
X136504593Y-93872552D01*
X136466296Y-93930990D01*
X136402483Y-93959447D01*
X136333416Y-93948886D01*
X136281023Y-93902661D01*
X136266158Y-93868649D01*
X136233433Y-93746516D01*
X136233429Y-93746507D01*
X136133600Y-93532422D01*
X136133599Y-93532420D01*
X135998113Y-93338926D01*
X135998108Y-93338920D01*
X135831082Y-93171894D01*
X135637578Y-93036399D01*
X135423492Y-92936570D01*
X135423486Y-92936567D01*
X135210000Y-92879364D01*
X135210000Y-93597698D01*
X135190315Y-93664737D01*
X135137511Y-93710492D01*
X135068355Y-93720436D01*
X134995766Y-93710000D01*
X134995763Y-93710000D01*
X134924237Y-93710000D01*
X134924233Y-93710000D01*
X134851645Y-93720436D01*
X134782487Y-93710492D01*
X134729684Y-93664736D01*
X134710000Y-93597698D01*
X134710000Y-92879364D01*
X134709999Y-92879364D01*
X134496513Y-92936567D01*
X134496507Y-92936570D01*
X134282422Y-93036399D01*
X134282420Y-93036400D01*
X134088926Y-93171886D01*
X134088920Y-93171891D01*
X133921891Y-93338920D01*
X133921886Y-93338926D01*
X133786400Y-93532420D01*
X133786399Y-93532422D01*
X133686570Y-93746507D01*
X133686567Y-93746514D01*
X133653841Y-93868650D01*
X133617476Y-93928310D01*
X133554629Y-93958839D01*
X133485253Y-93950544D01*
X133431375Y-93906059D01*
X133415406Y-93872552D01*
X133395232Y-93806046D01*
X133297685Y-93623550D01*
X133196496Y-93500250D01*
X133166410Y-93463589D01*
X133044532Y-93363568D01*
X133006450Y-93332315D01*
X132823954Y-93234768D01*
X132625934Y-93174700D01*
X132625932Y-93174699D01*
X132625934Y-93174699D01*
X132438463Y-93156235D01*
X132420000Y-93154417D01*
X132419999Y-93154417D01*
X132214067Y-93174699D01*
X132016043Y-93234769D01*
X131905897Y-93293643D01*
X131833550Y-93332315D01*
X131833548Y-93332316D01*
X131833547Y-93332317D01*
X131673589Y-93463589D01*
X131563219Y-93598078D01*
X131542315Y-93623550D01*
X131520300Y-93664737D01*
X131444769Y-93806043D01*
X131384699Y-94004067D01*
X131364417Y-94209999D01*
X130935583Y-94209999D01*
X130915300Y-94004066D01*
X130855232Y-93806046D01*
X130757685Y-93623550D01*
X130656496Y-93500250D01*
X130626410Y-93463589D01*
X130504532Y-93363568D01*
X130466450Y-93332315D01*
X130283954Y-93234768D01*
X130085934Y-93174700D01*
X130085932Y-93174699D01*
X130085934Y-93174699D01*
X129898463Y-93156235D01*
X129880000Y-93154417D01*
X129879999Y-93154417D01*
X129674067Y-93174699D01*
X129476043Y-93234769D01*
X129365897Y-93293643D01*
X129293550Y-93332315D01*
X129293548Y-93332316D01*
X129293547Y-93332317D01*
X129133589Y-93463589D01*
X129023219Y-93598078D01*
X129002315Y-93623550D01*
X128980300Y-93664737D01*
X128904769Y-93806043D01*
X128844699Y-94004067D01*
X128824417Y-94210000D01*
X128844699Y-94415932D01*
X128866867Y-94489010D01*
X128904768Y-94613954D01*
X129002315Y-94796450D01*
X129002317Y-94796452D01*
X129133589Y-94956410D01*
X129187314Y-95000500D01*
X129293550Y-95087685D01*
X129476046Y-95185232D01*
X129542551Y-95205405D01*
X129600989Y-95243702D01*
X129629446Y-95307514D01*
X129618887Y-95376581D01*
X129572663Y-95428975D01*
X129538650Y-95443841D01*
X129416514Y-95476567D01*
X129416507Y-95476570D01*
X129202422Y-95576399D01*
X129202420Y-95576400D01*
X129008926Y-95711886D01*
X129008920Y-95711891D01*
X128841891Y-95878920D01*
X128841886Y-95878926D01*
X128706400Y-96072420D01*
X128706399Y-96072422D01*
X128606570Y-96286507D01*
X128606567Y-96286514D01*
X128573841Y-96408650D01*
X128537476Y-96468310D01*
X128474629Y-96498839D01*
X128405253Y-96490544D01*
X128351375Y-96446059D01*
X128335406Y-96412552D01*
X128315232Y-96346046D01*
X128217685Y-96163550D01*
X128142897Y-96072420D01*
X128086410Y-96003589D01*
X127936121Y-95880252D01*
X127926450Y-95872315D01*
X127743954Y-95774768D01*
X127545934Y-95714700D01*
X127545932Y-95714699D01*
X127545934Y-95714699D01*
X127340000Y-95694417D01*
X127134067Y-95714699D01*
X126999736Y-95755448D01*
X126936050Y-95774767D01*
X126936043Y-95774769D01*
X126848114Y-95821769D01*
X126753550Y-95872315D01*
X126753548Y-95872316D01*
X126753547Y-95872317D01*
X126593589Y-96003589D01*
X126462317Y-96163547D01*
X126364769Y-96346043D01*
X126304699Y-96544067D01*
X126284417Y-96750000D01*
X125855583Y-96750000D01*
X125835300Y-96544066D01*
X125775232Y-96346046D01*
X125677685Y-96163550D01*
X125602897Y-96072420D01*
X125546410Y-96003589D01*
X125396121Y-95880252D01*
X125386450Y-95872315D01*
X125203954Y-95774768D01*
X125005934Y-95714700D01*
X125005932Y-95714699D01*
X125005934Y-95714699D01*
X124818463Y-95696235D01*
X124800000Y-95694417D01*
X124799999Y-95694417D01*
X124594067Y-95714699D01*
X124459736Y-95755448D01*
X124396050Y-95774767D01*
X124396043Y-95774769D01*
X124308114Y-95821769D01*
X124213550Y-95872315D01*
X124213548Y-95872316D01*
X124213547Y-95872317D01*
X124053589Y-96003589D01*
X123922317Y-96163547D01*
X123824769Y-96346043D01*
X123764699Y-96544067D01*
X123744417Y-96749999D01*
X123315583Y-96749999D01*
X123295300Y-96544066D01*
X123235232Y-96346046D01*
X123137685Y-96163550D01*
X123062897Y-96072420D01*
X123006410Y-96003589D01*
X122856121Y-95880252D01*
X122846450Y-95872315D01*
X122663954Y-95774768D01*
X122597447Y-95754593D01*
X122539009Y-95716296D01*
X122510553Y-95652484D01*
X122521113Y-95583417D01*
X122567337Y-95531023D01*
X122601350Y-95516158D01*
X122723483Y-95483433D01*
X122723492Y-95483429D01*
X122937578Y-95383600D01*
X123131082Y-95248105D01*
X123298105Y-95081082D01*
X123433600Y-94887578D01*
X123533429Y-94673492D01*
X123533433Y-94673483D01*
X123566158Y-94551350D01*
X123602522Y-94491690D01*
X123665369Y-94461160D01*
X123734745Y-94469454D01*
X123788623Y-94513939D01*
X123804593Y-94547447D01*
X123824768Y-94613954D01*
X123922315Y-94796450D01*
X123922317Y-94796452D01*
X124053589Y-94956410D01*
X124107314Y-95000500D01*
X124213550Y-95087685D01*
X124396046Y-95185232D01*
X124594066Y-95245300D01*
X124594065Y-95245300D01*
X124612529Y-95247118D01*
X124800000Y-95265583D01*
X125005934Y-95245300D01*
X125203954Y-95185232D01*
X125386450Y-95087685D01*
X125546410Y-94956410D01*
X125677685Y-94796450D01*
X125775232Y-94613954D01*
X125835300Y-94415934D01*
X125855583Y-94210000D01*
X126284417Y-94210000D01*
X126304699Y-94415932D01*
X126326867Y-94489010D01*
X126364768Y-94613954D01*
X126462315Y-94796450D01*
X126462317Y-94796452D01*
X126593589Y-94956410D01*
X126647314Y-95000500D01*
X126753550Y-95087685D01*
X126936046Y-95185232D01*
X127134066Y-95245300D01*
X127134065Y-95245300D01*
X127152529Y-95247118D01*
X127340000Y-95265583D01*
X127545934Y-95245300D01*
X127743954Y-95185232D01*
X127926450Y-95087685D01*
X128086410Y-94956410D01*
X128217685Y-94796450D01*
X128315232Y-94613954D01*
X128375300Y-94415934D01*
X128395583Y-94210000D01*
X128375300Y-94004066D01*
X128315232Y-93806046D01*
X128217685Y-93623550D01*
X128116496Y-93500250D01*
X128086410Y-93463589D01*
X127964532Y-93363568D01*
X127926450Y-93332315D01*
X127743954Y-93234768D01*
X127545934Y-93174700D01*
X127545932Y-93174699D01*
X127545934Y-93174699D01*
X127358463Y-93156235D01*
X127340000Y-93154417D01*
X127339999Y-93154417D01*
X127134067Y-93174699D01*
X126936043Y-93234769D01*
X126825897Y-93293643D01*
X126753550Y-93332315D01*
X126753548Y-93332316D01*
X126753547Y-93332317D01*
X126593589Y-93463589D01*
X126483219Y-93598078D01*
X126462315Y-93623550D01*
X126440300Y-93664737D01*
X126364769Y-93806043D01*
X126304699Y-94004067D01*
X126284417Y-94210000D01*
X125855583Y-94210000D01*
X125835300Y-94004066D01*
X125775232Y-93806046D01*
X125677685Y-93623550D01*
X125576496Y-93500250D01*
X125546410Y-93463589D01*
X125424532Y-93363568D01*
X125386450Y-93332315D01*
X125203954Y-93234768D01*
X125005934Y-93174700D01*
X125005932Y-93174699D01*
X125005934Y-93174699D01*
X124800000Y-93154417D01*
X124594067Y-93174699D01*
X124396043Y-93234769D01*
X124285897Y-93293643D01*
X124213550Y-93332315D01*
X124213548Y-93332316D01*
X124213547Y-93332317D01*
X124053589Y-93463589D01*
X123943219Y-93598078D01*
X123922315Y-93623550D01*
X123900300Y-93664737D01*
X123824767Y-93806046D01*
X123804593Y-93872552D01*
X123766296Y-93930990D01*
X123702483Y-93959447D01*
X123633416Y-93948886D01*
X123581023Y-93902661D01*
X123566158Y-93868649D01*
X123533433Y-93746516D01*
X123533429Y-93746507D01*
X123433600Y-93532422D01*
X123433599Y-93532420D01*
X123298113Y-93338926D01*
X123298108Y-93338920D01*
X123131082Y-93171894D01*
X122937578Y-93036399D01*
X122723492Y-92936570D01*
X122723486Y-92936567D01*
X122510000Y-92879364D01*
X122510000Y-93597698D01*
X122490315Y-93664737D01*
X122437511Y-93710492D01*
X122368355Y-93720436D01*
X122295766Y-93710000D01*
X122295763Y-93710000D01*
X122224237Y-93710000D01*
X122224233Y-93710000D01*
X122151645Y-93720436D01*
X122082487Y-93710492D01*
X122029684Y-93664736D01*
X122010000Y-93597698D01*
X122010000Y-92879364D01*
X122009999Y-92879364D01*
X121796513Y-92936567D01*
X121796507Y-92936570D01*
X121582422Y-93036399D01*
X121582420Y-93036400D01*
X121388926Y-93171886D01*
X121388920Y-93171891D01*
X121221891Y-93338920D01*
X121221886Y-93338926D01*
X121086400Y-93532420D01*
X121086399Y-93532422D01*
X120986570Y-93746507D01*
X120986567Y-93746514D01*
X120953841Y-93868650D01*
X120917476Y-93928310D01*
X120854629Y-93958839D01*
X120785253Y-93950544D01*
X120731375Y-93906059D01*
X120715406Y-93872552D01*
X120695232Y-93806046D01*
X120597685Y-93623550D01*
X120496496Y-93500250D01*
X120466410Y-93463589D01*
X120344532Y-93363568D01*
X120306450Y-93332315D01*
X120123954Y-93234768D01*
X119925934Y-93174700D01*
X119925932Y-93174699D01*
X119925934Y-93174699D01*
X119738463Y-93156235D01*
X119720000Y-93154417D01*
X119719999Y-93154417D01*
X119514067Y-93174699D01*
X119316043Y-93234769D01*
X119205897Y-93293643D01*
X119133550Y-93332315D01*
X119133548Y-93332316D01*
X119133547Y-93332317D01*
X118973589Y-93463589D01*
X118863219Y-93598078D01*
X118842315Y-93623550D01*
X118820300Y-93664737D01*
X118744769Y-93806043D01*
X118684699Y-94004067D01*
X118664417Y-94210000D01*
X118235583Y-94210000D01*
X118215300Y-94004066D01*
X118155232Y-93806046D01*
X118057685Y-93623550D01*
X117956496Y-93500250D01*
X117926410Y-93463589D01*
X117804532Y-93363568D01*
X117766450Y-93332315D01*
X117583954Y-93234768D01*
X117385934Y-93174700D01*
X117385932Y-93174699D01*
X117385934Y-93174699D01*
X117198463Y-93156235D01*
X117180000Y-93154417D01*
X117179999Y-93154417D01*
X116974067Y-93174699D01*
X116776043Y-93234769D01*
X116665897Y-93293643D01*
X116593550Y-93332315D01*
X116593548Y-93332316D01*
X116593547Y-93332317D01*
X116433589Y-93463589D01*
X116323219Y-93598078D01*
X116302315Y-93623550D01*
X116280300Y-93664737D01*
X116204767Y-93806046D01*
X116184593Y-93872552D01*
X116146296Y-93930990D01*
X116082483Y-93959447D01*
X116013416Y-93948886D01*
X115961023Y-93902661D01*
X115946158Y-93868649D01*
X115913433Y-93746516D01*
X115913429Y-93746507D01*
X115813600Y-93532422D01*
X115813599Y-93532420D01*
X115678113Y-93338926D01*
X115678108Y-93338920D01*
X115511082Y-93171894D01*
X115317578Y-93036399D01*
X115103492Y-92936570D01*
X115103486Y-92936567D01*
X114890000Y-92879364D01*
X114890000Y-93597698D01*
X114870315Y-93664737D01*
X114817511Y-93710492D01*
X114748355Y-93720436D01*
X114675766Y-93710000D01*
X114675763Y-93710000D01*
X114604237Y-93710000D01*
X114604233Y-93710000D01*
X114531645Y-93720436D01*
X114462487Y-93710492D01*
X114409684Y-93664736D01*
X114390000Y-93597698D01*
X114390000Y-92879364D01*
X114389999Y-92879364D01*
X114176513Y-92936567D01*
X114176507Y-92936570D01*
X113962422Y-93036399D01*
X113962420Y-93036400D01*
X113768926Y-93171886D01*
X113768920Y-93171891D01*
X113601891Y-93338920D01*
X113601886Y-93338926D01*
X113466400Y-93532420D01*
X113466399Y-93532422D01*
X113366570Y-93746507D01*
X113366567Y-93746514D01*
X113333841Y-93868650D01*
X113297476Y-93928310D01*
X113234629Y-93958839D01*
X113165253Y-93950544D01*
X113111375Y-93906059D01*
X113095406Y-93872552D01*
X113075232Y-93806046D01*
X112977685Y-93623550D01*
X112876496Y-93500250D01*
X112846410Y-93463589D01*
X112724532Y-93363568D01*
X112686450Y-93332315D01*
X112503954Y-93234768D01*
X112305934Y-93174700D01*
X112305932Y-93174699D01*
X112305934Y-93174699D01*
X112100000Y-93154417D01*
X111894067Y-93174699D01*
X111696043Y-93234769D01*
X111585897Y-93293643D01*
X111513550Y-93332315D01*
X111513548Y-93332316D01*
X111513547Y-93332317D01*
X111353589Y-93463589D01*
X111243219Y-93598078D01*
X111222315Y-93623550D01*
X111200300Y-93664737D01*
X111124769Y-93806043D01*
X111064699Y-94004067D01*
X111044417Y-94210000D01*
X110615583Y-94210000D01*
X110595300Y-94004066D01*
X110535232Y-93806046D01*
X110437685Y-93623550D01*
X110336496Y-93500250D01*
X110306410Y-93463589D01*
X110184532Y-93363568D01*
X110146450Y-93332315D01*
X109963954Y-93234768D01*
X109765934Y-93174700D01*
X109765932Y-93174699D01*
X109765934Y-93174699D01*
X109578463Y-93156235D01*
X109560000Y-93154417D01*
X109559999Y-93154417D01*
X109354067Y-93174699D01*
X109156043Y-93234769D01*
X109045897Y-93293643D01*
X108973550Y-93332315D01*
X108973548Y-93332316D01*
X108973547Y-93332317D01*
X108813589Y-93463589D01*
X108703219Y-93598078D01*
X108682315Y-93623550D01*
X108660300Y-93664737D01*
X108584769Y-93806043D01*
X108524699Y-94004067D01*
X108504417Y-94210000D01*
X108524699Y-94415932D01*
X108546867Y-94489010D01*
X108584768Y-94613954D01*
X108682315Y-94796450D01*
X108682317Y-94796452D01*
X108813589Y-94956410D01*
X108867314Y-95000500D01*
X108973550Y-95087685D01*
X109156046Y-95185232D01*
X109222551Y-95205405D01*
X109280989Y-95243702D01*
X109309446Y-95307514D01*
X109298887Y-95376581D01*
X109252663Y-95428975D01*
X109218650Y-95443841D01*
X109096514Y-95476567D01*
X109096507Y-95476570D01*
X108882422Y-95576399D01*
X108882420Y-95576400D01*
X108688926Y-95711886D01*
X108688920Y-95711891D01*
X108521891Y-95878920D01*
X108521886Y-95878926D01*
X108386400Y-96072420D01*
X108386399Y-96072422D01*
X108286570Y-96286507D01*
X108286567Y-96286514D01*
X108253841Y-96408650D01*
X108217476Y-96468310D01*
X108154629Y-96498839D01*
X108085253Y-96490544D01*
X108031375Y-96446059D01*
X108015406Y-96412552D01*
X107995232Y-96346046D01*
X107897685Y-96163550D01*
X107822897Y-96072420D01*
X107766410Y-96003589D01*
X107616121Y-95880252D01*
X107606450Y-95872315D01*
X107423954Y-95774768D01*
X107225934Y-95714700D01*
X107225932Y-95714699D01*
X107225934Y-95714699D01*
X107020000Y-95694417D01*
X106814067Y-95714699D01*
X106679736Y-95755448D01*
X106616050Y-95774767D01*
X106616043Y-95774769D01*
X106528114Y-95821769D01*
X106433550Y-95872315D01*
X106433548Y-95872316D01*
X106433547Y-95872317D01*
X106273589Y-96003589D01*
X106142317Y-96163547D01*
X106044769Y-96346043D01*
X105984699Y-96544067D01*
X105964417Y-96750000D01*
X105535583Y-96750000D01*
X105515300Y-96544066D01*
X105455232Y-96346046D01*
X105357685Y-96163550D01*
X105282897Y-96072420D01*
X105226410Y-96003589D01*
X105076121Y-95880252D01*
X105066450Y-95872315D01*
X104883954Y-95774768D01*
X104817447Y-95754593D01*
X104759009Y-95716296D01*
X104730553Y-95652484D01*
X104741113Y-95583417D01*
X104787337Y-95531023D01*
X104821350Y-95516158D01*
X104943483Y-95483433D01*
X104943492Y-95483429D01*
X105157578Y-95383600D01*
X105351082Y-95248105D01*
X105518105Y-95081082D01*
X105653600Y-94887578D01*
X105753429Y-94673492D01*
X105753433Y-94673483D01*
X105786158Y-94551350D01*
X105822522Y-94491690D01*
X105885369Y-94461160D01*
X105954745Y-94469454D01*
X106008623Y-94513939D01*
X106024593Y-94547447D01*
X106044768Y-94613954D01*
X106142315Y-94796450D01*
X106142317Y-94796452D01*
X106273589Y-94956410D01*
X106327314Y-95000500D01*
X106433550Y-95087685D01*
X106616046Y-95185232D01*
X106814066Y-95245300D01*
X106814065Y-95245300D01*
X106834348Y-95247297D01*
X107020000Y-95265583D01*
X107225934Y-95245300D01*
X107423954Y-95185232D01*
X107606450Y-95087685D01*
X107766410Y-94956410D01*
X107897685Y-94796450D01*
X107995232Y-94613954D01*
X108055300Y-94415934D01*
X108075583Y-94210000D01*
X108055300Y-94004066D01*
X107995232Y-93806046D01*
X107897685Y-93623550D01*
X107796496Y-93500250D01*
X107766410Y-93463589D01*
X107644532Y-93363568D01*
X107606450Y-93332315D01*
X107423954Y-93234768D01*
X107225934Y-93174700D01*
X107225932Y-93174699D01*
X107225934Y-93174699D01*
X107020000Y-93154417D01*
X106814067Y-93174699D01*
X106616043Y-93234769D01*
X106505897Y-93293643D01*
X106433550Y-93332315D01*
X106433548Y-93332316D01*
X106433547Y-93332317D01*
X106273589Y-93463589D01*
X106163219Y-93598078D01*
X106142315Y-93623550D01*
X106120300Y-93664737D01*
X106044767Y-93806046D01*
X106024593Y-93872552D01*
X105986296Y-93930990D01*
X105922483Y-93959447D01*
X105853416Y-93948886D01*
X105801023Y-93902661D01*
X105786158Y-93868649D01*
X105753433Y-93746516D01*
X105753429Y-93746507D01*
X105653600Y-93532422D01*
X105653599Y-93532420D01*
X105518113Y-93338926D01*
X105518108Y-93338920D01*
X105351082Y-93171894D01*
X105157578Y-93036399D01*
X104943492Y-92936570D01*
X104943486Y-92936567D01*
X104730000Y-92879364D01*
X104730000Y-93597698D01*
X104710315Y-93664737D01*
X104657511Y-93710492D01*
X104588355Y-93720436D01*
X104515766Y-93710000D01*
X104515763Y-93710000D01*
X104444237Y-93710000D01*
X104444233Y-93710000D01*
X104371645Y-93720436D01*
X104302487Y-93710492D01*
X104249684Y-93664736D01*
X104230000Y-93597698D01*
X104230000Y-92879364D01*
X104229999Y-92879364D01*
X104016513Y-92936567D01*
X104016507Y-92936570D01*
X103802422Y-93036399D01*
X103802420Y-93036400D01*
X103608926Y-93171886D01*
X103608920Y-93171891D01*
X103441891Y-93338920D01*
X103441886Y-93338926D01*
X103306400Y-93532420D01*
X103306399Y-93532422D01*
X103206570Y-93746507D01*
X103206567Y-93746514D01*
X103173841Y-93868650D01*
X103137476Y-93928310D01*
X103074629Y-93958839D01*
X103005253Y-93950544D01*
X102951375Y-93906059D01*
X102935406Y-93872552D01*
X102915232Y-93806046D01*
X102817685Y-93623550D01*
X102716496Y-93500250D01*
X102686410Y-93463589D01*
X102564532Y-93363568D01*
X102526450Y-93332315D01*
X102343954Y-93234768D01*
X102145934Y-93174700D01*
X102145932Y-93174699D01*
X102145934Y-93174699D01*
X101940000Y-93154417D01*
X101734067Y-93174699D01*
X101536043Y-93234769D01*
X101425897Y-93293643D01*
X101353550Y-93332315D01*
X101353548Y-93332316D01*
X101353547Y-93332317D01*
X101193589Y-93463589D01*
X101083219Y-93598078D01*
X101062315Y-93623550D01*
X101040300Y-93664737D01*
X100964769Y-93806043D01*
X100904699Y-94004067D01*
X100884417Y-94210000D01*
X100455583Y-94210000D01*
X100435300Y-94004066D01*
X100375232Y-93806046D01*
X100277685Y-93623550D01*
X100176496Y-93500250D01*
X100146410Y-93463589D01*
X100024532Y-93363568D01*
X99986450Y-93332315D01*
X99803954Y-93234768D01*
X99605934Y-93174700D01*
X99605932Y-93174699D01*
X99605934Y-93174699D01*
X99400000Y-93154417D01*
X99194067Y-93174699D01*
X98996043Y-93234769D01*
X98885897Y-93293643D01*
X98813550Y-93332315D01*
X98813548Y-93332316D01*
X98813547Y-93332317D01*
X98653589Y-93463589D01*
X98543219Y-93598078D01*
X98522315Y-93623550D01*
X98500300Y-93664737D01*
X98424769Y-93806043D01*
X98364699Y-94004067D01*
X98344417Y-94209999D01*
X97429860Y-94209999D01*
X97388094Y-94109167D01*
X97214211Y-93794548D01*
X97161625Y-93720436D01*
X97006194Y-93501377D01*
X97005187Y-93500250D01*
X96766661Y-93233339D01*
X96498623Y-92993806D01*
X96424591Y-92941277D01*
X96205454Y-92785790D01*
X95890831Y-92611905D01*
X95795549Y-92572438D01*
X95593052Y-92488560D01*
X95538650Y-92444720D01*
X95516585Y-92378426D01*
X95533864Y-92310726D01*
X95585002Y-92263116D01*
X95640506Y-92250000D01*
X151359494Y-92250000D01*
X151426533Y-92269685D01*
G37*
%TD.AperFunction*%
%TD*%
M02*
