%TF.GenerationSoftware,KiCad,Pcbnew,7.0.7*%
%TF.CreationDate,2023-09-16T21:48:38+03:00*%
%TF.ProjectId,picoups,7069636f-7570-4732-9e6b-696361645f70,1.1.0*%
%TF.SameCoordinates,Original*%
%TF.FileFunction,Soldermask,Bot*%
%TF.FilePolarity,Negative*%
%FSLAX46Y46*%
G04 Gerber Fmt 4.6, Leading zero omitted, Abs format (unit mm)*
G04 Created by KiCad (PCBNEW 7.0.7) date 2023-09-16 21:48:38*
%MOMM*%
%LPD*%
G01*
G04 APERTURE LIST*
G04 Aperture macros list*
%AMRoundRect*
0 Rectangle with rounded corners*
0 $1 Rounding radius*
0 $2 $3 $4 $5 $6 $7 $8 $9 X,Y pos of 4 corners*
0 Add a 4 corners polygon primitive as box body*
4,1,4,$2,$3,$4,$5,$6,$7,$8,$9,$2,$3,0*
0 Add four circle primitives for the rounded corners*
1,1,$1+$1,$2,$3*
1,1,$1+$1,$4,$5*
1,1,$1+$1,$6,$7*
1,1,$1+$1,$8,$9*
0 Add four rect primitives between the rounded corners*
20,1,$1+$1,$2,$3,$4,$5,0*
20,1,$1+$1,$4,$5,$6,$7,0*
20,1,$1+$1,$6,$7,$8,$9,0*
20,1,$1+$1,$8,$9,$2,$3,0*%
%AMOutline5P*
0 Free polygon, 5 corners , with rotation*
0 The origin of the aperture is its center*
0 number of corners: always 5*
0 $1 to $10 corner X, Y*
0 $11 Rotation angle, in degrees counterclockwise*
0 create outline with 5 corners*
4,1,5,$1,$2,$3,$4,$5,$6,$7,$8,$9,$10,$1,$2,$11*%
%AMOutline6P*
0 Free polygon, 6 corners , with rotation*
0 The origin of the aperture is its center*
0 number of corners: always 6*
0 $1 to $12 corner X, Y*
0 $13 Rotation angle, in degrees counterclockwise*
0 create outline with 6 corners*
4,1,6,$1,$2,$3,$4,$5,$6,$7,$8,$9,$10,$11,$12,$1,$2,$13*%
%AMOutline7P*
0 Free polygon, 7 corners , with rotation*
0 The origin of the aperture is its center*
0 number of corners: always 7*
0 $1 to $14 corner X, Y*
0 $15 Rotation angle, in degrees counterclockwise*
0 create outline with 7 corners*
4,1,7,$1,$2,$3,$4,$5,$6,$7,$8,$9,$10,$11,$12,$13,$14,$1,$2,$15*%
%AMOutline8P*
0 Free polygon, 8 corners , with rotation*
0 The origin of the aperture is its center*
0 number of corners: always 8*
0 $1 to $16 corner X, Y*
0 $17 Rotation angle, in degrees counterclockwise*
0 create outline with 8 corners*
4,1,8,$1,$2,$3,$4,$5,$6,$7,$8,$9,$10,$11,$12,$13,$14,$15,$16,$1,$2,$17*%
%AMFreePoly0*
4,1,13,-0.487500,0.037500,-0.484645,0.051851,-0.476517,0.064017,-0.464351,0.072145,-0.450000,0.075000,0.450000,0.075000,0.464351,0.072145,0.476517,0.064017,0.484645,0.051851,0.487500,0.037500,0.487500,-0.075000,-0.487500,-0.075000,-0.487500,0.037500,-0.487500,0.037500,$1*%
G04 Aperture macros list end*
%ADD10Outline5P,-0.850000X0.425000X-0.425000X0.850000X0.850000X0.850000X0.850000X-0.850000X-0.850000X-0.850000X90.000000*%
%ADD11C,1.700000*%
%ADD12O,1.700000X1.700000*%
%ADD13C,5.400000*%
%ADD14RoundRect,0.050000X-0.285000X-0.100000X0.285000X-0.100000X0.285000X0.100000X-0.285000X0.100000X0*%
%ADD15RoundRect,0.250000X0.475000X-0.250000X0.475000X0.250000X-0.475000X0.250000X-0.475000X-0.250000X0*%
%ADD16R,5.700000X1.600000*%
%ADD17RoundRect,0.243750X0.456250X-0.243750X0.456250X0.243750X-0.456250X0.243750X-0.456250X-0.243750X0*%
%ADD18RoundRect,0.250000X-0.450000X0.262500X-0.450000X-0.262500X0.450000X-0.262500X0.450000X0.262500X0*%
%ADD19RoundRect,0.100000X0.625000X0.100000X-0.625000X0.100000X-0.625000X-0.100000X0.625000X-0.100000X0*%
%ADD20R,1.650000X2.850000*%
%ADD21R,1.100000X1.600000*%
%ADD22R,1.600000X1.600000*%
%ADD23RoundRect,0.250000X-0.325000X-1.100000X0.325000X-1.100000X0.325000X1.100000X-0.325000X1.100000X0*%
%ADD24RoundRect,0.250000X0.262500X0.450000X-0.262500X0.450000X-0.262500X-0.450000X0.262500X-0.450000X0*%
%ADD25RoundRect,0.087500X-0.425000X-0.087500X0.425000X-0.087500X0.425000X0.087500X-0.425000X0.087500X0*%
%ADD26RoundRect,0.087500X-0.087500X-0.425000X0.087500X-0.425000X0.087500X0.425000X-0.087500X0.425000X0*%
%ADD27R,2.100000X2.100000*%
%ADD28C,1.000000*%
%ADD29RoundRect,0.200000X-0.200000X-0.275000X0.200000X-0.275000X0.200000X0.275000X-0.200000X0.275000X0*%
%ADD30RoundRect,0.250000X0.250000X0.475000X-0.250000X0.475000X-0.250000X-0.475000X0.250000X-0.475000X0*%
%ADD31RoundRect,0.250000X-0.300000X-0.300000X0.300000X-0.300000X0.300000X0.300000X-0.300000X0.300000X0*%
%ADD32RoundRect,0.250000X0.312500X1.075000X-0.312500X1.075000X-0.312500X-1.075000X0.312500X-1.075000X0*%
%ADD33RoundRect,0.250000X0.450000X-0.262500X0.450000X0.262500X-0.450000X0.262500X-0.450000X-0.262500X0*%
%ADD34RoundRect,0.250000X-0.475000X0.250000X-0.475000X-0.250000X0.475000X-0.250000X0.475000X0.250000X0*%
%ADD35RoundRect,0.112500X-0.112500X0.187500X-0.112500X-0.187500X0.112500X-0.187500X0.112500X0.187500X0*%
%ADD36RoundRect,0.250000X-0.300000X0.300000X-0.300000X-0.300000X0.300000X-0.300000X0.300000X0.300000X0*%
%ADD37RoundRect,0.150000X-0.587500X-0.150000X0.587500X-0.150000X0.587500X0.150000X-0.587500X0.150000X0*%
%ADD38R,0.200000X0.500000*%
%ADD39R,1.500000X0.900000*%
%ADD40RoundRect,0.250000X0.350000X0.625000X-0.350000X0.625000X-0.350000X-0.625000X0.350000X-0.625000X0*%
%ADD41O,1.200000X1.750000*%
%ADD42R,1.200000X0.600000*%
%ADD43C,0.700000*%
%ADD44R,0.800000X0.900000*%
%ADD45RoundRect,0.075000X-0.075000X0.475000X-0.075000X-0.475000X0.075000X-0.475000X0.075000X0.475000X0*%
%ADD46FreePoly0,270.000000*%
%ADD47RoundRect,0.075000X-0.075000X1.375000X-0.075000X-1.375000X0.075000X-1.375000X0.075000X1.375000X0*%
%ADD48RoundRect,0.062500X-0.062500X0.237500X-0.062500X-0.237500X0.062500X-0.237500X0.062500X0.237500X0*%
%ADD49RoundRect,0.062500X-0.237500X0.062500X-0.237500X-0.062500X0.237500X-0.062500X0.237500X0.062500X0*%
%ADD50RoundRect,0.075000X-0.075000X0.650000X-0.075000X-0.650000X0.075000X-0.650000X0.075000X0.650000X0*%
%ADD51R,0.420000X0.400000*%
%ADD52C,0.650000*%
%ADD53R,1.150000X0.600000*%
%ADD54R,1.150000X0.300000*%
%ADD55O,1.800000X1.000000*%
%ADD56O,2.100000X1.000000*%
%ADD57RoundRect,0.243750X-0.456250X0.243750X-0.456250X-0.243750X0.456250X-0.243750X0.456250X0.243750X0*%
%ADD58R,1.903000X2.790000*%
%ADD59R,0.800000X1.000000*%
%ADD60C,0.900000*%
%ADD61R,1.500000X0.700000*%
G04 APERTURE END LIST*
%TO.C,G\u002A\u002A\u002A*%
G36*
X103568129Y-113258851D02*
G01*
X103593438Y-113279523D01*
X103621854Y-113320444D01*
X103627329Y-113330915D01*
X103644140Y-113393832D01*
X103634606Y-113466149D01*
X103597872Y-113556274D01*
X103592817Y-113578752D01*
X103607242Y-113623469D01*
X103623322Y-113650724D01*
X103645609Y-113702646D01*
X103648325Y-113712542D01*
X103647081Y-113738848D01*
X103628286Y-113740634D01*
X103597155Y-113722369D01*
X103558906Y-113688521D01*
X103518754Y-113643559D01*
X103481915Y-113591951D01*
X103453606Y-113538165D01*
X103448405Y-113526229D01*
X103424538Y-113481047D01*
X103404760Y-113456528D01*
X103399066Y-113447915D01*
X103402303Y-113413618D01*
X103420495Y-113366439D01*
X103447664Y-113317916D01*
X103477834Y-113279588D01*
X103505025Y-113262993D01*
X103525956Y-113261313D01*
X103563656Y-113258194D01*
X103568129Y-113258851D01*
G37*
G36*
X106977588Y-111479472D02*
G01*
X107025317Y-111518693D01*
X107032646Y-111522929D01*
X107080886Y-111570322D01*
X107088430Y-111601978D01*
X107096347Y-111635203D01*
X107079610Y-111719723D01*
X107071830Y-111745618D01*
X107063430Y-111824814D01*
X107081016Y-111887277D01*
X107123113Y-111926012D01*
X107144260Y-111934119D01*
X107174868Y-111931539D01*
X107207073Y-111900784D01*
X107233771Y-111859144D01*
X107246036Y-111819756D01*
X107251765Y-111798846D01*
X107280272Y-111791403D01*
X107292938Y-111796195D01*
X107305965Y-111815276D01*
X107312243Y-111855833D01*
X107313870Y-111926285D01*
X107313850Y-111939879D01*
X107311723Y-112005724D01*
X107307185Y-112027551D01*
X107302613Y-112049541D01*
X107281616Y-112085415D01*
X107277438Y-112090060D01*
X107243830Y-112127428D01*
X107238378Y-112133144D01*
X107230742Y-112141150D01*
X107207087Y-112168123D01*
X107188665Y-112195953D01*
X107174298Y-112229985D01*
X107162810Y-112275568D01*
X107153023Y-112338045D01*
X107143760Y-112422764D01*
X107135081Y-112521072D01*
X107133845Y-112535070D01*
X107122101Y-112680310D01*
X107112834Y-112791522D01*
X107102184Y-112909467D01*
X107091894Y-113014219D01*
X107082789Y-113097413D01*
X107075696Y-113150680D01*
X107069477Y-113192175D01*
X107067679Y-113229846D01*
X107073799Y-113266532D01*
X107090373Y-113310952D01*
X107119936Y-113371822D01*
X107165023Y-113457861D01*
X107203021Y-113532785D01*
X107242150Y-113617116D01*
X107262973Y-113667814D01*
X107271401Y-113688334D01*
X107286332Y-113736243D01*
X107292924Y-113791969D01*
X107282107Y-113916265D01*
X107240169Y-114038425D01*
X107170918Y-114149246D01*
X107078159Y-114239527D01*
X107057145Y-114255506D01*
X107016394Y-114288566D01*
X106994772Y-114309215D01*
X106994208Y-114309927D01*
X106967115Y-114324947D01*
X106920929Y-114338306D01*
X106907980Y-114340956D01*
X106887238Y-114346963D01*
X106870042Y-114358412D01*
X106853691Y-114380437D01*
X106837536Y-114413913D01*
X106835481Y-114418172D01*
X106812710Y-114476752D01*
X106782677Y-114561311D01*
X106742680Y-114676984D01*
X106721359Y-114736978D01*
X106680317Y-114838095D01*
X106636810Y-114920556D01*
X106583645Y-114997023D01*
X106513628Y-115080159D01*
X106513244Y-115080595D01*
X106500076Y-115095532D01*
X106366602Y-115264585D01*
X106248337Y-115445518D01*
X106238848Y-115461390D01*
X106200124Y-115523401D01*
X106150915Y-115599618D01*
X106099547Y-115677081D01*
X106075723Y-115713108D01*
X106036195Y-115776253D01*
X106008922Y-115824491D01*
X105998753Y-115849525D01*
X105996961Y-115856368D01*
X105973194Y-115887373D01*
X105928980Y-115928539D01*
X105873500Y-115972424D01*
X105815935Y-116011588D01*
X105765465Y-116038592D01*
X105721710Y-116050716D01*
X105640425Y-116061478D01*
X105539457Y-116067215D01*
X105429055Y-116067911D01*
X105319464Y-116063549D01*
X105220931Y-116054114D01*
X105143703Y-116039588D01*
X105093714Y-116027108D01*
X105011279Y-116009807D01*
X104942820Y-115999022D01*
X104929867Y-115997442D01*
X104820499Y-115971458D01*
X104714741Y-115921172D01*
X104606345Y-115842922D01*
X104489064Y-115733046D01*
X104434051Y-115674118D01*
X104375016Y-115604625D01*
X104330456Y-115544970D01*
X104307000Y-115503512D01*
X104302518Y-115492073D01*
X104279676Y-115451667D01*
X104258011Y-115435336D01*
X104231885Y-115423512D01*
X104189864Y-115380787D01*
X104139029Y-115311813D01*
X104082271Y-115221762D01*
X104022483Y-115115801D01*
X103962558Y-114999102D01*
X103905389Y-114876832D01*
X103853868Y-114754162D01*
X103810888Y-114636261D01*
X103805353Y-114619573D01*
X103764749Y-114497414D01*
X103733655Y-114406155D01*
X103709623Y-114340882D01*
X103690210Y-114296682D01*
X103672968Y-114268641D01*
X103655452Y-114251846D01*
X103635216Y-114241384D01*
X103609814Y-114232341D01*
X103595263Y-114227042D01*
X103531074Y-114195278D01*
X103473201Y-114149209D01*
X103416808Y-114083382D01*
X103357060Y-113992342D01*
X103289121Y-113870635D01*
X103166931Y-113640249D01*
X103167130Y-113582653D01*
X103224528Y-113582653D01*
X103345098Y-113812321D01*
X103362865Y-113845816D01*
X103425365Y-113955783D01*
X103481098Y-114037506D01*
X103535417Y-114097118D01*
X103593673Y-114140751D01*
X103661219Y-114174539D01*
X103662927Y-114175256D01*
X103693544Y-114190402D01*
X103719132Y-114210613D01*
X103742419Y-114241157D01*
X103766137Y-114287305D01*
X103793015Y-114354326D01*
X103825784Y-114447490D01*
X103867174Y-114572066D01*
X103946872Y-114789187D01*
X104049243Y-115007707D01*
X104170177Y-115209751D01*
X104183469Y-115229567D01*
X104221277Y-115284998D01*
X104248169Y-115323000D01*
X104259017Y-115336270D01*
X104259165Y-115336134D01*
X104279113Y-115331728D01*
X104321289Y-115325631D01*
X104373512Y-115308389D01*
X104401234Y-115288849D01*
X105079258Y-115288849D01*
X105101210Y-115301239D01*
X105115001Y-115303714D01*
X105101931Y-115316325D01*
X105092129Y-115330423D01*
X105089114Y-115365520D01*
X105098173Y-115400353D01*
X105116554Y-115416138D01*
X105126982Y-115423726D01*
X105143154Y-115453074D01*
X105153936Y-115487271D01*
X105152024Y-115507502D01*
X105152255Y-115510064D01*
X105171821Y-115527403D01*
X105211603Y-115554152D01*
X105283812Y-115584900D01*
X105366763Y-115599220D01*
X105406705Y-115600228D01*
X105442224Y-115594599D01*
X105460773Y-115572785D01*
X105475128Y-115526175D01*
X105475626Y-115524281D01*
X105485374Y-115455052D01*
X105479985Y-115395542D01*
X105474073Y-115351111D01*
X105492076Y-115318408D01*
X105509356Y-115307827D01*
X105532046Y-115307808D01*
X105535025Y-115312884D01*
X105520850Y-115320144D01*
X105511993Y-115322150D01*
X105510055Y-115340752D01*
X105524575Y-115346378D01*
X105550196Y-115322237D01*
X105553794Y-115317312D01*
X105577916Y-115296442D01*
X105615126Y-115288473D01*
X105677783Y-115290312D01*
X105714300Y-115291519D01*
X105770409Y-115287315D01*
X105803429Y-115276464D01*
X105823451Y-115265940D01*
X105845251Y-115281889D01*
X105848149Y-115286216D01*
X105870190Y-115298602D01*
X105909070Y-115286738D01*
X105936122Y-115277537D01*
X105979926Y-115280847D01*
X106001481Y-115309735D01*
X105994086Y-115358541D01*
X105981862Y-115396849D01*
X105977457Y-115437773D01*
X105975231Y-115454901D01*
X105950735Y-115480685D01*
X105948563Y-115481547D01*
X105930574Y-115498566D01*
X105941004Y-115531046D01*
X105957847Y-115554703D01*
X105981601Y-115569728D01*
X106010543Y-115557560D01*
X106042040Y-115526247D01*
X106056349Y-115493178D01*
X106058866Y-115483517D01*
X106078705Y-115447248D01*
X106111833Y-115400613D01*
X106124162Y-115383532D01*
X106159550Y-115318917D01*
X106179898Y-115257748D01*
X106182526Y-115244502D01*
X106196102Y-115202629D01*
X106210810Y-115185752D01*
X106220702Y-115180250D01*
X106229139Y-115151194D01*
X106231622Y-115132088D01*
X106249151Y-115096624D01*
X106257946Y-115080595D01*
X106241501Y-115053654D01*
X106239902Y-115052380D01*
X106212264Y-115041540D01*
X106165965Y-115041560D01*
X106091896Y-115052363D01*
X106032024Y-115062124D01*
X105970214Y-115070237D01*
X105931557Y-115072933D01*
X105901162Y-115080644D01*
X105864016Y-115109944D01*
X105854479Y-115118556D01*
X105846954Y-115125351D01*
X105806943Y-115145308D01*
X105762212Y-115157438D01*
X105725806Y-115158676D01*
X105710771Y-115145957D01*
X105710001Y-115141111D01*
X105690439Y-115128156D01*
X105683495Y-115129663D01*
X105681973Y-115147355D01*
X105684265Y-115152037D01*
X105673490Y-115164711D01*
X105627520Y-115162389D01*
X105546484Y-115145075D01*
X105520725Y-115137616D01*
X105478046Y-115119437D01*
X105477151Y-115118556D01*
X105768368Y-115118556D01*
X105777967Y-115128156D01*
X105787566Y-115118556D01*
X105777967Y-115108957D01*
X105768368Y-115118556D01*
X105477151Y-115118556D01*
X105461187Y-115102838D01*
X105458517Y-115092552D01*
X105441000Y-115102266D01*
X105421448Y-115113098D01*
X105380569Y-115114174D01*
X105342732Y-115099392D01*
X105325280Y-115073121D01*
X105322961Y-115059316D01*
X105315011Y-115062969D01*
X105299534Y-115074433D01*
X105262013Y-115075720D01*
X105234064Y-115073464D01*
X105223465Y-115088499D01*
X105227159Y-115131243D01*
X105231100Y-115166011D01*
X105226583Y-115182216D01*
X105208644Y-115172065D01*
X105193986Y-115163087D01*
X105167485Y-115166629D01*
X105155370Y-115176153D01*
X105128975Y-115196904D01*
X105109653Y-115216815D01*
X105082797Y-115257988D01*
X105079258Y-115288849D01*
X104401234Y-115288849D01*
X104423516Y-115273143D01*
X104444758Y-115248317D01*
X104454546Y-115219750D01*
X104440285Y-115186723D01*
X104434237Y-115176153D01*
X104462850Y-115176153D01*
X104472449Y-115185752D01*
X104482049Y-115176153D01*
X104472449Y-115166553D01*
X104462850Y-115176153D01*
X104434237Y-115176153D01*
X104431240Y-115170916D01*
X104426718Y-115144736D01*
X104450617Y-115124924D01*
X104482986Y-115102540D01*
X104525380Y-115065626D01*
X104564378Y-115026628D01*
X104554674Y-115077392D01*
X104552435Y-115112090D01*
X104561140Y-115128156D01*
X104573479Y-115119253D01*
X104587365Y-115086260D01*
X104593713Y-115045303D01*
X104588316Y-115014054D01*
X104585568Y-115005887D01*
X104600639Y-114991883D01*
X104640439Y-114991491D01*
X104644517Y-114991299D01*
X104654838Y-114973432D01*
X104655939Y-114967064D01*
X104672499Y-114964016D01*
X104677728Y-114965230D01*
X104703155Y-114951277D01*
X104733662Y-114919028D01*
X104759277Y-114880409D01*
X104770030Y-114847347D01*
X104778232Y-114826182D01*
X104808428Y-114797321D01*
X104832234Y-114772463D01*
X104847436Y-114725163D01*
X104848355Y-114700027D01*
X104855096Y-114689759D01*
X104874733Y-114712198D01*
X104893543Y-114733260D01*
X104909951Y-114730473D01*
X104933927Y-114697799D01*
X104963422Y-114662794D01*
X104988815Y-114648186D01*
X104989798Y-114648133D01*
X105011637Y-114630439D01*
X105032937Y-114590590D01*
X105035264Y-114584544D01*
X105049532Y-114558705D01*
X105537082Y-114558705D01*
X105555633Y-114600194D01*
X105594303Y-114641871D01*
X105648154Y-114677128D01*
X105712246Y-114699358D01*
X105712790Y-114699468D01*
X105757360Y-114715523D01*
X105781671Y-114737310D01*
X105788085Y-114748037D01*
X105817465Y-114763379D01*
X105829359Y-114765529D01*
X105858608Y-114787838D01*
X105881670Y-114812397D01*
X105921958Y-114842683D01*
X105926399Y-114845452D01*
X105961172Y-114861279D01*
X105999056Y-114861798D01*
X106056349Y-114847606D01*
X106075447Y-114841187D01*
X106144085Y-114808334D01*
X106199879Y-114768762D01*
X106212657Y-114757020D01*
X106247998Y-114726792D01*
X106267075Y-114714012D01*
X106289244Y-114705688D01*
X106329364Y-114687191D01*
X106336289Y-114684028D01*
X106389647Y-114676118D01*
X106426546Y-114700308D01*
X106440325Y-114752668D01*
X106440332Y-114753391D01*
X106454738Y-114795228D01*
X106488468Y-114836712D01*
X106491216Y-114839078D01*
X106528628Y-114867050D01*
X106553456Y-114878571D01*
X106568838Y-114871672D01*
X106598084Y-114834949D01*
X106629039Y-114773379D01*
X106657335Y-114694695D01*
X106668485Y-114659411D01*
X106697198Y-114576057D01*
X106726882Y-114497102D01*
X106746400Y-114446680D01*
X106756033Y-114413913D01*
X106751630Y-114403563D01*
X106733731Y-114408636D01*
X106703620Y-114418631D01*
X106651512Y-114429447D01*
X106625004Y-114432837D01*
X106514248Y-114446057D01*
X106436095Y-114453367D01*
X106386152Y-114455102D01*
X106360028Y-114451595D01*
X106349586Y-114448118D01*
X106322183Y-114444243D01*
X106312808Y-114440995D01*
X106284323Y-114417588D01*
X106250341Y-114381849D01*
X106221876Y-114345819D01*
X106209940Y-114321538D01*
X106206545Y-114305282D01*
X106192654Y-114260727D01*
X106171695Y-114201830D01*
X106155166Y-114159806D01*
X106133485Y-114119876D01*
X106108522Y-114101339D01*
X106071573Y-114094897D01*
X106055197Y-114094155D01*
X105980977Y-114104358D01*
X105924186Y-114134153D01*
X105894603Y-114178899D01*
X105879756Y-114210895D01*
X105844936Y-114245133D01*
X105822021Y-114263187D01*
X105806765Y-114294286D01*
X105803501Y-114308783D01*
X105777967Y-114334063D01*
X105761518Y-114347508D01*
X105749169Y-114384657D01*
X105746495Y-114406317D01*
X105736624Y-114411655D01*
X105733552Y-114410062D01*
X105705366Y-114415511D01*
X105662774Y-114436999D01*
X105652221Y-114443181D01*
X105610630Y-114460832D01*
X105585846Y-114460743D01*
X105579847Y-114456926D01*
X105584118Y-114470733D01*
X105587398Y-114485151D01*
X105567997Y-114506385D01*
X105543589Y-114524012D01*
X105537082Y-114558705D01*
X105049532Y-114558705D01*
X105053932Y-114550737D01*
X105082985Y-114536137D01*
X105136340Y-114532993D01*
X105158853Y-114532574D01*
X105197218Y-114528883D01*
X105207629Y-114522620D01*
X105206524Y-114521793D01*
X105179729Y-114512794D01*
X105129279Y-114500748D01*
X105067776Y-114488243D01*
X105007822Y-114477865D01*
X104962018Y-114472202D01*
X104950277Y-114470303D01*
X104910553Y-114452335D01*
X104878424Y-114439540D01*
X104828958Y-114432831D01*
X104827231Y-114432775D01*
X104786773Y-114426348D01*
X104770030Y-114413746D01*
X104768887Y-114408378D01*
X104751927Y-114407524D01*
X104739296Y-114406964D01*
X104703284Y-114383472D01*
X104651821Y-114335786D01*
X104589312Y-114268140D01*
X104520163Y-114184767D01*
X104516539Y-114180165D01*
X104472142Y-114119614D01*
X104447838Y-114077809D01*
X104445211Y-114058259D01*
X104465847Y-114064475D01*
X104471240Y-114067053D01*
X104480452Y-114057196D01*
X104475446Y-114015211D01*
X104474807Y-114011996D01*
X104466341Y-113964464D01*
X104462850Y-113935431D01*
X104459619Y-113927723D01*
X104434052Y-113918632D01*
X104420757Y-113916129D01*
X104405253Y-113896611D01*
X104398011Y-113877240D01*
X104373489Y-113839170D01*
X104339146Y-113794403D01*
X104302881Y-113752520D01*
X104272591Y-113723104D01*
X104256173Y-113715735D01*
X104252523Y-113716450D01*
X104230812Y-113700446D01*
X104199974Y-113663990D01*
X104183900Y-113645016D01*
X104144429Y-113611404D01*
X104103956Y-113588381D01*
X104072398Y-113580899D01*
X104059675Y-113593913D01*
X104058574Y-113599404D01*
X104037878Y-113611451D01*
X104019401Y-113619538D01*
X103989467Y-113642992D01*
X103959724Y-113672141D01*
X103940120Y-113697112D01*
X103940599Y-113708029D01*
X103941283Y-113712875D01*
X103918851Y-113729096D01*
X103912730Y-113732215D01*
X103874975Y-113732710D01*
X103842987Y-113706081D01*
X103820315Y-113662061D01*
X103810508Y-113610383D01*
X103817117Y-113560779D01*
X103829005Y-113543870D01*
X104025379Y-113543870D01*
X104027677Y-113566654D01*
X104033452Y-113569658D01*
X104040476Y-113553855D01*
X104039091Y-113543691D01*
X104027677Y-113541056D01*
X104025379Y-113543870D01*
X103829005Y-113543870D01*
X103843689Y-113522984D01*
X103860522Y-113506494D01*
X103857185Y-113496869D01*
X103850694Y-113491935D01*
X103844361Y-113467460D01*
X103867687Y-113467460D01*
X103877287Y-113477060D01*
X103886886Y-113467460D01*
X103877287Y-113457861D01*
X103867687Y-113467460D01*
X103844361Y-113467460D01*
X103841991Y-113458300D01*
X103840108Y-113400943D01*
X103840368Y-113391641D01*
X103838186Y-113334091D01*
X103824951Y-113298692D01*
X103795849Y-113271351D01*
X103769366Y-113252037D01*
X103711222Y-113207704D01*
X104139342Y-113207704D01*
X104141467Y-113227872D01*
X104154449Y-113253994D01*
X104161230Y-113264654D01*
X104205073Y-113309836D01*
X104272575Y-113361628D01*
X104354420Y-113413935D01*
X104441292Y-113460661D01*
X104457311Y-113467460D01*
X104523876Y-113495712D01*
X104564538Y-113509405D01*
X104615139Y-113521386D01*
X104656240Y-113519832D01*
X104704138Y-113505640D01*
X104717805Y-113500984D01*
X104776564Y-113484847D01*
X104821694Y-113477902D01*
X104848736Y-113473931D01*
X104874750Y-113459275D01*
X104896465Y-113451049D01*
X104938279Y-113456260D01*
X104943304Y-113457553D01*
X105000991Y-113464224D01*
X105065021Y-113462087D01*
X105122340Y-113461464D01*
X105154616Y-113478046D01*
X105168583Y-113488220D01*
X105214512Y-113501591D01*
X105279811Y-113509541D01*
X105323433Y-113513901D01*
X105396698Y-113527698D01*
X105452250Y-113545857D01*
X105469659Y-113553496D01*
X105470965Y-113553855D01*
X105577607Y-113583164D01*
X105720371Y-113598778D01*
X105764594Y-113607645D01*
X105793320Y-113625850D01*
X105806025Y-113638032D01*
X105843922Y-113649849D01*
X105876505Y-113655291D01*
X105924563Y-113673847D01*
X105935432Y-113680685D01*
X105961962Y-113719778D01*
X105957915Y-113766412D01*
X105923399Y-113808070D01*
X105901553Y-113829281D01*
X105875738Y-113874436D01*
X105871799Y-113892122D01*
X105881047Y-113920291D01*
X105920028Y-113946432D01*
X105962078Y-113963172D01*
X106022653Y-113974686D01*
X106074761Y-113972531D01*
X106104975Y-113956012D01*
X106105086Y-113955828D01*
X106109647Y-113927128D01*
X106109780Y-113872200D01*
X106105449Y-113802771D01*
X106100927Y-113745211D01*
X106100588Y-113710608D01*
X106848548Y-113710608D01*
X106875325Y-113714326D01*
X106934694Y-113711141D01*
X106979058Y-113706891D01*
X107008401Y-113695355D01*
X107011712Y-113667814D01*
X106995212Y-113614316D01*
X106985847Y-113591955D01*
X106958765Y-113559286D01*
X106931320Y-113560567D01*
X106909719Y-113597052D01*
X106897333Y-113626867D01*
X106866945Y-113673965D01*
X106848751Y-113696906D01*
X106848548Y-113710608D01*
X106100588Y-113710608D01*
X106100483Y-113699948D01*
X106106868Y-113680586D01*
X106120944Y-113680306D01*
X106134944Y-113682849D01*
X106161134Y-113670357D01*
X106172495Y-113659908D01*
X106208722Y-113649849D01*
X106230258Y-113645666D01*
X106267536Y-113621051D01*
X106298383Y-113601619D01*
X106347285Y-113592253D01*
X106388092Y-113584956D01*
X106414184Y-113563454D01*
X106435792Y-113543881D01*
X106480777Y-113534656D01*
X106519684Y-113529126D01*
X106536319Y-113515457D01*
X106539568Y-113506625D01*
X106565117Y-113496259D01*
X106578365Y-113494093D01*
X106593916Y-113477060D01*
X106600487Y-113466171D01*
X106630920Y-113457861D01*
X106632586Y-113457812D01*
X106669944Y-113442152D01*
X106707984Y-113406933D01*
X106712446Y-113401432D01*
X106741876Y-113373324D01*
X106760641Y-113368603D01*
X106778430Y-113370561D01*
X106813169Y-113355372D01*
X106853257Y-113333793D01*
X106904289Y-113316775D01*
X106943870Y-113314124D01*
X106960900Y-113327903D01*
X106961349Y-113331494D01*
X106966671Y-113331776D01*
X106975866Y-113300825D01*
X106987917Y-113244475D01*
X107001805Y-113168559D01*
X107016515Y-113078910D01*
X107031029Y-112981362D01*
X107044329Y-112881749D01*
X107055400Y-112785903D01*
X107060867Y-112731442D01*
X107070738Y-112608892D01*
X107073410Y-112521072D01*
X107068893Y-112465805D01*
X107057201Y-112440911D01*
X107047799Y-112430919D01*
X107029890Y-112397128D01*
X107018913Y-112379261D01*
X106989047Y-112363530D01*
X106969751Y-112357790D01*
X106940448Y-112329932D01*
X106932378Y-112316967D01*
X106917728Y-112306555D01*
X106900142Y-112329932D01*
X106897514Y-112334058D01*
X106869134Y-112359112D01*
X106842493Y-112359973D01*
X106830701Y-112335576D01*
X106832676Y-112323384D01*
X106846700Y-112317511D01*
X106852061Y-112319632D01*
X106862699Y-112306885D01*
X106860465Y-112301844D01*
X106831724Y-112292327D01*
X106776399Y-112291353D01*
X106750690Y-112293098D01*
X106707228Y-112297653D01*
X106690004Y-112302061D01*
X106691831Y-112307791D01*
X106705343Y-112339561D01*
X106727714Y-112388456D01*
X106765519Y-112469123D01*
X106688561Y-112382729D01*
X106683900Y-112377501D01*
X106642631Y-112332887D01*
X106617572Y-112313235D01*
X106600592Y-112314741D01*
X106583560Y-112333601D01*
X106564890Y-112354423D01*
X106555518Y-112355249D01*
X106550274Y-112350522D01*
X106527561Y-112362832D01*
X106509358Y-112373566D01*
X106480890Y-112374469D01*
X106473652Y-112371676D01*
X106450118Y-112382416D01*
X106449783Y-112382925D01*
X106422970Y-112396399D01*
X106376796Y-112402046D01*
X106322564Y-112408947D01*
X106265424Y-112428311D01*
X106229858Y-112441900D01*
X106182824Y-112436276D01*
X106163204Y-112428912D01*
X106123767Y-112440141D01*
X106094489Y-112452274D01*
X106052777Y-112438413D01*
X106022807Y-112423695D01*
X106008352Y-112419652D01*
X106007404Y-112422112D01*
X105985665Y-112423722D01*
X105944540Y-112414220D01*
X105896494Y-112397738D01*
X105853993Y-112378407D01*
X105829501Y-112360361D01*
X105807762Y-112339239D01*
X105774724Y-112341155D01*
X105773344Y-112341878D01*
X105731566Y-112346028D01*
X105670754Y-112332023D01*
X105616901Y-112318879D01*
X105538877Y-112307393D01*
X105456748Y-112300977D01*
X105455380Y-112300924D01*
X105376927Y-112295389D01*
X105333522Y-112285962D01*
X105321996Y-112271960D01*
X105322460Y-112267196D01*
X105309503Y-112250703D01*
X105284125Y-112251216D01*
X105265330Y-112269544D01*
X105261039Y-112275817D01*
X105233396Y-112279607D01*
X105177035Y-112266415D01*
X105103095Y-112252297D01*
X105033097Y-112261326D01*
X105031388Y-112261841D01*
X104976812Y-112270619D01*
X104932604Y-112265804D01*
X104915598Y-112259877D01*
X104871510Y-112250806D01*
X104841089Y-112252626D01*
X104835897Y-112265386D01*
X104834189Y-112276132D01*
X104811015Y-112286543D01*
X104760793Y-112298210D01*
X104677985Y-112312796D01*
X104633665Y-112330493D01*
X104587425Y-112363734D01*
X104544194Y-112392242D01*
X104477884Y-112409543D01*
X104450473Y-112411019D01*
X104394396Y-112422315D01*
X104362598Y-112449796D01*
X104349859Y-112500541D01*
X104350959Y-112581627D01*
X104350959Y-112581634D01*
X104352950Y-112645844D01*
X104350366Y-112691640D01*
X104343767Y-112709108D01*
X104339646Y-112709861D01*
X104328458Y-112729440D01*
X104331356Y-112737459D01*
X104352457Y-112736223D01*
X104366620Y-112730535D01*
X104353859Y-112747127D01*
X104343024Y-112766438D01*
X104348325Y-112816460D01*
X104355575Y-112848144D01*
X104349454Y-112871187D01*
X104343353Y-112880027D01*
X104331268Y-112918627D01*
X104321051Y-112975025D01*
X104315004Y-113011073D01*
X104294566Y-113067282D01*
X104258781Y-113105048D01*
X104246374Y-113114022D01*
X104186969Y-113157669D01*
X104152901Y-113186599D01*
X104139342Y-113207704D01*
X103711222Y-113207704D01*
X103711107Y-113207616D01*
X103676824Y-113176485D01*
X103660595Y-113152643D01*
X103656501Y-113130088D01*
X103652111Y-113109041D01*
X103631941Y-113093084D01*
X103627270Y-113092486D01*
X103596930Y-113072971D01*
X103567870Y-113037958D01*
X103554394Y-113003900D01*
X103553197Y-112999538D01*
X103534213Y-112971487D01*
X103499587Y-112933217D01*
X103490111Y-112923210D01*
X103458197Y-112879556D01*
X103445314Y-112844374D01*
X103442036Y-112825094D01*
X103418665Y-112787687D01*
X103411805Y-112778554D01*
X103404091Y-112738458D01*
X103408405Y-112687208D01*
X103422355Y-112641218D01*
X103443548Y-112616903D01*
X103454036Y-112598165D01*
X103452573Y-112558214D01*
X103455375Y-112510415D01*
X103473874Y-112443957D01*
X103502650Y-112372432D01*
X103536264Y-112309350D01*
X103569280Y-112268222D01*
X103585378Y-112250685D01*
X103598904Y-112217791D01*
X103602961Y-112205410D01*
X103627920Y-112203080D01*
X103646551Y-112205294D01*
X103645065Y-112183279D01*
X103642049Y-112166470D01*
X103654447Y-112152343D01*
X103664248Y-112149077D01*
X103675699Y-112123545D01*
X103675747Y-112123159D01*
X104044578Y-112123159D01*
X104046876Y-112145944D01*
X104052651Y-112148947D01*
X104059675Y-112133144D01*
X104058290Y-112122981D01*
X104046876Y-112120345D01*
X104044578Y-112123159D01*
X103675747Y-112123159D01*
X103677329Y-112110360D01*
X103690295Y-112094747D01*
X103691704Y-112094587D01*
X103716524Y-112080358D01*
X103741156Y-112059949D01*
X103968081Y-112059949D01*
X103971252Y-112066860D01*
X103998492Y-112090351D01*
X104010158Y-112090060D01*
X104009637Y-112067553D01*
X104006635Y-112060953D01*
X103987385Y-112040601D01*
X103969865Y-112039412D01*
X103968081Y-112059949D01*
X103741156Y-112059949D01*
X103753007Y-112050130D01*
X103780041Y-112027551D01*
X103925284Y-112027551D01*
X103934883Y-112037150D01*
X103944482Y-112027551D01*
X103934883Y-112017952D01*
X103925284Y-112027551D01*
X103780041Y-112027551D01*
X103816358Y-111997218D01*
X103898193Y-111948386D01*
X103967637Y-111931557D01*
X104004663Y-111935062D01*
X104021278Y-111944159D01*
X104029115Y-111949689D01*
X104059984Y-111946639D01*
X104082374Y-111936451D01*
X104096299Y-111914838D01*
X104096222Y-111914113D01*
X104102432Y-111864168D01*
X104125757Y-111823539D01*
X104157908Y-111806765D01*
X104178085Y-111803558D01*
X104194067Y-111788046D01*
X104194221Y-111786396D01*
X104213714Y-111764934D01*
X104257161Y-111740791D01*
X104312127Y-111718974D01*
X104366178Y-111704492D01*
X104406877Y-111702351D01*
X104432085Y-111705280D01*
X104429132Y-111699745D01*
X104424265Y-111697129D01*
X104413124Y-111678076D01*
X104431205Y-111660742D01*
X104471231Y-111653175D01*
X104502267Y-111647476D01*
X104540047Y-111623892D01*
X104548610Y-111614159D01*
X104569129Y-111604620D01*
X104596706Y-111623892D01*
X104626059Y-111646973D01*
X104644283Y-111648359D01*
X104642119Y-111618286D01*
X104642117Y-111607753D01*
X104677432Y-111607753D01*
X104693235Y-111614777D01*
X104703399Y-111613392D01*
X104706034Y-111601978D01*
X104703221Y-111599680D01*
X104680436Y-111601978D01*
X104677432Y-111607753D01*
X104642117Y-111607753D01*
X104642116Y-111598380D01*
X104663584Y-111577171D01*
X104715912Y-111555962D01*
X104740335Y-111548232D01*
X104787099Y-111535708D01*
X104811386Y-111532640D01*
X104822166Y-111530230D01*
X104847335Y-111508570D01*
X104864024Y-111494273D01*
X104905401Y-111480386D01*
X104930498Y-111475016D01*
X104970106Y-111450357D01*
X104995787Y-111433991D01*
X105043473Y-111426358D01*
X105070955Y-111425581D01*
X105081714Y-111407498D01*
X105082982Y-111399087D01*
X105101911Y-111390680D01*
X105146989Y-111388541D01*
X105224180Y-111392022D01*
X105226335Y-111392158D01*
X105306024Y-111394210D01*
X105370677Y-111390485D01*
X105408743Y-111381634D01*
X105426323Y-111374804D01*
X105479811Y-111362960D01*
X105544659Y-111355495D01*
X105578947Y-111352598D01*
X105640657Y-111344031D01*
X105681973Y-111333884D01*
X105687986Y-111332331D01*
X105729376Y-111327902D01*
X105800839Y-111324023D01*
X105896123Y-111320916D01*
X106008975Y-111318802D01*
X106133145Y-111317902D01*
X106152991Y-111317872D01*
X106287082Y-111318022D01*
X106389266Y-111319165D01*
X106465288Y-111321735D01*
X106520897Y-111326169D01*
X106561839Y-111332902D01*
X106593862Y-111342369D01*
X106622714Y-111355007D01*
X106634313Y-111360543D01*
X106706980Y-111390481D01*
X106776925Y-111413374D01*
X106854342Y-111433930D01*
X106799460Y-111279569D01*
X106793312Y-111261997D01*
X106740685Y-111088002D01*
X106692973Y-110888891D01*
X106652749Y-110676546D01*
X106622586Y-110462850D01*
X106611832Y-110374684D01*
X106596121Y-110257307D01*
X106580011Y-110147140D01*
X106565688Y-110059675D01*
X106562807Y-110043530D01*
X106547330Y-109955978D01*
X106528060Y-109845989D01*
X106507171Y-109726014D01*
X106486840Y-109608503D01*
X106485004Y-109597865D01*
X106462347Y-109468432D01*
X106437338Y-109328268D01*
X106412889Y-109193570D01*
X106391914Y-109080537D01*
X106376992Y-108999125D01*
X106360851Y-108902977D01*
X106346728Y-108806676D01*
X106334182Y-108705444D01*
X106322774Y-108594506D01*
X106312066Y-108469085D01*
X106301617Y-108324402D01*
X106290989Y-108155682D01*
X106279741Y-107958148D01*
X106267436Y-107727022D01*
X106265439Y-107688870D01*
X106252419Y-107452440D01*
X106240205Y-107253301D01*
X106228716Y-107090495D01*
X106217874Y-106963066D01*
X106207597Y-106870059D01*
X106197806Y-106810517D01*
X106188420Y-106783485D01*
X106166995Y-106768082D01*
X106122667Y-106757483D01*
X106116870Y-106757131D01*
X106070801Y-106741562D01*
X106022116Y-106710044D01*
X106019367Y-106707803D01*
X105970750Y-106677239D01*
X105900860Y-106642873D01*
X105823856Y-106611725D01*
X105815158Y-106608592D01*
X105739710Y-106580324D01*
X105673706Y-106553874D01*
X105630572Y-106534600D01*
X105626742Y-106532743D01*
X105569961Y-106514325D01*
X105482099Y-106495774D01*
X105369773Y-106478023D01*
X105239599Y-106462006D01*
X105098194Y-106448655D01*
X104952173Y-106438904D01*
X104934829Y-106437999D01*
X104837215Y-106433341D01*
X104767848Y-106431943D01*
X104717936Y-106434789D01*
X104678684Y-106442861D01*
X104641302Y-106457143D01*
X104596995Y-106478617D01*
X104548385Y-106503871D01*
X104452912Y-106562273D01*
X104381153Y-106622887D01*
X104323400Y-106693334D01*
X104296205Y-106742785D01*
X104261416Y-106832834D01*
X104229235Y-106943810D01*
X104202412Y-107065942D01*
X104183701Y-107189456D01*
X104181640Y-107206305D01*
X104171666Y-107274167D01*
X104157883Y-107356119D01*
X104141960Y-107443499D01*
X104125568Y-107527643D01*
X104110378Y-107599886D01*
X104098059Y-107651565D01*
X104090282Y-107674016D01*
X104090208Y-107674077D01*
X104068784Y-107675168D01*
X104015277Y-107673990D01*
X103935763Y-107670786D01*
X103836317Y-107665800D01*
X103723016Y-107659275D01*
X103362978Y-107637307D01*
X103307015Y-107693271D01*
X103296728Y-107704095D01*
X103267166Y-107746368D01*
X103249338Y-107798369D01*
X103242359Y-107867043D01*
X103245343Y-107959338D01*
X103257403Y-108082200D01*
X103263555Y-108143427D01*
X103272105Y-108257525D01*
X103278668Y-108380630D01*
X103282178Y-108494974D01*
X103282582Y-108518310D01*
X103285493Y-108640186D01*
X103290068Y-108790533D01*
X103296000Y-108961921D01*
X103302980Y-109146924D01*
X103310703Y-109338113D01*
X103318860Y-109528060D01*
X103327145Y-109709338D01*
X103335249Y-109874517D01*
X103342867Y-110016171D01*
X103349689Y-110126871D01*
X103353005Y-110177918D01*
X103361113Y-110322747D01*
X103368872Y-110487931D01*
X103376125Y-110667601D01*
X103382718Y-110855885D01*
X103388493Y-111046914D01*
X103393296Y-111234816D01*
X103396971Y-111413721D01*
X103399362Y-111577758D01*
X103400314Y-111721057D01*
X103399671Y-111837747D01*
X103397278Y-111921958D01*
X103384663Y-112112549D01*
X103358195Y-112364180D01*
X103322271Y-112594544D01*
X103278013Y-112795418D01*
X103268525Y-112832448D01*
X103250822Y-112910638D01*
X103238866Y-112984257D01*
X103231521Y-113064045D01*
X103227647Y-113160738D01*
X103226107Y-113285072D01*
X103224528Y-113582653D01*
X103167130Y-113582653D01*
X103168158Y-113285072D01*
X103168469Y-113220479D01*
X103169943Y-113104174D01*
X103173186Y-113013670D01*
X103179015Y-112940345D01*
X103188251Y-112875575D01*
X103201714Y-112810738D01*
X103220221Y-112737211D01*
X103233465Y-112683978D01*
X103268258Y-112512680D01*
X103298457Y-112316957D01*
X103322619Y-112107039D01*
X103339301Y-111893160D01*
X103340453Y-111867901D01*
X103342065Y-111780574D01*
X103342008Y-111662923D01*
X103340440Y-111520677D01*
X103337519Y-111359561D01*
X103333401Y-111185303D01*
X103328245Y-111003629D01*
X103322206Y-110820266D01*
X103315444Y-110640942D01*
X103308113Y-110471383D01*
X103300373Y-110317315D01*
X103292380Y-110184467D01*
X103285860Y-110079427D01*
X103277700Y-109931436D01*
X103269086Y-109760768D01*
X103260342Y-109575049D01*
X103251796Y-109381906D01*
X103243772Y-109188966D01*
X103236599Y-109003855D01*
X103230600Y-108834200D01*
X103226103Y-108687629D01*
X103223433Y-108571769D01*
X103221571Y-108501723D01*
X103215791Y-108375313D01*
X103207574Y-108249251D01*
X103198045Y-108142561D01*
X103191337Y-108078753D01*
X103180181Y-107953786D01*
X103175753Y-107858309D01*
X103178485Y-107786423D01*
X103188812Y-107732229D01*
X103207167Y-107689829D01*
X103233984Y-107653323D01*
X103261392Y-107625226D01*
X103309874Y-107592481D01*
X103369342Y-107575727D01*
X103448464Y-107573059D01*
X103555914Y-107582570D01*
X103561491Y-107583233D01*
X103658546Y-107593156D01*
X103769479Y-107602291D01*
X103871367Y-107608735D01*
X104038236Y-107617040D01*
X104059383Y-107518441D01*
X104062530Y-107503355D01*
X104076658Y-107429794D01*
X104092837Y-107338956D01*
X104108152Y-107247052D01*
X104118295Y-107184049D01*
X104141056Y-107047331D01*
X104160135Y-106941144D01*
X104176598Y-106860087D01*
X104191512Y-106798758D01*
X104205944Y-106751754D01*
X104214821Y-106728705D01*
X104280063Y-106620208D01*
X104378295Y-106522488D01*
X104505358Y-106439874D01*
X104642582Y-106367765D01*
X104941827Y-106379546D01*
X104994789Y-106381890D01*
X105149545Y-106391603D01*
X105296884Y-106404850D01*
X105430611Y-106420823D01*
X105544532Y-106438712D01*
X105632449Y-106457709D01*
X105688168Y-106477004D01*
X105691545Y-106478689D01*
X105738001Y-106499063D01*
X105805778Y-106525995D01*
X105881452Y-106554129D01*
X105888054Y-106556525D01*
X105965002Y-106588230D01*
X106033607Y-106622544D01*
X106079713Y-106652448D01*
X106086906Y-106658225D01*
X106136585Y-106687828D01*
X106180264Y-106699887D01*
X106210655Y-106704979D01*
X106246043Y-106725921D01*
X106250354Y-106735784D01*
X106259662Y-106780191D01*
X106269464Y-106851832D01*
X106278829Y-106943378D01*
X106286828Y-107047500D01*
X106288179Y-107068128D01*
X106297057Y-107196813D01*
X106306990Y-107331601D01*
X106316862Y-107457683D01*
X106325552Y-107560246D01*
X106331923Y-107638783D01*
X106336493Y-107714339D01*
X106337948Y-107768274D01*
X106335919Y-107792296D01*
X106335784Y-107792546D01*
X106333955Y-107817990D01*
X106335339Y-107875396D01*
X106339464Y-107958733D01*
X106345853Y-108061971D01*
X106354032Y-108179076D01*
X106363526Y-108304019D01*
X106373862Y-108430766D01*
X106384563Y-108553288D01*
X106395157Y-108665551D01*
X106405168Y-108761525D01*
X106414121Y-108835177D01*
X106421542Y-108880478D01*
X106428342Y-108912931D01*
X106443140Y-108989157D01*
X106462326Y-109092180D01*
X106484715Y-109215342D01*
X106509120Y-109351979D01*
X106534354Y-109495431D01*
X106559230Y-109639037D01*
X106582562Y-109776135D01*
X106603163Y-109900064D01*
X106609375Y-109937525D01*
X106625838Y-110032211D01*
X106640617Y-110110974D01*
X106652294Y-110166476D01*
X106659451Y-110191381D01*
X106661931Y-110198271D01*
X106668827Y-110237820D01*
X106675979Y-110301650D01*
X106682183Y-110379790D01*
X106693631Y-110498053D01*
X106718217Y-110660332D01*
X106752199Y-110831980D01*
X106793256Y-111003457D01*
X106839067Y-111165222D01*
X106887309Y-111307735D01*
X106935662Y-111421454D01*
X106938129Y-111426222D01*
X106943841Y-111433930D01*
X106977588Y-111479472D01*
G37*
%TD*%
D10*
%TO.C,J4*%
X99400000Y-96750000D03*
D11*
X99400000Y-94210000D03*
D12*
X101940000Y-96750000D03*
X101940000Y-94210000D03*
X104480000Y-96750000D03*
X104480000Y-94210000D03*
X107020000Y-96750000D03*
X107020000Y-94210000D03*
X109560000Y-96750000D03*
X109560000Y-94210000D03*
X112100000Y-96750000D03*
X112100000Y-94210000D03*
X114640000Y-96750000D03*
X114640000Y-94210000D03*
X117180000Y-96750000D03*
X117180000Y-94210000D03*
X119720000Y-96750000D03*
X119720000Y-94210000D03*
X122260000Y-96750000D03*
X122260000Y-94210000D03*
X124800000Y-96750000D03*
X124800000Y-94210000D03*
X127340000Y-96750000D03*
X127340000Y-94210000D03*
X129880000Y-96750000D03*
X129880000Y-94210000D03*
X132420000Y-96750000D03*
X132420000Y-94210000D03*
X134960000Y-96750000D03*
X134960000Y-94210000D03*
X137500000Y-96750000D03*
X137500000Y-94210000D03*
X140040000Y-96750000D03*
X140040000Y-94210000D03*
X142580000Y-96750000D03*
X142580000Y-94210000D03*
X145120000Y-96750000D03*
X145120000Y-94210000D03*
X147660000Y-96750000D03*
X147660000Y-94210000D03*
%TD*%
D13*
%TO.C,REF\u002A\u002A*%
X94500000Y-118500000D03*
%TD*%
%TO.C,REF\u002A\u002A*%
X152500000Y-95500000D03*
%TD*%
%TO.C,REF\u002A\u002A*%
X94500000Y-95500000D03*
%TD*%
%TO.C,REF\u002A\u002A*%
X152500000Y-118500000D03*
%TD*%
D14*
%TO.C,U2*%
X120510000Y-113750000D03*
X120510000Y-113250000D03*
X120510000Y-112750000D03*
X120510000Y-112250000D03*
X121990000Y-112250000D03*
X121990000Y-112750000D03*
X121990000Y-113250000D03*
X121990000Y-113750000D03*
%TD*%
D15*
%TO.C,C2*%
X128000000Y-109950000D03*
X128000000Y-108050000D03*
%TD*%
D16*
%TO.C,L1*%
X130250000Y-100400000D03*
X130250000Y-105100000D03*
%TD*%
D17*
%TO.C,D5*%
X139900000Y-120937500D03*
X139900000Y-119062500D03*
%TD*%
D18*
%TO.C,R5*%
X98250000Y-99837500D03*
X98250000Y-101662500D03*
%TD*%
D19*
%TO.C,U1*%
X139650000Y-102875000D03*
X139650000Y-103525000D03*
X139650000Y-104175000D03*
X139650000Y-104825000D03*
X139650000Y-105475000D03*
X139650000Y-106125000D03*
X135350000Y-106125000D03*
X135350000Y-105475000D03*
X135350000Y-104825000D03*
X135350000Y-104175000D03*
X135350000Y-103525000D03*
X135350000Y-102875000D03*
D20*
X137500000Y-104500000D03*
%TD*%
D21*
%TO.C,RV1*%
X143600000Y-103200000D03*
D22*
X144750000Y-100300000D03*
D21*
X145900000Y-103200000D03*
%TD*%
D23*
%TO.C,C3*%
X124525000Y-112750000D03*
X127475000Y-112750000D03*
%TD*%
D24*
%TO.C,R12*%
X139912500Y-112550000D03*
X138087500Y-112550000D03*
%TD*%
D25*
%TO.C,U5*%
X111387500Y-102975000D03*
X111387500Y-102325000D03*
X111387500Y-101675000D03*
X111387500Y-101025000D03*
D26*
X112275000Y-100137500D03*
X112925000Y-100137500D03*
X113575000Y-100137500D03*
X114225000Y-100137500D03*
D25*
X115112500Y-101025000D03*
X115112500Y-101675000D03*
X115112500Y-102325000D03*
X115112500Y-102975000D03*
D26*
X114225000Y-103862500D03*
X113575000Y-103862500D03*
X112925000Y-103862500D03*
X112275000Y-103862500D03*
D27*
X113250000Y-102000000D03*
%TD*%
D28*
%TO.C,TP6*%
X122500000Y-118250000D03*
%TD*%
D15*
%TO.C,C10*%
X118250000Y-107450000D03*
X118250000Y-105550000D03*
%TD*%
D29*
%TO.C,R13*%
X144925000Y-105750000D03*
X146575000Y-105750000D03*
%TD*%
D15*
%TO.C,C8*%
X111250000Y-119950000D03*
X111250000Y-118050000D03*
%TD*%
D17*
%TO.C,D7*%
X154750000Y-100687500D03*
X154750000Y-98812500D03*
%TD*%
D28*
%TO.C,TP3*%
X107550000Y-107000000D03*
%TD*%
D18*
%TO.C,R7*%
X122150000Y-100337500D03*
X122150000Y-102162500D03*
%TD*%
D30*
%TO.C,C1*%
X141244916Y-100670000D03*
X139344916Y-100670000D03*
%TD*%
D31*
%TO.C,D1*%
X134644916Y-100400000D03*
X137444916Y-100400000D03*
%TD*%
D18*
%TO.C,R6*%
X120250000Y-100337500D03*
X120250000Y-102162500D03*
%TD*%
D32*
%TO.C,R11*%
X109000000Y-119500000D03*
X106075000Y-119500000D03*
%TD*%
D18*
%TO.C,R1*%
X130250000Y-108087500D03*
X130250000Y-109912500D03*
%TD*%
D33*
%TO.C,R8*%
X120250000Y-109412500D03*
X120250000Y-107587500D03*
%TD*%
D34*
%TO.C,C6*%
X139650000Y-108050000D03*
X139650000Y-109950000D03*
%TD*%
D32*
%TO.C,R9*%
X125712500Y-109500000D03*
X122787500Y-109500000D03*
%TD*%
D15*
%TO.C,C9*%
X118250000Y-103950000D03*
X118250000Y-102050000D03*
%TD*%
D33*
%TO.C,R17*%
X139900000Y-117412500D03*
X139900000Y-115587500D03*
%TD*%
D18*
%TO.C,R3*%
X135350000Y-108087500D03*
X135350000Y-109912500D03*
%TD*%
D35*
%TO.C,D3*%
X142000000Y-110450000D03*
X142000000Y-112550000D03*
%TD*%
D36*
%TO.C,D2*%
X125500000Y-104100000D03*
X125500000Y-106900000D03*
%TD*%
D37*
%TO.C,Q1*%
X144125000Y-112450000D03*
X144125000Y-110550000D03*
X146000000Y-111500000D03*
%TD*%
D34*
%TO.C,C5*%
X125500000Y-100400000D03*
X125500000Y-102300000D03*
%TD*%
D38*
%TO.C,U4*%
X119950000Y-103800000D03*
X120350000Y-103800000D03*
X120750000Y-103800000D03*
D39*
X120750000Y-104750000D03*
D38*
X121150000Y-103800000D03*
X121550000Y-103800000D03*
X121550000Y-105700000D03*
X121150000Y-105700000D03*
X120750000Y-105700000D03*
X120350000Y-105700000D03*
X119950000Y-105700000D03*
%TD*%
D33*
%TO.C,R16*%
X137500000Y-117412500D03*
X137500000Y-115587500D03*
%TD*%
D40*
%TO.C,J1*%
X146000000Y-115300000D03*
D41*
X144000000Y-115300000D03*
%TD*%
D42*
%TO.C,SW2*%
X93400000Y-108200000D03*
D43*
X94000000Y-109650000D03*
X94000000Y-111350000D03*
D42*
X93400000Y-112800000D03*
D44*
X95400000Y-108800000D03*
X95400000Y-112200000D03*
%TD*%
D18*
%TO.C,R2*%
X133000000Y-108087500D03*
X133000000Y-109912500D03*
%TD*%
D24*
%TO.C,R18*%
X152662500Y-114250000D03*
X150837500Y-114250000D03*
%TD*%
D45*
%TO.C,U3*%
X113980000Y-118100000D03*
D46*
X114825000Y-119000000D03*
D47*
X114600000Y-119000000D03*
D48*
X115225000Y-117850000D03*
D49*
X115900000Y-118250000D03*
X115900000Y-118750000D03*
X115900000Y-119250000D03*
X115900000Y-119750000D03*
D48*
X115225000Y-120150000D03*
D50*
X113980000Y-119725000D03*
%TD*%
D32*
%TO.C,R10*%
X127462500Y-119500000D03*
X124537500Y-119500000D03*
%TD*%
D51*
%TO.C,U6*%
X105400000Y-101150000D03*
X105400000Y-102050000D03*
X105400000Y-102950000D03*
X105400000Y-103850000D03*
X104480000Y-103850000D03*
X104480000Y-102950000D03*
X104480000Y-102050000D03*
X104480000Y-101150000D03*
%TD*%
D17*
%TO.C,D4*%
X137500000Y-120937500D03*
X137500000Y-119062500D03*
%TD*%
D29*
%TO.C,R14*%
X144925000Y-108750000D03*
X146575000Y-108750000D03*
%TD*%
D52*
%TO.C,J3*%
X149645000Y-104110000D03*
X149645000Y-109890000D03*
D53*
X148570000Y-103800000D03*
X148570000Y-104600000D03*
D54*
X148570000Y-105750000D03*
X148570000Y-106750000D03*
X148570000Y-107250000D03*
X148570000Y-108250000D03*
D53*
X148570000Y-109400000D03*
X148570000Y-110200000D03*
X148570000Y-110200000D03*
X148570000Y-109400000D03*
D54*
X148570000Y-108750000D03*
X148570000Y-107750000D03*
X148570000Y-106250000D03*
X148570000Y-105250000D03*
D53*
X148570000Y-104600000D03*
X148570000Y-103800000D03*
D55*
X153325000Y-102680000D03*
D56*
X149145000Y-102680000D03*
D55*
X153325000Y-111320000D03*
D56*
X149145000Y-111320000D03*
%TD*%
D28*
%TO.C,TP4*%
X107550000Y-109000000D03*
%TD*%
D57*
%TO.C,D6*%
X154750000Y-113312500D03*
X154750000Y-115187500D03*
%TD*%
D15*
%TO.C,C11*%
X109000000Y-102950000D03*
X109000000Y-101050000D03*
%TD*%
D23*
%TO.C,C4*%
X124525000Y-116000000D03*
X127475000Y-116000000D03*
%TD*%
D28*
%TO.C,TP8*%
X123000000Y-106000000D03*
%TD*%
D58*
%TO.C,L2*%
X115676500Y-113750000D03*
X110823500Y-113750000D03*
%TD*%
D28*
%TO.C,TP5*%
X120500000Y-118250000D03*
%TD*%
D40*
%TO.C,J2*%
X133400000Y-115300000D03*
D41*
X131400000Y-115300000D03*
%TD*%
D34*
%TO.C,C7*%
X118250000Y-114300000D03*
X118250000Y-116200000D03*
%TD*%
D24*
%TO.C,R19*%
X152662500Y-99750000D03*
X150837500Y-99750000D03*
%TD*%
D33*
%TO.C,R4*%
X137500000Y-109912500D03*
X137500000Y-108087500D03*
%TD*%
D59*
%TO.C,SW1*%
X93070000Y-106650000D03*
X95280000Y-106650000D03*
D60*
X94170000Y-104500000D03*
X94170000Y-101500000D03*
D59*
X93070000Y-99350000D03*
X95280000Y-99350000D03*
D61*
X95930000Y-105250000D03*
X95930000Y-102250000D03*
X95930000Y-100750000D03*
%TD*%
M02*
