%TF.GenerationSoftware,KiCad,Pcbnew,7.0.7*%
%TF.CreationDate,2023-09-16T21:48:38+03:00*%
%TF.ProjectId,picoups,7069636f-7570-4732-9e6b-696361645f70,1.1.0*%
%TF.SameCoordinates,Original*%
%TF.FileFunction,Paste,Bot*%
%TF.FilePolarity,Positive*%
%FSLAX46Y46*%
G04 Gerber Fmt 4.6, Leading zero omitted, Abs format (unit mm)*
G04 Created by KiCad (PCBNEW 7.0.7) date 2023-09-16 21:48:38*
%MOMM*%
%LPD*%
G01*
G04 APERTURE LIST*
G04 Aperture macros list*
%AMRoundRect*
0 Rectangle with rounded corners*
0 $1 Rounding radius*
0 $2 $3 $4 $5 $6 $7 $8 $9 X,Y pos of 4 corners*
0 Add a 4 corners polygon primitive as box body*
4,1,4,$2,$3,$4,$5,$6,$7,$8,$9,$2,$3,0*
0 Add four circle primitives for the rounded corners*
1,1,$1+$1,$2,$3*
1,1,$1+$1,$4,$5*
1,1,$1+$1,$6,$7*
1,1,$1+$1,$8,$9*
0 Add four rect primitives between the rounded corners*
20,1,$1+$1,$2,$3,$4,$5,0*
20,1,$1+$1,$4,$5,$6,$7,0*
20,1,$1+$1,$6,$7,$8,$9,0*
20,1,$1+$1,$8,$9,$2,$3,0*%
%AMFreePoly0*
4,1,13,-0.487500,0.037500,-0.484645,0.051851,-0.476517,0.064017,-0.464351,0.072145,-0.450000,0.075000,0.450000,0.075000,0.464351,0.072145,0.476517,0.064017,0.484645,0.051851,0.487500,0.037500,0.487500,-0.075000,-0.487500,-0.075000,-0.487500,0.037500,-0.487500,0.037500,$1*%
G04 Aperture macros list end*
%ADD10C,0.150000*%
%ADD11RoundRect,0.050000X-0.285000X-0.100000X0.285000X-0.100000X0.285000X0.100000X-0.285000X0.100000X0*%
%ADD12RoundRect,0.250000X0.475000X-0.250000X0.475000X0.250000X-0.475000X0.250000X-0.475000X-0.250000X0*%
%ADD13R,5.700000X1.600000*%
%ADD14RoundRect,0.243750X0.456250X-0.243750X0.456250X0.243750X-0.456250X0.243750X-0.456250X-0.243750X0*%
%ADD15RoundRect,0.250000X-0.450000X0.262500X-0.450000X-0.262500X0.450000X-0.262500X0.450000X0.262500X0*%
%ADD16RoundRect,0.172500X0.172500X0.422500X-0.172500X0.422500X-0.172500X-0.422500X0.172500X-0.422500X0*%
%ADD17RoundRect,0.100000X0.625000X0.100000X-0.625000X0.100000X-0.625000X-0.100000X0.625000X-0.100000X0*%
%ADD18R,1.100000X1.600000*%
%ADD19R,1.600000X1.600000*%
%ADD20RoundRect,0.250000X-0.325000X-1.100000X0.325000X-1.100000X0.325000X1.100000X-0.325000X1.100000X0*%
%ADD21RoundRect,0.250000X0.262500X0.450000X-0.262500X0.450000X-0.262500X-0.450000X0.262500X-0.450000X0*%
%ADD22RoundRect,0.227500X-0.227500X-0.227500X0.227500X-0.227500X0.227500X0.227500X-0.227500X0.227500X0*%
%ADD23RoundRect,0.087500X-0.425000X-0.087500X0.425000X-0.087500X0.425000X0.087500X-0.425000X0.087500X0*%
%ADD24RoundRect,0.087500X-0.087500X-0.425000X0.087500X-0.425000X0.087500X0.425000X-0.087500X0.425000X0*%
%ADD25RoundRect,0.200000X-0.200000X-0.275000X0.200000X-0.275000X0.200000X0.275000X-0.200000X0.275000X0*%
%ADD26RoundRect,0.250000X0.250000X0.475000X-0.250000X0.475000X-0.250000X-0.475000X0.250000X-0.475000X0*%
%ADD27RoundRect,0.250000X-0.300000X-0.300000X0.300000X-0.300000X0.300000X0.300000X-0.300000X0.300000X0*%
%ADD28RoundRect,0.250000X0.312500X1.075000X-0.312500X1.075000X-0.312500X-1.075000X0.312500X-1.075000X0*%
%ADD29RoundRect,0.250000X0.450000X-0.262500X0.450000X0.262500X-0.450000X0.262500X-0.450000X-0.262500X0*%
%ADD30RoundRect,0.250000X-0.475000X0.250000X-0.475000X-0.250000X0.475000X-0.250000X0.475000X0.250000X0*%
%ADD31RoundRect,0.112500X-0.112500X0.187500X-0.112500X-0.187500X0.112500X-0.187500X0.112500X0.187500X0*%
%ADD32RoundRect,0.250000X-0.300000X0.300000X-0.300000X-0.300000X0.300000X-0.300000X0.300000X0.300000X0*%
%ADD33RoundRect,0.150000X-0.587500X-0.150000X0.587500X-0.150000X0.587500X0.150000X-0.587500X0.150000X0*%
%ADD34R,0.650000X0.750000*%
%ADD35R,0.200000X0.500000*%
%ADD36R,1.200000X0.600000*%
%ADD37R,0.800000X0.900000*%
%ADD38FreePoly0,270.000000*%
%ADD39RoundRect,0.062500X-0.062500X0.237500X-0.062500X-0.237500X0.062500X-0.237500X0.062500X0.237500X0*%
%ADD40RoundRect,0.062500X-0.237500X0.062500X-0.237500X-0.062500X0.237500X-0.062500X0.237500X0.062500X0*%
%ADD41R,0.420000X0.400000*%
%ADD42R,1.150000X0.600000*%
%ADD43R,1.150000X0.300000*%
%ADD44O,1.800000X1.000000*%
%ADD45O,2.100000X1.000000*%
%ADD46RoundRect,0.243750X-0.456250X0.243750X-0.456250X-0.243750X0.456250X-0.243750X0.456250X0.243750X0*%
%ADD47R,1.903000X2.790000*%
%ADD48R,0.800000X1.000000*%
%ADD49R,1.500000X0.700000*%
G04 APERTURE END LIST*
D10*
%TO.C,U3*%
X114525000Y-117625000D02*
X114680000Y-117625000D01*
X114680000Y-117625000D02*
X114680000Y-118215000D01*
X114680000Y-118215000D02*
X114525000Y-118215000D01*
X114525000Y-118215000D02*
X114525000Y-117625000D01*
G36*
X114525000Y-117625000D02*
G01*
X114680000Y-117625000D01*
X114680000Y-118215000D01*
X114525000Y-118215000D01*
X114525000Y-117625000D01*
G37*
X113905000Y-117625000D02*
X114055000Y-117625000D01*
X114055000Y-117625000D02*
X114055000Y-118425000D01*
X114055000Y-118425000D02*
X113905000Y-118425000D01*
X113905000Y-118425000D02*
X113905000Y-117625000D01*
G36*
X113905000Y-117625000D02*
G01*
X114055000Y-117625000D01*
X114055000Y-118425000D01*
X113905000Y-118425000D01*
X113905000Y-117625000D01*
G37*
X114525000Y-118590000D02*
X114825000Y-118590000D01*
X114825000Y-118590000D02*
X114825000Y-119410000D01*
X114825000Y-119410000D02*
X114525000Y-119410000D01*
X114525000Y-119410000D02*
X114525000Y-118590000D01*
G36*
X114525000Y-118590000D02*
G01*
X114825000Y-118590000D01*
X114825000Y-119410000D01*
X114525000Y-119410000D01*
X114525000Y-118590000D01*
G37*
X113905000Y-119075000D02*
X114055000Y-119075000D01*
X114055000Y-119075000D02*
X114055000Y-119575000D01*
X114055000Y-119575000D02*
X113905000Y-119575000D01*
X113905000Y-119575000D02*
X113905000Y-119075000D01*
G36*
X113905000Y-119075000D02*
G01*
X114055000Y-119075000D01*
X114055000Y-119575000D01*
X113905000Y-119575000D01*
X113905000Y-119075000D01*
G37*
X114525000Y-119785000D02*
X114680000Y-119785000D01*
X114680000Y-119785000D02*
X114680000Y-120375000D01*
X114680000Y-120375000D02*
X114525000Y-120375000D01*
X114525000Y-120375000D02*
X114525000Y-119785000D01*
G36*
X114525000Y-119785000D02*
G01*
X114680000Y-119785000D01*
X114680000Y-120375000D01*
X114525000Y-120375000D01*
X114525000Y-119785000D01*
G37*
X113905000Y-119925000D02*
X114055000Y-119925000D01*
X114055000Y-119925000D02*
X114055000Y-120375000D01*
X114055000Y-120375000D02*
X113905000Y-120375000D01*
X113905000Y-120375000D02*
X113905000Y-119925000D01*
G36*
X113905000Y-119925000D02*
G01*
X114055000Y-119925000D01*
X114055000Y-120375000D01*
X113905000Y-120375000D01*
X113905000Y-119925000D01*
G37*
%TD*%
D11*
%TO.C,U2*%
X120510000Y-113750000D03*
X120510000Y-113250000D03*
X120510000Y-112750000D03*
X120510000Y-112250000D03*
X121990000Y-112250000D03*
X121990000Y-112750000D03*
X121990000Y-113250000D03*
X121990000Y-113750000D03*
%TD*%
D12*
%TO.C,C2*%
X128000000Y-109950000D03*
X128000000Y-108050000D03*
%TD*%
D13*
%TO.C,L1*%
X130250000Y-100400000D03*
X130250000Y-105100000D03*
%TD*%
D14*
%TO.C,D5*%
X139900000Y-120937500D03*
X139900000Y-119062500D03*
%TD*%
D15*
%TO.C,R5*%
X98250000Y-99837500D03*
X98250000Y-101662500D03*
%TD*%
D16*
%TO.C,U1*%
X137910000Y-105210000D03*
X137910000Y-103790000D03*
X137090000Y-105210000D03*
X137090000Y-103790000D03*
D17*
X139650000Y-102875000D03*
X139650000Y-103525000D03*
X139650000Y-104175000D03*
X139650000Y-104825000D03*
X139650000Y-105475000D03*
X139650000Y-106125000D03*
X135350000Y-106125000D03*
X135350000Y-105475000D03*
X135350000Y-104825000D03*
X135350000Y-104175000D03*
X135350000Y-103525000D03*
X135350000Y-102875000D03*
%TD*%
D18*
%TO.C,RV1*%
X143600000Y-103200000D03*
D19*
X144750000Y-100300000D03*
D18*
X145900000Y-103200000D03*
%TD*%
D20*
%TO.C,C3*%
X124525000Y-112750000D03*
X127475000Y-112750000D03*
%TD*%
D21*
%TO.C,R12*%
X139912500Y-112550000D03*
X138087500Y-112550000D03*
%TD*%
D22*
%TO.C,U5*%
X112725000Y-101475000D03*
X112725000Y-102525000D03*
X113775000Y-101475000D03*
X113775000Y-102525000D03*
D23*
X111387500Y-102975000D03*
X111387500Y-102325000D03*
X111387500Y-101675000D03*
X111387500Y-101025000D03*
D24*
X112275000Y-100137500D03*
X112925000Y-100137500D03*
X113575000Y-100137500D03*
X114225000Y-100137500D03*
D23*
X115112500Y-101025000D03*
X115112500Y-101675000D03*
X115112500Y-102325000D03*
X115112500Y-102975000D03*
D24*
X114225000Y-103862500D03*
X113575000Y-103862500D03*
X112925000Y-103862500D03*
X112275000Y-103862500D03*
%TD*%
D12*
%TO.C,C10*%
X118250000Y-107450000D03*
X118250000Y-105550000D03*
%TD*%
D25*
%TO.C,R13*%
X144925000Y-105750000D03*
X146575000Y-105750000D03*
%TD*%
D12*
%TO.C,C8*%
X111250000Y-119950000D03*
X111250000Y-118050000D03*
%TD*%
D14*
%TO.C,D7*%
X154750000Y-100687500D03*
X154750000Y-98812500D03*
%TD*%
D15*
%TO.C,R7*%
X122150000Y-100337500D03*
X122150000Y-102162500D03*
%TD*%
D26*
%TO.C,C1*%
X141244916Y-100670000D03*
X139344916Y-100670000D03*
%TD*%
D27*
%TO.C,D1*%
X134644916Y-100400000D03*
X137444916Y-100400000D03*
%TD*%
D15*
%TO.C,R6*%
X120250000Y-100337500D03*
X120250000Y-102162500D03*
%TD*%
D28*
%TO.C,R11*%
X109000000Y-119500000D03*
X106075000Y-119500000D03*
%TD*%
D15*
%TO.C,R1*%
X130250000Y-108087500D03*
X130250000Y-109912500D03*
%TD*%
D29*
%TO.C,R8*%
X120250000Y-109412500D03*
X120250000Y-107587500D03*
%TD*%
D30*
%TO.C,C6*%
X139650000Y-108050000D03*
X139650000Y-109950000D03*
%TD*%
D28*
%TO.C,R9*%
X125712500Y-109500000D03*
X122787500Y-109500000D03*
%TD*%
D12*
%TO.C,C9*%
X118250000Y-103950000D03*
X118250000Y-102050000D03*
%TD*%
D29*
%TO.C,R17*%
X139900000Y-117412500D03*
X139900000Y-115587500D03*
%TD*%
D15*
%TO.C,R3*%
X135350000Y-108087500D03*
X135350000Y-109912500D03*
%TD*%
D31*
%TO.C,D3*%
X142000000Y-110450000D03*
X142000000Y-112550000D03*
%TD*%
D32*
%TO.C,D2*%
X125500000Y-104100000D03*
X125500000Y-106900000D03*
%TD*%
D33*
%TO.C,Q1*%
X144125000Y-112450000D03*
X144125000Y-110550000D03*
X146000000Y-111500000D03*
%TD*%
D30*
%TO.C,C5*%
X125500000Y-100400000D03*
X125500000Y-102300000D03*
%TD*%
D34*
%TO.C,U4*%
X121150000Y-104750000D03*
X120350000Y-104750000D03*
D35*
X119950000Y-103800000D03*
X120350000Y-103800000D03*
X120750000Y-103800000D03*
X121150000Y-103800000D03*
X121550000Y-103800000D03*
X121550000Y-105700000D03*
X121150000Y-105700000D03*
X120750000Y-105700000D03*
X120350000Y-105700000D03*
X119950000Y-105700000D03*
%TD*%
D29*
%TO.C,R16*%
X137500000Y-117412500D03*
X137500000Y-115587500D03*
%TD*%
D36*
%TO.C,SW2*%
X93400000Y-108200000D03*
X93400000Y-112800000D03*
D37*
X95400000Y-108800000D03*
X95400000Y-112200000D03*
%TD*%
D15*
%TO.C,R2*%
X133000000Y-108087500D03*
X133000000Y-109912500D03*
%TD*%
D21*
%TO.C,R18*%
X152662500Y-114250000D03*
X150837500Y-114250000D03*
%TD*%
D38*
%TO.C,U3*%
X114825000Y-119000000D03*
D39*
X115225000Y-117850000D03*
D40*
X115900000Y-118250000D03*
X115900000Y-118750000D03*
X115900000Y-119250000D03*
X115900000Y-119750000D03*
D39*
X115225000Y-120150000D03*
%TD*%
D28*
%TO.C,R10*%
X127462500Y-119500000D03*
X124537500Y-119500000D03*
%TD*%
D41*
%TO.C,U6*%
X105400000Y-101150000D03*
X105400000Y-102050000D03*
X105400000Y-102950000D03*
X105400000Y-103850000D03*
X104480000Y-103850000D03*
X104480000Y-102950000D03*
X104480000Y-102050000D03*
X104480000Y-101150000D03*
%TD*%
D14*
%TO.C,D4*%
X137500000Y-120937500D03*
X137500000Y-119062500D03*
%TD*%
D25*
%TO.C,R14*%
X144925000Y-108750000D03*
X146575000Y-108750000D03*
%TD*%
D42*
%TO.C,J3*%
X148570000Y-103800000D03*
X148570000Y-104600000D03*
D43*
X148570000Y-105750000D03*
X148570000Y-106750000D03*
X148570000Y-107250000D03*
X148570000Y-108250000D03*
D42*
X148570000Y-109400000D03*
X148570000Y-110200000D03*
X148570000Y-110200000D03*
X148570000Y-109400000D03*
D43*
X148570000Y-108750000D03*
X148570000Y-107750000D03*
X148570000Y-106250000D03*
X148570000Y-105250000D03*
D42*
X148570000Y-104600000D03*
X148570000Y-103800000D03*
D44*
X153325000Y-102680000D03*
D45*
X149145000Y-102680000D03*
D44*
X153325000Y-111320000D03*
D45*
X149145000Y-111320000D03*
%TD*%
D46*
%TO.C,D6*%
X154750000Y-113312500D03*
X154750000Y-115187500D03*
%TD*%
D12*
%TO.C,C11*%
X109000000Y-102950000D03*
X109000000Y-101050000D03*
%TD*%
D20*
%TO.C,C4*%
X124525000Y-116000000D03*
X127475000Y-116000000D03*
%TD*%
D47*
%TO.C,L2*%
X115676500Y-113750000D03*
X110823500Y-113750000D03*
%TD*%
D30*
%TO.C,C7*%
X118250000Y-114300000D03*
X118250000Y-116200000D03*
%TD*%
D21*
%TO.C,R19*%
X152662500Y-99750000D03*
X150837500Y-99750000D03*
%TD*%
D29*
%TO.C,R4*%
X137500000Y-109912500D03*
X137500000Y-108087500D03*
%TD*%
D48*
%TO.C,SW1*%
X93070000Y-106650000D03*
X95280000Y-106650000D03*
X93070000Y-99350000D03*
X95280000Y-99350000D03*
D49*
X95930000Y-105250000D03*
X95930000Y-102250000D03*
X95930000Y-100750000D03*
%TD*%
M02*
