%TF.GenerationSoftware,KiCad,Pcbnew,7.0.6*%
%TF.CreationDate,2023-07-28T15:42:25+03:00*%
%TF.ProjectId,picoups,7069636f-7570-4732-9e6b-696361645f70,1.0*%
%TF.SameCoordinates,Original*%
%TF.FileFunction,Legend,Bot*%
%TF.FilePolarity,Positive*%
%FSLAX46Y46*%
G04 Gerber Fmt 4.6, Leading zero omitted, Abs format (unit mm)*
G04 Created by KiCad (PCBNEW 7.0.6) date 2023-07-28 15:42:25*
%MOMM*%
%LPD*%
G01*
G04 APERTURE LIST*
%ADD10C,0.150000*%
%ADD11C,0.120000*%
%ADD12C,0.010000*%
G04 APERTURE END LIST*
D10*
X114533332Y-107070771D02*
X114533332Y-106670771D01*
X114533332Y-106785057D02*
X114495237Y-106727914D01*
X114495237Y-106727914D02*
X114457142Y-106699342D01*
X114457142Y-106699342D02*
X114380951Y-106670771D01*
X114380951Y-106670771D02*
X114304761Y-106670771D01*
X113733332Y-107042200D02*
X113809523Y-107070771D01*
X113809523Y-107070771D02*
X113961904Y-107070771D01*
X113961904Y-107070771D02*
X114038094Y-107042200D01*
X114038094Y-107042200D02*
X114076190Y-106985057D01*
X114076190Y-106985057D02*
X114076190Y-106756485D01*
X114076190Y-106756485D02*
X114038094Y-106699342D01*
X114038094Y-106699342D02*
X113961904Y-106670771D01*
X113961904Y-106670771D02*
X113809523Y-106670771D01*
X113809523Y-106670771D02*
X113733332Y-106699342D01*
X113733332Y-106699342D02*
X113695237Y-106756485D01*
X113695237Y-106756485D02*
X113695237Y-106813628D01*
X113695237Y-106813628D02*
X114076190Y-106870771D01*
X113428571Y-106670771D02*
X113238095Y-107070771D01*
X113238095Y-107070771D02*
X113047618Y-106670771D01*
X111714285Y-107070771D02*
X112171428Y-107070771D01*
X111942856Y-107070771D02*
X111942856Y-106470771D01*
X111942856Y-106470771D02*
X112019047Y-106556485D01*
X112019047Y-106556485D02*
X112095237Y-106613628D01*
X112095237Y-106613628D02*
X112171428Y-106642200D01*
X111371427Y-107013628D02*
X111333332Y-107042200D01*
X111333332Y-107042200D02*
X111371427Y-107070771D01*
X111371427Y-107070771D02*
X111409523Y-107042200D01*
X111409523Y-107042200D02*
X111371427Y-107013628D01*
X111371427Y-107013628D02*
X111371427Y-107070771D01*
X110838094Y-106470771D02*
X110761904Y-106470771D01*
X110761904Y-106470771D02*
X110685713Y-106499342D01*
X110685713Y-106499342D02*
X110647618Y-106527914D01*
X110647618Y-106527914D02*
X110609523Y-106585057D01*
X110609523Y-106585057D02*
X110571428Y-106699342D01*
X110571428Y-106699342D02*
X110571428Y-106842200D01*
X110571428Y-106842200D02*
X110609523Y-106956485D01*
X110609523Y-106956485D02*
X110647618Y-107013628D01*
X110647618Y-107013628D02*
X110685713Y-107042200D01*
X110685713Y-107042200D02*
X110761904Y-107070771D01*
X110761904Y-107070771D02*
X110838094Y-107070771D01*
X110838094Y-107070771D02*
X110914285Y-107042200D01*
X110914285Y-107042200D02*
X110952380Y-107013628D01*
X110952380Y-107013628D02*
X110990475Y-106956485D01*
X110990475Y-106956485D02*
X111028571Y-106842200D01*
X111028571Y-106842200D02*
X111028571Y-106699342D01*
X111028571Y-106699342D02*
X110990475Y-106585057D01*
X110990475Y-106585057D02*
X110952380Y-106527914D01*
X110952380Y-106527914D02*
X110914285Y-106499342D01*
X110914285Y-106499342D02*
X110838094Y-106470771D01*
X110228570Y-107013628D02*
X110190475Y-107042200D01*
X110190475Y-107042200D02*
X110228570Y-107070771D01*
X110228570Y-107070771D02*
X110266666Y-107042200D01*
X110266666Y-107042200D02*
X110228570Y-107013628D01*
X110228570Y-107013628D02*
X110228570Y-107070771D01*
X109695237Y-106470771D02*
X109619047Y-106470771D01*
X109619047Y-106470771D02*
X109542856Y-106499342D01*
X109542856Y-106499342D02*
X109504761Y-106527914D01*
X109504761Y-106527914D02*
X109466666Y-106585057D01*
X109466666Y-106585057D02*
X109428571Y-106699342D01*
X109428571Y-106699342D02*
X109428571Y-106842200D01*
X109428571Y-106842200D02*
X109466666Y-106956485D01*
X109466666Y-106956485D02*
X109504761Y-107013628D01*
X109504761Y-107013628D02*
X109542856Y-107042200D01*
X109542856Y-107042200D02*
X109619047Y-107070771D01*
X109619047Y-107070771D02*
X109695237Y-107070771D01*
X109695237Y-107070771D02*
X109771428Y-107042200D01*
X109771428Y-107042200D02*
X109809523Y-107013628D01*
X109809523Y-107013628D02*
X109847618Y-106956485D01*
X109847618Y-106956485D02*
X109885714Y-106842200D01*
X109885714Y-106842200D02*
X109885714Y-106699342D01*
X109885714Y-106699342D02*
X109847618Y-106585057D01*
X109847618Y-106585057D02*
X109809523Y-106527914D01*
X109809523Y-106527914D02*
X109771428Y-106499342D01*
X109771428Y-106499342D02*
X109695237Y-106470771D01*
X114514286Y-107493914D02*
X114476190Y-107465342D01*
X114476190Y-107465342D02*
X114400000Y-107436771D01*
X114400000Y-107436771D02*
X114209524Y-107436771D01*
X114209524Y-107436771D02*
X114133333Y-107465342D01*
X114133333Y-107465342D02*
X114095238Y-107493914D01*
X114095238Y-107493914D02*
X114057143Y-107551057D01*
X114057143Y-107551057D02*
X114057143Y-107608200D01*
X114057143Y-107608200D02*
X114095238Y-107693914D01*
X114095238Y-107693914D02*
X114552381Y-108036771D01*
X114552381Y-108036771D02*
X114057143Y-108036771D01*
X113600000Y-107693914D02*
X113676190Y-107665342D01*
X113676190Y-107665342D02*
X113714285Y-107636771D01*
X113714285Y-107636771D02*
X113752381Y-107579628D01*
X113752381Y-107579628D02*
X113752381Y-107551057D01*
X113752381Y-107551057D02*
X113714285Y-107493914D01*
X113714285Y-107493914D02*
X113676190Y-107465342D01*
X113676190Y-107465342D02*
X113600000Y-107436771D01*
X113600000Y-107436771D02*
X113447619Y-107436771D01*
X113447619Y-107436771D02*
X113371428Y-107465342D01*
X113371428Y-107465342D02*
X113333333Y-107493914D01*
X113333333Y-107493914D02*
X113295238Y-107551057D01*
X113295238Y-107551057D02*
X113295238Y-107579628D01*
X113295238Y-107579628D02*
X113333333Y-107636771D01*
X113333333Y-107636771D02*
X113371428Y-107665342D01*
X113371428Y-107665342D02*
X113447619Y-107693914D01*
X113447619Y-107693914D02*
X113600000Y-107693914D01*
X113600000Y-107693914D02*
X113676190Y-107722485D01*
X113676190Y-107722485D02*
X113714285Y-107751057D01*
X113714285Y-107751057D02*
X113752381Y-107808200D01*
X113752381Y-107808200D02*
X113752381Y-107922485D01*
X113752381Y-107922485D02*
X113714285Y-107979628D01*
X113714285Y-107979628D02*
X113676190Y-108008200D01*
X113676190Y-108008200D02*
X113600000Y-108036771D01*
X113600000Y-108036771D02*
X113447619Y-108036771D01*
X113447619Y-108036771D02*
X113371428Y-108008200D01*
X113371428Y-108008200D02*
X113333333Y-107979628D01*
X113333333Y-107979628D02*
X113295238Y-107922485D01*
X113295238Y-107922485D02*
X113295238Y-107808200D01*
X113295238Y-107808200D02*
X113333333Y-107751057D01*
X113333333Y-107751057D02*
X113371428Y-107722485D01*
X113371428Y-107722485D02*
X113447619Y-107693914D01*
X112952380Y-107979628D02*
X112914285Y-108008200D01*
X112914285Y-108008200D02*
X112952380Y-108036771D01*
X112952380Y-108036771D02*
X112990476Y-108008200D01*
X112990476Y-108008200D02*
X112952380Y-107979628D01*
X112952380Y-107979628D02*
X112952380Y-108036771D01*
X112419047Y-107436771D02*
X112342857Y-107436771D01*
X112342857Y-107436771D02*
X112266666Y-107465342D01*
X112266666Y-107465342D02*
X112228571Y-107493914D01*
X112228571Y-107493914D02*
X112190476Y-107551057D01*
X112190476Y-107551057D02*
X112152381Y-107665342D01*
X112152381Y-107665342D02*
X112152381Y-107808200D01*
X112152381Y-107808200D02*
X112190476Y-107922485D01*
X112190476Y-107922485D02*
X112228571Y-107979628D01*
X112228571Y-107979628D02*
X112266666Y-108008200D01*
X112266666Y-108008200D02*
X112342857Y-108036771D01*
X112342857Y-108036771D02*
X112419047Y-108036771D01*
X112419047Y-108036771D02*
X112495238Y-108008200D01*
X112495238Y-108008200D02*
X112533333Y-107979628D01*
X112533333Y-107979628D02*
X112571428Y-107922485D01*
X112571428Y-107922485D02*
X112609524Y-107808200D01*
X112609524Y-107808200D02*
X112609524Y-107665342D01*
X112609524Y-107665342D02*
X112571428Y-107551057D01*
X112571428Y-107551057D02*
X112533333Y-107493914D01*
X112533333Y-107493914D02*
X112495238Y-107465342D01*
X112495238Y-107465342D02*
X112419047Y-107436771D01*
X111885714Y-107436771D02*
X111352380Y-107436771D01*
X111352380Y-107436771D02*
X111695238Y-108036771D01*
X111047618Y-107979628D02*
X111009523Y-108008200D01*
X111009523Y-108008200D02*
X111047618Y-108036771D01*
X111047618Y-108036771D02*
X111085714Y-108008200D01*
X111085714Y-108008200D02*
X111047618Y-107979628D01*
X111047618Y-107979628D02*
X111047618Y-108036771D01*
X110704762Y-107493914D02*
X110666666Y-107465342D01*
X110666666Y-107465342D02*
X110590476Y-107436771D01*
X110590476Y-107436771D02*
X110400000Y-107436771D01*
X110400000Y-107436771D02*
X110323809Y-107465342D01*
X110323809Y-107465342D02*
X110285714Y-107493914D01*
X110285714Y-107493914D02*
X110247619Y-107551057D01*
X110247619Y-107551057D02*
X110247619Y-107608200D01*
X110247619Y-107608200D02*
X110285714Y-107693914D01*
X110285714Y-107693914D02*
X110742857Y-108036771D01*
X110742857Y-108036771D02*
X110247619Y-108036771D01*
X109980952Y-107436771D02*
X109485714Y-107436771D01*
X109485714Y-107436771D02*
X109752380Y-107665342D01*
X109752380Y-107665342D02*
X109638095Y-107665342D01*
X109638095Y-107665342D02*
X109561904Y-107693914D01*
X109561904Y-107693914D02*
X109523809Y-107722485D01*
X109523809Y-107722485D02*
X109485714Y-107779628D01*
X109485714Y-107779628D02*
X109485714Y-107922485D01*
X109485714Y-107922485D02*
X109523809Y-107979628D01*
X109523809Y-107979628D02*
X109561904Y-108008200D01*
X109561904Y-108008200D02*
X109638095Y-108036771D01*
X109638095Y-108036771D02*
X109866666Y-108036771D01*
X109866666Y-108036771D02*
X109942857Y-108008200D01*
X109942857Y-108008200D02*
X109980952Y-107979628D01*
X114609524Y-109002771D02*
X114342857Y-108402771D01*
X114342857Y-108402771D02*
X114076191Y-109002771D01*
X114076191Y-109002771D02*
X114609524Y-109002771D01*
X113809524Y-108602771D02*
X113809524Y-108917057D01*
X113809524Y-108917057D02*
X113771429Y-108974200D01*
X113771429Y-108974200D02*
X113695239Y-109002771D01*
X113276191Y-109002771D02*
X113352381Y-108974200D01*
X113352381Y-108974200D02*
X113390476Y-108945628D01*
X113390476Y-108945628D02*
X113428572Y-108888485D01*
X113428572Y-108888485D02*
X113428572Y-108717057D01*
X113428572Y-108717057D02*
X113390476Y-108659914D01*
X113390476Y-108659914D02*
X113352381Y-108631342D01*
X113352381Y-108631342D02*
X113276191Y-108602771D01*
X113276191Y-108602771D02*
X113161905Y-108602771D01*
X113161905Y-108602771D02*
X113085714Y-108631342D01*
X113085714Y-108631342D02*
X113047619Y-108659914D01*
X113047619Y-108659914D02*
X113009524Y-108717057D01*
X113009524Y-108717057D02*
X113009524Y-108888485D01*
X113009524Y-108888485D02*
X113047619Y-108945628D01*
X113047619Y-108945628D02*
X113085714Y-108974200D01*
X113085714Y-108974200D02*
X113161905Y-109002771D01*
X113161905Y-109002771D02*
X113276191Y-109002771D01*
X112742857Y-108602771D02*
X112552381Y-109002771D01*
X112552381Y-109002771D02*
X112361904Y-108688485D01*
X112361904Y-108688485D02*
X112361904Y-108659914D01*
X112361904Y-108659914D02*
X112400000Y-108602771D01*
X112019047Y-108602771D02*
X112019047Y-108917057D01*
X112019047Y-108917057D02*
X111980952Y-108974200D01*
X111980952Y-108974200D02*
X111904762Y-109002771D01*
X111904762Y-109002771D02*
X111790476Y-109002771D01*
X111790476Y-109002771D02*
X111714285Y-108974200D01*
X111714285Y-108974200D02*
X111676190Y-108945628D01*
X111676190Y-108945628D02*
X111638095Y-108888485D01*
X111638095Y-108888485D02*
X111638095Y-108688485D01*
X111638095Y-108688485D02*
X111676190Y-108631342D01*
X111676190Y-108631342D02*
X111714285Y-108602771D01*
X111752381Y-108374200D02*
X111866666Y-108459914D01*
X110838094Y-108602771D02*
X111180952Y-108602771D01*
X111180952Y-108602771D02*
X111257142Y-108631342D01*
X111257142Y-108631342D02*
X111295237Y-108659914D01*
X111295237Y-108659914D02*
X111333333Y-108717057D01*
X111333333Y-108717057D02*
X111333333Y-108888485D01*
X111333333Y-108888485D02*
X111295237Y-108945628D01*
X111295237Y-108945628D02*
X111257142Y-108974200D01*
X111257142Y-108974200D02*
X111180952Y-109002771D01*
X111180952Y-109002771D02*
X111066666Y-109002771D01*
X111066666Y-109002771D02*
X110990475Y-108974200D01*
X110990475Y-108974200D02*
X110952380Y-108945628D01*
X110952380Y-108945628D02*
X110914285Y-108888485D01*
X110914285Y-108888485D02*
X110914285Y-108717057D01*
X110914285Y-108717057D02*
X110952380Y-108659914D01*
X110952380Y-108659914D02*
X110990475Y-108631342D01*
X110990475Y-108631342D02*
X111066666Y-108602771D01*
X110533332Y-108602771D02*
X110533332Y-109002771D01*
X110533332Y-108659914D02*
X110495237Y-108631342D01*
X110495237Y-108631342D02*
X110419047Y-108602771D01*
X110419047Y-108602771D02*
X110304761Y-108602771D01*
X110304761Y-108602771D02*
X110228570Y-108631342D01*
X110228570Y-108631342D02*
X110190475Y-108688485D01*
X110190475Y-108688485D02*
X110190475Y-109202771D01*
X109466665Y-108631342D02*
X109542856Y-108602771D01*
X109542856Y-108602771D02*
X109695237Y-108602771D01*
X109695237Y-108602771D02*
X109771427Y-108631342D01*
X109771427Y-108631342D02*
X109809522Y-108659914D01*
X109809522Y-108659914D02*
X109847618Y-108717057D01*
X109847618Y-108717057D02*
X109847618Y-108888485D01*
X109847618Y-108888485D02*
X109809522Y-108945628D01*
X109809522Y-108945628D02*
X109771427Y-108974200D01*
X109771427Y-108974200D02*
X109695237Y-109002771D01*
X109695237Y-109002771D02*
X109580951Y-109002771D01*
X109580951Y-109002771D02*
X109504760Y-109031342D01*
X109504760Y-109031342D02*
X109466665Y-109088485D01*
X109466665Y-109088485D02*
X109466665Y-109117057D01*
X109466665Y-109117057D02*
X109504760Y-109174200D01*
X109504760Y-109174200D02*
X109580951Y-109202771D01*
X114742857Y-109368771D02*
X114285714Y-109368771D01*
X114514286Y-109968771D02*
X114514286Y-109368771D01*
X113904762Y-109968771D02*
X113980952Y-109940200D01*
X113980952Y-109940200D02*
X114019047Y-109911628D01*
X114019047Y-109911628D02*
X114057143Y-109854485D01*
X114057143Y-109854485D02*
X114057143Y-109683057D01*
X114057143Y-109683057D02*
X114019047Y-109625914D01*
X114019047Y-109625914D02*
X113980952Y-109597342D01*
X113980952Y-109597342D02*
X113904762Y-109568771D01*
X113904762Y-109568771D02*
X113790476Y-109568771D01*
X113790476Y-109568771D02*
X113714285Y-109597342D01*
X113714285Y-109597342D02*
X113676190Y-109625914D01*
X113676190Y-109625914D02*
X113638095Y-109683057D01*
X113638095Y-109683057D02*
X113638095Y-109854485D01*
X113638095Y-109854485D02*
X113676190Y-109911628D01*
X113676190Y-109911628D02*
X113714285Y-109940200D01*
X113714285Y-109940200D02*
X113790476Y-109968771D01*
X113790476Y-109968771D02*
X113904762Y-109968771D01*
X113295237Y-109568771D02*
X113295237Y-109883057D01*
X113295237Y-109883057D02*
X113257142Y-109940200D01*
X113257142Y-109940200D02*
X113180952Y-109968771D01*
X113180952Y-109968771D02*
X113066666Y-109968771D01*
X113066666Y-109968771D02*
X112990475Y-109940200D01*
X112990475Y-109940200D02*
X112952380Y-109911628D01*
X112952380Y-109911628D02*
X112914285Y-109854485D01*
X112914285Y-109854485D02*
X112914285Y-109654485D01*
X112914285Y-109654485D02*
X112952380Y-109597342D01*
X112952380Y-109597342D02*
X112990475Y-109568771D01*
X112457142Y-109568771D02*
X112647618Y-109968771D01*
X112647618Y-109368771D02*
X112571427Y-109368771D01*
X112571427Y-109368771D02*
X112533332Y-109397342D01*
X112533332Y-109397342D02*
X112457142Y-109568771D01*
X112457142Y-109568771D02*
X112266665Y-109968771D01*
X111504760Y-109568771D02*
X111619046Y-109854485D01*
X111619046Y-109854485D02*
X111657141Y-109911628D01*
X111657141Y-109911628D02*
X111695237Y-109940200D01*
X111695237Y-109940200D02*
X111771427Y-109968771D01*
X111771427Y-109968771D02*
X111847618Y-109968771D01*
X111847618Y-109968771D02*
X111923808Y-109940200D01*
X111923808Y-109940200D02*
X111961903Y-109911628D01*
X111961903Y-109911628D02*
X111999999Y-109825914D01*
X111999999Y-109825914D02*
X111999999Y-109711628D01*
X111999999Y-109711628D02*
X111961903Y-109625914D01*
X111961903Y-109625914D02*
X111923808Y-109597342D01*
X111923808Y-109597342D02*
X111847618Y-109568771D01*
X111847618Y-109568771D02*
X111771427Y-109568771D01*
X111771427Y-109568771D02*
X111695237Y-109597342D01*
X111695237Y-109597342D02*
X111657141Y-109625914D01*
X111657141Y-109625914D02*
X111619046Y-109683057D01*
X111619046Y-109683057D02*
X111580951Y-109883057D01*
X111580951Y-109883057D02*
X111542856Y-109940200D01*
X111542856Y-109940200D02*
X111466665Y-109968771D01*
X111695237Y-109340200D02*
X111809522Y-109425914D01*
X111199999Y-109654485D02*
X111161903Y-109597342D01*
X111161903Y-109597342D02*
X111085713Y-109568771D01*
X111085713Y-109568771D02*
X110742856Y-109568771D01*
X110971427Y-109568771D02*
X110971427Y-109883057D01*
X110971427Y-109883057D02*
X110933332Y-109940200D01*
X110933332Y-109940200D02*
X110857141Y-109968771D01*
X110285713Y-109968771D02*
X110361903Y-109940200D01*
X110361903Y-109940200D02*
X110399998Y-109911628D01*
X110399998Y-109911628D02*
X110438094Y-109854485D01*
X110438094Y-109854485D02*
X110438094Y-109683057D01*
X110438094Y-109683057D02*
X110399998Y-109625914D01*
X110399998Y-109625914D02*
X110361903Y-109597342D01*
X110361903Y-109597342D02*
X110285713Y-109568771D01*
X110285713Y-109568771D02*
X110171427Y-109568771D01*
X110171427Y-109568771D02*
X110095236Y-109597342D01*
X110095236Y-109597342D02*
X110057141Y-109625914D01*
X110057141Y-109625914D02*
X110019046Y-109683057D01*
X110019046Y-109683057D02*
X110019046Y-109854485D01*
X110019046Y-109854485D02*
X110057141Y-109911628D01*
X110057141Y-109911628D02*
X110095236Y-109940200D01*
X110095236Y-109940200D02*
X110171427Y-109968771D01*
X110171427Y-109968771D02*
X110285713Y-109968771D01*
X109333331Y-109597342D02*
X109409522Y-109568771D01*
X109409522Y-109568771D02*
X109561903Y-109568771D01*
X109561903Y-109568771D02*
X109638093Y-109597342D01*
X109638093Y-109597342D02*
X109676188Y-109625914D01*
X109676188Y-109625914D02*
X109714284Y-109683057D01*
X109714284Y-109683057D02*
X109714284Y-109854485D01*
X109714284Y-109854485D02*
X109676188Y-109911628D01*
X109676188Y-109911628D02*
X109638093Y-109940200D01*
X109638093Y-109940200D02*
X109561903Y-109968771D01*
X109561903Y-109968771D02*
X109447617Y-109968771D01*
X109447617Y-109968771D02*
X109371426Y-109997342D01*
X109371426Y-109997342D02*
X109333331Y-110054485D01*
X109333331Y-110054485D02*
X109333331Y-110083057D01*
X109333331Y-110083057D02*
X109371426Y-110140200D01*
X109371426Y-110140200D02*
X109447617Y-110168771D01*
X121859523Y-110919771D02*
X121859523Y-111405485D01*
X121859523Y-111405485D02*
X121821428Y-111462628D01*
X121821428Y-111462628D02*
X121783333Y-111491200D01*
X121783333Y-111491200D02*
X121707142Y-111519771D01*
X121707142Y-111519771D02*
X121554761Y-111519771D01*
X121554761Y-111519771D02*
X121478571Y-111491200D01*
X121478571Y-111491200D02*
X121440476Y-111462628D01*
X121440476Y-111462628D02*
X121402380Y-111405485D01*
X121402380Y-111405485D02*
X121402380Y-110919771D01*
X121059524Y-110976914D02*
X121021428Y-110948342D01*
X121021428Y-110948342D02*
X120945238Y-110919771D01*
X120945238Y-110919771D02*
X120754762Y-110919771D01*
X120754762Y-110919771D02*
X120678571Y-110948342D01*
X120678571Y-110948342D02*
X120640476Y-110976914D01*
X120640476Y-110976914D02*
X120602381Y-111034057D01*
X120602381Y-111034057D02*
X120602381Y-111091200D01*
X120602381Y-111091200D02*
X120640476Y-111176914D01*
X120640476Y-111176914D02*
X121097619Y-111519771D01*
X121097619Y-111519771D02*
X120602381Y-111519771D01*
X128133332Y-107012628D02*
X128171428Y-107041200D01*
X128171428Y-107041200D02*
X128285713Y-107069771D01*
X128285713Y-107069771D02*
X128361904Y-107069771D01*
X128361904Y-107069771D02*
X128476190Y-107041200D01*
X128476190Y-107041200D02*
X128552380Y-106984057D01*
X128552380Y-106984057D02*
X128590475Y-106926914D01*
X128590475Y-106926914D02*
X128628571Y-106812628D01*
X128628571Y-106812628D02*
X128628571Y-106726914D01*
X128628571Y-106726914D02*
X128590475Y-106612628D01*
X128590475Y-106612628D02*
X128552380Y-106555485D01*
X128552380Y-106555485D02*
X128476190Y-106498342D01*
X128476190Y-106498342D02*
X128361904Y-106469771D01*
X128361904Y-106469771D02*
X128285713Y-106469771D01*
X128285713Y-106469771D02*
X128171428Y-106498342D01*
X128171428Y-106498342D02*
X128133332Y-106526914D01*
X127828571Y-106526914D02*
X127790475Y-106498342D01*
X127790475Y-106498342D02*
X127714285Y-106469771D01*
X127714285Y-106469771D02*
X127523809Y-106469771D01*
X127523809Y-106469771D02*
X127447618Y-106498342D01*
X127447618Y-106498342D02*
X127409523Y-106526914D01*
X127409523Y-106526914D02*
X127371428Y-106584057D01*
X127371428Y-106584057D02*
X127371428Y-106641200D01*
X127371428Y-106641200D02*
X127409523Y-106726914D01*
X127409523Y-106726914D02*
X127866666Y-107069771D01*
X127866666Y-107069771D02*
X127371428Y-107069771D01*
X130383333Y-103019771D02*
X130764285Y-103019771D01*
X130764285Y-103019771D02*
X130764285Y-102419771D01*
X129697619Y-103019771D02*
X130154762Y-103019771D01*
X129926190Y-103019771D02*
X129926190Y-102419771D01*
X129926190Y-102419771D02*
X130002381Y-102505485D01*
X130002381Y-102505485D02*
X130078571Y-102562628D01*
X130078571Y-102562628D02*
X130154762Y-102591200D01*
X140980228Y-118690475D02*
X141580228Y-118690475D01*
X141580228Y-118690475D02*
X141580228Y-118499999D01*
X141580228Y-118499999D02*
X141551657Y-118385713D01*
X141551657Y-118385713D02*
X141494514Y-118309523D01*
X141494514Y-118309523D02*
X141437371Y-118271428D01*
X141437371Y-118271428D02*
X141323085Y-118233332D01*
X141323085Y-118233332D02*
X141237371Y-118233332D01*
X141237371Y-118233332D02*
X141123085Y-118271428D01*
X141123085Y-118271428D02*
X141065942Y-118309523D01*
X141065942Y-118309523D02*
X141008800Y-118385713D01*
X141008800Y-118385713D02*
X140980228Y-118499999D01*
X140980228Y-118499999D02*
X140980228Y-118690475D01*
X141580228Y-117509523D02*
X141580228Y-117890475D01*
X141580228Y-117890475D02*
X141294514Y-117928571D01*
X141294514Y-117928571D02*
X141323085Y-117890475D01*
X141323085Y-117890475D02*
X141351657Y-117814285D01*
X141351657Y-117814285D02*
X141351657Y-117623809D01*
X141351657Y-117623809D02*
X141323085Y-117547618D01*
X141323085Y-117547618D02*
X141294514Y-117509523D01*
X141294514Y-117509523D02*
X141237371Y-117471428D01*
X141237371Y-117471428D02*
X141094514Y-117471428D01*
X141094514Y-117471428D02*
X141037371Y-117509523D01*
X141037371Y-117509523D02*
X141008800Y-117547618D01*
X141008800Y-117547618D02*
X140980228Y-117623809D01*
X140980228Y-117623809D02*
X140980228Y-117814285D01*
X140980228Y-117814285D02*
X141008800Y-117890475D01*
X141008800Y-117890475D02*
X141037371Y-117928571D01*
X99133332Y-102519771D02*
X99399999Y-102234057D01*
X99590475Y-102519771D02*
X99590475Y-101919771D01*
X99590475Y-101919771D02*
X99285713Y-101919771D01*
X99285713Y-101919771D02*
X99209523Y-101948342D01*
X99209523Y-101948342D02*
X99171428Y-101976914D01*
X99171428Y-101976914D02*
X99133332Y-102034057D01*
X99133332Y-102034057D02*
X99133332Y-102119771D01*
X99133332Y-102119771D02*
X99171428Y-102176914D01*
X99171428Y-102176914D02*
X99209523Y-102205485D01*
X99209523Y-102205485D02*
X99285713Y-102234057D01*
X99285713Y-102234057D02*
X99590475Y-102234057D01*
X98409523Y-101919771D02*
X98790475Y-101919771D01*
X98790475Y-101919771D02*
X98828571Y-102205485D01*
X98828571Y-102205485D02*
X98790475Y-102176914D01*
X98790475Y-102176914D02*
X98714285Y-102148342D01*
X98714285Y-102148342D02*
X98523809Y-102148342D01*
X98523809Y-102148342D02*
X98447618Y-102176914D01*
X98447618Y-102176914D02*
X98409523Y-102205485D01*
X98409523Y-102205485D02*
X98371428Y-102262628D01*
X98371428Y-102262628D02*
X98371428Y-102405485D01*
X98371428Y-102405485D02*
X98409523Y-102462628D01*
X98409523Y-102462628D02*
X98447618Y-102491200D01*
X98447618Y-102491200D02*
X98523809Y-102519771D01*
X98523809Y-102519771D02*
X98714285Y-102519771D01*
X98714285Y-102519771D02*
X98790475Y-102491200D01*
X98790475Y-102491200D02*
X98828571Y-102462628D01*
X142109523Y-104169771D02*
X142109523Y-104655485D01*
X142109523Y-104655485D02*
X142071428Y-104712628D01*
X142071428Y-104712628D02*
X142033333Y-104741200D01*
X142033333Y-104741200D02*
X141957142Y-104769771D01*
X141957142Y-104769771D02*
X141804761Y-104769771D01*
X141804761Y-104769771D02*
X141728571Y-104741200D01*
X141728571Y-104741200D02*
X141690476Y-104712628D01*
X141690476Y-104712628D02*
X141652380Y-104655485D01*
X141652380Y-104655485D02*
X141652380Y-104169771D01*
X140852381Y-104769771D02*
X141309524Y-104769771D01*
X141080952Y-104769771D02*
X141080952Y-104169771D01*
X141080952Y-104169771D02*
X141157143Y-104255485D01*
X141157143Y-104255485D02*
X141233333Y-104312628D01*
X141233333Y-104312628D02*
X141309524Y-104341200D01*
X145226189Y-102019771D02*
X145492856Y-101734057D01*
X145683332Y-102019771D02*
X145683332Y-101419771D01*
X145683332Y-101419771D02*
X145378570Y-101419771D01*
X145378570Y-101419771D02*
X145302380Y-101448342D01*
X145302380Y-101448342D02*
X145264285Y-101476914D01*
X145264285Y-101476914D02*
X145226189Y-101534057D01*
X145226189Y-101534057D02*
X145226189Y-101619771D01*
X145226189Y-101619771D02*
X145264285Y-101676914D01*
X145264285Y-101676914D02*
X145302380Y-101705485D01*
X145302380Y-101705485D02*
X145378570Y-101734057D01*
X145378570Y-101734057D02*
X145683332Y-101734057D01*
X144997618Y-101419771D02*
X144730951Y-102019771D01*
X144730951Y-102019771D02*
X144464285Y-101419771D01*
X143778571Y-102019771D02*
X144235714Y-102019771D01*
X144007142Y-102019771D02*
X144007142Y-101419771D01*
X144007142Y-101419771D02*
X144083333Y-101505485D01*
X144083333Y-101505485D02*
X144159523Y-101562628D01*
X144159523Y-101562628D02*
X144235714Y-101591200D01*
X125787371Y-112883332D02*
X125758800Y-112921428D01*
X125758800Y-112921428D02*
X125730228Y-113035713D01*
X125730228Y-113035713D02*
X125730228Y-113111904D01*
X125730228Y-113111904D02*
X125758800Y-113226190D01*
X125758800Y-113226190D02*
X125815942Y-113302380D01*
X125815942Y-113302380D02*
X125873085Y-113340475D01*
X125873085Y-113340475D02*
X125987371Y-113378571D01*
X125987371Y-113378571D02*
X126073085Y-113378571D01*
X126073085Y-113378571D02*
X126187371Y-113340475D01*
X126187371Y-113340475D02*
X126244514Y-113302380D01*
X126244514Y-113302380D02*
X126301657Y-113226190D01*
X126301657Y-113226190D02*
X126330228Y-113111904D01*
X126330228Y-113111904D02*
X126330228Y-113035713D01*
X126330228Y-113035713D02*
X126301657Y-112921428D01*
X126301657Y-112921428D02*
X126273085Y-112883332D01*
X126330228Y-112616666D02*
X126330228Y-112121428D01*
X126330228Y-112121428D02*
X126101657Y-112388094D01*
X126101657Y-112388094D02*
X126101657Y-112273809D01*
X126101657Y-112273809D02*
X126073085Y-112197618D01*
X126073085Y-112197618D02*
X126044514Y-112159523D01*
X126044514Y-112159523D02*
X125987371Y-112121428D01*
X125987371Y-112121428D02*
X125844514Y-112121428D01*
X125844514Y-112121428D02*
X125787371Y-112159523D01*
X125787371Y-112159523D02*
X125758800Y-112197618D01*
X125758800Y-112197618D02*
X125730228Y-112273809D01*
X125730228Y-112273809D02*
X125730228Y-112502380D01*
X125730228Y-112502380D02*
X125758800Y-112578571D01*
X125758800Y-112578571D02*
X125787371Y-112616666D01*
X139514285Y-114269771D02*
X139780952Y-113984057D01*
X139971428Y-114269771D02*
X139971428Y-113669771D01*
X139971428Y-113669771D02*
X139666666Y-113669771D01*
X139666666Y-113669771D02*
X139590476Y-113698342D01*
X139590476Y-113698342D02*
X139552381Y-113726914D01*
X139552381Y-113726914D02*
X139514285Y-113784057D01*
X139514285Y-113784057D02*
X139514285Y-113869771D01*
X139514285Y-113869771D02*
X139552381Y-113926914D01*
X139552381Y-113926914D02*
X139590476Y-113955485D01*
X139590476Y-113955485D02*
X139666666Y-113984057D01*
X139666666Y-113984057D02*
X139971428Y-113984057D01*
X138752381Y-114269771D02*
X139209524Y-114269771D01*
X138980952Y-114269771D02*
X138980952Y-113669771D01*
X138980952Y-113669771D02*
X139057143Y-113755485D01*
X139057143Y-113755485D02*
X139133333Y-113812628D01*
X139133333Y-113812628D02*
X139209524Y-113841200D01*
X138447619Y-113726914D02*
X138409523Y-113698342D01*
X138409523Y-113698342D02*
X138333333Y-113669771D01*
X138333333Y-113669771D02*
X138142857Y-113669771D01*
X138142857Y-113669771D02*
X138066666Y-113698342D01*
X138066666Y-113698342D02*
X138028571Y-113726914D01*
X138028571Y-113726914D02*
X137990476Y-113784057D01*
X137990476Y-113784057D02*
X137990476Y-113841200D01*
X137990476Y-113841200D02*
X138028571Y-113926914D01*
X138028571Y-113926914D02*
X138485714Y-114269771D01*
X138485714Y-114269771D02*
X137990476Y-114269771D01*
X112109523Y-104919771D02*
X112109523Y-105405485D01*
X112109523Y-105405485D02*
X112071428Y-105462628D01*
X112071428Y-105462628D02*
X112033333Y-105491200D01*
X112033333Y-105491200D02*
X111957142Y-105519771D01*
X111957142Y-105519771D02*
X111804761Y-105519771D01*
X111804761Y-105519771D02*
X111728571Y-105491200D01*
X111728571Y-105491200D02*
X111690476Y-105462628D01*
X111690476Y-105462628D02*
X111652380Y-105405485D01*
X111652380Y-105405485D02*
X111652380Y-104919771D01*
X110890476Y-104919771D02*
X111271428Y-104919771D01*
X111271428Y-104919771D02*
X111309524Y-105205485D01*
X111309524Y-105205485D02*
X111271428Y-105176914D01*
X111271428Y-105176914D02*
X111195238Y-105148342D01*
X111195238Y-105148342D02*
X111004762Y-105148342D01*
X111004762Y-105148342D02*
X110928571Y-105176914D01*
X110928571Y-105176914D02*
X110890476Y-105205485D01*
X110890476Y-105205485D02*
X110852381Y-105262628D01*
X110852381Y-105262628D02*
X110852381Y-105405485D01*
X110852381Y-105405485D02*
X110890476Y-105462628D01*
X110890476Y-105462628D02*
X110928571Y-105491200D01*
X110928571Y-105491200D02*
X111004762Y-105519771D01*
X111004762Y-105519771D02*
X111195238Y-105519771D01*
X111195238Y-105519771D02*
X111271428Y-105491200D01*
X111271428Y-105491200D02*
X111309524Y-105462628D01*
X116537371Y-107514285D02*
X116508800Y-107552381D01*
X116508800Y-107552381D02*
X116480228Y-107666666D01*
X116480228Y-107666666D02*
X116480228Y-107742857D01*
X116480228Y-107742857D02*
X116508800Y-107857143D01*
X116508800Y-107857143D02*
X116565942Y-107933333D01*
X116565942Y-107933333D02*
X116623085Y-107971428D01*
X116623085Y-107971428D02*
X116737371Y-108009524D01*
X116737371Y-108009524D02*
X116823085Y-108009524D01*
X116823085Y-108009524D02*
X116937371Y-107971428D01*
X116937371Y-107971428D02*
X116994514Y-107933333D01*
X116994514Y-107933333D02*
X117051657Y-107857143D01*
X117051657Y-107857143D02*
X117080228Y-107742857D01*
X117080228Y-107742857D02*
X117080228Y-107666666D01*
X117080228Y-107666666D02*
X117051657Y-107552381D01*
X117051657Y-107552381D02*
X117023085Y-107514285D01*
X116480228Y-106752381D02*
X116480228Y-107209524D01*
X116480228Y-106980952D02*
X117080228Y-106980952D01*
X117080228Y-106980952D02*
X116994514Y-107057143D01*
X116994514Y-107057143D02*
X116937371Y-107133333D01*
X116937371Y-107133333D02*
X116908800Y-107209524D01*
X117080228Y-106257142D02*
X117080228Y-106180952D01*
X117080228Y-106180952D02*
X117051657Y-106104761D01*
X117051657Y-106104761D02*
X117023085Y-106066666D01*
X117023085Y-106066666D02*
X116965942Y-106028571D01*
X116965942Y-106028571D02*
X116851657Y-105990476D01*
X116851657Y-105990476D02*
X116708800Y-105990476D01*
X116708800Y-105990476D02*
X116594514Y-106028571D01*
X116594514Y-106028571D02*
X116537371Y-106066666D01*
X116537371Y-106066666D02*
X116508800Y-106104761D01*
X116508800Y-106104761D02*
X116480228Y-106180952D01*
X116480228Y-106180952D02*
X116480228Y-106257142D01*
X116480228Y-106257142D02*
X116508800Y-106333333D01*
X116508800Y-106333333D02*
X116537371Y-106371428D01*
X116537371Y-106371428D02*
X116594514Y-106409523D01*
X116594514Y-106409523D02*
X116708800Y-106447619D01*
X116708800Y-106447619D02*
X116851657Y-106447619D01*
X116851657Y-106447619D02*
X116965942Y-106409523D01*
X116965942Y-106409523D02*
X117023085Y-106371428D01*
X117023085Y-106371428D02*
X117051657Y-106333333D01*
X117051657Y-106333333D02*
X117080228Y-106257142D01*
X146264285Y-107019771D02*
X146530952Y-106734057D01*
X146721428Y-107019771D02*
X146721428Y-106419771D01*
X146721428Y-106419771D02*
X146416666Y-106419771D01*
X146416666Y-106419771D02*
X146340476Y-106448342D01*
X146340476Y-106448342D02*
X146302381Y-106476914D01*
X146302381Y-106476914D02*
X146264285Y-106534057D01*
X146264285Y-106534057D02*
X146264285Y-106619771D01*
X146264285Y-106619771D02*
X146302381Y-106676914D01*
X146302381Y-106676914D02*
X146340476Y-106705485D01*
X146340476Y-106705485D02*
X146416666Y-106734057D01*
X146416666Y-106734057D02*
X146721428Y-106734057D01*
X145502381Y-107019771D02*
X145959524Y-107019771D01*
X145730952Y-107019771D02*
X145730952Y-106419771D01*
X145730952Y-106419771D02*
X145807143Y-106505485D01*
X145807143Y-106505485D02*
X145883333Y-106562628D01*
X145883333Y-106562628D02*
X145959524Y-106591200D01*
X145235714Y-106419771D02*
X144740476Y-106419771D01*
X144740476Y-106419771D02*
X145007142Y-106648342D01*
X145007142Y-106648342D02*
X144892857Y-106648342D01*
X144892857Y-106648342D02*
X144816666Y-106676914D01*
X144816666Y-106676914D02*
X144778571Y-106705485D01*
X144778571Y-106705485D02*
X144740476Y-106762628D01*
X144740476Y-106762628D02*
X144740476Y-106905485D01*
X144740476Y-106905485D02*
X144778571Y-106962628D01*
X144778571Y-106962628D02*
X144816666Y-106991200D01*
X144816666Y-106991200D02*
X144892857Y-107019771D01*
X144892857Y-107019771D02*
X145121428Y-107019771D01*
X145121428Y-107019771D02*
X145197619Y-106991200D01*
X145197619Y-106991200D02*
X145235714Y-106962628D01*
X109883332Y-117462628D02*
X109921428Y-117491200D01*
X109921428Y-117491200D02*
X110035713Y-117519771D01*
X110035713Y-117519771D02*
X110111904Y-117519771D01*
X110111904Y-117519771D02*
X110226190Y-117491200D01*
X110226190Y-117491200D02*
X110302380Y-117434057D01*
X110302380Y-117434057D02*
X110340475Y-117376914D01*
X110340475Y-117376914D02*
X110378571Y-117262628D01*
X110378571Y-117262628D02*
X110378571Y-117176914D01*
X110378571Y-117176914D02*
X110340475Y-117062628D01*
X110340475Y-117062628D02*
X110302380Y-117005485D01*
X110302380Y-117005485D02*
X110226190Y-116948342D01*
X110226190Y-116948342D02*
X110111904Y-116919771D01*
X110111904Y-116919771D02*
X110035713Y-116919771D01*
X110035713Y-116919771D02*
X109921428Y-116948342D01*
X109921428Y-116948342D02*
X109883332Y-116976914D01*
X109426190Y-117176914D02*
X109502380Y-117148342D01*
X109502380Y-117148342D02*
X109540475Y-117119771D01*
X109540475Y-117119771D02*
X109578571Y-117062628D01*
X109578571Y-117062628D02*
X109578571Y-117034057D01*
X109578571Y-117034057D02*
X109540475Y-116976914D01*
X109540475Y-116976914D02*
X109502380Y-116948342D01*
X109502380Y-116948342D02*
X109426190Y-116919771D01*
X109426190Y-116919771D02*
X109273809Y-116919771D01*
X109273809Y-116919771D02*
X109197618Y-116948342D01*
X109197618Y-116948342D02*
X109159523Y-116976914D01*
X109159523Y-116976914D02*
X109121428Y-117034057D01*
X109121428Y-117034057D02*
X109121428Y-117062628D01*
X109121428Y-117062628D02*
X109159523Y-117119771D01*
X109159523Y-117119771D02*
X109197618Y-117148342D01*
X109197618Y-117148342D02*
X109273809Y-117176914D01*
X109273809Y-117176914D02*
X109426190Y-117176914D01*
X109426190Y-117176914D02*
X109502380Y-117205485D01*
X109502380Y-117205485D02*
X109540475Y-117234057D01*
X109540475Y-117234057D02*
X109578571Y-117291200D01*
X109578571Y-117291200D02*
X109578571Y-117405485D01*
X109578571Y-117405485D02*
X109540475Y-117462628D01*
X109540475Y-117462628D02*
X109502380Y-117491200D01*
X109502380Y-117491200D02*
X109426190Y-117519771D01*
X109426190Y-117519771D02*
X109273809Y-117519771D01*
X109273809Y-117519771D02*
X109197618Y-117491200D01*
X109197618Y-117491200D02*
X109159523Y-117462628D01*
X109159523Y-117462628D02*
X109121428Y-117405485D01*
X109121428Y-117405485D02*
X109121428Y-117291200D01*
X109121428Y-117291200D02*
X109159523Y-117234057D01*
X109159523Y-117234057D02*
X109197618Y-117205485D01*
X109197618Y-117205485D02*
X109273809Y-117176914D01*
X153340475Y-101519771D02*
X153340475Y-100919771D01*
X153340475Y-100919771D02*
X153149999Y-100919771D01*
X153149999Y-100919771D02*
X153035713Y-100948342D01*
X153035713Y-100948342D02*
X152959523Y-101005485D01*
X152959523Y-101005485D02*
X152921428Y-101062628D01*
X152921428Y-101062628D02*
X152883332Y-101176914D01*
X152883332Y-101176914D02*
X152883332Y-101262628D01*
X152883332Y-101262628D02*
X152921428Y-101376914D01*
X152921428Y-101376914D02*
X152959523Y-101434057D01*
X152959523Y-101434057D02*
X153035713Y-101491200D01*
X153035713Y-101491200D02*
X153149999Y-101519771D01*
X153149999Y-101519771D02*
X153340475Y-101519771D01*
X152616666Y-100919771D02*
X152083332Y-100919771D01*
X152083332Y-100919771D02*
X152426190Y-101519771D01*
X123633332Y-100019771D02*
X123899999Y-99734057D01*
X124090475Y-100019771D02*
X124090475Y-99419771D01*
X124090475Y-99419771D02*
X123785713Y-99419771D01*
X123785713Y-99419771D02*
X123709523Y-99448342D01*
X123709523Y-99448342D02*
X123671428Y-99476914D01*
X123671428Y-99476914D02*
X123633332Y-99534057D01*
X123633332Y-99534057D02*
X123633332Y-99619771D01*
X123633332Y-99619771D02*
X123671428Y-99676914D01*
X123671428Y-99676914D02*
X123709523Y-99705485D01*
X123709523Y-99705485D02*
X123785713Y-99734057D01*
X123785713Y-99734057D02*
X124090475Y-99734057D01*
X123366666Y-99419771D02*
X122833332Y-99419771D01*
X122833332Y-99419771D02*
X123176190Y-100019771D01*
X141633332Y-102462628D02*
X141671428Y-102491200D01*
X141671428Y-102491200D02*
X141785713Y-102519771D01*
X141785713Y-102519771D02*
X141861904Y-102519771D01*
X141861904Y-102519771D02*
X141976190Y-102491200D01*
X141976190Y-102491200D02*
X142052380Y-102434057D01*
X142052380Y-102434057D02*
X142090475Y-102376914D01*
X142090475Y-102376914D02*
X142128571Y-102262628D01*
X142128571Y-102262628D02*
X142128571Y-102176914D01*
X142128571Y-102176914D02*
X142090475Y-102062628D01*
X142090475Y-102062628D02*
X142052380Y-102005485D01*
X142052380Y-102005485D02*
X141976190Y-101948342D01*
X141976190Y-101948342D02*
X141861904Y-101919771D01*
X141861904Y-101919771D02*
X141785713Y-101919771D01*
X141785713Y-101919771D02*
X141671428Y-101948342D01*
X141671428Y-101948342D02*
X141633332Y-101976914D01*
X140871428Y-102519771D02*
X141328571Y-102519771D01*
X141099999Y-102519771D02*
X141099999Y-101919771D01*
X141099999Y-101919771D02*
X141176190Y-102005485D01*
X141176190Y-102005485D02*
X141252380Y-102062628D01*
X141252380Y-102062628D02*
X141328571Y-102091200D01*
X135780228Y-100990475D02*
X136380228Y-100990475D01*
X136380228Y-100990475D02*
X136380228Y-100799999D01*
X136380228Y-100799999D02*
X136351657Y-100685713D01*
X136351657Y-100685713D02*
X136294514Y-100609523D01*
X136294514Y-100609523D02*
X136237371Y-100571428D01*
X136237371Y-100571428D02*
X136123085Y-100533332D01*
X136123085Y-100533332D02*
X136037371Y-100533332D01*
X136037371Y-100533332D02*
X135923085Y-100571428D01*
X135923085Y-100571428D02*
X135865942Y-100609523D01*
X135865942Y-100609523D02*
X135808800Y-100685713D01*
X135808800Y-100685713D02*
X135780228Y-100799999D01*
X135780228Y-100799999D02*
X135780228Y-100990475D01*
X135780228Y-99771428D02*
X135780228Y-100228571D01*
X135780228Y-99999999D02*
X136380228Y-99999999D01*
X136380228Y-99999999D02*
X136294514Y-100076190D01*
X136294514Y-100076190D02*
X136237371Y-100152380D01*
X136237371Y-100152380D02*
X136208800Y-100228571D01*
X118883332Y-100019771D02*
X119149999Y-99734057D01*
X119340475Y-100019771D02*
X119340475Y-99419771D01*
X119340475Y-99419771D02*
X119035713Y-99419771D01*
X119035713Y-99419771D02*
X118959523Y-99448342D01*
X118959523Y-99448342D02*
X118921428Y-99476914D01*
X118921428Y-99476914D02*
X118883332Y-99534057D01*
X118883332Y-99534057D02*
X118883332Y-99619771D01*
X118883332Y-99619771D02*
X118921428Y-99676914D01*
X118921428Y-99676914D02*
X118959523Y-99705485D01*
X118959523Y-99705485D02*
X119035713Y-99734057D01*
X119035713Y-99734057D02*
X119340475Y-99734057D01*
X118197618Y-99419771D02*
X118349999Y-99419771D01*
X118349999Y-99419771D02*
X118426190Y-99448342D01*
X118426190Y-99448342D02*
X118464285Y-99476914D01*
X118464285Y-99476914D02*
X118540475Y-99562628D01*
X118540475Y-99562628D02*
X118578571Y-99676914D01*
X118578571Y-99676914D02*
X118578571Y-99905485D01*
X118578571Y-99905485D02*
X118540475Y-99962628D01*
X118540475Y-99962628D02*
X118502380Y-99991200D01*
X118502380Y-99991200D02*
X118426190Y-100019771D01*
X118426190Y-100019771D02*
X118273809Y-100019771D01*
X118273809Y-100019771D02*
X118197618Y-99991200D01*
X118197618Y-99991200D02*
X118159523Y-99962628D01*
X118159523Y-99962628D02*
X118121428Y-99905485D01*
X118121428Y-99905485D02*
X118121428Y-99762628D01*
X118121428Y-99762628D02*
X118159523Y-99705485D01*
X118159523Y-99705485D02*
X118197618Y-99676914D01*
X118197618Y-99676914D02*
X118273809Y-99648342D01*
X118273809Y-99648342D02*
X118426190Y-99648342D01*
X118426190Y-99648342D02*
X118502380Y-99676914D01*
X118502380Y-99676914D02*
X118540475Y-99705485D01*
X118540475Y-99705485D02*
X118578571Y-99762628D01*
X107267728Y-120014285D02*
X107553442Y-120280952D01*
X107267728Y-120471428D02*
X107867728Y-120471428D01*
X107867728Y-120471428D02*
X107867728Y-120166666D01*
X107867728Y-120166666D02*
X107839157Y-120090476D01*
X107839157Y-120090476D02*
X107810585Y-120052381D01*
X107810585Y-120052381D02*
X107753442Y-120014285D01*
X107753442Y-120014285D02*
X107667728Y-120014285D01*
X107667728Y-120014285D02*
X107610585Y-120052381D01*
X107610585Y-120052381D02*
X107582014Y-120090476D01*
X107582014Y-120090476D02*
X107553442Y-120166666D01*
X107553442Y-120166666D02*
X107553442Y-120471428D01*
X107267728Y-119252381D02*
X107267728Y-119709524D01*
X107267728Y-119480952D02*
X107867728Y-119480952D01*
X107867728Y-119480952D02*
X107782014Y-119557143D01*
X107782014Y-119557143D02*
X107724871Y-119633333D01*
X107724871Y-119633333D02*
X107696300Y-119709524D01*
X107267728Y-118490476D02*
X107267728Y-118947619D01*
X107267728Y-118719047D02*
X107867728Y-118719047D01*
X107867728Y-118719047D02*
X107782014Y-118795238D01*
X107782014Y-118795238D02*
X107724871Y-118871428D01*
X107724871Y-118871428D02*
X107696300Y-118947619D01*
X130383332Y-107069771D02*
X130649999Y-106784057D01*
X130840475Y-107069771D02*
X130840475Y-106469771D01*
X130840475Y-106469771D02*
X130535713Y-106469771D01*
X130535713Y-106469771D02*
X130459523Y-106498342D01*
X130459523Y-106498342D02*
X130421428Y-106526914D01*
X130421428Y-106526914D02*
X130383332Y-106584057D01*
X130383332Y-106584057D02*
X130383332Y-106669771D01*
X130383332Y-106669771D02*
X130421428Y-106726914D01*
X130421428Y-106726914D02*
X130459523Y-106755485D01*
X130459523Y-106755485D02*
X130535713Y-106784057D01*
X130535713Y-106784057D02*
X130840475Y-106784057D01*
X129621428Y-107069771D02*
X130078571Y-107069771D01*
X129849999Y-107069771D02*
X129849999Y-106469771D01*
X129849999Y-106469771D02*
X129926190Y-106555485D01*
X129926190Y-106555485D02*
X130002380Y-106612628D01*
X130002380Y-106612628D02*
X130078571Y-106641200D01*
X118480228Y-109383332D02*
X118765942Y-109649999D01*
X118480228Y-109840475D02*
X119080228Y-109840475D01*
X119080228Y-109840475D02*
X119080228Y-109535713D01*
X119080228Y-109535713D02*
X119051657Y-109459523D01*
X119051657Y-109459523D02*
X119023085Y-109421428D01*
X119023085Y-109421428D02*
X118965942Y-109383332D01*
X118965942Y-109383332D02*
X118880228Y-109383332D01*
X118880228Y-109383332D02*
X118823085Y-109421428D01*
X118823085Y-109421428D02*
X118794514Y-109459523D01*
X118794514Y-109459523D02*
X118765942Y-109535713D01*
X118765942Y-109535713D02*
X118765942Y-109840475D01*
X118823085Y-108926190D02*
X118851657Y-109002380D01*
X118851657Y-109002380D02*
X118880228Y-109040475D01*
X118880228Y-109040475D02*
X118937371Y-109078571D01*
X118937371Y-109078571D02*
X118965942Y-109078571D01*
X118965942Y-109078571D02*
X119023085Y-109040475D01*
X119023085Y-109040475D02*
X119051657Y-109002380D01*
X119051657Y-109002380D02*
X119080228Y-108926190D01*
X119080228Y-108926190D02*
X119080228Y-108773809D01*
X119080228Y-108773809D02*
X119051657Y-108697618D01*
X119051657Y-108697618D02*
X119023085Y-108659523D01*
X119023085Y-108659523D02*
X118965942Y-108621428D01*
X118965942Y-108621428D02*
X118937371Y-108621428D01*
X118937371Y-108621428D02*
X118880228Y-108659523D01*
X118880228Y-108659523D02*
X118851657Y-108697618D01*
X118851657Y-108697618D02*
X118823085Y-108773809D01*
X118823085Y-108773809D02*
X118823085Y-108926190D01*
X118823085Y-108926190D02*
X118794514Y-109002380D01*
X118794514Y-109002380D02*
X118765942Y-109040475D01*
X118765942Y-109040475D02*
X118708800Y-109078571D01*
X118708800Y-109078571D02*
X118594514Y-109078571D01*
X118594514Y-109078571D02*
X118537371Y-109040475D01*
X118537371Y-109040475D02*
X118508800Y-109002380D01*
X118508800Y-109002380D02*
X118480228Y-108926190D01*
X118480228Y-108926190D02*
X118480228Y-108773809D01*
X118480228Y-108773809D02*
X118508800Y-108697618D01*
X118508800Y-108697618D02*
X118537371Y-108659523D01*
X118537371Y-108659523D02*
X118594514Y-108621428D01*
X118594514Y-108621428D02*
X118708800Y-108621428D01*
X118708800Y-108621428D02*
X118765942Y-108659523D01*
X118765942Y-108659523D02*
X118794514Y-108697618D01*
X118794514Y-108697618D02*
X118823085Y-108773809D01*
X139783332Y-111412628D02*
X139821428Y-111441200D01*
X139821428Y-111441200D02*
X139935713Y-111469771D01*
X139935713Y-111469771D02*
X140011904Y-111469771D01*
X140011904Y-111469771D02*
X140126190Y-111441200D01*
X140126190Y-111441200D02*
X140202380Y-111384057D01*
X140202380Y-111384057D02*
X140240475Y-111326914D01*
X140240475Y-111326914D02*
X140278571Y-111212628D01*
X140278571Y-111212628D02*
X140278571Y-111126914D01*
X140278571Y-111126914D02*
X140240475Y-111012628D01*
X140240475Y-111012628D02*
X140202380Y-110955485D01*
X140202380Y-110955485D02*
X140126190Y-110898342D01*
X140126190Y-110898342D02*
X140011904Y-110869771D01*
X140011904Y-110869771D02*
X139935713Y-110869771D01*
X139935713Y-110869771D02*
X139821428Y-110898342D01*
X139821428Y-110898342D02*
X139783332Y-110926914D01*
X139097618Y-110869771D02*
X139249999Y-110869771D01*
X139249999Y-110869771D02*
X139326190Y-110898342D01*
X139326190Y-110898342D02*
X139364285Y-110926914D01*
X139364285Y-110926914D02*
X139440475Y-111012628D01*
X139440475Y-111012628D02*
X139478571Y-111126914D01*
X139478571Y-111126914D02*
X139478571Y-111355485D01*
X139478571Y-111355485D02*
X139440475Y-111412628D01*
X139440475Y-111412628D02*
X139402380Y-111441200D01*
X139402380Y-111441200D02*
X139326190Y-111469771D01*
X139326190Y-111469771D02*
X139173809Y-111469771D01*
X139173809Y-111469771D02*
X139097618Y-111441200D01*
X139097618Y-111441200D02*
X139059523Y-111412628D01*
X139059523Y-111412628D02*
X139021428Y-111355485D01*
X139021428Y-111355485D02*
X139021428Y-111212628D01*
X139021428Y-111212628D02*
X139059523Y-111155485D01*
X139059523Y-111155485D02*
X139097618Y-111126914D01*
X139097618Y-111126914D02*
X139173809Y-111098342D01*
X139173809Y-111098342D02*
X139326190Y-111098342D01*
X139326190Y-111098342D02*
X139402380Y-111126914D01*
X139402380Y-111126914D02*
X139440475Y-111155485D01*
X139440475Y-111155485D02*
X139478571Y-111212628D01*
X123980228Y-109633332D02*
X124265942Y-109899999D01*
X123980228Y-110090475D02*
X124580228Y-110090475D01*
X124580228Y-110090475D02*
X124580228Y-109785713D01*
X124580228Y-109785713D02*
X124551657Y-109709523D01*
X124551657Y-109709523D02*
X124523085Y-109671428D01*
X124523085Y-109671428D02*
X124465942Y-109633332D01*
X124465942Y-109633332D02*
X124380228Y-109633332D01*
X124380228Y-109633332D02*
X124323085Y-109671428D01*
X124323085Y-109671428D02*
X124294514Y-109709523D01*
X124294514Y-109709523D02*
X124265942Y-109785713D01*
X124265942Y-109785713D02*
X124265942Y-110090475D01*
X123980228Y-109252380D02*
X123980228Y-109099999D01*
X123980228Y-109099999D02*
X124008800Y-109023809D01*
X124008800Y-109023809D02*
X124037371Y-108985713D01*
X124037371Y-108985713D02*
X124123085Y-108909523D01*
X124123085Y-108909523D02*
X124237371Y-108871428D01*
X124237371Y-108871428D02*
X124465942Y-108871428D01*
X124465942Y-108871428D02*
X124523085Y-108909523D01*
X124523085Y-108909523D02*
X124551657Y-108947618D01*
X124551657Y-108947618D02*
X124580228Y-109023809D01*
X124580228Y-109023809D02*
X124580228Y-109176190D01*
X124580228Y-109176190D02*
X124551657Y-109252380D01*
X124551657Y-109252380D02*
X124523085Y-109290475D01*
X124523085Y-109290475D02*
X124465942Y-109328571D01*
X124465942Y-109328571D02*
X124323085Y-109328571D01*
X124323085Y-109328571D02*
X124265942Y-109290475D01*
X124265942Y-109290475D02*
X124237371Y-109252380D01*
X124237371Y-109252380D02*
X124208800Y-109176190D01*
X124208800Y-109176190D02*
X124208800Y-109023809D01*
X124208800Y-109023809D02*
X124237371Y-108947618D01*
X124237371Y-108947618D02*
X124265942Y-108909523D01*
X124265942Y-108909523D02*
X124323085Y-108871428D01*
X116537371Y-103133332D02*
X116508800Y-103171428D01*
X116508800Y-103171428D02*
X116480228Y-103285713D01*
X116480228Y-103285713D02*
X116480228Y-103361904D01*
X116480228Y-103361904D02*
X116508800Y-103476190D01*
X116508800Y-103476190D02*
X116565942Y-103552380D01*
X116565942Y-103552380D02*
X116623085Y-103590475D01*
X116623085Y-103590475D02*
X116737371Y-103628571D01*
X116737371Y-103628571D02*
X116823085Y-103628571D01*
X116823085Y-103628571D02*
X116937371Y-103590475D01*
X116937371Y-103590475D02*
X116994514Y-103552380D01*
X116994514Y-103552380D02*
X117051657Y-103476190D01*
X117051657Y-103476190D02*
X117080228Y-103361904D01*
X117080228Y-103361904D02*
X117080228Y-103285713D01*
X117080228Y-103285713D02*
X117051657Y-103171428D01*
X117051657Y-103171428D02*
X117023085Y-103133332D01*
X116480228Y-102752380D02*
X116480228Y-102599999D01*
X116480228Y-102599999D02*
X116508800Y-102523809D01*
X116508800Y-102523809D02*
X116537371Y-102485713D01*
X116537371Y-102485713D02*
X116623085Y-102409523D01*
X116623085Y-102409523D02*
X116737371Y-102371428D01*
X116737371Y-102371428D02*
X116965942Y-102371428D01*
X116965942Y-102371428D02*
X117023085Y-102409523D01*
X117023085Y-102409523D02*
X117051657Y-102447618D01*
X117051657Y-102447618D02*
X117080228Y-102523809D01*
X117080228Y-102523809D02*
X117080228Y-102676190D01*
X117080228Y-102676190D02*
X117051657Y-102752380D01*
X117051657Y-102752380D02*
X117023085Y-102790475D01*
X117023085Y-102790475D02*
X116965942Y-102828571D01*
X116965942Y-102828571D02*
X116823085Y-102828571D01*
X116823085Y-102828571D02*
X116765942Y-102790475D01*
X116765942Y-102790475D02*
X116737371Y-102752380D01*
X116737371Y-102752380D02*
X116708800Y-102676190D01*
X116708800Y-102676190D02*
X116708800Y-102523809D01*
X116708800Y-102523809D02*
X116737371Y-102447618D01*
X116737371Y-102447618D02*
X116765942Y-102409523D01*
X116765942Y-102409523D02*
X116823085Y-102371428D01*
X140980228Y-116014285D02*
X141265942Y-116280952D01*
X140980228Y-116471428D02*
X141580228Y-116471428D01*
X141580228Y-116471428D02*
X141580228Y-116166666D01*
X141580228Y-116166666D02*
X141551657Y-116090476D01*
X141551657Y-116090476D02*
X141523085Y-116052381D01*
X141523085Y-116052381D02*
X141465942Y-116014285D01*
X141465942Y-116014285D02*
X141380228Y-116014285D01*
X141380228Y-116014285D02*
X141323085Y-116052381D01*
X141323085Y-116052381D02*
X141294514Y-116090476D01*
X141294514Y-116090476D02*
X141265942Y-116166666D01*
X141265942Y-116166666D02*
X141265942Y-116471428D01*
X140980228Y-115252381D02*
X140980228Y-115709524D01*
X140980228Y-115480952D02*
X141580228Y-115480952D01*
X141580228Y-115480952D02*
X141494514Y-115557143D01*
X141494514Y-115557143D02*
X141437371Y-115633333D01*
X141437371Y-115633333D02*
X141408800Y-115709524D01*
X141580228Y-114985714D02*
X141580228Y-114452380D01*
X141580228Y-114452380D02*
X140980228Y-114795238D01*
X135483332Y-111469771D02*
X135749999Y-111184057D01*
X135940475Y-111469771D02*
X135940475Y-110869771D01*
X135940475Y-110869771D02*
X135635713Y-110869771D01*
X135635713Y-110869771D02*
X135559523Y-110898342D01*
X135559523Y-110898342D02*
X135521428Y-110926914D01*
X135521428Y-110926914D02*
X135483332Y-110984057D01*
X135483332Y-110984057D02*
X135483332Y-111069771D01*
X135483332Y-111069771D02*
X135521428Y-111126914D01*
X135521428Y-111126914D02*
X135559523Y-111155485D01*
X135559523Y-111155485D02*
X135635713Y-111184057D01*
X135635713Y-111184057D02*
X135940475Y-111184057D01*
X135216666Y-110869771D02*
X134721428Y-110869771D01*
X134721428Y-110869771D02*
X134988094Y-111098342D01*
X134988094Y-111098342D02*
X134873809Y-111098342D01*
X134873809Y-111098342D02*
X134797618Y-111126914D01*
X134797618Y-111126914D02*
X134759523Y-111155485D01*
X134759523Y-111155485D02*
X134721428Y-111212628D01*
X134721428Y-111212628D02*
X134721428Y-111355485D01*
X134721428Y-111355485D02*
X134759523Y-111412628D01*
X134759523Y-111412628D02*
X134797618Y-111441200D01*
X134797618Y-111441200D02*
X134873809Y-111469771D01*
X134873809Y-111469771D02*
X135102380Y-111469771D01*
X135102380Y-111469771D02*
X135178571Y-111441200D01*
X135178571Y-111441200D02*
X135216666Y-111412628D01*
X142590475Y-111769771D02*
X142590475Y-111169771D01*
X142590475Y-111169771D02*
X142399999Y-111169771D01*
X142399999Y-111169771D02*
X142285713Y-111198342D01*
X142285713Y-111198342D02*
X142209523Y-111255485D01*
X142209523Y-111255485D02*
X142171428Y-111312628D01*
X142171428Y-111312628D02*
X142133332Y-111426914D01*
X142133332Y-111426914D02*
X142133332Y-111512628D01*
X142133332Y-111512628D02*
X142171428Y-111626914D01*
X142171428Y-111626914D02*
X142209523Y-111684057D01*
X142209523Y-111684057D02*
X142285713Y-111741200D01*
X142285713Y-111741200D02*
X142399999Y-111769771D01*
X142399999Y-111769771D02*
X142590475Y-111769771D01*
X141866666Y-111169771D02*
X141371428Y-111169771D01*
X141371428Y-111169771D02*
X141638094Y-111398342D01*
X141638094Y-111398342D02*
X141523809Y-111398342D01*
X141523809Y-111398342D02*
X141447618Y-111426914D01*
X141447618Y-111426914D02*
X141409523Y-111455485D01*
X141409523Y-111455485D02*
X141371428Y-111512628D01*
X141371428Y-111512628D02*
X141371428Y-111655485D01*
X141371428Y-111655485D02*
X141409523Y-111712628D01*
X141409523Y-111712628D02*
X141447618Y-111741200D01*
X141447618Y-111741200D02*
X141523809Y-111769771D01*
X141523809Y-111769771D02*
X141752380Y-111769771D01*
X141752380Y-111769771D02*
X141828571Y-111741200D01*
X141828571Y-111741200D02*
X141866666Y-111712628D01*
X126090475Y-105769771D02*
X126090475Y-105169771D01*
X126090475Y-105169771D02*
X125899999Y-105169771D01*
X125899999Y-105169771D02*
X125785713Y-105198342D01*
X125785713Y-105198342D02*
X125709523Y-105255485D01*
X125709523Y-105255485D02*
X125671428Y-105312628D01*
X125671428Y-105312628D02*
X125633332Y-105426914D01*
X125633332Y-105426914D02*
X125633332Y-105512628D01*
X125633332Y-105512628D02*
X125671428Y-105626914D01*
X125671428Y-105626914D02*
X125709523Y-105684057D01*
X125709523Y-105684057D02*
X125785713Y-105741200D01*
X125785713Y-105741200D02*
X125899999Y-105769771D01*
X125899999Y-105769771D02*
X126090475Y-105769771D01*
X125328571Y-105226914D02*
X125290475Y-105198342D01*
X125290475Y-105198342D02*
X125214285Y-105169771D01*
X125214285Y-105169771D02*
X125023809Y-105169771D01*
X125023809Y-105169771D02*
X124947618Y-105198342D01*
X124947618Y-105198342D02*
X124909523Y-105226914D01*
X124909523Y-105226914D02*
X124871428Y-105284057D01*
X124871428Y-105284057D02*
X124871428Y-105341200D01*
X124871428Y-105341200D02*
X124909523Y-105426914D01*
X124909523Y-105426914D02*
X125366666Y-105769771D01*
X125366666Y-105769771D02*
X124871428Y-105769771D01*
X147326190Y-113076914D02*
X147402380Y-113048342D01*
X147402380Y-113048342D02*
X147478571Y-112991200D01*
X147478571Y-112991200D02*
X147592857Y-112905485D01*
X147592857Y-112905485D02*
X147669047Y-112876914D01*
X147669047Y-112876914D02*
X147745238Y-112876914D01*
X147707142Y-113019771D02*
X147783333Y-112991200D01*
X147783333Y-112991200D02*
X147859523Y-112934057D01*
X147859523Y-112934057D02*
X147897619Y-112819771D01*
X147897619Y-112819771D02*
X147897619Y-112619771D01*
X147897619Y-112619771D02*
X147859523Y-112505485D01*
X147859523Y-112505485D02*
X147783333Y-112448342D01*
X147783333Y-112448342D02*
X147707142Y-112419771D01*
X147707142Y-112419771D02*
X147554761Y-112419771D01*
X147554761Y-112419771D02*
X147478571Y-112448342D01*
X147478571Y-112448342D02*
X147402380Y-112505485D01*
X147402380Y-112505485D02*
X147364285Y-112619771D01*
X147364285Y-112619771D02*
X147364285Y-112819771D01*
X147364285Y-112819771D02*
X147402380Y-112934057D01*
X147402380Y-112934057D02*
X147478571Y-112991200D01*
X147478571Y-112991200D02*
X147554761Y-113019771D01*
X147554761Y-113019771D02*
X147707142Y-113019771D01*
X146602381Y-113019771D02*
X147059524Y-113019771D01*
X146830952Y-113019771D02*
X146830952Y-112419771D01*
X146830952Y-112419771D02*
X146907143Y-112505485D01*
X146907143Y-112505485D02*
X146983333Y-112562628D01*
X146983333Y-112562628D02*
X147059524Y-112591200D01*
X123787371Y-101483332D02*
X123758800Y-101521428D01*
X123758800Y-101521428D02*
X123730228Y-101635713D01*
X123730228Y-101635713D02*
X123730228Y-101711904D01*
X123730228Y-101711904D02*
X123758800Y-101826190D01*
X123758800Y-101826190D02*
X123815942Y-101902380D01*
X123815942Y-101902380D02*
X123873085Y-101940475D01*
X123873085Y-101940475D02*
X123987371Y-101978571D01*
X123987371Y-101978571D02*
X124073085Y-101978571D01*
X124073085Y-101978571D02*
X124187371Y-101940475D01*
X124187371Y-101940475D02*
X124244514Y-101902380D01*
X124244514Y-101902380D02*
X124301657Y-101826190D01*
X124301657Y-101826190D02*
X124330228Y-101711904D01*
X124330228Y-101711904D02*
X124330228Y-101635713D01*
X124330228Y-101635713D02*
X124301657Y-101521428D01*
X124301657Y-101521428D02*
X124273085Y-101483332D01*
X124330228Y-100759523D02*
X124330228Y-101140475D01*
X124330228Y-101140475D02*
X124044514Y-101178571D01*
X124044514Y-101178571D02*
X124073085Y-101140475D01*
X124073085Y-101140475D02*
X124101657Y-101064285D01*
X124101657Y-101064285D02*
X124101657Y-100873809D01*
X124101657Y-100873809D02*
X124073085Y-100797618D01*
X124073085Y-100797618D02*
X124044514Y-100759523D01*
X124044514Y-100759523D02*
X123987371Y-100721428D01*
X123987371Y-100721428D02*
X123844514Y-100721428D01*
X123844514Y-100721428D02*
X123787371Y-100759523D01*
X123787371Y-100759523D02*
X123758800Y-100797618D01*
X123758800Y-100797618D02*
X123730228Y-100873809D01*
X123730228Y-100873809D02*
X123730228Y-101064285D01*
X123730228Y-101064285D02*
X123758800Y-101140475D01*
X123758800Y-101140475D02*
X123787371Y-101178571D01*
X123609523Y-104419771D02*
X123609523Y-104905485D01*
X123609523Y-104905485D02*
X123571428Y-104962628D01*
X123571428Y-104962628D02*
X123533333Y-104991200D01*
X123533333Y-104991200D02*
X123457142Y-105019771D01*
X123457142Y-105019771D02*
X123304761Y-105019771D01*
X123304761Y-105019771D02*
X123228571Y-104991200D01*
X123228571Y-104991200D02*
X123190476Y-104962628D01*
X123190476Y-104962628D02*
X123152380Y-104905485D01*
X123152380Y-104905485D02*
X123152380Y-104419771D01*
X122428571Y-104619771D02*
X122428571Y-105019771D01*
X122619047Y-104391200D02*
X122809524Y-104819771D01*
X122809524Y-104819771D02*
X122314285Y-104819771D01*
X135830228Y-116014285D02*
X136115942Y-116280952D01*
X135830228Y-116471428D02*
X136430228Y-116471428D01*
X136430228Y-116471428D02*
X136430228Y-116166666D01*
X136430228Y-116166666D02*
X136401657Y-116090476D01*
X136401657Y-116090476D02*
X136373085Y-116052381D01*
X136373085Y-116052381D02*
X136315942Y-116014285D01*
X136315942Y-116014285D02*
X136230228Y-116014285D01*
X136230228Y-116014285D02*
X136173085Y-116052381D01*
X136173085Y-116052381D02*
X136144514Y-116090476D01*
X136144514Y-116090476D02*
X136115942Y-116166666D01*
X136115942Y-116166666D02*
X136115942Y-116471428D01*
X135830228Y-115252381D02*
X135830228Y-115709524D01*
X135830228Y-115480952D02*
X136430228Y-115480952D01*
X136430228Y-115480952D02*
X136344514Y-115557143D01*
X136344514Y-115557143D02*
X136287371Y-115633333D01*
X136287371Y-115633333D02*
X136258800Y-115709524D01*
X136430228Y-114566666D02*
X136430228Y-114719047D01*
X136430228Y-114719047D02*
X136401657Y-114795238D01*
X136401657Y-114795238D02*
X136373085Y-114833333D01*
X136373085Y-114833333D02*
X136287371Y-114909523D01*
X136287371Y-114909523D02*
X136173085Y-114947619D01*
X136173085Y-114947619D02*
X135944514Y-114947619D01*
X135944514Y-114947619D02*
X135887371Y-114909523D01*
X135887371Y-114909523D02*
X135858800Y-114871428D01*
X135858800Y-114871428D02*
X135830228Y-114795238D01*
X135830228Y-114795238D02*
X135830228Y-114642857D01*
X135830228Y-114642857D02*
X135858800Y-114566666D01*
X135858800Y-114566666D02*
X135887371Y-114528571D01*
X135887371Y-114528571D02*
X135944514Y-114490476D01*
X135944514Y-114490476D02*
X136087371Y-114490476D01*
X136087371Y-114490476D02*
X136144514Y-114528571D01*
X136144514Y-114528571D02*
X136173085Y-114566666D01*
X136173085Y-114566666D02*
X136201657Y-114642857D01*
X136201657Y-114642857D02*
X136201657Y-114795238D01*
X136201657Y-114795238D02*
X136173085Y-114871428D01*
X136173085Y-114871428D02*
X136144514Y-114909523D01*
X136144514Y-114909523D02*
X136087371Y-114947619D01*
X143466666Y-116669771D02*
X143466666Y-117098342D01*
X143466666Y-117098342D02*
X143504761Y-117184057D01*
X143504761Y-117184057D02*
X143580952Y-117241200D01*
X143580952Y-117241200D02*
X143695237Y-117269771D01*
X143695237Y-117269771D02*
X143771428Y-117269771D01*
X142666666Y-117269771D02*
X143123809Y-117269771D01*
X142895237Y-117269771D02*
X142895237Y-116669771D01*
X142895237Y-116669771D02*
X142971428Y-116755485D01*
X142971428Y-116755485D02*
X143047618Y-116812628D01*
X143047618Y-116812628D02*
X143123809Y-116841200D01*
X98066667Y-110741200D02*
X97952381Y-110769771D01*
X97952381Y-110769771D02*
X97761905Y-110769771D01*
X97761905Y-110769771D02*
X97685714Y-110741200D01*
X97685714Y-110741200D02*
X97647619Y-110712628D01*
X97647619Y-110712628D02*
X97609524Y-110655485D01*
X97609524Y-110655485D02*
X97609524Y-110598342D01*
X97609524Y-110598342D02*
X97647619Y-110541200D01*
X97647619Y-110541200D02*
X97685714Y-110512628D01*
X97685714Y-110512628D02*
X97761905Y-110484057D01*
X97761905Y-110484057D02*
X97914286Y-110455485D01*
X97914286Y-110455485D02*
X97990476Y-110426914D01*
X97990476Y-110426914D02*
X98028571Y-110398342D01*
X98028571Y-110398342D02*
X98066667Y-110341200D01*
X98066667Y-110341200D02*
X98066667Y-110284057D01*
X98066667Y-110284057D02*
X98028571Y-110226914D01*
X98028571Y-110226914D02*
X97990476Y-110198342D01*
X97990476Y-110198342D02*
X97914286Y-110169771D01*
X97914286Y-110169771D02*
X97723809Y-110169771D01*
X97723809Y-110169771D02*
X97609524Y-110198342D01*
X97342857Y-110169771D02*
X97152381Y-110769771D01*
X97152381Y-110769771D02*
X97000000Y-110341200D01*
X97000000Y-110341200D02*
X96847619Y-110769771D01*
X96847619Y-110769771D02*
X96657143Y-110169771D01*
X96390476Y-110226914D02*
X96352380Y-110198342D01*
X96352380Y-110198342D02*
X96276190Y-110169771D01*
X96276190Y-110169771D02*
X96085714Y-110169771D01*
X96085714Y-110169771D02*
X96009523Y-110198342D01*
X96009523Y-110198342D02*
X95971428Y-110226914D01*
X95971428Y-110226914D02*
X95933333Y-110284057D01*
X95933333Y-110284057D02*
X95933333Y-110341200D01*
X95933333Y-110341200D02*
X95971428Y-110426914D01*
X95971428Y-110426914D02*
X96428571Y-110769771D01*
X96428571Y-110769771D02*
X95933333Y-110769771D01*
X133133332Y-107069771D02*
X133399999Y-106784057D01*
X133590475Y-107069771D02*
X133590475Y-106469771D01*
X133590475Y-106469771D02*
X133285713Y-106469771D01*
X133285713Y-106469771D02*
X133209523Y-106498342D01*
X133209523Y-106498342D02*
X133171428Y-106526914D01*
X133171428Y-106526914D02*
X133133332Y-106584057D01*
X133133332Y-106584057D02*
X133133332Y-106669771D01*
X133133332Y-106669771D02*
X133171428Y-106726914D01*
X133171428Y-106726914D02*
X133209523Y-106755485D01*
X133209523Y-106755485D02*
X133285713Y-106784057D01*
X133285713Y-106784057D02*
X133590475Y-106784057D01*
X132828571Y-106526914D02*
X132790475Y-106498342D01*
X132790475Y-106498342D02*
X132714285Y-106469771D01*
X132714285Y-106469771D02*
X132523809Y-106469771D01*
X132523809Y-106469771D02*
X132447618Y-106498342D01*
X132447618Y-106498342D02*
X132409523Y-106526914D01*
X132409523Y-106526914D02*
X132371428Y-106584057D01*
X132371428Y-106584057D02*
X132371428Y-106641200D01*
X132371428Y-106641200D02*
X132409523Y-106726914D01*
X132409523Y-106726914D02*
X132866666Y-107069771D01*
X132866666Y-107069771D02*
X132371428Y-107069771D01*
X150764285Y-113019771D02*
X151030952Y-112734057D01*
X151221428Y-113019771D02*
X151221428Y-112419771D01*
X151221428Y-112419771D02*
X150916666Y-112419771D01*
X150916666Y-112419771D02*
X150840476Y-112448342D01*
X150840476Y-112448342D02*
X150802381Y-112476914D01*
X150802381Y-112476914D02*
X150764285Y-112534057D01*
X150764285Y-112534057D02*
X150764285Y-112619771D01*
X150764285Y-112619771D02*
X150802381Y-112676914D01*
X150802381Y-112676914D02*
X150840476Y-112705485D01*
X150840476Y-112705485D02*
X150916666Y-112734057D01*
X150916666Y-112734057D02*
X151221428Y-112734057D01*
X150002381Y-113019771D02*
X150459524Y-113019771D01*
X150230952Y-113019771D02*
X150230952Y-112419771D01*
X150230952Y-112419771D02*
X150307143Y-112505485D01*
X150307143Y-112505485D02*
X150383333Y-112562628D01*
X150383333Y-112562628D02*
X150459524Y-112591200D01*
X149545238Y-112676914D02*
X149621428Y-112648342D01*
X149621428Y-112648342D02*
X149659523Y-112619771D01*
X149659523Y-112619771D02*
X149697619Y-112562628D01*
X149697619Y-112562628D02*
X149697619Y-112534057D01*
X149697619Y-112534057D02*
X149659523Y-112476914D01*
X149659523Y-112476914D02*
X149621428Y-112448342D01*
X149621428Y-112448342D02*
X149545238Y-112419771D01*
X149545238Y-112419771D02*
X149392857Y-112419771D01*
X149392857Y-112419771D02*
X149316666Y-112448342D01*
X149316666Y-112448342D02*
X149278571Y-112476914D01*
X149278571Y-112476914D02*
X149240476Y-112534057D01*
X149240476Y-112534057D02*
X149240476Y-112562628D01*
X149240476Y-112562628D02*
X149278571Y-112619771D01*
X149278571Y-112619771D02*
X149316666Y-112648342D01*
X149316666Y-112648342D02*
X149392857Y-112676914D01*
X149392857Y-112676914D02*
X149545238Y-112676914D01*
X149545238Y-112676914D02*
X149621428Y-112705485D01*
X149621428Y-112705485D02*
X149659523Y-112734057D01*
X149659523Y-112734057D02*
X149697619Y-112791200D01*
X149697619Y-112791200D02*
X149697619Y-112905485D01*
X149697619Y-112905485D02*
X149659523Y-112962628D01*
X149659523Y-112962628D02*
X149621428Y-112991200D01*
X149621428Y-112991200D02*
X149545238Y-113019771D01*
X149545238Y-113019771D02*
X149392857Y-113019771D01*
X149392857Y-113019771D02*
X149316666Y-112991200D01*
X149316666Y-112991200D02*
X149278571Y-112962628D01*
X149278571Y-112962628D02*
X149240476Y-112905485D01*
X149240476Y-112905485D02*
X149240476Y-112791200D01*
X149240476Y-112791200D02*
X149278571Y-112734057D01*
X149278571Y-112734057D02*
X149316666Y-112705485D01*
X149316666Y-112705485D02*
X149392857Y-112676914D01*
X98014285Y-114769771D02*
X98280952Y-114484057D01*
X98471428Y-114769771D02*
X98471428Y-114169771D01*
X98471428Y-114169771D02*
X98166666Y-114169771D01*
X98166666Y-114169771D02*
X98090476Y-114198342D01*
X98090476Y-114198342D02*
X98052381Y-114226914D01*
X98052381Y-114226914D02*
X98014285Y-114284057D01*
X98014285Y-114284057D02*
X98014285Y-114369771D01*
X98014285Y-114369771D02*
X98052381Y-114426914D01*
X98052381Y-114426914D02*
X98090476Y-114455485D01*
X98090476Y-114455485D02*
X98166666Y-114484057D01*
X98166666Y-114484057D02*
X98471428Y-114484057D01*
X97252381Y-114769771D02*
X97709524Y-114769771D01*
X97480952Y-114769771D02*
X97480952Y-114169771D01*
X97480952Y-114169771D02*
X97557143Y-114255485D01*
X97557143Y-114255485D02*
X97633333Y-114312628D01*
X97633333Y-114312628D02*
X97709524Y-114341200D01*
X96528571Y-114169771D02*
X96909523Y-114169771D01*
X96909523Y-114169771D02*
X96947619Y-114455485D01*
X96947619Y-114455485D02*
X96909523Y-114426914D01*
X96909523Y-114426914D02*
X96833333Y-114398342D01*
X96833333Y-114398342D02*
X96642857Y-114398342D01*
X96642857Y-114398342D02*
X96566666Y-114426914D01*
X96566666Y-114426914D02*
X96528571Y-114455485D01*
X96528571Y-114455485D02*
X96490476Y-114512628D01*
X96490476Y-114512628D02*
X96490476Y-114655485D01*
X96490476Y-114655485D02*
X96528571Y-114712628D01*
X96528571Y-114712628D02*
X96566666Y-114741200D01*
X96566666Y-114741200D02*
X96642857Y-114769771D01*
X96642857Y-114769771D02*
X96833333Y-114769771D01*
X96833333Y-114769771D02*
X96909523Y-114741200D01*
X96909523Y-114741200D02*
X96947619Y-114712628D01*
X118359523Y-118669771D02*
X118359523Y-119155485D01*
X118359523Y-119155485D02*
X118321428Y-119212628D01*
X118321428Y-119212628D02*
X118283333Y-119241200D01*
X118283333Y-119241200D02*
X118207142Y-119269771D01*
X118207142Y-119269771D02*
X118054761Y-119269771D01*
X118054761Y-119269771D02*
X117978571Y-119241200D01*
X117978571Y-119241200D02*
X117940476Y-119212628D01*
X117940476Y-119212628D02*
X117902380Y-119155485D01*
X117902380Y-119155485D02*
X117902380Y-118669771D01*
X117597619Y-118669771D02*
X117102381Y-118669771D01*
X117102381Y-118669771D02*
X117369047Y-118898342D01*
X117369047Y-118898342D02*
X117254762Y-118898342D01*
X117254762Y-118898342D02*
X117178571Y-118926914D01*
X117178571Y-118926914D02*
X117140476Y-118955485D01*
X117140476Y-118955485D02*
X117102381Y-119012628D01*
X117102381Y-119012628D02*
X117102381Y-119155485D01*
X117102381Y-119155485D02*
X117140476Y-119212628D01*
X117140476Y-119212628D02*
X117178571Y-119241200D01*
X117178571Y-119241200D02*
X117254762Y-119269771D01*
X117254762Y-119269771D02*
X117483333Y-119269771D01*
X117483333Y-119269771D02*
X117559524Y-119241200D01*
X117559524Y-119241200D02*
X117597619Y-119212628D01*
X125730228Y-120014285D02*
X126015942Y-120280952D01*
X125730228Y-120471428D02*
X126330228Y-120471428D01*
X126330228Y-120471428D02*
X126330228Y-120166666D01*
X126330228Y-120166666D02*
X126301657Y-120090476D01*
X126301657Y-120090476D02*
X126273085Y-120052381D01*
X126273085Y-120052381D02*
X126215942Y-120014285D01*
X126215942Y-120014285D02*
X126130228Y-120014285D01*
X126130228Y-120014285D02*
X126073085Y-120052381D01*
X126073085Y-120052381D02*
X126044514Y-120090476D01*
X126044514Y-120090476D02*
X126015942Y-120166666D01*
X126015942Y-120166666D02*
X126015942Y-120471428D01*
X125730228Y-119252381D02*
X125730228Y-119709524D01*
X125730228Y-119480952D02*
X126330228Y-119480952D01*
X126330228Y-119480952D02*
X126244514Y-119557143D01*
X126244514Y-119557143D02*
X126187371Y-119633333D01*
X126187371Y-119633333D02*
X126158800Y-119709524D01*
X126330228Y-118757142D02*
X126330228Y-118680952D01*
X126330228Y-118680952D02*
X126301657Y-118604761D01*
X126301657Y-118604761D02*
X126273085Y-118566666D01*
X126273085Y-118566666D02*
X126215942Y-118528571D01*
X126215942Y-118528571D02*
X126101657Y-118490476D01*
X126101657Y-118490476D02*
X125958800Y-118490476D01*
X125958800Y-118490476D02*
X125844514Y-118528571D01*
X125844514Y-118528571D02*
X125787371Y-118566666D01*
X125787371Y-118566666D02*
X125758800Y-118604761D01*
X125758800Y-118604761D02*
X125730228Y-118680952D01*
X125730228Y-118680952D02*
X125730228Y-118757142D01*
X125730228Y-118757142D02*
X125758800Y-118833333D01*
X125758800Y-118833333D02*
X125787371Y-118871428D01*
X125787371Y-118871428D02*
X125844514Y-118909523D01*
X125844514Y-118909523D02*
X125958800Y-118947619D01*
X125958800Y-118947619D02*
X126101657Y-118947619D01*
X126101657Y-118947619D02*
X126215942Y-118909523D01*
X126215942Y-118909523D02*
X126273085Y-118871428D01*
X126273085Y-118871428D02*
X126301657Y-118833333D01*
X126301657Y-118833333D02*
X126330228Y-118757142D01*
X106359523Y-104419771D02*
X106359523Y-104905485D01*
X106359523Y-104905485D02*
X106321428Y-104962628D01*
X106321428Y-104962628D02*
X106283333Y-104991200D01*
X106283333Y-104991200D02*
X106207142Y-105019771D01*
X106207142Y-105019771D02*
X106054761Y-105019771D01*
X106054761Y-105019771D02*
X105978571Y-104991200D01*
X105978571Y-104991200D02*
X105940476Y-104962628D01*
X105940476Y-104962628D02*
X105902380Y-104905485D01*
X105902380Y-104905485D02*
X105902380Y-104419771D01*
X105178571Y-104419771D02*
X105330952Y-104419771D01*
X105330952Y-104419771D02*
X105407143Y-104448342D01*
X105407143Y-104448342D02*
X105445238Y-104476914D01*
X105445238Y-104476914D02*
X105521428Y-104562628D01*
X105521428Y-104562628D02*
X105559524Y-104676914D01*
X105559524Y-104676914D02*
X105559524Y-104905485D01*
X105559524Y-104905485D02*
X105521428Y-104962628D01*
X105521428Y-104962628D02*
X105483333Y-104991200D01*
X105483333Y-104991200D02*
X105407143Y-105019771D01*
X105407143Y-105019771D02*
X105254762Y-105019771D01*
X105254762Y-105019771D02*
X105178571Y-104991200D01*
X105178571Y-104991200D02*
X105140476Y-104962628D01*
X105140476Y-104962628D02*
X105102381Y-104905485D01*
X105102381Y-104905485D02*
X105102381Y-104762628D01*
X105102381Y-104762628D02*
X105140476Y-104705485D01*
X105140476Y-104705485D02*
X105178571Y-104676914D01*
X105178571Y-104676914D02*
X105254762Y-104648342D01*
X105254762Y-104648342D02*
X105407143Y-104648342D01*
X105407143Y-104648342D02*
X105483333Y-104676914D01*
X105483333Y-104676914D02*
X105521428Y-104705485D01*
X105521428Y-104705485D02*
X105559524Y-104762628D01*
X135830228Y-118690475D02*
X136430228Y-118690475D01*
X136430228Y-118690475D02*
X136430228Y-118499999D01*
X136430228Y-118499999D02*
X136401657Y-118385713D01*
X136401657Y-118385713D02*
X136344514Y-118309523D01*
X136344514Y-118309523D02*
X136287371Y-118271428D01*
X136287371Y-118271428D02*
X136173085Y-118233332D01*
X136173085Y-118233332D02*
X136087371Y-118233332D01*
X136087371Y-118233332D02*
X135973085Y-118271428D01*
X135973085Y-118271428D02*
X135915942Y-118309523D01*
X135915942Y-118309523D02*
X135858800Y-118385713D01*
X135858800Y-118385713D02*
X135830228Y-118499999D01*
X135830228Y-118499999D02*
X135830228Y-118690475D01*
X136230228Y-117547618D02*
X135830228Y-117547618D01*
X136458800Y-117738094D02*
X136030228Y-117928571D01*
X136030228Y-117928571D02*
X136030228Y-117433332D01*
X146264285Y-108019771D02*
X146530952Y-107734057D01*
X146721428Y-108019771D02*
X146721428Y-107419771D01*
X146721428Y-107419771D02*
X146416666Y-107419771D01*
X146416666Y-107419771D02*
X146340476Y-107448342D01*
X146340476Y-107448342D02*
X146302381Y-107476914D01*
X146302381Y-107476914D02*
X146264285Y-107534057D01*
X146264285Y-107534057D02*
X146264285Y-107619771D01*
X146264285Y-107619771D02*
X146302381Y-107676914D01*
X146302381Y-107676914D02*
X146340476Y-107705485D01*
X146340476Y-107705485D02*
X146416666Y-107734057D01*
X146416666Y-107734057D02*
X146721428Y-107734057D01*
X145502381Y-108019771D02*
X145959524Y-108019771D01*
X145730952Y-108019771D02*
X145730952Y-107419771D01*
X145730952Y-107419771D02*
X145807143Y-107505485D01*
X145807143Y-107505485D02*
X145883333Y-107562628D01*
X145883333Y-107562628D02*
X145959524Y-107591200D01*
X144816666Y-107619771D02*
X144816666Y-108019771D01*
X145007142Y-107391200D02*
X145197619Y-107819771D01*
X145197619Y-107819771D02*
X144702380Y-107819771D01*
X152516666Y-106669771D02*
X152516666Y-107098342D01*
X152516666Y-107098342D02*
X152554761Y-107184057D01*
X152554761Y-107184057D02*
X152630952Y-107241200D01*
X152630952Y-107241200D02*
X152745237Y-107269771D01*
X152745237Y-107269771D02*
X152821428Y-107269771D01*
X152211904Y-106669771D02*
X151716666Y-106669771D01*
X151716666Y-106669771D02*
X151983332Y-106898342D01*
X151983332Y-106898342D02*
X151869047Y-106898342D01*
X151869047Y-106898342D02*
X151792856Y-106926914D01*
X151792856Y-106926914D02*
X151754761Y-106955485D01*
X151754761Y-106955485D02*
X151716666Y-107012628D01*
X151716666Y-107012628D02*
X151716666Y-107155485D01*
X151716666Y-107155485D02*
X151754761Y-107212628D01*
X151754761Y-107212628D02*
X151792856Y-107241200D01*
X151792856Y-107241200D02*
X151869047Y-107269771D01*
X151869047Y-107269771D02*
X152097618Y-107269771D01*
X152097618Y-107269771D02*
X152173809Y-107241200D01*
X152173809Y-107241200D02*
X152211904Y-107212628D01*
X153340475Y-113019771D02*
X153340475Y-112419771D01*
X153340475Y-112419771D02*
X153149999Y-112419771D01*
X153149999Y-112419771D02*
X153035713Y-112448342D01*
X153035713Y-112448342D02*
X152959523Y-112505485D01*
X152959523Y-112505485D02*
X152921428Y-112562628D01*
X152921428Y-112562628D02*
X152883332Y-112676914D01*
X152883332Y-112676914D02*
X152883332Y-112762628D01*
X152883332Y-112762628D02*
X152921428Y-112876914D01*
X152921428Y-112876914D02*
X152959523Y-112934057D01*
X152959523Y-112934057D02*
X153035713Y-112991200D01*
X153035713Y-112991200D02*
X153149999Y-113019771D01*
X153149999Y-113019771D02*
X153340475Y-113019771D01*
X152197618Y-112419771D02*
X152349999Y-112419771D01*
X152349999Y-112419771D02*
X152426190Y-112448342D01*
X152426190Y-112448342D02*
X152464285Y-112476914D01*
X152464285Y-112476914D02*
X152540475Y-112562628D01*
X152540475Y-112562628D02*
X152578571Y-112676914D01*
X152578571Y-112676914D02*
X152578571Y-112905485D01*
X152578571Y-112905485D02*
X152540475Y-112962628D01*
X152540475Y-112962628D02*
X152502380Y-112991200D01*
X152502380Y-112991200D02*
X152426190Y-113019771D01*
X152426190Y-113019771D02*
X152273809Y-113019771D01*
X152273809Y-113019771D02*
X152197618Y-112991200D01*
X152197618Y-112991200D02*
X152159523Y-112962628D01*
X152159523Y-112962628D02*
X152121428Y-112905485D01*
X152121428Y-112905485D02*
X152121428Y-112762628D01*
X152121428Y-112762628D02*
X152159523Y-112705485D01*
X152159523Y-112705485D02*
X152197618Y-112676914D01*
X152197618Y-112676914D02*
X152273809Y-112648342D01*
X152273809Y-112648342D02*
X152426190Y-112648342D01*
X152426190Y-112648342D02*
X152502380Y-112676914D01*
X152502380Y-112676914D02*
X152540475Y-112705485D01*
X152540475Y-112705485D02*
X152578571Y-112762628D01*
X107287371Y-102514285D02*
X107258800Y-102552381D01*
X107258800Y-102552381D02*
X107230228Y-102666666D01*
X107230228Y-102666666D02*
X107230228Y-102742857D01*
X107230228Y-102742857D02*
X107258800Y-102857143D01*
X107258800Y-102857143D02*
X107315942Y-102933333D01*
X107315942Y-102933333D02*
X107373085Y-102971428D01*
X107373085Y-102971428D02*
X107487371Y-103009524D01*
X107487371Y-103009524D02*
X107573085Y-103009524D01*
X107573085Y-103009524D02*
X107687371Y-102971428D01*
X107687371Y-102971428D02*
X107744514Y-102933333D01*
X107744514Y-102933333D02*
X107801657Y-102857143D01*
X107801657Y-102857143D02*
X107830228Y-102742857D01*
X107830228Y-102742857D02*
X107830228Y-102666666D01*
X107830228Y-102666666D02*
X107801657Y-102552381D01*
X107801657Y-102552381D02*
X107773085Y-102514285D01*
X107230228Y-101752381D02*
X107230228Y-102209524D01*
X107230228Y-101980952D02*
X107830228Y-101980952D01*
X107830228Y-101980952D02*
X107744514Y-102057143D01*
X107744514Y-102057143D02*
X107687371Y-102133333D01*
X107687371Y-102133333D02*
X107658800Y-102209524D01*
X107230228Y-100990476D02*
X107230228Y-101447619D01*
X107230228Y-101219047D02*
X107830228Y-101219047D01*
X107830228Y-101219047D02*
X107744514Y-101295238D01*
X107744514Y-101295238D02*
X107687371Y-101371428D01*
X107687371Y-101371428D02*
X107658800Y-101447619D01*
X125787371Y-116133332D02*
X125758800Y-116171428D01*
X125758800Y-116171428D02*
X125730228Y-116285713D01*
X125730228Y-116285713D02*
X125730228Y-116361904D01*
X125730228Y-116361904D02*
X125758800Y-116476190D01*
X125758800Y-116476190D02*
X125815942Y-116552380D01*
X125815942Y-116552380D02*
X125873085Y-116590475D01*
X125873085Y-116590475D02*
X125987371Y-116628571D01*
X125987371Y-116628571D02*
X126073085Y-116628571D01*
X126073085Y-116628571D02*
X126187371Y-116590475D01*
X126187371Y-116590475D02*
X126244514Y-116552380D01*
X126244514Y-116552380D02*
X126301657Y-116476190D01*
X126301657Y-116476190D02*
X126330228Y-116361904D01*
X126330228Y-116361904D02*
X126330228Y-116285713D01*
X126330228Y-116285713D02*
X126301657Y-116171428D01*
X126301657Y-116171428D02*
X126273085Y-116133332D01*
X126130228Y-115447618D02*
X125730228Y-115447618D01*
X126358800Y-115638094D02*
X125930228Y-115828571D01*
X125930228Y-115828571D02*
X125930228Y-115333332D01*
X113383333Y-114019771D02*
X113764285Y-114019771D01*
X113764285Y-114019771D02*
X113764285Y-113419771D01*
X113154762Y-113476914D02*
X113116666Y-113448342D01*
X113116666Y-113448342D02*
X113040476Y-113419771D01*
X113040476Y-113419771D02*
X112850000Y-113419771D01*
X112850000Y-113419771D02*
X112773809Y-113448342D01*
X112773809Y-113448342D02*
X112735714Y-113476914D01*
X112735714Y-113476914D02*
X112697619Y-113534057D01*
X112697619Y-113534057D02*
X112697619Y-113591200D01*
X112697619Y-113591200D02*
X112735714Y-113676914D01*
X112735714Y-113676914D02*
X113192857Y-114019771D01*
X113192857Y-114019771D02*
X112697619Y-114019771D01*
X134466666Y-116669771D02*
X134466666Y-117098342D01*
X134466666Y-117098342D02*
X134504761Y-117184057D01*
X134504761Y-117184057D02*
X134580952Y-117241200D01*
X134580952Y-117241200D02*
X134695237Y-117269771D01*
X134695237Y-117269771D02*
X134771428Y-117269771D01*
X134123809Y-116726914D02*
X134085713Y-116698342D01*
X134085713Y-116698342D02*
X134009523Y-116669771D01*
X134009523Y-116669771D02*
X133819047Y-116669771D01*
X133819047Y-116669771D02*
X133742856Y-116698342D01*
X133742856Y-116698342D02*
X133704761Y-116726914D01*
X133704761Y-116726914D02*
X133666666Y-116784057D01*
X133666666Y-116784057D02*
X133666666Y-116841200D01*
X133666666Y-116841200D02*
X133704761Y-116926914D01*
X133704761Y-116926914D02*
X134161904Y-117269771D01*
X134161904Y-117269771D02*
X133666666Y-117269771D01*
X118383332Y-117712628D02*
X118421428Y-117741200D01*
X118421428Y-117741200D02*
X118535713Y-117769771D01*
X118535713Y-117769771D02*
X118611904Y-117769771D01*
X118611904Y-117769771D02*
X118726190Y-117741200D01*
X118726190Y-117741200D02*
X118802380Y-117684057D01*
X118802380Y-117684057D02*
X118840475Y-117626914D01*
X118840475Y-117626914D02*
X118878571Y-117512628D01*
X118878571Y-117512628D02*
X118878571Y-117426914D01*
X118878571Y-117426914D02*
X118840475Y-117312628D01*
X118840475Y-117312628D02*
X118802380Y-117255485D01*
X118802380Y-117255485D02*
X118726190Y-117198342D01*
X118726190Y-117198342D02*
X118611904Y-117169771D01*
X118611904Y-117169771D02*
X118535713Y-117169771D01*
X118535713Y-117169771D02*
X118421428Y-117198342D01*
X118421428Y-117198342D02*
X118383332Y-117226914D01*
X118116666Y-117169771D02*
X117583332Y-117169771D01*
X117583332Y-117169771D02*
X117926190Y-117769771D01*
X150764285Y-101519771D02*
X151030952Y-101234057D01*
X151221428Y-101519771D02*
X151221428Y-100919771D01*
X151221428Y-100919771D02*
X150916666Y-100919771D01*
X150916666Y-100919771D02*
X150840476Y-100948342D01*
X150840476Y-100948342D02*
X150802381Y-100976914D01*
X150802381Y-100976914D02*
X150764285Y-101034057D01*
X150764285Y-101034057D02*
X150764285Y-101119771D01*
X150764285Y-101119771D02*
X150802381Y-101176914D01*
X150802381Y-101176914D02*
X150840476Y-101205485D01*
X150840476Y-101205485D02*
X150916666Y-101234057D01*
X150916666Y-101234057D02*
X151221428Y-101234057D01*
X150002381Y-101519771D02*
X150459524Y-101519771D01*
X150230952Y-101519771D02*
X150230952Y-100919771D01*
X150230952Y-100919771D02*
X150307143Y-101005485D01*
X150307143Y-101005485D02*
X150383333Y-101062628D01*
X150383333Y-101062628D02*
X150459524Y-101091200D01*
X149621428Y-101519771D02*
X149469047Y-101519771D01*
X149469047Y-101519771D02*
X149392857Y-101491200D01*
X149392857Y-101491200D02*
X149354761Y-101462628D01*
X149354761Y-101462628D02*
X149278571Y-101376914D01*
X149278571Y-101376914D02*
X149240476Y-101262628D01*
X149240476Y-101262628D02*
X149240476Y-101034057D01*
X149240476Y-101034057D02*
X149278571Y-100976914D01*
X149278571Y-100976914D02*
X149316666Y-100948342D01*
X149316666Y-100948342D02*
X149392857Y-100919771D01*
X149392857Y-100919771D02*
X149545238Y-100919771D01*
X149545238Y-100919771D02*
X149621428Y-100948342D01*
X149621428Y-100948342D02*
X149659523Y-100976914D01*
X149659523Y-100976914D02*
X149697619Y-101034057D01*
X149697619Y-101034057D02*
X149697619Y-101176914D01*
X149697619Y-101176914D02*
X149659523Y-101234057D01*
X149659523Y-101234057D02*
X149621428Y-101262628D01*
X149621428Y-101262628D02*
X149545238Y-101291200D01*
X149545238Y-101291200D02*
X149392857Y-101291200D01*
X149392857Y-101291200D02*
X149316666Y-101262628D01*
X149316666Y-101262628D02*
X149278571Y-101234057D01*
X149278571Y-101234057D02*
X149240476Y-101176914D01*
X137633332Y-111469771D02*
X137899999Y-111184057D01*
X138090475Y-111469771D02*
X138090475Y-110869771D01*
X138090475Y-110869771D02*
X137785713Y-110869771D01*
X137785713Y-110869771D02*
X137709523Y-110898342D01*
X137709523Y-110898342D02*
X137671428Y-110926914D01*
X137671428Y-110926914D02*
X137633332Y-110984057D01*
X137633332Y-110984057D02*
X137633332Y-111069771D01*
X137633332Y-111069771D02*
X137671428Y-111126914D01*
X137671428Y-111126914D02*
X137709523Y-111155485D01*
X137709523Y-111155485D02*
X137785713Y-111184057D01*
X137785713Y-111184057D02*
X138090475Y-111184057D01*
X136947618Y-111069771D02*
X136947618Y-111469771D01*
X137138094Y-110841200D02*
X137328571Y-111269771D01*
X137328571Y-111269771D02*
X136833332Y-111269771D01*
X98316667Y-103991200D02*
X98202381Y-104019771D01*
X98202381Y-104019771D02*
X98011905Y-104019771D01*
X98011905Y-104019771D02*
X97935714Y-103991200D01*
X97935714Y-103991200D02*
X97897619Y-103962628D01*
X97897619Y-103962628D02*
X97859524Y-103905485D01*
X97859524Y-103905485D02*
X97859524Y-103848342D01*
X97859524Y-103848342D02*
X97897619Y-103791200D01*
X97897619Y-103791200D02*
X97935714Y-103762628D01*
X97935714Y-103762628D02*
X98011905Y-103734057D01*
X98011905Y-103734057D02*
X98164286Y-103705485D01*
X98164286Y-103705485D02*
X98240476Y-103676914D01*
X98240476Y-103676914D02*
X98278571Y-103648342D01*
X98278571Y-103648342D02*
X98316667Y-103591200D01*
X98316667Y-103591200D02*
X98316667Y-103534057D01*
X98316667Y-103534057D02*
X98278571Y-103476914D01*
X98278571Y-103476914D02*
X98240476Y-103448342D01*
X98240476Y-103448342D02*
X98164286Y-103419771D01*
X98164286Y-103419771D02*
X97973809Y-103419771D01*
X97973809Y-103419771D02*
X97859524Y-103448342D01*
X97592857Y-103419771D02*
X97402381Y-104019771D01*
X97402381Y-104019771D02*
X97250000Y-103591200D01*
X97250000Y-103591200D02*
X97097619Y-104019771D01*
X97097619Y-104019771D02*
X96907143Y-103419771D01*
X96183333Y-104019771D02*
X96640476Y-104019771D01*
X96411904Y-104019771D02*
X96411904Y-103419771D01*
X96411904Y-103419771D02*
X96488095Y-103505485D01*
X96488095Y-103505485D02*
X96564285Y-103562628D01*
X96564285Y-103562628D02*
X96640476Y-103591200D01*
D11*
%TO.C,J4*%
X98892000Y-98274000D02*
X97876000Y-97258000D01*
X149184000Y-98274000D02*
X98892000Y-98274000D01*
X97876000Y-92686000D02*
X97876000Y-97258000D01*
X97876000Y-92686000D02*
X149184000Y-92686000D01*
X149184000Y-92686000D02*
X149184000Y-98274000D01*
%TO.C,U2*%
X120450000Y-114075000D02*
X120250000Y-114075000D01*
X120450000Y-114075000D02*
X120450000Y-114200000D01*
X120450000Y-114200000D02*
X122100000Y-114200000D01*
X121900000Y-111800000D02*
X120600000Y-111800000D01*
X122100000Y-114200000D02*
X122100000Y-114075000D01*
%TO.C,C2*%
X127265000Y-109261252D02*
X127265000Y-108738748D01*
X128735000Y-109261252D02*
X128735000Y-108738748D01*
%TO.C,L1*%
X133450000Y-99350000D02*
X132250000Y-99350000D01*
X133450000Y-99350000D02*
X133450000Y-100750000D01*
X127050000Y-99350000D02*
X128250000Y-99350000D01*
X127050000Y-99350000D02*
X127050000Y-100750000D01*
X133450000Y-106150000D02*
X133450000Y-104750000D01*
X133450000Y-106150000D02*
X132250000Y-106150000D01*
X127050000Y-106150000D02*
X127050000Y-104750000D01*
X127050000Y-106150000D02*
X128250000Y-106150000D01*
%TO.C,D5*%
X138940000Y-121685000D02*
X138940000Y-119000000D01*
X140860000Y-121685000D02*
X138940000Y-121685000D01*
X140860000Y-119000000D02*
X140860000Y-121685000D01*
%TO.C,R5*%
X99227064Y-101485000D02*
X98772936Y-101485000D01*
X99227064Y-100015000D02*
X98772936Y-100015000D01*
%TO.C,U1*%
X137500000Y-106610000D02*
X139000000Y-106610000D01*
X137500000Y-106610000D02*
X136000000Y-106610000D01*
X137500000Y-102390000D02*
X140375000Y-102390000D01*
X137500000Y-102390000D02*
X136000000Y-102390000D01*
%TO.C,RV1*%
X142950000Y-99950000D02*
X143510000Y-99950000D01*
X142950000Y-103550000D02*
X142950000Y-99950000D01*
X144550000Y-103550000D02*
X144950000Y-103550000D01*
X145950000Y-99950000D02*
X146555000Y-99950000D01*
X146550000Y-103550000D02*
X146555000Y-99950000D01*
%TO.C,C3*%
X125288748Y-111390000D02*
X126711252Y-111390000D01*
X125288748Y-114110000D02*
X126711252Y-114110000D01*
%TO.C,R12*%
X139227064Y-113285000D02*
X138772936Y-113285000D01*
X139227064Y-111815000D02*
X138772936Y-111815000D01*
%TO.C,REF\u002A\u002A*%
D12*
X99537128Y-119453945D02*
X99567954Y-119463568D01*
X99605916Y-119479563D01*
X99624296Y-119488159D01*
X99637561Y-119489713D01*
X99640495Y-119477798D01*
X99640498Y-119477461D01*
X99646709Y-119466087D01*
X99668131Y-119460256D01*
X99709653Y-119458614D01*
X99778812Y-119458614D01*
X99778812Y-120062179D01*
X99640495Y-120062179D01*
X99640495Y-119646027D01*
X99606110Y-119614161D01*
X99595368Y-119605104D01*
X99563370Y-119589630D01*
X99523965Y-119589010D01*
X99470312Y-119602664D01*
X99452225Y-119603529D01*
X99431008Y-119590283D01*
X99402768Y-119558800D01*
X99389069Y-119541385D01*
X99372868Y-119516797D01*
X99370371Y-119501145D01*
X99379442Y-119487941D01*
X99407289Y-119471245D01*
X99450540Y-119458030D01*
X99497464Y-119451478D01*
X99537128Y-119453945D01*
G36*
X99537128Y-119453945D02*
G01*
X99567954Y-119463568D01*
X99605916Y-119479563D01*
X99624296Y-119488159D01*
X99637561Y-119489713D01*
X99640495Y-119477798D01*
X99640498Y-119477461D01*
X99646709Y-119466087D01*
X99668131Y-119460256D01*
X99709653Y-119458614D01*
X99778812Y-119458614D01*
X99778812Y-120062179D01*
X99640495Y-120062179D01*
X99640495Y-119646027D01*
X99606110Y-119614161D01*
X99595368Y-119605104D01*
X99563370Y-119589630D01*
X99523965Y-119589010D01*
X99470312Y-119602664D01*
X99452225Y-119603529D01*
X99431008Y-119590283D01*
X99402768Y-119558800D01*
X99389069Y-119541385D01*
X99372868Y-119516797D01*
X99370371Y-119501145D01*
X99379442Y-119487941D01*
X99407289Y-119471245D01*
X99450540Y-119458030D01*
X99497464Y-119451478D01*
X99537128Y-119453945D01*
G37*
X99720265Y-120409965D02*
X99758255Y-120427745D01*
X99791386Y-120453806D01*
X99791386Y-120427745D01*
X99792211Y-120417849D01*
X99799893Y-120407358D01*
X99820667Y-120402725D01*
X99860544Y-120401683D01*
X99929703Y-120401683D01*
X99929703Y-121017822D01*
X99791386Y-121017822D01*
X99791386Y-120817226D01*
X99791369Y-120805710D01*
X99790189Y-120724758D01*
X99787294Y-120658817D01*
X99782888Y-120611258D01*
X99777181Y-120585452D01*
X99771940Y-120575710D01*
X99739676Y-120545156D01*
X99695730Y-120531631D01*
X99647743Y-120537941D01*
X99635973Y-120542217D01*
X99610898Y-120549776D01*
X99593762Y-120547428D01*
X99576518Y-120532064D01*
X99551124Y-120500571D01*
X99509936Y-120448568D01*
X99538886Y-120425125D01*
X99566405Y-120411015D01*
X99614745Y-120401486D01*
X99669230Y-120401174D01*
X99720265Y-120409965D01*
G36*
X99720265Y-120409965D02*
G01*
X99758255Y-120427745D01*
X99791386Y-120453806D01*
X99791386Y-120427745D01*
X99792211Y-120417849D01*
X99799893Y-120407358D01*
X99820667Y-120402725D01*
X99860544Y-120401683D01*
X99929703Y-120401683D01*
X99929703Y-121017822D01*
X99791386Y-121017822D01*
X99791386Y-120817226D01*
X99791369Y-120805710D01*
X99790189Y-120724758D01*
X99787294Y-120658817D01*
X99782888Y-120611258D01*
X99777181Y-120585452D01*
X99771940Y-120575710D01*
X99739676Y-120545156D01*
X99695730Y-120531631D01*
X99647743Y-120537941D01*
X99635973Y-120542217D01*
X99610898Y-120549776D01*
X99593762Y-120547428D01*
X99576518Y-120532064D01*
X99551124Y-120500571D01*
X99509936Y-120448568D01*
X99538886Y-120425125D01*
X99566405Y-120411015D01*
X99614745Y-120401486D01*
X99669230Y-120401174D01*
X99720265Y-120409965D01*
G37*
X102343960Y-121017822D02*
X102218218Y-121017822D01*
X102218218Y-120823740D01*
X102218078Y-120778594D01*
X102216649Y-120703823D01*
X102213029Y-120648467D01*
X102206434Y-120608702D01*
X102196079Y-120580700D01*
X102181178Y-120560635D01*
X102160946Y-120544681D01*
X102138859Y-120532792D01*
X102112705Y-120529421D01*
X102075508Y-120536917D01*
X102063555Y-120540038D01*
X102033718Y-120544735D01*
X102012383Y-120538005D01*
X101987655Y-120517177D01*
X101982963Y-120512647D01*
X101957020Y-120484626D01*
X101940291Y-120461843D01*
X101937996Y-120456355D01*
X101942543Y-120436088D01*
X101965602Y-120419884D01*
X102001995Y-120408513D01*
X102046544Y-120402740D01*
X102094072Y-120403334D01*
X102139400Y-120411063D01*
X102177351Y-120426694D01*
X102189381Y-120433993D01*
X102209632Y-120444676D01*
X102217129Y-120442230D01*
X102218218Y-120426647D01*
X102218473Y-120421053D01*
X102224539Y-120408660D01*
X102243356Y-120403020D01*
X102281089Y-120401683D01*
X102343960Y-120401683D01*
X102343960Y-121017822D01*
G36*
X102343960Y-121017822D02*
G01*
X102218218Y-121017822D01*
X102218218Y-120823740D01*
X102218078Y-120778594D01*
X102216649Y-120703823D01*
X102213029Y-120648467D01*
X102206434Y-120608702D01*
X102196079Y-120580700D01*
X102181178Y-120560635D01*
X102160946Y-120544681D01*
X102138859Y-120532792D01*
X102112705Y-120529421D01*
X102075508Y-120536917D01*
X102063555Y-120540038D01*
X102033718Y-120544735D01*
X102012383Y-120538005D01*
X101987655Y-120517177D01*
X101982963Y-120512647D01*
X101957020Y-120484626D01*
X101940291Y-120461843D01*
X101937996Y-120456355D01*
X101942543Y-120436088D01*
X101965602Y-120419884D01*
X102001995Y-120408513D01*
X102046544Y-120402740D01*
X102094072Y-120403334D01*
X102139400Y-120411063D01*
X102177351Y-120426694D01*
X102189381Y-120433993D01*
X102209632Y-120444676D01*
X102217129Y-120442230D01*
X102218218Y-120426647D01*
X102218473Y-120421053D01*
X102224539Y-120408660D01*
X102243356Y-120403020D01*
X102281089Y-120401683D01*
X102343960Y-120401683D01*
X102343960Y-121017822D01*
G37*
X100030297Y-119654342D02*
X100031357Y-119742394D01*
X100035509Y-119813510D01*
X100043921Y-119865199D01*
X100057757Y-119900360D01*
X100078182Y-119921889D01*
X100106364Y-119932682D01*
X100143465Y-119935636D01*
X100178890Y-119933000D01*
X100207500Y-119922679D01*
X100228296Y-119901772D01*
X100242442Y-119867381D01*
X100251103Y-119816610D01*
X100255445Y-119746563D01*
X100256633Y-119654342D01*
X100256633Y-119458614D01*
X100382376Y-119458614D01*
X100382376Y-119694578D01*
X100382160Y-119757561D01*
X100380484Y-119839007D01*
X100376277Y-119901121D01*
X100368521Y-119947458D01*
X100356196Y-119981573D01*
X100338285Y-120007022D01*
X100313767Y-120027362D01*
X100281623Y-120046147D01*
X100214125Y-120069928D01*
X100143681Y-120071480D01*
X100077264Y-120049580D01*
X100048286Y-120035383D01*
X100033909Y-120033261D01*
X100030297Y-120043293D01*
X100024299Y-120054556D01*
X100002830Y-120060489D01*
X99961138Y-120062179D01*
X99891980Y-120062179D01*
X99891980Y-119458614D01*
X100030297Y-119458614D01*
X100030297Y-119654342D01*
G36*
X100030297Y-119654342D02*
G01*
X100031357Y-119742394D01*
X100035509Y-119813510D01*
X100043921Y-119865199D01*
X100057757Y-119900360D01*
X100078182Y-119921889D01*
X100106364Y-119932682D01*
X100143465Y-119935636D01*
X100178890Y-119933000D01*
X100207500Y-119922679D01*
X100228296Y-119901772D01*
X100242442Y-119867381D01*
X100251103Y-119816610D01*
X100255445Y-119746563D01*
X100256633Y-119654342D01*
X100256633Y-119458614D01*
X100382376Y-119458614D01*
X100382376Y-119694578D01*
X100382160Y-119757561D01*
X100380484Y-119839007D01*
X100376277Y-119901121D01*
X100368521Y-119947458D01*
X100356196Y-119981573D01*
X100338285Y-120007022D01*
X100313767Y-120027362D01*
X100281623Y-120046147D01*
X100214125Y-120069928D01*
X100143681Y-120071480D01*
X100077264Y-120049580D01*
X100048286Y-120035383D01*
X100033909Y-120033261D01*
X100030297Y-120043293D01*
X100024299Y-120054556D01*
X100002830Y-120060489D01*
X99961138Y-120062179D01*
X99891980Y-120062179D01*
X99891980Y-119458614D01*
X100030297Y-119458614D01*
X100030297Y-119654342D01*
G37*
X102132605Y-119457424D02*
X102189926Y-119475434D01*
X102215199Y-119487674D01*
X102227910Y-119488938D01*
X102230792Y-119477798D01*
X102230795Y-119477461D01*
X102237006Y-119466087D01*
X102258428Y-119460256D01*
X102299950Y-119458614D01*
X102369109Y-119458614D01*
X102369109Y-120062179D01*
X102230792Y-120062179D01*
X102230792Y-119854132D01*
X102230697Y-119783879D01*
X102230051Y-119726170D01*
X102228320Y-119685787D01*
X102224974Y-119658615D01*
X102219481Y-119640540D01*
X102211310Y-119627447D01*
X102199928Y-119615221D01*
X102184424Y-119602217D01*
X102139843Y-119584745D01*
X102093047Y-119589873D01*
X102050180Y-119617507D01*
X102037927Y-119630368D01*
X102029132Y-119643384D01*
X102023233Y-119660706D01*
X102019651Y-119686501D01*
X102017809Y-119724939D01*
X102017128Y-119780189D01*
X102017030Y-119856418D01*
X102017030Y-120062179D01*
X101878713Y-120062179D01*
X101878989Y-119838985D01*
X101879008Y-119829044D01*
X101880207Y-119734106D01*
X101883891Y-119660358D01*
X101891006Y-119604214D01*
X101902500Y-119562087D01*
X101919318Y-119530391D01*
X101942409Y-119505541D01*
X101972717Y-119483950D01*
X102004012Y-119469002D01*
X102067037Y-119455421D01*
X102132605Y-119457424D01*
G36*
X102132605Y-119457424D02*
G01*
X102189926Y-119475434D01*
X102215199Y-119487674D01*
X102227910Y-119488938D01*
X102230792Y-119477798D01*
X102230795Y-119477461D01*
X102237006Y-119466087D01*
X102258428Y-119460256D01*
X102299950Y-119458614D01*
X102369109Y-119458614D01*
X102369109Y-120062179D01*
X102230792Y-120062179D01*
X102230792Y-119854132D01*
X102230697Y-119783879D01*
X102230051Y-119726170D01*
X102228320Y-119685787D01*
X102224974Y-119658615D01*
X102219481Y-119640540D01*
X102211310Y-119627447D01*
X102199928Y-119615221D01*
X102184424Y-119602217D01*
X102139843Y-119584745D01*
X102093047Y-119589873D01*
X102050180Y-119617507D01*
X102037927Y-119630368D01*
X102029132Y-119643384D01*
X102023233Y-119660706D01*
X102019651Y-119686501D01*
X102017809Y-119724939D01*
X102017128Y-119780189D01*
X102017030Y-119856418D01*
X102017030Y-120062179D01*
X101878713Y-120062179D01*
X101878989Y-119838985D01*
X101879008Y-119829044D01*
X101880207Y-119734106D01*
X101883891Y-119660358D01*
X101891006Y-119604214D01*
X101902500Y-119562087D01*
X101919318Y-119530391D01*
X101942409Y-119505541D01*
X101972717Y-119483950D01*
X102004012Y-119469002D01*
X102067037Y-119455421D01*
X102132605Y-119457424D01*
G37*
X99183409Y-119461493D02*
X99252021Y-119488224D01*
X99310048Y-119532351D01*
X99352907Y-119592958D01*
X99355801Y-119599137D01*
X99374176Y-119659409D01*
X99383357Y-119731407D01*
X99383285Y-119806369D01*
X99373901Y-119875536D01*
X99355149Y-119930149D01*
X99331995Y-119968212D01*
X99281030Y-120022135D01*
X99217306Y-120056411D01*
X99162785Y-120070272D01*
X99079767Y-120071785D01*
X99000326Y-120050882D01*
X98929879Y-120008464D01*
X98884284Y-119970880D01*
X98925351Y-119928510D01*
X98951296Y-119903409D01*
X98974764Y-119889434D01*
X98996524Y-119892511D01*
X99024356Y-119911287D01*
X99035454Y-119918638D01*
X99082337Y-119933683D01*
X99136224Y-119933673D01*
X99186675Y-119918168D01*
X99205672Y-119905716D01*
X99233537Y-119868946D01*
X99247506Y-119814939D01*
X99248405Y-119741331D01*
X99248403Y-119741289D01*
X99238009Y-119675433D01*
X99215114Y-119629772D01*
X99177439Y-119601528D01*
X99122708Y-119587920D01*
X99088241Y-119586090D01*
X99058126Y-119593584D01*
X99027240Y-119615295D01*
X98987272Y-119648926D01*
X98936656Y-119608250D01*
X98918163Y-119592667D01*
X98895065Y-119570340D01*
X98886039Y-119557183D01*
X98889236Y-119551253D01*
X98907646Y-119533048D01*
X98936973Y-119509895D01*
X98959920Y-119494830D01*
X99032774Y-119463880D01*
X99108799Y-119453073D01*
X99183409Y-119461493D01*
G36*
X99183409Y-119461493D02*
G01*
X99252021Y-119488224D01*
X99310048Y-119532351D01*
X99352907Y-119592958D01*
X99355801Y-119599137D01*
X99374176Y-119659409D01*
X99383357Y-119731407D01*
X99383285Y-119806369D01*
X99373901Y-119875536D01*
X99355149Y-119930149D01*
X99331995Y-119968212D01*
X99281030Y-120022135D01*
X99217306Y-120056411D01*
X99162785Y-120070272D01*
X99079767Y-120071785D01*
X99000326Y-120050882D01*
X98929879Y-120008464D01*
X98884284Y-119970880D01*
X98925351Y-119928510D01*
X98951296Y-119903409D01*
X98974764Y-119889434D01*
X98996524Y-119892511D01*
X99024356Y-119911287D01*
X99035454Y-119918638D01*
X99082337Y-119933683D01*
X99136224Y-119933673D01*
X99186675Y-119918168D01*
X99205672Y-119905716D01*
X99233537Y-119868946D01*
X99247506Y-119814939D01*
X99248405Y-119741331D01*
X99248403Y-119741289D01*
X99238009Y-119675433D01*
X99215114Y-119629772D01*
X99177439Y-119601528D01*
X99122708Y-119587920D01*
X99088241Y-119586090D01*
X99058126Y-119593584D01*
X99027240Y-119615295D01*
X98987272Y-119648926D01*
X98936656Y-119608250D01*
X98918163Y-119592667D01*
X98895065Y-119570340D01*
X98886039Y-119557183D01*
X98889236Y-119551253D01*
X98907646Y-119533048D01*
X98936973Y-119509895D01*
X98959920Y-119494830D01*
X99032774Y-119463880D01*
X99108799Y-119453073D01*
X99183409Y-119461493D01*
G37*
X100982857Y-119803771D02*
X100979349Y-119843565D01*
X100963844Y-119919538D01*
X100936110Y-119977511D01*
X100893898Y-120021300D01*
X100834960Y-120054722D01*
X100812076Y-120062676D01*
X100752812Y-120072601D01*
X100690447Y-120072331D01*
X100637823Y-120061430D01*
X100636789Y-120061034D01*
X100594381Y-120036087D01*
X100551537Y-119997468D01*
X100515986Y-119953306D01*
X100495459Y-119911727D01*
X100489374Y-119881334D01*
X100484164Y-119824429D01*
X100483291Y-119773705D01*
X100609976Y-119773705D01*
X100617549Y-119834545D01*
X100635341Y-119884538D01*
X100662296Y-119917204D01*
X100672513Y-119922812D01*
X100711473Y-119933007D01*
X100756536Y-119935104D01*
X100794448Y-119928020D01*
X100809244Y-119917861D01*
X100830014Y-119882334D01*
X100843083Y-119826732D01*
X100847624Y-119753766D01*
X100847551Y-119732762D01*
X100845974Y-119690203D01*
X100840728Y-119662439D01*
X100829723Y-119641925D01*
X100810868Y-119621112D01*
X100774989Y-119595887D01*
X100728280Y-119585573D01*
X100683151Y-119595396D01*
X100645680Y-119623805D01*
X100621943Y-119669253D01*
X100613675Y-119708497D01*
X100609976Y-119773705D01*
X100483291Y-119773705D01*
X100483049Y-119759621D01*
X100485844Y-119695116D01*
X100492366Y-119639121D01*
X100502432Y-119599842D01*
X100525877Y-119555372D01*
X100575637Y-119500692D01*
X100639238Y-119466055D01*
X100714790Y-119452345D01*
X100800399Y-119460448D01*
X100814644Y-119463899D01*
X100880982Y-119493664D01*
X100930971Y-119542530D01*
X100964612Y-119610501D01*
X100981906Y-119697580D01*
X100982410Y-119753766D01*
X100982857Y-119803771D01*
G36*
X100982857Y-119803771D02*
G01*
X100979349Y-119843565D01*
X100963844Y-119919538D01*
X100936110Y-119977511D01*
X100893898Y-120021300D01*
X100834960Y-120054722D01*
X100812076Y-120062676D01*
X100752812Y-120072601D01*
X100690447Y-120072331D01*
X100637823Y-120061430D01*
X100636789Y-120061034D01*
X100594381Y-120036087D01*
X100551537Y-119997468D01*
X100515986Y-119953306D01*
X100495459Y-119911727D01*
X100489374Y-119881334D01*
X100484164Y-119824429D01*
X100483291Y-119773705D01*
X100609976Y-119773705D01*
X100617549Y-119834545D01*
X100635341Y-119884538D01*
X100662296Y-119917204D01*
X100672513Y-119922812D01*
X100711473Y-119933007D01*
X100756536Y-119935104D01*
X100794448Y-119928020D01*
X100809244Y-119917861D01*
X100830014Y-119882334D01*
X100843083Y-119826732D01*
X100847624Y-119753766D01*
X100847551Y-119732762D01*
X100845974Y-119690203D01*
X100840728Y-119662439D01*
X100829723Y-119641925D01*
X100810868Y-119621112D01*
X100774989Y-119595887D01*
X100728280Y-119585573D01*
X100683151Y-119595396D01*
X100645680Y-119623805D01*
X100621943Y-119669253D01*
X100613675Y-119708497D01*
X100609976Y-119773705D01*
X100483291Y-119773705D01*
X100483049Y-119759621D01*
X100485844Y-119695116D01*
X100492366Y-119639121D01*
X100502432Y-119599842D01*
X100525877Y-119555372D01*
X100575637Y-119500692D01*
X100639238Y-119466055D01*
X100714790Y-119452345D01*
X100800399Y-119460448D01*
X100814644Y-119463899D01*
X100880982Y-119493664D01*
X100930971Y-119542530D01*
X100964612Y-119610501D01*
X100981906Y-119697580D01*
X100982410Y-119753766D01*
X100982857Y-119803771D01*
G37*
X101082997Y-120599130D02*
X101099997Y-120649850D01*
X101120107Y-120705997D01*
X101136899Y-120748532D01*
X101148986Y-120773990D01*
X101154980Y-120778903D01*
X101156426Y-120774630D01*
X101164254Y-120748422D01*
X101176723Y-120704649D01*
X101192447Y-120648211D01*
X101210043Y-120584010D01*
X101257914Y-120407971D01*
X101331007Y-120404152D01*
X101337177Y-120403846D01*
X101376592Y-120403441D01*
X101395533Y-120407487D01*
X101397945Y-120416726D01*
X101394898Y-120425749D01*
X101384874Y-120456632D01*
X101369180Y-120505544D01*
X101348934Y-120568987D01*
X101325256Y-120643462D01*
X101299263Y-120725471D01*
X101206736Y-121017822D01*
X101090993Y-121017822D01*
X101036457Y-120832352D01*
X101026386Y-120798294D01*
X101007775Y-120736378D01*
X100991872Y-120684787D01*
X100980109Y-120648130D01*
X100973918Y-120631018D01*
X100972154Y-120629741D01*
X100963571Y-120640779D01*
X100951316Y-120669969D01*
X100937426Y-120712750D01*
X100936692Y-120715263D01*
X100918096Y-120778400D01*
X100896818Y-120849889D01*
X100877321Y-120914734D01*
X100845705Y-121019122D01*
X100787402Y-121015328D01*
X100729098Y-121011535D01*
X100675098Y-120841782D01*
X100651390Y-120767193D01*
X100624833Y-120683539D01*
X100599404Y-120603342D01*
X100578354Y-120536857D01*
X100535609Y-120401683D01*
X100678612Y-120401683D01*
X100713274Y-120530570D01*
X100722488Y-120564625D01*
X100739915Y-120628115D01*
X100756054Y-120685874D01*
X100768322Y-120728614D01*
X100788709Y-120797773D01*
X100918745Y-120407971D01*
X100968476Y-120404237D01*
X101018206Y-120400504D01*
X101082997Y-120599130D01*
G36*
X101082997Y-120599130D02*
G01*
X101099997Y-120649850D01*
X101120107Y-120705997D01*
X101136899Y-120748532D01*
X101148986Y-120773990D01*
X101154980Y-120778903D01*
X101156426Y-120774630D01*
X101164254Y-120748422D01*
X101176723Y-120704649D01*
X101192447Y-120648211D01*
X101210043Y-120584010D01*
X101257914Y-120407971D01*
X101331007Y-120404152D01*
X101337177Y-120403846D01*
X101376592Y-120403441D01*
X101395533Y-120407487D01*
X101397945Y-120416726D01*
X101394898Y-120425749D01*
X101384874Y-120456632D01*
X101369180Y-120505544D01*
X101348934Y-120568987D01*
X101325256Y-120643462D01*
X101299263Y-120725471D01*
X101206736Y-121017822D01*
X101090993Y-121017822D01*
X101036457Y-120832352D01*
X101026386Y-120798294D01*
X101007775Y-120736378D01*
X100991872Y-120684787D01*
X100980109Y-120648130D01*
X100973918Y-120631018D01*
X100972154Y-120629741D01*
X100963571Y-120640779D01*
X100951316Y-120669969D01*
X100937426Y-120712750D01*
X100936692Y-120715263D01*
X100918096Y-120778400D01*
X100896818Y-120849889D01*
X100877321Y-120914734D01*
X100845705Y-121019122D01*
X100787402Y-121015328D01*
X100729098Y-121011535D01*
X100675098Y-120841782D01*
X100651390Y-120767193D01*
X100624833Y-120683539D01*
X100599404Y-120603342D01*
X100578354Y-120536857D01*
X100535609Y-120401683D01*
X100678612Y-120401683D01*
X100713274Y-120530570D01*
X100722488Y-120564625D01*
X100739915Y-120628115D01*
X100756054Y-120685874D01*
X100768322Y-120728614D01*
X100788709Y-120797773D01*
X100918745Y-120407971D01*
X100968476Y-120404237D01*
X101018206Y-120400504D01*
X101082997Y-120599130D01*
G37*
X104114997Y-119794931D02*
X104113373Y-119834310D01*
X104109688Y-119882332D01*
X104103410Y-119916368D01*
X104093044Y-119943338D01*
X104077092Y-119970158D01*
X104076412Y-119971175D01*
X104037132Y-120014629D01*
X103989072Y-120047772D01*
X103933185Y-120067439D01*
X103859666Y-120073824D01*
X103787609Y-120061268D01*
X103723201Y-120031011D01*
X103672627Y-119984294D01*
X103658108Y-119962221D01*
X103630993Y-119893602D01*
X103617546Y-119808939D01*
X103617776Y-119787523D01*
X103752920Y-119787523D01*
X103753174Y-119827574D01*
X103757421Y-119854313D01*
X103767096Y-119874859D01*
X103783638Y-119896331D01*
X103806593Y-119917639D01*
X103852505Y-119936653D01*
X103901802Y-119933122D01*
X103948917Y-119906694D01*
X103962207Y-119894072D01*
X103976397Y-119872465D01*
X103984266Y-119842094D01*
X103988726Y-119794770D01*
X103989955Y-119759219D01*
X103983224Y-119686620D01*
X103962567Y-119634642D01*
X103927894Y-119602999D01*
X103887249Y-119587847D01*
X103838777Y-119589123D01*
X103793845Y-119614703D01*
X103783103Y-119624442D01*
X103769548Y-119641480D01*
X103761505Y-119663772D01*
X103757043Y-119697947D01*
X103754228Y-119750638D01*
X103752920Y-119787523D01*
X103617776Y-119787523D01*
X103618583Y-119712351D01*
X103619907Y-119698651D01*
X103638374Y-119610908D01*
X103672540Y-119542793D01*
X103722479Y-119494231D01*
X103788261Y-119465148D01*
X103869961Y-119455471D01*
X103900828Y-119456379D01*
X103964128Y-119467493D01*
X104015889Y-119494021D01*
X104064147Y-119539436D01*
X104071865Y-119548551D01*
X104092681Y-119579248D01*
X104106362Y-119614007D01*
X104113948Y-119658056D01*
X104116479Y-119716621D01*
X104115672Y-119759219D01*
X104114997Y-119794931D01*
G36*
X104114997Y-119794931D02*
G01*
X104113373Y-119834310D01*
X104109688Y-119882332D01*
X104103410Y-119916368D01*
X104093044Y-119943338D01*
X104077092Y-119970158D01*
X104076412Y-119971175D01*
X104037132Y-120014629D01*
X103989072Y-120047772D01*
X103933185Y-120067439D01*
X103859666Y-120073824D01*
X103787609Y-120061268D01*
X103723201Y-120031011D01*
X103672627Y-119984294D01*
X103658108Y-119962221D01*
X103630993Y-119893602D01*
X103617546Y-119808939D01*
X103617776Y-119787523D01*
X103752920Y-119787523D01*
X103753174Y-119827574D01*
X103757421Y-119854313D01*
X103767096Y-119874859D01*
X103783638Y-119896331D01*
X103806593Y-119917639D01*
X103852505Y-119936653D01*
X103901802Y-119933122D01*
X103948917Y-119906694D01*
X103962207Y-119894072D01*
X103976397Y-119872465D01*
X103984266Y-119842094D01*
X103988726Y-119794770D01*
X103989955Y-119759219D01*
X103983224Y-119686620D01*
X103962567Y-119634642D01*
X103927894Y-119602999D01*
X103887249Y-119587847D01*
X103838777Y-119589123D01*
X103793845Y-119614703D01*
X103783103Y-119624442D01*
X103769548Y-119641480D01*
X103761505Y-119663772D01*
X103757043Y-119697947D01*
X103754228Y-119750638D01*
X103752920Y-119787523D01*
X103617776Y-119787523D01*
X103618583Y-119712351D01*
X103619907Y-119698651D01*
X103638374Y-119610908D01*
X103672540Y-119542793D01*
X103722479Y-119494231D01*
X103788261Y-119465148D01*
X103869961Y-119455471D01*
X103900828Y-119456379D01*
X103964128Y-119467493D01*
X104015889Y-119494021D01*
X104064147Y-119539436D01*
X104071865Y-119548551D01*
X104092681Y-119579248D01*
X104106362Y-119614007D01*
X104113948Y-119658056D01*
X104116479Y-119716621D01*
X104115672Y-119759219D01*
X104114997Y-119794931D01*
G37*
X101940761Y-120756813D02*
X101939167Y-120810571D01*
X101935962Y-120848018D01*
X101935413Y-120851450D01*
X101913838Y-120912835D01*
X101874438Y-120964877D01*
X101822752Y-121000135D01*
X101767248Y-121014729D01*
X101698977Y-121013597D01*
X101636173Y-120994029D01*
X101619815Y-120985771D01*
X101598779Y-120976923D01*
X101590774Y-120979676D01*
X101589505Y-120994029D01*
X101588922Y-121001186D01*
X101581394Y-121011772D01*
X101560488Y-121016645D01*
X101520346Y-121017822D01*
X101451188Y-121017822D01*
X101451188Y-120715930D01*
X101589505Y-120715930D01*
X101590496Y-120768230D01*
X101594519Y-120803050D01*
X101603108Y-120826905D01*
X101617797Y-120846895D01*
X101656584Y-120876618D01*
X101701974Y-120886582D01*
X101745989Y-120874260D01*
X101783060Y-120839888D01*
X101792859Y-120814735D01*
X101800097Y-120770194D01*
X101803279Y-120716155D01*
X101802277Y-120660728D01*
X101796961Y-120612022D01*
X101787204Y-120578148D01*
X101784087Y-120572593D01*
X101754038Y-120544674D01*
X101713315Y-120532306D01*
X101669579Y-120535183D01*
X101630491Y-120553000D01*
X101603710Y-120585452D01*
X101602603Y-120588181D01*
X101595963Y-120618634D01*
X101591278Y-120664139D01*
X101589505Y-120715930D01*
X101451188Y-120715930D01*
X101451188Y-120162773D01*
X101589505Y-120162773D01*
X101589505Y-120455878D01*
X101615124Y-120432693D01*
X101639792Y-120418282D01*
X101686480Y-120406236D01*
X101741056Y-120402354D01*
X101794354Y-120407120D01*
X101837207Y-120421014D01*
X101867878Y-120440779D01*
X101899471Y-120474449D01*
X101920733Y-120519730D01*
X101933514Y-120580981D01*
X101939664Y-120662563D01*
X101940568Y-120695540D01*
X101940633Y-120716155D01*
X101940761Y-120756813D01*
G36*
X101940761Y-120756813D02*
G01*
X101939167Y-120810571D01*
X101935962Y-120848018D01*
X101935413Y-120851450D01*
X101913838Y-120912835D01*
X101874438Y-120964877D01*
X101822752Y-121000135D01*
X101767248Y-121014729D01*
X101698977Y-121013597D01*
X101636173Y-120994029D01*
X101619815Y-120985771D01*
X101598779Y-120976923D01*
X101590774Y-120979676D01*
X101589505Y-120994029D01*
X101588922Y-121001186D01*
X101581394Y-121011772D01*
X101560488Y-121016645D01*
X101520346Y-121017822D01*
X101451188Y-121017822D01*
X101451188Y-120715930D01*
X101589505Y-120715930D01*
X101590496Y-120768230D01*
X101594519Y-120803050D01*
X101603108Y-120826905D01*
X101617797Y-120846895D01*
X101656584Y-120876618D01*
X101701974Y-120886582D01*
X101745989Y-120874260D01*
X101783060Y-120839888D01*
X101792859Y-120814735D01*
X101800097Y-120770194D01*
X101803279Y-120716155D01*
X101802277Y-120660728D01*
X101796961Y-120612022D01*
X101787204Y-120578148D01*
X101784087Y-120572593D01*
X101754038Y-120544674D01*
X101713315Y-120532306D01*
X101669579Y-120535183D01*
X101630491Y-120553000D01*
X101603710Y-120585452D01*
X101602603Y-120588181D01*
X101595963Y-120618634D01*
X101591278Y-120664139D01*
X101589505Y-120715930D01*
X101451188Y-120715930D01*
X101451188Y-120162773D01*
X101589505Y-120162773D01*
X101589505Y-120455878D01*
X101615124Y-120432693D01*
X101639792Y-120418282D01*
X101686480Y-120406236D01*
X101741056Y-120402354D01*
X101794354Y-120407120D01*
X101837207Y-120421014D01*
X101867878Y-120440779D01*
X101899471Y-120474449D01*
X101920733Y-120519730D01*
X101933514Y-120580981D01*
X101939664Y-120662563D01*
X101940568Y-120695540D01*
X101940633Y-120716155D01*
X101940761Y-120756813D01*
G37*
X98869444Y-119719878D02*
X98867825Y-119816121D01*
X98867615Y-119818014D01*
X98849535Y-119906325D01*
X98816870Y-119974986D01*
X98768601Y-120025506D01*
X98703713Y-120059393D01*
X98691801Y-120063268D01*
X98617971Y-120074688D01*
X98541614Y-120068320D01*
X98470626Y-120045563D01*
X98412904Y-120007819D01*
X98369667Y-119967872D01*
X98415625Y-119931532D01*
X98461583Y-119895193D01*
X98516969Y-119922101D01*
X98581056Y-119943905D01*
X98637632Y-119944558D01*
X98683920Y-119924525D01*
X98717230Y-119884315D01*
X98729171Y-119860222D01*
X98735837Y-119839630D01*
X98731980Y-119825720D01*
X98714675Y-119817181D01*
X98680997Y-119812704D01*
X98628021Y-119810978D01*
X98552822Y-119810693D01*
X98370495Y-119810693D01*
X98370495Y-119723492D01*
X98371857Y-119685210D01*
X98500234Y-119685210D01*
X98506399Y-119692251D01*
X98524654Y-119695916D01*
X98559352Y-119697306D01*
X98614846Y-119697525D01*
X98644603Y-119697176D01*
X98691562Y-119694867D01*
X98723416Y-119690822D01*
X98735148Y-119685542D01*
X98732146Y-119666062D01*
X98710988Y-119628786D01*
X98675731Y-119598164D01*
X98633699Y-119579668D01*
X98592220Y-119578773D01*
X98560997Y-119593604D01*
X98525618Y-119627355D01*
X98503122Y-119669233D01*
X98501805Y-119673690D01*
X98500234Y-119685210D01*
X98371857Y-119685210D01*
X98372136Y-119677371D01*
X98376955Y-119631740D01*
X98383840Y-119600893D01*
X98388859Y-119589117D01*
X98425390Y-119536667D01*
X98478175Y-119492921D01*
X98539904Y-119464279D01*
X98572102Y-119456457D01*
X98648820Y-119452896D01*
X98717179Y-119471009D01*
X98775299Y-119508779D01*
X98821302Y-119564191D01*
X98853310Y-119635229D01*
X98862900Y-119685542D01*
X98869444Y-119719878D01*
G36*
X98869444Y-119719878D02*
G01*
X98867825Y-119816121D01*
X98867615Y-119818014D01*
X98849535Y-119906325D01*
X98816870Y-119974986D01*
X98768601Y-120025506D01*
X98703713Y-120059393D01*
X98691801Y-120063268D01*
X98617971Y-120074688D01*
X98541614Y-120068320D01*
X98470626Y-120045563D01*
X98412904Y-120007819D01*
X98369667Y-119967872D01*
X98415625Y-119931532D01*
X98461583Y-119895193D01*
X98516969Y-119922101D01*
X98581056Y-119943905D01*
X98637632Y-119944558D01*
X98683920Y-119924525D01*
X98717230Y-119884315D01*
X98729171Y-119860222D01*
X98735837Y-119839630D01*
X98731980Y-119825720D01*
X98714675Y-119817181D01*
X98680997Y-119812704D01*
X98628021Y-119810978D01*
X98552822Y-119810693D01*
X98370495Y-119810693D01*
X98370495Y-119723492D01*
X98371857Y-119685210D01*
X98500234Y-119685210D01*
X98506399Y-119692251D01*
X98524654Y-119695916D01*
X98559352Y-119697306D01*
X98614846Y-119697525D01*
X98644603Y-119697176D01*
X98691562Y-119694867D01*
X98723416Y-119690822D01*
X98735148Y-119685542D01*
X98732146Y-119666062D01*
X98710988Y-119628786D01*
X98675731Y-119598164D01*
X98633699Y-119579668D01*
X98592220Y-119578773D01*
X98560997Y-119593604D01*
X98525618Y-119627355D01*
X98503122Y-119669233D01*
X98501805Y-119673690D01*
X98500234Y-119685210D01*
X98371857Y-119685210D01*
X98372136Y-119677371D01*
X98376955Y-119631740D01*
X98383840Y-119600893D01*
X98388859Y-119589117D01*
X98425390Y-119536667D01*
X98478175Y-119492921D01*
X98539904Y-119464279D01*
X98572102Y-119456457D01*
X98648820Y-119452896D01*
X98717179Y-119471009D01*
X98775299Y-119508779D01*
X98821302Y-119564191D01*
X98853310Y-119635229D01*
X98862900Y-119685542D01*
X98869444Y-119719878D01*
G37*
X101348874Y-119458207D02*
X101421495Y-119476408D01*
X101474546Y-119510144D01*
X101508329Y-119559642D01*
X101523147Y-119625126D01*
X101520147Y-119687820D01*
X101498493Y-119740699D01*
X101456967Y-119779796D01*
X101394736Y-119805873D01*
X101310969Y-119819695D01*
X101256540Y-119826940D01*
X101206860Y-119842615D01*
X101181211Y-119865314D01*
X101179662Y-119894998D01*
X101189984Y-119913507D01*
X101221951Y-119935443D01*
X101267395Y-119945818D01*
X101320649Y-119944399D01*
X101376048Y-119930952D01*
X101427928Y-119905243D01*
X101479653Y-119871013D01*
X101525148Y-119917049D01*
X101570643Y-119963084D01*
X101532921Y-119993876D01*
X101518253Y-120004574D01*
X101476983Y-120028880D01*
X101432327Y-120049825D01*
X101396984Y-120061845D01*
X101345234Y-120070552D01*
X101281435Y-120070667D01*
X101203200Y-120061081D01*
X101132722Y-120036783D01*
X101082836Y-119998188D01*
X101053423Y-119945198D01*
X101044365Y-119877718D01*
X101050921Y-119818354D01*
X101071970Y-119769752D01*
X101109864Y-119734946D01*
X101167004Y-119711798D01*
X101245785Y-119698170D01*
X101254834Y-119697183D01*
X101303885Y-119690892D01*
X101343675Y-119684309D01*
X101366312Y-119678708D01*
X101373866Y-119674197D01*
X101386637Y-119650941D01*
X101384563Y-119621171D01*
X101367495Y-119595327D01*
X101358533Y-119589691D01*
X101321188Y-119580660D01*
X101272950Y-119581267D01*
X101222650Y-119590878D01*
X101179115Y-119608858D01*
X101133372Y-119635847D01*
X101097890Y-119594384D01*
X101089280Y-119583850D01*
X101069883Y-119555632D01*
X101061897Y-119536508D01*
X101070283Y-119524781D01*
X101096226Y-119506476D01*
X101133688Y-119486777D01*
X101138966Y-119484370D01*
X101188366Y-119465482D01*
X101235983Y-119456452D01*
X101295072Y-119454639D01*
X101348874Y-119458207D01*
G36*
X101348874Y-119458207D02*
G01*
X101421495Y-119476408D01*
X101474546Y-119510144D01*
X101508329Y-119559642D01*
X101523147Y-119625126D01*
X101520147Y-119687820D01*
X101498493Y-119740699D01*
X101456967Y-119779796D01*
X101394736Y-119805873D01*
X101310969Y-119819695D01*
X101256540Y-119826940D01*
X101206860Y-119842615D01*
X101181211Y-119865314D01*
X101179662Y-119894998D01*
X101189984Y-119913507D01*
X101221951Y-119935443D01*
X101267395Y-119945818D01*
X101320649Y-119944399D01*
X101376048Y-119930952D01*
X101427928Y-119905243D01*
X101479653Y-119871013D01*
X101525148Y-119917049D01*
X101570643Y-119963084D01*
X101532921Y-119993876D01*
X101518253Y-120004574D01*
X101476983Y-120028880D01*
X101432327Y-120049825D01*
X101396984Y-120061845D01*
X101345234Y-120070552D01*
X101281435Y-120070667D01*
X101203200Y-120061081D01*
X101132722Y-120036783D01*
X101082836Y-119998188D01*
X101053423Y-119945198D01*
X101044365Y-119877718D01*
X101050921Y-119818354D01*
X101071970Y-119769752D01*
X101109864Y-119734946D01*
X101167004Y-119711798D01*
X101245785Y-119698170D01*
X101254834Y-119697183D01*
X101303885Y-119690892D01*
X101343675Y-119684309D01*
X101366312Y-119678708D01*
X101373866Y-119674197D01*
X101386637Y-119650941D01*
X101384563Y-119621171D01*
X101367495Y-119595327D01*
X101358533Y-119589691D01*
X101321188Y-119580660D01*
X101272950Y-119581267D01*
X101222650Y-119590878D01*
X101179115Y-119608858D01*
X101133372Y-119635847D01*
X101097890Y-119594384D01*
X101089280Y-119583850D01*
X101069883Y-119555632D01*
X101061897Y-119536508D01*
X101070283Y-119524781D01*
X101096226Y-119506476D01*
X101133688Y-119486777D01*
X101138966Y-119484370D01*
X101188366Y-119465482D01*
X101235983Y-119456452D01*
X101295072Y-119454639D01*
X101348874Y-119458207D01*
G37*
X99514353Y-120709753D02*
X99512718Y-120756692D01*
X99497827Y-120846459D01*
X99467185Y-120917045D01*
X99420524Y-120968952D01*
X99357574Y-121002686D01*
X99337235Y-121008647D01*
X99264612Y-121016971D01*
X99187928Y-121009946D01*
X99118663Y-120988265D01*
X99094262Y-120975959D01*
X99059275Y-120954879D01*
X99038072Y-120937534D01*
X99034942Y-120933571D01*
X99029085Y-120919077D01*
X99037524Y-120903321D01*
X99063221Y-120879460D01*
X99075622Y-120869072D01*
X99100052Y-120850063D01*
X99112861Y-120842293D01*
X99116530Y-120843094D01*
X99137561Y-120851745D01*
X99168960Y-120866931D01*
X99179197Y-120871926D01*
X99239590Y-120890475D01*
X99292057Y-120885694D01*
X99338065Y-120857500D01*
X99343419Y-120852291D01*
X99369013Y-120819659D01*
X99383637Y-120788342D01*
X99391736Y-120753763D01*
X99011782Y-120753763D01*
X99011852Y-120687748D01*
X99011892Y-120681182D01*
X99017022Y-120628218D01*
X99150099Y-120628218D01*
X99151670Y-120639203D01*
X99159738Y-120646773D01*
X99178967Y-120650975D01*
X99214019Y-120652783D01*
X99269554Y-120653169D01*
X99300429Y-120652768D01*
X99346002Y-120650429D01*
X99377348Y-120646465D01*
X99389010Y-120641413D01*
X99379064Y-120599827D01*
X99349947Y-120561013D01*
X99307952Y-120534086D01*
X99259440Y-120524772D01*
X99223723Y-120535272D01*
X99188020Y-120560940D01*
X99160879Y-120594381D01*
X99150099Y-120628218D01*
X99017022Y-120628218D01*
X99019758Y-120599965D01*
X99042655Y-120533895D01*
X99082607Y-120476940D01*
X99106979Y-120452848D01*
X99157315Y-120420597D01*
X99217419Y-120404970D01*
X99293338Y-120403871D01*
X99330010Y-120408179D01*
X99397703Y-120430549D01*
X99449530Y-120471263D01*
X99485945Y-120530949D01*
X99507401Y-120610236D01*
X99509579Y-120641413D01*
X99514353Y-120709753D01*
G36*
X99514353Y-120709753D02*
G01*
X99512718Y-120756692D01*
X99497827Y-120846459D01*
X99467185Y-120917045D01*
X99420524Y-120968952D01*
X99357574Y-121002686D01*
X99337235Y-121008647D01*
X99264612Y-121016971D01*
X99187928Y-121009946D01*
X99118663Y-120988265D01*
X99094262Y-120975959D01*
X99059275Y-120954879D01*
X99038072Y-120937534D01*
X99034942Y-120933571D01*
X99029085Y-120919077D01*
X99037524Y-120903321D01*
X99063221Y-120879460D01*
X99075622Y-120869072D01*
X99100052Y-120850063D01*
X99112861Y-120842293D01*
X99116530Y-120843094D01*
X99137561Y-120851745D01*
X99168960Y-120866931D01*
X99179197Y-120871926D01*
X99239590Y-120890475D01*
X99292057Y-120885694D01*
X99338065Y-120857500D01*
X99343419Y-120852291D01*
X99369013Y-120819659D01*
X99383637Y-120788342D01*
X99391736Y-120753763D01*
X99011782Y-120753763D01*
X99011852Y-120687748D01*
X99011892Y-120681182D01*
X99017022Y-120628218D01*
X99150099Y-120628218D01*
X99151670Y-120639203D01*
X99159738Y-120646773D01*
X99178967Y-120650975D01*
X99214019Y-120652783D01*
X99269554Y-120653169D01*
X99300429Y-120652768D01*
X99346002Y-120650429D01*
X99377348Y-120646465D01*
X99389010Y-120641413D01*
X99379064Y-120599827D01*
X99349947Y-120561013D01*
X99307952Y-120534086D01*
X99259440Y-120524772D01*
X99223723Y-120535272D01*
X99188020Y-120560940D01*
X99160879Y-120594381D01*
X99150099Y-120628218D01*
X99017022Y-120628218D01*
X99019758Y-120599965D01*
X99042655Y-120533895D01*
X99082607Y-120476940D01*
X99106979Y-120452848D01*
X99157315Y-120420597D01*
X99217419Y-120404970D01*
X99293338Y-120403871D01*
X99330010Y-120408179D01*
X99397703Y-120430549D01*
X99449530Y-120471263D01*
X99485945Y-120530949D01*
X99507401Y-120610236D01*
X99509579Y-120641413D01*
X99514353Y-120709753D01*
G37*
X102957022Y-119684861D02*
X102961421Y-119772936D01*
X102960322Y-119811371D01*
X102947926Y-119895367D01*
X102920608Y-119961595D01*
X102876941Y-120012784D01*
X102815495Y-120051663D01*
X102755888Y-120069812D01*
X102681110Y-120073284D01*
X102605664Y-120059930D01*
X102538366Y-120030425D01*
X102513428Y-120014012D01*
X102485951Y-119992973D01*
X102473414Y-119979129D01*
X102474124Y-119973417D01*
X102488158Y-119953955D01*
X102514533Y-119930376D01*
X102560240Y-119895513D01*
X102613799Y-119922262D01*
X102628282Y-119928882D01*
X102670916Y-119943273D01*
X102706649Y-119949010D01*
X102732998Y-119944282D01*
X102774347Y-119921514D01*
X102809104Y-119886170D01*
X102828983Y-119845273D01*
X102837083Y-119810693D01*
X102457129Y-119810693D01*
X102457199Y-119744679D01*
X102457774Y-119723757D01*
X102461972Y-119678862D01*
X102595445Y-119678862D01*
X102595690Y-119681434D01*
X102602604Y-119689443D01*
X102622141Y-119694364D01*
X102658467Y-119696843D01*
X102715748Y-119697525D01*
X102734575Y-119697517D01*
X102783470Y-119697065D01*
X102812863Y-119695113D01*
X102827115Y-119690558D01*
X102830582Y-119682299D01*
X102827625Y-119669233D01*
X102827173Y-119667752D01*
X102801699Y-119622285D01*
X102761539Y-119590981D01*
X102713651Y-119579327D01*
X102695949Y-119580259D01*
X102663094Y-119591408D01*
X102631575Y-119619763D01*
X102623085Y-119629789D01*
X102603336Y-119658423D01*
X102595445Y-119678862D01*
X102461972Y-119678862D01*
X102462512Y-119673091D01*
X102470459Y-119631166D01*
X102479168Y-119607696D01*
X102509790Y-119556646D01*
X102550799Y-119510283D01*
X102594168Y-119478514D01*
X102606699Y-119472614D01*
X102679661Y-119453046D01*
X102754168Y-119455109D01*
X102824217Y-119477931D01*
X102883807Y-119520639D01*
X102916038Y-119560025D01*
X102942392Y-119615510D01*
X102956482Y-119682299D01*
X102957022Y-119684861D01*
G36*
X102957022Y-119684861D02*
G01*
X102961421Y-119772936D01*
X102960322Y-119811371D01*
X102947926Y-119895367D01*
X102920608Y-119961595D01*
X102876941Y-120012784D01*
X102815495Y-120051663D01*
X102755888Y-120069812D01*
X102681110Y-120073284D01*
X102605664Y-120059930D01*
X102538366Y-120030425D01*
X102513428Y-120014012D01*
X102485951Y-119992973D01*
X102473414Y-119979129D01*
X102474124Y-119973417D01*
X102488158Y-119953955D01*
X102514533Y-119930376D01*
X102560240Y-119895513D01*
X102613799Y-119922262D01*
X102628282Y-119928882D01*
X102670916Y-119943273D01*
X102706649Y-119949010D01*
X102732998Y-119944282D01*
X102774347Y-119921514D01*
X102809104Y-119886170D01*
X102828983Y-119845273D01*
X102837083Y-119810693D01*
X102457129Y-119810693D01*
X102457199Y-119744679D01*
X102457774Y-119723757D01*
X102461972Y-119678862D01*
X102595445Y-119678862D01*
X102595690Y-119681434D01*
X102602604Y-119689443D01*
X102622141Y-119694364D01*
X102658467Y-119696843D01*
X102715748Y-119697525D01*
X102734575Y-119697517D01*
X102783470Y-119697065D01*
X102812863Y-119695113D01*
X102827115Y-119690558D01*
X102830582Y-119682299D01*
X102827625Y-119669233D01*
X102827173Y-119667752D01*
X102801699Y-119622285D01*
X102761539Y-119590981D01*
X102713651Y-119579327D01*
X102695949Y-119580259D01*
X102663094Y-119591408D01*
X102631575Y-119619763D01*
X102623085Y-119629789D01*
X102603336Y-119658423D01*
X102595445Y-119678862D01*
X102461972Y-119678862D01*
X102462512Y-119673091D01*
X102470459Y-119631166D01*
X102479168Y-119607696D01*
X102509790Y-119556646D01*
X102550799Y-119510283D01*
X102594168Y-119478514D01*
X102606699Y-119472614D01*
X102679661Y-119453046D01*
X102754168Y-119455109D01*
X102824217Y-119477931D01*
X102883807Y-119520639D01*
X102916038Y-119560025D01*
X102942392Y-119615510D01*
X102956482Y-119682299D01*
X102957022Y-119684861D01*
G37*
X100539413Y-120852333D02*
X100524244Y-120909419D01*
X100491277Y-120958255D01*
X100441270Y-120993386D01*
X100436362Y-120995521D01*
X100381646Y-121010903D01*
X100319993Y-121016899D01*
X100261376Y-121013233D01*
X100215767Y-120999629D01*
X100197549Y-120990754D01*
X100184179Y-120988637D01*
X100181188Y-120999706D01*
X100175524Y-121009942D01*
X100153607Y-121016038D01*
X100111068Y-121017822D01*
X100040948Y-121017822D01*
X100044680Y-120797773D01*
X100181188Y-120797773D01*
X100185924Y-120830666D01*
X100206336Y-120866931D01*
X100213871Y-120873597D01*
X100244753Y-120887620D01*
X100291213Y-120891228D01*
X100319090Y-120889819D01*
X100371255Y-120879204D01*
X100403587Y-120859425D01*
X100414492Y-120831824D01*
X100402374Y-120797743D01*
X100395304Y-120788824D01*
X100363724Y-120768818D01*
X100313744Y-120757395D01*
X100242487Y-120753763D01*
X100181188Y-120753763D01*
X100181188Y-120797773D01*
X100044680Y-120797773D01*
X100045053Y-120775768D01*
X100046169Y-120719794D01*
X100049106Y-120635996D01*
X100054058Y-120571920D01*
X100062002Y-120524073D01*
X100073917Y-120488962D01*
X100090780Y-120463093D01*
X100113572Y-120442974D01*
X100143269Y-120425110D01*
X100158589Y-120418290D01*
X100211589Y-120405417D01*
X100275513Y-120400095D01*
X100341602Y-120402227D01*
X100401099Y-120411714D01*
X100445247Y-120428461D01*
X100460604Y-120438185D01*
X100495960Y-120467005D01*
X100507926Y-120491137D01*
X100505020Y-120495800D01*
X100486909Y-120512088D01*
X100457672Y-120533817D01*
X100442725Y-120543987D01*
X100417270Y-120558397D01*
X100400728Y-120559773D01*
X100385370Y-120549827D01*
X100347094Y-120529684D01*
X100295590Y-120521400D01*
X100242957Y-120527742D01*
X100241961Y-120528030D01*
X100204838Y-120544158D01*
X100186463Y-120569405D01*
X100181380Y-120611158D01*
X100181188Y-120650879D01*
X100312423Y-120655168D01*
X100333331Y-120655873D01*
X100386043Y-120658326D01*
X100421381Y-120662180D01*
X100445267Y-120668878D01*
X100463624Y-120679864D01*
X100482376Y-120696580D01*
X100513337Y-120735244D01*
X100536029Y-120792456D01*
X100538254Y-120831824D01*
X100539413Y-120852333D01*
G36*
X100539413Y-120852333D02*
G01*
X100524244Y-120909419D01*
X100491277Y-120958255D01*
X100441270Y-120993386D01*
X100436362Y-120995521D01*
X100381646Y-121010903D01*
X100319993Y-121016899D01*
X100261376Y-121013233D01*
X100215767Y-120999629D01*
X100197549Y-120990754D01*
X100184179Y-120988637D01*
X100181188Y-120999706D01*
X100175524Y-121009942D01*
X100153607Y-121016038D01*
X100111068Y-121017822D01*
X100040948Y-121017822D01*
X100044680Y-120797773D01*
X100181188Y-120797773D01*
X100185924Y-120830666D01*
X100206336Y-120866931D01*
X100213871Y-120873597D01*
X100244753Y-120887620D01*
X100291213Y-120891228D01*
X100319090Y-120889819D01*
X100371255Y-120879204D01*
X100403587Y-120859425D01*
X100414492Y-120831824D01*
X100402374Y-120797743D01*
X100395304Y-120788824D01*
X100363724Y-120768818D01*
X100313744Y-120757395D01*
X100242487Y-120753763D01*
X100181188Y-120753763D01*
X100181188Y-120797773D01*
X100044680Y-120797773D01*
X100045053Y-120775768D01*
X100046169Y-120719794D01*
X100049106Y-120635996D01*
X100054058Y-120571920D01*
X100062002Y-120524073D01*
X100073917Y-120488962D01*
X100090780Y-120463093D01*
X100113572Y-120442974D01*
X100143269Y-120425110D01*
X100158589Y-120418290D01*
X100211589Y-120405417D01*
X100275513Y-120400095D01*
X100341602Y-120402227D01*
X100401099Y-120411714D01*
X100445247Y-120428461D01*
X100460604Y-120438185D01*
X100495960Y-120467005D01*
X100507926Y-120491137D01*
X100505020Y-120495800D01*
X100486909Y-120512088D01*
X100457672Y-120533817D01*
X100442725Y-120543987D01*
X100417270Y-120558397D01*
X100400728Y-120559773D01*
X100385370Y-120549827D01*
X100347094Y-120529684D01*
X100295590Y-120521400D01*
X100242957Y-120527742D01*
X100241961Y-120528030D01*
X100204838Y-120544158D01*
X100186463Y-120569405D01*
X100181380Y-120611158D01*
X100181188Y-120650879D01*
X100312423Y-120655168D01*
X100333331Y-120655873D01*
X100386043Y-120658326D01*
X100421381Y-120662180D01*
X100445267Y-120668878D01*
X100463624Y-120679864D01*
X100482376Y-120696580D01*
X100513337Y-120735244D01*
X100536029Y-120792456D01*
X100538254Y-120831824D01*
X100539413Y-120852333D01*
G37*
X102957299Y-120850223D02*
X102957157Y-120851882D01*
X102941835Y-120916479D01*
X102907753Y-120965063D01*
X102853218Y-121000072D01*
X102825036Y-121008589D01*
X102776764Y-121015228D01*
X102723978Y-121016813D01*
X102676353Y-121013160D01*
X102643566Y-121004083D01*
X102623652Y-120996813D01*
X102604155Y-121004083D01*
X102597023Y-121008295D01*
X102568557Y-121015126D01*
X102530059Y-121017822D01*
X102469703Y-121017822D01*
X102469703Y-120802111D01*
X102608020Y-120802111D01*
X102612668Y-120838904D01*
X102631015Y-120871269D01*
X102641514Y-120878274D01*
X102678988Y-120889191D01*
X102725773Y-120891917D01*
X102771652Y-120886379D01*
X102806410Y-120872505D01*
X102823726Y-120854161D01*
X102834356Y-120821566D01*
X102824929Y-120795729D01*
X102793764Y-120773263D01*
X102743667Y-120758850D01*
X102677582Y-120753763D01*
X102608020Y-120753763D01*
X102608020Y-120802111D01*
X102469703Y-120802111D01*
X102469703Y-120774484D01*
X102469707Y-120753440D01*
X102469937Y-120674122D01*
X102470797Y-120615154D01*
X102472679Y-120572616D01*
X102475974Y-120542592D01*
X102481073Y-120521163D01*
X102488366Y-120504411D01*
X102498246Y-120488419D01*
X102530023Y-120450948D01*
X102575055Y-120422339D01*
X102634210Y-120406555D01*
X102712161Y-120401703D01*
X102714695Y-120401708D01*
X102768880Y-120404155D01*
X102817380Y-120410256D01*
X102850478Y-120418809D01*
X102859552Y-120423096D01*
X102888433Y-120441248D01*
X102914568Y-120462822D01*
X102931764Y-120482236D01*
X102933825Y-120493909D01*
X102929803Y-120497063D01*
X102885976Y-120530739D01*
X102856671Y-120550600D01*
X102837294Y-120558613D01*
X102823253Y-120556746D01*
X102809957Y-120546965D01*
X102785418Y-120534756D01*
X102744064Y-120526615D01*
X102697326Y-120524503D01*
X102655034Y-120528800D01*
X102627017Y-120539887D01*
X102625543Y-120541236D01*
X102612953Y-120566581D01*
X102608020Y-120604411D01*
X102608020Y-120653169D01*
X102724331Y-120653216D01*
X102777760Y-120654061D01*
X102822735Y-120657740D01*
X102854907Y-120665309D01*
X102880899Y-120677808D01*
X102886948Y-120681647D01*
X102930710Y-120723845D01*
X102953987Y-120779647D01*
X102955955Y-120821566D01*
X102957299Y-120850223D01*
G36*
X102957299Y-120850223D02*
G01*
X102957157Y-120851882D01*
X102941835Y-120916479D01*
X102907753Y-120965063D01*
X102853218Y-121000072D01*
X102825036Y-121008589D01*
X102776764Y-121015228D01*
X102723978Y-121016813D01*
X102676353Y-121013160D01*
X102643566Y-121004083D01*
X102623652Y-120996813D01*
X102604155Y-121004083D01*
X102597023Y-121008295D01*
X102568557Y-121015126D01*
X102530059Y-121017822D01*
X102469703Y-121017822D01*
X102469703Y-120802111D01*
X102608020Y-120802111D01*
X102612668Y-120838904D01*
X102631015Y-120871269D01*
X102641514Y-120878274D01*
X102678988Y-120889191D01*
X102725773Y-120891917D01*
X102771652Y-120886379D01*
X102806410Y-120872505D01*
X102823726Y-120854161D01*
X102834356Y-120821566D01*
X102824929Y-120795729D01*
X102793764Y-120773263D01*
X102743667Y-120758850D01*
X102677582Y-120753763D01*
X102608020Y-120753763D01*
X102608020Y-120802111D01*
X102469703Y-120802111D01*
X102469703Y-120774484D01*
X102469707Y-120753440D01*
X102469937Y-120674122D01*
X102470797Y-120615154D01*
X102472679Y-120572616D01*
X102475974Y-120542592D01*
X102481073Y-120521163D01*
X102488366Y-120504411D01*
X102498246Y-120488419D01*
X102530023Y-120450948D01*
X102575055Y-120422339D01*
X102634210Y-120406555D01*
X102712161Y-120401703D01*
X102714695Y-120401708D01*
X102768880Y-120404155D01*
X102817380Y-120410256D01*
X102850478Y-120418809D01*
X102859552Y-120423096D01*
X102888433Y-120441248D01*
X102914568Y-120462822D01*
X102931764Y-120482236D01*
X102933825Y-120493909D01*
X102929803Y-120497063D01*
X102885976Y-120530739D01*
X102856671Y-120550600D01*
X102837294Y-120558613D01*
X102823253Y-120556746D01*
X102809957Y-120546965D01*
X102785418Y-120534756D01*
X102744064Y-120526615D01*
X102697326Y-120524503D01*
X102655034Y-120528800D01*
X102627017Y-120539887D01*
X102625543Y-120541236D01*
X102612953Y-120566581D01*
X102608020Y-120604411D01*
X102608020Y-120653169D01*
X102724331Y-120653216D01*
X102777760Y-120654061D01*
X102822735Y-120657740D01*
X102854907Y-120665309D01*
X102880899Y-120677808D01*
X102886948Y-120681647D01*
X102930710Y-120723845D01*
X102953987Y-120779647D01*
X102955955Y-120821566D01*
X102957299Y-120850223D01*
G37*
X103525940Y-121019136D02*
X103459926Y-121015336D01*
X103393911Y-121011535D01*
X103390772Y-120810347D01*
X103389844Y-120761425D01*
X103387208Y-120687926D01*
X103382683Y-120633991D01*
X103375438Y-120595995D01*
X103364642Y-120570313D01*
X103349462Y-120553320D01*
X103329066Y-120541389D01*
X103290797Y-120529205D01*
X103252738Y-120533940D01*
X103212549Y-120559979D01*
X103173861Y-120592533D01*
X103173861Y-121017822D01*
X103035544Y-121017822D01*
X103035544Y-120787176D01*
X103035677Y-120714882D01*
X103036413Y-120650641D01*
X103038181Y-120603618D01*
X103041411Y-120569548D01*
X103046530Y-120544170D01*
X103053967Y-120523221D01*
X103064150Y-120502436D01*
X103066564Y-120498024D01*
X103098675Y-120455047D01*
X103136256Y-120425013D01*
X103181564Y-120409243D01*
X103241561Y-120402222D01*
X103301643Y-120406025D01*
X103350525Y-120420868D01*
X103387624Y-120440052D01*
X103387624Y-120024859D01*
X103336792Y-120051354D01*
X103315558Y-120060980D01*
X103248536Y-120074592D01*
X103181930Y-120065184D01*
X103120187Y-120033905D01*
X103067757Y-119981902D01*
X103059543Y-119969680D01*
X103051649Y-119951763D01*
X103046500Y-119927404D01*
X103043527Y-119891927D01*
X103042161Y-119840656D01*
X103041915Y-119787236D01*
X103174749Y-119787236D01*
X103174861Y-119831849D01*
X103178272Y-119861601D01*
X103185937Y-119882835D01*
X103198814Y-119901896D01*
X103215171Y-119919617D01*
X103241329Y-119933028D01*
X103280742Y-119936436D01*
X103315559Y-119933471D01*
X103350020Y-119918631D01*
X103372215Y-119888569D01*
X103384097Y-119840254D01*
X103387624Y-119770650D01*
X103386712Y-119733624D01*
X103377609Y-119663728D01*
X103358828Y-119616464D01*
X103330476Y-119592168D01*
X103301840Y-119585332D01*
X103251970Y-119588537D01*
X103209833Y-119608380D01*
X103199749Y-119617480D01*
X103189063Y-119633223D01*
X103182456Y-119656658D01*
X103178532Y-119693604D01*
X103175897Y-119749880D01*
X103174749Y-119787236D01*
X103041915Y-119787236D01*
X103041831Y-119768917D01*
X103041944Y-119736184D01*
X103043872Y-119660044D01*
X103049240Y-119603166D01*
X103059406Y-119561249D01*
X103075725Y-119529996D01*
X103099553Y-119505106D01*
X103132247Y-119482282D01*
X103158759Y-119469184D01*
X103221615Y-119454739D01*
X103287869Y-119456707D01*
X103346757Y-119475433D01*
X103372030Y-119487673D01*
X103384742Y-119488938D01*
X103387624Y-119477798D01*
X103387626Y-119477461D01*
X103393838Y-119466087D01*
X103415260Y-119460256D01*
X103456782Y-119458614D01*
X103525940Y-119458614D01*
X103525940Y-119770650D01*
X103525940Y-121019136D01*
G36*
X103525940Y-121019136D02*
G01*
X103459926Y-121015336D01*
X103393911Y-121011535D01*
X103390772Y-120810347D01*
X103389844Y-120761425D01*
X103387208Y-120687926D01*
X103382683Y-120633991D01*
X103375438Y-120595995D01*
X103364642Y-120570313D01*
X103349462Y-120553320D01*
X103329066Y-120541389D01*
X103290797Y-120529205D01*
X103252738Y-120533940D01*
X103212549Y-120559979D01*
X103173861Y-120592533D01*
X103173861Y-121017822D01*
X103035544Y-121017822D01*
X103035544Y-120787176D01*
X103035677Y-120714882D01*
X103036413Y-120650641D01*
X103038181Y-120603618D01*
X103041411Y-120569548D01*
X103046530Y-120544170D01*
X103053967Y-120523221D01*
X103064150Y-120502436D01*
X103066564Y-120498024D01*
X103098675Y-120455047D01*
X103136256Y-120425013D01*
X103181564Y-120409243D01*
X103241561Y-120402222D01*
X103301643Y-120406025D01*
X103350525Y-120420868D01*
X103387624Y-120440052D01*
X103387624Y-120024859D01*
X103336792Y-120051354D01*
X103315558Y-120060980D01*
X103248536Y-120074592D01*
X103181930Y-120065184D01*
X103120187Y-120033905D01*
X103067757Y-119981902D01*
X103059543Y-119969680D01*
X103051649Y-119951763D01*
X103046500Y-119927404D01*
X103043527Y-119891927D01*
X103042161Y-119840656D01*
X103041915Y-119787236D01*
X103174749Y-119787236D01*
X103174861Y-119831849D01*
X103178272Y-119861601D01*
X103185937Y-119882835D01*
X103198814Y-119901896D01*
X103215171Y-119919617D01*
X103241329Y-119933028D01*
X103280742Y-119936436D01*
X103315559Y-119933471D01*
X103350020Y-119918631D01*
X103372215Y-119888569D01*
X103384097Y-119840254D01*
X103387624Y-119770650D01*
X103386712Y-119733624D01*
X103377609Y-119663728D01*
X103358828Y-119616464D01*
X103330476Y-119592168D01*
X103301840Y-119585332D01*
X103251970Y-119588537D01*
X103209833Y-119608380D01*
X103199749Y-119617480D01*
X103189063Y-119633223D01*
X103182456Y-119656658D01*
X103178532Y-119693604D01*
X103175897Y-119749880D01*
X103174749Y-119787236D01*
X103041915Y-119787236D01*
X103041831Y-119768917D01*
X103041944Y-119736184D01*
X103043872Y-119660044D01*
X103049240Y-119603166D01*
X103059406Y-119561249D01*
X103075725Y-119529996D01*
X103099553Y-119505106D01*
X103132247Y-119482282D01*
X103158759Y-119469184D01*
X103221615Y-119454739D01*
X103287869Y-119456707D01*
X103346757Y-119475433D01*
X103372030Y-119487673D01*
X103384742Y-119488938D01*
X103387624Y-119477798D01*
X103387626Y-119477461D01*
X103393838Y-119466087D01*
X103415260Y-119460256D01*
X103456782Y-119458614D01*
X103525940Y-119458614D01*
X103525940Y-119770650D01*
X103525940Y-121019136D01*
G37*
X101614389Y-115290018D02*
X101671237Y-115591570D01*
X101881001Y-115678041D01*
X102090764Y-115764512D01*
X102342410Y-115593395D01*
X102392216Y-115559661D01*
X102458244Y-115515381D01*
X102515410Y-115477561D01*
X102560744Y-115448142D01*
X102591280Y-115429067D01*
X102604046Y-115422278D01*
X102611887Y-115427106D01*
X102635325Y-115447339D01*
X102670794Y-115480543D01*
X102715289Y-115523670D01*
X102765805Y-115573670D01*
X102819336Y-115627495D01*
X102872877Y-115682095D01*
X102923423Y-115734423D01*
X102967968Y-115781428D01*
X103003507Y-115820063D01*
X103027034Y-115847278D01*
X103035544Y-115860024D01*
X103033565Y-115865500D01*
X103019857Y-115889927D01*
X102994825Y-115930129D01*
X102960499Y-115982952D01*
X102918907Y-116045247D01*
X102872079Y-116113862D01*
X102846380Y-116151283D01*
X102802173Y-116216432D01*
X102764272Y-116273289D01*
X102734698Y-116318770D01*
X102715472Y-116349793D01*
X102708614Y-116363274D01*
X102708726Y-116364021D01*
X102714776Y-116381110D01*
X102728654Y-116416006D01*
X102748427Y-116464151D01*
X102772160Y-116520986D01*
X102797918Y-116581953D01*
X102823766Y-116642492D01*
X102847771Y-116698047D01*
X102867998Y-116744057D01*
X102882511Y-116775965D01*
X102889377Y-116789212D01*
X102893439Y-116790387D01*
X102918121Y-116795687D01*
X102962111Y-116804467D01*
X103021887Y-116816040D01*
X103093929Y-116829721D01*
X103174716Y-116844823D01*
X103217294Y-116852830D01*
X103295445Y-116868107D01*
X103363775Y-116882215D01*
X103418551Y-116894345D01*
X103456037Y-116903686D01*
X103472500Y-116909427D01*
X103475457Y-116915119D01*
X103480362Y-116942930D01*
X103484216Y-116989250D01*
X103487021Y-117049720D01*
X103488781Y-117119983D01*
X103489499Y-117195680D01*
X103489177Y-117272453D01*
X103487819Y-117345944D01*
X103485428Y-117411794D01*
X103482006Y-117465645D01*
X103477556Y-117503138D01*
X103472082Y-117519916D01*
X103468760Y-117521809D01*
X103443987Y-117529926D01*
X103401011Y-117540666D01*
X103344802Y-117552853D01*
X103280325Y-117565310D01*
X103258570Y-117569277D01*
X103158093Y-117587729D01*
X103079126Y-117602559D01*
X103018934Y-117614380D01*
X102974778Y-117623809D01*
X102943920Y-117631460D01*
X102923625Y-117637948D01*
X102911154Y-117643888D01*
X102903771Y-117649894D01*
X102902913Y-117650902D01*
X102890838Y-117671919D01*
X102872971Y-117710376D01*
X102851042Y-117761761D01*
X102826784Y-117821563D01*
X102801927Y-117885270D01*
X102778205Y-117948371D01*
X102757347Y-118006355D01*
X102741087Y-118054709D01*
X102731156Y-118088922D01*
X102729285Y-118104483D01*
X102730536Y-118106502D01*
X102743486Y-118126028D01*
X102767840Y-118162042D01*
X102801340Y-118211228D01*
X102841727Y-118270267D01*
X102886745Y-118335842D01*
X102899100Y-118353884D01*
X102942545Y-118418599D01*
X102980091Y-118476476D01*
X103009594Y-118524082D01*
X103028914Y-118557985D01*
X103035905Y-118574752D01*
X103034398Y-118579161D01*
X103018695Y-118600882D01*
X102987714Y-118636354D01*
X102943673Y-118683188D01*
X102888790Y-118738996D01*
X102825286Y-118801392D01*
X102788988Y-118836317D01*
X102731595Y-118890711D01*
X102681361Y-118937302D01*
X102640984Y-118973636D01*
X102613161Y-118997261D01*
X102600590Y-119005724D01*
X102591952Y-119002587D01*
X102565360Y-118987747D01*
X102526741Y-118963477D01*
X102481134Y-118932852D01*
X102448707Y-118910503D01*
X102383970Y-118866122D01*
X102314886Y-118818987D01*
X102251787Y-118776155D01*
X102128178Y-118692547D01*
X102024417Y-118748650D01*
X101999984Y-118761599D01*
X101955552Y-118783749D01*
X101921191Y-118799041D01*
X101902828Y-118804743D01*
X101896818Y-118797421D01*
X101881895Y-118769541D01*
X101859852Y-118723575D01*
X101831917Y-118662441D01*
X101799317Y-118589055D01*
X101763276Y-118506335D01*
X101725023Y-118417197D01*
X101685783Y-118324559D01*
X101646783Y-118231337D01*
X101609249Y-118140450D01*
X101574409Y-118054814D01*
X101543488Y-117977345D01*
X101517714Y-117910962D01*
X101498311Y-117858582D01*
X101486508Y-117823121D01*
X101483531Y-117807496D01*
X101483732Y-117807039D01*
X101497601Y-117792595D01*
X101526611Y-117769974D01*
X101564772Y-117743864D01*
X101576817Y-117735892D01*
X101668469Y-117660256D01*
X101744323Y-117570169D01*
X101802581Y-117469381D01*
X101841448Y-117361640D01*
X101859128Y-117250697D01*
X101853826Y-117140303D01*
X101832347Y-117042115D01*
X101793782Y-116942966D01*
X101737562Y-116854512D01*
X101660410Y-116770487D01*
X101630095Y-116743645D01*
X101532094Y-116677510D01*
X101426227Y-116632970D01*
X101315561Y-116609625D01*
X101203164Y-116607078D01*
X101092105Y-116624929D01*
X100985451Y-116662780D01*
X100886270Y-116720232D01*
X100797631Y-116796887D01*
X100722600Y-116892345D01*
X100708175Y-116915985D01*
X100659143Y-117024034D01*
X100633103Y-117136548D01*
X100629372Y-117250614D01*
X100647268Y-117363318D01*
X100686109Y-117471745D01*
X100745214Y-117572982D01*
X100823900Y-117664114D01*
X100921485Y-117742228D01*
X100924654Y-117744333D01*
X100962411Y-117770940D01*
X100990709Y-117793561D01*
X101003634Y-117807496D01*
X101002003Y-117818421D01*
X100991864Y-117850231D01*
X100973884Y-117899534D01*
X100949292Y-117963413D01*
X100919311Y-118038948D01*
X100885170Y-118123223D01*
X100848092Y-118213320D01*
X100809306Y-118306321D01*
X100770036Y-118399308D01*
X100731509Y-118489364D01*
X100694950Y-118573571D01*
X100661586Y-118649010D01*
X100632643Y-118712765D01*
X100609346Y-118761917D01*
X100592923Y-118793549D01*
X100584598Y-118804743D01*
X100577674Y-118803227D01*
X100550477Y-118792331D01*
X100510280Y-118773228D01*
X100463009Y-118748650D01*
X100359248Y-118692547D01*
X100235639Y-118776155D01*
X100199120Y-118800913D01*
X100131194Y-118847171D01*
X100063475Y-118893503D01*
X100006291Y-118932852D01*
X99974732Y-118954297D01*
X99933714Y-118980939D01*
X99903301Y-118999178D01*
X99888446Y-119005941D01*
X99882065Y-119003070D01*
X99858996Y-118985485D01*
X99823433Y-118954523D01*
X99778471Y-118913231D01*
X99727206Y-118864653D01*
X99672733Y-118811835D01*
X99618148Y-118757823D01*
X99566547Y-118705661D01*
X99521024Y-118658396D01*
X99484675Y-118619072D01*
X99460595Y-118590736D01*
X99451881Y-118576432D01*
X99452383Y-118573711D01*
X99462755Y-118551560D01*
X99484912Y-118513235D01*
X99516712Y-118462200D01*
X99556016Y-118401914D01*
X99600681Y-118335842D01*
X99613207Y-118317617D01*
X99657193Y-118253485D01*
X99695937Y-118196789D01*
X99727182Y-118150844D01*
X99748669Y-118118970D01*
X99758140Y-118104483D01*
X99758373Y-118103862D01*
X99755578Y-118086139D01*
X99744903Y-118050235D01*
X99728081Y-118000662D01*
X99706843Y-117941932D01*
X99682921Y-117878556D01*
X99658046Y-117815046D01*
X99633950Y-117755913D01*
X99612365Y-117705669D01*
X99595023Y-117668826D01*
X99583655Y-117649894D01*
X99582516Y-117648719D01*
X99574376Y-117642773D01*
X99560629Y-117636776D01*
X99538537Y-117630114D01*
X99505363Y-117622173D01*
X99458370Y-117612337D01*
X99394820Y-117599991D01*
X99311976Y-117584520D01*
X99207100Y-117565310D01*
X99185348Y-117561267D01*
X99123036Y-117548769D01*
X99070619Y-117536927D01*
X99033066Y-117526917D01*
X99015343Y-117519916D01*
X99012378Y-117514075D01*
X99007435Y-117486016D01*
X99003518Y-117439500D01*
X99000629Y-117378886D01*
X98998773Y-117308532D01*
X98997952Y-117232796D01*
X98998168Y-117156037D01*
X98999426Y-117082612D01*
X99001728Y-117016880D01*
X99005076Y-116963200D01*
X99009474Y-116925930D01*
X99014926Y-116909427D01*
X99020491Y-116906989D01*
X99048178Y-116899305D01*
X99094979Y-116888436D01*
X99157157Y-116875192D01*
X99230979Y-116860384D01*
X99312710Y-116844823D01*
X99357336Y-116836509D01*
X99433824Y-116822092D01*
X99499660Y-116809467D01*
X99551323Y-116799321D01*
X99585293Y-116792341D01*
X99598048Y-116789212D01*
X99598528Y-116788568D01*
X99606651Y-116772181D01*
X99622137Y-116737852D01*
X99643050Y-116690136D01*
X99667455Y-116633586D01*
X99693416Y-116572758D01*
X99718997Y-116512206D01*
X99742262Y-116456485D01*
X99761277Y-116410150D01*
X99774105Y-116377755D01*
X99778812Y-116363855D01*
X99776736Y-116358965D01*
X99762920Y-116335692D01*
X99737860Y-116296519D01*
X99703568Y-116244520D01*
X99662059Y-116182768D01*
X99615346Y-116114336D01*
X99589718Y-116076860D01*
X99545490Y-116011156D01*
X99507570Y-115953492D01*
X99477980Y-115907014D01*
X99458743Y-115874865D01*
X99451881Y-115860190D01*
X99456649Y-115852230D01*
X99476593Y-115828446D01*
X99509313Y-115792451D01*
X99551805Y-115747295D01*
X99601065Y-115696028D01*
X99654091Y-115641701D01*
X99707877Y-115587364D01*
X99759421Y-115536067D01*
X99805720Y-115490859D01*
X99843769Y-115454792D01*
X99870565Y-115430914D01*
X99883105Y-115422278D01*
X99890066Y-115425636D01*
X99915627Y-115441210D01*
X99956874Y-115467715D01*
X100010837Y-115503210D01*
X100074542Y-115545750D01*
X100145016Y-115593395D01*
X100396662Y-115764512D01*
X100816188Y-115591570D01*
X100873036Y-115290018D01*
X100929885Y-114988466D01*
X101557540Y-114988466D01*
X101614389Y-115290018D01*
G36*
X101614389Y-115290018D02*
G01*
X101671237Y-115591570D01*
X101881001Y-115678041D01*
X102090764Y-115764512D01*
X102342410Y-115593395D01*
X102392216Y-115559661D01*
X102458244Y-115515381D01*
X102515410Y-115477561D01*
X102560744Y-115448142D01*
X102591280Y-115429067D01*
X102604046Y-115422278D01*
X102611887Y-115427106D01*
X102635325Y-115447339D01*
X102670794Y-115480543D01*
X102715289Y-115523670D01*
X102765805Y-115573670D01*
X102819336Y-115627495D01*
X102872877Y-115682095D01*
X102923423Y-115734423D01*
X102967968Y-115781428D01*
X103003507Y-115820063D01*
X103027034Y-115847278D01*
X103035544Y-115860024D01*
X103033565Y-115865500D01*
X103019857Y-115889927D01*
X102994825Y-115930129D01*
X102960499Y-115982952D01*
X102918907Y-116045247D01*
X102872079Y-116113862D01*
X102846380Y-116151283D01*
X102802173Y-116216432D01*
X102764272Y-116273289D01*
X102734698Y-116318770D01*
X102715472Y-116349793D01*
X102708614Y-116363274D01*
X102708726Y-116364021D01*
X102714776Y-116381110D01*
X102728654Y-116416006D01*
X102748427Y-116464151D01*
X102772160Y-116520986D01*
X102797918Y-116581953D01*
X102823766Y-116642492D01*
X102847771Y-116698047D01*
X102867998Y-116744057D01*
X102882511Y-116775965D01*
X102889377Y-116789212D01*
X102893439Y-116790387D01*
X102918121Y-116795687D01*
X102962111Y-116804467D01*
X103021887Y-116816040D01*
X103093929Y-116829721D01*
X103174716Y-116844823D01*
X103217294Y-116852830D01*
X103295445Y-116868107D01*
X103363775Y-116882215D01*
X103418551Y-116894345D01*
X103456037Y-116903686D01*
X103472500Y-116909427D01*
X103475457Y-116915119D01*
X103480362Y-116942930D01*
X103484216Y-116989250D01*
X103487021Y-117049720D01*
X103488781Y-117119983D01*
X103489499Y-117195680D01*
X103489177Y-117272453D01*
X103487819Y-117345944D01*
X103485428Y-117411794D01*
X103482006Y-117465645D01*
X103477556Y-117503138D01*
X103472082Y-117519916D01*
X103468760Y-117521809D01*
X103443987Y-117529926D01*
X103401011Y-117540666D01*
X103344802Y-117552853D01*
X103280325Y-117565310D01*
X103258570Y-117569277D01*
X103158093Y-117587729D01*
X103079126Y-117602559D01*
X103018934Y-117614380D01*
X102974778Y-117623809D01*
X102943920Y-117631460D01*
X102923625Y-117637948D01*
X102911154Y-117643888D01*
X102903771Y-117649894D01*
X102902913Y-117650902D01*
X102890838Y-117671919D01*
X102872971Y-117710376D01*
X102851042Y-117761761D01*
X102826784Y-117821563D01*
X102801927Y-117885270D01*
X102778205Y-117948371D01*
X102757347Y-118006355D01*
X102741087Y-118054709D01*
X102731156Y-118088922D01*
X102729285Y-118104483D01*
X102730536Y-118106502D01*
X102743486Y-118126028D01*
X102767840Y-118162042D01*
X102801340Y-118211228D01*
X102841727Y-118270267D01*
X102886745Y-118335842D01*
X102899100Y-118353884D01*
X102942545Y-118418599D01*
X102980091Y-118476476D01*
X103009594Y-118524082D01*
X103028914Y-118557985D01*
X103035905Y-118574752D01*
X103034398Y-118579161D01*
X103018695Y-118600882D01*
X102987714Y-118636354D01*
X102943673Y-118683188D01*
X102888790Y-118738996D01*
X102825286Y-118801392D01*
X102788988Y-118836317D01*
X102731595Y-118890711D01*
X102681361Y-118937302D01*
X102640984Y-118973636D01*
X102613161Y-118997261D01*
X102600590Y-119005724D01*
X102591952Y-119002587D01*
X102565360Y-118987747D01*
X102526741Y-118963477D01*
X102481134Y-118932852D01*
X102448707Y-118910503D01*
X102383970Y-118866122D01*
X102314886Y-118818987D01*
X102251787Y-118776155D01*
X102128178Y-118692547D01*
X102024417Y-118748650D01*
X101999984Y-118761599D01*
X101955552Y-118783749D01*
X101921191Y-118799041D01*
X101902828Y-118804743D01*
X101896818Y-118797421D01*
X101881895Y-118769541D01*
X101859852Y-118723575D01*
X101831917Y-118662441D01*
X101799317Y-118589055D01*
X101763276Y-118506335D01*
X101725023Y-118417197D01*
X101685783Y-118324559D01*
X101646783Y-118231337D01*
X101609249Y-118140450D01*
X101574409Y-118054814D01*
X101543488Y-117977345D01*
X101517714Y-117910962D01*
X101498311Y-117858582D01*
X101486508Y-117823121D01*
X101483531Y-117807496D01*
X101483732Y-117807039D01*
X101497601Y-117792595D01*
X101526611Y-117769974D01*
X101564772Y-117743864D01*
X101576817Y-117735892D01*
X101668469Y-117660256D01*
X101744323Y-117570169D01*
X101802581Y-117469381D01*
X101841448Y-117361640D01*
X101859128Y-117250697D01*
X101853826Y-117140303D01*
X101832347Y-117042115D01*
X101793782Y-116942966D01*
X101737562Y-116854512D01*
X101660410Y-116770487D01*
X101630095Y-116743645D01*
X101532094Y-116677510D01*
X101426227Y-116632970D01*
X101315561Y-116609625D01*
X101203164Y-116607078D01*
X101092105Y-116624929D01*
X100985451Y-116662780D01*
X100886270Y-116720232D01*
X100797631Y-116796887D01*
X100722600Y-116892345D01*
X100708175Y-116915985D01*
X100659143Y-117024034D01*
X100633103Y-117136548D01*
X100629372Y-117250614D01*
X100647268Y-117363318D01*
X100686109Y-117471745D01*
X100745214Y-117572982D01*
X100823900Y-117664114D01*
X100921485Y-117742228D01*
X100924654Y-117744333D01*
X100962411Y-117770940D01*
X100990709Y-117793561D01*
X101003634Y-117807496D01*
X101002003Y-117818421D01*
X100991864Y-117850231D01*
X100973884Y-117899534D01*
X100949292Y-117963413D01*
X100919311Y-118038948D01*
X100885170Y-118123223D01*
X100848092Y-118213320D01*
X100809306Y-118306321D01*
X100770036Y-118399308D01*
X100731509Y-118489364D01*
X100694950Y-118573571D01*
X100661586Y-118649010D01*
X100632643Y-118712765D01*
X100609346Y-118761917D01*
X100592923Y-118793549D01*
X100584598Y-118804743D01*
X100577674Y-118803227D01*
X100550477Y-118792331D01*
X100510280Y-118773228D01*
X100463009Y-118748650D01*
X100359248Y-118692547D01*
X100235639Y-118776155D01*
X100199120Y-118800913D01*
X100131194Y-118847171D01*
X100063475Y-118893503D01*
X100006291Y-118932852D01*
X99974732Y-118954297D01*
X99933714Y-118980939D01*
X99903301Y-118999178D01*
X99888446Y-119005941D01*
X99882065Y-119003070D01*
X99858996Y-118985485D01*
X99823433Y-118954523D01*
X99778471Y-118913231D01*
X99727206Y-118864653D01*
X99672733Y-118811835D01*
X99618148Y-118757823D01*
X99566547Y-118705661D01*
X99521024Y-118658396D01*
X99484675Y-118619072D01*
X99460595Y-118590736D01*
X99451881Y-118576432D01*
X99452383Y-118573711D01*
X99462755Y-118551560D01*
X99484912Y-118513235D01*
X99516712Y-118462200D01*
X99556016Y-118401914D01*
X99600681Y-118335842D01*
X99613207Y-118317617D01*
X99657193Y-118253485D01*
X99695937Y-118196789D01*
X99727182Y-118150844D01*
X99748669Y-118118970D01*
X99758140Y-118104483D01*
X99758373Y-118103862D01*
X99755578Y-118086139D01*
X99744903Y-118050235D01*
X99728081Y-118000662D01*
X99706843Y-117941932D01*
X99682921Y-117878556D01*
X99658046Y-117815046D01*
X99633950Y-117755913D01*
X99612365Y-117705669D01*
X99595023Y-117668826D01*
X99583655Y-117649894D01*
X99582516Y-117648719D01*
X99574376Y-117642773D01*
X99560629Y-117636776D01*
X99538537Y-117630114D01*
X99505363Y-117622173D01*
X99458370Y-117612337D01*
X99394820Y-117599991D01*
X99311976Y-117584520D01*
X99207100Y-117565310D01*
X99185348Y-117561267D01*
X99123036Y-117548769D01*
X99070619Y-117536927D01*
X99033066Y-117526917D01*
X99015343Y-117519916D01*
X99012378Y-117514075D01*
X99007435Y-117486016D01*
X99003518Y-117439500D01*
X99000629Y-117378886D01*
X98998773Y-117308532D01*
X98997952Y-117232796D01*
X98998168Y-117156037D01*
X98999426Y-117082612D01*
X99001728Y-117016880D01*
X99005076Y-116963200D01*
X99009474Y-116925930D01*
X99014926Y-116909427D01*
X99020491Y-116906989D01*
X99048178Y-116899305D01*
X99094979Y-116888436D01*
X99157157Y-116875192D01*
X99230979Y-116860384D01*
X99312710Y-116844823D01*
X99357336Y-116836509D01*
X99433824Y-116822092D01*
X99499660Y-116809467D01*
X99551323Y-116799321D01*
X99585293Y-116792341D01*
X99598048Y-116789212D01*
X99598528Y-116788568D01*
X99606651Y-116772181D01*
X99622137Y-116737852D01*
X99643050Y-116690136D01*
X99667455Y-116633586D01*
X99693416Y-116572758D01*
X99718997Y-116512206D01*
X99742262Y-116456485D01*
X99761277Y-116410150D01*
X99774105Y-116377755D01*
X99778812Y-116363855D01*
X99776736Y-116358965D01*
X99762920Y-116335692D01*
X99737860Y-116296519D01*
X99703568Y-116244520D01*
X99662059Y-116182768D01*
X99615346Y-116114336D01*
X99589718Y-116076860D01*
X99545490Y-116011156D01*
X99507570Y-115953492D01*
X99477980Y-115907014D01*
X99458743Y-115874865D01*
X99451881Y-115860190D01*
X99456649Y-115852230D01*
X99476593Y-115828446D01*
X99509313Y-115792451D01*
X99551805Y-115747295D01*
X99601065Y-115696028D01*
X99654091Y-115641701D01*
X99707877Y-115587364D01*
X99759421Y-115536067D01*
X99805720Y-115490859D01*
X99843769Y-115454792D01*
X99870565Y-115430914D01*
X99883105Y-115422278D01*
X99890066Y-115425636D01*
X99915627Y-115441210D01*
X99956874Y-115467715D01*
X100010837Y-115503210D01*
X100074542Y-115545750D01*
X100145016Y-115593395D01*
X100396662Y-115764512D01*
X100816188Y-115591570D01*
X100873036Y-115290018D01*
X100929885Y-114988466D01*
X101557540Y-114988466D01*
X101614389Y-115290018D01*
G37*
D11*
%TO.C,U5*%
X111140000Y-99890000D02*
X111140000Y-100590000D01*
X111840000Y-99890000D02*
X111140000Y-99890000D01*
X111840000Y-104110000D02*
X111140000Y-104110000D01*
X114660000Y-99890000D02*
X115360000Y-99890000D01*
X114660000Y-104110000D02*
X115360000Y-104110000D01*
X115360000Y-99890000D02*
X115360000Y-100590000D01*
X115360000Y-104110000D02*
X115360000Y-103410000D01*
%TO.C,C10*%
X117515000Y-106761252D02*
X117515000Y-106238748D01*
X118985000Y-106761252D02*
X118985000Y-106238748D01*
%TO.C,R13*%
X145512742Y-105227500D02*
X145987258Y-105227500D01*
X145512742Y-106272500D02*
X145987258Y-106272500D01*
%TO.C,C8*%
X110515000Y-119261252D02*
X110515000Y-118738748D01*
X111985000Y-119261252D02*
X111985000Y-118738748D01*
%TO.C,D7*%
X153790000Y-101435000D02*
X153790000Y-98750000D01*
X155710000Y-101435000D02*
X153790000Y-101435000D01*
X155710000Y-98750000D02*
X155710000Y-101435000D01*
%TO.C,R7*%
X122885000Y-101022936D02*
X122885000Y-101477064D01*
X121415000Y-101022936D02*
X121415000Y-101477064D01*
%TO.C,C1*%
X140556168Y-101405000D02*
X140033664Y-101405000D01*
X140556168Y-99935000D02*
X140033664Y-99935000D01*
%TO.C,D1*%
X133834916Y-99400000D02*
X137694916Y-99400000D01*
X133834916Y-101400000D02*
X133834916Y-99400000D01*
X133834916Y-101400000D02*
X137694916Y-101400000D01*
%TO.C,R6*%
X120985000Y-101022936D02*
X120985000Y-101477064D01*
X119515000Y-101022936D02*
X119515000Y-101477064D01*
%TO.C,R11*%
X108261237Y-120855000D02*
X106813763Y-120855000D01*
X108261237Y-118145000D02*
X106813763Y-118145000D01*
%TO.C,R1*%
X130985000Y-108772936D02*
X130985000Y-109227064D01*
X129515000Y-108772936D02*
X129515000Y-109227064D01*
%TO.C,R8*%
X119515000Y-108727064D02*
X119515000Y-108272936D01*
X120985000Y-108727064D02*
X120985000Y-108272936D01*
%TO.C,C6*%
X140385000Y-108738748D02*
X140385000Y-109261252D01*
X138915000Y-108738748D02*
X138915000Y-109261252D01*
%TO.C,R9*%
X124973737Y-110855000D02*
X123526263Y-110855000D01*
X124973737Y-108145000D02*
X123526263Y-108145000D01*
%TO.C,C9*%
X117515000Y-103261252D02*
X117515000Y-102738748D01*
X118985000Y-103261252D02*
X118985000Y-102738748D01*
%TO.C,R17*%
X139165000Y-116727064D02*
X139165000Y-116272936D01*
X140635000Y-116727064D02*
X140635000Y-116272936D01*
%TO.C,R3*%
X136085000Y-108772936D02*
X136085000Y-109227064D01*
X134615000Y-108772936D02*
X134615000Y-109227064D01*
%TO.C,D3*%
X142850000Y-109890000D02*
X142850000Y-112550000D01*
X141150000Y-109890000D02*
X142850000Y-109890000D01*
X141150000Y-109890000D02*
X141150000Y-112550000D01*
%TO.C,D2*%
X126500000Y-103290000D02*
X126500000Y-107150000D01*
X124500000Y-103290000D02*
X126500000Y-103290000D01*
X124500000Y-103290000D02*
X124500000Y-107150000D01*
%TO.C,Q1*%
X145062500Y-109940000D02*
X144412500Y-109940000D01*
X145062500Y-109940000D02*
X145712500Y-109940000D01*
X145062500Y-113060000D02*
X143387500Y-113060000D01*
X145062500Y-113060000D02*
X145712500Y-113060000D01*
%TO.C,C5*%
X126235000Y-101088748D02*
X126235000Y-101611252D01*
X124765000Y-101088748D02*
X124765000Y-101611252D01*
%TO.C,U4*%
X119630000Y-103250000D02*
X119630000Y-105250000D01*
X121870000Y-105250000D02*
X121870000Y-104250000D01*
%TO.C,R16*%
X136765000Y-116727064D02*
X136765000Y-116272936D01*
X138235000Y-116727064D02*
X138235000Y-116272936D01*
%TO.C,J1*%
X148060000Y-121660000D02*
X141940000Y-121660000D01*
X148060000Y-115440000D02*
X147140000Y-115440000D01*
X148060000Y-113840000D02*
X148060000Y-121660000D01*
X147300000Y-119400000D02*
X146300000Y-119400000D01*
X147300000Y-117800000D02*
X147300000Y-119400000D01*
X147140000Y-115440000D02*
X147140000Y-113840000D01*
X147140000Y-113840000D02*
X148060000Y-113840000D01*
X146860000Y-115440000D02*
X147140000Y-115440000D01*
X146860000Y-115440000D02*
X146860000Y-114225000D01*
X146800000Y-119400000D02*
X146800000Y-121660000D01*
X146300000Y-119400000D02*
X146300000Y-121660000D01*
X146300000Y-119400000D02*
X146300000Y-117800000D01*
X146300000Y-117800000D02*
X147300000Y-117800000D01*
X145500000Y-121660000D02*
X145500000Y-117300000D01*
X145500000Y-117300000D02*
X144500000Y-117300000D01*
X144500000Y-117300000D02*
X144500000Y-121660000D01*
X143700000Y-119400000D02*
X143700000Y-117800000D01*
X143700000Y-117800000D02*
X142700000Y-117800000D01*
X142860000Y-115440000D02*
X143140000Y-115440000D01*
X142860000Y-113840000D02*
X142860000Y-115440000D01*
X142700000Y-119400000D02*
X143700000Y-119400000D01*
X142700000Y-117800000D02*
X142700000Y-119400000D01*
X141940000Y-121660000D02*
X141940000Y-113840000D01*
X141940000Y-115440000D02*
X142860000Y-115440000D01*
X141940000Y-113840000D02*
X142860000Y-113840000D01*
%TO.C,SW2*%
X95400000Y-108000000D02*
X94200000Y-108000000D01*
X95400000Y-108000000D02*
X95400000Y-108100000D01*
X95400000Y-109500000D02*
X95400000Y-111500000D01*
X95400000Y-113000000D02*
X95400000Y-112900000D01*
X95400000Y-113000000D02*
X94200000Y-113000000D01*
%TO.C,R2*%
X133735000Y-108772936D02*
X133735000Y-109227064D01*
X132265000Y-108772936D02*
X132265000Y-109227064D01*
%TO.C,R18*%
X151977064Y-114985000D02*
X151522936Y-114985000D01*
X151977064Y-113515000D02*
X151522936Y-113515000D01*
%TO.C,R15*%
X94272936Y-113765000D02*
X94727064Y-113765000D01*
X94272936Y-115235000D02*
X94727064Y-115235000D01*
%TO.C,U3*%
X116310000Y-117440000D02*
X115885000Y-117440000D01*
X116310000Y-117865000D02*
X116310000Y-117440000D01*
X113190000Y-117865000D02*
X113190000Y-117440000D01*
X116310000Y-120135000D02*
X116310000Y-120560000D01*
X113190000Y-120135000D02*
X113190000Y-120560000D01*
X116310000Y-120560000D02*
X115885000Y-120560000D01*
X113190000Y-120560000D02*
X113615000Y-120560000D01*
%TO.C,R10*%
X126723737Y-120855000D02*
X125276263Y-120855000D01*
X126723737Y-118145000D02*
X125276263Y-118145000D01*
%TO.C,U6*%
X106750000Y-100200000D02*
X105950000Y-100200000D01*
X106750000Y-100800000D02*
X106750000Y-100200000D01*
X104750000Y-100800000D02*
X104750000Y-100200000D01*
X106750000Y-103800000D02*
X106750000Y-103200000D01*
X106050000Y-103800000D02*
X106750000Y-103800000D01*
X104750000Y-103800000D02*
X104750000Y-103200000D01*
X104750000Y-103800000D02*
X105450000Y-103800000D01*
%TO.C,D4*%
X136540000Y-121685000D02*
X136540000Y-119000000D01*
X138460000Y-121685000D02*
X136540000Y-121685000D01*
X138460000Y-119000000D02*
X138460000Y-121685000D01*
%TO.C,R14*%
X145512742Y-108227500D02*
X145987258Y-108227500D01*
X145512742Y-109272500D02*
X145987258Y-109272500D01*
%TO.C,J3*%
X154350000Y-102330000D02*
X155500000Y-102330000D01*
X152250000Y-102330000D02*
X150450000Y-102330000D01*
X154350000Y-111670000D02*
X155500000Y-111670000D01*
X152250000Y-111670000D02*
X150450000Y-111670000D01*
%TO.C,D6*%
X155710000Y-112565000D02*
X155710000Y-115250000D01*
X153790000Y-112565000D02*
X155710000Y-112565000D01*
X153790000Y-115250000D02*
X153790000Y-112565000D01*
%TO.C,G\u002A\u002A\u002A*%
G36*
X99139608Y-103594215D02*
G01*
X99158815Y-103608672D01*
X99186351Y-103623247D01*
X99221817Y-103636849D01*
X99222028Y-103636920D01*
X99230104Y-103639689D01*
X99237493Y-103642264D01*
X99244556Y-103644653D01*
X99251653Y-103646862D01*
X99259144Y-103648899D01*
X99267391Y-103650770D01*
X99276753Y-103652482D01*
X99287592Y-103654043D01*
X99300267Y-103655459D01*
X99315139Y-103656738D01*
X99332569Y-103657886D01*
X99352917Y-103658910D01*
X99376544Y-103659818D01*
X99403809Y-103660617D01*
X99435074Y-103661312D01*
X99470700Y-103661913D01*
X99511045Y-103662424D01*
X99556472Y-103662854D01*
X99607340Y-103663210D01*
X99664010Y-103663498D01*
X99726843Y-103663726D01*
X99796199Y-103663900D01*
X99872438Y-103664028D01*
X99955921Y-103664116D01*
X100047008Y-103664172D01*
X100146061Y-103664202D01*
X100253439Y-103664214D01*
X100369502Y-103664214D01*
X100494612Y-103664210D01*
X100629129Y-103664208D01*
X101907431Y-103664228D01*
X101907431Y-104010487D01*
X101907431Y-104356746D01*
X101872025Y-104333418D01*
X101851592Y-104320745D01*
X101815292Y-104302932D01*
X101777701Y-104291305D01*
X101734881Y-104284458D01*
X101734343Y-104284404D01*
X101721601Y-104283647D01*
X101700014Y-104282926D01*
X101670443Y-104282252D01*
X101633750Y-104281634D01*
X101590797Y-104281082D01*
X101542444Y-104280606D01*
X101489554Y-104280215D01*
X101432988Y-104279920D01*
X101373608Y-104279731D01*
X101312276Y-104279656D01*
X100934443Y-104279571D01*
X100951410Y-104298352D01*
X100989267Y-104346990D01*
X101022183Y-104404092D01*
X101048941Y-104467970D01*
X101069344Y-104538067D01*
X101083198Y-104613824D01*
X101090306Y-104694684D01*
X101089637Y-104778890D01*
X101080085Y-104859838D01*
X101061815Y-104936791D01*
X101035014Y-105009534D01*
X100999871Y-105077850D01*
X100956574Y-105141524D01*
X100905311Y-105200340D01*
X100846269Y-105254082D01*
X100779638Y-105302536D01*
X100705604Y-105345486D01*
X100624357Y-105382715D01*
X100536084Y-105414008D01*
X100440973Y-105439150D01*
X100412133Y-105445219D01*
X100339615Y-105457708D01*
X100262305Y-105467584D01*
X100182205Y-105474758D01*
X100101315Y-105479142D01*
X100044584Y-105480214D01*
X100021638Y-105480648D01*
X99945175Y-105479188D01*
X99873926Y-105474672D01*
X99809892Y-105467013D01*
X99783992Y-105462736D01*
X99685882Y-105441353D01*
X99594332Y-105412793D01*
X99509366Y-105377065D01*
X99431011Y-105334184D01*
X99359293Y-105284159D01*
X99294236Y-105227004D01*
X99239980Y-105167882D01*
X99192792Y-105103354D01*
X99154599Y-105035207D01*
X99125278Y-104963225D01*
X99104709Y-104887192D01*
X99102146Y-104874635D01*
X99097849Y-104852542D01*
X99094470Y-104833861D01*
X99092577Y-104821659D01*
X99092019Y-104811974D01*
X99091665Y-104794122D01*
X99091550Y-104770211D01*
X99091682Y-104742133D01*
X99092071Y-104711777D01*
X99093023Y-104676083D01*
X99095664Y-104631678D01*
X99100188Y-104592577D01*
X99102966Y-104577767D01*
X99559957Y-104577767D01*
X99561357Y-104606617D01*
X99564878Y-104628957D01*
X99566457Y-104634865D01*
X99579781Y-104670809D01*
X99599198Y-104702830D01*
X99626442Y-104733884D01*
X99636654Y-104743547D01*
X99670548Y-104769714D01*
X99709706Y-104791652D01*
X99754794Y-104809557D01*
X99806483Y-104823621D01*
X99865440Y-104834041D01*
X99932334Y-104841009D01*
X100007835Y-104844720D01*
X100044584Y-104845386D01*
X100136527Y-104843988D01*
X100221642Y-104838088D01*
X100299633Y-104827756D01*
X100370202Y-104813061D01*
X100433054Y-104794073D01*
X100487891Y-104770862D01*
X100534417Y-104743497D01*
X100572336Y-104712048D01*
X100596236Y-104685127D01*
X100618700Y-104649747D01*
X100633325Y-104611195D01*
X100640619Y-104568045D01*
X100641090Y-104518871D01*
X100640232Y-104505975D01*
X100637631Y-104480125D01*
X100634213Y-104456268D01*
X100630490Y-104438291D01*
X100625697Y-104422760D01*
X100613401Y-104391420D01*
X100597927Y-104358912D01*
X100581037Y-104328805D01*
X100564494Y-104304665D01*
X100544659Y-104279571D01*
X100105851Y-104279571D01*
X99667044Y-104279571D01*
X99641888Y-104315961D01*
X99617147Y-104355492D01*
X99591412Y-104406963D01*
X99572597Y-104458001D01*
X99567131Y-104482080D01*
X99562979Y-104512506D01*
X99560542Y-104545399D01*
X99559957Y-104577767D01*
X99102966Y-104577767D01*
X99107013Y-104556197D01*
X99116554Y-104519956D01*
X99129227Y-104481272D01*
X99149123Y-104431800D01*
X99178963Y-104373403D01*
X99213556Y-104319417D01*
X99251379Y-104272445D01*
X99276110Y-104245386D01*
X99202365Y-104245386D01*
X99128620Y-104245386D01*
X99128620Y-103914886D01*
X99128620Y-103584387D01*
X99139608Y-103594215D01*
G37*
G36*
X99332927Y-107424498D02*
G01*
X99343957Y-107429660D01*
X99362750Y-107439760D01*
X99389031Y-107454637D01*
X99422529Y-107474137D01*
X99462969Y-107498100D01*
X99510079Y-107526369D01*
X99563586Y-107558788D01*
X99590983Y-107575468D01*
X99632935Y-107601067D01*
X99671994Y-107624968D01*
X99707380Y-107646689D01*
X99738312Y-107665751D01*
X99764012Y-107681671D01*
X99783699Y-107693970D01*
X99796593Y-107702166D01*
X99801916Y-107705778D01*
X99803579Y-107707394D01*
X99805217Y-107712288D01*
X99798491Y-107717247D01*
X99794206Y-107720271D01*
X99782869Y-107730743D01*
X99767790Y-107746460D01*
X99750361Y-107765825D01*
X99731969Y-107787242D01*
X99714005Y-107809111D01*
X99697858Y-107829837D01*
X99684918Y-107847821D01*
X99666281Y-107876990D01*
X99632662Y-107940306D01*
X99607128Y-108004997D01*
X99590409Y-108069347D01*
X99585355Y-108099675D01*
X99579523Y-108169846D01*
X99582722Y-108236709D01*
X99595099Y-108300882D01*
X99616801Y-108362984D01*
X99647974Y-108423631D01*
X99688765Y-108483442D01*
X99719414Y-108519493D01*
X99769779Y-108566256D01*
X99828105Y-108607974D01*
X99894068Y-108644496D01*
X99967343Y-108675670D01*
X100047607Y-108701344D01*
X100134535Y-108721367D01*
X100227802Y-108735588D01*
X100241725Y-108737149D01*
X100333615Y-108744362D01*
X100428202Y-108746800D01*
X100522651Y-108744519D01*
X100614125Y-108737577D01*
X100699791Y-108726032D01*
X100748987Y-108716891D01*
X100839962Y-108695051D01*
X100922847Y-108668189D01*
X100997584Y-108636343D01*
X101064113Y-108599552D01*
X101122377Y-108557856D01*
X101172317Y-108511292D01*
X101213876Y-108459901D01*
X101246994Y-108403720D01*
X101271615Y-108342790D01*
X101272697Y-108339382D01*
X101288237Y-108274451D01*
X101295467Y-108206880D01*
X101294509Y-108138397D01*
X101285483Y-108070732D01*
X101268510Y-108005614D01*
X101243712Y-107944770D01*
X101237499Y-107932495D01*
X101208552Y-107883314D01*
X101175334Y-107839867D01*
X101135460Y-107798943D01*
X101125590Y-107789501D01*
X101113234Y-107776485D01*
X101105868Y-107767016D01*
X101104690Y-107762514D01*
X101106330Y-107761395D01*
X101115172Y-107755321D01*
X101130901Y-107744500D01*
X101152762Y-107729450D01*
X101180002Y-107710690D01*
X101211867Y-107688739D01*
X101247604Y-107664116D01*
X101286460Y-107637341D01*
X101327681Y-107608932D01*
X101349769Y-107593718D01*
X101389920Y-107566121D01*
X101427366Y-107540456D01*
X101461344Y-107517241D01*
X101491094Y-107496993D01*
X101515855Y-107480230D01*
X101534865Y-107467469D01*
X101547364Y-107459228D01*
X101552590Y-107456024D01*
X101556013Y-107455997D01*
X101559894Y-107461960D01*
X101562935Y-107476323D01*
X101564239Y-107482074D01*
X101570344Y-107499524D01*
X101580744Y-107523990D01*
X101595023Y-107554520D01*
X101612763Y-107590162D01*
X101640834Y-107646508D01*
X101677979Y-107726718D01*
X101709006Y-107801955D01*
X101734267Y-107873500D01*
X101754115Y-107942634D01*
X101768903Y-108010639D01*
X101778984Y-108078797D01*
X101784711Y-108148390D01*
X101786437Y-108220698D01*
X101785181Y-108274930D01*
X101775996Y-108379482D01*
X101757941Y-108480240D01*
X101731053Y-108577050D01*
X101695372Y-108669759D01*
X101650936Y-108758213D01*
X101635459Y-108784802D01*
X101574891Y-108876549D01*
X101506617Y-108962531D01*
X101431137Y-109042207D01*
X101348951Y-109115037D01*
X101260557Y-109180482D01*
X101199415Y-109218825D01*
X101107323Y-109267138D01*
X101008653Y-109308617D01*
X100903763Y-109343133D01*
X100793008Y-109370557D01*
X100676745Y-109390762D01*
X100673096Y-109391249D01*
X100644602Y-109394138D01*
X100608505Y-109396619D01*
X100566674Y-109398659D01*
X100520974Y-109400224D01*
X100473272Y-109401283D01*
X100425435Y-109401804D01*
X100379329Y-109401752D01*
X100336820Y-109401097D01*
X100299776Y-109399806D01*
X100270063Y-109397845D01*
X100241832Y-109395060D01*
X100121067Y-109377839D01*
X100004952Y-109352503D01*
X99893741Y-109319160D01*
X99787686Y-109277917D01*
X99687038Y-109228882D01*
X99592052Y-109172162D01*
X99502978Y-109107865D01*
X99420071Y-109036097D01*
X99371481Y-108987279D01*
X99305883Y-108910354D01*
X99248807Y-108828742D01*
X99200214Y-108742366D01*
X99160069Y-108651148D01*
X99128335Y-108555012D01*
X99104973Y-108453879D01*
X99089947Y-108347674D01*
X99088975Y-108335965D01*
X99087519Y-108304923D01*
X99086861Y-108267478D01*
X99086952Y-108225893D01*
X99087742Y-108182433D01*
X99089179Y-108139362D01*
X99091215Y-108098943D01*
X99093798Y-108063441D01*
X99096879Y-108035118D01*
X99100401Y-108011250D01*
X99122194Y-107903134D01*
X99153195Y-107798029D01*
X99193529Y-107695557D01*
X99243323Y-107595340D01*
X99253898Y-107575820D01*
X99267372Y-107550346D01*
X99281402Y-107523305D01*
X99295130Y-107496396D01*
X99307699Y-107471316D01*
X99318251Y-107449764D01*
X99325928Y-107433438D01*
X99329872Y-107424035D01*
X99332927Y-107424498D01*
G37*
G36*
X99159907Y-105649664D02*
G01*
X99172614Y-105658296D01*
X99197477Y-105673076D01*
X99222781Y-105684543D01*
X99253153Y-105694943D01*
X99253580Y-105695072D01*
X99258476Y-105696216D01*
X99265335Y-105697254D01*
X99274675Y-105698193D01*
X99287017Y-105699044D01*
X99302883Y-105699815D01*
X99322791Y-105700515D01*
X99347263Y-105701155D01*
X99376819Y-105701742D01*
X99411979Y-105702286D01*
X99453263Y-105702797D01*
X99501193Y-105703284D01*
X99556288Y-105703755D01*
X99619069Y-105704221D01*
X99690055Y-105704690D01*
X99769769Y-105705172D01*
X99858729Y-105705675D01*
X99911399Y-105705966D01*
X99995669Y-105706438D01*
X100071118Y-105706888D01*
X100138347Y-105707338D01*
X100197956Y-105707811D01*
X100250547Y-105708328D01*
X100296720Y-105708913D01*
X100337075Y-105709587D01*
X100372214Y-105710373D01*
X100402737Y-105711294D01*
X100429245Y-105712372D01*
X100452339Y-105713629D01*
X100472619Y-105715089D01*
X100490687Y-105716772D01*
X100507143Y-105718702D01*
X100522587Y-105720901D01*
X100537621Y-105723392D01*
X100552846Y-105726196D01*
X100568862Y-105729338D01*
X100586269Y-105732837D01*
X100614290Y-105739226D01*
X100656699Y-105751063D01*
X100699842Y-105765253D01*
X100740241Y-105780628D01*
X100774419Y-105796020D01*
X100801004Y-105810318D01*
X100857365Y-105848010D01*
X100907526Y-105892718D01*
X100951571Y-105944581D01*
X100989581Y-106003737D01*
X101021639Y-106070325D01*
X101047826Y-106144483D01*
X101068226Y-106226350D01*
X101082920Y-106316064D01*
X101085219Y-106339184D01*
X101087373Y-106375289D01*
X101088716Y-106417162D01*
X101089265Y-106462597D01*
X101089033Y-106509386D01*
X101088035Y-106555322D01*
X101086286Y-106598197D01*
X101083801Y-106635803D01*
X101080594Y-106665934D01*
X101079621Y-106672371D01*
X101075507Y-106695263D01*
X101069470Y-106725214D01*
X101061890Y-106760485D01*
X101053146Y-106799336D01*
X101043619Y-106840027D01*
X101033688Y-106880816D01*
X101029378Y-106898179D01*
X101015720Y-106953626D01*
X101004249Y-107000998D01*
X100994729Y-107041359D01*
X100986921Y-107075776D01*
X100980588Y-107105314D01*
X100975493Y-107131039D01*
X100971399Y-107154016D01*
X100968067Y-107175311D01*
X100962440Y-107213963D01*
X100754884Y-107128096D01*
X100717775Y-107112734D01*
X100677820Y-107096173D01*
X100641492Y-107081091D01*
X100609691Y-107067864D01*
X100583316Y-107056867D01*
X100563268Y-107048473D01*
X100550447Y-107043059D01*
X100545754Y-107041000D01*
X100546522Y-107037881D01*
X100550707Y-107027538D01*
X100557722Y-107011758D01*
X100566768Y-106992391D01*
X100577982Y-106968371D01*
X100610166Y-106891896D01*
X100635034Y-106818942D01*
X100653041Y-106747808D01*
X100664640Y-106676791D01*
X100670284Y-106604192D01*
X100671114Y-106580051D01*
X100671534Y-106555406D01*
X100671061Y-106536222D01*
X100669540Y-106520074D01*
X100666814Y-106504536D01*
X100662725Y-106487183D01*
X100649943Y-106448364D01*
X100629134Y-106409611D01*
X100601678Y-106377506D01*
X100567323Y-106351864D01*
X100525819Y-106332506D01*
X100476912Y-106319248D01*
X100420352Y-106311908D01*
X100376399Y-106308679D01*
X100376399Y-106489405D01*
X100376385Y-106510667D01*
X100376175Y-106562218D01*
X100375633Y-106606103D01*
X100374658Y-106643855D01*
X100373148Y-106677008D01*
X100371001Y-106707094D01*
X100368117Y-106735648D01*
X100364394Y-106764202D01*
X100359729Y-106794291D01*
X100354023Y-106827447D01*
X100342147Y-106885656D01*
X100318982Y-106968964D01*
X100289361Y-107046291D01*
X100252802Y-107118836D01*
X100208822Y-107187800D01*
X100184857Y-107219576D01*
X100135215Y-107274124D01*
X100080746Y-107320210D01*
X100021398Y-107357859D01*
X99957120Y-107387097D01*
X99887862Y-107407950D01*
X99813570Y-107420443D01*
X99734196Y-107424601D01*
X99713381Y-107423609D01*
X99658858Y-107421011D01*
X99579482Y-107408818D01*
X99504756Y-107388271D01*
X99435017Y-107359660D01*
X99370600Y-107323274D01*
X99311843Y-107279403D01*
X99259081Y-107228338D01*
X99212651Y-107170368D01*
X99172889Y-107105784D01*
X99140132Y-107034876D01*
X99114716Y-106957933D01*
X99096978Y-106875245D01*
X99095039Y-106860766D01*
X99092432Y-106827487D01*
X99091181Y-106788754D01*
X99091229Y-106747095D01*
X99092517Y-106705037D01*
X99094988Y-106665110D01*
X99098584Y-106629841D01*
X99103246Y-106601759D01*
X99104883Y-106594958D01*
X99519953Y-106594958D01*
X99520708Y-106626679D01*
X99523001Y-106654728D01*
X99526830Y-106676116D01*
X99527531Y-106678674D01*
X99544386Y-106723721D01*
X99567727Y-106762395D01*
X99596922Y-106794135D01*
X99631339Y-106818378D01*
X99670348Y-106834563D01*
X99713318Y-106842127D01*
X99713381Y-106842131D01*
X99760505Y-106841152D01*
X99803287Y-106831457D01*
X99841773Y-106813018D01*
X99876007Y-106785806D01*
X99906035Y-106749793D01*
X99931903Y-106704951D01*
X99941803Y-106683122D01*
X99962144Y-106625167D01*
X99975422Y-106563365D01*
X99981841Y-106496553D01*
X99981607Y-106423567D01*
X99981459Y-106420375D01*
X99980047Y-106393959D01*
X99978442Y-106369492D01*
X99976832Y-106349577D01*
X99975401Y-106336820D01*
X99972210Y-106316064D01*
X99819554Y-106316064D01*
X99666899Y-106316064D01*
X99638107Y-106337259D01*
X99636151Y-106338712D01*
X99597425Y-106373577D01*
X99565705Y-106414443D01*
X99541835Y-106460007D01*
X99526661Y-106508969D01*
X99523072Y-106532439D01*
X99520740Y-106562549D01*
X99519953Y-106594958D01*
X99104883Y-106594958D01*
X99110416Y-106571977D01*
X99134297Y-106498047D01*
X99165516Y-106429574D01*
X99203743Y-106367212D01*
X99248652Y-106311614D01*
X99276182Y-106281879D01*
X99202401Y-106281879D01*
X99128620Y-106281879D01*
X99128620Y-105954836D01*
X99128620Y-105627793D01*
X99159907Y-105649664D01*
G37*
G36*
X102157087Y-109596890D02*
G01*
X102162006Y-109599567D01*
X102182326Y-109614451D01*
X102197883Y-109634272D01*
X102198402Y-109635113D01*
X102204891Y-109646493D01*
X102209158Y-109657057D01*
X102211774Y-109669451D01*
X102213313Y-109686321D01*
X102214348Y-109710312D01*
X102216138Y-109762617D01*
X102243702Y-109768706D01*
X102267544Y-109774902D01*
X102321284Y-109795664D01*
X102372662Y-109824723D01*
X102420444Y-109861066D01*
X102463398Y-109903680D01*
X102500291Y-109951553D01*
X102529889Y-110003673D01*
X102541810Y-110030555D01*
X102554365Y-110066120D01*
X102562600Y-110101882D01*
X102567175Y-110140936D01*
X102568747Y-110186378D01*
X102568588Y-110208304D01*
X102565904Y-110251927D01*
X102559489Y-110290793D01*
X102548716Y-110328075D01*
X102532955Y-110366946D01*
X102522733Y-110387792D01*
X102490752Y-110438924D01*
X102451578Y-110485631D01*
X102406468Y-110526855D01*
X102356680Y-110561535D01*
X102303473Y-110588610D01*
X102248105Y-110607019D01*
X102215177Y-110615085D01*
X102213919Y-111868276D01*
X102212661Y-113121467D01*
X102201718Y-113141940D01*
X102192123Y-113156531D01*
X102169802Y-113177607D01*
X102142340Y-113191606D01*
X102142323Y-113191611D01*
X102137947Y-113192155D01*
X102128128Y-113192666D01*
X102120851Y-113192892D01*
X102112663Y-113193146D01*
X102091345Y-113193595D01*
X102063967Y-113194014D01*
X102030324Y-113194403D01*
X101990209Y-113194763D01*
X101943418Y-113195095D01*
X101889743Y-113195399D01*
X101828979Y-113195677D01*
X101760919Y-113195928D01*
X101746270Y-113195972D01*
X101685359Y-113196154D01*
X101602091Y-113196355D01*
X101510910Y-113196532D01*
X101411609Y-113196686D01*
X101303983Y-113196817D01*
X101187826Y-113196926D01*
X101062932Y-113197013D01*
X100929094Y-113197080D01*
X100786107Y-113197127D01*
X100633764Y-113197155D01*
X100471861Y-113197164D01*
X98817982Y-113197164D01*
X98792277Y-113184355D01*
X98768408Y-113168146D01*
X98749121Y-113145060D01*
X98737806Y-113117875D01*
X98737580Y-113113862D01*
X98737305Y-113100321D01*
X98737040Y-113077645D01*
X98736785Y-113046187D01*
X98736542Y-113006300D01*
X98736311Y-112958335D01*
X98736092Y-112902645D01*
X98735886Y-112839583D01*
X98735695Y-112769502D01*
X98735518Y-112692753D01*
X98735356Y-112609690D01*
X98735209Y-112520665D01*
X98735079Y-112426030D01*
X98734966Y-112326139D01*
X98734871Y-112221342D01*
X98734793Y-112111994D01*
X98734735Y-111998446D01*
X98734695Y-111881052D01*
X98734676Y-111760162D01*
X98734678Y-111636131D01*
X98734701Y-111509311D01*
X98734745Y-111380053D01*
X98735033Y-110709147D01*
X99128620Y-110709147D01*
X99128620Y-111159858D01*
X99128620Y-111610568D01*
X99151817Y-111606606D01*
X99157601Y-111605669D01*
X99190676Y-111602655D01*
X99222439Y-111604437D01*
X99255033Y-111611448D01*
X99290603Y-111624120D01*
X99331292Y-111642889D01*
X99341090Y-111647822D01*
X99352089Y-111653521D01*
X99363044Y-111659472D01*
X99374485Y-111666043D01*
X99386937Y-111673602D01*
X99400929Y-111682519D01*
X99416988Y-111693163D01*
X99435642Y-111705902D01*
X99457419Y-111721105D01*
X99482846Y-111739141D01*
X99512450Y-111760379D01*
X99546760Y-111785188D01*
X99586303Y-111813936D01*
X99631606Y-111846993D01*
X99683197Y-111884727D01*
X99741604Y-111927507D01*
X99807354Y-111975701D01*
X100171134Y-112242405D01*
X99814701Y-112243831D01*
X99773335Y-112243972D01*
X99701098Y-112244088D01*
X99634869Y-112244022D01*
X99575187Y-112243778D01*
X99522587Y-112243361D01*
X99477606Y-112242775D01*
X99440780Y-112242026D01*
X99412648Y-112241118D01*
X99393745Y-112240056D01*
X99357489Y-112236354D01*
X99294538Y-112225606D01*
X99238981Y-112210048D01*
X99191260Y-112189816D01*
X99151817Y-112165048D01*
X99128620Y-112147238D01*
X99128620Y-112557759D01*
X99128620Y-112968279D01*
X99156701Y-112946390D01*
X99181496Y-112928807D01*
X99227730Y-112903501D01*
X99275508Y-112885945D01*
X99278577Y-112885163D01*
X99282954Y-112884270D01*
X99288364Y-112883448D01*
X99295188Y-112882692D01*
X99303804Y-112882000D01*
X99314594Y-112881370D01*
X99327936Y-112880798D01*
X99344209Y-112880282D01*
X99363795Y-112879819D01*
X99387073Y-112879406D01*
X99414421Y-112879040D01*
X99446221Y-112878718D01*
X99482852Y-112878438D01*
X99524693Y-112878196D01*
X99572124Y-112877991D01*
X99625526Y-112877818D01*
X99685277Y-112877676D01*
X99751757Y-112877561D01*
X99825347Y-112877470D01*
X99906426Y-112877401D01*
X99995373Y-112877351D01*
X100092569Y-112877317D01*
X100198393Y-112877296D01*
X100313225Y-112877286D01*
X100437445Y-112877283D01*
X100539474Y-112877285D01*
X100656008Y-112877294D01*
X100763465Y-112877312D01*
X100862224Y-112877344D01*
X100952664Y-112877391D01*
X101035165Y-112877456D01*
X101110107Y-112877542D01*
X101177870Y-112877653D01*
X101238834Y-112877790D01*
X101293378Y-112877957D01*
X101341882Y-112878156D01*
X101384725Y-112878391D01*
X101422288Y-112878663D01*
X101454950Y-112878977D01*
X101483091Y-112879335D01*
X101507091Y-112879739D01*
X101527329Y-112880193D01*
X101544185Y-112880699D01*
X101558039Y-112881260D01*
X101569270Y-112881880D01*
X101578259Y-112882560D01*
X101585385Y-112883303D01*
X101591027Y-112884114D01*
X101595566Y-112884993D01*
X101599382Y-112885945D01*
X101627181Y-112895120D01*
X101674493Y-112917408D01*
X101718189Y-112946390D01*
X101746270Y-112968279D01*
X101746270Y-112557759D01*
X101746270Y-112147238D01*
X101723501Y-112164618D01*
X101692460Y-112185186D01*
X101652511Y-112204464D01*
X101605780Y-112220292D01*
X101550923Y-112233204D01*
X101543856Y-112234465D01*
X101533849Y-112235858D01*
X101521829Y-112237075D01*
X101507091Y-112238133D01*
X101488929Y-112239050D01*
X101466639Y-112239843D01*
X101439516Y-112240529D01*
X101406856Y-112241126D01*
X101367952Y-112241649D01*
X101322100Y-112242118D01*
X101268596Y-112242549D01*
X101206735Y-112242959D01*
X101135811Y-112243365D01*
X100762209Y-112245393D01*
X100774419Y-112233618D01*
X100779484Y-112229330D01*
X100791644Y-112219445D01*
X100810125Y-112204590D01*
X100834232Y-112185317D01*
X100863269Y-112162174D01*
X100896541Y-112135712D01*
X100933354Y-112106479D01*
X100973012Y-112075025D01*
X101014821Y-112041901D01*
X101058085Y-112007655D01*
X101102109Y-111972838D01*
X101146199Y-111937998D01*
X101189659Y-111903686D01*
X101231795Y-111870452D01*
X101271910Y-111838844D01*
X101309312Y-111809413D01*
X101343303Y-111782709D01*
X101373190Y-111759280D01*
X101398277Y-111739676D01*
X101417870Y-111724448D01*
X101431273Y-111714145D01*
X101451249Y-111699315D01*
X101486531Y-111674553D01*
X101521901Y-111651312D01*
X101554864Y-111631209D01*
X101582922Y-111615864D01*
X101605360Y-111605370D01*
X101640100Y-111593065D01*
X101673304Y-111587046D01*
X101708007Y-111586604D01*
X101746270Y-111588819D01*
X101746270Y-111151772D01*
X101746270Y-110714725D01*
X101722467Y-110748455D01*
X101708967Y-110766760D01*
X101687589Y-110793013D01*
X101662608Y-110820739D01*
X101633399Y-110850529D01*
X101599333Y-110882976D01*
X101559784Y-110918671D01*
X101514126Y-110958208D01*
X101461730Y-111002177D01*
X101401971Y-111051171D01*
X101400719Y-111052187D01*
X101386865Y-111063400D01*
X101366518Y-111079824D01*
X101340292Y-111100966D01*
X101308800Y-111126335D01*
X101272655Y-111155436D01*
X101232471Y-111187777D01*
X101188860Y-111222865D01*
X101142436Y-111260208D01*
X101093812Y-111299313D01*
X101043600Y-111339686D01*
X100992414Y-111380836D01*
X100940868Y-111422269D01*
X100889573Y-111463492D01*
X100839144Y-111504013D01*
X100790194Y-111543339D01*
X100743335Y-111580978D01*
X100699181Y-111616435D01*
X100658345Y-111649219D01*
X100621440Y-111678837D01*
X100589079Y-111704795D01*
X100561875Y-111726602D01*
X100540442Y-111743764D01*
X100525392Y-111755789D01*
X100517339Y-111762183D01*
X100514779Y-111761292D01*
X100504457Y-111755082D01*
X100486310Y-111743065D01*
X100460351Y-111725250D01*
X100426592Y-111701644D01*
X100385042Y-111672256D01*
X100335715Y-111637094D01*
X100278621Y-111596166D01*
X100213772Y-111549480D01*
X100141179Y-111497045D01*
X100060855Y-111438868D01*
X99972810Y-111374959D01*
X99942615Y-111353018D01*
X99877945Y-111306012D01*
X99815204Y-111260390D01*
X99754890Y-111216514D01*
X99697501Y-111174748D01*
X99643536Y-111135455D01*
X99593491Y-111098997D01*
X99547864Y-111065737D01*
X99507154Y-111036039D01*
X99471859Y-111010265D01*
X99442476Y-110988777D01*
X99419503Y-110971939D01*
X99403439Y-110960114D01*
X99394780Y-110953665D01*
X99390642Y-110950512D01*
X99346827Y-110916196D01*
X99303880Y-110880958D01*
X99262999Y-110845874D01*
X99225381Y-110812019D01*
X99192223Y-110780467D01*
X99164723Y-110752294D01*
X99144079Y-110728574D01*
X99130390Y-110711371D01*
X99128620Y-110709147D01*
X98735033Y-110709147D01*
X98735421Y-109804010D01*
X99128620Y-109804010D01*
X99128620Y-110186878D01*
X99128622Y-110204452D01*
X99128656Y-110263889D01*
X99128731Y-110320205D01*
X99128844Y-110372660D01*
X99128990Y-110420518D01*
X99129167Y-110463039D01*
X99129371Y-110499484D01*
X99129599Y-110529116D01*
X99129847Y-110551196D01*
X99130112Y-110564986D01*
X99130390Y-110569746D01*
X99132169Y-110568818D01*
X99139823Y-110563397D01*
X99151041Y-110554742D01*
X99157054Y-110550243D01*
X99181397Y-110535251D01*
X99210461Y-110520824D01*
X99240508Y-110508693D01*
X99267804Y-110500592D01*
X99271287Y-110500109D01*
X99285110Y-110499222D01*
X99307730Y-110498398D01*
X99338507Y-110497635D01*
X99376800Y-110496935D01*
X99421969Y-110496297D01*
X99473374Y-110495721D01*
X99530375Y-110495208D01*
X99592333Y-110494757D01*
X99658606Y-110494368D01*
X99728554Y-110494042D01*
X99801538Y-110493778D01*
X99876918Y-110493576D01*
X99954052Y-110493436D01*
X100032302Y-110493359D01*
X100111027Y-110493344D01*
X100189587Y-110493391D01*
X100267341Y-110493500D01*
X100343650Y-110493672D01*
X100417873Y-110493906D01*
X100489370Y-110494202D01*
X100557502Y-110494561D01*
X100621628Y-110494982D01*
X100681108Y-110495465D01*
X100735301Y-110496011D01*
X100783568Y-110496618D01*
X100825269Y-110497289D01*
X100859763Y-110498021D01*
X100886410Y-110498815D01*
X100904570Y-110499672D01*
X100913603Y-110500592D01*
X100921560Y-110502572D01*
X100950111Y-110512110D01*
X100980253Y-110525140D01*
X101008250Y-110539928D01*
X101030367Y-110554742D01*
X101036997Y-110559924D01*
X101046515Y-110566980D01*
X101051018Y-110569746D01*
X101051241Y-110567013D01*
X101051523Y-110555394D01*
X101051787Y-110535374D01*
X101052028Y-110507734D01*
X101052244Y-110473250D01*
X101052429Y-110432703D01*
X101052580Y-110386870D01*
X101052693Y-110336531D01*
X101052764Y-110282464D01*
X101052788Y-110225447D01*
X101052788Y-110177047D01*
X101858212Y-110177047D01*
X101860951Y-110227114D01*
X101872214Y-110275109D01*
X101891365Y-110320060D01*
X101917771Y-110360997D01*
X101950795Y-110396946D01*
X101989806Y-110426938D01*
X102034166Y-110449999D01*
X102083244Y-110465158D01*
X102120851Y-110470822D01*
X102157935Y-110470780D01*
X102198010Y-110464757D01*
X102209579Y-110462064D01*
X102256707Y-110445131D01*
X102299889Y-110420014D01*
X102338117Y-110387688D01*
X102370383Y-110349126D01*
X102395677Y-110305302D01*
X102412991Y-110257191D01*
X102418000Y-110228291D01*
X102419796Y-110193128D01*
X102418197Y-110156575D01*
X102413368Y-110122204D01*
X102405473Y-110093588D01*
X102405240Y-110092978D01*
X102381666Y-110044531D01*
X102350676Y-110002048D01*
X102312851Y-109966191D01*
X102268770Y-109937621D01*
X102262635Y-109934493D01*
X102215773Y-109916442D01*
X102167597Y-109907339D01*
X102119239Y-109906811D01*
X102071829Y-109914486D01*
X102026497Y-109929991D01*
X101984375Y-109952954D01*
X101946594Y-109983002D01*
X101914282Y-110019764D01*
X101888573Y-110062866D01*
X101885743Y-110068946D01*
X101876365Y-110091185D01*
X101868606Y-110112584D01*
X101863918Y-110129235D01*
X101858212Y-110177047D01*
X101052788Y-110177047D01*
X101052788Y-109881148D01*
X100196924Y-109881061D01*
X100196520Y-109881061D01*
X100101101Y-109881026D01*
X100008674Y-109880941D01*
X99919722Y-109880810D01*
X99834730Y-109880635D01*
X99754180Y-109880419D01*
X99678558Y-109880163D01*
X99608347Y-109879870D01*
X99544032Y-109879543D01*
X99486096Y-109879185D01*
X99435023Y-109878796D01*
X99391297Y-109878382D01*
X99355403Y-109877942D01*
X99327824Y-109877481D01*
X99309045Y-109877000D01*
X99299548Y-109876502D01*
X99262991Y-109871110D01*
X99229616Y-109862161D01*
X99198670Y-109848654D01*
X99166468Y-109829281D01*
X99128620Y-109804010D01*
X98735421Y-109804010D01*
X98735484Y-109658174D01*
X98750210Y-109634355D01*
X98753213Y-109629704D01*
X98769360Y-109611209D01*
X98791058Y-109596890D01*
X98817180Y-109583244D01*
X100474072Y-109583244D01*
X102130965Y-109583244D01*
X102157087Y-109596890D01*
G37*
%TO.C,C11*%
X108265000Y-102261252D02*
X108265000Y-101738748D01*
X109735000Y-102261252D02*
X109735000Y-101738748D01*
%TO.C,C4*%
X125288748Y-114640000D02*
X126711252Y-114640000D01*
X125288748Y-117360000D02*
X126711252Y-117360000D01*
%TO.C,L2*%
X115890000Y-116390000D02*
X110610000Y-116390000D01*
X115890000Y-115445000D02*
X115890000Y-116390000D01*
X115890000Y-112055000D02*
X115890000Y-111110000D01*
X115890000Y-111110000D02*
X110610000Y-111110000D01*
X110610000Y-116390000D02*
X110610000Y-115445000D01*
X110610000Y-111110000D02*
X110610000Y-112055000D01*
%TO.C,J2*%
X135460000Y-121660000D02*
X129340000Y-121660000D01*
X135460000Y-115440000D02*
X134540000Y-115440000D01*
X135460000Y-113840000D02*
X135460000Y-121660000D01*
X134700000Y-119400000D02*
X133700000Y-119400000D01*
X134700000Y-117800000D02*
X134700000Y-119400000D01*
X134540000Y-115440000D02*
X134540000Y-113840000D01*
X134540000Y-113840000D02*
X135460000Y-113840000D01*
X134260000Y-115440000D02*
X134540000Y-115440000D01*
X134260000Y-115440000D02*
X134260000Y-114225000D01*
X134200000Y-119400000D02*
X134200000Y-121660000D01*
X133700000Y-119400000D02*
X133700000Y-121660000D01*
X133700000Y-119400000D02*
X133700000Y-117800000D01*
X133700000Y-117800000D02*
X134700000Y-117800000D01*
X132900000Y-121660000D02*
X132900000Y-117300000D01*
X132900000Y-117300000D02*
X131900000Y-117300000D01*
X131900000Y-117300000D02*
X131900000Y-121660000D01*
X131100000Y-119400000D02*
X131100000Y-117800000D01*
X131100000Y-117800000D02*
X130100000Y-117800000D01*
X130260000Y-115440000D02*
X130540000Y-115440000D01*
X130260000Y-113840000D02*
X130260000Y-115440000D01*
X130100000Y-119400000D02*
X131100000Y-119400000D01*
X130100000Y-117800000D02*
X130100000Y-119400000D01*
X129340000Y-121660000D02*
X129340000Y-113840000D01*
X129340000Y-115440000D02*
X130260000Y-115440000D01*
X129340000Y-113840000D02*
X130260000Y-113840000D01*
%TO.C,C7*%
X118985000Y-114988748D02*
X118985000Y-115511252D01*
X117515000Y-114988748D02*
X117515000Y-115511252D01*
%TO.C,R19*%
X151977064Y-100485000D02*
X151522936Y-100485000D01*
X151977064Y-99015000D02*
X151522936Y-99015000D01*
%TO.C,R4*%
X136765000Y-109227064D02*
X136765000Y-108772936D01*
X138235000Y-109227064D02*
X138235000Y-108772936D01*
%TO.C,SW1*%
X94570000Y-106450000D02*
X93780000Y-106450000D01*
X92770000Y-105850000D02*
X92770000Y-100150000D01*
X95620000Y-104600000D02*
X95620000Y-102900000D01*
X95620000Y-101600000D02*
X95620000Y-101400000D01*
X93780000Y-99550000D02*
X94570000Y-99550000D01*
%TD*%
M02*
