%TF.GenerationSoftware,KiCad,Pcbnew,7.0.1*%
%TF.CreationDate,2023-05-02T18:46:26+03:00*%
%TF.ProjectId,picoups,7069636f-7570-4732-9e6b-696361645f70,rev?*%
%TF.SameCoordinates,Original*%
%TF.FileFunction,Copper,L3,Inr*%
%TF.FilePolarity,Positive*%
%FSLAX46Y46*%
G04 Gerber Fmt 4.6, Leading zero omitted, Abs format (unit mm)*
G04 Created by KiCad (PCBNEW 7.0.1) date 2023-05-02 18:46:26*
%MOMM*%
%LPD*%
G01*
G04 APERTURE LIST*
G04 Aperture macros list*
%AMRoundRect*
0 Rectangle with rounded corners*
0 $1 Rounding radius*
0 $2 $3 $4 $5 $6 $7 $8 $9 X,Y pos of 4 corners*
0 Add a 4 corners polygon primitive as box body*
4,1,4,$2,$3,$4,$5,$6,$7,$8,$9,$2,$3,0*
0 Add four circle primitives for the rounded corners*
1,1,$1+$1,$2,$3*
1,1,$1+$1,$4,$5*
1,1,$1+$1,$6,$7*
1,1,$1+$1,$8,$9*
0 Add four rect primitives between the rounded corners*
20,1,$1+$1,$2,$3,$4,$5,0*
20,1,$1+$1,$4,$5,$6,$7,0*
20,1,$1+$1,$6,$7,$8,$9,0*
20,1,$1+$1,$8,$9,$2,$3,0*%
%AMOutline5P*
0 Free polygon, 5 corners , with rotation*
0 The origin of the aperture is its center*
0 number of corners: always 5*
0 $1 to $10 corner X, Y*
0 $11 Rotation angle, in degrees counterclockwise*
0 create outline with 5 corners*
4,1,5,$1,$2,$3,$4,$5,$6,$7,$8,$9,$10,$1,$2,$11*%
%AMOutline6P*
0 Free polygon, 6 corners , with rotation*
0 The origin of the aperture is its center*
0 number of corners: always 6*
0 $1 to $12 corner X, Y*
0 $13 Rotation angle, in degrees counterclockwise*
0 create outline with 6 corners*
4,1,6,$1,$2,$3,$4,$5,$6,$7,$8,$9,$10,$11,$12,$1,$2,$13*%
%AMOutline7P*
0 Free polygon, 7 corners , with rotation*
0 The origin of the aperture is its center*
0 number of corners: always 7*
0 $1 to $14 corner X, Y*
0 $15 Rotation angle, in degrees counterclockwise*
0 create outline with 7 corners*
4,1,7,$1,$2,$3,$4,$5,$6,$7,$8,$9,$10,$11,$12,$13,$14,$1,$2,$15*%
%AMOutline8P*
0 Free polygon, 8 corners , with rotation*
0 The origin of the aperture is its center*
0 number of corners: always 8*
0 $1 to $16 corner X, Y*
0 $17 Rotation angle, in degrees counterclockwise*
0 create outline with 8 corners*
4,1,8,$1,$2,$3,$4,$5,$6,$7,$8,$9,$10,$11,$12,$13,$14,$15,$16,$1,$2,$17*%
G04 Aperture macros list end*
%TA.AperFunction,ComponentPad*%
%ADD10RoundRect,0.250000X0.350000X0.625000X-0.350000X0.625000X-0.350000X-0.625000X0.350000X-0.625000X0*%
%TD*%
%TA.AperFunction,ComponentPad*%
%ADD11O,1.200000X1.750000*%
%TD*%
%TA.AperFunction,ComponentPad*%
%ADD12C,5.400000*%
%TD*%
%TA.AperFunction,ComponentPad*%
%ADD13Outline5P,-0.850000X0.425000X-0.425000X0.850000X0.850000X0.850000X0.850000X-0.850000X-0.850000X-0.850000X90.000000*%
%TD*%
%TA.AperFunction,ComponentPad*%
%ADD14C,1.700000*%
%TD*%
%TA.AperFunction,ComponentPad*%
%ADD15O,1.700000X1.700000*%
%TD*%
%TA.AperFunction,ComponentPad*%
%ADD16RoundRect,0.250000X0.625000X-0.350000X0.625000X0.350000X-0.625000X0.350000X-0.625000X-0.350000X0*%
%TD*%
%TA.AperFunction,ComponentPad*%
%ADD17O,1.750000X1.200000*%
%TD*%
%TA.AperFunction,ViaPad*%
%ADD18C,0.800000*%
%TD*%
G04 APERTURE END LIST*
D10*
%TO.N,VBAT*%
%TO.C,J4*%
X119500000Y-119500000D03*
D11*
%TO.N,GND*%
X117500000Y-119500000D03*
%TD*%
D12*
%TO.N,N/C*%
%TO.C,REF\u002A\u002A*%
X152500000Y-118500000D03*
%TD*%
%TO.N,N/C*%
%TO.C,REF\u002A\u002A*%
X94500000Y-118500000D03*
%TD*%
D13*
%TO.N,unconnected-(J1-Pin_1-Pad1)*%
%TO.C,J1*%
X99400000Y-96750000D03*
D14*
%TO.N,unconnected-(J1-Pin_2-Pad2)*%
X99400000Y-94210000D03*
D15*
%TO.N,unconnected-(J1-Pin_3-Pad3)*%
X101940000Y-96750000D03*
%TO.N,unconnected-(J1-Pin_4-Pad4)*%
X101940000Y-94210000D03*
%TO.N,unconnected-(J1-Pin_5-Pad5)*%
X104480000Y-96750000D03*
%TO.N,unconnected-(J1-Pin_6-Pad6)*%
X104480000Y-94210000D03*
%TO.N,unconnected-(J1-Pin_7-Pad7)*%
X107020000Y-96750000D03*
%TO.N,unconnected-(J1-Pin_8-Pad8)*%
X107020000Y-94210000D03*
%TO.N,unconnected-(J1-Pin_9-Pad9)*%
X109560000Y-96750000D03*
%TO.N,unconnected-(J1-Pin_10-Pad10)*%
X109560000Y-94210000D03*
%TO.N,unconnected-(J1-Pin_11-Pad11)*%
X112100000Y-96750000D03*
%TO.N,unconnected-(J1-Pin_12-Pad12)*%
X112100000Y-94210000D03*
%TO.N,unconnected-(J1-Pin_13-Pad13)*%
X114640000Y-96750000D03*
%TO.N,unconnected-(J1-Pin_14-Pad14)*%
X114640000Y-94210000D03*
%TO.N,unconnected-(J1-Pin_15-Pad15)*%
X117180000Y-96750000D03*
%TO.N,unconnected-(J1-Pin_16-Pad16)*%
X117180000Y-94210000D03*
%TO.N,unconnected-(J1-Pin_17-Pad17)*%
X119720000Y-96750000D03*
%TO.N,unconnected-(J1-Pin_18-Pad18)*%
X119720000Y-94210000D03*
%TO.N,unconnected-(J1-Pin_19-Pad19)*%
X122260000Y-96750000D03*
%TO.N,unconnected-(J1-Pin_20-Pad20)*%
X122260000Y-94210000D03*
%TO.N,unconnected-(J1-Pin_21-Pad21)*%
X124800000Y-96750000D03*
%TO.N,unconnected-(J1-Pin_22-Pad22)*%
X124800000Y-94210000D03*
%TO.N,unconnected-(J1-Pin_23-Pad23)*%
X127340000Y-96750000D03*
%TO.N,unconnected-(J1-Pin_24-Pad24)*%
X127340000Y-94210000D03*
%TO.N,unconnected-(J1-Pin_25-Pad25)*%
X129880000Y-96750000D03*
%TO.N,unconnected-(J1-Pin_26-Pad26)*%
X129880000Y-94210000D03*
%TO.N,unconnected-(J1-Pin_27-Pad27)*%
X132420000Y-96750000D03*
%TO.N,unconnected-(J1-Pin_28-Pad28)*%
X132420000Y-94210000D03*
%TO.N,unconnected-(J1-Pin_29-Pad29)*%
X134960000Y-96750000D03*
%TO.N,unconnected-(J1-Pin_30-Pad30)*%
X134960000Y-94210000D03*
%TO.N,unconnected-(J1-Pin_31-Pad31)*%
X137500000Y-96750000D03*
%TO.N,unconnected-(J1-Pin_32-Pad32)*%
X137500000Y-94210000D03*
%TO.N,unconnected-(J1-Pin_33-Pad33)*%
X140040000Y-96750000D03*
%TO.N,unconnected-(J1-Pin_34-Pad34)*%
X140040000Y-94210000D03*
%TO.N,unconnected-(J1-Pin_35-Pad35)*%
X142580000Y-96750000D03*
%TO.N,unconnected-(J1-Pin_36-Pad36)*%
X142580000Y-94210000D03*
%TO.N,unconnected-(J1-Pin_37-Pad37)*%
X145120000Y-96750000D03*
%TO.N,unconnected-(J1-Pin_38-Pad38)*%
X145120000Y-94210000D03*
%TO.N,unconnected-(J1-Pin_39-Pad39)*%
X147660000Y-96750000D03*
%TO.N,unconnected-(J1-Pin_40-Pad40)*%
X147660000Y-94210000D03*
%TD*%
D12*
%TO.N,N/C*%
%TO.C,REF\u002A\u002A*%
X94500000Y-95500000D03*
%TD*%
%TO.N,N/C*%
%TO.C,REF\u002A\u002A*%
X152500000Y-95500000D03*
%TD*%
D16*
%TO.N,/RAW*%
%TO.C,J3*%
X98000000Y-112000000D03*
D17*
%TO.N,GND*%
X98000000Y-110000000D03*
%TD*%
D16*
%TO.N,VBAT*%
%TO.C,J2*%
X97950000Y-104000000D03*
D17*
%TO.N,GND*%
X97950000Y-102000000D03*
%TD*%
D18*
%TO.N,GND*%
X98400000Y-107500000D03*
%TO.N,VIN_REG*%
X103500000Y-109100000D03*
X103500000Y-113735000D03*
%TO.N,FAULT*%
X101500000Y-117734416D03*
X92500000Y-107250000D03*
%TO.N,CHRG*%
X102184419Y-116934916D03*
X93500000Y-101000000D03*
%TO.N,GND*%
X105800000Y-100300000D03*
X104200000Y-100300000D03*
X105000000Y-100300000D03*
X102600000Y-100300000D03*
X101000000Y-100300000D03*
X101800000Y-100300000D03*
X99900000Y-118800000D03*
X107800000Y-121100000D03*
X105500000Y-121100000D03*
X105000000Y-109300000D03*
X108900000Y-111200000D03*
X108400000Y-116600000D03*
X107600000Y-116600000D03*
X106800000Y-116600000D03*
X108400000Y-112800000D03*
X107600000Y-112800000D03*
X106800000Y-112800000D03*
X113500000Y-107250000D03*
%TO.N,VBAT*%
X112250000Y-107250000D03*
%TO.N,/SW*%
X114250000Y-112250000D03*
%TO.N,/BOOST*%
X112250000Y-112250000D03*
%TO.N,/SENSE*%
X113250000Y-115250000D03*
X116500000Y-104000000D03*
%TD*%
%TA.AperFunction,Conductor*%
%TO.N,GND*%
G36*
X153003243Y-92000669D02*
G01*
X153133379Y-92007490D01*
X153313908Y-92017628D01*
X153326309Y-92018955D01*
X153474990Y-92042504D01*
X153476245Y-92042709D01*
X153635324Y-92069738D01*
X153646606Y-92072202D01*
X153795635Y-92112134D01*
X153797761Y-92112725D01*
X153949174Y-92156347D01*
X153959260Y-92159729D01*
X154104710Y-92215562D01*
X154107599Y-92216714D01*
X154251768Y-92276430D01*
X154260594Y-92280500D01*
X154400064Y-92351565D01*
X154403748Y-92353521D01*
X154493848Y-92403316D01*
X154539548Y-92428574D01*
X154547061Y-92433081D01*
X154678754Y-92518604D01*
X154682947Y-92521452D01*
X154809147Y-92610996D01*
X154815428Y-92615759D01*
X154937567Y-92714665D01*
X154942158Y-92718571D01*
X155057424Y-92821579D01*
X155062478Y-92826358D01*
X155173640Y-92937520D01*
X155178419Y-92942574D01*
X155281427Y-93057840D01*
X155285333Y-93062431D01*
X155384239Y-93184570D01*
X155389002Y-93190851D01*
X155478546Y-93317051D01*
X155481409Y-93321266D01*
X155566907Y-93452921D01*
X155571430Y-93460460D01*
X155646477Y-93596250D01*
X155648433Y-93599934D01*
X155719498Y-93739404D01*
X155723575Y-93748247D01*
X155783259Y-93892337D01*
X155784462Y-93895353D01*
X155840265Y-94040727D01*
X155843655Y-94050836D01*
X155887258Y-94202185D01*
X155887879Y-94204419D01*
X155927791Y-94353370D01*
X155930264Y-94364694D01*
X155957282Y-94523715D01*
X155957507Y-94525087D01*
X155981040Y-94673666D01*
X155982372Y-94686111D01*
X155992498Y-94866421D01*
X155992523Y-94866884D01*
X155999330Y-94996757D01*
X155999500Y-95003247D01*
X155999500Y-118996753D01*
X155999330Y-119003243D01*
X155992523Y-119133114D01*
X155992498Y-119133577D01*
X155982372Y-119313887D01*
X155981040Y-119326332D01*
X155957507Y-119474911D01*
X155957282Y-119476283D01*
X155930264Y-119635304D01*
X155927791Y-119646628D01*
X155887879Y-119795579D01*
X155887258Y-119797813D01*
X155843655Y-119949162D01*
X155840265Y-119959271D01*
X155784462Y-120104645D01*
X155783259Y-120107661D01*
X155723575Y-120251751D01*
X155719498Y-120260594D01*
X155648433Y-120400064D01*
X155646477Y-120403748D01*
X155571430Y-120539538D01*
X155566897Y-120547094D01*
X155481412Y-120678728D01*
X155478546Y-120682947D01*
X155389002Y-120809147D01*
X155384239Y-120815428D01*
X155285333Y-120937567D01*
X155281427Y-120942158D01*
X155178419Y-121057424D01*
X155173640Y-121062478D01*
X155062478Y-121173640D01*
X155057424Y-121178419D01*
X154942158Y-121281427D01*
X154937567Y-121285333D01*
X154815428Y-121384239D01*
X154809147Y-121389002D01*
X154682947Y-121478546D01*
X154678728Y-121481412D01*
X154547094Y-121566897D01*
X154539538Y-121571430D01*
X154403748Y-121646477D01*
X154400064Y-121648433D01*
X154260594Y-121719498D01*
X154251751Y-121723575D01*
X154107661Y-121783259D01*
X154104645Y-121784462D01*
X153959271Y-121840265D01*
X153949162Y-121843655D01*
X153797813Y-121887258D01*
X153795579Y-121887879D01*
X153646628Y-121927791D01*
X153635304Y-121930264D01*
X153476283Y-121957282D01*
X153474911Y-121957507D01*
X153326332Y-121981040D01*
X153313887Y-121982372D01*
X153133577Y-121992498D01*
X153133114Y-121992523D01*
X153003243Y-121999330D01*
X152996753Y-121999500D01*
X94003247Y-121999500D01*
X93996757Y-121999330D01*
X93866884Y-121992523D01*
X93866421Y-121992498D01*
X93686111Y-121982372D01*
X93673666Y-121981040D01*
X93525087Y-121957507D01*
X93523715Y-121957282D01*
X93364694Y-121930264D01*
X93353370Y-121927791D01*
X93204419Y-121887879D01*
X93202185Y-121887258D01*
X93050836Y-121843655D01*
X93040727Y-121840265D01*
X92895353Y-121784462D01*
X92892337Y-121783259D01*
X92748247Y-121723575D01*
X92739404Y-121719498D01*
X92599934Y-121648433D01*
X92596250Y-121646477D01*
X92460460Y-121571430D01*
X92452921Y-121566907D01*
X92321266Y-121481409D01*
X92317051Y-121478546D01*
X92190851Y-121389002D01*
X92184570Y-121384239D01*
X92062431Y-121285333D01*
X92057840Y-121281427D01*
X91942574Y-121178419D01*
X91937520Y-121173640D01*
X91826358Y-121062478D01*
X91821579Y-121057424D01*
X91718571Y-120942158D01*
X91714665Y-120937567D01*
X91664403Y-120875499D01*
X91615757Y-120815426D01*
X91610996Y-120809147D01*
X91521452Y-120682947D01*
X91518604Y-120678754D01*
X91433081Y-120547061D01*
X91428568Y-120539538D01*
X91422164Y-120527951D01*
X91400124Y-120488072D01*
X91353521Y-120403748D01*
X91351565Y-120400064D01*
X91280500Y-120260594D01*
X91276430Y-120251768D01*
X91216714Y-120107599D01*
X91215562Y-120104710D01*
X91159729Y-119959260D01*
X91156347Y-119949174D01*
X91112725Y-119797761D01*
X91112134Y-119795635D01*
X91072202Y-119646606D01*
X91069738Y-119635324D01*
X91042709Y-119476245D01*
X91042491Y-119474911D01*
X91018955Y-119326309D01*
X91017628Y-119313908D01*
X91007485Y-119133285D01*
X91007476Y-119133114D01*
X91000669Y-119003243D01*
X91000500Y-118996755D01*
X91000500Y-118499999D01*
X91294457Y-118499999D01*
X91314613Y-118858908D01*
X91374826Y-119213299D01*
X91474341Y-119558724D01*
X91611905Y-119890831D01*
X91785792Y-120205458D01*
X91993804Y-120498622D01*
X92078733Y-120593657D01*
X92233339Y-120766661D01*
X92355129Y-120875499D01*
X92501377Y-121006195D01*
X92794541Y-121214207D01*
X92794547Y-121214210D01*
X92794548Y-121214211D01*
X93109167Y-121388094D01*
X93441276Y-121525659D01*
X93786700Y-121625173D01*
X94141093Y-121685387D01*
X94500000Y-121705543D01*
X94858907Y-121685387D01*
X95213300Y-121625173D01*
X95558724Y-121525659D01*
X95890833Y-121388094D01*
X96205452Y-121214211D01*
X96255896Y-121178419D01*
X96498622Y-121006195D01*
X96570279Y-120942158D01*
X96766661Y-120766661D01*
X97006194Y-120498623D01*
X97013681Y-120488072D01*
X97214207Y-120205458D01*
X97214207Y-120205456D01*
X97214211Y-120205452D01*
X97388094Y-119890833D01*
X97446429Y-119750000D01*
X116400000Y-119750000D01*
X116400000Y-119827399D01*
X116414965Y-119984125D01*
X116474149Y-120185687D01*
X116570412Y-120372412D01*
X116700269Y-120537538D01*
X116859036Y-120675111D01*
X117040963Y-120780146D01*
X117239488Y-120848856D01*
X117250000Y-120850368D01*
X117250000Y-120846257D01*
X117750000Y-120846257D01*
X117861410Y-120819229D01*
X118052505Y-120731960D01*
X118223624Y-120610105D01*
X118321479Y-120507478D01*
X118368426Y-120476666D01*
X118424151Y-120469723D01*
X118477224Y-120488072D01*
X118516761Y-120527951D01*
X118557288Y-120593657D01*
X118681342Y-120717711D01*
X118681344Y-120717712D01*
X118830666Y-120809814D01*
X118942016Y-120846712D01*
X118997202Y-120864999D01*
X119007702Y-120866071D01*
X119099991Y-120875500D01*
X119900008Y-120875499D01*
X120002797Y-120864999D01*
X120169334Y-120809814D01*
X120318656Y-120717712D01*
X120442712Y-120593656D01*
X120534814Y-120444334D01*
X120589999Y-120277797D01*
X120600500Y-120175009D01*
X120600499Y-118824992D01*
X120589999Y-118722203D01*
X120534814Y-118555666D01*
X120500479Y-118499999D01*
X149294457Y-118499999D01*
X149314613Y-118858908D01*
X149374826Y-119213299D01*
X149474341Y-119558724D01*
X149611905Y-119890831D01*
X149785792Y-120205458D01*
X149993804Y-120498622D01*
X150078733Y-120593657D01*
X150233339Y-120766661D01*
X150355129Y-120875499D01*
X150501377Y-121006195D01*
X150794541Y-121214207D01*
X150794547Y-121214210D01*
X150794548Y-121214211D01*
X151109167Y-121388094D01*
X151441276Y-121525659D01*
X151786700Y-121625173D01*
X152141093Y-121685387D01*
X152500000Y-121705543D01*
X152858907Y-121685387D01*
X153213300Y-121625173D01*
X153558724Y-121525659D01*
X153890833Y-121388094D01*
X154205452Y-121214211D01*
X154255896Y-121178419D01*
X154498622Y-121006195D01*
X154570279Y-120942158D01*
X154766661Y-120766661D01*
X155006194Y-120498623D01*
X155013681Y-120488072D01*
X155214207Y-120205458D01*
X155214207Y-120205456D01*
X155214211Y-120205452D01*
X155388094Y-119890833D01*
X155525659Y-119558724D01*
X155625173Y-119213300D01*
X155685387Y-118858907D01*
X155705543Y-118500000D01*
X155685387Y-118141093D01*
X155625173Y-117786700D01*
X155525659Y-117441276D01*
X155388094Y-117109167D01*
X155214211Y-116794548D01*
X155214210Y-116794547D01*
X155214207Y-116794541D01*
X155006195Y-116501377D01*
X154886427Y-116367357D01*
X154766661Y-116233339D01*
X154629925Y-116111144D01*
X154498622Y-115993804D01*
X154205458Y-115785792D01*
X153890831Y-115611905D01*
X153558724Y-115474341D01*
X153213299Y-115374826D01*
X152858908Y-115314613D01*
X152679453Y-115304535D01*
X152500000Y-115294457D01*
X152499999Y-115294457D01*
X152141091Y-115314613D01*
X151786700Y-115374826D01*
X151441275Y-115474341D01*
X151109168Y-115611905D01*
X150794541Y-115785792D01*
X150501377Y-115993804D01*
X150233339Y-116233339D01*
X149993804Y-116501377D01*
X149785792Y-116794541D01*
X149611905Y-117109168D01*
X149474341Y-117441275D01*
X149374826Y-117786700D01*
X149314613Y-118141091D01*
X149294457Y-118499999D01*
X120500479Y-118499999D01*
X120442712Y-118406344D01*
X120442711Y-118406342D01*
X120318657Y-118282288D01*
X120169334Y-118190186D01*
X120002797Y-118135000D01*
X119900009Y-118124500D01*
X119099991Y-118124500D01*
X118997203Y-118135000D01*
X118830665Y-118190186D01*
X118681342Y-118282288D01*
X118557287Y-118406343D01*
X118517905Y-118470192D01*
X118475852Y-118511611D01*
X118419414Y-118528895D01*
X118361379Y-118518127D01*
X118314897Y-118481748D01*
X118299728Y-118462460D01*
X118140963Y-118324888D01*
X117959036Y-118219853D01*
X117760511Y-118151143D01*
X117750000Y-118149631D01*
X117750000Y-120846257D01*
X117250000Y-120846257D01*
X117250000Y-119750000D01*
X116400000Y-119750000D01*
X97446429Y-119750000D01*
X97525659Y-119558724D01*
X97614600Y-119250000D01*
X116400000Y-119250000D01*
X117250000Y-119250000D01*
X117250000Y-118153742D01*
X117138589Y-118180770D01*
X116947494Y-118268039D01*
X116776378Y-118389892D01*
X116631407Y-118541933D01*
X116517833Y-118718655D01*
X116439755Y-118913685D01*
X116400000Y-119119962D01*
X116400000Y-119250000D01*
X97614600Y-119250000D01*
X97625173Y-119213300D01*
X97685387Y-118858907D01*
X97705543Y-118500000D01*
X97685387Y-118141093D01*
X97625173Y-117786700D01*
X97610110Y-117734415D01*
X100594540Y-117734415D01*
X100614326Y-117922673D01*
X100672820Y-118102700D01*
X100767466Y-118266632D01*
X100894129Y-118407305D01*
X101047269Y-118518567D01*
X101220197Y-118595560D01*
X101405352Y-118634916D01*
X101405354Y-118634916D01*
X101594646Y-118634916D01*
X101594648Y-118634916D01*
X101718084Y-118608678D01*
X101779803Y-118595560D01*
X101952730Y-118518567D01*
X102105871Y-118407304D01*
X102232533Y-118266632D01*
X102327179Y-118102700D01*
X102385674Y-117922672D01*
X102388294Y-117897734D01*
X102411297Y-117837808D01*
X102461181Y-117797413D01*
X102464217Y-117796060D01*
X102464222Y-117796060D01*
X102637149Y-117719067D01*
X102637149Y-117719066D01*
X102637151Y-117719066D01*
X102790289Y-117607805D01*
X102916952Y-117467132D01*
X103011598Y-117303200D01*
X103044415Y-117202199D01*
X103070093Y-117123172D01*
X103089879Y-116934916D01*
X103070093Y-116746660D01*
X103011598Y-116566632D01*
X103011598Y-116566631D01*
X102916952Y-116402699D01*
X102790289Y-116262026D01*
X102637149Y-116150764D01*
X102464221Y-116073771D01*
X102279067Y-116034416D01*
X102279065Y-116034416D01*
X102089773Y-116034416D01*
X102089771Y-116034416D01*
X101904616Y-116073771D01*
X101731688Y-116150764D01*
X101578548Y-116262026D01*
X101451885Y-116402699D01*
X101357239Y-116566631D01*
X101298745Y-116746658D01*
X101298744Y-116746660D01*
X101298745Y-116746660D01*
X101296123Y-116771602D01*
X101273121Y-116831524D01*
X101223239Y-116871917D01*
X101047269Y-116950264D01*
X100894129Y-117061526D01*
X100767466Y-117202199D01*
X100672820Y-117366131D01*
X100614326Y-117546158D01*
X100594540Y-117734415D01*
X97610110Y-117734415D01*
X97525659Y-117441276D01*
X97388094Y-117109167D01*
X97214211Y-116794548D01*
X97214210Y-116794547D01*
X97214207Y-116794541D01*
X97006195Y-116501377D01*
X96886427Y-116367357D01*
X96766661Y-116233339D01*
X96629925Y-116111144D01*
X96498622Y-115993804D01*
X96205458Y-115785792D01*
X95890831Y-115611905D01*
X95558724Y-115474341D01*
X95213299Y-115374826D01*
X94858908Y-115314613D01*
X94500000Y-115294457D01*
X94141091Y-115314613D01*
X93786700Y-115374826D01*
X93441275Y-115474341D01*
X93109168Y-115611905D01*
X92794541Y-115785792D01*
X92501377Y-115993804D01*
X92233339Y-116233339D01*
X91993804Y-116501377D01*
X91785792Y-116794541D01*
X91611905Y-117109168D01*
X91474341Y-117441275D01*
X91374826Y-117786700D01*
X91314613Y-118141091D01*
X91294457Y-118499999D01*
X91000500Y-118499999D01*
X91000500Y-115250000D01*
X112344540Y-115250000D01*
X112364326Y-115438257D01*
X112422820Y-115618284D01*
X112517466Y-115782216D01*
X112644129Y-115922889D01*
X112797269Y-116034151D01*
X112970197Y-116111144D01*
X113155352Y-116150500D01*
X113155354Y-116150500D01*
X113344646Y-116150500D01*
X113344648Y-116150500D01*
X113468083Y-116124262D01*
X113529803Y-116111144D01*
X113702730Y-116034151D01*
X113855871Y-115922888D01*
X113982533Y-115782216D01*
X114077179Y-115618284D01*
X114135674Y-115438256D01*
X114155460Y-115250000D01*
X114135674Y-115061744D01*
X114077179Y-114881716D01*
X114077179Y-114881715D01*
X113982533Y-114717783D01*
X113855870Y-114577110D01*
X113702730Y-114465848D01*
X113529802Y-114388855D01*
X113344648Y-114349500D01*
X113344646Y-114349500D01*
X113155354Y-114349500D01*
X113155352Y-114349500D01*
X112970197Y-114388855D01*
X112797269Y-114465848D01*
X112644129Y-114577110D01*
X112517466Y-114717783D01*
X112422820Y-114881715D01*
X112364326Y-115061742D01*
X112344540Y-115250000D01*
X91000500Y-115250000D01*
X91000500Y-113734999D01*
X102594540Y-113734999D01*
X102614326Y-113923257D01*
X102672820Y-114103284D01*
X102767466Y-114267216D01*
X102894129Y-114407889D01*
X103047269Y-114519151D01*
X103220197Y-114596144D01*
X103405352Y-114635500D01*
X103405354Y-114635500D01*
X103594646Y-114635500D01*
X103594648Y-114635500D01*
X103718083Y-114609262D01*
X103779803Y-114596144D01*
X103952730Y-114519151D01*
X104105871Y-114407888D01*
X104232533Y-114267216D01*
X104327179Y-114103284D01*
X104385674Y-113923256D01*
X104405460Y-113735000D01*
X104385674Y-113546744D01*
X104327179Y-113366716D01*
X104327179Y-113366715D01*
X104232533Y-113202783D01*
X104105870Y-113062110D01*
X103952730Y-112950848D01*
X103779802Y-112873855D01*
X103594648Y-112834500D01*
X103594646Y-112834500D01*
X103405354Y-112834500D01*
X103405352Y-112834500D01*
X103220197Y-112873855D01*
X103047269Y-112950848D01*
X102894129Y-113062110D01*
X102767466Y-113202783D01*
X102672820Y-113366715D01*
X102614326Y-113546742D01*
X102594540Y-113734999D01*
X91000500Y-113734999D01*
X91000500Y-112400008D01*
X96624500Y-112400008D01*
X96635000Y-112502796D01*
X96690186Y-112669334D01*
X96782288Y-112818657D01*
X96906342Y-112942711D01*
X96919536Y-112950849D01*
X97055666Y-113034814D01*
X97138040Y-113062110D01*
X97222202Y-113089999D01*
X97232702Y-113091071D01*
X97324991Y-113100500D01*
X98675008Y-113100499D01*
X98777797Y-113089999D01*
X98944334Y-113034814D01*
X99093656Y-112942712D01*
X99217712Y-112818656D01*
X99309814Y-112669334D01*
X99364999Y-112502797D01*
X99375500Y-112400009D01*
X99375500Y-112250000D01*
X111344540Y-112250000D01*
X111364326Y-112438257D01*
X111422820Y-112618284D01*
X111517466Y-112782216D01*
X111644129Y-112922889D01*
X111797269Y-113034151D01*
X111970197Y-113111144D01*
X112155352Y-113150500D01*
X112155354Y-113150500D01*
X112344646Y-113150500D01*
X112344648Y-113150500D01*
X112468084Y-113124262D01*
X112529803Y-113111144D01*
X112702730Y-113034151D01*
X112817387Y-112950848D01*
X112855870Y-112922889D01*
X112982533Y-112782216D01*
X113077179Y-112618284D01*
X113114703Y-112502797D01*
X113132069Y-112449348D01*
X113165116Y-112397276D01*
X113219162Y-112367564D01*
X113280838Y-112367564D01*
X113334884Y-112397276D01*
X113367931Y-112449350D01*
X113422820Y-112618284D01*
X113517466Y-112782216D01*
X113644129Y-112922889D01*
X113797269Y-113034151D01*
X113970197Y-113111144D01*
X114155352Y-113150500D01*
X114155354Y-113150500D01*
X114344646Y-113150500D01*
X114344648Y-113150500D01*
X114468084Y-113124262D01*
X114529803Y-113111144D01*
X114702730Y-113034151D01*
X114817387Y-112950848D01*
X114855870Y-112922889D01*
X114982533Y-112782216D01*
X115077179Y-112618284D01*
X115114703Y-112502797D01*
X115135674Y-112438256D01*
X115155460Y-112250000D01*
X115135674Y-112061744D01*
X115077179Y-111881716D01*
X115077179Y-111881715D01*
X114982533Y-111717783D01*
X114855870Y-111577110D01*
X114702730Y-111465848D01*
X114529802Y-111388855D01*
X114344648Y-111349500D01*
X114344646Y-111349500D01*
X114155354Y-111349500D01*
X114155352Y-111349500D01*
X113970197Y-111388855D01*
X113797269Y-111465848D01*
X113644129Y-111577110D01*
X113517466Y-111717783D01*
X113422820Y-111881715D01*
X113367931Y-112050649D01*
X113334884Y-112102723D01*
X113280838Y-112132435D01*
X113219162Y-112132435D01*
X113165116Y-112102723D01*
X113132069Y-112050649D01*
X113077179Y-111881715D01*
X112982533Y-111717783D01*
X112855870Y-111577110D01*
X112702730Y-111465848D01*
X112529802Y-111388855D01*
X112344648Y-111349500D01*
X112344646Y-111349500D01*
X112155354Y-111349500D01*
X112155352Y-111349500D01*
X111970197Y-111388855D01*
X111797269Y-111465848D01*
X111644129Y-111577110D01*
X111517466Y-111717783D01*
X111422820Y-111881715D01*
X111364326Y-112061742D01*
X111344540Y-112250000D01*
X99375500Y-112250000D01*
X99375499Y-111599992D01*
X99364999Y-111497203D01*
X99309814Y-111330666D01*
X99217712Y-111181344D01*
X99217711Y-111181342D01*
X99093657Y-111057288D01*
X99029808Y-111017906D01*
X98988388Y-110975852D01*
X98971104Y-110919413D01*
X98981873Y-110861378D01*
X99018253Y-110814896D01*
X99037539Y-110799729D01*
X99175111Y-110640963D01*
X99280146Y-110459036D01*
X99348856Y-110260511D01*
X99350368Y-110250000D01*
X96653742Y-110250000D01*
X96680770Y-110361410D01*
X96768039Y-110552505D01*
X96889892Y-110723622D01*
X96992521Y-110821479D01*
X97023332Y-110868427D01*
X97030275Y-110924151D01*
X97011926Y-110977224D01*
X96972048Y-111016760D01*
X96906343Y-111057287D01*
X96782288Y-111181342D01*
X96690186Y-111330665D01*
X96635000Y-111497202D01*
X96624500Y-111599990D01*
X96624500Y-112400008D01*
X91000500Y-112400008D01*
X91000500Y-109749999D01*
X96649631Y-109749999D01*
X96649632Y-109750000D01*
X97750000Y-109750000D01*
X97750000Y-108900000D01*
X98250000Y-108900000D01*
X98250000Y-109750000D01*
X99346257Y-109750000D01*
X99319229Y-109638589D01*
X99231960Y-109447494D01*
X99110107Y-109276378D01*
X98958066Y-109131407D01*
X98909196Y-109100000D01*
X102594540Y-109100000D01*
X102614326Y-109288257D01*
X102672820Y-109468284D01*
X102767466Y-109632216D01*
X102894129Y-109772889D01*
X103047269Y-109884151D01*
X103220197Y-109961144D01*
X103405352Y-110000500D01*
X103405354Y-110000500D01*
X103594646Y-110000500D01*
X103594648Y-110000500D01*
X103718084Y-109974262D01*
X103779803Y-109961144D01*
X103952730Y-109884151D01*
X104105871Y-109772888D01*
X104232533Y-109632216D01*
X104327179Y-109468284D01*
X104385674Y-109288256D01*
X104405460Y-109100000D01*
X104385674Y-108911744D01*
X104327179Y-108731716D01*
X104327179Y-108731715D01*
X104232533Y-108567783D01*
X104105870Y-108427110D01*
X103952730Y-108315848D01*
X103779802Y-108238855D01*
X103594648Y-108199500D01*
X103594646Y-108199500D01*
X103405354Y-108199500D01*
X103405352Y-108199500D01*
X103220197Y-108238855D01*
X103047269Y-108315848D01*
X102894129Y-108427110D01*
X102767466Y-108567783D01*
X102672820Y-108731715D01*
X102614326Y-108911742D01*
X102594540Y-109100000D01*
X98909196Y-109100000D01*
X98781344Y-109017833D01*
X98586314Y-108939755D01*
X98380038Y-108900000D01*
X98250000Y-108900000D01*
X97750000Y-108900000D01*
X97672601Y-108900000D01*
X97515874Y-108914965D01*
X97314312Y-108974149D01*
X97127587Y-109070412D01*
X96962461Y-109200269D01*
X96824888Y-109359036D01*
X96719853Y-109540963D01*
X96651143Y-109739488D01*
X96649631Y-109749999D01*
X91000500Y-109749999D01*
X91000500Y-107250000D01*
X91594540Y-107250000D01*
X91614326Y-107438257D01*
X91672820Y-107618284D01*
X91767466Y-107782216D01*
X91894129Y-107922889D01*
X92047269Y-108034151D01*
X92220197Y-108111144D01*
X92405352Y-108150500D01*
X92405354Y-108150500D01*
X92594646Y-108150500D01*
X92594648Y-108150500D01*
X92718084Y-108124262D01*
X92779803Y-108111144D01*
X92952730Y-108034151D01*
X93105871Y-107922888D01*
X93232533Y-107782216D01*
X93327179Y-107618284D01*
X93385674Y-107438256D01*
X93405460Y-107250000D01*
X111344540Y-107250000D01*
X111364326Y-107438257D01*
X111422820Y-107618284D01*
X111517466Y-107782216D01*
X111644129Y-107922889D01*
X111797269Y-108034151D01*
X111970197Y-108111144D01*
X112155352Y-108150500D01*
X112155354Y-108150500D01*
X112344646Y-108150500D01*
X112344648Y-108150500D01*
X112468084Y-108124262D01*
X112529803Y-108111144D01*
X112702730Y-108034151D01*
X112855871Y-107922888D01*
X112982533Y-107782216D01*
X113077179Y-107618284D01*
X113135674Y-107438256D01*
X113155460Y-107250000D01*
X113135674Y-107061744D01*
X113077179Y-106881716D01*
X113077179Y-106881715D01*
X112982533Y-106717783D01*
X112855870Y-106577110D01*
X112702730Y-106465848D01*
X112529802Y-106388855D01*
X112344648Y-106349500D01*
X112344646Y-106349500D01*
X112155354Y-106349500D01*
X112155352Y-106349500D01*
X111970197Y-106388855D01*
X111797269Y-106465848D01*
X111644129Y-106577110D01*
X111517466Y-106717783D01*
X111422820Y-106881715D01*
X111364326Y-107061742D01*
X111344540Y-107250000D01*
X93405460Y-107250000D01*
X93385674Y-107061744D01*
X93327179Y-106881716D01*
X93327179Y-106881715D01*
X93232533Y-106717783D01*
X93105870Y-106577110D01*
X92952730Y-106465848D01*
X92779802Y-106388855D01*
X92594648Y-106349500D01*
X92594646Y-106349500D01*
X92405354Y-106349500D01*
X92405352Y-106349500D01*
X92220197Y-106388855D01*
X92047269Y-106465848D01*
X91894129Y-106577110D01*
X91767466Y-106717783D01*
X91672820Y-106881715D01*
X91614326Y-107061742D01*
X91594540Y-107250000D01*
X91000500Y-107250000D01*
X91000500Y-104400008D01*
X96574500Y-104400008D01*
X96585000Y-104502796D01*
X96640186Y-104669334D01*
X96732288Y-104818657D01*
X96856342Y-104942711D01*
X96856344Y-104942712D01*
X97005666Y-105034814D01*
X97117016Y-105071712D01*
X97172202Y-105089999D01*
X97182702Y-105091071D01*
X97274991Y-105100500D01*
X98625008Y-105100499D01*
X98727797Y-105089999D01*
X98894334Y-105034814D01*
X99043656Y-104942712D01*
X99167712Y-104818656D01*
X99259814Y-104669334D01*
X99314999Y-104502797D01*
X99325500Y-104400009D01*
X99325499Y-104000000D01*
X115594540Y-104000000D01*
X115614326Y-104188257D01*
X115672820Y-104368284D01*
X115767466Y-104532216D01*
X115894129Y-104672889D01*
X116047269Y-104784151D01*
X116220197Y-104861144D01*
X116405352Y-104900500D01*
X116405354Y-104900500D01*
X116594646Y-104900500D01*
X116594648Y-104900500D01*
X116718084Y-104874262D01*
X116779803Y-104861144D01*
X116952730Y-104784151D01*
X117105871Y-104672888D01*
X117232533Y-104532216D01*
X117327179Y-104368284D01*
X117385674Y-104188256D01*
X117405460Y-104000000D01*
X117385674Y-103811744D01*
X117327179Y-103631716D01*
X117327179Y-103631715D01*
X117232533Y-103467783D01*
X117105870Y-103327110D01*
X116952730Y-103215848D01*
X116779802Y-103138855D01*
X116594648Y-103099500D01*
X116594646Y-103099500D01*
X116405354Y-103099500D01*
X116405352Y-103099500D01*
X116220197Y-103138855D01*
X116047269Y-103215848D01*
X115894129Y-103327110D01*
X115767466Y-103467783D01*
X115672820Y-103631715D01*
X115614326Y-103811742D01*
X115594540Y-104000000D01*
X99325499Y-104000000D01*
X99325499Y-103599992D01*
X99314999Y-103497203D01*
X99259814Y-103330666D01*
X99167712Y-103181344D01*
X99167711Y-103181342D01*
X99043657Y-103057288D01*
X98979808Y-103017906D01*
X98938388Y-102975852D01*
X98921104Y-102919413D01*
X98931873Y-102861378D01*
X98968253Y-102814896D01*
X98987539Y-102799729D01*
X99125111Y-102640963D01*
X99230146Y-102459036D01*
X99298856Y-102260511D01*
X99300368Y-102250000D01*
X96603742Y-102250000D01*
X96630770Y-102361410D01*
X96718039Y-102552505D01*
X96839892Y-102723622D01*
X96942521Y-102821479D01*
X96973332Y-102868427D01*
X96980275Y-102924151D01*
X96961926Y-102977224D01*
X96922048Y-103016760D01*
X96856343Y-103057287D01*
X96732288Y-103181342D01*
X96640186Y-103330665D01*
X96585000Y-103497202D01*
X96574500Y-103599990D01*
X96574500Y-104400008D01*
X91000500Y-104400008D01*
X91000500Y-100999999D01*
X92594540Y-100999999D01*
X92614326Y-101188257D01*
X92672820Y-101368284D01*
X92767466Y-101532216D01*
X92894129Y-101672889D01*
X93047269Y-101784151D01*
X93220197Y-101861144D01*
X93405352Y-101900500D01*
X93405354Y-101900500D01*
X93594646Y-101900500D01*
X93594648Y-101900500D01*
X93718084Y-101874262D01*
X93779803Y-101861144D01*
X93952730Y-101784151D01*
X93999735Y-101750000D01*
X93999736Y-101749999D01*
X96599631Y-101749999D01*
X96599632Y-101750000D01*
X97700000Y-101750000D01*
X97700000Y-100900000D01*
X98200000Y-100900000D01*
X98200000Y-101750000D01*
X99296257Y-101750000D01*
X99269229Y-101638589D01*
X99181960Y-101447494D01*
X99060107Y-101276378D01*
X98908066Y-101131407D01*
X98731344Y-101017833D01*
X98536314Y-100939755D01*
X98330038Y-100900000D01*
X98200000Y-100900000D01*
X97700000Y-100900000D01*
X97622601Y-100900000D01*
X97465874Y-100914965D01*
X97264312Y-100974149D01*
X97077587Y-101070412D01*
X96912461Y-101200269D01*
X96774888Y-101359036D01*
X96669853Y-101540963D01*
X96601143Y-101739488D01*
X96599631Y-101749999D01*
X93999736Y-101749999D01*
X94105870Y-101672889D01*
X94232533Y-101532216D01*
X94327179Y-101368284D01*
X94357041Y-101276378D01*
X94385674Y-101188256D01*
X94405460Y-101000000D01*
X94385674Y-100811744D01*
X94327179Y-100631716D01*
X94327179Y-100631715D01*
X94232533Y-100467783D01*
X94105870Y-100327110D01*
X93952730Y-100215848D01*
X93779802Y-100138855D01*
X93594648Y-100099500D01*
X93594646Y-100099500D01*
X93405354Y-100099500D01*
X93405352Y-100099500D01*
X93220197Y-100138855D01*
X93047269Y-100215848D01*
X92894129Y-100327110D01*
X92767466Y-100467783D01*
X92672820Y-100631715D01*
X92614326Y-100811742D01*
X92594540Y-100999999D01*
X91000500Y-100999999D01*
X91000500Y-95500000D01*
X91294457Y-95500000D01*
X91314613Y-95858908D01*
X91374826Y-96213299D01*
X91474341Y-96558724D01*
X91611905Y-96890831D01*
X91785792Y-97205458D01*
X91993804Y-97498622D01*
X92113967Y-97633084D01*
X92233339Y-97766661D01*
X92318013Y-97842330D01*
X92501377Y-98006195D01*
X92794541Y-98214207D01*
X92794547Y-98214210D01*
X92794548Y-98214211D01*
X93109167Y-98388094D01*
X93441276Y-98525659D01*
X93786700Y-98625173D01*
X94141093Y-98685387D01*
X94500000Y-98705543D01*
X94858907Y-98685387D01*
X95213300Y-98625173D01*
X95558724Y-98525659D01*
X95890833Y-98388094D01*
X96205452Y-98214211D01*
X96365712Y-98100500D01*
X96498622Y-98006195D01*
X96553061Y-97957545D01*
X96766661Y-97766661D01*
X97006194Y-97498623D01*
X97050741Y-97435841D01*
X97214207Y-97205458D01*
X97214207Y-97205456D01*
X97214211Y-97205452D01*
X97388094Y-96890833D01*
X97525659Y-96558724D01*
X97625173Y-96213300D01*
X97685387Y-95858907D01*
X97705543Y-95500000D01*
X97685387Y-95141093D01*
X97625173Y-94786700D01*
X97525659Y-94441276D01*
X97429861Y-94210000D01*
X98044340Y-94210000D01*
X98064936Y-94445407D01*
X98087596Y-94529974D01*
X98126097Y-94673663D01*
X98225965Y-94887830D01*
X98361505Y-95081401D01*
X98361507Y-95081403D01*
X98361508Y-95081404D01*
X98483430Y-95203326D01*
X98514726Y-95256072D01*
X98516915Y-95317365D01*
X98489462Y-95372209D01*
X98439083Y-95407189D01*
X98307669Y-95456204D01*
X98192454Y-95542454D01*
X98106204Y-95657668D01*
X98055909Y-95792516D01*
X98049500Y-95852130D01*
X98049500Y-97215978D01*
X98060059Y-97300048D01*
X98112987Y-97427827D01*
X98115137Y-97433016D01*
X98167121Y-97499935D01*
X98167125Y-97499939D01*
X98650066Y-97982882D01*
X98716984Y-98034865D01*
X98849950Y-98089940D01*
X98862026Y-98091456D01*
X98934023Y-98100500D01*
X100297872Y-98100499D01*
X100357483Y-98094091D01*
X100492331Y-98043796D01*
X100607546Y-97957546D01*
X100693796Y-97842331D01*
X100742810Y-97710916D01*
X100777789Y-97660537D01*
X100832634Y-97633084D01*
X100893927Y-97635273D01*
X100946672Y-97666568D01*
X101068599Y-97788495D01*
X101262170Y-97924035D01*
X101476337Y-98023903D01*
X101704592Y-98085063D01*
X101940000Y-98105659D01*
X102175408Y-98085063D01*
X102403663Y-98023903D01*
X102617830Y-97924035D01*
X102811401Y-97788495D01*
X102978495Y-97621401D01*
X103108428Y-97435837D01*
X103152742Y-97396975D01*
X103209999Y-97382964D01*
X103267255Y-97396974D01*
X103311573Y-97435839D01*
X103441505Y-97621401D01*
X103608599Y-97788495D01*
X103802170Y-97924035D01*
X104016337Y-98023903D01*
X104244592Y-98085063D01*
X104480000Y-98105659D01*
X104715408Y-98085063D01*
X104943663Y-98023903D01*
X105157830Y-97924035D01*
X105351401Y-97788495D01*
X105518495Y-97621401D01*
X105648428Y-97435837D01*
X105692742Y-97396975D01*
X105749999Y-97382964D01*
X105807255Y-97396974D01*
X105851573Y-97435839D01*
X105981505Y-97621401D01*
X106148599Y-97788495D01*
X106342170Y-97924035D01*
X106556337Y-98023903D01*
X106784592Y-98085063D01*
X107020000Y-98105659D01*
X107255408Y-98085063D01*
X107483663Y-98023903D01*
X107697830Y-97924035D01*
X107891401Y-97788495D01*
X108058495Y-97621401D01*
X108188428Y-97435837D01*
X108232742Y-97396975D01*
X108289999Y-97382964D01*
X108347255Y-97396974D01*
X108391573Y-97435839D01*
X108521505Y-97621401D01*
X108688599Y-97788495D01*
X108882170Y-97924035D01*
X109096337Y-98023903D01*
X109324592Y-98085063D01*
X109560000Y-98105659D01*
X109795408Y-98085063D01*
X110023663Y-98023903D01*
X110237830Y-97924035D01*
X110431401Y-97788495D01*
X110598495Y-97621401D01*
X110728428Y-97435837D01*
X110772742Y-97396975D01*
X110829999Y-97382964D01*
X110887255Y-97396974D01*
X110931573Y-97435839D01*
X111061505Y-97621401D01*
X111228599Y-97788495D01*
X111422170Y-97924035D01*
X111636337Y-98023903D01*
X111864592Y-98085063D01*
X112100000Y-98105659D01*
X112335408Y-98085063D01*
X112563663Y-98023903D01*
X112777830Y-97924035D01*
X112971401Y-97788495D01*
X113138495Y-97621401D01*
X113268428Y-97435837D01*
X113312742Y-97396975D01*
X113369999Y-97382964D01*
X113427255Y-97396974D01*
X113471573Y-97435839D01*
X113601505Y-97621401D01*
X113768599Y-97788495D01*
X113962170Y-97924035D01*
X114176337Y-98023903D01*
X114404592Y-98085063D01*
X114640000Y-98105659D01*
X114875408Y-98085063D01*
X115103663Y-98023903D01*
X115317830Y-97924035D01*
X115511401Y-97788495D01*
X115678495Y-97621401D01*
X115808428Y-97435837D01*
X115852742Y-97396975D01*
X115909999Y-97382964D01*
X115967255Y-97396974D01*
X116011573Y-97435839D01*
X116141505Y-97621401D01*
X116308599Y-97788495D01*
X116502170Y-97924035D01*
X116716337Y-98023903D01*
X116944592Y-98085063D01*
X117180000Y-98105659D01*
X117415408Y-98085063D01*
X117643663Y-98023903D01*
X117857830Y-97924035D01*
X118051401Y-97788495D01*
X118218495Y-97621401D01*
X118348428Y-97435837D01*
X118392742Y-97396975D01*
X118449999Y-97382964D01*
X118507255Y-97396974D01*
X118551573Y-97435839D01*
X118681505Y-97621401D01*
X118848599Y-97788495D01*
X119042170Y-97924035D01*
X119256337Y-98023903D01*
X119484592Y-98085063D01*
X119720000Y-98105659D01*
X119955408Y-98085063D01*
X120183663Y-98023903D01*
X120397830Y-97924035D01*
X120591401Y-97788495D01*
X120758495Y-97621401D01*
X120888428Y-97435837D01*
X120932742Y-97396975D01*
X120989999Y-97382964D01*
X121047255Y-97396974D01*
X121091573Y-97435839D01*
X121221505Y-97621401D01*
X121388599Y-97788495D01*
X121582170Y-97924035D01*
X121796337Y-98023903D01*
X122024592Y-98085063D01*
X122260000Y-98105659D01*
X122495408Y-98085063D01*
X122723663Y-98023903D01*
X122937830Y-97924035D01*
X123131401Y-97788495D01*
X123298495Y-97621401D01*
X123428428Y-97435837D01*
X123472742Y-97396975D01*
X123529999Y-97382964D01*
X123587255Y-97396974D01*
X123631573Y-97435839D01*
X123761505Y-97621401D01*
X123928599Y-97788495D01*
X124122170Y-97924035D01*
X124336337Y-98023903D01*
X124564592Y-98085063D01*
X124800000Y-98105659D01*
X125035408Y-98085063D01*
X125263663Y-98023903D01*
X125477830Y-97924035D01*
X125671401Y-97788495D01*
X125838495Y-97621401D01*
X125968428Y-97435837D01*
X126012742Y-97396975D01*
X126069999Y-97382964D01*
X126127255Y-97396974D01*
X126171573Y-97435839D01*
X126301505Y-97621401D01*
X126468599Y-97788495D01*
X126662170Y-97924035D01*
X126876337Y-98023903D01*
X127104592Y-98085063D01*
X127340000Y-98105659D01*
X127575408Y-98085063D01*
X127803663Y-98023903D01*
X128017830Y-97924035D01*
X128211401Y-97788495D01*
X128378495Y-97621401D01*
X128508428Y-97435837D01*
X128552742Y-97396975D01*
X128609999Y-97382964D01*
X128667255Y-97396974D01*
X128711573Y-97435839D01*
X128841505Y-97621401D01*
X129008599Y-97788495D01*
X129202170Y-97924035D01*
X129416337Y-98023903D01*
X129644592Y-98085063D01*
X129880000Y-98105659D01*
X130115408Y-98085063D01*
X130343663Y-98023903D01*
X130557830Y-97924035D01*
X130751401Y-97788495D01*
X130918495Y-97621401D01*
X131048428Y-97435837D01*
X131092742Y-97396975D01*
X131149999Y-97382964D01*
X131207255Y-97396974D01*
X131251573Y-97435839D01*
X131381505Y-97621401D01*
X131548599Y-97788495D01*
X131742170Y-97924035D01*
X131956337Y-98023903D01*
X132184592Y-98085063D01*
X132420000Y-98105659D01*
X132655408Y-98085063D01*
X132883663Y-98023903D01*
X133097830Y-97924035D01*
X133291401Y-97788495D01*
X133458495Y-97621401D01*
X133588428Y-97435837D01*
X133632742Y-97396975D01*
X133689999Y-97382964D01*
X133747255Y-97396974D01*
X133791573Y-97435839D01*
X133921505Y-97621401D01*
X134088599Y-97788495D01*
X134282170Y-97924035D01*
X134496337Y-98023903D01*
X134724592Y-98085063D01*
X134960000Y-98105659D01*
X135195408Y-98085063D01*
X135423663Y-98023903D01*
X135637830Y-97924035D01*
X135831401Y-97788495D01*
X135998495Y-97621401D01*
X136128426Y-97435839D01*
X136172743Y-97396975D01*
X136230000Y-97382964D01*
X136287257Y-97396975D01*
X136331573Y-97435839D01*
X136461505Y-97621401D01*
X136628599Y-97788495D01*
X136822170Y-97924035D01*
X137036337Y-98023903D01*
X137264592Y-98085063D01*
X137500000Y-98105659D01*
X137735408Y-98085063D01*
X137963663Y-98023903D01*
X138177830Y-97924035D01*
X138371401Y-97788495D01*
X138538495Y-97621401D01*
X138668426Y-97435839D01*
X138712743Y-97396975D01*
X138770000Y-97382964D01*
X138827257Y-97396975D01*
X138871573Y-97435839D01*
X139001505Y-97621401D01*
X139168599Y-97788495D01*
X139362170Y-97924035D01*
X139576337Y-98023903D01*
X139804592Y-98085063D01*
X140040000Y-98105659D01*
X140275408Y-98085063D01*
X140503663Y-98023903D01*
X140717830Y-97924035D01*
X140911401Y-97788495D01*
X141078495Y-97621401D01*
X141208426Y-97435839D01*
X141252743Y-97396975D01*
X141310000Y-97382964D01*
X141367257Y-97396975D01*
X141411573Y-97435839D01*
X141541505Y-97621401D01*
X141708599Y-97788495D01*
X141902170Y-97924035D01*
X142116337Y-98023903D01*
X142344592Y-98085063D01*
X142580000Y-98105659D01*
X142815408Y-98085063D01*
X143043663Y-98023903D01*
X143257830Y-97924035D01*
X143451401Y-97788495D01*
X143618495Y-97621401D01*
X143748426Y-97435839D01*
X143792743Y-97396975D01*
X143850000Y-97382964D01*
X143907257Y-97396975D01*
X143951573Y-97435839D01*
X144081505Y-97621401D01*
X144248599Y-97788495D01*
X144442170Y-97924035D01*
X144656337Y-98023903D01*
X144884592Y-98085063D01*
X145120000Y-98105659D01*
X145355408Y-98085063D01*
X145583663Y-98023903D01*
X145797830Y-97924035D01*
X145991401Y-97788495D01*
X146158495Y-97621401D01*
X146288426Y-97435839D01*
X146332743Y-97396975D01*
X146390000Y-97382964D01*
X146447257Y-97396975D01*
X146491573Y-97435839D01*
X146621505Y-97621401D01*
X146788599Y-97788495D01*
X146982170Y-97924035D01*
X147196337Y-98023903D01*
X147424592Y-98085063D01*
X147660000Y-98105659D01*
X147895408Y-98085063D01*
X148123663Y-98023903D01*
X148337830Y-97924035D01*
X148531401Y-97788495D01*
X148698495Y-97621401D01*
X148834035Y-97427830D01*
X148933903Y-97213663D01*
X148995063Y-96985408D01*
X149015659Y-96750000D01*
X148995063Y-96514592D01*
X148933903Y-96286337D01*
X148834035Y-96072171D01*
X148698495Y-95878599D01*
X148531401Y-95711505D01*
X148345839Y-95581573D01*
X148306974Y-95537255D01*
X148297858Y-95499999D01*
X149294457Y-95499999D01*
X149314613Y-95858908D01*
X149374826Y-96213299D01*
X149474341Y-96558724D01*
X149611905Y-96890831D01*
X149785792Y-97205458D01*
X149993804Y-97498622D01*
X150113967Y-97633084D01*
X150233339Y-97766661D01*
X150318013Y-97842330D01*
X150501377Y-98006195D01*
X150794541Y-98214207D01*
X150794547Y-98214210D01*
X150794548Y-98214211D01*
X151109167Y-98388094D01*
X151441276Y-98525659D01*
X151786700Y-98625173D01*
X152141093Y-98685387D01*
X152500000Y-98705543D01*
X152858907Y-98685387D01*
X153213300Y-98625173D01*
X153558724Y-98525659D01*
X153890833Y-98388094D01*
X154205452Y-98214211D01*
X154365712Y-98100500D01*
X154498622Y-98006195D01*
X154553061Y-97957545D01*
X154766661Y-97766661D01*
X155006194Y-97498623D01*
X155050741Y-97435841D01*
X155214207Y-97205458D01*
X155214207Y-97205456D01*
X155214211Y-97205452D01*
X155388094Y-96890833D01*
X155525659Y-96558724D01*
X155625173Y-96213300D01*
X155685387Y-95858907D01*
X155705543Y-95500000D01*
X155685387Y-95141093D01*
X155625173Y-94786700D01*
X155525659Y-94441276D01*
X155388094Y-94109167D01*
X155214211Y-93794548D01*
X155214210Y-93794547D01*
X155214207Y-93794541D01*
X155006195Y-93501377D01*
X154860726Y-93338598D01*
X154766661Y-93233339D01*
X154570328Y-93057885D01*
X154498622Y-92993804D01*
X154205458Y-92785792D01*
X153969487Y-92655376D01*
X153890833Y-92611906D01*
X153558724Y-92474341D01*
X153213299Y-92374826D01*
X152858908Y-92314613D01*
X152679453Y-92304535D01*
X152500000Y-92294457D01*
X152499999Y-92294457D01*
X152141091Y-92314613D01*
X151786700Y-92374826D01*
X151441275Y-92474341D01*
X151109168Y-92611905D01*
X150794541Y-92785792D01*
X150501377Y-92993804D01*
X150233339Y-93233339D01*
X149993804Y-93501377D01*
X149785792Y-93794541D01*
X149611905Y-94109168D01*
X149474341Y-94441275D01*
X149374826Y-94786700D01*
X149314613Y-95141091D01*
X149294457Y-95499999D01*
X148297858Y-95499999D01*
X148292964Y-95479999D01*
X148306975Y-95422742D01*
X148345837Y-95378428D01*
X148531401Y-95248495D01*
X148698495Y-95081401D01*
X148834035Y-94887830D01*
X148933903Y-94673663D01*
X148995063Y-94445408D01*
X149015659Y-94210000D01*
X148995063Y-93974592D01*
X148933903Y-93746337D01*
X148834035Y-93532171D01*
X148698495Y-93338599D01*
X148531401Y-93171505D01*
X148337830Y-93035965D01*
X148123663Y-92936097D01*
X148062502Y-92919709D01*
X147895407Y-92874936D01*
X147659999Y-92854340D01*
X147424592Y-92874936D01*
X147196336Y-92936097D01*
X146982170Y-93035965D01*
X146788598Y-93171505D01*
X146621505Y-93338598D01*
X146491575Y-93524159D01*
X146447257Y-93563025D01*
X146390000Y-93577036D01*
X146332743Y-93563025D01*
X146288425Y-93524159D01*
X146158494Y-93338598D01*
X145991404Y-93171508D01*
X145991401Y-93171505D01*
X145797830Y-93035965D01*
X145583663Y-92936097D01*
X145522502Y-92919709D01*
X145355407Y-92874936D01*
X145119999Y-92854340D01*
X144884592Y-92874936D01*
X144656336Y-92936097D01*
X144442170Y-93035965D01*
X144248598Y-93171505D01*
X144081505Y-93338598D01*
X143951575Y-93524159D01*
X143907257Y-93563025D01*
X143850000Y-93577036D01*
X143792743Y-93563025D01*
X143748425Y-93524159D01*
X143618494Y-93338598D01*
X143451404Y-93171508D01*
X143451401Y-93171505D01*
X143257830Y-93035965D01*
X143043663Y-92936097D01*
X142982502Y-92919709D01*
X142815407Y-92874936D01*
X142579999Y-92854340D01*
X142344592Y-92874936D01*
X142116336Y-92936097D01*
X141902170Y-93035965D01*
X141708598Y-93171505D01*
X141541505Y-93338598D01*
X141411575Y-93524159D01*
X141367257Y-93563025D01*
X141310000Y-93577036D01*
X141252743Y-93563025D01*
X141208425Y-93524159D01*
X141078494Y-93338598D01*
X140911404Y-93171508D01*
X140911401Y-93171505D01*
X140717830Y-93035965D01*
X140503663Y-92936097D01*
X140442502Y-92919709D01*
X140275407Y-92874936D01*
X140039999Y-92854340D01*
X139804592Y-92874936D01*
X139576336Y-92936097D01*
X139362170Y-93035965D01*
X139168598Y-93171505D01*
X139001505Y-93338598D01*
X138871575Y-93524159D01*
X138827257Y-93563025D01*
X138770000Y-93577036D01*
X138712743Y-93563025D01*
X138668425Y-93524159D01*
X138538494Y-93338598D01*
X138371404Y-93171508D01*
X138371401Y-93171505D01*
X138177830Y-93035965D01*
X137963663Y-92936097D01*
X137902502Y-92919709D01*
X137735407Y-92874936D01*
X137499999Y-92854340D01*
X137264592Y-92874936D01*
X137036336Y-92936097D01*
X136822170Y-93035965D01*
X136628598Y-93171505D01*
X136461505Y-93338598D01*
X136331575Y-93524159D01*
X136287257Y-93563025D01*
X136230000Y-93577036D01*
X136172743Y-93563025D01*
X136128425Y-93524159D01*
X135998494Y-93338598D01*
X135831404Y-93171508D01*
X135831401Y-93171505D01*
X135637830Y-93035965D01*
X135423663Y-92936097D01*
X135362502Y-92919709D01*
X135195407Y-92874936D01*
X134959999Y-92854340D01*
X134724592Y-92874936D01*
X134496336Y-92936097D01*
X134282170Y-93035965D01*
X134088598Y-93171505D01*
X133921505Y-93338598D01*
X133791575Y-93524159D01*
X133747257Y-93563025D01*
X133690000Y-93577036D01*
X133632743Y-93563025D01*
X133588425Y-93524159D01*
X133458494Y-93338598D01*
X133291404Y-93171508D01*
X133291401Y-93171505D01*
X133097830Y-93035965D01*
X132883663Y-92936097D01*
X132822502Y-92919709D01*
X132655407Y-92874936D01*
X132419999Y-92854340D01*
X132184592Y-92874936D01*
X131956336Y-92936097D01*
X131742170Y-93035965D01*
X131548598Y-93171505D01*
X131381505Y-93338598D01*
X131251575Y-93524159D01*
X131207257Y-93563025D01*
X131150000Y-93577036D01*
X131092743Y-93563025D01*
X131048425Y-93524159D01*
X130918494Y-93338598D01*
X130751404Y-93171508D01*
X130751401Y-93171505D01*
X130557830Y-93035965D01*
X130343663Y-92936097D01*
X130282502Y-92919709D01*
X130115407Y-92874936D01*
X129879999Y-92854340D01*
X129644592Y-92874936D01*
X129416336Y-92936097D01*
X129202170Y-93035965D01*
X129008598Y-93171505D01*
X128841505Y-93338598D01*
X128711575Y-93524159D01*
X128667257Y-93563025D01*
X128610000Y-93577036D01*
X128552743Y-93563025D01*
X128508425Y-93524159D01*
X128378494Y-93338598D01*
X128211404Y-93171508D01*
X128211401Y-93171505D01*
X128017830Y-93035965D01*
X127803663Y-92936097D01*
X127742502Y-92919709D01*
X127575407Y-92874936D01*
X127339999Y-92854340D01*
X127104592Y-92874936D01*
X126876336Y-92936097D01*
X126662170Y-93035965D01*
X126468598Y-93171505D01*
X126301505Y-93338598D01*
X126171575Y-93524159D01*
X126127257Y-93563025D01*
X126070000Y-93577036D01*
X126012743Y-93563025D01*
X125968425Y-93524159D01*
X125838494Y-93338598D01*
X125671404Y-93171508D01*
X125671401Y-93171505D01*
X125477830Y-93035965D01*
X125263663Y-92936097D01*
X125202502Y-92919709D01*
X125035407Y-92874936D01*
X124799999Y-92854340D01*
X124564592Y-92874936D01*
X124336336Y-92936097D01*
X124122170Y-93035965D01*
X123928598Y-93171505D01*
X123761505Y-93338598D01*
X123631575Y-93524159D01*
X123587257Y-93563025D01*
X123530000Y-93577036D01*
X123472743Y-93563025D01*
X123428425Y-93524159D01*
X123298494Y-93338598D01*
X123131404Y-93171508D01*
X123131401Y-93171505D01*
X122937830Y-93035965D01*
X122723663Y-92936097D01*
X122662502Y-92919709D01*
X122495407Y-92874936D01*
X122259999Y-92854340D01*
X122024592Y-92874936D01*
X121796336Y-92936097D01*
X121582170Y-93035965D01*
X121388598Y-93171505D01*
X121221505Y-93338598D01*
X121091575Y-93524159D01*
X121047257Y-93563025D01*
X120990000Y-93577036D01*
X120932743Y-93563025D01*
X120888425Y-93524159D01*
X120758494Y-93338598D01*
X120591404Y-93171508D01*
X120591401Y-93171505D01*
X120397830Y-93035965D01*
X120183663Y-92936097D01*
X120122502Y-92919709D01*
X119955407Y-92874936D01*
X119719999Y-92854340D01*
X119484592Y-92874936D01*
X119256336Y-92936097D01*
X119042170Y-93035965D01*
X118848598Y-93171505D01*
X118681505Y-93338598D01*
X118551575Y-93524159D01*
X118507257Y-93563025D01*
X118450000Y-93577036D01*
X118392743Y-93563025D01*
X118348425Y-93524159D01*
X118218494Y-93338598D01*
X118051404Y-93171508D01*
X118051401Y-93171505D01*
X117857830Y-93035965D01*
X117643663Y-92936097D01*
X117582502Y-92919709D01*
X117415407Y-92874936D01*
X117179999Y-92854340D01*
X116944592Y-92874936D01*
X116716336Y-92936097D01*
X116502170Y-93035965D01*
X116308598Y-93171505D01*
X116141505Y-93338598D01*
X116011575Y-93524159D01*
X115967257Y-93563025D01*
X115910000Y-93577036D01*
X115852743Y-93563025D01*
X115808425Y-93524159D01*
X115678494Y-93338598D01*
X115511404Y-93171508D01*
X115511401Y-93171505D01*
X115317830Y-93035965D01*
X115103663Y-92936097D01*
X115042502Y-92919709D01*
X114875407Y-92874936D01*
X114639999Y-92854340D01*
X114404592Y-92874936D01*
X114176336Y-92936097D01*
X113962170Y-93035965D01*
X113768598Y-93171505D01*
X113601505Y-93338598D01*
X113471575Y-93524159D01*
X113427257Y-93563025D01*
X113370000Y-93577036D01*
X113312743Y-93563025D01*
X113268425Y-93524159D01*
X113138494Y-93338598D01*
X112971404Y-93171508D01*
X112971401Y-93171505D01*
X112777830Y-93035965D01*
X112563663Y-92936097D01*
X112502502Y-92919709D01*
X112335407Y-92874936D01*
X112099999Y-92854340D01*
X111864592Y-92874936D01*
X111636336Y-92936097D01*
X111422170Y-93035965D01*
X111228598Y-93171505D01*
X111061505Y-93338598D01*
X110931575Y-93524159D01*
X110887257Y-93563025D01*
X110830000Y-93577036D01*
X110772743Y-93563025D01*
X110728425Y-93524159D01*
X110598494Y-93338598D01*
X110431404Y-93171508D01*
X110431401Y-93171505D01*
X110237830Y-93035965D01*
X110023663Y-92936097D01*
X109962502Y-92919709D01*
X109795407Y-92874936D01*
X109559999Y-92854340D01*
X109324592Y-92874936D01*
X109096336Y-92936097D01*
X108882170Y-93035965D01*
X108688598Y-93171505D01*
X108521505Y-93338598D01*
X108391575Y-93524159D01*
X108347257Y-93563025D01*
X108290000Y-93577036D01*
X108232743Y-93563025D01*
X108188425Y-93524159D01*
X108058494Y-93338598D01*
X107891404Y-93171508D01*
X107891401Y-93171505D01*
X107697830Y-93035965D01*
X107483663Y-92936097D01*
X107422502Y-92919709D01*
X107255407Y-92874936D01*
X107019999Y-92854340D01*
X106784592Y-92874936D01*
X106556336Y-92936097D01*
X106342170Y-93035965D01*
X106148598Y-93171505D01*
X105981505Y-93338598D01*
X105851575Y-93524159D01*
X105807257Y-93563025D01*
X105750000Y-93577036D01*
X105692743Y-93563025D01*
X105648425Y-93524159D01*
X105518494Y-93338598D01*
X105351404Y-93171508D01*
X105351401Y-93171505D01*
X105157830Y-93035965D01*
X104943663Y-92936097D01*
X104882502Y-92919709D01*
X104715407Y-92874936D01*
X104479999Y-92854340D01*
X104244592Y-92874936D01*
X104016336Y-92936097D01*
X103802170Y-93035965D01*
X103608598Y-93171505D01*
X103441505Y-93338598D01*
X103311575Y-93524159D01*
X103267257Y-93563025D01*
X103210000Y-93577036D01*
X103152743Y-93563025D01*
X103108425Y-93524159D01*
X102978494Y-93338598D01*
X102811404Y-93171508D01*
X102811401Y-93171505D01*
X102617830Y-93035965D01*
X102403663Y-92936097D01*
X102342502Y-92919709D01*
X102175407Y-92874936D01*
X101939999Y-92854340D01*
X101704592Y-92874936D01*
X101476336Y-92936097D01*
X101262170Y-93035965D01*
X101068598Y-93171505D01*
X100901505Y-93338598D01*
X100771575Y-93524159D01*
X100727257Y-93563025D01*
X100670000Y-93577036D01*
X100612743Y-93563025D01*
X100568425Y-93524159D01*
X100438494Y-93338598D01*
X100271404Y-93171508D01*
X100271401Y-93171505D01*
X100077830Y-93035965D01*
X99863663Y-92936097D01*
X99802502Y-92919709D01*
X99635407Y-92874936D01*
X99399999Y-92854340D01*
X99164592Y-92874936D01*
X98936336Y-92936097D01*
X98722170Y-93035965D01*
X98528598Y-93171505D01*
X98361505Y-93338598D01*
X98225965Y-93532170D01*
X98126097Y-93746336D01*
X98064936Y-93974592D01*
X98044340Y-94210000D01*
X97429861Y-94210000D01*
X97388094Y-94109167D01*
X97214211Y-93794548D01*
X97214210Y-93794547D01*
X97214207Y-93794541D01*
X97006195Y-93501377D01*
X96860726Y-93338598D01*
X96766661Y-93233339D01*
X96570328Y-93057885D01*
X96498622Y-92993804D01*
X96205458Y-92785792D01*
X95969487Y-92655376D01*
X95890833Y-92611906D01*
X95558724Y-92474341D01*
X95213299Y-92374826D01*
X94858908Y-92314613D01*
X94679453Y-92304535D01*
X94500000Y-92294457D01*
X94499999Y-92294457D01*
X94141091Y-92314613D01*
X93786700Y-92374826D01*
X93441275Y-92474341D01*
X93109168Y-92611905D01*
X92794541Y-92785792D01*
X92501377Y-92993804D01*
X92233339Y-93233339D01*
X91993804Y-93501377D01*
X91785792Y-93794541D01*
X91611905Y-94109168D01*
X91474341Y-94441275D01*
X91374826Y-94786700D01*
X91314613Y-95141091D01*
X91294457Y-95500000D01*
X91000500Y-95500000D01*
X91000500Y-95003245D01*
X91000670Y-94996756D01*
X91007501Y-94866421D01*
X91017628Y-94686087D01*
X91018954Y-94673694D01*
X91042513Y-94524947D01*
X91042700Y-94523809D01*
X91069739Y-94364666D01*
X91072199Y-94353402D01*
X91112150Y-94204305D01*
X91112709Y-94202293D01*
X91156351Y-94050811D01*
X91159724Y-94040753D01*
X91215583Y-93895233D01*
X91216692Y-93892452D01*
X91276439Y-93748212D01*
X91280488Y-93739429D01*
X91351569Y-93599925D01*
X91353521Y-93596250D01*
X91364140Y-93577036D01*
X91428588Y-93460426D01*
X91433065Y-93452962D01*
X91518633Y-93321199D01*
X91521434Y-93317077D01*
X91611010Y-93190832D01*
X91615733Y-93184603D01*
X91714702Y-93062386D01*
X91718532Y-93057885D01*
X91821613Y-92942537D01*
X91826323Y-92937556D01*
X91937556Y-92826323D01*
X91942537Y-92821613D01*
X92057885Y-92718532D01*
X92062386Y-92714702D01*
X92184603Y-92615733D01*
X92190832Y-92611010D01*
X92317077Y-92521434D01*
X92321199Y-92518633D01*
X92452962Y-92433065D01*
X92460426Y-92428588D01*
X92596255Y-92353517D01*
X92599934Y-92351565D01*
X92739429Y-92280488D01*
X92748212Y-92276439D01*
X92892452Y-92216692D01*
X92895233Y-92215583D01*
X93040753Y-92159724D01*
X93050811Y-92156351D01*
X93202293Y-92112709D01*
X93204305Y-92112150D01*
X93353402Y-92072199D01*
X93364666Y-92069739D01*
X93523809Y-92042700D01*
X93524947Y-92042513D01*
X93673694Y-92018954D01*
X93686087Y-92017628D01*
X93866554Y-92007493D01*
X93996756Y-92000669D01*
X94003245Y-92000500D01*
X152996755Y-92000500D01*
X153003243Y-92000669D01*
G37*
%TD.AperFunction*%
%TD*%
M02*
