M48
; DRILL file {KiCad 7.0.6} date Παρ 28 Ιουλ 2023 03:42:28 μμ EEST
; FORMAT={-:-/ absolute / inch / decimal}
; #@! TF.CreationDate,2023-07-28T15:42:28+03:00
; #@! TF.GenerationSoftware,Kicad,Pcbnew,7.0.6
; #@! TF.FileFunction,Plated,1,4,PTH
FMAT,2
INCH
; #@! TA.AperFunction,Plated,PTH,ComponentDrill
T1C0.0079
; #@! TA.AperFunction,Plated,PTH,ViaDrill
T2C0.0118
; #@! TA.AperFunction,Plated,PTH,ViaDrill
T3C0.0157
; #@! TA.AperFunction,Plated,PTH,ComponentDrill
T4C0.0236
; #@! TA.AperFunction,Plated,PTH,ComponentDrill
T5C0.0295
; #@! TA.AperFunction,Plated,PTH,ComponentDrill
T6C0.0394
%
G90
G05
T1
X4.4272Y-3.9843
X4.4272Y-4.0157
X4.4272Y-4.0472
X4.4587Y-3.9843
X4.4587Y-4.0157
X4.4587Y-4.0472
X4.4902Y-3.9843
X4.4902Y-4.0157
X4.4902Y-4.0472
X4.7343Y-4.124
X4.7736Y-4.124
X5.3937Y-4.0748
X5.3937Y-4.1142
X5.3937Y-4.1535
X5.4331Y-4.0748
X5.4331Y-4.1142
X5.4331Y-4.1535
T2
X3.8617Y-4.0157
X3.9272Y-4.2126
X4.2224Y-4.1098
X4.4459Y-4.1437
X4.4715Y-4.124
X4.532Y-4.124
X4.564Y-4.744
X4.5669Y-4.124
X4.7655Y-4.1962
X4.813Y-4.0866
X4.9031Y-4.7047
X4.9951Y-4.2913
X5.0182Y-4.7047
X5.5512Y-4.246
X5.5555Y-4.3265
T3
X3.622Y-3.878
X3.6319Y-4.5276
X3.7008Y-4.0551
X3.7992Y-4.2835
X3.7992Y-4.4173
X3.8386Y-3.6614
X3.8386Y-4.7638
X3.8583Y-3.8976
X3.8583Y-4.5669
X3.9961Y-3.8976
X3.9961Y-3.9665
X4.0551Y-3.9173
X4.1043Y-4.0335
X4.1535Y-4.6063
X4.1634Y-3.8484
X4.2913Y-3.9284
X4.2913Y-4.1142
X4.2913Y-4.2421
X4.3412Y-3.9564
X4.3799Y-3.937
X4.3799Y-4.0945
X4.3799Y-4.6024
X4.4567Y-4.6496
X4.5768Y-4.626
X4.5866Y-3.937
X4.5965Y-4.0925
X4.5965Y-4.1555
X4.6457Y-4.7441
X4.7047Y-4.685
X4.7146Y-4.5965
X4.7244Y-4.7441
X4.7343Y-3.9035
X4.7343Y-4.3504
X4.7441Y-4.5177
X4.8091Y-3.9035
X4.8342Y-4.311
X4.8425Y-4.1732
X4.9493Y-4.311
X4.9803Y-4.065
X5.0591Y-4.0157
X5.0689Y-4.4094
X5.0689Y-4.439
X5.0689Y-4.4685
X5.0689Y-4.5374
X5.0689Y-4.5669
X5.0689Y-4.5965
X5.1732Y-4.7441
X5.1969Y-4.0157
X5.252Y-4.7638
X5.2766Y-4.0758
X5.3622Y-4.7835
X5.3839Y-4.4311
X5.4112Y-4.0059
X5.486Y-3.9075
X5.5512Y-4.2913
X5.5591Y-4.7835
X5.561Y-4.0748
X5.6398Y-3.9469
X5.6594Y-4.1634
X5.6594Y-4.2815
X5.6693Y-4.7638
X5.7441Y-4.0059
X5.748Y-4.7441
X5.7874Y-3.9173
X5.8071Y-4.065
X5.8071Y-4.3602
X5.8661Y-4.5472
X5.8661Y-4.7638
X5.8858Y-3.6614
X5.8858Y-3.878
X5.9055Y-4.2126
X5.9646Y-4.1339
X5.9646Y-4.2126
X5.9646Y-4.2913
X6.1024Y-4.0157
X6.1024Y-4.0945
X6.1024Y-4.1535
X6.1024Y-4.2126
X6.1024Y-4.2717
X6.1024Y-4.3307
X6.1024Y-4.4094
T5
X5.1732Y-4.5394
X5.252Y-4.5394
X5.6693Y-4.5394
X5.748Y-4.5394
T6
X3.9134Y-3.7091
X3.9134Y-3.8091
X4.0134Y-3.7091
X4.0134Y-3.8091
X4.1134Y-3.7091
X4.1134Y-3.8091
X4.2134Y-3.7091
X4.2134Y-3.8091
X4.3134Y-3.7091
X4.3134Y-3.8091
X4.4134Y-3.7091
X4.4134Y-3.8091
X4.5134Y-3.7091
X4.5134Y-3.8091
X4.6134Y-3.7091
X4.6134Y-3.8091
X4.7134Y-3.7091
X4.7134Y-3.8091
X4.8134Y-3.7091
X4.8134Y-3.8091
X4.9134Y-3.7091
X4.9134Y-3.8091
X5.0134Y-3.7091
X5.0134Y-3.8091
X5.1134Y-3.7091
X5.1134Y-3.8091
X5.2134Y-3.7091
X5.2134Y-3.8091
X5.3134Y-3.7091
X5.3134Y-3.8091
X5.4134Y-3.7091
X5.4134Y-3.8091
X5.5134Y-3.7091
X5.5134Y-3.8091
X5.6134Y-3.7091
X5.6134Y-3.8091
X5.7134Y-3.7091
X5.7134Y-3.8091
X5.8134Y-3.7091
X5.8134Y-3.8091
T4
G00X5.8935Y-4.0425
M15
G01X5.8502Y-4.0425
M16
G05
G00X5.8935Y-4.3827
M15
G01X5.8502Y-4.3827
M16
G05
G00X6.0522Y-4.0425
M15
G01X6.0207Y-4.0425
M16
G05
G00X6.0522Y-4.3827
M15
G01X6.0207Y-4.3827
M16
G05
T0
M30
