%TF.GenerationSoftware,KiCad,Pcbnew,7.0.7*%
%TF.CreationDate,2023-09-20T17:31:38+03:00*%
%TF.ProjectId,picoups,7069636f-7570-4732-9e6b-696361645f70,1.2.0*%
%TF.SameCoordinates,Original*%
%TF.FileFunction,Soldermask,Bot*%
%TF.FilePolarity,Negative*%
%FSLAX46Y46*%
G04 Gerber Fmt 4.6, Leading zero omitted, Abs format (unit mm)*
G04 Created by KiCad (PCBNEW 7.0.7) date 2023-09-20 17:31:38*
%MOMM*%
%LPD*%
G01*
G04 APERTURE LIST*
G04 Aperture macros list*
%AMRoundRect*
0 Rectangle with rounded corners*
0 $1 Rounding radius*
0 $2 $3 $4 $5 $6 $7 $8 $9 X,Y pos of 4 corners*
0 Add a 4 corners polygon primitive as box body*
4,1,4,$2,$3,$4,$5,$6,$7,$8,$9,$2,$3,0*
0 Add four circle primitives for the rounded corners*
1,1,$1+$1,$2,$3*
1,1,$1+$1,$4,$5*
1,1,$1+$1,$6,$7*
1,1,$1+$1,$8,$9*
0 Add four rect primitives between the rounded corners*
20,1,$1+$1,$2,$3,$4,$5,0*
20,1,$1+$1,$4,$5,$6,$7,0*
20,1,$1+$1,$6,$7,$8,$9,0*
20,1,$1+$1,$8,$9,$2,$3,0*%
%AMOutline5P*
0 Free polygon, 5 corners , with rotation*
0 The origin of the aperture is its center*
0 number of corners: always 5*
0 $1 to $10 corner X, Y*
0 $11 Rotation angle, in degrees counterclockwise*
0 create outline with 5 corners*
4,1,5,$1,$2,$3,$4,$5,$6,$7,$8,$9,$10,$1,$2,$11*%
%AMOutline6P*
0 Free polygon, 6 corners , with rotation*
0 The origin of the aperture is its center*
0 number of corners: always 6*
0 $1 to $12 corner X, Y*
0 $13 Rotation angle, in degrees counterclockwise*
0 create outline with 6 corners*
4,1,6,$1,$2,$3,$4,$5,$6,$7,$8,$9,$10,$11,$12,$1,$2,$13*%
%AMOutline7P*
0 Free polygon, 7 corners , with rotation*
0 The origin of the aperture is its center*
0 number of corners: always 7*
0 $1 to $14 corner X, Y*
0 $15 Rotation angle, in degrees counterclockwise*
0 create outline with 7 corners*
4,1,7,$1,$2,$3,$4,$5,$6,$7,$8,$9,$10,$11,$12,$13,$14,$1,$2,$15*%
%AMOutline8P*
0 Free polygon, 8 corners , with rotation*
0 The origin of the aperture is its center*
0 number of corners: always 8*
0 $1 to $16 corner X, Y*
0 $17 Rotation angle, in degrees counterclockwise*
0 create outline with 8 corners*
4,1,8,$1,$2,$3,$4,$5,$6,$7,$8,$9,$10,$11,$12,$13,$14,$15,$16,$1,$2,$17*%
%AMFreePoly0*
4,1,19,0.500000,-0.750000,0.000000,-0.750000,0.000000,-0.744911,-0.071157,-0.744911,-0.207708,-0.704816,-0.327430,-0.627875,-0.420627,-0.520320,-0.479746,-0.390866,-0.500000,-0.250000,-0.500000,0.250000,-0.479746,0.390866,-0.420627,0.520320,-0.327430,0.627875,-0.207708,0.704816,-0.071157,0.744911,0.000000,0.744911,0.000000,0.750000,0.500000,0.750000,0.500000,-0.750000,0.500000,-0.750000,
$1*%
%AMFreePoly1*
4,1,19,0.000000,0.744911,0.071157,0.744911,0.207708,0.704816,0.327430,0.627875,0.420627,0.520320,0.479746,0.390866,0.500000,0.250000,0.500000,-0.250000,0.479746,-0.390866,0.420627,-0.520320,0.327430,-0.627875,0.207708,-0.704816,0.071157,-0.744911,0.000000,-0.744911,0.000000,-0.750000,-0.500000,-0.750000,-0.500000,0.750000,0.000000,0.750000,0.000000,0.744911,0.000000,0.744911,
$1*%
%AMFreePoly2*
4,1,13,-0.487500,0.037500,-0.484645,0.051851,-0.476517,0.064017,-0.464351,0.072145,-0.450000,0.075000,0.450000,0.075000,0.464351,0.072145,0.476517,0.064017,0.484645,0.051851,0.487500,0.037500,0.487500,-0.075000,-0.487500,-0.075000,-0.487500,0.037500,-0.487500,0.037500,$1*%
G04 Aperture macros list end*
%ADD10Outline5P,-0.850000X0.425000X-0.425000X0.850000X0.850000X0.850000X0.850000X-0.850000X-0.850000X-0.850000X90.000000*%
%ADD11C,1.700000*%
%ADD12O,1.700000X1.700000*%
%ADD13C,5.400000*%
%ADD14RoundRect,0.050000X-0.285000X-0.100000X0.285000X-0.100000X0.285000X0.100000X-0.285000X0.100000X0*%
%ADD15RoundRect,0.250000X0.475000X-0.250000X0.475000X0.250000X-0.475000X0.250000X-0.475000X-0.250000X0*%
%ADD16R,5.700000X1.600000*%
%ADD17RoundRect,0.243750X0.456250X-0.243750X0.456250X0.243750X-0.456250X0.243750X-0.456250X-0.243750X0*%
%ADD18RoundRect,0.250000X-0.450000X0.262500X-0.450000X-0.262500X0.450000X-0.262500X0.450000X0.262500X0*%
%ADD19FreePoly0,90.000000*%
%ADD20FreePoly1,90.000000*%
%ADD21RoundRect,0.100000X0.625000X0.100000X-0.625000X0.100000X-0.625000X-0.100000X0.625000X-0.100000X0*%
%ADD22R,1.650000X2.850000*%
%ADD23R,1.100000X1.600000*%
%ADD24R,1.600000X1.600000*%
%ADD25RoundRect,0.250000X-0.325000X-1.100000X0.325000X-1.100000X0.325000X1.100000X-0.325000X1.100000X0*%
%ADD26RoundRect,0.250000X0.262500X0.450000X-0.262500X0.450000X-0.262500X-0.450000X0.262500X-0.450000X0*%
%ADD27RoundRect,0.250000X-0.550000X1.500000X-0.550000X-1.500000X0.550000X-1.500000X0.550000X1.500000X0*%
%ADD28RoundRect,0.087500X-0.425000X-0.087500X0.425000X-0.087500X0.425000X0.087500X-0.425000X0.087500X0*%
%ADD29RoundRect,0.087500X-0.087500X-0.425000X0.087500X-0.425000X0.087500X0.425000X-0.087500X0.425000X0*%
%ADD30R,2.100000X2.100000*%
%ADD31C,1.000000*%
%ADD32RoundRect,0.200000X-0.200000X-0.275000X0.200000X-0.275000X0.200000X0.275000X-0.200000X0.275000X0*%
%ADD33RoundRect,0.250000X0.250000X0.475000X-0.250000X0.475000X-0.250000X-0.475000X0.250000X-0.475000X0*%
%ADD34RoundRect,0.250000X-0.300000X-0.300000X0.300000X-0.300000X0.300000X0.300000X-0.300000X0.300000X0*%
%ADD35RoundRect,0.250000X0.312500X1.075000X-0.312500X1.075000X-0.312500X-1.075000X0.312500X-1.075000X0*%
%ADD36RoundRect,0.250000X0.450000X-0.262500X0.450000X0.262500X-0.450000X0.262500X-0.450000X-0.262500X0*%
%ADD37RoundRect,0.250000X-0.475000X0.250000X-0.475000X-0.250000X0.475000X-0.250000X0.475000X0.250000X0*%
%ADD38RoundRect,0.112500X-0.112500X0.187500X-0.112500X-0.187500X0.112500X-0.187500X0.112500X0.187500X0*%
%ADD39RoundRect,0.250000X-0.300000X0.300000X-0.300000X-0.300000X0.300000X-0.300000X0.300000X0.300000X0*%
%ADD40RoundRect,0.150000X-0.587500X-0.150000X0.587500X-0.150000X0.587500X0.150000X-0.587500X0.150000X0*%
%ADD41R,0.200000X0.500000*%
%ADD42R,1.500000X0.900000*%
%ADD43RoundRect,0.250000X0.350000X0.625000X-0.350000X0.625000X-0.350000X-0.625000X0.350000X-0.625000X0*%
%ADD44O,1.200000X1.750000*%
%ADD45R,1.200000X0.600000*%
%ADD46C,0.700000*%
%ADD47R,0.800000X0.900000*%
%ADD48RoundRect,0.075000X-0.075000X0.475000X-0.075000X-0.475000X0.075000X-0.475000X0.075000X0.475000X0*%
%ADD49FreePoly2,270.000000*%
%ADD50RoundRect,0.075000X-0.075000X1.375000X-0.075000X-1.375000X0.075000X-1.375000X0.075000X1.375000X0*%
%ADD51RoundRect,0.062500X-0.062500X0.237500X-0.062500X-0.237500X0.062500X-0.237500X0.062500X0.237500X0*%
%ADD52RoundRect,0.062500X-0.237500X0.062500X-0.237500X-0.062500X0.237500X-0.062500X0.237500X0.062500X0*%
%ADD53RoundRect,0.075000X-0.075000X0.650000X-0.075000X-0.650000X0.075000X-0.650000X0.075000X0.650000X0*%
%ADD54R,0.420000X0.400000*%
%ADD55C,0.650000*%
%ADD56R,1.150000X0.600000*%
%ADD57R,1.150000X0.300000*%
%ADD58O,1.800000X1.000000*%
%ADD59O,2.100000X1.000000*%
%ADD60RoundRect,0.243750X-0.456250X0.243750X-0.456250X-0.243750X0.456250X-0.243750X0.456250X0.243750X0*%
%ADD61RoundRect,0.250000X0.550000X-1.500000X0.550000X1.500000X-0.550000X1.500000X-0.550000X-1.500000X0*%
%ADD62R,1.903000X2.790000*%
%ADD63R,0.800000X1.000000*%
%ADD64C,0.900000*%
%ADD65R,1.500000X0.700000*%
G04 APERTURE END LIST*
D10*
%TO.C,J4*%
X99400000Y-96750000D03*
D11*
X99400000Y-94210000D03*
D12*
X101940000Y-96750000D03*
X101940000Y-94210000D03*
X104480000Y-96750000D03*
X104480000Y-94210000D03*
X107020000Y-96750000D03*
X107020000Y-94210000D03*
X109560000Y-96750000D03*
X109560000Y-94210000D03*
X112100000Y-96750000D03*
X112100000Y-94210000D03*
X114640000Y-96750000D03*
X114640000Y-94210000D03*
X117180000Y-96750000D03*
X117180000Y-94210000D03*
X119720000Y-96750000D03*
X119720000Y-94210000D03*
X122260000Y-96750000D03*
X122260000Y-94210000D03*
X124800000Y-96750000D03*
X124800000Y-94210000D03*
X127340000Y-96750000D03*
X127340000Y-94210000D03*
X129880000Y-96750000D03*
X129880000Y-94210000D03*
X132420000Y-96750000D03*
X132420000Y-94210000D03*
X134960000Y-96750000D03*
X134960000Y-94210000D03*
X137500000Y-96750000D03*
X137500000Y-94210000D03*
X140040000Y-96750000D03*
X140040000Y-94210000D03*
X142580000Y-96750000D03*
X142580000Y-94210000D03*
X145120000Y-96750000D03*
X145120000Y-94210000D03*
X147660000Y-96750000D03*
X147660000Y-94210000D03*
%TD*%
D13*
%TO.C,REF\u002A\u002A*%
X94500000Y-118500000D03*
%TD*%
%TO.C,REF\u002A\u002A*%
X152500000Y-95500000D03*
%TD*%
%TO.C,REF\u002A\u002A*%
X94500000Y-95500000D03*
%TD*%
%TO.C,REF\u002A\u002A*%
X152500000Y-118500000D03*
%TD*%
D14*
%TO.C,U2*%
X120510000Y-113750000D03*
X120510000Y-113250000D03*
X120510000Y-112750000D03*
X120510000Y-112250000D03*
X121990000Y-112250000D03*
X121990000Y-112750000D03*
X121990000Y-113250000D03*
X121990000Y-113750000D03*
%TD*%
D15*
%TO.C,C2*%
X128000000Y-109950000D03*
X128000000Y-108050000D03*
%TD*%
D16*
%TO.C,L1*%
X130250000Y-100400000D03*
X130250000Y-105100000D03*
%TD*%
D17*
%TO.C,D5*%
X139900000Y-120937500D03*
X139900000Y-119062500D03*
%TD*%
D18*
%TO.C,R5*%
X98250000Y-99837500D03*
X98250000Y-101662500D03*
%TD*%
D19*
%TO.C,JP6*%
X102000000Y-101400000D03*
D20*
X102000000Y-100100000D03*
%TD*%
D21*
%TO.C,U1*%
X139650000Y-102875000D03*
X139650000Y-103525000D03*
X139650000Y-104175000D03*
X139650000Y-104825000D03*
X139650000Y-105475000D03*
X139650000Y-106125000D03*
X135350000Y-106125000D03*
X135350000Y-105475000D03*
X135350000Y-104825000D03*
X135350000Y-104175000D03*
X135350000Y-103525000D03*
X135350000Y-102875000D03*
D22*
X137500000Y-104500000D03*
%TD*%
D23*
%TO.C,RV1*%
X143600000Y-103200000D03*
D24*
X144750000Y-100300000D03*
D23*
X145900000Y-103200000D03*
%TD*%
D25*
%TO.C,C3*%
X124525000Y-112750000D03*
X127475000Y-112750000D03*
%TD*%
D26*
%TO.C,R12*%
X139912500Y-112550000D03*
X138087500Y-112550000D03*
%TD*%
D27*
%TO.C,C13*%
X107750000Y-106550000D03*
X107750000Y-111950000D03*
%TD*%
D28*
%TO.C,U5*%
X111387500Y-102975000D03*
X111387500Y-102325000D03*
X111387500Y-101675000D03*
X111387500Y-101025000D03*
D29*
X112275000Y-100137500D03*
X112925000Y-100137500D03*
X113575000Y-100137500D03*
X114225000Y-100137500D03*
D28*
X115112500Y-101025000D03*
X115112500Y-101675000D03*
X115112500Y-102325000D03*
X115112500Y-102975000D03*
D29*
X114225000Y-103862500D03*
X113575000Y-103862500D03*
X112925000Y-103862500D03*
X112275000Y-103862500D03*
D30*
X113250000Y-102000000D03*
%TD*%
D31*
%TO.C,TP6*%
X114250000Y-109500000D03*
%TD*%
D15*
%TO.C,C10*%
X118250000Y-107450000D03*
X118250000Y-105550000D03*
%TD*%
D32*
%TO.C,R13*%
X144925000Y-105750000D03*
X146575000Y-105750000D03*
%TD*%
D15*
%TO.C,C8*%
X113750000Y-119950000D03*
X113750000Y-118050000D03*
%TD*%
D17*
%TO.C,D7*%
X154750000Y-100687500D03*
X154750000Y-98812500D03*
%TD*%
D31*
%TO.C,TP3*%
X115250000Y-107500000D03*
%TD*%
D18*
%TO.C,R7*%
X122150000Y-100337500D03*
X122150000Y-102162500D03*
%TD*%
D33*
%TO.C,C1*%
X141244916Y-100670000D03*
X139344916Y-100670000D03*
%TD*%
D34*
%TO.C,D1*%
X134644916Y-100400000D03*
X137444916Y-100400000D03*
%TD*%
D18*
%TO.C,R6*%
X120250000Y-100337500D03*
X120250000Y-102162500D03*
%TD*%
D35*
%TO.C,R11*%
X111462500Y-119500000D03*
X108537500Y-119500000D03*
%TD*%
D18*
%TO.C,R1*%
X130250000Y-108087500D03*
X130250000Y-109912500D03*
%TD*%
D31*
%TO.C,TP9*%
X118250000Y-109500000D03*
%TD*%
D36*
%TO.C,R8*%
X120250000Y-109412500D03*
X120250000Y-107587500D03*
%TD*%
D37*
%TO.C,C6*%
X139650000Y-108050000D03*
X139650000Y-109950000D03*
%TD*%
D35*
%TO.C,R9*%
X125712500Y-109500000D03*
X122787500Y-109500000D03*
%TD*%
D15*
%TO.C,C9*%
X118250000Y-103950000D03*
X118250000Y-102050000D03*
%TD*%
D36*
%TO.C,R17*%
X139900000Y-117412500D03*
X139900000Y-115587500D03*
%TD*%
D18*
%TO.C,R3*%
X135350000Y-108087500D03*
X135350000Y-109912500D03*
%TD*%
D38*
%TO.C,D3*%
X142000000Y-110450000D03*
X142000000Y-112550000D03*
%TD*%
D39*
%TO.C,D2*%
X125500000Y-104100000D03*
X125500000Y-106900000D03*
%TD*%
D40*
%TO.C,Q1*%
X144125000Y-112450000D03*
X144125000Y-110550000D03*
X146000000Y-111500000D03*
%TD*%
D37*
%TO.C,C5*%
X125500000Y-100400000D03*
X125500000Y-102300000D03*
%TD*%
D41*
%TO.C,U4*%
X119950000Y-103800000D03*
X120350000Y-103800000D03*
X120750000Y-103800000D03*
D42*
X120750000Y-104750000D03*
D41*
X121150000Y-103800000D03*
X121550000Y-103800000D03*
X121550000Y-105700000D03*
X121150000Y-105700000D03*
X120750000Y-105700000D03*
X120350000Y-105700000D03*
X119950000Y-105700000D03*
%TD*%
D36*
%TO.C,R16*%
X137500000Y-117412500D03*
X137500000Y-115587500D03*
%TD*%
D43*
%TO.C,J1*%
X146000000Y-115300000D03*
D44*
X144000000Y-115300000D03*
%TD*%
D45*
%TO.C,SW2*%
X93400000Y-108200000D03*
D46*
X94000000Y-109650000D03*
X94000000Y-111350000D03*
D45*
X93400000Y-112800000D03*
D47*
X95400000Y-108800000D03*
X95400000Y-112200000D03*
%TD*%
D18*
%TO.C,R2*%
X133000000Y-108087500D03*
X133000000Y-109912500D03*
%TD*%
D26*
%TO.C,R18*%
X152662500Y-114250000D03*
X150837500Y-114250000D03*
%TD*%
D48*
%TO.C,U3*%
X116480000Y-118100000D03*
D49*
X117325000Y-119000000D03*
D50*
X117100000Y-119000000D03*
D51*
X117725000Y-117850000D03*
D52*
X118400000Y-118250000D03*
X118400000Y-118750000D03*
X118400000Y-119250000D03*
X118400000Y-119750000D03*
D51*
X117725000Y-120150000D03*
D53*
X116480000Y-119725000D03*
%TD*%
D27*
%TO.C,C14*%
X100500000Y-105300000D03*
X100500000Y-110700000D03*
%TD*%
D35*
%TO.C,R10*%
X127462500Y-119500000D03*
X124537500Y-119500000D03*
%TD*%
D54*
%TO.C,U6*%
X105400000Y-100400000D03*
X105400000Y-101300000D03*
X105400000Y-102200000D03*
X105400000Y-103100000D03*
X104480000Y-103100000D03*
X104480000Y-102200000D03*
X104480000Y-101300000D03*
X104480000Y-100400000D03*
%TD*%
D17*
%TO.C,D4*%
X137500000Y-120937500D03*
X137500000Y-119062500D03*
%TD*%
D32*
%TO.C,R14*%
X144925000Y-108750000D03*
X146575000Y-108750000D03*
%TD*%
D31*
%TO.C,TP5*%
X116250000Y-109500000D03*
%TD*%
D55*
%TO.C,J3*%
X149645000Y-104110000D03*
X149645000Y-109890000D03*
D56*
X148570000Y-103800000D03*
X148570000Y-104600000D03*
D57*
X148570000Y-105750000D03*
X148570000Y-106750000D03*
X148570000Y-107250000D03*
X148570000Y-108250000D03*
D56*
X148570000Y-109400000D03*
X148570000Y-110200000D03*
X148570000Y-110200000D03*
X148570000Y-109400000D03*
D57*
X148570000Y-108750000D03*
X148570000Y-107750000D03*
X148570000Y-106250000D03*
X148570000Y-105250000D03*
D56*
X148570000Y-104600000D03*
X148570000Y-103800000D03*
D58*
X153325000Y-102680000D03*
D59*
X149145000Y-102680000D03*
D58*
X153325000Y-111320000D03*
D59*
X149145000Y-111320000D03*
%TD*%
D60*
%TO.C,D6*%
X154750000Y-113312500D03*
X154750000Y-115187500D03*
%TD*%
D15*
%TO.C,C11*%
X109000000Y-102950000D03*
X109000000Y-101050000D03*
%TD*%
D25*
%TO.C,C4*%
X124525000Y-116000000D03*
X127475000Y-116000000D03*
%TD*%
D61*
%TO.C,C12*%
X102750000Y-119200000D03*
X102750000Y-113800000D03*
%TD*%
D31*
%TO.C,TP8*%
X123000000Y-106000000D03*
%TD*%
D62*
%TO.C,L2*%
X118176500Y-113750000D03*
X113323500Y-113750000D03*
%TD*%
D43*
%TO.C,J2*%
X133400000Y-115300000D03*
D44*
X131400000Y-115300000D03*
%TD*%
D33*
%TO.C,C7*%
X122450000Y-120000000D03*
X120550000Y-120000000D03*
%TD*%
D26*
%TO.C,R19*%
X152662500Y-99750000D03*
X150837500Y-99750000D03*
%TD*%
D36*
%TO.C,R4*%
X137500000Y-109912500D03*
X137500000Y-108087500D03*
%TD*%
D63*
%TO.C,SW1*%
X93070000Y-106650000D03*
X95280000Y-106650000D03*
D64*
X94170000Y-104500000D03*
X94170000Y-101500000D03*
D63*
X93070000Y-99350000D03*
X95280000Y-99350000D03*
D65*
X95930000Y-105250000D03*
X95930000Y-102250000D03*
X95930000Y-100750000D03*
%TD*%
M02*
